<?xml version="1.0" encoding="UTF-8"?><svg id="Layer_1" xmlns="http://www.w3.org/2000/svg" viewBox="0 0 140.71 138.42"><path d="m41.3,119.95c3.46,1.92,6.67.56,9.79-.6,1.85-.68,3.83-1.25,5.52-2.7-1.58-1.96-3.09-3.9-4.68-5.79-3.31-3.95-6.38-8.07-9.2-12.38-2-3.04-4.17-5.97-6.15-9.03-2.13-3.31-4.73-6.35-6.6-9.79-1.37-2.53-2.86-2.6-5.41-2.32-3.79.41-5.84,3-8.31,5.19-.49.44-.42.51-1.46.8,1.15-2.49,3.11-4.04,4.94-5.68-1.7-1.64-2.37-1.57-3.44.22-.96,1.62-1.93,3.24-2.72,5.14-.7-1.41-.85-1.52,2.36-7.67-1.38-1.47-2.52-3.1-2.6-5.23-.15-3.55,1.85-5.99,4.37-8.06,2.79-2.29,6.08-3.71,9.53-4.61,2.45-.64,4.12-2.53,6.34-3.51,1.32-.58,2.54-1.38,3.81-2.05.42-.22.78-.44,1.01-1.08-.96.21-1.77.38-2.57.55-5.44,1.19-9.54-2.7-10.59-6.7-.82-3.13,1.61-5.22,5.24-4.64.95.15,1.89.4,2.81.6.42-.64.23-1.15.08-1.7-1.47-5.37-1.65-10.79-.28-16.18.43-1.69,1.2-3.4,2.22-4.81,2.2-3.05,6.15-3.53,9.15-1.21,3.49,2.69,5.89,6.2,7.45,10.33,1.28,3.39,2.16,6.86,2.52,10.45.21,2.14.26,4.31-.06,6.45-.17,1.19.29,1.57,1.37,1.45,1.87-.2,3.52-.75,4.5-2.56,1.21-2.23,2.96-4.08,4.51-6.07.49-.62.42-.98-.09-1.54-1.15-1.28-2.08-2.73-3.38-3.9-1-.89-1.21-2.29-1.54-3.56-.96-3.6-.54-7.2-.11-10.82.18-1.5.39-2.96.96-4.35.32-.76.71-1.51,1.49-1.89.7.37.43.9.36,1.39-.45,3.14-1.25,6.23-1.27,9.44,0,2.02.21,4.01.53,5.98.21,1.3.86,2.45,1.9,3.36,1.13.99,1.69,2.47,2.82,3.43.49.07.71-.25.94-.55,3.37-4.32,7.52-7.81,11.88-11.07,1.42-1.06,2.8-2.17,4.25-3.19.63-.45.7-.86.39-1.53-2.53-5.45-6.65-9.05-12.41-10.76-1.87-.55-3.78-.59-5.68-.13-.44.1-.88.37-1.34.06.4-1.22,2.2-2.33,3.62-2.32,5.83.05,10.38,2.81,14.16,6.93,1.27,1.38,2.01,3.24,2.98,4.89.21.36.4.73.64,1.18,1.88-.6,3.54-1.56,5.37-2.12,7.02-2.18,13.32,1.58,16.61,6.84,1.56,2.5,3.31,4.89,4.71,7.48.85,1.57,1.55,2.31,3.5,1.7,1.98-.62,3.98-.24,5.94.83,1.87,1.03,1.99.8.58,2.72-.14.19-.27.38-.43.6,2.15,2.81,1.99,5.73.36,8.66-.53.95-.26,1.45.53,2.09,2.64,2.14,4.7,4.84,6.4,7.74,1.98,3.4.66,6.64-1.09,9.68-1.65,2.87-3.38,5.72-5.69,8.14-.21.23-.32.55-.51.87,1.25.89,1.96,2.07,1.46,3.51-.57,1.63-2.11.89-3.42.98.17,1.48-.03,2.72-1.91,2.52-.15,2.32-.67,2.76-2.7,1.6-2.28-1.3-3.99-.9-6.11.44-3.76,2.38-7.83,4.18-12.29,4.88-1.56.25-2.8,1.72-2.9,3.23-.03.43.25.69.47.98.62.83,1.26,1.7,1.33,2.74.16,2.33,1.89,3.78,2.96,5.61.53.9.85,1.86,1.12,2.86.22.85.26,1.62-.61,2.07-.89.46-1.4-.24-1.89-.78-.94-1.04-1.84-2.13-2.74-3.2-.4-.47-.77-.76-1.43-.39-2.4,1.36-4.56.32-6.59-.86-1.68-.98-1.77-1.07-3.2.63,3.37,1.86,5.38,4.82,6.66,8.34.35.95,1.25,1.04,1.95,1.45,1.85,1.07,3.69,2.07,5.92.96.55-.28.98.22,1.26.65.28.43.46.91.07,1.43-.4.54-.95.81-1.55.87-3.32.31-6.57.11-9.43-1.85-.53-.36-.87-.29-1.39-.09-3.23,1.27-6.31,1-9.2-.98-1.37-.94-2.01-2.42-2.78-3.74-.45-.13-.67.15-.93.33-1.61,1.13-3.21,2.26-4.82,3.39-1.72,1.22-1.63,2.57.22,3.46,1.08.52,1.94,1.32,2.62,2.29.65.93.34,2.23-.63,2.45-1.73.38-3.32-.2-5.2-.96,1.65-.88,3.05.19,4.44-.33-.57-1.27-1.57-1.86-2.82-2.36-1.19,2.29-2.98,3.32-5.74,2.32.44,1.16,1.29,2.04,1.08,2.95-.65,2.87,1.27,5.21,1.42,7.9.07,1.37.11,2.71-.23,4.04-.22.87-.69,1.62-1.66,1.68-.97.06-1.07-.8-1.36-1.5-.65-1.58-1.05-3.2-1-4.91,0-.32,0-.67-.33-.87-.09-.02-.2-.08-.27-.04-4.2,2.08-8.12,0-10.44-3.88-.84-1.4-1.78-1.38-2.85-.98-3.37,1.27-6.23-.13-9.03-1.63-3.74-2.01-6.89-4.79-9.7-7.96-.46-.52-.87-.53-1.46-.19-2.52,1.42-5.08,2.77-7.59,4.22-.91.52-1.82.93-2.83,1.18-.6.15-1.11.13-1.53-.37-.43-.51-.32-1.05-.04-1.57,1.45-2.66,2.92-5.31,4.33-8,.58-1.12.98-2.33,1.54-3.46.38-.77-.11-1.25-.43-1.79-2.48-4.08-5.01-8.14-6.28-12.8-.49-1.82-1.02-3.67-.55-5.59.71.02.78.5.89.88,1.35,4.64,3.17,9.11,5.64,13.26,2.04,3.41,4.4,6.61,6.94,9.69,2.56,3.11,5.3,6.05,8.46,8.54,1.87,1.47,3.9,2.76,6.22,3.7m20.87-76.74c-.08.32-.18.63-.22.96-.25,1.84-1.24,3.57-.79,5.51,1.85,8.06,5.42,15.19,11.37,21.04.46.46,1.13.84,1.2,1.95-4.16-1.44-6.25-4.73-8.37-7.97-2.18-3.32-3.65-7-5.27-11.07-.28,1.78-1.57,1.13-2.34,1.61-2.1,1.3-4.3,2.43-6.48,3.59-1.5.8-1.63,1.14-.77,2.58,3.44,5.74,7.22,11.25,10.99,16.77,5.19,7.6,10.93,14.8,16.31,22.25.46.63.89.76,1.5.26,2.63-2.17,5.25-4.36,7.9-6.5,2.34-1.89,3.69-4.74,6.19-6.48.05-.03.03-.16.06-.42-4.14-.14-7.74-1.72-11.13-4.02-4.57-3.1-8.22-6.87-8.05-8.61.57-.12.87.35,1.16.66,1.96,2.09,4.24,3.8,6.55,5.47,2.59,1.88,5.37,3.48,8.52,4.18,4.94,1.11,9.55-.33,13.97-2.34,2.98-1.36,5.91-2.81,8.95-3.94.82,1,.94,1.06,2.39,1.27q.12-1.99,2.28-2.31c.22-2.29,2.19-1.73,3.62-1.97-.06-1.34-.78-1.54-1.77-1.2-.02-.7.34-1.09.6-1.53,1.88-3.29,4.22-6.27,6.08-9.59,2.05-3.64,2.92-7.09-.14-10.58-.09-.1-.13-.25-.2-.37-1.43-2.13-2.95-4.18-4.86-6-1.25,1.16-2.81,1.45-4.11,2.3-3.84,2.52-6.88,2-10.13-1.53-.61-.66-1.29-.51-1.92-.3-.63.21-1.35.32-1.81,1.13-1.31-2.1-1.41-4.21-.66-6.18,1.34-3.53,3.79-6.17,7.24-7.84,2.01-.97,2.06-1.29.85-3.24-1.41-2.27-2.96-4.44-4.25-6.78-.75-1.35-1.69-2.62-2.86-3.63-4.44-3.85-9.4-4.13-14.66-1.96-2.34.97-2.35,1.04-1.21,3.31.34.67.78,1.28,1.09,1.96.32.69.99,1.25.89,2.44-2.58-1.09-2.9-3.88-4.7-5.54-6.28,4.59-12.68,8.95-17.6,15.25.98.92,1.92,1.76,2.79,2.66.4.42,1.54.61,1,1.38-.55.78-1.35.03-1.99-.29-.33-.17-.6-.44-.89-.68-.71-.58-1.42-1.17-2.22-1.83-1.6,1.91-3.48,3.45-4.09,6.14m-7.44,28.35c-2.42-3.2-4.28-6.75-6.47-10.36-5.28,6.22-11.1,11.46-18.36,14.85.31,1.13.82,1.99,1.41,2.76,3.08,3.98,5.6,8.33,8.55,12.4,4.05,5.59,7.57,11.56,12.06,16.84,1.94,2.28,3.56,4.81,5.64,6.98.3.31.58.86,1.15.55,1.07-.57,2.16-1.11,3.14-1.8,3.16-2.25,6.29-4.52,9.39-6.86,1.67-1.26,3.55-2.23,5.01-3.8.62-.67.53-1.07.06-1.66-1.02-1.28-2.03-2.56-3.02-3.86-2.37-3.12-4.72-6.26-6.99-9.45-1.97-2.77-4.04-5.48-5.97-8.28-1.85-2.7-3.91-5.25-5.6-8.31m-25.09-29.71c-2.48-.06-3.2,1.08-2.15,3.34.7,1.49,1.84,2.57,3.12,3.53,1.66,1.25,4.66,1.28,6.52.07-.51-1.17-1.16-2.32-1.52-3.56-.61-2.14-2.51-3.47-5.97-3.38m82.11,2.59c-1.05.74-2.42.92-3.41,1.8,1.95,2.6,5.38,2.89,8.01.71-1.2-.99-1.83-2.38-2.52-3.78-.71.44-1.3.8-2.07,1.27m-61.35,11.87c-.08.55.1.83.69.66.73-.21,1.35-.48,1.65-1.32.87-2.4,1.82-4.77,2.73-7.16.11-.3.23-.62-.12-.96-.66-.11-1.26.05-1.56.76-1.12,2.61-2.22,5.22-3.39,8.01m65.8-14.76c-1.06,1.17-1,1.97.24,3.21,1.13,1.14,2.05,1.26,3.05.39.91-.79,1.1-3.31.31-4.15-.94-1-2.19-.85-3.6.55m-75.41,12.98c-.52-.69-.64-1.99-1.95-1.54-1.09.37-1.72,1.18-1.56,2.51.96-.06,1.83-.23,2.71-.02.52.13.93-.1.8-.95m81.39-14.87c-.08-1-.02-2.06-1.14-2.75-.61.66-1.2,1.3-1.87,2.02,1.16.41,2.08,1.06,2.73,2.33.12-.6.2-.99.28-1.6m-60.54,85.72c-.19,2.08.49,3.99,1.1,6.14.54-2.21-.06-4.1-.49-5.99-.06-.25-.2-.42-.61-.14m36.27-24.41c-.49-1.21-1.15-2.3-2.11-3.2-.43.3-.75.56-.82,1.1.89.83,1.79,1.71,2.75,2.52.4.34.29-.06.18-.42m-62.43-45.87c-1.05-.6-1.47.63-2.28.73.78-.06,1.62.11,2.28-.73m54.35,55.41c-.17.02-.33.05-.68.1.82.55,1.56.66,2.63.83-.76-.52-1.15-.98-1.95-.93Z"/><path d="m98.48,61.91c-2.12,2.42-4.33,4.5-7.41,5.47-3.07.97-5.85.22-7.7-2.39-.61-.87-1.08-.9-1.95-.41-2.33,1.31-3.33.78-3.4-1.91-.13-5.05,1.5-9.39,5.76-12.37,3.34-2.33,7.15-2.84,11.11-2.04,1.49.3,2.03,1.45,1.55,3.16-.45,1.59-1.34,2.97-2.25,4.33-.47.7-.58,1.18.23,1.73,1.36.92,1.41,2.44,1.61,4.04,1.33-1.01,1.93-2.32,2.23-3.78.3-1.47-.87-2.74-.69-4.21,1.22-.19,2.17.71,2.55,2.31.54,2.28-.13,4.23-1.63,6.06m-12.7.69c-.51.29-1.03.59-1.54.88,1.32,2.23,3.34,3,5.68,2.12-1.03-1.14-2.18-2.16-2.51-3.76-.62.28-1.03.47-1.63.76m4.05-2.4c-.61.31-1.23.66-.87,1.48.46,1.05,1.14,2.03,2.34,2.21,1,.15,1.82-.55,2.31-1.33.55-.88.22-1.9-.23-2.75-.77-1.47-1.24-1.52-2.51-.43-.28.24-.57.47-1.04.81Z"/><path d="m120.36,54.97c.75.77,1.46,1.46,2.08,2.22.35.43.67.98.08,1.49-.56.47-.99.16-1.48-.22-.85-.68-1.39-2.15-2.53-1.98-1,.16-1.36,1.57-1.97,2.43-1.27,1.79-3.11,2.63-5,3.44-.34.15-.68.29-1.04.4-2.26.69-2.93,2.24-2.95,4.53-.02,2.7-2.85,5.31-5.51,5.5-.32.02-.67.1-.88-.31.16-.68.85-.62,1.31-.83,2.24-1.03,3.26-2.83,3.4-5.21.03-.47.11-.94.07-1.4-.14-1.66.77-2.54,2.14-3.23,2.23-1.13,4.8-1.69,6.54-3.67.74-.84,1.34-1.79,2.04-2.66,1.53-1.91,1.58-1.91,3.7-.5Z"/><path d="m117.63,41.31c.24-.03.38-.06.52-.03.68.13,1.26.38,1.33,1.19.04.55-.11,1.04-.64,1.28-.55.25-1.02,0-1.33-.46-.42-.63-.83-1.31.12-1.98Z"/><path d="m91.16,62.47c-1.14-.44-1.36-1.24-.85-2.13.31-.53.91-1.06,1.64-.7.62.3.93.89.84,1.62-.11.9-.63,1.29-1.63,1.21Z"/></svg>