<?xml version="1.0" encoding="UTF-8"?><svg id="Layer_1" xmlns="http://www.w3.org/2000/svg" viewBox="0 0 113 168"><path d="m94.03,86.02c-.74.85-1.4,1.64-2.09,2.41-.35.39-.77.79-.78,1.3-.04,2.88-1.94,4.7-3.77,6.48-1.9,1.84-4.17,3.14-6.86,3.57-.57.09-1.18.21-1.66.01-1.62-.65-2.2.45-3.11,1.44-1.96,2.12-1.65,4.55-1.5,7.07.15,2.65.08,5.31.12,7.97,0,.32-.03.66.29,1.03,1.36-.13,2.78.01,4.18.42.65.19,1.42.35,1.74.84,1.29,1.97,2.79.97,4.37.57,3.93-.99,7.93-1.41,11.88-.23,4.4,1.31,6.36,3.69,6.67,7.37.26,3.09-1.22,5.44-3.16,7.51-1.42,1.52-2.98,2.99-4.96,3.85-.58.25-.61.75-.66,1.28-.18,2.21-.8,4.24-2.01,6.17-1.66,2.66-4.31,3.98-6.86,5.39-3.52,1.95-7.47,2.64-11.41,3.2-3.51.5-7.04.31-10.58.13-4.32-.21-8.28-1.77-12.37-2.83-1.87-.49-3.7-1.34-5.24-2.6-1.14-.93-2.18-.86-3.6-.39-4.98,1.67-7.47.81-10.2-3.58-2.2-3.55-2.43-7.42-1.57-11.38.55-2.5,1.1-5.06,2.67-7.18,2.12-2.86,4.21-5.8,8.32-5.86.76-.01.89-.59.9-1.18.07-5.89.77-11.76.64-17.66,0-.41.02-.85-.36-1.15-5.46,5.4-10.33,4.09-14.46,2.13-2.81-1.33-5.14-3.48-6.22-6.57-1.03-2.96-1.03-5.95.37-8.85-1.28,0-2.34,0-3.4,0-4.62-.02-8.11-1.76-10.38-6.05-2.78-5.25-2.6-10.27.27-15.33,1.1-1.93,2.86-3.17,4.71-4.37-.54-.91-1.55-1-2.16-1.63-2.18-2.26-3.91-4.79-4.67-7.88-.81-3.33.11-6.38,1.63-9.32,1.75-3.38,3.87-6.38,7.48-8.07,1.89-.89,3.81-1.21,5.85-.96.74.09,1.48.2,2.29-.14.02-1.62-.39-3.21-.16-4.86.94-6.86,6.45-11.15,13.24-11.31,3.26-.08,6.17.76,8.93,2.4,1.43.85,2.61.47,3.24-1.11,2.18-5.42,6.59-6.99,11.92-7.1,3.02-.06,5.58,1.01,7.71,3.1,1.65,1.61,2.65,3.59,2.94,5.9.06.5-.02,1.04.58,1.43,1.05-.88,2.14-1.71,3.44-2.3,3.63-1.64,6.88-.86,9.87,1.41,2.01,1.52,3.69,3.23,4.75,5.73.68,1.6,2.01,3.18,3.76,4.27,2.7,1.68,4.41,4.19,4.52,7.5.04,1.28.33,2.62-.41,3.85-.31.52.08.89.41,1.21,2.92,2.82,4.23,6.37,3.9,10.29-.36,4.25-.05,8.47-.06,12.71-.01,3.41-1.39,6.52-2.81,9.48-1.74,3.6-3.42,7.3-6.11,10.49m-65.36-19.79c-.25-.97-.18-1.96-.16-2.94,0-.63-.06-1.24-.49-1.71-.75-.8-1.2-1.78-1.77-2.69-3-4.8-2.3-10.94,1.98-14.52,1.87-1.57,3.04-2.91,2.3-5.5-.49-1.69.19-3.5.34-5.32-.62.19-.92.62-1.25,1-3.92,4.49-6.33,9.75-7.79,15.49-1.46,5.7-1.53,11.44-.58,17.23.77,4.72,2.18,9.18,4.94,13.13,1.75,2.5,3.89,4.67,5.92,6.94,2.02,2.27,4.5,3.91,7.14,5.34.82.44,1.24.29,1.51-.65.48-1.65,1.29-3.16,2.83-4.05,4.89-2.81,9.77-2.99,14.54.29,3.44,2.36,5.64,6.48,3.34,10.39-.05.08.04.25.07.37,8.28,1.53,25.24-5.53,28.55-11.86-.23-.33-.58-.21-.89-.26-1.28-.24-2.64-.25-3.81-.86-2.97-1.57-5.46-3.8-7.52-6.41-2.11-2.67-4.03-5.49-5.95-8.31-.66-.96-1.42-1.25-2.5-1.1-2.54.34-4.98.79-7.41,1.83-2.84,1.22-5.99,1.71-8.09,4.29-.11.13-.3.26-.47.27-1.31.14-2.28.99-3.4,1.53-2.15,1.03-4.35,1.82-6.86,1.45-2.58-.37-4.95-1.26-7.33-2.27-4.4-1.87-6.98-6.48-7.2-11.1m37.15,66.9c.29-.23.57-.49.87-.7,1.36-.95,1.47-1.3.45-2.68-1.48-2-3.3-3.56-5.89-3.93-.58-.08-.84.25-1.14.62-2.26,2.86-5.01,4.86-8.8,5.15-1.61.13-3.2,0-4.76-.24-4.31-.64-8.59-1.46-11.08-5.69-.31.07-.47.3-.58.56-1.38,3.25-2.32,6.63-2.59,10.15-.3,3.84,2.52,6.3,6.28,5.65,1.45-.25,2.82-.8,4.08-1.45,1.52-.78,2.92-.64,4.31.02,2.53,1.2,5.17,2.15,7.65,3.49,3.07,1.65,6.28,3.05,9.81,3.15,3.97.11,7.93-.14,11.84-.99,4.41-.97,8.54-2.48,11.76-5.84.74-.78,1.47-1.57,2.23-2.33.38-.38.78-1.01,1.4-.53.6.47.15,1.05-.14,1.5-1.8,2.75-4.13,4.98-7.07,6.44-5.2,2.57-10.79,3.5-16.55,3.71-4.19.15-8.16-.63-11.95-2.4-3.22-1.51-6.44-3.02-9.64-4.56-.96-.46-1.83-.49-2.81-.04-1.18.54-2.41.99-3.66,1.36-2.01.59-3.97.35-5.86-.66.59.94,1.21,1.76,1.85,2.55.53.65,1.25.98,2.08,1.03,1.64.08,3.27.2,4.8-.65.56-.31,1.23-.42,1.87-.56,1.07-.23,1.86.15,2.2,1.21.17.54.46.86.95,1.12,3.74,1.97,7.95,2.39,11.92,3.57,2.59.77,5.32.71,8.04.72,6.32.02,12.38-.96,18.07-3.79,3.65-1.82,6.27-4.41,6.96-8.71.64-3.98-3.6-8.34-6.43-8.91.03,6.61-7.59,13.09-12.94,10.9.31-.56.86-.67,1.38-.83,2.19-.69,4.41-1.34,6.33-2.64,2.83-1.91,4.12-4.66,4.34-8.11-1.92-.3-3.64-.74-5.43-.64-3.65.22-6.93,1.47-9.86,3.64-.87.65-1.81,1.18-2.83,1.53-.88.3-1.63.24-1.45-1.19m13.31-95.97c1.33-.26,2.66-.52,3.99-.79,1.32-.26,1.1-1.45,1.38-2.33.19-.61-.17-.93-.69-1.18-2.1-1.02-2.48-1.78-2.02-4.06.14-.71.12-1.32-.55-1.72-2.05-1.22-4.11-2.42-6.48-2.97-4.33-1-8.75-1.21-13.15-1.65-.5-.05-1.11.03-1.08.59.12,2.24-.97,3.9-2.52,5.37,7.25,3.76,9.2,9.46,6.42,16.94,1.03.21,1.55-.43,2.1-.87,3.8-2.99,7.75-5.71,12.6-7.35m11.85,89.27c1.1-.88,1.79-2.02,2.15-3.36.52-1.9-.15-2.82-2.09-2.87-2.21-.06-4.5-.16-6.53.62-2.27.86-3.95.96-5.41-1.26-.37-.56-1.38-1.06-2.06-.21-1.63,2.07-3.91,2.89-6.32,2.72-2.57-.18-5.67.32-7.01-2.99-.04-.11-.21-.17-.34-.23-1.41-.69-3.97.11-4.81,1.5.84,1.07,2.11,1.87,2.16,3.45,0,.32.31.44.6.5,1.7.33,3.28,1.16,4.92,1.53,3.26.74,6.58.73,9.74-.83.99-.49,2-1.1,3.23-.93-2.92,3.78-6.97,3.97-11.33,3.32q1.81,2.83,4.61,1.58c.3-.13.57-.32.88-.44,4.09-1.61,8.25-1.96,12.49-.62,2.14.68,3.98,1.85,5.51,3.48.69.73,1.34.82,2.22.29,2.22-1.32,4.08-2.95,5.33-5.25.37-.69.59-1.59,1.55-1.79.59.66.21,1.24.02,1.77-1.3,3.46-4.1,5.3-7.44,6.65.41,1.03.78,1.95,1.39,2.78,2.55-1.33,4.39-3.29,6.01-5.49,1.56-2.12,1.31-5.09.21-6.63-1.6-2.23-4.08-2.84-7.05-3.33.94,1.87.74,3.35-.06,4.84-.79,1.46-1.79,2.55-3.5,2.96q.15-.89.92-1.74M18.53,58.98c.53-8.54,2.73-16.54,7.82-23.5-.5-.53-.89-.94-1.42-.95-2.46-.05-4.91-.27-7.3.72-3.88,1.62-5.96,4.82-7.62,8.4-1.01,2.18-1.86,4.45-1.26,6.9,1.22,5.02,4.29,8.29,9.38,9.58.37-.21.38-.59.4-1.15m32.47-27.94c-2.25-.46-4.28.11-6.07,1.45-3.14,2.36-6.71,4.43-5.74,9.39.24,1.22.55,2.23,1.43,3.07,2.59,2.49,5.72,3.88,9.15,4.82,2.5.69,4.23-.24,5.8-2.02,2.72-3.09,3.17-6.63,2.26-10.49-.77-3.28-3.84-6.62-6.83-6.23M9.07,75.86c.14.45.24.91.42,1.34,1.02,2.55,2.17,5.07,4.81,6.29,3.72,1.7,7.4,1.66,10.86-.92-.11-.19-.22-.39-.34-.58-2.78-4.01-4.61-8.42-5.42-13.23-.35-2.06-.51-4.15-.74-6.23-.06-.54-.13-1.16-.82-1.05-1.05.17-2.12.17-3.14.66-4.57,2.21-6.72,8.95-5.63,13.72m23.96,15.13c-2.14-1.68-3.82-3.81-5.6-5.83-1-1.13-1.57-1.16-2.34.15-.87,1.5-1.44,3.15-1.56,4.9-.29,4.33,1.46,7.53,5.26,9.73,3.35,1.95,6.63,2.46,10.22.64,1.27-.65,2.15-1.74,3.42-2.39.77-.4.54-1.26-.3-1.61-1.6-.68-2.95-1.79-4.53-2.52-1.61-.74-3.12-1.7-4.57-3.07m45.83-21.4c.31.1.62.21.93.3,1.79.52,1.85.46,2.14-1.34.38-2.39.69-4.79.78-7.21.11-2.7.2-5.4,0-8.11-.05-.66-.09-1.34-1.01-1.41-2.36-.19-4.61.3-6.9,1.03.87,3.95.87,7.77.29,11.65-.56,3.68-.12,4.07,3.77,5.08M42.49,21.1c.65-.38,1.55-.29,2.15-1.08-.69-.54-1.39-.88-2.16-1.1-3.2-.91-6.34-.72-9.45.41-4.86,1.77-7.79,6.7-6.94,11.81.17,1.03.34,2.12,1.49,2.79,1.06-1.24,2.32-2.22,3.4-3.36.82-.86,1.97-1.32,2.63-2.3,2.18-3.26,5.26-5.39,8.89-7.18m41.79,39.95c-.16,2.27-.22,4.55-.5,6.82-.39,3.21-.33,3.19,2.85,3.8.86.16,1.28-.1,1.6-.89.52-1.3,1.07-2.57,1.46-3.92,1.31-4.54,1.83-9.14,1.23-13.85-.1-.75-.41-1.13-1.12-1.15-1.59-.03-3.18-.05-4.77-.03-1,.01-1.47.53-1.23,1.55.57,2.44.51,4.93.49,7.66m-15.61-45.08c-.81-1.15-1.98-1.84-3.24-2.36-3.15-1.3-6.3-1.03-9.45.07-2.05.72-3.49,2.12-4.54,3.97-.5.87-.46,1.41.76,1.39.79,0,1.58-.03,2.37.18,2.97.79,5.92,1.68,9.06,1.29.23-.03.46.08.7.07,1.99-.05,3.94.66,6.12.43-.14-1.83-.66-3.43-1.78-5.05m-13.36,88.42c-.15,4.71-.95,9.39-.75,14.12.02.49-.24,1.15.54,1.2.7.04,1.52.69,2.11-.36,1.15-2.03,3.11-2.18,5.14-2.01.45.04.9.28,1.44-.1-.01-3.3-.51-6.61-.81-9.94-.08-.91-.84-1.04-1.53-1.17-1.22-.23-2.32-.71-3.35-1.38-.81-.53-1.39-1.37-2.32-1.79-.12.17-.22.27-.26.39-.08.27-.13.54-.21,1.04m42.57-47.98c-1.48-1.87-3.43-2.99-5.83-3.84.08.82.11,1.32.18,1.83.43,3.1.63,6.17.03,9.3-.46,2.46-1.21,4.79-2.05,7.12-.23.66-.46,1.29.64,1.38,2.35.19,5.37-1.87,5.97-4.15,1-3.74,1.22-7.57,1.04-11.65m-47.22,69.24c-3.09.61-5.81-.28-8.27-2.1-.58-.43-1.18-.75-1.87-.91-1.33-.32-2.44.17-2.95,1.25-.59,1.25-.16,2.07.95,2.8,2.57,1.7,5.44,2.47,8.42,2.82,3.65.43,7.18.3,10.16-2.37,1.4-1.25,2.18-3.14,1.41-4.13-.77-.99-2.63-.76-4.11.61-1.02.95-2.16,1.62-3.74,2.02m12.93-67.38c-.49.39-1.21.55-1.33,1.46,3.71,1.79,7.2,4,10.57,6.25.28-.26.39-.31.41-.39.92-3.76,1.1-7.56.71-11.4-.08-.75-.5-1.01-1.29-.67-3.09,1.32-6.09,2.78-9.07,4.74m-25.02,13.69c-.25.91-.68,1.73-1.21,2.51-.47.7-.28,1.2.46,1.57,1.39.71,2.89.98,4.41,1.26,1.68.31,2.51-.57,3.24-1.78,1.34-2.18,1.01-4.59.94-6.96-.08-2.51-.11-2.51-2.68-2.41-.65.02-1.37-.14-1.95.07-.99.37-2.58.1-2.66,1.65-.07,1.31-.26,2.58-.56,4.08m-4.3-21.35c-.03.28-.06.56-.08.84-.28,3.93-.09,7.74,2.56,11.02,1.92,2.37,4.1,3.08,7.11,2.09-1.5-1.14-2.93-2.34-3.92-3.94-2.23-3.6-2.95-7.53-2.23-11.67.27-1.52.12-2.96-.03-4.43-.04-.4-.14-.76-.58-.86-.51-.12-.59.34-.77.65-1.07,1.89-1.65,3.95-2.08,6.31m11.84,6.16c-.6-1.57-1.67-2.57-3.32-3.06-.87-.26-1.58-.92-2.23-1.63-.43-.48-.74-1.16-1.48-1.49-.07.29-.16.47-.15.64.52,5.13,1.62,9.9,7.12,12.16,1.66.68,4.36.2,5.6-1.31-2.17-1.34-4.1-2.93-5.54-5.31m4.04,19c1.08-.67,2.49-.89,3.07-2.23.74-1.7.87-3.53,1.04-5.34.15-1.54-.28-3.02-.96-4.52-2.06.74-4.01,1.44-6.06,2.17.78,3.74,1.28,7.41-.44,11.12,1.39-.07,2.24-.68,3.34-1.2m-17.21-26.41c.33-2.12,1.43-3.98,2.24-5.95-.64-.2-.97.08-1.26.38-3.48,3.56-5.56,7.73-5.29,12.81.16,2.95,1.75,5.06,4.31,6.47.61.33,1.24.67,2.1.26-.87-2.2-2.32-4.18-2.43-6.63-.11-2.38-.26-4.75.34-7.33m27.15,47.98c.92-2.14.38-4.3-1.51-6.08-3.78-3.56-8.19-4.21-13.06-2.01-1.92.87-2.72,2.46-3.07,4.38-.06.31.07.56.53.57.59-.65.64-1.7,1.38-2.31.77-.64,1.65-1.1,2.62-1.29.82-.16,1.68-.11,2.51-.23,4.16-.6,7.56,2.53,7.17,6.71-.08.86.23,1.21.92,1.45,1.11.38,1.92.05,2.52-1.2m-4.27-29.37v4.69c2.08-.33,3.73-1.63,5.61-2.41.37-.15.44-.56.53-.94.48-2,.16-3.99-.16-5.96-.09-.52-.43-1.02-.99-1.06-2.22-.17-4.47-.4-6.56.93.59,1.53,1.37,2.92,1.58,4.75m30.23-23.87c-.67-1.36-1.07-2.82-1.05-4.32.01-1.25-.55-1.56-1.63-1.41-.46.06-.92.14-1.38.21-1.66.28-2.02.88-1.57,2.52.71,2.56,1.97,4.81,3.57,6.91.8,1.05,1.72,1.68,3.08,1.48.52-.08,1.24.24,1.47-.45.21-.61-.15-1.14-.59-1.62-.81-.91-1.44-1.95-1.91-3.31m-29.18,56.74c-.56.56.12.7.36.92,4.71,4.3,11.44,3.48,16.11-.1.64-.49,1.28-1.1,1.33-2.04-9.07,2.28-13.19,1.78-17.8,1.23m-23.94-28.05c1.68,1.79,2.15,1.85,3.21.32,1.19-1.72,1.38-3.73,1.53-5.73.05-.67-.42-.85-1-.88-1.77-.09-3.32-.84-4.83-1.7-.47-.26-.97-.79-1.51-.4-.57.42-.34,1.1-.2,1.69.58,2.31,1.17,4.61,2.79,6.7m42.5-27.02c1.02,1.24,2.16,2.34,3.58,3.1,1.12.6,2.3.9,3.8.32-2.09-2.99-3.56-6.11-4.06-9.72-1.87.6-3.32,1.44-4.77,2.26-.75.42-.83,1.07-.28,1.78.54.7,1.07,1.42,1.74,2.27m-22.76,8.96c-1.52.29-3.06.35-4.61.32-.37,0-.78-.18-1.03.2-.29.44.01.82.26,1.14,1.55,1.98,3.4,3.6,5.68,4.7.31.15.63.28.94.13,1.32-.67,2.77-1.1,3.91-2.07-.11-.64-.62-.89-.96-1.24-.75-.76-1.74-1.34-2.16-2.37-.37-.9-.99-1.02-2.04-.8m27.14-30.82c.93.53,1.87,1.06,2.79,1.6.47.28.93.4,1.45.12,1.01-.53,2.08-.39,3.14-.22.36.06.73.23,1.19-.37-1.84-2.17-3.79-4.2-6.77-4.84-2.55-.54-4.89-.04-7.3,1.67,2.02.67,3.72,1.14,5.5,2.02m12.68,16.75c.14,5.21,1.78,11.6,6.24,13.59-.33-.77-.63-1.44-.92-2.12-1.06-2.52-1.67-5.17-1.78-7.89-.07-1.91-1.42-3.58-3.54-3.58m-.43,6.68c-.43-1.78-.59-3.6-.8-5.41q-.3-2.57-2.83-3.17c-.14-.03-.27-.08-.41-.1-.9-.15-1.31.12-1.17,1.13.47,3.23,1.81,6.09,3.83,8.6.59.73,1.03,1.79,2.26,2.06-.03-1.11-.7-1.92-.88-3.11m-22.1-.32c.84,1.18,1.68,2.36,2.51,3.54.26.37.58.71,1.04.5,1.3-.61,2.77-.65,4.27-1.19-2.28-1.7-3.87-3.75-5.14-6.07-.16-.29-.32-.73-.67-.58-.99.41-1.97.91-2.65,1.77-.61.77.32,1.24.64,2.03m-1.74-.61c-.2-.3-.48-.3-.73-.12-.9.67-1.79,1.36-2.68,2.03-.56.42-.39.84-.08,1.33,1.87,2.98,3.7,3.53,6.85,2.03.07-.03.11-.13.23-.29-1.39-1.44-2.55-3.06-3.59-4.99m-6.03,4.06c-.58.47-1.39.82-1.69,1.42-.65,1.33.71,2.03,1.3,2.93.37.58.72,1.63,1.76,1.13,1.07-.51,2.06-1.18,3.29-1.9-1.54-1.29-2.78-2.59-3.65-4.28-.33.23-.59.41-1.01.7m1.58,18.03c-.06.64.24.8.84.73,1.47-.17,2.9-.47,4.48-1.03-1.69-2.08-3.39-3.86-6.02-4.79.21.99.4,1.76.51,2.53.11.78.14,1.57.19,2.56m-2.4-12.2c-.73-.87-1.21-1.88-1.69-2.9-.23-.49-.51-.75-1.09-.5-.9.38-1.83.71-2.73,1.08-.56.23-.74.61-.25,1.06,1.17,1.07,2.36,2.14,3.78,2.88.85.44,2.09-.48,1.98-1.62m37.3-6.77c.53,1.61.88,3.3,2.21,4.52.49-4.5-.72-8.15-3.32-9.79.05,1.79.6,3.41,1.11,5.27m-4.35-16.79c-.74-.66-1.62-1-2.34-.16-1.01,1.16-1.16,2.62-.98,4.24,1.53-1.87,3.34-2.14,5.62-.89-.63-1.43-1.43-2.21-2.3-3.19m-11.61,64.62c2.4-1.24,4.4-2.9,5.67-5.37-3.1,2.43-6.41,4.49-10.31,6.24,1.85.22,3.2-.07,4.65-.86m17.02-38.66c-.18-.23-.14-.63-.64-.7.6,3.34.11,6.64-.22,10.18,2.06-2.17,2.39-6.26.86-9.48m-70.93-9.88c.51-1.03,1.02-2.06,1.57-3.19-2.89,1.2-4.92,6.62-3.38,8.69.72-1.72.71-3.68,1.8-5.5m33.92-8.1c.21.16.44.52.7.31.46-.38.38-1.03.15-1.43-.91-1.62-2.25-2.85-3.82-4.02-.27,2.55,1.36,3.73,2.96,5.14m-2.66,3.49c.13.39.24.8.41,1.17.2.44.34,1.1,1.06.69.58-.33.68-.77.23-1.38-.53-.72-.96-1.52-.97-2.52.84.18.85,1.4,1.92,1.16-.13-1.4-1.06-2.13-2.18-2.93-.17,1.29-.32,2.43-.48,3.81m.5-9.21c.86.59,1.72,1.18,2.63,1.81-.3-1.53-3.3-3.94-5.03-4.14.26,1.21,1.08,1.88,2.4,2.33m27.8.72c.3-.78.94-1.45.84-2.5-1.05.42-1.54,1.18-1.94,2.02-.17.35-.25.77.1,1.02.41.29.66-.1,1-.54m7.18,2.6c-.08-.36-.14-.78-.48-.95-.5-.26-1.06-.7-1.61-.07-.31.37-.37.91.14,1,.63.11,1.19,1.47,1.95.02m-36.54,8.1c-.14.29-.33.56-.42.87-.13.4.01.78.42.9.48.14.77-.26,1.01-.58.43-.55.09-1.08-.2-1.53-.31-.48-.52-.03-.81.34Z"/><path d="m55.24,41.48c.21,1.74-.47,2.95-1.83,3.77-1.22.74-2.46.71-3.68-.1-1.28-.85-1.86-2.34-1.45-3.92.42-1.61,1.68-2.6,3.5-2.75,1.3-.11,2.71.85,3.24,2.22.08.22.14.45.22.79m-1.9.88c.04-.27.13-.55.1-.82-.09-.78-.64-.98-1.31-.88-.66.1-1.29.26-1.33,1.14-.03.72.31,1.17.96,1.36.63.18,1.03-.29,1.59-.8Z"/></svg>