<?xml version="1.0" encoding="UTF-8"?><svg id="Layer_1" xmlns="http://www.w3.org/2000/svg" viewBox="0 0 104 147"><path d="m69.88,14.2c.29,3.31-.85,6.37-.68,9.65-.08-.07-.05-.02-.01-.01,1.17.12,2.44.48,2.52,1.74.08,1.21-.98,2.03-2.08,2.59-2.31,1.16-3.93,2.71-4.74,5.42-.93,3.11-1.02,6.2-1.18,9.35-.08,1.68-.53,3.34.85,4.75.28.29,0,.72-.21,1.04-1.6,2.49-1.9,5.47-3.06,8.12-.41.94.37,1.63.49,2.44.3,2,.03,3.98.19,5.97.22,2.64.69,5.26.63,7.92-.08,3.12.48,6.21.75,9.31.26,2.91,1.01,5.79,2.28,8.56.92,2,2.45,3.14,3.87,4.59,2.23,2.27,4.5,4.6,5.64,7.7.16.44.29.91.54,1.29,1.31,1.99,1.35,4.14.34,6.14-.95,1.88-.66,3.6-.06,5.39.5,1.5.84,3.03,1.16,4.57.18.86.54,1.25,1.59,1.34,1.77.15,3.45.81,4.6,2.34.68.9,1.72,1.57,1.52,2.98-.11.82-.34,1.41-1.18,1.46-1.01.06-1.69.56-2.42,1.19-.58.5-1.39.74-2.13,1.05-.61.26-1-.13-1.24-.61-.29-.58.11-.84.59-1.04.47-.2.92-.45,1.33-.82-1.06-.23-1.91.39-2.84.73.5,1.15.41,1.65-1.03,1.51-2.1-.2-2.44-.76-2.41-2.91.02-1.35-.11-2.78-.57-4.16-.98-2.92-1.3-6-1.54-9.07-1.27-.46-2.43.27-3.74-.18-2.48-.84-4.19-2.56-5.99-4.22-.67-.62-1.11-1.49-1.63-2.26-.13-.19-.18-.35-.46-.43-2.6-.73-5.62.45-7.13,2.72-.7,1.05-1.41,2.06-1.96,3.21-1.01,2.07-1.01,4.33-1.32,6.52-.13.89-.13,1.86-.67,2.55-.89,1.14-.54,1.93.25,2.92,1.35,1.68,1.99,3.8,3.35,5.5.96,1.2,2.09,2.05,3.64,2.18,1.45.12,1.81.59,1.25,1.98-.15.38-.07.73-.13,1.09-.13.77-.82,1.59-1.37,1.26-1.68-1-2.9.22-3.83.92-2,1.51-4.33,2.38-6.37,3.77-1.62,1.1-3.32.74-4.22-.62-.88-1.33-.22-4.19.99-5.3,1.61-1.46,3.54-2.19,5.48-2.78.25-.94-.21-1.65-.67-2.13-1.37-1.45-2.39-3.08-3.03-4.94-.43-1.25-1.6-1.67-2.56-2.23-1.99-1.18-2.73-3.11-3.32-5.11-.79-2.68-.63-5.39-.14-8.15.69-3.92,1.69-7.72,3.34-11.34.16-.36.19-.7.11-1.09-.3-1.42-.33-2.72.9-3.86,1-.92.01-2.08-.17-3.04-.27-1.45-.46-2.88-.52-4.34-.14-3.59-.75-7.14-1.61-10.59-.67-2.68-1.82-5.28-3.08-7.75-.52-1.02-1.42-1.87-1.69-3.08-.08-.36-.41-.58-.76-.78-1.37-.79-2.35-1.98-3.24-3.25-.81-1.15-1.32-2.5-2.98-2.89-1.04-.25-1.64-2.4-.81-3.45,2.04-2.61,1.05-4.87-.41-7.17-1.41-2.22-2.1-4.78-3.45-7.04-.53-.88-1.11-1.73-1.64-2.61-.27-.45-.69-.62-1.19-.59-1.04.05-2.04-.29-3.05-.4-1.01-.11-1.85-.45-1.9-1.46-.05-1.01.32-2.02,1.3-2.63.86-.53,1.83-.71,2.8-.85,1.74-.25,3.51-.37,5.24-.67,2.24-.39,3.68,1.15,3.97,2.68.54,2.89,2.3,5.04,3.48,7.53,1.04,2.18,2.31,4.2,4.41,5.55.35.23.68.62,1.12.48,1.48-.49,2.69-.39,3.33,1.41.11-1.09-.4-1.82-.85-2.52-1.27-1.99-2.19-4.16-2.9-6.38-.68-2.12-1.38-4.25-1.99-6.4-.13-.45-.28-.78-.8-.82-1.18-.1-2.04-.91-2.99-1.46-1.15-.67-1.43-1.75-1.1-3.01.35-1.34.63-2.71,2.53-2.55,1.41.12,1.14-.97,1.06-1.74-.21-1.99-.73-4-.45-5.98.26-1.88-.08-3.89,1.25-5.62.71-.92,1.45-1.28,2.47-1.21,2.19.15,3.96,1.14,5.41,2.79,2.12,2.42,3.17,5.43,4.69,8.26.46-.02.97-.08,1.47-.07,2.11.04,3.11,1.41,2.63,3.5-.23,1.01-.48,2.06-1.13,2.85-.82.99-.66,1.99-.52,3.12.44,3.59,1.45,7.17.75,10.8-.27,1.41-.27,2.82-.49,4.22-.09.55-.29,1.33.51,1.56.74.21,1.07-.46,1.36-.97.48-.85.48-1.76.32-2.73-.37-2.29.3-3.15,2.63-3.16,1.36,0,1.97-.38,2.17-1.83.45-3.27.92-6.53,1.54-9.78.5-2.6,2.33-4.85,4.95-5.52.86-.22,1.71-.45,2.58-.66.45-.11.78-.3.82-.83-1.66-.95-.5-2.34-.37-3.44.23-1.88,1.06-3.66,1.22-5.57.02-.26.22-.51.34-.77.17-.38.29-.86.84-.8.6.07.68.55.71,1.16m-.65,87.91c.25-.24.79-.39.49-.86-.55-.85-.78-1.83-1.63-2.56-2.25-1.94-5.07-2.68-7.66-3.9-.39-.18-.88-.2-1.22.05-2.15,1.55-4.84,1.49-7.21,2.37-1.05.39-2.19.56-3.42.16-.93-.3-2.52-.52-2.93.57-.66,1.71-1.75,3.13-2.55,4.73-1.44,2.84-1.35,6.07-2.39,9-.2.56,0,1.09.88.99,1.73-.2,3.15.58,4.44,1.66.43-.14.77-.42.92-.81.68-1.72,1.89-3.09,2.95-4.56,2.16-2.99,5-4.57,8.72-4.23,1.99.18,3.68,1.01,4.51,2.95.67-.19,1.03-.62,1.13-1,.42-1.63,1.83-2.3,2.94-3.27.56-.49,1.39-.57,2.04-1.29M36.9,15.72c-.69,1.13-.31,2.34-.3,3.53.03,2.1.38,4.16.77,6.41,2.2-.39,4.26-.85,6.31-1.49,1.05-.33,1.24-.88.79-1.77-.84-1.66-1.64-3.35-2.6-4.94-.62-1.02-1.34-2.1-2.58-2.47-.82-.25-1.84-.86-2.39.73m7.75,18.15c-2.13-1.16-3.92.58-6.08.6.38,1.25.7,2.36,1.05,3.47.39,1.23,1.58,2.07,2.78,1.86,2.1-.37,3.7-1.58,4.82-3.34.66-1.03-.15-2.18.06-3.5-.92.49-1.58.98-2.64.92m-.81,14c.53.65,1.03,1.33,1.59,1.95.36.39.69.96,1.39.69.68-.27,1.02-.79,1.01-1.53-.03-1.64.04-3.28-.13-4.9-.11-1.04.48-2.1-.1-3.28-1.95,1.23-3.98,1.95-6.4,1.88.66,1.95,1.69,3.44,2.63,5.21m2.85,31.2c-.97-.08-1.8-.49-2.03-1.45-.26-1.1.71-1.51,1.44-1.99.46-.3,1.03-.46,1.25-1.03-.23-.71-.65-.74-1.21-.44-.78.42-1.53.94-2.36,1.22-1.05.35-1.06.98-.86,1.85.39,1.72,1.08,3.36,1.25,5.13.1,1.1-.11,2.2.26,3.32.26.78.71,1.22,1.37,1.43.68.22,1.08-.32,1.53-.83-.28-.22-.49-.4-.71-.56-1.53-1.13-1.64-2.08-.32-3.46.61-.64,1.38-1.12,2.02-1.73.79-.75,1.9-1.14,2.52-2.27-1.56-.43-2.65.73-4.16.79m-19.27-37.23c.33.35.44.78.6,1.23.74,2.1,1.74,4.08,3.05,5.95.89-.62.59-1.27.26-1.91-1.89-3.74-3.77-7.48-5.67-11.22-.51-1.01-1.28-1-2.34-.53,1.85,1.88,2.92,4.09,4.1,6.47m27.59,47.71c.51-1.07-.08-1.98-.43-2.92-.11-.29-.39-.46-.68-.39-1.88.49-3.67,1.16-5.36,2.5,1.46.83,2.79,1.22,4.13,1.63.96.29,1.63.07,2.34-.82m16.29,13.88c-.91-.17-1.52.55-2.09.96-1.58,1.14-3.52,1.93-4.43,3.85-.13.28-.47.51-.16.86.22.24.46.18.76.1,2.35-.65,4.39-1.74,5.82-3.79.41-.58.82-1.17.11-1.97m-.66,5.38c-1.08.89-2.44,1.24-3.73,1.76,1.01,1.65,3.03,2.02,5.24,1.05,1.25-.55,1.6-2.09.96-4.49-.78.53-1.54,1.05-2.47,1.68m-9.23-74.17c.48-1.03.8-2.09.76-3.24-.04-1.02.41-1.76,1.27-2.34.57-.38,1.3-.67,1.52-1.53-2.3.48-2.79.91-3.25,2.76-.33,1.3-.73,2.58-.97,3.89-.53,2.83-1.31,5.63-1.15,8.55.38.02.54-.14.59-.39.27-1.49,1.11-2.87.88-4.45-.15-1.03.07-2.03.36-3.25m-12.83,35.72c2.3-1.4,5.05-1.84,7.62-3.3-1.12-.65-2.19-1.11-2.81-.87-2.43.97-4.73,2.24-6.54,4.41.67.16,1.1,0,1.73-.24m-1.36-11.59c-.03.73-.67,1.34-.44,2.25,1.59-.02,3.02.94,4.94.8-1.15-1.54-1.58-3.3-3.32-4.05-.78-.33-1.3-.23-1.19.99m-8.72,2.66c-.07.56-.14,1.13-.27,2.08,1.18-1.34,1.96-2.42,2.58-3.6.59-1.13.32-1.71-.96-2.16-.77,1.02-.84,2.32-1.36,3.68m5.2,53.78c-.65-.25-1.28-.56-2-.54-.59.02-1,.2-1.04.86-.03.58,0,1.13.64,1.4.86.36,2.92-.38,3.49-1.32-.31-.11-.6-.22-1.09-.41m-.03-47c-1.84.85-2.89,3.19-1.86,4.26,1.05-.68,1.36-1.98,2.27-2.77.76-.66.52-1.07-.41-1.49m15.15,10.77c.18-1.78-1.09-2.77-2.15-3.83-.28-.28-.8-.08-1.03.45.26.59.6,1.22.9,1.76.46.84,1.45,1.39,2.21,2.06.02-.09.05-.18.07-.44m-5.61,2.34c-.33-1.07-.86-.39-1.2-.07-1,.94-2.18,1.61-3.33,2.45,1.37.2,2.6-.17,3.81-.8.61-.32,1-.66.72-1.58m4.44,6.2c.66-.12,1.46.3,2.07-.47-1.31-.93-1.8-2.37-2.6-3.76-.8,1.59.18,2.82.53,4.23m-9.06,5.37q2.1,1.3,3.16.04c-1.61-.58-3.19-1.14-4.87-1.74.12,1.09.93,1.23,1.71,1.7m7.74-33.32c-.58,0-1.2-.21-1.72.4.32,1.01,1.01,1.65,1.99,2.1.65-.9.56-1.68-.28-2.5m-10.56,60.85c-1.07-.22-1.82.46-2.75.88,1.81,1.3,2.21,1.18,2.75-.88m-7.23-54.38c-.28.57-.13,1.23.48,1.12,1.28-.24.8-1.44,1.23-2.17-.1-.05-.21-.1-.31-.15-.42.35-.85.7-1.39,1.21m19.53,26.26c.11-.08.21-.17.32-.25-.03-.03-.07-.1-.09-.09-.62.26-1.16-.13-1.75-.25-.56.68-1.25,1.22-1.49,2.15.98-.47,1.66-1.5,3.01-1.55m-13.32-33.13c.18-.71.37-1.41-.2-2.12-.67.75-.71,1.53-.35,2.35.15.35.39.37.55-.23m16.61,32.08q.83-.59.16-1.59c-.27.43-.59.84-.79,1.29-.26.59.16.45.63.29m12.45,24.68c-.3-.56.54-1.33-.38-1.93-.52,1.23.11,2.1.73,2.96-.09-.28-.19-.57-.35-1.03Z"/><path d="m79.74,89.44c-3.48-4.11-4.62-8.92-4.96-14.05-.16-2.4-.29-4.81-.42-7.21-.23-4.22-.67-8.45-.36-12.68.26-3.42.45-6.86.48-10.27.02-2.04.58-3.93.66-5.91.02-.5.17-1.06.45-1.46,1.46-2.07,1.94-4.66,3.66-6.6.74-.84,1.21-1.86,1.27-3.06.12-2.42.97-4.72,1.15-7.15.09-1.25.87-2.45,1.36-3.65.13-.33.45-.52.81-.4.54.17.87.61.89,1.15.05,1.36.22,2.75-.02,4.07-.47,2.56-.48,5.34-2.11,7.48-1.92,2.53-2.63,5.58-4.05,8.32-1.55,2.97-1.43,6.18-1.36,9.43.07,3.34-.3,6.68-.4,10.02-.05,1.76.11,3.53.11,5.3,0,5.5.29,10.98,1.14,16.42.63,4.06,2.56,7.42,5.31,10.41,2.3,2.5,4.77,4.9,6.52,7.83,1.69,2.83,2.6,5.91,2.76,9.27.14,2.93.59,5.85,1.06,8.75.31,1.94,1.92,2.87,3.5,3.73.28.16.61.24.89.39.61.32,1.15.74.88,1.53-.25.74-.84.65-1.5.59-3.03-.28-5.89-3.18-6.4-6.15-.59-3.38-.95-6.77-1.2-10.19-.32-4.25-2.66-7.66-5.54-10.67-1.58-1.66-3.08-3.38-4.58-5.24Z"/><path d="m70.87,30.97c-2,1.5-2.1,3.6-2.1,5.72,0,3.5.24,7.02-.01,10.5-.38,5.24.07,10.52-.8,15.74-.57,3.44-.93,6.93-.82,10.4.09,2.9.04,5.88,1.18,8.67.61,1.5.7,3.16,1.47,4.65,1.13,2.18,2.52,4.19,3.87,6.23,1.38,2.09,3.04,3.91,4.63,5.81,1.69,2.02,2.27,4.68,3.12,7.17,1.05,3.07.99,6.33,1.9,9.42.62,2.11,1.82,3.67,3.37,5.13,1.35,1.28,2.77,2.52,3.75,4.14.25.41.35.85.27,1.34-.17,1-.8,1.45-1.54.76-2.82-2.61-6.25-4.76-7.84-8.41-.98-2.27-1.59-4.72-1.83-7.27-.26-2.7-1.04-5.32-2.09-7.89-1.17-2.84-3.4-4.86-5-7.35-.93-1.45-1.9-2.88-2.95-4.25-2.54-3.3-3.27-7.28-4.2-11.16-.94-3.94-.51-7.93-.18-11.95.34-4.16,1.13-8.28,1.08-12.49-.07-5,.22-10.01.35-15.02.06-2.28.07-4.56.19-6.83.06-1.19.57-2.23,1.34-3.17,1.37-1.68,3.2-2.7,5.09-3.64.4-.2.83-.29,1.11.19.28.47-.01.78-.36,1.07-.97.8-1.94,1.6-2.98,2.48Z"/><path d="m77.37,23.07c.27-2.1.47-4.1,1.07-6.02.15-.49.16-1.16.82-1.12.67.04.56.69.64,1.21.29,2.04-.4,3.98-.56,5.98-.15,1.83-.78,3.64-.28,5.52.22.84-.44,1.39-.91,1.95-1.08,1.28-2.2,2.55-3.34,3.78-.87.94-1.29,2.07-1.5,3.27-.6,3.52-.86,7.09-1.13,10.63-.26,3.43-.48,6.89-.4,10.36.09,3.94-.23,7.89-.08,11.82.13,3.58-.22,7.23.84,10.72,1.15,3.78,3.37,6.98,5.98,9.85.57.63.07,1.39.84,1.86,2.29,1.38,4,3.37,5.54,5.52.56.78.95,1.55,1.06,2.54.27,2.25.64,4.47,1.13,6.7.43,1.99.23,4.14.58,6.19.51,2.96,1.8,5.53,4,7.66.71.69,1.12,1.7,1.65,2.58.17.29.28.63-.05.88-.39.3-.71.06-.99-.2-2.68-2.43-5.4-5-6.45-8.47-.6-1.97-1.33-4.13-.89-6.49.24-1.27-.05-2.87-.49-4.31-.38-1.23-.32-2.58-.5-3.87-.34-2.44-2.67-3.53-3.74-5.44-1.01-1.79-2.71-2.79-4.01-4.23-2.47-2.71-4.25-5.89-5.56-9.28-.73-1.88-1.17-3.9-1.21-5.94-.08-3.7-.28-7.42-.04-11.1.29-4.53-.03-9.08.5-13.62.23-2.02.13-4.16.2-6.24.11-3.11.27-6.21.82-9.29.35-1.96,1.62-3.32,2.78-4.78.52-.66,1.01-1.4,1.67-1.88,2.39-1.72,1.98-4.23,2.03-6.74Z"/><path d="m16.94,20.64c1.99.84,2.71,2.76,3.97,4.16.68.76,1.07,1.71,1.61,2.57.46.73.25,1.26-.28,1.72-.55.48-1.09.11-1.5-.25-.33-.3-.6-.72-.77-1.14-.75-1.91-2.85-2.62-3.79-4.37-.59-1.09-1.22-2.17-2.12-3.07-.36-.36-.69-1.04-.11-1.49.51-.4.96.06,1.34.4.53.47,1.04.95,1.63,1.49Z"/><path d="m9.5,29.75c-1.45-1.01-2.9-1.88-3.93-3.25-.27-.35-.55-.73-.24-1.12.33-.42.84-.66,1.36-.34,1.67,1.02,3.36,1.98,5.17,2.73.41.17.97.59,1,1.25.03.67.35,1.06.99,1.35.55.26.98.86.54,1.48-.41.59-1.08.77-1.73.33-1.07-.73-2.18-1.42-3.16-2.44Z"/><path d="m16.65,30.51c-2.63-2.75-6.06-4.53-8.14-7.68.58-.71,1.09-.48,1.51-.22,2.9,1.77,5.69,3.71,8.16,6.07.53.51,1.09,1.06.53,1.79-.54.7-1.28.67-2.06.05Z"/><path d="m75.19,15.96c.02,2.08.04,4.03.03,5.98,0,.56-.11,1.12-.46,1.59-.41.54-.96.72-1.61.49-.54-.19-.87-.58-.84-1.15.09-1.79.26-3.58.74-5.32.15-.54.28-1.07.38-1.62.1-.57.1-1.35.87-1.42.9-.08.66.83.9,1.45Z"/><path d="m64.52,22.09c-1.62.33-2.06-.17-1.62-1.6.44-1.42.85-2.85,1.29-4.27.2-.63.57-1.15,1.12-1.54.81,1,.35,5.76-.79,7.41Z"/></svg>