<?xml version="1.0" encoding="UTF-8"?><svg id="Layer_1" xmlns="http://www.w3.org/2000/svg" viewBox="0 0 127 169"><path d="m103.35,158.2c-3.66-.63-7.26-1.24-10.43-2.89-2.39-1.25-3.92-.56-5.6.94-.59.53-1.36.86-1.93,1.4-3.16,3.02-7.39,2.87-11.23,3.59-4.37.82-8.83.89-13.32.48-4.01-.37-7.84-1.13-11.5-2.77-.51-.23-1.04.15-1.55-.39-1.39-1.46-.81-3.61,1.44-4.67,1.56-.74,3.12-1.52,4.86-1.78.37-.05.71-.21.95-.48-.02-1.4-1.06-1.62-2.05-1.94-.96-.31-1.77-.77-2.72.29-.92,1.04-2.36,1-3.69.93-2.01-.11-3.97-.55-5.94-.92-.56-.1-1.08-.43-1.78-.72.87-.71,1.62-.47,2.32-.37,2.04.28,4.08.52,6.15.45.67-.02,1.3-.11,1.77-.64.01-.58-.47-.66-.81-.86-2.28-1.3-4.67-2.29-7.25-2.87-2.47-.55-4.74-1.69-7.07-2.67-.47-.2-.95-.49-1.47-.4-2.19.37-4.42.56-6.59,1.54.86,1.44,2.05,2.66,1.9,4.49,3.43.4,6.79-.12,10.21.19-.3.85-.81.93-1.24,1.02-4.15.89-8.32,1.19-12.56.73-2.09-.22-4.2-.31-6.08-1.38-1.74-.98-1.83-2.51-.33-3.82,1.63-1.42,3.72-1.7,5.64-2.36,1.76-.6,3.62-.94,5.43-1.41.35-.09.69-.23,1.3-.44-1.75-1.22-3.33-2.26-4.84-3.4-6.8-5.1-11.12-11.74-12.34-20.23-.59-4.12-.84-8.26.55-12.32,1.09-3.2,3.16-5.69,5.52-8.01,3.04-3,6.78-4.95,10.43-7.04,4.73-2.72,9.04-5.98,12.87-9.86,1.29-1.31,1.32-3.16,2.02-4.73.29-.65-.39-.87-.84-1.08-2.12-.97-4.36-1.74-6.36-2.92-3.69-2.18-7.44-4.41-9.78-8.18-5.09-8.22-1.95-16.4,5.49-20.72,2.41-1.4,4.99-2.26,7.57-3.22,2.73-1.02,5.62-.93,8.42-1.34,3.41-.5,6.87-.62,10.31-.9,1.07-.09,2.14-.2,3.21-.21.87,0,1.13-.42,1.14-1.22.06-4.39,2.14-7.94,4.66-11.32,2.59-3.48,5.82-6.31,9.13-9.06.57-.47,1.27-.79,1.93-1.14,1.2-.64,2.02-.23,2.13,1.14.18,2.34-.02,4.68-.26,7-.2,1.94-.37,3.89-.75,5.81-.44,2.24-.64,4.51-1.18,6.74-.23.95-.41,1.92-.17,2.99.64.06,1.28.11,1.92.19.75.09,1.24-.2,1.56-.89,1.95-4.18,4.44-8,7.64-11.35,2.04-2.13,4.29-4.04,6.61-5.84,1.88-1.45,3.91-2.72,6.12-3.66,1.47-.62,2.88-.03,3.29,1.47.45,1.67.65,3.4.51,5.14-.51,6.12-1.17,12.23-1.55,18.35-.38,6.15-1,12.27-1.81,18.37-.98,7.35-1.72,14.72-2.05,22.12-.15,3.45-.28,6.9-.43,10.35-.12,2.84-.45,5.68-.88,8.48-.6,3.98-.88,7.98-1.3,11.98-.37,3.47-.8,6.94-1.13,10.41-.49,5.16-.78,10.33-1.58,15.46-.35,2.24.06,4.52-.47,6.87,2.15-.07,3.76-1.65,5.8-.77,1.89.82,2.6,2.58,3.77,4.25,1.54-1.64,3.25-1.11,4.98-.49,1.59.57,3.14.11,4.68-.28.68-.17,1.34-.41,2.02-.59,2.72-.74,4.79,1.33,4.34,4.11-.5,3.06-2.72,4.66-5.05,5.99-3.93,2.23-8.23,2.12-12.66,1.26m-1.24-108.89c.09-.83.2-1.67.27-2.5.09-.95-.01-1.67-.96-2.38-1.16-.88-2.44-1.12-3.72-1.48-6.26-1.73-12.53-3.35-19.07-3.59-2.93-.11-5.86-.35-8.8-.45-3.4-.12-6.81-.39-10.2-.16-4.52.31-9.02.79-13.53,1.16-2.05.17-4,.76-5.97,1.25-2.43.61-4.6,1.82-6.74,3.05-2.55,1.48-4.57,3.51-5.73,6.31-.47,1.14-.04,1.67,1.1,1.82,1.86.25,3.76.5,5.58-.07,2.38-.74,3.04.69,3.22,2.42.07.7.04,1.4-.1,2.1-.58,3.02-1.51,5.89-3.39,8.38-.52.69-.45,1.17.27,1.76,1.83,1.5,3.86,2.66,5.98,3.63,2.93,1.34,5.97,2.4,9,3.51,3.68,1.34,7.35,2.41,11.3,2.55,1.79.06,3.56.47,5.11,1.57-6.65.65-12.91-1.04-19.07-3.29-.53,1.8-.25,2.36,1.45,2.73,2.79.61,5.59,1.16,8.38,1.73,2.13.44,4.27.86,6.45,1.3.16-.47.28-.82.4-1.17.13-.38.33-.68.79-.67.52.01.7.42.87.8.17.38-.03.74-.14,1.09-.9,2.68-2.69,4.78-4.6,6.77-2.81,2.94-5.59,5.86-7.72,9.37-2.48,4.09-3.73,8.37-2.84,13.15.28,1.47,1.32,2.74.91,4.34.36-.01.35-.17.37-.3.48-3.71,1.82-7.06,4.32-9.85,3.88-4.33,8.99-6.22,14.58-7.06.6-.09,1.21-.02,1.39.74-4.69,1.18-9.18,2.57-12.94,6.21,4.2,1.21,6.93,3.74,8.48,7.51,1.53,3.75.92,7.49-.32,11.32,5.58-.75,9.56-3.68,12.51-8.1,1.52-2.26,2.35-4.84,2.88-7.5.15-.77.66-1.31,1.48-1.18.85.13.71.86.64,1.47-.22,1.78-.84,3.41-1.52,5.08-1.98,4.85-5.21,8.36-9.93,10.71-3.81,1.9-7.66,2.55-11.81,1.69-3.57-.74-6.63-2.25-8.54-5.53-.7-1.2-.89-2.57-1.24-4.18-1.05,5.12-.83,10.18-3.22,14.7-2.34,4.42-5.25,8.36-9.3,11.46.99,1.01,2.14,1.22,3.15,1.63,4.24,1.72,8.39,3.65,12.8,4.92,1.15.33,1.81,1.13,2.02,2.29.13.72.49,1.07,1.25.97,1.16-.15,2.32-.31,3.48-.38,4.99-.29,9.93-.26,14.56,2.03.69.34,1.42.64,1.92,1.94-6.15-1.63-12-2.94-18.33-1.86,2.69,1.73,3.35,4.07,3.04,6.8.09.06.17.14.25.15,5.69.44,11.31-.15,16.9-1.14.55-.1,1.01-.44,1.47-.78,1.45-1.09,2.91-2.19,4.45-3.17,3.67-2.33,6.45-5.35,7.73-9.6.44-1.47.19-2.98.33-4.47.42-4.22.86-8.45,1.27-12.67.32-3.31.6-6.61.93-9.92.25-2.51.66-5.01.76-7.52.1-2.39.34-4.78.73-7.11.65-3.93.91-7.89,1.28-11.83.3-3.2.14-6.43.39-9.64.28-3.8.6-7.59.92-11.39.28-3.28.64-6.55.96-9.83.37-3.81,1.18-7.57,1.4-11.63M24.93,101.18c-1.3-.65-2.65-1.2-3.87-1.97-.95-.6-1.6-.57-2.25.33-.34.48-.84.87-.97,1.48.51.62,1.13,1.01,1.77,1.41,1.17.73,2.51,1.02,3.75,1.54,4.44,1.84,9.04,2.59,13.84,2.22,2.96-.23,5.81-.97,8.65-1.74.48-.13.95-.27,1.24.27.33.61-.13.96-.55,1.27-.26.19-.56.36-.87.44-3.42.94-6.88,1.84-10.44,1.85-6.3,0-12.16-1.72-17.57-4.97-.41-.25-.87-.8-1.32-.15-.34.5-.53,1.05-.04,1.67.79,1.01,1.66,1.88,2.79,2.5,3.58,1.96,7.44,2.92,11.43,3.61,5.94,1.02,11.73.29,17.69-.88-1.02-4.43-.31-8.54,1.74-12.58-1.54-.18-2.74.49-3.99.71-6.86,1.25-13.2.07-19-3.84-.4-.27-.78-.62-1.26-.3-1.46.98-2.9,1.99-4.36,3,.5.71,1.04.95,1.61,1.2,1.51.67,3.09,1.08,4.66,1.54,6.08,1.78,12.24,2.52,18.53,1.42.54-.09,1.06-.09,1.32.5.26.6-.14.99-.56,1.29-.34.24-.72.52-1.11.56-2.97.31-5.96.68-8.95.37-4.01-.42-7.92-1.32-11.93-2.75m49.11-64.35h2.62c1.2-6.78,2.36-13.49,2.41-20.36-6.63,5.3-13,10.66-14.42,19.79,1.12.09,2,.17,2.87.24,2.09.18,4.2-.02,6.52.33m-26.36,56.15c-3.56.14-6.94-.47-10.21-1.95-1.2-.54-1.66-2.37-3.07-2.04-1.21.29-2.26,1.26-3.37,1.94-1.04.64-2.25,1.05-3.16,1.92.11.16.15.26.22.3,5.35,2.85,11.02,3.86,17.02,2.96,1.47-.22,2.92-.78,4.39-.84,1.81-.08,2.64-1.04,3.2-2.64-1.64.21-3.2.46-5.02.36m-3.24-2.31c3.03.34,6.05.34,9.07-.05,1.55-.2,2.24-1.42,3.26-2.48-2.68-.72-5.15-1.34-7.59-2.06-2.5-.74-5.09-1.17-7.53-2.1-.23-.09-.46-.17-.65.02-1.42,1.38-3.27,2.24-4.7,3.81,2.51,1.55,5.08,2.56,8.14,2.87m12.86-4.62c.31.17.64.71.95.43,1.28-1.2,2.86-2.17,3.49-4.09-1.29-.2-2.41-.3-3.49-.55-3.82-.89-7.62-1.87-11.33-3.15-.43-.15-1.02-.59-1.37.09-.75,1.49-1.78,2.77-3.22,4.11,1.94-.06,3.48.36,5.02.7,3.27.73,6.52,1.56,9.96,2.46m51.81,70.36c.29-.07.81-.02.59-.51-.85-1.93-.61-3.9-.16-5.93-.62-.2-1.15-.35-1.67-.54-.74-.28-1.29.02-1.38.71-.23,1.77-1.19,3.2-1.99,4.71-.36.68-.23,1.11.62,1.3,1.25.27,2.5.29,3.98.25Z"/><path d="m71.07,49.15c.33.43.86.59.88,1.2-.85.55-1.62-.05-2.39-.2-.92-.17-1.8-.5-2.71-.71-.4-.09-.88-.15-1.11.34-.2.43-.05.83.26,1.16.38.41.78.85,1.34.99,2.35.57,4.68,1.34,7.15,1.01.96-.13,1.67.45,2.5.69,1.49.42,3.03.49,4.58.16.65-.14,1.49-.1,1.61.69.12.74-.73.89-1.28,1.04-1.35.36-2.74.24-3.99-.26-1.25-.5-2.34-.41-3.47.15-.12,1.09-.11,2.23-.4,3.27-.64,2.28-3.24,3.73-5.27,3.01-2.8-.99-3.97-3.15-2.97-5.82.55-1.46.29-2.11-.91-2.88-1.32-.85-1.82-2.85-1.22-4.09.66-1.38,1.96-1.85,3.84-1.28.93.28,1.82.72,2.73,1.1.26.11.5.25.83.44Z"/><path d="m85.58,55.89c-1.17-.24-.9-.81-.46-1.44.48-.69,1.55-1.29.9-2.27-.64-.97-1.77-.78-2.8-.64-.7.09-1.38.18-2.05.44-.72.28-1.29.09-1.53-.72-.64-2.22-1.8-2.96-4.08-2.54-1,.18-1.98.44-3.06.68-.29-1.06.41-1.5,1.13-1.74,2.7-.89,5.33-1.17,7.51,1.22.37.4.86.46,1.3.33,1.44-.41,2.78.13,4.14.38,1.05.19,2.11,1.85,2.09,3.04-.02,1.43-1.38,2.91-3.09,3.26Z"/></svg>