<?xml version="1.0" encoding="UTF-8"?><svg id="Layer_1" xmlns="http://www.w3.org/2000/svg" viewBox="0 0 100 169"><path d="m16.18,88.04c1.29-2.95,2.5-5.82,3.77-8.66.4-.9.27-1.93.89-2.78.32-.44-.1-.77-.49-.99-2.34-1.31-4.15-3.17-5.43-5.5-1.08-1.97-.91-4.17-.8-6.3.17-3.37,0-6.71-.21-10.07-.2-3.17-.57-6.34-.28-9.53.16-1.68-.23-3.39-.94-4.74-1.66-3.18.5-5.49,2.8-6.72.99-.53,1.9-.85,2.35-2.25,1.23-3.84,3.11-7.43,6.42-9.92,3.26-2.45,6.9-4.11,11.08-4.45,1.65-.14,3.52.04,4.81-1.5.2-.24.77-.44,1.02-.33,1.11.49,1.8-.3,2.69-.64-1.57-1.67-1.51-3.43.13-5.38.56-.67,2.65-1.23,3.39-.74,1,.66,1.9,1.49,3.01,2.39.5-1.53,1.43-2.62,2.5-3.65,1.02-.98,1.96-1.25,3.21-.52,3.57,2.09,2.81,1.91,1.95,5.65-.17.76-.58,1.43-.94,2.03.15.36.39.49.61.4,1.44-.59,2.78-.06,4.08.41,1.6.57,3.28.73,4.91.96,2.34.32,4.23,1.43,6.29,2.41,3.54,1.69,5.8,4.64,7.52,7.75,1.52,2.76,3.4,5.77,2.56,9.37-.2.87.73,1.33,1.48,1.75,1.51.85,2.89,1.87,3.72,3.47,1.21,2.31.65,3.91-1.76,4.84-1.31.5-1.03,1.71-1.09,2.64-.15,2.27-.1,4.56-.47,6.82-.22,1.34.08,2.65-.06,4.01-.37,3.54-.99,7-2,10.39-.22.74.47,1.27.23,2.03-.45,1.41-1.26,2.61-2.42,3.34-1.54.98-2.91,2.37-4.98,2.57.93,2.08,1.37,4.21,2.39,6.17.63,1.22.78,2.68,1.24,4,.84,2.41,1.29,4.93,2.33,7.27.04.08.05.18.06.27.49,3.9,2.03,7.68,1.53,11.7-.39,3.16.02,6.43-1.21,9.5-.33.82-.46,1.65-1.59,1.59-.41-.02-.61.28-.7.58-.66,2-2.41,1.83-3.85,1.67-1.42-.15-2.77-.82-3.03-2.63-.11-.76-.14-1.81-1.44-1.64-1.3.16-1.3,1.08-1.29,2.07.02,3.04.2,6.09-.06,9.11-.27,3.12-.07,6.2.04,9.31.06,1.76,1.31,3.29.92,5.05-.51,2.28-.08,4.42.43,6.64.44,1.9.08,3.96-1.7,5.13-1.85,1.22-3.77,2.35-6.23,2.32-2.3-.02-4.56-.27-6.82-.55-3.32-.42-5.18-3.06-4.41-6.34.35-1.49.19-2.4-1.34-3.12-1.18-.56-1.32-1.96-1.46-3.18-.3-2.68-.4-5.37-.91-8.05-.28-1.48-.63-3.07-.52-4.68.09-1.34-.26-2.69-.83-3.95-.15-.34-.19-.77-.7-.72-.44.05-.86.25-.92.73-.31,2.74-1.67,5.17-2.22,7.86-.51,2.48-1.18,4.96-1.26,7.47-.07,2.35-.6,4.58-.91,6.87-.19,1.44.75,2.89.26,4.42-.72,2.24-1.71,3.51-3.82,4.2-4.24,1.37-8.31.4-12.34-.59-3.21-.79-4.69-5.24-2.58-8.44.32-.49.42-.85.25-1.39-.97-2.98-.42-6.02-.38-9.05.04-2.69,1.51-5.34.69-7.98-.74-2.36.08-4.61-.21-6.9-.21-1.67-.25-3.36-.41-5.03-.05-.49-.07-1.04-.52-1.37-.6-.07-.99.3-1.2.66-1.11,1.81-2.7,1.5-4.3,1.02-1.11-.33-1.96-1.08-2.51-2.11-.96-1.81-1.91-3.71-2.04-5.73-.1-1.49.41-3.05-.13-4.55-.96-2.65-.07-5.07.92-7.43,1.19-2.84,2.07-5.78,3.24-8.74m42.95-50.26c-.14-.03-.27-.08-.41-.09-3.53-.16-7.07-.63-10.55-.71-3.85-.09-7.77-.61-11.66.3-2.57.6-5.28.64-7.93.94-.73.08-1.37.36-1.72,1.04-1.76,3.4-2.59,7.11-2.74,10.86-.15,3.74,1.12,7.33,2.29,10.86.38,1.14.94,2.23,1.53,3.28.83,1.46,2.56,1.8,3.85,2.6,1.72,1.06,3.85,1.54,5.67,2.57,1.4.79,3.09.05,4.47.93.85.54,1.82.63,2.82.67,4.1.17,8.18.53,12.29.31,1.27-.07,2.31-.68,3.48-.86,3.28-.51,6.37-1.57,9.38-2.89,1.19-.52,2.19-1.31,2.62-2.73.57-1.88.84-3.82,1.18-5.73.41-2.27.67-4.59.74-6.89.05-1.44.78-2.89.38-4.25-.61-2.06-.9-4.19-1.53-6.24-.24-.78-.58-1.16-1.33-1.4-4.09-1.34-8.33-1.93-12.82-2.58m-31.75,75.87c-1.9.93-1.95,1.06-1.13,3.05.22.54.33,1.06.29,1.64-.08,1.15-.34,2.33-.18,3.45.54,3.84-.26,7.66-.04,11.49.07,1.3.06,2.63-.07,3.92-.15,1.49.06,1.83,1.56,2.19,2.26.54,4.53.34,6.8.17,1.17-.09,2.17-.86,3.38-.9.33-.01.59-.43.51-.75-.36-1.42.52-2.62.69-3.95.22-1.69.75-3.38,1.36-4.94.78-1.98,1.54-4,3.07-5.72,1.27-1.43,2.48-2.06,4.32-1.86,1.47.16,2.17,1.14,2.83,2.23.97,1.6.59,3.6,1.55,5.21.07.11-.03.37-.12.52-.39.62-.24,1.26-.16,1.91.16,1.25.25,2.49.26,3.75,0,1.16.07,2.62,1.39,2.95,1.17.29,2.4.84,3.66.57,2.82-.59,5.56-1.39,8.18-2.71,1.28-.64,1.58-1.3,1.44-2.55-.65-5.74-.7-11.48.02-17.21.09-.72.4-1.66-.31-2.05-.67-.38-1.53.05-2.25.39-.08.04-.15.13-.23.16-2.38,1.02-4.7,2.56-7.32,2.44-2.24-.11-4.34.61-6.62.38-2.76-.27-5.56-.32-8.33-.66-3.22-.4-6.14-1.86-9.24-2.67-1.67-.43-3.31-1.04-5.29-.45m-9.7-6.86c.99.99,2.4,1.23,3.47,2.27.5-1.25.08-2.31.3-3.29.86-3.85.81-7.85,2.14-11.63.43-1.22,1-2.4,1.37-3.62.79-2.59,2.03-4.88,3.77-6.92.37-.43.85-.64,1.37-.28.46.31.66.76.45,1.34-1.05,2.88-2.04,5.79-3.09,8.66-.78,2.15-1.13,4.42-2.11,6.5-.22.46.02.81.34,1.12,2.59,2.51,5.65,4.31,9.03,5.45,2.01.68,4.14,1.04,6.19,1.66,1.13.34,1.74,1.09,2.47,1.94-1.6,1.25-3.56.44-5.28,1.05.83,1.01,4.79,1.96,5.68,1.51.35-.18.45-.47.44-.81-.15-3.39.76-6.73.54-10.11-.13-2.04.86-3.91.59-5.95-.24-1.81.3-3.62.1-5.45-.09-.86-.06-1.8.19-2.62.37-1.22.12-2.37.09-3.57-1.96.42-2.26.25-2.73-1.48-.48.69-.38,1.91-1.46,1.85-1.14-.07-1.25-1.26-1.71-2.03-.14-.23-.11-.56-.23-.8-.51-1.03-.78-2.15-1.53-3.1-1.52-1.91-3.88-2.14-5.83-3.19-.9-.48-1.56-.37-2.15.68-.89,1.58-2.05,2-3.2,1.16-.91-.67-1.74-.36-2.64-.38-1.56-.03-1.15,1.21-1.31,2-.93,4.47-2.61,8.71-4.22,12.95-.97,2.56-2.12,5.05-3.08,7.63-.85,2.29-1.12,4.61,1.19,6.33.32.24.5.67.88,1.16m33.51-17.14c.43,3.56-.08,7.1-.28,10.64-.23,4.26-.15,8.51-.2,13.02,2.27-1.2,4.5-.42,6.7-.41.51,0,1.02.01,1.5-.24,2.35-1.22,4.7-2.44,7.06-3.62,2.43-1.21,4.06-3.11,4.81-5.7.39-1.34-.55-2.47-.9-3.7-.05-.16-.1-.32-.21-.7-.42,1.72-1.35,2.82-2.55,3.78-1.67,1.35-3.07,3.11-4.9,4.14-2.29,1.3-4.58,2.85-7.43,2.93-.61.02-1.24.59-1.68-.19-.49-.87.33-1.24.81-1.68,1.65-1.54,3.74-2.44,5.66-3.53,2.29-1.3,4.16-3.05,6.19-4.63.76-.59,1.37-1.44,2.28-1.81,1.15-.47.98-1.08.34-1.8-.95-1.08-1.38-2.45-1.65-3.75-.36-1.78-1.03-3.48-1.18-5.31-.08-1.01-.75-2.24.54-2.68,1.16-.39,1.49.97,1.83,1.75,1.82,4.11,3.65,8.21,5.23,12.42.69,1.84,1.16,3.93,1.04,5.87-.13,2.22,1,4.09.83,6.26,1.68-.4,1.92-1.87,2.72-2.78,1.42-1.63,1.92-3.8,1.4-5.78-.57-2.18-1.09-4.38-1.64-6.57-1.09-4.38-2.11-8.78-2.87-13.23-.23-1.34-1.09-2.46-1.06-3.87.01-.52-.47-.77-1.14-.7-1.25.12-2.52.09-3.45-.79-3.15,1.35-5.35,3.85-8.05,5.66-.89.6-1.8,1.24-2.47,2.06-.91,1.13-1.78.78-2.69.2-.68-.43-1.31-1.1-1.46-1.83-.3-1.47-1.49-2.39-2-4.05-.69,2.04-.76,3.8-.76,5.57,0,1.63.18,3.27-.4,5.07m25.99-53.29c-.92-.62-1.91-1.02-3.03-1.12-1.64-.14-3.14-.97-4.75-1.16-1.93-.23-3.86-.53-5.83-.62-1.77-.08-3.63-.53-5.48-.73-3.05-.34-6.09-.72-9.17-.75-1.38,0-2.77-.18-4.15-.17-2.18.02-4.49-.25-6.51.16-2.71.55-5.46-.16-8.07.75-.17.06-.38.04-.56,0-3.81-.89-7.38.14-10.77,1.67-1.1.5-2.38,1.09-3.17,2.2-.28.39-.61,1.02.07,1.11,1.55.21,3.05,1.1,4.66.55,3.05-1.04,6.18-1.76,9.28-2.59,3.94-1.05,7.92-1.29,11.92-1.45,3.34-.13,6.67.15,10.01.42,2.39.19,4.81.64,7.24.37.64-.07,1.33-.04,1.96.11,3.75.88,7.7.79,11.3,2.36,2.19.95,4.6,1.23,6.77,2.15,2.19.93,4.61,1.2,6.71,2.47-.26-1.09-.88-1.89-1.75-2.51-1.98-1.41-4.12-2.49-6.67-3.22m-9.89-12.69c-.64-1.33-1.72-2.29-2.75-3.31-1.2-1.19-1.31-1.22-2.37.06-.61.73-1.25,1.15-2.29,1.02-.79-.1-1.66.04-2.29.72.08.19.11.34.2.44.97,1.15,1.21,2.47.58,3.79-.66,1.39-1.92,1.9-3.44,2.04-1.72.15-2.94-.74-4.19-1.65-.4-.29-.81-.82-1.36-.51-1.07.6-2.18,1.19-2.99,2.17.35.51.72.74,1.16.7,2.09-.22,4.17-.06,6.25.09,1.44.1,2.9-.39,4.3.18,1.2.49,2.4.23,3.59.04.48-.08.91-.44.59-.86-1.09-1.45-.43-3.41-1.5-4.85-.44-.59-.52-1.29.24-1.67.73-.36,1.09.27,1.41.8.87,1.45,1.5,2.99,1.84,4.67.19.9.34,2.02,1.39,2.41.91.34,1.92.41,2.85.71,1.28.41,1.32-.24,1.23-1.21-.18-2.12-1.24-3.85-2.44-5.75m1.77,48.75c.72-.56,1.61-.98,1.83-2.4-5.9,2.55-11.79,4.25-18.17,4.25,2.45,1.87,3.14,4.9,5.14,7.13.64-.71,1.2-1.27,1.75-1.81.98-.95,2.24-1.56,3.11-2.57,1.71-2,3.91-3.27,6.34-4.6m-28.73,3.54c1.7,1.45,2.64,3.38,3.45,5.5.98-2.93,3.37-4.89,4.87-7.76-3.82.15-7.15-1.32-10.67-1.79-1.2-.16-2.33-.57-3.43-1.09-1.26-.59-2.56-1.09-3.86-1.59-.3-.12-.66-.13-.92.14-.28.3-.08.59,0,.91.41,1.41,1.68,1.57,2.78,1.78,2.92.55,5.33,2.04,7.79,3.91m31.6-48.73c.37,1.39,1.3,2.6,1.27,4.12,0,.25.19.45.43.5,1.29.3,2.5,1,3.89.89.06-5.88-4.78-13.48-11.15-13.47,2.39,2.29,4.47,4.66,5.56,7.96m-41.56-3.65c-1.66,1.98-2.88,4.19-3.74,6.91,1.98-.36,3.78-.67,5.57-1.04.42-.09.49-.57.43-.94-.26-1.63.61-2.9,1.38-4.16.86-1.41,1.83-2.75,2.86-4.28-1.55-.22-2.93-.41-4.01.62-.87.82-1.57,1.83-2.48,2.9m4.67,4.3c.02.47-.46.83-.24,1.5,1.11-.1,2.25-.2,3.38-.32.3-.03.5-.24.58-.53.75-2.6,1.31-5.27,2.75-7.62-.72-.59-1.22-1.23-2.18-1.3-.02.79-.5,1.3-.89,1.87-1.35,1.94-2.73,3.87-3.4,6.4m29.63,111.89c-3.65,1.5-7.37,2.1-11.25.78-.15.71-.23,1.36.29,1.89.74.76,3.45,1.26,4.38.74,2.21-1.25,4.51-1.18,6.87-.57.34.09.63.09.93-.12,1.32-.88,1.65-1.9,1.13-3.73-.76.18-1.51.4-2.34,1m-39.29-32.55c1.71,1.59,4.08,1.68,6.08,2.64.61.29,2.35.18,3.17-.11-4.2-1.05-7.36-3.61-10.19-6.85-.07,1.54-1.57,3.21.95,4.33m-3.58-78.46c-.33.55-.66,1.09-1.01,1.68.6.07,1.13.05,1.6.2,1.28.42,1.95-.13,2.24-1.32.61-2.49,1.92-4.57,3.6-6.47.24-.28.66-.53.51-1.18-2.82,1.85-5.2,4.01-6.94,7.09m7.77,113.77c-1.05-.32-1.98-1-3.17-1.17-.15,1.12-.33,2.22.53,2.98.81.72,1.89.28,2.65-.09,2.13-1.03,4.21-.81,6.23.06.94.4,1.49.14,2.13-.4.68-.58.43-1.22.19-1.86-2.77.84-5.53,1.06-8.56.5M51.7,19.64c.55-.11.89-.49,1.16-.94.55-.91.27-2.59-.5-3.07-1.23-.76-2.93-.72-3.35.21-.47,1.01-.36,2.13.14,3.12.49.96,1.42.93,2.55.68m6.29,128.17c2.84.43,5.65.71,8.6-.93-1.26-.55-2.09-1.19-3.19-.81-1.64.57-3.28.94-5.04.43-.72-.21-1.55-.17-2.39.19.47.74,1.17.86,2.03,1.12m-22.37.4c-2.99-.6-5.96-.75-9.07.17.92.93,2.01,1.02,2.89,1.12,2.05.23,4.2.6,6.17-.51.31-.17.6-.35,0-.79m3.18,2.34c-.25-.31-.49-.14-.72.02-2.05,1.33-4.36,1.44-6.7,1.56-1.05.06-1.89-.81-3.37-.38,2.12.55,3.86.87,5.64,1.07,1.21.14,2.25-.66,3.4-.61,1.16.04,1.65-.45,1.76-1.66m39.38-37.18c-.97.71-2.1.78-3.38.76.58.74.92,1.47,1.94,1.29,1.68-.3,2.34-1.59,3.18-3.06-.79.14-1.18.51-1.73,1.01M41.86,26.68c-.07-.31-.13-.62-.24-1.08-.35,1.21-.65,2.26-.95,3.3q1.2.24,1.97-.43c-.28-.5-.71-.96-.77-1.79m-24.37,85.87c.3.2.58.52.95.14-.03-1.8-.51-2.29-2.25-2.15.41.66.78,1.28,1.3,2.02m51.71,35.21c-.05-.24.15-.57-.4-.75-.16,1.67-2.07,1.65-3.1,3.13,1.6-.58,3.11-.47,3.5-2.38M42.04,23.01c.07.28-.17.64.23.9.68-.82,1.26-1.67,1.74-2.64-1.3-.16-1.6.1-1.97,1.74m-17.34,126.87c.22.23.47.39.56-.08.09-.48.11-.98.16-1.48q-1.23,0-.72,1.55m36.19.89c1.39.2,2.76.2,4.09-.38-1.33.1-2.65.2-4.09.38Z"/><path d="m63.41,63.8c-1.86.49-3.58,1.09-5.47,1.2-1.84.11-3.67.55-5.53.69-3.81.3-7.48-.24-11.17-1.16-2.08-.51-4.2-.89-6.19-1.69-2.14-.85-4.38-1.53-6.22-3.03-.41-.33-.55-.64-.31-1.07.36-.65,1.01-.96,1.67-.73,1.84.64,3.71.94,5.66,1.01.85.03,1.67.52,2.45.82,2.87,1.07,5.89,1.06,8.81,1.64,3.48.7,6.99.43,10.36-.17,4.23-.76,8.57-1.27,12.56-3.13.89-.42,2.07-.88,2.79.26.76,1.2-.17,1.98-1,2.71-1.33,1.17-2.88,1.63-4.64,1.68-.65.02-1.33.41-1.92.76-.59.34-1.14.36-1.83.2Z"/><path d="m70.19,48.31c.03,1.16.07,2.19-.31,3.17-.46,1.16-1.08,2.38-2.44,2.39-1.32,0-2.14-1.1-2.65-2.23-1.06-2.35.46-5.54,2.5-6.54.99-.48,2.51.28,2.76,1.4.12.54.1,1.11.14,1.8Z"/><path d="m31.44,43.55c1.8-.72,3.02-.11,3.57,1.57.68,2.07.55,4.08-.37,6.04-.39.83-1.06,1.23-2,1.27-.92.04-1.21-.54-1.63-1.22-1.63-2.64-.84-5.11.44-7.65Z"/></svg>