<?xml version="1.0" encoding="UTF-8"?><svg id="Layer_1" xmlns="http://www.w3.org/2000/svg" viewBox="0 0 95 163"><path d="m21.27,19.81c1.58-.92,3.05-1.83,4.59-2.62,1.27-.65,2.14-1.76,3.34-2.5,1.72-1.06,3.6-.53,4.36,1.46,1.15,2.99,2.65,5.81,3.95,8.72.91,2.03,1.5,4.2,2.33,6.27.94,2.36,1.9,4.72,3.15,6.95.59,1.05,1.01,2.19,1.17,3.42.24,1.92,1.92,2.95,2.77,4.96,1.54-2.83,3.26-4.99,3.78-7.77.6-3.23,1.38-6.42,1.42-9.73,0-.4.2-.7.47-.99.49-.51,3.28-1.24,3.9-.97,1.34.58,1.97,1.47,1.81,3.08-.09.94.47,1.96.8,2.92.62,1.84.78,3.67.64,5.63-.08,1.07.58,2.23.75,3.39.04.27.24.56.19.8-.88,3.67-.51,7.44-.86,11.16-.28,2.97-1.5,5.64-2.68,8.33-.55,1.26-1.89,1.44-2.83,2.16-.06.75.31,1.31.8,1.73.74.63,1.16,1.47,1.57,2.3.31.62.69,1.11,1.22,1.5.34.25.69.49.82.92.56,1.9,2.28,2.82,3.5,4.18,1.17,1.3,2.42,2.41,4.1,3.08.73.29.85,1.56.19,2.1-1.52,1.23-.73,2.57-.29,3.76.58,1.55.51,3.12.58,4.68.1,2.3.06,4.6.48,6.87.22,1.17.01,2.34-.01,3.49-.04,1.82.38,3.64.12,5.44-.2,1.4.73,2.6.58,3.99-.31,2.78-.08,5.59.31,8.3.33,2.33.06,4.75.99,7.04.56,1.39,0,3.06.44,4.57.56,1.96,1.22,3.88,2.5,5.5.42.54.83.96.29,1.55-.51.55-1.25.58-1.79.12-.92-.78-1.85-1.63-2.33-2.76-.34-.81-.79-1.29-1.58-1.78-.98-.61-1.76-1.68-2.4-2.69-.88-1.4-2.11-2.49-3.02-3.84-.78-1.16-1.54-2.35-2.32-3.51-.75-1.12-1.68-2.13-2.37-3.33-1.84-3.21-3.97-6.28-5.56-9.61-.93-1.95-2.67-3.33-3.33-5.4-.04-.12-.19-.29-.28-.29-2.23,0-2.41-2.07-3.32-3.35-1.2-1.69-2.09-3.58-3.24-5.32-.5-.76-1.26-1.21-1.74-1.98-1.45-2.36-2.7-4.81-4.02-7.24-1.44-2.66-2.43-5.52-3.93-8.14-.31-.54-.63-.94-1.29-.83-2.52.41-4.37-1.13-6.24-2.33-5.79-3.73-10.71-8.53-15.62-13.32-1.67-1.63-3.13-3.44-4.09-5.62-.41-.92-.72-1.83-.03-2.63.71-.82,1.58-.38,2.43,0,3.77,1.68,7.51,3.45,11.38,4.88,1.46.54,3.07,1.45,4.97.68-.4-.84-.62-1.81-1.2-2.46-1.57-1.73-2.47-3.84-3.46-5.87-.77-1.58-1.27-3.29-1.99-4.9-.73-1.64-1.61-3.22-2.17-4.95-.54-1.66-1.12-3.33-1.86-4.91-.81-1.72-1.1-3.6-1.8-5.35-.62-1.55.48-2.52,1.33-3.42,1.56-1.64,3.65-2.58,5.63-3.61,1.28-.67,2.6-1.23,3.98-1.91m26.64,41.45c-1.34-3.75-3.21-7.26-4.44-11.18-.57.35-.82.46-1.03.64-3.6,2.99-7.81,5.02-11.8,7.4-1.81,1.08-1.96,1.69-.99,3.56.17.33.29.69.47,1.01.91,1.67,1.71,3.41,2.78,4.97.92,1.36,1.67,2.82,2.58,4.19,1.04,1.56,1.57,3.53,2.43,5.29,2.28,4.62,4.44,9.3,6.72,13.92.4.81.71,1.75,1.44,2.38.48-.41.3-.89.45-1.26.9-2.16.28-4.64,1.41-6.75.46-.86.93-1.73,1.32-2.62,1.46-3.34,3.29-6.25,7.4-6.62.26-.02.57-.11.59-.32-1.51-2.53-3.73-4.4-5.04-6.92-.63-1.21-1.82-2.08-2.18-3.41-.4-1.52-1.08-2.86-2.1-4.29m-30.36-25.29c.44.8.79,1.66,1.5,2.31.94-1.47,1.13-1.37,2.07-.05,1.29,1.82,2.09,3.89,3.28,5.76,1.05,1.65,2.01,3.43,2.63,5.22.58,1.67,1.79,2.6,2.66,4,3.61-2.43,7.09-4.78,10.56-7.11.59-.4.52-.83.3-1.44-1.12-3.2-2.93-6.14-3.72-9.45-.36-1.51-1.57-2.55-1.79-4.2-.15-1.13-.84-2.31-1.25-3.48-.7-1.99-2.2-3.61-2.81-5.7-.65-2.23-1.07-2.28-3.18-1.19-1.33.69-2.44,1.71-3.78,2.37-2.48,1.22-4.48,3.1-6.66,4.73-.43.32-1.02.79-.59,1.4,1.09,1.53,1.52,3.39,2.55,4.96.46.69,1.47,1.76.33,2.41-1.36.77-1.44-.85-1.89-1.58-.94-1.52-1.29-3.35-2.36-5-.41.99-.11,1.68.37,2.33.78,1.07,1.23,2.29,1.77,3.71m45.16,51.49c.37-1.88-.34-3.83.36-5.71.17-.47-.21-.91-.58-1.2-2.44-1.93-7.39-.95-9.11,1.72-.69,1.06-1.02,1.88.17,2.85.54.44.73,1.28,1.12,1.92.72,1.17.33,2.67.9,3.74,1,1.87,1.06,3.95,1.77,5.86.43,1.17.61,2.44.87,3.68.12.59.33,1.33-.46,1.55-.7.19-.79-.56-.94-1-.72-2.09-1.15-4.28-1.79-6.37-.93-3.03-1.64-6.18-3.16-9.12-.74,1.58-1.43,3.08-1.32,4.83.05.75-.07,1.44-.52,2.13-.62.94-.39,3.72.18,4.29,1.83,1.81,2.58,4.17,3.55,6.42-.76.53-1.23.25-1.68-.14-.7-.61-1.11-1.38-1.29-2.28-.15-.72-.41-1.31-1.32-1.4-.34.95-.24,1.66.38,2.48,1.26,1.65,2.75,3.16,3.47,5.19.26.74.68,1.4,1.56,1.66-.33-.9-.81-1.7-1.25-2.53-.25-.46-.83-1-.16-1.46.6-.41,1.02.14,1.4.56.22.25.36.52.49.83.52,1.17,1.11,2.32,1.73,3.62.88-.56,1.65-1.04,2.4-1.59,1.46-1.07,2.11-2.24,1.68-4.16-.94-4.23-.45-8.63-1.27-12.88-.3-1.58-.04-3.15-.28-4.74-.15-1-.7-2.06-.25-3.14.19-.45.37-.91.9-.97.64-.07.82.5.82.93,0,2.57,1.38,5.11.21,7.71-.13.29.06.41.15.61.42.94.54,1.95.68,2.96.35,2.56.08,5.15.28,7.7.09,1.09-.25,2.27.29,3.5.93-.8.77-1.74.61-2.46-.71-3.41.06-6.86-.45-10.28-.24-1.65.13-3.37-.16-5.28m-9.6-44.68c-.65,1.49-1.69,2.72-2.9,3.74-1.87,1.57-2.79,3.44-1.71,5.7.97,2.01,1.64,4.13,2.48,6.18.44,1.08,1.09,1.87,1.76,2.7.47-.24.67-.56.72-.95.42-3.34,1.57-6.57,1.52-9.99-.01-.78.08-1.58.27-2.34.56-2.25.62-4.51.33-6.8-.07-.53-.21-1.05-.81-1.49-.1,1.34-.96,2.13-1.66,3.24m-28.49,25.26c.96.76,2.15.97,3.31,1.38-.74-1.59-1.51-3.11-2.47-4.51-.46-.68-.33-1.72-1.29-2.07-2.57-.92-5.15-1.85-7.73-2.73-.3-.1-.7-.3-1.12.08,2.95,2.72,5.71,5.62,9.31,7.84m-3.28-23.99c.87,2.06,1.7,4.14,2.61,6.18.64,1.44,1.38,2.83,2.13,4.22.18.34.54.72,1.04.34.52-.39.33-.72,0-1.17-.77-1.1-1.66-2.18-2.15-3.4-1.04-2.6-2.4-5.04-3.63-7.54-.47-.96-.76-2.05-1.4-2.93.05,1.53.79,2.78,1.39,4.31Z"/><path d="m86.54,148c.78.66,1.03,1.55,1.56,2.26.35.46.44.95.04,1.41-.39.45-.94.44-1.42.21-.37-.17-.71-.45-.99-.75-2.54-2.67-5.16-5.28-7.56-8.07-1.34-1.57-2.98-2.87-4.1-4.62-.26-.4-.78-.85-.24-1.35.48-.44.95-.08,1.39.21,1.89,1.23,3.35,2.95,4.98,4.47,2.14,2,4.18,4.12,6.35,6.25Z"/></svg>