<?xml version="1.0" encoding="UTF-8"?><svg id="Layer_1" xmlns="http://www.w3.org/2000/svg" viewBox="0 0 140 150"><path d="m127.69,66.48c1.47,2.36,1.3,4.73.47,7.12-.45,1.28-.99,2.53-1.61,3.74-.39.77-.35,1.23.22,1.97,1.81,2.33,4.3,3.26,7.04,3.63,1.49.2,2.02,1.01,2.36,2.33,1.16,4.51-1.17,7.9-3.64,11.16-2.76,3.63-6.3,6.24-10.83,7.34-.21.05-.39.22-.72.41,1.73,2.49,1.82,5.18,1.02,7.94-.68,2.33-2.91,3.61-5.33,3.28-2.02-.28-3.81-1.22-5.89-1.85-.38,1.45-.22,2.85-.29,4.22-.22,4.96-.15,9.91.69,14.82.65,3.81,1.08,7.67,2.25,11.38.15.46.41,1.11-.28,1.33-.7.22-.81-.44-.95-.93-.11-.41-.15-.87-.67-.97-2.02-.37-3.61-1.89-5.7-2.08-.41-.01-.51.63-1.16.51-.61-.5-.37-1.31-.36-2,.01-5.16-.2-10.29-1.15-15.38-.19-1.02-.47-1.81-1.44-2.51-1.55-1.13-1.88-3.07-2.24-4.87-.29-1.42-.43-2.86-.67-4.57-1.01,1.08-1.93,1.96-2.73,2.94-.94,1.15-2.12,1.09-3.32.75-1.19-.34-1.59-1.35-1.74-2.49-.25-1.92-.02-3.83.19-5.73.16-1.43.03-1.59-1.38-1.31-.98.19-1.95.19-2.92-.08-2.47-.67-3.31-2.47-2.47-5.31.61-2.05,1.45-4.03,1.33-6.28-.05-1.01-.26-1.88-.82-2.59-2.3-2.91-3.03-6.38-3.73-9.87-.41-2.06-.67-4.15-1.08-6.22-.45-2.29-.33-4.46.95-6.47.25-.4.3-.72-.04-1.13-1.45-1.76-1.44-2.21-.06-3.75-.05-.33-.33-.43-.56-.58-.23-.15-.47-.29-.7-.42-1.61,1.69-3.18,2.27-4.25,1.49-1.03-.75-.95-1.87-.43-2.78,1.13-1.97,2.7-.54,4.13-.37.39-.2.5-.63.76-1.1-1.11-.45-1.28-1.37-1.33-2.47-.11-2.31.14-4.57.58-6.82.06-.32.22-.77.08-.95-.96-1.2-.88-2.47-.5-3.85.18-.64-.53-.83-.92-1.09-2.84-1.91-4.46-4.59-5.16-7.89-.88-4.13.93-8.46,6.07-8.88-.69-1.09-2.01-.66-3.08-1.28,1.68-1.77,3.84-1.3,5.88-1.56-.64-2.23-1.13-4.41-1.37-6.64-.13-1.17-.26-2.34.18-3.47.42-1.08,1.05-1.48,2.3-1.08,1.49.49,2.67,1.32,3.71,2.43.87.93,1.87,1.69,3,2.48,1.35-4.71,4.47-8.04,8.3-10.75,3.06-2.16,6.56-3.36,10.23-4.06.49-.09,1.02,0,1.53.06.97.11,1.4.69.92,1.56-1.76,3.14-1.15,6.19.1,9.32.99,2.45,1.39,4.96-.64,7.24,2.19-1.71,4.57-2.82,7.32-3.01.51-.04,1.02-.02,1.53.02,1.08.09,2.15.19,3.21-.09,2.04-.54,2.04-.49,2.48,1.62,1.57,7.65-1.31,13.94-5.98,19.67-.43.53-1.06.9-1.58,1.45,4.54-1.8,8.4-.16,12.08,2.28.83.55,1.69,1.04,2.65,1.24,1.28.27,1.7,1.05,1.58,2.24-.26,2.63-1.33,4.96-2.75,7.13-1.76,2.7-3.92,5.02-6.87,6.48-.29.14-.59.3-.76.87,1.39,1.32,3.7,1.37,4.99,3.13m-22.95,9.15c-.26-.26-.53-.52-.78-.79-.2-.21-.4-.42-.71-.28-.1.05-.2.21-.21.32-.02.33.21.52.49.6.45.12.91.18,1.28.42-.36.59-1.01,1.27.42,1.38.16-.62.33-1.17-.47-1.65m-16.48,26.08c-.04-.52-.09-1.03-.48-1.49-.23.94-.45,1.82-.69,2.77.46-.41.83-.75,1.22-.86.14.78-.63,1.33-.57,2.1.6.51,1.28.43,2.15.44-.61-1.01-.8-2.03-1.62-2.95m-10.59-70.96c-.4-.12-.73-.04-.98.42.77,1.25,1.34,2.63,1.93,4,.2.46.48.85,1.06.61.72-.3,1.57-.24,2.25-.82-.17-1.19-.76-2.19-1.3-3.22-.61-1.16-1.48-1.48-2.75-.99,0,0-.08.08-.21,0m48.24,38.08c-.52-.97-1.44-1.43-2.39-1.85-1.17-.51-2.32-1.11-3.02-2.2-.69-1.07-1.6-1.29-2.73-1.13q-.14,1.49,5.81,4.59c-2.46.23-3.99-1.33-5.99-2.28,0,1.09,0,1.92,0,2.74,0,.57.36.88.86.95,2.04.3,4.09.57,6.08-.28.47-.2.89-.55,1.41-.19-1.26,1.51-2.99,1.56-4.73,1.47-1.14-.06-2.27-.27-3.48-.42-.04,1.85-.33,3.55.04,5.31,1.65-.17,3.18-.2,4.68.3.18.06.47-.02.65-.13.93-.54,2.7-3.29,2.84-4.4-2.09,1.7-4.3,3.01-7.35,2.66.53-.79,1.16-.7,1.66-.76,2.09-.26,3.77-1.29,5.36-2.56.6-.49.84-.98.31-1.85m-21.7-59.75c.73.03.49.37.21.69-3.09,3.48-5.46,7.47-8.02,11.33-.51.76-1.12,1.49-1.32,2.42,1.7.74,2.17.59,2.89-.87,1.95-3.94,4.04-7.81,6.4-11.53.3-.47.55-1.02,1.44-1.31-.43.79-.71,1.32-1,1.85-1.87,3.46-3.74,6.91-5.61,10.37-.36.67-.63,1.35-.38,2.07.84.35,1.66.59,2.37,1.02.95.57,1.55.29,2.06-.56,1.03-1.73,2.01-3.49,2.69-5.39.27-.76.56-1.51.84-2.26.36.13.42.32.38.49-.57,2.72-1.71,5.2-3.33,7.73,2.54-1.78,4.69-5.44,3.43-8.82-1.02-2.75-1.34-5.61.22-8.58-1.34.43-2.51.58-3.62,1.41-.36.21-.77.36-1.09.62-4.57,3.69-8.28,8.11-11.01,13.32-.15.29-.51.6-.17,1.07.89-.04,1.87.11,2.47-.84,3.08-4.92,6.31-9.72,10.16-14.24m13.32,76.52s0,0-.13.16c-.11.25-.3.5-.32.76-.28,3.83-.53,7.66-.8,11.48-.03.43.09.72.48.91,1.39.72,3.89-.05,4.48-1.51.53-1.3,1.5-1.99,2.74-2.42,1.34-.47,2.73-.63,4.13-.77.92-.09,1.88-.04,2.9-.53-4.78-.45-9.41-1.65-13.86.85,1.53-1.57,3.43-2.04,5.44-2.28,2.56-.3,5.01.57,7.54.67,1.56.06,1.72-.03,2.39-1.42-3.97,1.53-8.71.44-10.6-2.45.63-.18,1.12.13,1.52.51,1.99,1.88,4.4,2.2,6.94,1.83,1.44-.21,3.13-.33,3.51-2.21.39-1.95.25-3.81-1.4-3.97-1.99-.19-4.01-.06-5.89-1.04,1.17,1.55,2.87,1.99,4.73,2.39-.59.53-1.1.44-1.59.34-1.51-.3-2.8-1.02-3.91-2.08-1.54-1.46-2.82-3.12-4.05-4.84-.94-1.31-3.98-1.5-4.26-.26-.43,1.91-.55,3.93.01,5.88m-28-15.15c-.15-.24-.28-.49-.46-.7-.39-.45-.71-1.15-1.39-1.04-.75.12-.84.92-1.09,1.51-.3.71-.26,1.56-.85,2.23-.94-.39-1.1-1.31-1.56-1.97-.59-.84-1.23-.9-1.73,0-.93,1.66-1.5,3.49-1.24,5.38.4,2.92.93,5.83,1.57,8.7.47,2.13.94,4.33,2.28,6.13,1.21,1.63,2.39,1.6,3.63.04.55-.69,1.2-1.37,1.43-2.24,1.61-5.99,2.8-11.99-.59-18.03m-8.45-15c.11-1.42-.31-2.95.78-4.5,1.01,2.89-.28,6.04,2.18,8.48,1.82-2.74.67-5.99,2.12-8.68.96,2.89,1.07,6.17,3.89,8.27.19-.33.34-.52.4-.72.81-3,.17-5.88-1.12-8.55-.92-1.91-2.81-2.76-4.93-2.59-2.16.16-3.24,1.66-3.77,3.62-.16.59-.33,1.17-.42,1.77-.3,1.86-.77,3.72-.38,5.95.9-.97,1.11-1.89,1.25-3.04m5.33-9.79c.01.36.17.64.52.75,1.24.37,2.19,1.2,3.17,2,2.77-2.6,5-5.51,6.22-9.09.23-.68.45-1.32-.14-1.96-.87-.95-1.95-1.49-3.35-1.95.22,2.1-.02,3.91-1.22,5.48-.57.75-1.24,1.37-2.23,1.14-.97-.23-1.3-1.05-1.5-1.99-.36-1.67.29-3.17.74-4.76-.59.07-1.05.13-1.65.2.42-1.12-.27-2.07-.08-3.1-.4,1.48-1.38,2.79-1.03,4.44.62,2.84,1.06,5.7.53,8.84m33.12-13.89c1.51-2.62,2.03-5.37,1.16-8.5-2.49,1.1-5.18.5-7.6,1.55-2.33,1.01-5.2,4.03-5.02,5.42.13-.06.29-.08.36-.17,2.25-2.92,5.53-4.22,8.79-5.54.56-.23,1.32-.7,1.79,0,.42.63-.19,1.22-.49,1.79-.06.12-.18.22-.26.33-1.82,2.5-4.28,4.29-6.76,6.06-.4.29-1.06.51-.72,1.15.96,1.79,2,3.55,3.04,5.37,2.59-1.98,3.97-4.72,5.69-7.46m-8.09,20.45c-.13-.23-.32-.34-.57-.2-1.89,1.04-3.89,1.5-6.01,1.01-.29.57-.09,1.02-.02,1.47.41,2.58.97,5.15,1.17,7.74.12,1.49.69,1.86,2,1.73.65-.07,1.3-.09,1.93-.32,2.45-.9,2.87-1.58,2.53-4.16-.32-2.36-.65-4.72-1.03-7.26m-3.48-11.1c-1.25,1.49-2.96,2.07-4.79,2.4-.82.15-1.08.48-.8,1.35.66,2.04,1.22,4.12,1.81,6.19.17.6.52.97,1.17,1.03,1.82.17,3.55-.05,5.09-1.14.45-.32.69-.65.63-1.27-.29-2.91-1.22-5.66-2.01-8.44-.18-.62-.48-.78-1.09-.12m-.25-3.04c-1.02-2.17-2.13-4.28-3.82-6.02-.41-.43-.8-1.12-1.45-.94-.67.19-.87.95-.93,1.61-.2,2.25-.68,4.36-2.85,5.71.99,1.36,1.99,2.49,2.56,3.88.17.41.56.49.95.42,1.87-.35,3.66-.89,4.97-2.37.51-.57,1.11-1.21.55-2.29m-3.53,58.18c1.5,2.38,2.66,5.05,5.26,6.55,1.34-1.21,2.71-3.71,2.93-5.21.09-.63-.2-1.07-.55-1.52-1.25-1.6-2.83-2.85-4.42-4.07-.72-.55-1.34-1.3-2.43-1.46-.32.86-.57,1.71-.96,2.49-.52,1.05-.65,2.03.17,3.21m1.93-12.02c-.02.63.42.76.92.82,1.47.19,2.75.88,4.07,1.47.7.32,1.36.78,2.21.88.36-1.17.16-2.3.17-3.4.03-3.94-.48-4.53-4.4-5.32-.46-.09-.91-.2-1.38-.27-.66-.11-1.06.08-1.12.85-.12,1.58-.32,3.15-.49,4.96m-28.77-44.84c-.32.73-.68,1.44-.96,2.18-.18.48-.31,1.03.06,1.48,1.35,1.69,3.15,2.77,5.05,3.72,1,.5,1.63-.49,2.47-.64.23-.04.45-.14.69-.15.77-.05.98-.47,1.02-1.2.13-2.17-.2-4.29-.57-6.42-.38-2.18-.79-2.44-3.1-1.88,1.13,1.39,1.9,2.9,1.95,4.72.04,1.58-.85,2.4-2.38,2-1.44-.38-2.31-1.38-2.67-2.8-.18-.73-.27-1.49-.45-2.47-.44.56-.73.93-1.11,1.46m47.16,12.86c-2.15-.15-4.25-.58-6.35-1.07-.7-.16-1.4-.18-1.31.85.15,1.77.37,3.53.53,5.29.06.63.31.91.98.86,4.72-.35,8.44-2.24,10.52-6.73-1.72,1-2.6,3.02-4.63,3.73-2.25.78-4.79,1.16-6.08.43,3.13-.47,6.21-.63,8.5-3.35-.83,0-1.38,0-2.16-.01m-17.04,19.62c1.74-1.31,3.76-.59,5.81-.61-.2-2.71.45-5.32-.57-8.01-1.97,1.29-3.99,1.72-6.02,1.55,0,2.39-.01,4.66,0,6.92,0,.41.31.39.77.15m9.85-25.15c1.71-.69,3.28-.32,4.54.92,1.99,1.96,4.42,1.88,6.91,1.75-2.17-.61-3.85-2.06-5.72-3.17-1.55-.92-3.23-1.22-5-.86-1.94.39-2.14.71-1.82,2.62.09.51.2,1.01.25,1.53.06.57.33.84.91.83,1.38-.03,2.66.49,4,.72,2.56.44,5.13.97,7.71-.72-.33,0-.46,0-.59,0-2.08-.16-4.3.15-6.04-1.35-1.67-1.45-3.37-2.55-5.75-1.45-.05-.13-.1-.27-.15-.4.19-.11.39-.22.75-.42m-14.42,58.46c.35.46.48,1.24,1.29,1.07,1.7-.36,3.22-1.07,4.49-2.47-2.91-2.1-4.39-5.06-5.85-8.24-.64.9-1.37,1.41-2.09,1.89-.62.42-.73.88-.5,1.54.72,2.07,1.34,4.18,2.66,6.22m9.59-10.14c.97-.91.45-2.15.71-3.22.5-2.07-.15-3.61-2.32-4.34-.79-.27-1.51-.74-2.29-1.06-2.23-.94-2.45-.83-2.99,1.51-.04.18-.05.38-.12.55-.32.79-.07,1.29.66,1.71,2.27,1.32,4.3,2.97,6.35,4.86m-1.72-16.94c.84.21,1.58.82,2.7.73,0-1.96,0-3.9,0-5.84,0-.39-.28-.58-.62-.65-1.42-.3-2.82-.66-4.27-.08-1.89.77-2.25,1.54-1.89,4.46.19,1.57,1.5.63,2.23.97.49.23,1.09.24,1.86.41m-11.27,28.54c.86.03,1.73.07,2.73-.19-1.32-2.44-2.28-4.85-2.79-7.42-.09-.43-.35-.65-.81-.55-1.12.26-2.27.38-3.61.38.36,1.76.75,3.38,1.02,5.02.31,1.85,1.34,2.75,3.45,2.77m12.13-78.56c-.53.39-1.08.74-1.57,1.17-1.84,1.56-1.81,2.05.28,3.66,2.72-2.39,5.93-4.3,7.99-7.86-2.54.72-4.57,1.75-6.7,3.04m15.93,69.1c.71-.64,1.56-1.14,2.19-2.24-2.43.15-4.6.26-6.58,1.34-.41.23-.74.54-.97.98-1.22,2.35-2.36,2.91-5.09,2.37-1.06-.21-1.35.2-1.36,1.4,4.24-.41,8.12-1.49,11.81-3.86m-29.99-67.31c1.28,2.49,1.29,5.13.66,8.1,1.17-1.06,1.95-2,2.03-3.19.11-1.69.17-3.34,1.37-4.61-2.41-2.34-4.41-3.17-6.47-2.72,1.18.41,1.8,1.27,2.41,2.43m-4.57,74.54c.66.4,1.26.92,2.3.94-.58-2.01-.76-3.95-1.05-5.87-.09-.59-.4-.96-.98-1.02-1.07-.12-2.03-.58-3.18-1.11.66,1.91,1.24,3.63,1.6,5.4.14.69.63,1.13,1.31,1.66m22.52,3.63c-.47-.3-.94-.62-1.42-.9-1.61-.9-1.85-.82-2.79.84,1.86,2.53,5.65,4.43,7.48,3.66-.59-1.57-1.94-2.44-3.27-3.6m3.39,2.08c.16.11.42.22.45,0,.16-1.11.38-2.27-.54-3.17-.77-.75-1.57-1.48-2.43-2.12-1.8-1.34-2.42-1.1-3.11,1.18,2.19.82,3.91,2.31,5.62,4.11m-15.64,2.46c.13,1.84-.48,3.72.37,5.53.46-2.44.4-4.94,1.14-7.36-.76-.25-1.36.24-2.02.05-.74-.22-1.12.25-1.14,1-.04,1.67.13,3.32.65,4.91-.07-1.23.27-2.42.32-3.63.02-.4.06-.4.68-.5m-13.26-79.8c0,.57-.03,1.13.78,1.21.54.05,1.06.11,1.28-.51.49-1.37.85-2.76.54-4.23-.08-.4-.14-.86-.71-.88-.5-.01-.75.32-.94.71-.52,1.1-.89,2.24-.95,3.69m-13.39,4.59c1,.25,1.71-.56,1.53-1.14-.52-1.63-1.09-3.31-2.16-4.72-.97.39-.94,1.1-.85,1.8.19,1.4.73,2.68,1.48,4.07m8.23-11.46c.3.37.58.78,1.23.29-.77-2.83-2.22-5.35-3.64-7.88.1,2.7.97,5.14,2.41,7.6m1.53-1.48c.23.42.07,1.29.98.98.99-.33.43-1.01.18-1.47-.74-1.4-1.65-2.71-2.32-4.13-.39-.83-.96-1.24-1.92-1.76,1.09,2.25,2.05,4.22,3.08,6.38m8.9,10.66c.4.52.74.58,1.2,0,1.25-1.59.66-4.82-1.31-6.06.77,2.06.23,3.97.11,6.06m-1.97-3.25c-.11.4-.19.82-.35,1.2-.46,1.11.09,1.39,1.1,1.41.61-1.81.77-3.58.34-5.4-.09-.4-.26-.74-.72-.68-.53.07-.49.52-.41.87.18.78.24,1.56.05,2.58m25.38,27.17c-.55.03-1.08.13-1.02.85.06.77.69.66,1.18.62,2.15-.15,3.93-1.07,5.53-2.81-1.93.59-3.58,1.43-5.69,1.35m-13.66,53.89c-.09,1.24-.19,2.47-.28,3.71,1.27-1.87,2.02-3.88,2.02-6.2-1.84-.07-1.37,1.39-1.73,2.49m-31.05-78.72c-.44,2.12.43,3.86,1.5,5.71.54-.6,1.03-1.08.62-1.71-.85-1.32-1.29-2.78-1.7-4.27-.12-.42-.3-.14-.43.26m17.81-12.79c1.76-3.09,4.05-5.79,6.17-8.65-1.34,1.12-2.64,2.29-3.68,3.66-1.15,1.52-2.38,3.06-2.49,5m-2.36,9.72c.18-.66.37-1.33.57-2.05-1.36.56-2.53,3.91-1.81,4.98.14.21.33.32.59.27.39-.08.53-.35.54-.71.03-.75.04-1.5.11-2.48m23.82,79.8c-.73-.61-1.47-1.22-2.2-1.84-.54,1.71.41,2.38,1.72,2.86,1.05.39,2.09.74,3.42.75-.62-.32-1.07-.53-1.5-.79-.44-.26-.85-.58-1.44-.99m-23.09-10.28c-.3-.98-.59-1.95-.9-2.93-.42-1.33-.73-1.75-1.9-2.53,1.24,2.12,1.18,4.63,2.97,6.31-.05-.22-.09-.45-.17-.85m-3.74-69.57c.48-1,1.21-1.81,2.3-2.8-3.29,1.92-4.68,4.49-3.63,6.23.41-1.07.82-2.16,1.33-3.42m20.9,95.25c-.41-.44-.62-.14-.58.24.2,1.78.46,3.54.69,5.31.15-.02.3-.03.45-.05.11-1.79-.21-3.55-.56-5.51m-14.22-14.7c.12.37-.05.82.32,1.18.8-4.04,1.08-4.16-.28-4.38-.33,1.03-.34,1.44-.04,3.21m3.36.32c.37-.51,1.05-.82,1.09-1.56-1.28-.58-2.35.6-2.41,2.62.57-.08.83-.58,1.32-1.06m-13.08-87.07c-.36-.83-.72-1.66-1.09-2.5.36,1.91.89,3.75,1.82,5.52.72-.42.79-.79.37-1.33-.37-.48-.67-1.01-1.11-1.7m13.93,22.01c-.61-.28-1.03.04-1.23.54-.28.71-.05,1.35.63,1.92.91-.6,1.01-1.38.6-2.45m16.1-.93c.52-.11,1.1-.25.87-.95-.22-.66-.78-.29-1.18-.17-.48.14-1.03-.04-1.47.36.07,1.18.87.92,1.79.76m-5.16,89.6c.23.88-.1,1.93.8,2.77.55-1.24.24-2.35-.17-3.33-.24-.56-.69-.28-.63.56m-.42-109.82c.07-.12.13-.23.35-.6-.91.75-1.61,1.32-2.29,1.91-.83.72-.49,1.12.44,1.43.49-.91.95-1.76,1.5-2.74m-12.58,19.19c.22.39.35.87.83,1.06,1.11-1.15,1.1-1.57-.08-2.35-.46.22-.6.68-.76,1.29m-1.67,10.3c-.48.11-.96.22-1.49.34.07.66.02,1.4.91,1.28.73-.1,1.24-.64,1.36-1.38.07-.46-.25-.53-.78-.24m-.05-7.46c.23.49.58.85,1.02.31.58-.7.71-1.47-.16-2.19-.54.5-1.18.86-.86,1.87m-11.8-19.12c-.31-.02-.58-.35-1.02-.07.68.82,1.36,1.6,2.23,2.23.81-1.34,0-1.78-1.21-2.16m14.84,78.96c-.92-.56-.98-.58-2.05-.72.78,1.35,2.04,1.87,3.61,2.25-.58-.55-1.01-.96-1.56-1.52m19.36-51.42c-.7-.32-1.35.08-2.03.14-.29.03-.47.29-.43.62.03.26.21.49.45.42.74-.23,1.77.11,2.01-1.18m-1.87-4.32c.48-.31,1.4-.05,1.38-1.06-.71-.38-1.3.08-1.9.22-.36.09-.99.13-.77.74.2.55.7.27,1.29.1m-16.08-6.46c.13.4.29.77.76.87.7-1.25.67-1.59-.21-2.49-.69.27-.54.88-.55,1.61m5.38,15.62c-.02.56-.33,1.12-.05,1.71,1.23-.5,1.34-.72,1.13-2.21-.41-.12-.67.18-1.08.5m-20.6-28.13c-.29-.31-.39-.83-.95-.88q1.14,3.14,2.06,3.29c-.09-.87-.67-1.51-1.11-2.41m30.46,20.04c-.35.24-.41.69-.03.73.98.09,1.89-.2,2.47-1.21-.75.14-1.5.29-2.44.48m-18,15.06c.06-.31.22-.64-.26-.9-.51.55-1.39.48-2.08,1.05.83.73,1.53.82,2.34-.15m3.35-10.42c-.31.1-.84-.04-.66.59.13.44.39.75.89.68,1.05-.16.95-1.03,1.18-1.9-.51.24-.87.41-1.41.63m-2.85-5.9c-.53.06-1.05.13-1.65.2.29.68.51,1.21.75,1.79.9-.41,1.23-.98.89-1.99m6.51,35.43c-.13.51-.01,1.04.51,1.12.53.08,1.14-.05,1.66-.65-.74-.33-1.13-1.25-2.17-.47m9.71-44.91c.42-.27,1.38-.15,1.12-.91-.27-.8-.93-.07-1.43-.02-.09,0-.18.04-.27.07-.34.15-.81.27-.67.74.2.65.69.15,1.24.11m-13.65,8.33c-.55-1.28-1.06-.07-1.7-.1.29.62.38,1.17.81,1.51.62-.25.82-.71.89-1.42m15.66,4.06c-.42.17-.94.26-.58,1.09.83-.4,1.98-.05,2.46-1.3-.67-.32-1.14.2-1.88.21m1.88,14.66c-.33-.29-.54-.77-1.1-.68-.3,1.41.03,1.78,1.62,1.7-.14-.31-.27-.59-.52-1.02m-23.44-20.96c-.64.25-1.22.59-1.67,1.19.53.53,1.07.53,1.58.21.52-.32.58-.8.1-1.4m19.42-5.19c-.23.12-.61.07-.63.44-.02.35.28.46.57.47.65.02,1.32.01,1.81-.5.09-.09.08-.41,0-.49-.52-.5-1.03.09-1.74.09m2.82,16.04c.67-.1,1.44-.07,1.72-1.21-.88.19-1.5.32-2.12.47-.23.05-.46.17-.38.47.08.28.34.26.77.27m-14.92.97c-.15-.48-.56-.38-.91-.39-.32,0-.67-.05-.81.34-.12.32-.1.65.16.89.31.29.68.24,1.02.08.3-.14.5-.4.54-.92m-3.97-5.54c-.26.45-.11.8.31,1.02.34.17.64-.03.84-.29.34-.45.58-.94.06-1.43-.49,0-.74.39-1.21.7m1.79,1.78c.69.71,1.13.24,1.49-.34.22-.36.38-.86-.12-1.07-.7-.3-.73.52-1.08.81-.13.11-.21.29-.29.61m9.91-21.49c1.09.97,1.25-.31,2.08-.76-1.13-.41-1.83-.49-2.08.76m-3.75,48.08c-.34.04-.72-.29-1.04.12.07.43-.04,1.02.6,1.07.7.06.97-.54,1.47-1.09-.41-.04-.63-.07-1.03-.1m-2.1-17.94c.47-1.18-.23-1.33-1.37-1.4.5.63-.35,1.92,1.37,1.4m-6.56-15.88c-1.39.18-1.45.33-.62,1.75.7-.35,1.03-.82.62-1.75m6.57,24.62c-.48.11-.97.21-1.46.32,0,.67.12,1.24.91,1.07.66-.14,1.06-.56.55-1.39m12.23-26.21c.26-.18.79-.11.64-.8-.77.36-1.72-.11-2.46.64.51.84,1.1.23,1.82.16m-22.78,46.27c.4-.44.31-1.48,1.41-1.06.28.11.51-.21.49-.52,0-.15-.14-.38-.27-.43-.47-.17-.78.21-1.1.46-.6.48-.82,1.05-.53,1.56m5.18-37.27c-1.16-.21-1.21-.09-.72,1.64q1.06-.35.72-1.64m-2,39.97c.14-.37.4-.75-.12-1.08-.61.37-1.38.59-1.21,1.55.55.3.92.09,1.33-.47m16.24-55.85c.71-.28,1.64-.24,1.92-1.29-1.55.09-2.05.4-1.92,1.29m5.61,27.36c.21-1.13-.58-1.44-1.43-1.84-.34,1.26.5,1.53,1.43,1.84m-7.61-31.44c.91.2,1.49-.19,2-1.07-1.06-.22-1.77-.1-2,1.07m-14.38,23.87c-.23-.85-.83-.65-1.3-.37-.35.21-.31.74-.02.99.61.55.99.09,1.33-.62m9.91,3.34c-.45.04-.97,0-.95.68.01.39.26.56.62.58.47.02.76-.2.93-.64.17-.44.17-.73-.6-.62m-3.19-4.14c.24.44.61.44.91.15.4-.38.49-.86.12-1.37-.74-.03-1.35.06-1.03,1.22m1.66-7.97c.77-.83.27-1.53-.31-2.23.13.77-.76,1.56.31,2.23m4.52,86.57c-.3-1.28-.06-2.65-.68-3.87.25,1.32-.14,2.74.68,3.87m-7.38-45.96c-.8.01-.96.45-.67,1.09.18.38.6.51.94.29.7-.45.38-.9-.27-1.38m14.83-28.21c-.23,1.41.91,1.28,1.66,1.6-.11-.94-.79-1.29-1.66-1.6m-14.28-9.63c.3.5.7.67,1.08.14.48-.67.13-1.19-.5-1.7-.22.49-.43.95-.58,1.56m7.93,56.79c.04-.47.4-.92.09-1.61-1.04.94-.5,2.14-1.01,3.27.68-.47.69-1.01.93-1.67m-4.75-53.27c-.38.58-.2,1.18-.21,1.83.75-.13,1.09-.52,1.13-1.14.03-.5-.19-.8-.92-.68m-3.61,18.29c-.28.4-.59.86.11,1.1.37.13.92.18,1.01-.42.1-.71-.35-.89-1.12-.69m7.28,30.64c-.34,0-.65.05-.7.48q1.03.86,2.15.45c-.44-.3-.86-.59-1.45-.94m-9.57-13.98c-1.64-.38-.85.84-1.17,1.61.91-.31,1.42-.64,1.17-1.61m.05-67.13c-.71-.93-1.37-.63-2.19.06.79.43,1.43.51,2.19-.06m-4.4,45.2c.5.68.82.2.95-.24.21-.74-.17-1.12-.92-1.13-.34.4-.12.8-.02,1.36m11.91-3.1c.25-.65.31-1.27-.2-1.96-.76.78-1.03,1.41.2,1.96m-2.02-1.81c-1.24-.14-1.48.16-1.03,1.32.65-.12,1.03-.5,1.03-1.32m-1.92,25.96c.25.28.24.88.81.76.3-.06.42-.35.36-.65-.09-.42-.26-.82-.73-.9-.45-.07-.72.11-.44.78m-.17-30.48c.17.35-.06.87.46,1.11.69-.3.91-.85.51-1.45-.25-.37-.73-.39-.98.34m-1.29.59c-.27,0-.55,0-.82.02-.3.02-.53.15-.52.5,0,.24.03.48.26.6.26.14.53.09.78-.08.33-.22.52-.51.31-1.05m1.46-5.21c.36.64.69.24.96-.06.24-.26.23-.6.03-.91-.16-.25-.37-.2-.62-.14-.6.13-.58.5-.38,1.11m6.2,63.12v2.81c.35-.99.66-1.98,0-2.81m7.49-42.01c.29.37.61.67,1.23.6.15-.88-.45-1.27-.99-1.71-.37.3-.31.63-.25,1.11m-16.29-25.44c-.48.36-.56.71.07,1.1.7-.38,1.14-.86.89-1.74-.48-.05-.56.37-.96.64m-5.83,1.74c.54-.16.84-.53.48-1.02-.27-.38-.83-.3-1.1.03-.4.48-.15.85.62.99m12.08-24.65c-.29.27-1.01.45-.4.99.63.56,1.03-.07,1.48-.39-.14-.54-.46-.72-1.08-.61m-11.36,29.13c.41-.2.85-.38.53-1.18-.45.38-1.22-.11-1.45.67-.14.49.35.53.92.51m-13.29-10.46c0-.36.18-.81-.45-.98-.37.78-.32,1.47-.08,2.28.42-.37.48-.73.52-1.3m37.49,56.44c.4.42.82.82,1.43,1.07-.37-1.72-.67-1.93-1.43-1.07m-22.46-18.44c.23-.33.57-.68.16-1.07-.21-.21-.51-.14-.75.06-.24.21-.52.43-.39.8.14.43.42.58.99.22m8.28-4.68c.62.42,1.01.16,1.33-.41-.23-.42-.51-.7-.99-.74-.34.25-.47.57-.34,1.15m11.54-1.45c.32.21.52.66,1.02.53q-.16-1.04-1.14-1.61c-.39.31-.23.63.12,1.08m.05,17.86c.07-.73-.17-1.31-.8-1.82-.32,1.3-.23,1.51.8,1.82m-15.96-50.44c-.26.46-.74.97-.04,1.4.34.21.67-.14.68-.45.02-.39.64-1.2-.65-.95m-1.13,40c-.33.38-.75.73-.3,1.4.61-.18,1.05-.51,1.04-1.22,0-.41-.22-.6-.74-.18m22.58-9.72c-.99-.1-1.99-.27-2.88.35.99-.19,2.05.19,2.88-.35m-18.81-31.07c-.12-.28-.08-.67-.54-.8-.56.8.1,1.53.18,2.3.12-.44.25-.87.36-1.49m-7.4,17.1c-.14.03-.28.04-.41.09-.4.14-.99-.17-1.17.47-.06.2.07.37.26.43.58.18.98-.12,1.31-.54.08-.1.09-.25.01-.44m5.89,4.55c-.33.11-.8.09-.73.62.04.33.33.42.63.34.46-.12.92-.36.91-.88-.01-.42-.39-.21-.81-.09m-4.29-2.36c.47,0,.96.02.97-.74-.51-.27-1.05-.41-1.48.04-.21.22.06.51.51.69m2.9-.65c.55-.37.62-.8.11-1.23-.22-.19-.59-.18-.74.08-.32.54-.18.97.63,1.15m15.75-2.45c.53.11.98.6,1.74.44-.48-.66-1.05-.95-1.67-1.05-.47-.08-.58.17-.08.62m-26.73-40.87c.12.96.7,1.65,1.33,2.51.22-1.28-.57-1.84-1.33-2.51m3.75,74.3c.58-.39.41-.86.08-1.26-.2-.24-.5-.15-.67.14-.32.54-.24.95.6,1.13m8.83-29.48c.16-.32.22-.64-.18-.82-.31-.14-.56.01-.71.26-.17.29-.25.65,0,.92.33.35.57.03.89-.36m-3.6-7.46c-.54-.97-1.02-.04-1.84-.09.74,1.04,1.23.82,1.84.09m-4.74,27.29c.04.39.2.63.64.48.34-.12.52-.39.52-.75,0-.33-.23-.49-.53-.57-.62-.16-.54.33-.63.84m1.11-10.53c.08.71.62.59,1.03.49.53-.13.76-.53.75-1.12-.62.19-1.14.35-1.78.63m-.37-24.93c-.28-1.02-.87-.28-1.46-.35.28,1.12.61,1.54,1.46.35m5.86,39.44c.16-1.17-.64-.76-1.22-.71.4.26-.11,1.69,1.22.71m-3.29-29.2c.14.26,0,.76.48.72.43-.03.82-.23.76-.87-.41-.2-.82-.4-1.23.15m-2.16,4.27c-.49.17-.74.59-.29.89.6.4,1.08.03,1.35-.56-.25-.41-.63-.19-1.06-.33m1.09-40c.18-.17.33-.47.05-.53-.59-.14-1.24-.21-1.78.47.59.25,1.07.26,1.74.06m5.98,1.07c.38.91.53.91,1.52.04-.42-.52-.9-.32-1.52-.04m4.04,43.54c.68.27.94-.11,1.01-.68.04-.3-.17-.61-.47-.54-.55.13-.74.57-.55,1.22m-1.57,7.38c-.39-.01-.78,0-.75.54.01.26.23.39.49.38.45-.02.85-.21.96-.64.07-.28-.3-.25-.7-.28m21.42,4.06c.23.19.32.56.72.54-.91-1.77-1-1.88-2.18-2.62.51.73.93,1.33,1.46,2.07m-27.46-40.11c-.14.73.32.92.89,1.09.19-1.34.15-1.39-.89-1.09m2.9,47.96c.28.23.16.73.65.89.55-.81.02-1.4-.56-1.63-.48-.19-.57.25-.09.74m3.6-20.57c.13-.29.35-.57.08-.92-.52.06-1.08.15-1.03.81.04.51.46.49.95.11m-4.63,6.57c.3-.34.56-.72-.07-.96-.32-.12-.69-.04-.75.39-.07.48.01.88.82.57m-3.76,35.34c.31-.45.94-.79.54-1.49-.1-.17-.33-.21-.48-.07-.46.44-.29.99-.07,1.56m2.68-31.43c.43-.04.91-.13.72-.69-.14-.43-.62-.36-.93-.18-.44.25-.59.59.21.87m7.44-7.1c.39-.2.61-.5.15-.8-.29-.19-.79-.23-.97.15-.27.58.19.66.81.65m-9.78,20.69c-.36-.27-.77-.47-.93.14-.07.25.03.72.43.76.48.05.59-.32.51-.9m1.19-21.36c.06-.29.34-.56.09-.92-.57.1-1.12.25-.92,1,.13.48.47.28.83-.08m14.8,31.59c.41.38.87.56,1.85.33-.87-.27-.92-1.75-1.85-.33m-14.78-7.88c-.2-.21-.47-.42-.7-.17-.35.38-.31.81.07,1.2.59-.03.84-.31.63-1.03m-2-21.21c.12-.87-.49-.23-.72-.31-.41-.14-.8.03-.68.55.12.54.55.39.89.23.16-.07.28-.23.51-.47m11.14-42.79c.61.73.7.71,1.37-.28-.46-.28-.87-.16-1.37.28m-6.87,39.02c-.57-.1-.91.13-.9.72,0,.13.22.37.32.36.57-.05.77-.42.58-1.08m-3.86,12.85c-.12.63.22.76.72.62.33-.09.38-.41.25-.69-.23-.47-.55-.43-.97.07m13.04-50.35c.18-.15.43-.43.17-.53-.59-.21-1.12,0-1.47.55.42.61.79.17,1.3-.02m-16.68,58.04c.36-.22.83-.43.36-.92-.24-.25-.6-.22-.85.1-.34.45-.33.77.49.82m4.92-27c.74.11,1.06-.24,1.12-1.08-.65.16-1.32.04-1.12,1.08Z"/><path d="m64.94,65.66c.18.48.31.87.45,1.26,2.24-.45,3.59.04,4.04,1.44.35,1.09-.32,2.35-1.56,2.95-1.38.66-2.42.19-3.65-1.62-2.54.9-3.74.57-4.64-1.3-.69-1.43-.07-3.51,1.28-4.32,1.22-.74,2.89-.11,4.08,1.6m-2.96-.26c-.96-.44-1.07.43-1.3.93-.4.87-.08,1.63.61,2.25.37.33.8.5,1.28.25.47-.25.59-.69.57-1.18-.04-.86-.62-1.43-1.16-2.25m5.65,4.19c.44-.39.89-.81.23-1.36-.6-.5-1.22-.38-1.76.13-.44.41-.74.91-.21,1.45.54.55,1.11.69,1.74-.22Z"/><path d="m74.56,65.4c1.1.35,1.3,1.27,1.67,2.16,1.53-.19,3.38-1.06,3.96,1.33.36,1.5-.17,2.23-1.69,2.73-1.61.53-2.03.27-3.15-1.97-2.36.98-3.46.75-4.22-.89-.89-1.91-.03-3.37,2.08-3.49.41-.02.83.05,1.36.12m-.73,2.38c-.06-.42-.15-.82-.62-1.01-.75.29-.71.89-.58,1.5.06.3.26.55.57.51.43-.05.58-.42.63-1m4.58,1.48c.09-.33.18-.68-.34-.69-.46,0-.65.3-.69.72-.03.33,0,.72.36.82.56.16.55-.32.66-.85Z"/><path d="m73.69,62.52c-1.2,1.55-2.08,1.82-3.75,1.17-.34.94-.68,1.94-1.81,2.23-.68.17-1.31-.03-1.87-.37-1.14-.69-1.58-2.7-.85-3.73.75-1.06,2.48-1.07,3.85-.02,1.14-1.91,2.1-2.62,3.09-2.2,1.26.52,1.73,1.49,1.34,2.92m-5.15,1.25c0-.71-.17-1.32-1-1.4-.4-.03-.9-.06-1.05.45-.16.54-.01,1.06.46,1.35.52.32,1.12.52,1.6-.41Z"/><path d="m39.72,79.17c-1.6,1.7-3.29,1.88-4.71.57-1.35-1.24-1.53-4.09-.35-5.39,1.1-1.2,2.09-1.21,4.43-.04,1.07.53,1.67,1.93,1.33,3.23-.14.53-.43,1.03-.7,1.63m-1.64-2.33c-.53-.11-1.07-.58-1.59-.26-.58.36-.57,1.04-.48,1.65.08.57.41.99.98,1.03.84.06,1.39-.48,1.8-1.13.37-.6,0-.95-.7-1.29m-2.96-.68c.54-.71,1.38-1.07,2.15-1.76-1.36-.04-1.96.59-2.15,1.76Z"/><path d="m43.45,61.01c1.79-.02,2.93,1.07,2.95,2.71.02,1.71-1.55,3.73-2.94,3.79-1.28.05-2.59-1.31-2.76-2.88-.22-1.98.37-2.78,2.76-3.61m1.12,3.88c.44-.58.13-.94-.39-1.19-.64-.31-1.17,0-1.6.45-.26.27-.43.63-.19,1,.34.53.85.49,1.36.32.25-.09.47-.28.83-.58Z"/><path d="m68.61,76.17c.09.83.02,1.51-.4,2.13-.87,1.29-2.38,1.91-3.64,1.44-1.29-.48-1.67-1.56-1.63-2.82.04-1.41,1.04-2.67,2.23-2.91,1.34-.26,2.71.56,3.45,2.16m-1.23.57c-.03-.41,0-.85-.53-1.03-.49.31-1.1.46-1.35,1.08-.17.43-.18.81.22,1.12.33.26.67.29,1.02.05.36-.25.6-.57.65-1.22Z"/><path d="m63.95,86.31c-.94-1.16-1.15-2.36-.53-3.61.48-.96,1.34-1.41,2.4-1.41,1.05,0,1.95.29,2.22,1.49.12.54.27,1.09,1.07.57.26,1.52-.44,2.37-1.45,3.08-1.23.86-2.44.78-3.72-.12m1.78-1.11c.65.46,1.06.13,1.29-.47.2-.52.07-1-.44-1.33-.39-.25-.77-.3-1.11.09-.51.57-.36,1.09.27,1.7Z"/><path d="m40.35,81.14c2.59,0,4.15,1.73,3.46,3.75-.37,1.08-1.12,1.83-2.34,1.93-1.17.09-1.98-.47-2.49-1.47-.6-1.19-.53-2.34.26-3.43.25-.35.59-.59,1.11-.78m.5,2.03c-.87.1-.93.61-.59,1.26.24.46.68.74,1.12.34.71-.64.15-1.11-.52-1.6Z"/><path d="m77.66,78.39c-1.16.68-2.24.63-3.25-.01-1.38-.89-1.8-2.58-.97-3.6,1.04-1.28,3.21-1.7,4.25-.82,1.15.98,1.71,3.3-.03,4.44m-.82-1.64c.03-.27.14-.56.09-.81-.11-.5-.35-1.15-.93-.98-.81.24-.68,1.04-.47,1.65.2.59.61,1,1.31.15Z"/><path d="m59.35,74.2c.14,1.51-.47,2.48-1.79,2.9-1.11.35-2.98-.4-3.46-1.29-.7-1.28-.57-2.84.36-3.77.72-.73,1.54-.98,2.52-.45,1.07.58,1.82,1.42,2.37,2.62m-2.97-1.48c-1.01-.42-1.24.35-1.4,1.01-.16.65.23,1.24.8,1.49.69.3,1.12-.26,1.42-.79.45-.79.14-1.31-.81-1.71Z"/><path d="m32.42,92c.11,1.81-.66,2.88-2.16,3.12-1.3.21-2.51-.61-2.84-1.91-.34-1.33.57-2.91,1.9-3.31,1.15-.34,2.42.48,3.1,2.09m-1.95,1.1c.11-.45.24-.93-.4-1.08-.24-.05-.41.18-.43.43-.03.49-.02.96.83.65Z"/><path d="m47.68,91.6c-.91-.99-1-1.95-.34-3.01.69-1.11,1.65-1.6,2.94-1.45.63.07,1.25.38,1.83-.06.94,1.5.76,3.16-.43,4.38-1.06,1.09-2.33,1.16-4.01.15m.54-1.48c.36.79.98.96,1.72.62.47-.22.85-.64.76-1.21-.07-.46-.38-.71-.9-.64-.71.1-1.7-.28-1.58,1.23Z"/><path d="m43.73,74.87c.75-1.76,1.52-2.07,3.07-1.32.17.08.33.19.5.25,1.2.41,2.36.82,1.74,2.52-.56,1.54-1.96,2.52-3.31,2.26-1.33-.26-2.28-1.68-2.14-3.19.01-.14.07-.27.12-.52m2.72,2.1c.63-.24,1.23-.6,1.09-1.35-.09-.49-.66-.57-1.13-.61-.5-.04-.95.08-1.06.64-.15.73.27,1.11,1.1,1.33Z"/><path d="m60.02,79.47c.36.59.9.86,1.32,1.26.7.65.41,2.53-.39,3.33-.71.71-2.17.77-2.98.11-.99-.8-1.46-2.48-.98-3.55.6-1.34,1.68-1.47,3.02-1.15m-1.09,2.6c-.24.35-.56.83.01,1.01.58.18.95-.33,1.19-.84-.36-.31-.69-.39-1.2-.17Z"/><path d="m56.83,92.32c1.42.06,2,.96,2.25,2.06.29,1.24-.42,2.48-1.53,2.83-1.04.33-1.84-.03-2.34-.99-.7-1.34-.51-2.73.49-3.44.29-.21.68-.3,1.13-.45Z"/><path d="m20.92,53.58c1.74-.57,3.06-.24,3.51.81.51,1.18-.09,2.89-1.29,3.67-1.08.7-2.68.44-3.54-.57-1.07-1.27-.64-2.66,1.32-3.91m.46,1.29c-.64.5-1.6.95-.67,1.92.58.61,1.27.33,1.89-.1.57-.4.82-.92.53-1.55-.34-.73-.97-.55-1.74-.26Z"/><path d="m7.77,94.37c-1.31.1-2.15-.37-2.38-1.57-.22-1.15.58-1.68,1.48-2.09.13-.06.27-.09.39-.15.72-.34,1.41-1.38,2.2-.09.67,1.09.35,2.87-.66,3.54-.27.18-.6.24-1.02.37Z"/><path d="m43.89,96.33c-.75.98-1.59,1.12-2.49.47-1.04-.76-1.43-2.27-.93-3.37.43-.92.95-1.73,2.19-1.3.1.62-.59.41-.7.89,1.09.12,1.01,1.85,2.34,1.61.33.7-.1,1.14-.41,1.71Z"/><path d="m73.29,72.61c.24,1.7-.43,2.68-1.9,2.92-1.2.2-2.35-.63-2.56-1.85-.21-1.19.87-2.7,2.13-2.89,1.29-.19,1.76.82,2.33,1.81m-2.06,1.63c.77-.21,1.12-.68.81-1.46-.2-.5-.66-.73-1.15-.51-.85.38-.27,1.05-.21,1.59.01.14.24.25.56.38Z"/><path d="m14.7,78.98c-.54,1.12-1.39,1.51-2.46,1.26-1.06-.25-1.47-1.14-1.57-2.11-.11-1.1.38-1.92,1.54-2.16,1.28-.26,2.15.28,2.4,1.51.09.45.08.93.09,1.5m-1.75-.17c.45-.51.64-.99-.15-1.45-.5.54-.52,1,.15,1.45Z"/><path d="m48.99,72.1c-1.2-.35-1.81-1.14-1.61-2.22.44-2.36,2.44-1.09,3.74-1.47.9,1.73.02,3.34-2.13,3.69Z"/><path d="m17.49,103.69c-1.52.49-2.17.19-2.7-1.13-.51-1.26-.09-2.66.95-3.17,1.52-.74,2.95.36,2.88,2.2-.04.85-.39,1.52-1.13,2.11m-.13-2.88c-.06-.88-.45-1.25-1.25-.66-.65.48-.45,1.83.33,2.45.3-.54.61-1.07.92-1.79Z"/><path d="m74.63,79.27c.7,1.28.36,2.27-.66,3.01-.76.56-1.53.21-2.16-.33-.86-.74-.98-2-.33-2.75.73-.85,2.02-.86,3.15.07m-.89,1.1c-.16-.71-.57-.59-1.01-.28-.36.25-.31.57-.03.81.52.45.82.16,1.04-.53Z"/><path d="m21.33,82.86c.34-.96.88-1.51,1.83-1.64.56-.08,1.11-.31,1.53.25.44.58.46,1.23.11,1.84-.44.8-.83,1.9-1.95,1.69-.92-.17-1.58-.95-1.53-2.15m1.73-.81c-.27.09-.51.22-.68.61,1.08-.33.99.19.36,1.25q1.1-1.29.31-1.86Z"/><path d="m23.23,75.22c-.17-1.4.66-2.62,1.82-2.77.54-.07,1.15.12,1.25.68.2,1.09-.56,1.85-1.26,2.51-.61.57-1.3.43-1.81-.41Z"/><path d="m117.53,85.6c1.3-1.55,3.01-.93,4.57-.78,1.36.13,2.62.77,3.74,1.54,2.22,1.51,4.48,2.74,7.34,1.82-1.29,1.1-2.71,1.02-4.15.7-.93-.2-1.72-.72-2.5-1.24-2.67-1.78-5.53-2.7-8.88-2.02-.12-.02-.12-.01-.11,0Z"/><path d="m119.59,88.61c.64,0,1.19-.11,1.68.38-1.07.11-2.11.32-3.37.7.43-.88,1-.97,1.69-1.08Z"/><path d="m103.41,21.11c-.62,1.1-.78,2.37-2.03,2.98,1.38-3.22,2.52-6.54,4.33-9.54.14.06.27.12.41.17-.89,2.1-1.77,4.2-2.71,6.39Z"/><path d="m120.48,25.71c-1.16,3.68-2.67,7.04-5.76,9.46,2.37-3.11,4.15-6.52,5.5-10.17.47.18.31.42.25.71Z"/><path d="m77.92,30.7c1.65.81,2.38,2.21,2.47,4-.92-1.18-1.53-2.58-2.56-3.79-.03-.09.05-.17.09-.21Z"/></svg>