<?xml version="1.0" encoding="UTF-8"?><svg id="Layer_1" xmlns="http://www.w3.org/2000/svg" viewBox="0 0 141 162"><path d="m86.1,121.06c2.24,2.33,4.54,4.48,6.56,6.86,1.07,1.26,2.16,2.53,2.38,4.52.19,1.79.45,3.49.08,5.26-.13.63.31.88.84,1.09,4.2,1.68,4.56,5.17,3.14,8.5-.59,1.38-2,1.72-3.27,1.86-.97.11-1.27-.92-1.1-1.73.15-.74,0-1.41-.15-2.07-.45-2.14-2.2-3.01-4.7-2.42-.27.06-.57.07-.81.19-.65.32-1.74-.59-2.03.62-.29,1.17-.2,2.33.62,3.33.47.58.94,1.16,1.4,1.75.68.86.44,1.6-.62,1.94-1.42.46-4.65-.7-5.68-2.05-2.14-2.79-1.89-4.89,1.02-7.87-1.68-1.9-3.73-3.49-5.14-5.64-.92-1.4-2.01-2.71-2.57-4.32-.22-.63-.68-.82-1.21-.58-2.76,1.24-5.6.64-8.43.5-2.74-.13-5.46-.33-8.12-1.06-.75-.2-1.16.07-1.56.76-1.08,1.84-2.01,3.91-3.51,5.34-2.01,1.91-3.88,4.04-6.27,5.54-.27.17-.6.27-.76.78.7.75,1.72,1.23,2.43,2.09,1.7,2.04.92,4.16-.54,5.62-.9.89-2.12,1.35-3.26,1.89-.6.28-1.22.11-1.68-.38-.43-.46-.76-1.01-.43-1.65.8-1.57.33-2.81-.95-3.84-1.56-1.26-3.16-1.39-4.78-.46-1.65.95-2.86,2.28-3.35,4.13-.26.97-.72.97-1.41.54-3.08-1.9-3.19-6.22-.04-8.08,1.03-.61,2.19-1.01,3.37-1.55-1.21-5.2,1.78-8.71,4.88-12.26,2.83-3.24,5.49-6.62,7.84-10.23.31-.47.66-1,.52-1.56-.84-3.44,1.01-6.39,1.73-9.53.64-2.77.63-5.52.41-8.29-.07-.85-.69-1.3-1.5-.73-2.29,1.6-4.54,3.25-6.81,4.89-.48.35-.29.82-.24,1.29.4,3.63-1.05,6.66-3.15,9.46-.47.63-1.28.87-2.03.6-.79-.28-1.01-.97-1.04-1.81-.06-1.44.02-2.89-.32-4.31-.11-.45-.15-.93-.75-1.38-.65.95-1.21,1.92-1.6,2.99-.44,1.21-1.16,2.25-2,3.19-.81.9-1.71.75-2.18-.36-1.04-2.44-.86-4.97-.07-7.39.84-2.59,2.05-5,4.59-6.43.29-.16.44-.59.61-.92,2.72-5.6,7.24-9.35,12.52-12.39,2.28-1.32,4.57-2.54,7.14-3.18.94-.23,1.11-.85,1.29-1.72.4-1.91.01-3.39-1.71-4.43-.16-.1-.32-.2-.46-.32-1.77-1.45-2.05-1.51-3.52.31-1.63,2.01-3.85,3.13-6.07,4.16-4.37,2.03-9.08,2.38-13.83,2.01-3.55-.28-6.78-1.55-9.71-3.64-1.21-.86-2.5-1.59-3.66-2.56-3.32-2.79-5.7-6.2-7.06-10.31-.98-2.98-1.55-5.99-1.25-9.19.17-1.84.14-3.7.42-5.55.69-4.46,1.85-8.72,4.48-12.49.77-1.11,1.4-2.31,2.17-3.44,1.07-1.56,2.52-2.74,3.81-4.08,2.87-2.99,6.29-5.33,9.65-7.68,3.89-2.73,8.22-4.73,12.77-6.22,2.31-.76,4.66-1.26,7.02-1.8,2.87-.66,5.74-1.27,8.67-1.47,4.23-.29,8.47-.35,12.72-.34,4.12.01,8.19.45,12.27.96,4.06.51,8.19.74,12.17,1.61,3.67.81,7.3,1.99,10.71,3.71,3,1.52,6.23,2.62,8.97,4.64,2.97,2.2,5.68,4.69,8.27,7.33,2.45,2.51,4.29,5.38,5.9,8.43,2.07,3.93,3.21,8.13,4.06,12.52,1.08,5.6,0,10.89-1.33,16.18-.64,2.57-2.44,4.69-3.95,6.87-2.11,3.04-4.64,5.69-7.61,7.93-3.47,2.62-7.36,3.22-11.53,2.72-1.85-.22-3.67-.59-5.48-1.06-3.18-.83-5.62-2.66-7.51-5.29-1.28-1.78-2.54-3.57-3.84-5.34-.27-.37-.64-.68-1-.97-.97-.78-1.65-.96-2.52.39-1.52,2.35-3.48,4.4-5.36,6.49-1.46,1.63-1.09,2.97.95,3.73,4.24,1.59,7.97,4,10.67,7.65,1.59,2.15,3.5,4.1,4.51,6.65.17.44.48.76.96.96,3.44,1.46,5.55,4.16,6.95,7.52.72,1.72-.19,3.28-.56,4.87-.13.53-.72.7-1.29.59-.71-.14-1.01-.66-1.14-1.28-.35-1.79-1.62-3.02-2.64-4.4-.15-.2-.46-.27-.75-.42-.6.9-1.07,1.81-2.17,2.14-.57.17-.38.69-.24,1.19.36,1.24,1.17,2.23,1.69,3.38.3.66.39,1.26-.18,1.8-.57.54-1.19.43-1.81.06-2.57-1.55-4.42-3.69-5.15-6.66-.3-1.22-1.05-1.93-2.02-2.7-2.04-1.62-4.21-3.13-5.98-5.07-.39-.42-.82-.77-1.44-.77-.47.35-.3.85-.31,1.3-.04,4.06.45,8.08,1.14,12.08.07.41.15.85.07,1.25-.51,2.52.7,4.35,2.34,6.03.16.16.26.39.44.67m-2.88-34.68c-1.21-.85-2.73-.94-4.02-1.61-.26-.13-.53,0-.81.07-2.87.81-5.71,1.83-8.73,1.85-2.94.02-5.87.09-8.75-.81-1.83-.57-3.35-2.12-5.57-1.52-1.76.47-3.51.91-5.06,1.93-.49.32-.59.81-.54,1.36.14,1.67.93,2.99,2.11,4.15.78.76,1.92,1.59,1.33,2.8-.43.89-.47,1.62-.32,2.51.23,1.28.46,2.58.56,3.88.35,4.53-.9,8.77-2.49,12.92-.34.88-.54,1.76-.13,2.57.35.71.24,1.32-.07,1.86-.79,1.37-1.61,2.74-2.58,3.99-1.13,1.45-1.28,2.05-.16,3.43.73.9,1.53,1.71,2.59,2.32,1.12.65,2.49.73,3.4,1.79.35-.48.64-.85.9-1.24,1.23-1.84,1.89-2.02,3.98-1.48,1.52.39,3.1.81,4.66.83,3.65.05,7.32.51,10.95-.21.44-.09.9-.05,1.13.36.59,1.04,1.72,1.53,2.45,2.44.87,1.08,1.53,1.05,2.56.08,1.17-1.1,2.11-2.41,2.82-3.83.86-1.7,1.51-3.27-.26-5.15-1.18-1.26-2.14-3.09-2.37-4.99-.49-4.15-1.17-8.28-1.22-12.47-.02-1.79.2-3.61.47-5.39.13-.86.33-1.64-.23-2.4-.36-.49-.37-1.07.16-1.35,2.32-1.23,3.37-3.39,4.34-5.64.72-1.68.64-1.97-1.11-3.04m-31.79-24.96c1.25-.95,2.31-2.06,3.24-3.53-2.63-.9-4.97-1.99-7.48-2.52-2.24-.47-3.23-2.02-2.48-4.23.4-1.19.98-2.32,1.36-3.51.89-2.76,1.95-5.44,3.28-8.02.98-1.89,1.25-3.88.78-5.96-.32-1.39-1.25-2.21-2.64-2.37-2.37-.28-4.74-.32-6.86,1.04-2.91,1.86-5.89,3.55-8.44,6-2.49,2.39-5.35,4.38-7.37,7.25-.49.69-.78,1.48-1.27,2.15-.31.43-.78.92-1.4.6-.51-.26-.65-.76-.47-1.33.08-.27.05-.62.22-.81,1.4-1.58.39-2.68-.68-3.81-.26-.27-.45-.59-.67-.89-1.06-1.45-1.9-3.04-2.81-4.71-1.22.97-1.86,2.1-2.48,3.24-.43.8-.27,1.35.5,1.89.57.4,1.44.68,1.48,1.75-.84-.16-1.55-.33-2.16-.78-.79-.58-1.24-.3-1.65.48-.63,1.21-.84,2.53-1.08,3.8.38.31.7.58,1.03.85,1.56,1.24,3.24,2.29,5.27,2.4,1.15.06,2.8.72,2.84-1.51.92.02,2.03-.12,2.07.98.11,3.15,1.4,5.86,2.94,8.45,1.32,2.23,3.13,4.09,5.47,5.27,2.91,1.47,6.01,1.62,9.26,1.34,3.68-.32,7.1-1.07,10.21-3.53m33.88-1.82c1.25,1.56,2.03,3.35,2.52,5.27.24.93.71,1.64,1.74,1.79,1.15.17,2.31.42,3.46.41,3.22-.02,6.45.16,9.67-.29,2.88-.4,5.77-.76,8.1-2.72,1.5-1.26,2.93-2.61,4.35-3.95,1.75-1.65,2.31-3.91,3.01-6.08.15-.47.18-1.11-.16-1.63-2.1-3.11-4.21-6.22-6.79-8.95-2.74-2.91-6.01-5.2-9.25-7.5-2.08-1.47-4.27-3.1-7.16-1.91-1.87.77-3.87,1.45-4.56,3.56-.65,1.99-1.01,4.09-1.08,6.2-.11,3.5-.04,6.99,1.07,10.37.38,1.17-.09,2.07-1.09,2.76-.79.55-1.7.74-2.58,1.04-.65.22-1.69.28-1.24,1.63m30.38-29.61c-.94-.63-1.66-1.66-2.95-1.59-.34.46-.23.95-.29,1.41-.27,2.28-.67,4.53-1.54,6.67-.33.81-.83,1.7-1.83,1.33-.94-.35-.66-1.3-.42-2.08.07-.22.15-.45.24-.66.9-1.97,1.33-4.08,1.79-6.18.45-2.07-.25-2.95-2.43-3.06-.43.43-.17,1.38-1.14,1.48-.49-.6-.34-1.3-.3-1.99.09-1.41-1.14-1.63-2.01-1.91-1.05-.35-1.17.69-1.27,1.4-.35,2.55-.9,5.05-1.69,7.5-.19.57-.1.94.39,1.33,1.71,1.37,3.57,2.53,5.3,3.88,1.85,1.44,3.69,2.95,5.11,4.72,1.96,2.45,4.05,4.89,5.3,7.86.2.46.5,1.03.9,1.22,1.26.61,1.21,1.63,1.11,2.74-.06.65.06,1.31-.05,1.94-.19,1.05.29,1.52,1.2,1.88,2.18.87,3.87,2.36,5.38,4.15.81.96,1.24,2.11,1.9,3.25,1.04-2.24,1.42-6.48.82-8.65-.79-.28-1.74.26-2.55-.42.72-.87,1.72-.43,2.46-.7.63-1.15-.01-2.14-.21-3.17-.31-1.63-.67-1.83-2.29-1.34-1.65.5-3.32.96-4.98,1.45-.5.15-.98.15-1.21-.36-.23-.5.2-.79.57-.97,1.04-.53,2.02-1.15,3.11-1.61,1.27-.54,2.65-.69,4.04-1.17-.81-2.18-.94-4.49-2.97-5.96.6-1.2-.3-2.06-.76-3.04-.28-.59-.49-1.39-1.29-1.24-.69.13-.6.98-.75,1.53-.61,2.23-1.49,4.32-2.9,6.17-.37.48-.78,1.16-1.45.63-.63-.49-1.32-1.15-.74-2.13.24-.4.51-.78.76-1.18,1.05-1.66,2.1-3.29,2.56-5.26.63-2.64-.38-4.66-3.1-5.71-.56.61-.53,1.66-1.41,2.16-.54-.78,0-1.41.1-2.05.13-.78.49-1.57-.52-2.29m-35.81,36.14c1.3,1.98,1.1,4.18.98,6.38-.11,1.91.14,3.84-.62,5.7.31.04.41.07.49.05.09-.02.18-.06.25-.12,3.24-3.07,5.9-6.36,4.97-11.32-.91-4.87-3.53-8.34-8.04-10.36-1.18-.53-2.41-.67-3.61.13-1.54,1.03-2.79.89-4.14-.38q-1.66-1.57-3.31.09c-.7.71-1.63,1.36-2.47.74-1.82-1.33-3.24-.03-4.57.66-1.67.86-3.06,2.24-4.58,3.39-4.35,3.31-5.14,9.63.32,13.29.73.49,1.5.92,2.1,1.61.31.36.76.72,1.58.42-.24-1.26-.5-2.56-.73-3.86-.25-1.38-.53-2.8.07-4.13,1.52-3.4,3.73-6.16,7.13-7.95,2.58-1.36,7.36-1.09,9.74.6,1.84,1.31,2.99,3.16,4.43,5.05m-1.85,12.75c1.1-2.29.19-4.58-.04-6.86-.08-.76-.84-1.15-1.61-1.39-4.37-1.35-8.82-1.08-13.27-.62-2.43.25-2.85,1.19-2.26,3.64.38,1.56,1.03,3,1.53,4.5.18.53.31,1.1-.16,1.58-.5.52-1.06.39-1.69.26-.95-.2-1.65-1.08-2.7-1-.5,2.17-.23,2.65,2.09,3.47,5.17,1.84,10.29,1.66,15.47-.16,1.72-.6,2.61-1.44,2.63-3.43m-56.54-20.99c-2.04,3.41-4.36,6.55-8.19,8.17-.69.29-.74.72-.31,1.33.72,1.03,1.42,2.09,2.08,3.16.49.78.94.86,1.68.26.55-.44.96-1.29,2-1.09-.15.85-.61,1.41-1.18,1.9-.32.28-.8.61-.47,1.02.78.99,1.66,1.91,2.9,2.36.46.16.65-.14.87-.49,1.42-2.25,3.03-4.39,3.94-6.92.99-2.74,1.91-5.46-.52-8.01-.4-.42-.56-1.06-.83-1.61-.96-1.96-1.69-4.02-2.23-6.11-4.15,2.15-6.56-.93-9.28-2.93-.71,1.91-.85,3.76-.99,5.63-.08,1,.31,1.36,1.27,1.34.61-.01,1.28-.27,1.87.25-.36.98-1.2.93-1.89.94-.95.02-1.3.35-1.32,1.34-.04,1.66.32,3.26.6,4.86.2,1.09.86,1.13,1.62.51,1.79-1.47,3.82-2.65,5.13-4.69.7-1.09,1.64-2.03,2.48-3.03.24-.28.48-.67.91-.48.45.2.52.64.38,1.08-.11.35-.28.69-.53,1.21m20.46-32.62c.37.81.8,1.59,1.08,2.43.3.9.87,1.01,1.64.76,4.23-1.37,8.56-2.32,12.94-3.01.78-.12.9-.4.94-1.18.09-1.46-.4-2.87-.27-4.3.36-3.79.24-3.91-3.46-2.88-.09.02-.18.04-.28.06-.49.09-.75.35-.64.88.07.37.17.79-.33.93-.48.14-.66-.24-.82-.59-.91-2.04-2.23-.41-3.32-.29-1.03.12-.85,1.1-.68,1.82.29,1.22.52,2.46,1.03,3.63.32.74.51,1.57-.07,2.54-2.04-2.23-1.72-5.16-2.75-7.56-2.09.17-3.86,1.1-5.75,1.56-.98.24-1.24.88-.79,1.81.51,1.05.97,2.12,1.51,3.39m68.76,58.29c1.96.19,2.25-.06,2.26-1.96,0-.7-.03-1.41.02-2.11.03-.46-.11-1.08.8-1.21.13,1.21.27,2.4.38,3.58.03.38-.02.77.47.89.59.14,2.14-1.03,2.17-1.68.08-2.05.65-4.03.73-6.08.14-3.43-.73-6.54-2.46-9.46-.47-.8-.94-.71-1.55-.14-.85.79-1.76,1.49-2.84,2.01-1.13.53-1.64,1.32-1.42,2.89.48,3.42.35,6.9-.75,10.25-.75,2.29-.5,2.73,1.84,2.93.05,0,.09.02.36.09m-65.88,56.2h1.21c-.09-.1-.18-.2-.27-.3,2.23-2.36,4.79-4.43,6.55-7.33-3.51-.56-5.35-3.15-7.17-5.89-.59.8-.97,1.38-1.41,1.91-1.43,1.72-3.06,3.27-4.33,5.12-1.39,2.03-2.57,5.71-.24,8.12.39.4.67.61,1.29.54,1.68-.18,2.88-1.21,4.36-2.17M116.54,62.62c-.81.69-.36,1.29.1,1.94,2.4,3.38,3.5,7.16,3.41,11.3-.02.96-.13,1.92.29,3.15,1.33-1.47,2.51-2.73,3.53-4.19.79-1.12.76-1.93-.04-2.97-.42-.55-1.14-1.13-.79-2.07,1.32.15,1.47,1.74,2.62,1.99.74-.31.97-1.01,1.34-1.59.65-1,1.06-1.92-.21-2.81-.39-.27-.51-.85-.71-1.33-1.2-2.89-3.22-5.1-5.81-6.82-.63-.42-1.23-.36-1.49.36-.42,1.2-1.47,1.91-2.25,3.06m-30.7,36.62c1.53,1.29,3.08,2.57,4.59,3.87.46.4.87.75,1.41.13.75-.87,1.71-.86,2.71-.58.7.2,1.39.41,2.24.66-.2-1.03-.27-1.91-.63-2.8-.81-2.01-1.97-3.74-3.22-5.5-1.31-1.84-2.8-3.45-4.33-5.07-.76-.8-1.53-.58-1.89.31-.92,2.26-2.05,4.38-3.71,6.34.92.87,1.79,1.69,2.82,2.63m-52.32-32.22c-1.84-.94-3.68-1.89-5.53-2.82-.06-.03-.17.06-.38.14-.85,4.41-2.32,8.65-5.55,12.14.41.25.72.45,1.03.64q2.42,1.43,4.02-.82c.27-.38.5-.83,1.14-.46.16,1.13-1.13,1.8-1.04,2.89.14.07.22.13.31.14.88.11,1.79.4,2.63.26,1.12-.18.74-1.45,1.15-2.18,1.71-3.01,2.26-6.3,2.21-9.93m67.61,12.11c.1-.2.13-.47.52-.43.44,1.09-.23,2.04-.47,3.07.81.6,1.79.57,2.65.87,1.62.56,2.06.12,2.35-1.55.4-2.23,1.31-4.35,1.4-6.64.06-1.39.32-2.76.13-4.19-.18-1.32-.84-1.52-1.93-1.26-1.36.32-2.67.9-4.12.73-1.2-.14-1.65.43-1.65,1.63,0,2.48-.53,4.92-1.17,7.27-.42,1.54.3,1.86,1.29,2.48.34-.66.63-1.24.99-1.99m-14.73,60.05c1.08.63,2.12,1.33,3.29,1.75,5.79-6.79,1.68-11.2-2.66-14.47-.07,1.14-.4,2.17-1.01,3.04-1.38,1.96-2.31,4.66-5.94,3.76,2.05,2.25,3.83,4.31,6.32,5.92m11.66-107.85c.71.22,1.47.64,1.85-.44.85-2.42,1.65-4.85,2.03-7.4.1-.67.16-1.39-.51-1.77-1.23-.7-2.45-1.49-3.86-1.58-.5.43-.04,1.25-.84,1.46-.43-.34-.34-.83-.39-1.28-.03-.33-.04-.74-.43-.79-.88-.13-1.67-.56-2.57-.63-.95-.07-1.2.38-1.06,1.15.47,2.6.23,5.22.19,7.82-.02.91.3,1.27,1.06,1.49,1.53.44,2.99,1.02,4.53,1.96m-60.24,47.46c1.32.42,2.41-.49,3.63-.66.28-.04.45-.31.48-.62.3-2.87,1.43-5.6,1.28-8.55-.07-1.47-.24-1.79-1.71-1.52-1.49.27-2.98.08-4.45.08-1.87,0-1.79-.18-1.72,1.71.07,1.99.01,3.95-.65,5.93-.44,1.31-1.16,2.62-1.21,4.05,3.57,1.37,3.12-2.04,4.19-3.66q.59.97.17,3.25m47.26-60.94c-.49-.15-.97-.34-1.47-.44-1.68-.35-2.13.01-2.07,1.74.07,1.96.21,3.91.31,5.87.03.58.24,1.03.81,1.18,2.06.53,4.13,1.05,6.2,1.53.96.22,1.5-.17,1.55-1.23.06-1.3.24-2.59.3-3.89.19-4.14.18-4.14-3.85-4.77-.08-.01-.17.05-.26.08-.38.33-.08,1.08-.77,1.25-.57-.18-.38-.78-.74-1.3m-5.37,5.5c.06-1.3.01-2.6.21-3.91.28-1.86-.24-2.43-2.12-2.68-.68-.09-1.37-.19-2.08-.04-.89.18-.45,1.31-1.19,1.56-.94-.26-.47-1.55-1.36-1.82-.79-.24-1.57.03-2.36.06-.86.04-1.12.45-1.1,1.25.04,1.83.32,3.62.71,5.41.34,1.61.82,2.02,2.46,1.95,1.58-.06,3.16-.07,4.72.14,1.85.25,2.02.15,2.12-1.93m-39.69,76.59c.54.49,1.02.39,1.61,0,2.53-1.68,4.74-3.78,7.36-5.33.68-.4.77-.97.22-1.64-.74-.9-1.42-1.85-1.76-2.99-.43-1.45-.65-1.52-1.93-.75-4.64,2.78-7.56,6.95-9.63,11.83-.13.32-.23.63-.11,1.02,1.09-1.35,1.92-3.01,4.25-2.13M31.59,25.61c.92,2.22,2.44,4.07,3.72,6.07.38.6.86.85,1.5.33.72-.58,1.48-.66,2.35-.33.49.19,1.3.19,1.35-.32.13-1.43,1.18-1.86,2.25-2.39-1.82-1.31-2.41-3.25-3.09-5.12-.93-2.55-.9-2.56-3.27-1.53-.13.06-.26.11-.39.15-1.03.26-1.14.85-.82,1.8.27.81.93,1.61.46,2.67-1.26-.62-1.36-2.06-2.23-2.84-.84.18-1.61.37-1.82,1.51m28.63-6.38c.2,1.57.38,3.14.6,4.7.11.72.57,1.31,1.32,1.18,1.58-.29,3.16-.1,4.74-.24,1.01-.09,1.48-.61,1.41-1.67-.12-1.81-.23-3.62-.24-5.44,0-1.32-.87-1.58-1.84-1.57-1.1,0-1.56.7-1.37,1.79.1.56.18,1.08-.6,1.55-.21-.71-.41-1.31-.58-1.92-.11-.4-.16-.93-.66-.97-.91-.08-1.93-.48-2.71.17-.7.59-.34,1.46-.06,2.43m-30.27,7.21c-1.56.03-2.16.82-1.88,2.2.16.78.83,1.42.67,2.37-1.39-.33-1.31-1.97-2.36-2.43-.57.35-1.08.67-1.58.99-.54.35-.76.82-.48,1.43,1.18,2.62,3.3,4.54,4.9,6.9,1.77-1.11,3.1-2.5,4.6-3.68.51-.4.72-.9.13-1.4-2-1.65-2.74-4.07-3.99-6.39m-7.66,13.72c.36.49.73.97,1.08,1.47.66.94,1.26,1.02,2.12.13.78-.8,1.34-1.79,2.29-2.45.68-.47.29-1-.25-1.32-1.06-.62-1.73-1.61-2.25-2.64-.69-1.36-1.85-2.35-2.41-3.78-1.31.53-1.32,1.25-.7,2.15.56.81,1.47,1.42,1.6,2.64-1.77-.19-2.14-1.9-3.18-2.71-.58.22-.75.56-.74,1.11.03,2.09,1.14,3.67,2.44,5.39m69.95,31.81c.32.9,1.16.64,1.87.7-.19,1.59,1.14,2.45,1.53,3.71.11.36.32.72.76.71.45-.01.57-.44.73-.76.79-1.51,1.02-3.19,1.34-4.82.19-.96-.25-1.79-1.56-1.8-2.04-.01-4.08-.16-6.12-.24-.31-.01-.67-.06-.99.43.48.93,1.89.89,2.42,2.08m-42.8-2.33c-.02-.19-.06-.37-.06-.56-.06-4.47-.43-3.32-3.77-2.15-.64.23-.91.64-.79,1.4.26,1.76.2,3.52,0,5.3-.08.75-.49,1.64.24,2.44,1.87-1.25,2.47-2.93,1.73-5.06.65.03.85.3,1,.58.3.56.77.69,1.3.47.52-.22.76-.67.64-1.26-.07-.32-.15-.64-.29-1.18Z"/><path d="m74.6,110.55c-1.71,2.12-3.38,4.15-6.11,4.78-1.87.43-3.68.1-5.31-.85-.95-.55-1.68-.71-2.69-.06-1.04.67-2.29,1.01-3.55,1.22-.87.15-1.56-.07-2.13-.74-.62-.72-.25-1.46.07-2.1.48-.96,1.2-1.78,2.03-2.47.73-.6.83-1.18.55-2.17-1.28-4.51-.66-8.66,2.84-12.07,1.09-1.06,2.61-1.2,4-1.51,3.05-.7,5.86-.02,8.33,1.86.8.61,1.41.75,2.21.11.28-.23.69-.29,1.01-.48,1.08-.64,2.15-.82,3.04.23.84.99.18,1.98-.31,2.85-.47.85-.91,1.74-1.68,2.4-.7.6-.83,1.47-.73,2.33.29,2.38-.6,4.48-1.58,6.65m-12.49-11.75c-.35.44-.72.86-1.06,1.31-1.85,2.49-2.37,5.13-.9,8.01,1.17,2.29,2.39,2.55,4.39,1.01,2.6-1.99,5.16-4.01,7.71-6.06,1.68-1.35,1.22-2.11.19-3.27-.19-.21-.42-.38-.59-.6-2.52-3.32-7.37-2.95-9.74-.41m9.58,7.91c-1.62,1.18-3.25,2.35-4.84,3.56-.69.53-.84,1.06-.1,1.84.82.85,1.61.67,2.38.22.92-.54,1.83-1.16,2.56-1.92,1.25-1.3,1.8-2.92,1.8-4.83-.81.13-1.06.82-1.8,1.13m-12.47,5.64c.34-.55,0-1.09-.41-1.07-.97.06-1.23.91-1.5,1.76.74.02,1.25-.29,1.91-.69Z"/><path d="m31.83,58.24c-3.3.4-5.63-2.59-4.52-6.13,1.35-4.33,4.08-7.65,7.95-9.96,2.49-1.49,5.3-1.1,7.13,1.01,1,1.15,1.01,2.77.69,4.23-.72,3.27-2.3,6.05-5.21,7.85-1.88,1.16-3.63,2.65-6.04,3Z"/><path d="m95.78,50.84c-.95-2.48-.86-4.77.62-6.91,1.26-1.83,4.72-2.53,6.52-1.21,2.95,2.16,5.19,4.98,6.7,8.26.81,1.78,1.5,3.68,1.8,5.68.36,2.36-.81,4.14-2.27,5.6-1.09,1.09-2.63.66-4.06,0-2.42-1.11-4.31-2.74-6.18-4.64-1.93-1.97-2.06-4.47-3.13-6.79Z"/></svg>