<?xml version="1.0" encoding="UTF-8"?><svg id="Layer_1" xmlns="http://www.w3.org/2000/svg" viewBox="0 0 200.62 25.87"><path d="m7.2,10.69c.31-1.55.13-3.01.18-4.46.02-.53-.24-.81-.71-1.08-1.09-.62-1.07-1.19.08-1.71,1.25-.57,2.63-.61,3.98-.68,3.15-.16,6.25.22,9.32.89.41.09.83.18,1.21.35,2.55,1.16,2.84,3.19.72,5.01-1.77,1.53-3.95,2.29-6.04,3.24-.33.15-.67.29-1.25.55,2.51.49,4.83.6,7.02,1.36.61.21,1.25.45,1.78.81,1.38.92,1.51,2.53.36,3.73-1.37,1.43-3.15,2.2-4.95,2.85-1.98.72-3.99,1.34-6.02,1.91-1.23.35-2.51.15-3.74-.07-.96-.17-1.06-1.11-1.18-1.89-.22-1.48-.42-2.97-.52-4.46-.06-.83-.37-1.21-1.18-1.2-.14,0-.28-.02-.42-.05-.88-.18-1.69-.51-1.69-1.56,0-.98.8-1.4,1.6-1.49,1.28-.14,1.78-.69,1.43-2.06m13.3-3.77c.4-.61-.07-.78-.49-.83-2.77-.34-5.54-.67-8.35-.62-.45,0-.97.1-.93.62.13,1.65-.47,3.31.06,5.19,3.36-1.19,6.66-2.23,9.7-4.36m-8.52,13.43c3.08-.57,6.1-1.31,8.94-3.2-.49-.24-.72-.42-.98-.47-2.84-.55-5.72-.56-8.59-.61-.89-.02-1.21.61-.95,1.31.38,1.02-.56,2.6,1.24,3.02.04,0,.09-.01.34-.05Z"/><path d="m98.32,6.32c2.24.51,4.44.74,6.34,2.03,1.27.87,1.57,2,1.36,3.41-.29,1.98-1.29,3.64-2.59,5.05-3.04,3.29-6.68,5.81-10.63,7.88-.66.35-1.43.54-2.13.02-.73-.54-.98-1.22-.53-2.09.06-.11.1-.32.04-.4-1.61-2.19-.67-4.81-1.13-7.2-.38-1.99-.3-4.09-.56-6.13-.25-1.96.7-2.92,2.6-2.82,2.38.13,4.76.16,7.26.23m-6.65,1.54c-.71-.16-.99.11-.79.82.99,3.42,1.44,6.92,1.61,10.46.03.53.04,1.12.58,1.6,2.55-1.27,4.7-3.11,6.85-4.93,1.09-.93,2.2-1.86,2.85-3.22.81-1.7.56-2.28-1.29-2.91-3.12-1.06-6.36-1.39-9.81-1.81h0Z"/><path d="m178.52,19.22c.81-.12,1.51-.24,2.21-.29.42-.03.89.03,1.07.5.16.42-.15.71-.41.97-1.78,1.76-4.02,2.6-6.44,2.69-1.73.07-3.49-.03-5.21-.63-4.65-1.62-6.96-6.18-3.36-10.59,2.2-2.69,7.5-4.42,10.81-2.94,1.45.65,2.43,1.73,2.38,3.15-.06,1.44-1.13,2.33-2.26,2.8-2.21.92-4.56,1.02-6.87.2-.57-.2-1.32-.34-1.07-1.17.2-.68.85-.49,1.43-.46,1.59.06,3.15-.22,4.66-.69.34-.1.69-.31.74-.76-3.14-1.62-7.82.69-8.3,4.13-.21,1.47.96,2.14,1.99,2.76,1.98,1.19,4.17.84,6.31.73.74-.04,1.47-.25,2.33-.41h-.01Z"/><path d="m144.52,19.66c1.82,1.51,3.83,1.26,5.83.96.4-.06.66-.28.67-.75.14-5.05.08-10.09-.39-15.12-.09-.98-.19-1.95-.29-2.93-.06-.59-.04-1.2.62-1.41.8-.26,1.11.39,1.29.96.9,2.82,1.29,5.74,1.47,8.68.26,4.05.4,8.11.58,12.17.02.46,0,.95-.15,1.39-.22.72-.21,1.81-1.22,1.82-1,0-1.42-.92-1.73-1.79-.08-.21-.12-.44-.17-.65-.6-.21-1.07.12-1.53.27-2.82.91-5.24.09-7.17-1.92-2.26-2.34-2.1-5.23-1.01-8.02.94-2.4,2.58-4.24,5.3-4.75,1.63-.31,3.21.39,3.92,1.7-.26.53-.7.33-1.1.26-3.27-.63-5.74,1.15-6.03,4.5-.14,1.59-.5,3.33,1.12,4.64h-.01Z"/><path d="m137.08,15.21c-.3,2.27-.79,4.29-2.41,5.95-3.97,4.06-9.59,2.68-11.9-2.07-1.14-2.36-1.22-4.85-.55-7.24.69-2.44,2.94-4.76,6.39-4.78,2.24-.01,7.09,1.96,7.96,5,.28,1,.37,2.01.51,3.14m-3.13-2.51c.09-2.93-4.22-4.42-6.27-3.61-2.38.93-3.26,2.84-3.35,5.05-.09,2.35.62,4.58,2.87,5.87,1.84,1.05,4.04.5,5.42-1.14,1.48-1.76,1.55-3.8,1.33-6.17h0Z"/><path d="m66.57,17.73c.25-1.9.13-3.67-.17-5.43-.23-1.31-.8-2.43-2.14-2.9-1.32-.47-2.55-.13-3.47.86-2.24,2.39-3.89,5.02-3.07,8.55.28,1.18.32,2.41.52,3.6.11.63.05,1.19-.56,1.42-.68.25-1.3-.02-1.67-.67-.18-.32-.31-.68-.4-1.04-.77-3-.9-6.06-.8-9.15.04-1.16-.06-2.33-.03-3.5,0-.49.06-1.14.74-1.18.66-.03.76.58.89,1.08.14.54.28,1.07.51,1.91.74-.78,1.28-1.46,1.93-2.02,2.58-2.22,5.1-2.98,7.62-1.22,1.69,1.18,2.47,2.94,2.77,4.87.44,2.78.37,5.58-.2,8.35-.08.37-.17.73-.31,1.08-.29.75-.64,1.67-1.58,1.51-1.08-.19-1.24-1.26-1.11-2.15.18-1.29.51-2.57.52-4v.03Z"/><path d="m118.07,19.83c-1.75,3.47-7.48,4.76-10.04,1.5-.93-1.19-1.68-2.48-1.65-4.06.06-2.97,1.14-5.51,3.24-7.64,2.81-2.84,8.82-2.34,9.67,2.77.42,2.53.68,5.13-1.23,7.43m-2.92-1.37c1.96-2.45,1.62-5.01.31-7.59-.81-1.59-1.24-1.67-2.78-.84-2.91,1.57-3.56,4.28-3.58,7.22,0,1.18.69,2.24,1.85,2.77,1.16.53,2.18.17,3.1-.61.32-.27.64-.54,1.1-.96h0Z"/><path d="m50.84,14.54c-1.49.92-3.07,1.08-4.66,1.23-.72.07-1.92-.37-1.97.66-.05,1.02,1.07,1.55,2.03,1.82.73.2,1.48-.04,2.21-.27,1.03-.32,2.06-.63,3.09-.94.31-.09.66-.19.91.12.25.3.13.62-.06.9-1.77,2.65-4.97,4.65-8.43,2.7-2.17-1.22-3.25-3.49-2.76-6.53.46-2.83,1.49-5.35,4.6-6.31,2.65-.82,6.13,1.52,6.32,4.28.07,1-.51,1.66-1.28,2.34m-3.69-1.35c.23-.05.46-.1.68-.17.54-.17,1.4-.02,1.33-.9-.06-.79-.72-1.16-1.47-1.29-1.66-.29-2.91.8-3.1,2.82.8-.14,1.57-.28,2.57-.46h-.01Z"/><path d="m188.16,12.59c1.74,1.5,3.86,2.25,5.42,3.87,1.09,1.13,2.09,2.17,1.58,3.88-.61,2.03-2.25,2.79-4.13,3.07-1.1.16-2.25.05-3.24-.62-.53-.36-1.29-.66-1.12-1.44.15-.7.93-.67,1.52-.77.78-.14,1.57-.22,2.35-.38.49-.1.99-.28,1.32-.83-.79-.81-1.45-1.72-2.51-2.16-1.73-.71-3.1-1.92-4.39-3.2-2.03-2.02-1.49-4.43,1.21-5.37,2.76-.96,5.6-1,8.41-.15.58.18,1.3.41,1.13,1.18-.19.85-.91.5-1.51.46-2.47-.17-4.89-.06-7.09,1.1,0,.86.6.98,1.05,1.35h0Z"/><path d="m160.26,3.32c.64,1.61.45,3.23.74,4.79.77,4.16,1.37,8.36,2.1,12.53.2,1.13.23,2.11-1.08,2.48-.94.26-1.78-.7-2.02-2.04-.71-4.04-.88-8.15-1.68-12.18-.36-1.81-.35-3.71-.36-5.58,0-.76-.15-1.93,1.05-1.97,1.14-.03,1.11,1.04,1.26,1.97h-.01Z"/><path d="m28.85,22.25c-1.13-1.44-1.18-3.15-1.55-4.72-.5-2.12-.94-4.3-.81-6.52.04-.65-.1-1.41.6-1.75.83-.4,1.03.57,1.55.91.85-.61,1.62-1.28,2.53-1.76,2.38-1.26,5.42-.76,7.19,1.24.27.31.69.62.48,1.08-.25.55-.8.39-1.24.28-1.69-.41-3.35-.8-5.1-.24-1.02.32-1.87.84-2.57,1.62-.57.63-.75,1.3-.53,2.19.52,2.13.93,4.29,1.37,6.44.13.63.06,1.24-.5,1.65-.55.4-.96,0-1.42-.42Z"/><path d="m82.59,14.3c1.26.69.88,1.39-.03,1.73-2.39.91-4.84.9-7.28.14-.39-.12-.86-.35-.83-.84.03-.52.47-.84.94-.91,2.35-.33,4.71-.82,7.19-.12h0Z"/></svg>