<?xml version="1.0" encoding="UTF-8"?><svg id="Layer_1" xmlns="http://www.w3.org/2000/svg" viewBox="0 0 67.97 174.35"><path d="m42.74,117.83c.96,2.08.98,4.29,1.51,6.36.43,1.67.97,3.32,1.58,4.89,1.7,4.45,2.86,9.03,3.97,13.65.39,1.6.34,3.34,1.19,4.93,1.14-.47,1.89-1.39,3.07-1.71,2.33-.63,5.38.16,6.9,2.08,2.84,3.58,2.72,9.2-.68,12.25-2.94,2.63-7.13,4.32-11.1,1.38-.58-.43-1.15-.44-1.92-.07-1.99.94-3.9,2.1-6.16,2.39-.82.1-1.61-.07-2.31-.22-1.26-.27-1.95.12-2.54,1.11-1.63,2.72-3.97,3.97-7.17,3.43-.13-.02-.27.01-.41.04-2.37.52-3.28-.41-2.74-2.85-.63.21-.85.88-1.37,1.17-.6.32-1.27.58-1.84.1-.61-.51-.37-1.19-.05-1.8.38-.72,1.04-1.2,1.6-1.76.53-.55.7-1.03.14-1.69-3.08-3.6-3.96-7.99-4.22-12.51-.12-2.12.31-4.28.53-6.41.05-.44,0-.79-.18-1.2-.68-1.47-.63-2.95-.07-4.49.36-.98.44-2.06,1.03-2.98.98-1.51,1.8-3.19,3.81-3.6.37-.08.52-.33.68-.63,3.67-6.95,6.48-14.19,7.54-22.03.14-1.02.13-2.05.19-3.08.02-.3-.06-.58-.29-.76-.79-.63-1.4-1.33-1.36-2.44.01-.33-.4-.52-.7-.62-1.35-.46-2.46-1.35-3.72-1.96-.87-.41-1.65-.94-1.43-1.98.2-.95,1.09-1.41,1.97-1.59.81-.17,1.67-.12,2.55-.18.19-1.34-.37-2.53-.73-3.96-1.45,1.64-3.12,2.62-5.12,2.97-.55.1-1.1.14-1.66-.07-1.79-.66-2.15-1.97-.84-3.35.67-.7,1.53-1.23,2.22-1.93,1.14-1.14,1.87-2.46,1.31-4.2-.88,1.09-2.04,1.73-3.33,2.08-1.05.28-1.95-.05-2.31-1.2-.22-.72-.58-1.11-1.37-1.37-1.39-.46-1.12-1.78-1.02-2.88.05-.5.34-.97.45-1.47.22-1.05.38-1.99-.83-2.75-1.11-.69-1.75-1.94-2.15-3.19-.64-1.98-2.11-3.09-3.86-4.06-1.51,1.25-2.42,3.06-3.93,4.32-.57.48-1.13,1.07-1.79.38-.68-.71,0-1.27.51-1.75,1.06-.99,2.06-2.06,3.22-2.92,1.38-1.02,1.49-2.5,1.78-3.95.06-.31-.06-.59-.33-.71-1.1-.47-2.15-1.17-3.22-1.55-1.49-.52-3-.88-4.29-1.85-.4-.3-1.06-.43-.71-1.11.31-.6.84-.87,1.54-.53,1.69.81,3.43,1.52,5.05,2.44,2.74,1.56,3.58,1.46,5.95-.7,2.87-2.61,5.68-5.27,8.32-8.11,1.59-1.7,3.01-3.56,4.51-5.35.3-.36.42-.72.08-1.13-.66-.78-.34-1.47.2-2.14,1.12-1.41,2.41-2.65,4.08-3.36.94-.4,1.42-1,1.61-1.94,1-5.16,2.31-10.28,2.8-15.53.26-2.74-.1-5.5-.33-8.25-.32-3.91-1.02-7.76-2.06-11.54-.12-.42-.05-.83.11-1.24.14-.35.18-.76.62-.86.49-.1.78.21,1.02.58.99,1.52,2.03,3.01,2.94,4.57,1.8,3.1,3.54,6.24,4.68,9.64.54,1.61,1,3.25,1.85,5.14,1.56-3.16,3.07-6.09,4.47-9.07,1.39-2.97,2.68-5.99,4.08-9.14.78.73.67,1.41.7,2.02.22,3.46.19,6.91-.05,10.38-.15,2.18.04,4.39-.26,6.56-.68,5.01-.99,10.06-1.62,15.08-.33,2.67-.04,5.44-.24,8.16-.17,2.24-.58,4.47-.57,6.7.02,2.78-.88,5.38-1.21,8.09-.36,2.89-1.04,5.77-1.62,8.65-1.1,5.48-2.26,10.95-3.68,16.36-.9,3.43-1.95,6.82-2.86,10.24-.33,1.25-.46,2.56-.7,3.84-.15.78-.16,1.64-.52,2.31-1.04,1.94-.65,3.91-.36,5.89.47,3.14,1.47,6.19,1.5,9.52m-20.54-54.41c-.53.39-1.03.83-1.59,1.15-.94.54-1.09,1.21-.48,2.07.41.57.35,1.15.08,1.73-.33.71-.25,1.16.53,1.58,1.63.88,3.21,1.88,4.79,2.86.52.32,1.04.72.7,1.48-.31.68-.79.81-1.5.58-.52-.17-.87-.49-1.28-.82-1.2-.96-2.21-2.11-3.51-2.98-1.05-.7-1.65-.12-2.37.35-.86.55-.17,1.16,0,1.72.25.84.89,1.43,1.45,2.05,1.28,1.41,3.91,1.86,5.22.82,1.04-.82,1.87-.65,2.75.11,1.45,1.27,2.66,2.74,3.63,4.43,1.33,2.3,2.64,4.61,3.7,7.06,1.22,2.82,2.86,5.52,3.17,8.63.34,3.39-.15,5.45-3.12,5.84-.17.02-.38.02-.34.3,1.23.7,2.1.33,2.76-.87.34-.61.77-1.17,1.18-1.74.2-.27.48-.5.84-.4.46.12.44.56.46.92.03.52.01,1.09-.36,1.47-.79.78-1.29,1.86-2.35,2.35-.69.32-.87.77-.9,1.52-.15,4.54-.81,9.02-2.22,13.35-1.45,4.44-3.46,8.65-5.66,12.75-2.17,4.06-4.14,8.13-4.43,12.82-.21,3.34-.5,6.66.19,9.98.47,2.23,1.57,4.19,2.51,6.22,1.1,2.37,2.14,2.95,4.67,2.54.39-.06.85-.18,1.12.33-.43,1.59-2.2,1.6-3.27,2.65,3.24.07,5.55-1.32,7.31-3.73.61-.84,1.32-1.2,2.4-1.02,2.23.37,4.27-.11,6.03-1.6.35-.3.58-.77,1.11-.79.76-.03,1.01-.54,1.21-1.16,1.2-3.73,1.67-7.52,1.12-11.42-.28-2.04-.79-4.01-1.32-6-.76-2.83-1.37-5.69-2.45-8.43-1.34-3.41-2.4-6.93-3.08-10.53-.61-3.25-.97-6.55-1.56-9.81-.36-1.99-.56-4.09-.35-6.09.33-3.04,1.19-6.02,1.66-9.05.87-5.67,2.8-11.08,4.09-16.65,1.25-5.39,2.3-10.82,3.43-16.23.64-3.06.84-6.18,1.28-9.26.07-.51-.02-.93-.22-1.35-.79-1.64-.42-3.61-1.53-5.17-.2-.28-.04-.82-.02-1.24.02-.32.16-.65-.06-.95-.85-1.17-.53-2.4-.23-3.64.43-1.76,1.03-3.51,1.24-5.29.42-3.65,1.16-7.24,1.68-11.11-.32.7-.51,1.23-.78,1.7-2.74,4.74-5.57,9.41-9.03,13.68-.43.53-.8,1.13-1.69,1.07-.12-.83.26-1.42.62-2.01,1.38-2.27,2.73-4.54,4.16-6.78,2.39-3.73,4.57-7.56,5.98-11.78.35-1.05.69-2.13.62-3.61-.91,1.89-1.36,3.62-2.35,5.1-1.47,2.21-2.74,4.55-4.19,6.78-2.3,3.54-4.81,6.95-6.97,10.58-.59.99-1.81,1.74-1.24,3.28.16.44-.31,1.16-1.05,1.29-1.14.21-1.88.96-2.57,1.83-3.82,4.82-7.65,9.62-12.3,13.71-.93.82-2.17,1.43-2.76,2.8.82.14,1.4,1,2.27.23,1.05-.93,2.13-1.82,3.21-2.72,1.64-1.37,3.27-2.76,4.96-4.07.39-.3,1.04-.69,1.51-.09.45.58.13,1.16-.28,1.65-.18.21-.41.39-.62.57-1.76,1.54-3.5,3.1-5.63,4.49m31.18,94.23c2.43.3,3.12-.06,4.2-2.24.52-1.04,1.3-2.13.56-3.29-1.24-1.93-2.66-3.43-5.39-2.85-1.26.27-2.14,1.26-2.12,2.55.03,1.64-.09,3.28-.65,4.82-.27.75.02.95.6,1.26.95.52,1.71-.27,2.8-.26M39.28,22.67c.02,3.79-.99,7.46-1.55,11.23.56.02.83-.22.99-.47,1.08-1.71,2.15-3.44,3.19-5.18.2-.33.1-.72-.02-1.09-.94-2.88-1.87-5.75-2.8-8.63.13,1.32.16,2.61.2,4.14m-6.39,75.97c-.69-.75-1.35-1.57-2.47-1.69-.32-.04-.67-.02-.84.34-.14.29-.04.59.19.75,1.05.7,2.02,1.58,3.32,1.77.26-.44.04-.71-.21-1.16m-5.12-11c-.37,1.43-1.26,2.53-2.24,3.62.88-.4,1.71-.89,2.54-1.36.42-.24,1.14-.23,1.03-.92-.12-.71-.4-1.41-1.08-1.83,0,0-.13.21-.25.49m-5.66-4.93c.14.41-.14.94.44,1.35,1.1-.82.52-1.94.49-2.9-.03-.77-.21-1.56-1.4-1.79.15,1.13.28,2.12.47,3.34Z"/><path d="m39.64,63.28c-2.06,1.34-4.78.69-6.21-.55-.65-.57-.74-1.24-.48-2.03,1.11-3.32,1.59-6.81,2.77-10.1.29-.8,2.75-1.38,3.73-.86,2.63,1.38,4.4,5.02,3.78,7.92-.3,1.43-.1,3.09-1.49,4.09-.68.49-1.45.84-2.11,1.53m-3.92-2.25c1.15.76,1.98.17,2.86-.59.94-.81,1.08-1.7.7-3.04-.78,1.46-1.61,2.47-3.18,2.54-.47.02-.69.44-.37,1.09Z"/><path d="m44.58,44.9c1.57,1.03,2.32,2.38,2.67,4.15.25,1.26.25,2.59.73,3.8.5,1.27.16,2.63.69,3.94.44,1.08-1.53,3.59-2.73,3.88-.94.22-1.94-.65-1.59-1.72.88-2.62-.82-4.97-.57-7.51.12-1.16-.69-1.94-1.81-2.41-.81-.34-1.57-.83-2.32-1.31-1.02-.64-1.24-1.55-.89-2.68.37-1.16,1.2-1.65,2.33-1.65,1.32,0,2.46.5,3.48,1.51Z"/><path d="m34.81,144.49c-.73,1.06-1.81,1.58-2.63,2.42-1.01,1.04-3.42-.01-3.84-1.64-.83-3.2.81-11.08,4.91-13.18.45-.23.8-.63,1.24-.89.52-.3,1.12-.38,1.5.2.45.69-.28.86-.64,1.15-3.47,2.84-4.86,6.58-4.76,10.96,0,.23-.01.48.39.7,1.66-.9,2.67-2.56,3.84-4,1.16-1.42,2.14-2.98,3.84-3.95.09,3.35-1.64,5.84-3.85,8.23Z"/><path d="m37.2,84.89c-1.7-4.8-4.88-8.25-9.37-10.82,1.02-.4,1.62-.4,2.25-.09,3.96,1.94,6.59,5.11,8.37,9.05,1.19,2.65,2.25,5.36,1.97,8.37-.02.19.02.38-.03.56-.22.77-.2,1.99-1.21,1.9-.95-.08-.54-1.23-.55-1.92-.06-2.41-.49-4.72-1.43-7.06Z"/></svg>