<?xml version="1.0" encoding="UTF-8"?><svg id="Layer_1" xmlns="http://www.w3.org/2000/svg" viewBox="0 0 124 167"><path d="m41.64,138.6c1.65-3.31,3.17-6.56,4.59-9.95-1.31-.55-2.58-1.02-3.8-1.6-1.99-.94-2.16-1.48-1.44-3.51.58-1.64,1.57-3.06,2.24-4.67,2.49-5.92,2.91-12.04,2.07-18.31-.1-.78-.44-1.31-1.44-2.51-1.13,1.86-1.39,4.19-2.98,5.78-2.73,2.73-5.75,4.95-9.82,5.15-.23.01-.46.05-.68.12-3.52,1.19-7.09.69-10.68.4-3.08-.24-4.91-3.67-4.01-6.59.8-2.62,2.6-4.39,4.82-5.79,2.78-1.75,5.95-2.32,9.09-3.04,2.88-.66,5.71-.77,8.6-.22.66.12,1.24.33,1.67.86-.21.61-.7.49-1.08.47-5.43-.22-10.61.9-15.57,2.98-2.22.93-4.24,2.28-5.24,4.63-1.06,2.48.01,4.2,2.68,4.57,4.43.61,8.81.21,12.99-1.23,4.04-1.39,6.55-4.36,7.75-8.55.52-1.82.2-2.96-1.27-4.05-1.04-.77-1.93-1.77-2.84-2.72-.59-.61-1.12-.74-1.98-.46-2.64.85-5.25.92-7.94-.12-3.31-1.28-4.54-3.7-4.8-7-.55-6.78,3.58-9.83,8.82-10.73,1.98-.34,3.99.23,5.88,1.01.3.12.58.31.88.43,1.81.71,1.87.65,2.12-1.31.3-2.36,1.46-4.32,2.93-6.12.47-.58,1-1.12,1.42-1.73,1.54-2.31,3.58-3.9,6.29-4.62.94-.25,1.88-.53,2.71-1.12.55-.39,1.27-.39,1.91-.23,2.67.65,5.36,1.27,7.34,3.43.49.53.79,1.14,1.16,1.73.85,1.37,1.77,1.66,3.33,1.29,2.67-.65,4.34-2.55,6.05-4.5,3.86-4.38,2.35-13.94-2.51-17.41-2.13-1.52-3.95-3.57-5.63-5.61-1.4-1.7-1.54-3.82-.67-5.94.91-2.24,2.57-3.91,4.19-5.58,2.48-2.54,5.16-4.88,7.62-7.43,1.58-1.64,3.22-3.25,4.49-5.16.46-.7.91-1.43,1.88-.77,1.03.7.52,1.51-.01,2.17-1.95,2.39-3.95,4.75-6.21,6.86-3.07,2.86-6.34,5.53-8.82,8.94-1.64,2.26-2.39,4.39.08,6.58,1.96,1.74,3.79,3.61,5.65,5.45,3.47,3.43,4.63,7.59,4.24,12.4-.45,5.65-3.97,8.81-8.68,11.35,1.6,1.11,3.46,1.52,5.02,2.53,3.54,2.28,6.45,4.93,6.96,9.45.2,1.82-.18,3.54-.68,5.24-.74,2.5-1.58,4.97-2.42,7.57,3.18-2.72,6.13-5.5,10.06-6.92,1.98-.71,3.93-.78,5.94-.59,2.05.2,4.34,3.58,3.67,5.78-1.66,5.42-5.07,8.94-10.46,10.58-2.19.67-4.39,1.4-6.68,1.5-2.32.11-4.7.13-6.62-1.6-.39-.35-.73-.73-.93-1.22-.24-.6-.1-1.15.44-1.48.56-.35,1.06-.22,1.41.39.63,1.08,1.73,1.55,2.83,1.6,5.83.29,11.13-1.03,15.34-5.39,1.31-1.36,1.87-3.14,2.34-4.88.45-1.66-.64-2.8-2.34-3.11-2.72-.48-4.94.79-7.14,1.94-3.28,1.72-6.26,3.9-8.67,6.77-.27.32-.6.59-.89.9-.48.5-1.01.92-1.71.45-.64-.44-.45-1.07-.21-1.65,1.26-3.08,2.36-6.21,3.36-9.38.99-3.15,1.86-6.33.15-9.54-.31-.59-.63-1.15-1.11-1.6-2.31-2.13-4.9-3.86-7.71-5.24-1.25-.61-2.34-1.54-3.93-1.96.71,4.05-.6,7.43-3.42,10.06-2.31,2.16-5.37,2.51-8.43,2.43-5.87-.17-9.8-4.81-9.84-9.37-1.17,1.07-2.1,3.67-1.88,5.14.07.47.32.71.68.98,4.51,3.37,7.46,7.72,8.74,13.28.45,1.97.54,4.07,1.58,6.05,2.32-1,4.73-1.48,7.14-2,4.35-.94,9.62,1.51,11.99,5.27,2.17,3.44,3.28,7.16,3.43,11.11.13,3.43.19,6.99-1.46,10.17-.66,1.28-1.32,2.69-2.66,3.52-.38.23-.47.52-.28.95,2.04,4.68,3.36,9.63,5.28,14.35,1.64,4.05,4.08,7.67,6.18,11.48.16.28.35.55.48.85.29.7.18,1.34-.53,1.68-.69.33-1.01-.26-1.32-.72-1.98-3.06-3.79-6.21-5.37-9.5-2.4-5-3.86-10.33-5.34-15.64-.18-.67-.45-1.31-.73-2.11-1.76,1.42-3.51,2.61-5.46,3.51-.66.3-1.34.39-2,.58-1.01.29-1.26.83-1.21,1.84.19,3.92.74,7.81.97,11.72.15,2.55.28,5.11.46,7.67.13,1.87.33,3.73.46,5.59.06.8.07,1.8-.99,1.85-1.11.05-1.24-.99-1.3-1.83-.25-3.25-.47-6.51-.68-9.77-.25-3.82-.45-7.64-.74-11.46-.08-1.1.22-2.14.27-3.21.05-1.01-.19-1.47-1.38-1.53-3.21-.15-6.45.07-9.61-.68-.5-.12-.8.09-.91.61-1.78,7.83-5.91,14.58-9.9,21.39-.4.68-.93,1.28-1.45,1.88-.32.37-.74.6-1.25.32-.49-.26-.55-.69-.49-1.2.09-.8.62-1.36,1.04-1.96,2.52-3.57,4.41-7.49,6.51-11.42m1.74-45.06c1.16,1.66,2.32,3.33,3.52,5.04.69-.45,1.24-.89,1.85-1.21,1.16-.6,1.4-1.47,1.03-2.67-.53-1.73-.9-3.52-1.3-5.27-.84-3.67-2.49-6.79-5.08-9.45-.46-.47-.91-1.01-1.7-1.04.34,4.19.69,5.63-3.62,10.24,1.72,1.41,3.43,2.82,5.3,4.36m8.38-20.48c-2.2-2.67-3.27-5.76-3.14-9.37-3.92,2.6-4.08,9.25.54,12.07,1.89,1.15,3.98,1.24,6.09,1.22,3.41-.03,6.41-2.52,7.59-6.27.89-2.8-.46-6.5-3.16-8.2-1.78-1.12-3.76-1.68-6.02-1.36.41,1.56-.12,3.02.43,4.5.4-.26.67-.43.95-.6,2.06-1.31,3.79-.93,4.89,1.25.84,1.65,1.14,3.51.84,5.31-.51,3.12-3.96,5.44-6.8,3.23-.7-.54-1.4-1.09-2.23-1.78m-21.52,15.55c1.34.37,2.56-.37,3.98-.48-3.75.13-4.86-2.63-5.69-5.3-.86-2.75-.62-5.55,1.7-7.81-.82-.3-1.31,0-1.76.32-2.85,1.99-4.19,4.57-3.57,8.16.57,3.3,1.78,4.68,5.34,5.1m7.03-3.43c-.04.35-.41.66-.15,1.05,1.91-.75,2.76-2.77,2.5-5.91-.13-1.5-1.69-3.48-3.12-3.79.74,2.8,1.39,5.57.77,8.65Z"/><path d="m88.3,24.9c-.27.13-.42.26-.6.3-2.16.59-2.88,2.07-1.61,4.67,1.42,2.88,3.63,5.19,5.92,7.41,1.07,1.03,2.27,1.98,3.17,3.14,1.98,2.56,1.92,5.67,2.04,8.7.11,2.89-.03,5.78-.86,8.57-1.14,3.83-2.7,7.54-5.56,10.36-1.92,1.9-4.33,3.34-6.97,4.22-.44.14-.95.49-1.45.01.03-.61.56-.71.95-.89,5.21-2.42,8.24-6.62,10.17-11.89,2.02-5.5,1.92-11.01.7-16.61-.29-1.3-1.31-2.11-2.2-2.83-2.47-1.99-4.36-4.49-6.42-6.84-1.04-1.19-1.64-2.61-2.14-4.08-.72-2.12.41-4.62,2.44-5.53,4.53-2.05,9.35-2.76,14.26-3.11,2.98-.21,5.91-.85,8.85-1.36,3.21-.55,4.04-2.65,4.57-5.59.34-1.86.83-3.74.43-5.68-.08-.38.11-.78.53-.89.52-.14,1.04-.1,1.4.38.38.51.54,1.12.46,1.73-.35,2.78-.53,5.6-1.6,8.23-.81,1.99-2.3,3.27-4.39,3.81-3.53.9-7.13,1.28-10.75,1.64-3.79.38-7.61.82-11.36,2.14Z"/><path d="m38.05,43.83c-2.93-.75-5.86-1.2-8.45-2.7-2.96-1.71-3.98-4.55-3.75-7.63.3-4.02,1.23-7.98,2.1-11.94.77-3.53,1.81-7.04,2.13-10.67.08-.94.39-1.86.61-2.85,1.08.86,1.25,1.91.48,2.95-.43.58-.66,1.08-.26,1.77.35.6.23,1.28.11,1.92-.97,5.26-1.98,10.51-2.9,15.78-.37,2.11-.58,4.26.2,6.36.51,1.35,1.46,2.24,2.74,2.85,1.83.87,3.76,1.37,5.72,1.84,2.67.63,5.38,1.11,7.94,2.15,1.81.73,3.12,1.99,4.05,3.7,1.63,2.99,2.76,6.23,4.61,9.11.33.51.56,1.2-.08,1.64-.59.41-1.1-.09-1.47-.46-1.03-1.04-1.76-2.34-2.3-3.65-.7-1.69-1.57-3.29-2.3-4.96-1.22-2.78-3.63-3.91-6.38-4.47-.92-.18-1.84-.32-2.8-.74Z"/></svg>