<?xml version="1.0" encoding="UTF-8"?><svg id="Layer_1" xmlns="http://www.w3.org/2000/svg" viewBox="0 0 413.28 450.35"><defs><style>.cls-1{fill:#6a5855;}.cls-2{fill:#fff;}.cls-3{fill:#241f1e;}.cls-4{fill:#070505;}.cls-5{fill:#0f0d0d;}.cls-6{fill:#947570;}.cls-7{fill:#64534f;}.cls-8{fill:#302c2c;}.cls-9{fill:#282424;}</style></defs><path class="cls-6" d="m97.06,408.25c-1,.8-2,.16-3.14.44-.77.02-1.31.1-2.13.13-3.05.03-5.82-.02-8.87.07-1.06-.04-1.66.4-2.56.86-7.15,1.56-14.26,1.04-21.44,2.45-1.04.02-1.78.14-2.78.37-2.44.31-4.6.65-7.03.95-.95,0-1.61-.14-2.44-.54-.63-.46-.93-.98-1.74-1.02-1.36.37-2.18,1.04-2.41,2.53-.61,3.91-.62,7.48,2.04,10.51,1.33,1.53.96,2.89-.64,4.31-6.09,2.73-12.39,2.56-18.59,3.01-.58.04-1.14-.14-1.59-.51-3.65-3.03-7.76-5.53-11.13-9.29-.43-.86-.71-1.5-1.29-2.28-.33-.73-.44-1.25-.53-2.04-.25-4.68.69-8.76,3.57-12.55.44-.87.96-1.3,1.81-1.72.8-.31,1.4-.48,2.07-1.03.46-.26.74-.37,1.24-.5.94-.16,1.62-.39,2.38-.99,1.18-.54,2.25-.68,3.48-1.09.85-.2,1.35-.56,2.09-1.02,2.76-.81,5.39-1.16,8.11-2.12,1.45.08,2.71.58,4.01-.54.67-.31,1.16-.41,1.9-.51,1.26-.09,2.28.02,3.5-.4,1.25-.3,2.27-.3,3.54-.37,1.42-.01,2.48-.45,3.81-.84.55-.13.87-.16,1.44-.15,2.73.13,4.96-.94,7.47-1.73.76-.39,1.35-.46,2.18-.43.91.16,1.57.11,2.3-.52,1.26-.77,2.43-1,3.9-.87.79.1,1.35.1,2.07-.3.62-.26,1.06-.31,1.73-.3,1.96.09,3.34-.84,4.99-1.73.36-.19.51-.25.9-.38.74-.16,1.25-.2,2.03-.25,7.13-.38,13.85-2.25,20.07-4.59,5.2-1.96,10.84-2.32,15.98-5.1.41-.14.57-.19.98-.29,6.29-1.35,11.67-4.19,16.94-7.28.71-.41,1.43-1.13.71-1.91-2.03-2.18-2.69-5.13-4.47-7.49-.18,1.55,1.35,2.71.81,4.51-.16.37-.26.51-.56.78-.54.23-.87.26-1.62-.03.02-.96.05-1.56-.23-2.45-1.41-4.46-2.89-8.89-4.08-13.43-.62-2.38-.35-4.71-.28-7.3,1.97.08,1.33,1.66,1.52,2.72.63,3.42.74,6.98,3.08,10.24.98-1.37.47-2.58.23-3.69-2.36-10.95-2.12-21.87.17-32.8.75-3.55,1.09-7.18,1.63-10.77,2.35-15.69,8.3-30.18,14.79-44.46,2.73-6.01,7.3-10.95,11.25-16.21,1.91-2.55,3.53-5.27,5.45-7.82,3.88-5.16,9.37-8.62,13.52-13.43,8.27-9.57,18.27-17.36,27.11-26.33,1.75-1.78,4.04-2.97,5.68-5.23.25-.34.35-.47.63-.77,3.98-3.27,7.4-6.76,10.7-10.69.57-.85,1.05-1.48,1.68-2.28,3.9-2.74,6.05-6.68,8.71-10.17,2.25-2.97,4.45-5.98,6.59-9.32.74-1.3,1.48-2.32,2.18-3.66.35-.67.61-1.09,1.06-1.71.73-.91,1.61-1.29,2.05-2.13,5.72-10.81,11.3-21.67,15.1-33.38,2.52-7.77,4.28-15.78,5.91-23.7,1.85-8.98,3.85-18.21,2.38-27.6-.19-1.23-.32-2.64,1.22-3.16,1.37-.45,1.99.65,2.64,1.61.84,1.24,2.11,2.04,3.5,3.07.36.24.5.34.83.6,3.46,4.25,7.66,7.07,12.41,9.12,1.15.5,2.24,1.08,3.28,1.78,4.57,3.08,4.82,3.9,2.71,9.19-.33.84-.79,1.64-.93,2.55-.05.34-.06.68.17.97,1.44-1.6,4.35-9.41,5.59-15.28-1.34,1.25-1.99,2.87-3.69,2.82-1.53-.05-2.84-.77-4.12-1.49-4.26-2.38-8.19-5.28-12.23-8-1.41-.95-1.73-2.61-2.72-4.13-.57-.86-.88-1.58-1.15-2.57-.17-1.23-.35-2.22-1.45-2.99-.31-.4-.44-.65-.62-1.12-.24-.75-.51-1.23-1.09-1.77-1.05-1.4-1.66-2.78-2.29-4.4-.18-1.23-.39-2.21-1.51-2.96-.55-.63-.8-1.18-1.12-1.95-.24-.64-.37-1.07-.59-1.72-.24-.79-.28-1.39-.4-2.19-.13-.83-.54-1.2-1.19-1.67-.34-.38-.48-.64-.64-1.12-.18-.91-.28-1.61-.91-2.35-.2-.32-.27-.45-.41-.8-.51-1.85.18-3.68-1.08-5.39-.33-.67-.45-1.15-.59-1.88-.3-1.94-1.07-3.5-1.28-5.46-.03-.77.03-1.28.17-2.04q1.55-3.3,4.41-1.22c.44.33.67.54,1.04.92.52.61.86,1.08,1.48,1.59.48.44.73.79,1.07,1.35.72,1.36,1.76,2.16,2.86,3.19.29.25.4.35.67.62,1.69,2.3,3.46,4.22,5.49,5.86,4.38,3.53,4.4,3.5,2.16,8.9,2.37-.46,3.07-4.25,6.16-2.61,1.03,1.79,1.31,3.62,1.94,5.32,5.27,14.08,15.28,23.18,29.57,27.31,6.94,2,13.74.71,19.84-3.43,3.27-2.22,3.85-2.1,8.67,1.94.61,1.76-.43,2.12-1.59,2.52-4.58,1.61-9.33,7.17-10.12,12.21,1.54-2.37,3.47-4.4,5.29-6.54,3.17-3.72,7.11-6.1,12.37-6.14,1.42,1.33,2.99,1.92,4.47,2.7,1.15.6,2.56.97,2.79,2.81-1.92,3.25-4.97,4.94-7.87,7.14-3.59,3.63-7.64,6.67-9.1,12.36,3.63-2.98,5.78-6.46,8.58-9.66,3.46-3.57,7.64-5.77,11.66-8.61.39-.16.54-.22.95-.35,1.42-.35,2.6-.67,4.1-.47.79.14,1.31.32,2.14.36,5.03,1.2,9.89.23,14.94.91,2.43,1.79,1.98,3.74.23,5.18-4.47,3.67-7.88,8.34-12.2,12.47-.87.77-1.72,1.19-2.32,2.22-.66.92-1.19,1.65-2.05,2.4-1,.62-1.35,1.44-1.8,2.46-.33.61-.61.97-1.11,1.46-1,.73-2.05,1.06-2.39,2.42-.33.94-.78,1.54-1.48,2.23-.62.53-1.08.91-1.57,1.57-1.98,2.5-3.82,4.82-5.87,7.27-.6.56-1.04.97-1.25,1.81-.46,1.49-1.03,2.68-1.89,4.01-6.23,9.69-10.69,19.71-11.73,31.14-.42,4.66-.54,9.3-.53,13.95,0,3.78-1.21,7.35-1.56,11.09-.62,6.65-.5,13.36-1.77,19.96-1.13,5.9-2.73,11.68-5.03,17.19-1.26,3.03-2.11,5.95-1.89,9.19.03.45.05.92-.02,1.36-.18,1.25.31,3.27-1.34,3.31-1.33.03-1.08-1.98-1.22-3.15-.25-2.18-1.03-4.18-1.78-6.2-.23-.62-.57-1.38-1.37-1.28-.83.11-.87.95-.98,1.6-.55,3.28-.34,6.57-.03,9.84.42,4.49,1.24,8.93,2.1,13.36,1.06,5.51,3.23,10.59,5.31,15.72.43,1.05.96,2.07,1.15,3.2,1.85,11.31,5.69,22.11,8.48,33.17,2.04,8.06,4.27,16.03,7.52,23.64,2.46,5.76,4.12,11.8,6.77,17.74.33.68.49,1.15.77,1.83.35.76.69,1.24,1.26,1.85.65.89,1,1.7,1.49,2.68.4.95.46,1.84,1.4,2.49.9.95,1.67,1.7,2.92,2.21,1.25,1.61.05,3.76,1.72,5.08.06-1.68-.3-3.22-1.28-4.86-.69-1.61-2.22-3-.74-4.53,1.5-1.56,3.12-.49,4.69.22,2.14.97,4.87,1.44,5,4.42.14,3.2-.84,6.24-2.35,9.08-.21.38-.67.59-1.09.78q-3.2,1.46-.7,3.97c.72.72,1.46,1.43,2.18,2.16,4.13,4.2,3.55,7.58-2.01,10.46-1.08.37-1.98.35-3.06.72-.6.16-.95.23-1.57.3-2.81-.19-5.32,1.14-7.91.12-1.46-.57-2.48-1.17-1.4-3.11.6-.96.77-1.74.09-2.71-.44-.78-.95-1.21-1.7-1.68-.25-.24-.33-.36-.5-.66-.31-.85-.58-1.48-1.47-1.88-.43-.28-.66-.46-1.04-.83-1.72-1.6-2.8-3.48-4.66-4.94-.67-.48-1.09-.9-1.55-1.57-.38-.67-.64-1.16-1.17-1.72-.39-.5-.6-.87-.93-1.43-.62-1.19-1.4-1.92-2.56-2.61-.95-.75-1.48-1.52-1.87-2.66-1.33-2.97-2.89-5.53-4.79-8.16-.23-.31-.31-.44-.47-.79-.53-2.19-1.85-3.65-3.17-5.37-.86-.83-1.45-1.58-1.75-2.77-.07-2.11-.41-3.86-2.06-5.35-.23-.31-.31-.43-.48-.77-.33-1.07-.53-1.94-1.17-2.89-.22-.47-.32-.76-.47-1.26-.61-2.1-1.78-3.65-2.93-5.46-.36-.58-.56-1-.84-1.63-1.21-3.19-2.1-6.3-5-8.5-.89-.97-1.26-1.98-1.89-3.1-.65-1.2-1.24-2.18-2.32-3.04-.74-.6-1.21-1.15-1.7-1.96-.31-.55-.5-.93-.95-1.37-.35-.33-.54-.52-.87-.87-.4-.44-.67-.72-1.18-1.01-.29-.15-.41-.21-.69-.38-.46-.37-.73-.66-1.17-1.06-.24-.22-.34-.32-.57-.55-.42-.43-.71-.7-1.22-1.03-.55-.32-.91-.56-1.42-.98-1.2-1.8-3.05-2.38-4.7-3.6-1.58-1.65-3.47-2.68-4.55-4.8-.25-1.22-1.01-1.82-1.74-2.74-.39-.83-.46-1.5-.53-2.41-.44-3.94-2.64-7.26-2.22-11.14.06-.52-.32-1.14-1.01-1.13-.7.01-.96.63-.99,1.18-.18,2.94-.4,5.89.41,9.04.1.74.11,1.24.12,1.98,0,1.78-.22,3.39,1.29,4.74,1.66,1.98,2.41,4.29,4.16,6.21.58,1.11.84,2.16,2.02,2.86,1.47,1.25,3.16,1.88,4.23,3.61.77,1.91-.82,2.77-1.37,4.26-.22,1.16-.45,2.07-1.02,3.11-.45.69-.92,1.08-1.28,1.82-.34.74-.6,1.27-1.05,1.95-1.43,1.19-2.4,2.44-3.05,4.2-.49,1.7-1.39,2.95-2.15,4.54-.31.8-.54,1.39-.99,2.14-1.41.89-2.23,2.09-3.51,3.1-2.36.23-2.19-1.77-3.11-3.07-.58-1.01-1.06-1.8-1.63-2.79-.38-1.03-.83-1.75-1.68-2.45-.2-.31-.25-.45-.34-.81.05-2.67-1.79-4.22-2.97-6.32-.22-.29-.3-.41-.48-.71-.36-.68-.68-1.11-1.32-1.55-.5-.43-.72-.79-.94-1.42-.23-1.08-.36-1.97-1.56-2.43-2.06-1.1-2.96-2.96-4.28-4.73-.42-.84-.63-1.55-1.45-2.12-.8-.57-1.36-1.07-2.01-1.83-2.04-3.08-4.72-5.25-7.44-7.21-3.21-2.32-5.85-5.3-9.37-7.57-1.66-1.8-3.58-2.65-5.72-3.17,1.13,1.85,2.62,3.24,4.63,4.42,1.28,1.46,2.3,2.81,3.27,4.21,1.14,1.66,2.51,2.73,4.63,3.05,3.26.5,5.4,2.69,6.89,5.52,1.64,3.11,3.31,6.19,5.37,9.31.25.29.34.41.55.73.37.7.6,1.23,1.14,1.82.21.29.28.41.44.72.38,1.16.86,2.01,1.82,2.82.27.28.37.4.63.71,3.8,2.39,4.69,6.18,5.86,9.86,1,3.14,1.8,6.33,2.75,9.76.48,3.17.23,6.09.29,9.29-.04,1.24-.06,2.2-.05,3.44.01,1.19-.03,2.11-.21,3.27-1.05,4.41-1.27,8.95-5.77,11.62-.25.29-.34.41-.59.69-.57.57-.96.99-1.21,1.78-.63,1.52-1.85,2.3-2.77,3.6-.55.57-1.01.93-1.42,1.61-.37.53-.69.8-1.23,1.13-.82.42-1.28.92-1.75,1.72-.82,1.17-1.52,2.15-3.02,2.49-1.5.22-2.04,1.27-2.81,2.37-.23.28-.33.39-.62.62-.97.5-1.77.87-2.23,1.96-.39.56-.75.82-1.38,1.08-1.2.29-2.11.66-2.99,1.57-.43.28-.7.4-1.19.56-.95.21-1.6.56-2.44,1.04-.64.26-1.1.35-1.78.47-2.64.58-4.76,2-7.31,2.22-1.64.15-2.03,1.14-.92,2.58,1.38,1.79,2.14,4.46,5.55,3.34.96-.33,1.69-.61,2.68-.83,2.7-.17,5-.75,7.02-2.69.31-.23.43-.32.76-.52,1.93-1.06,3.68-1.96,5.62-2.98.5-.44.86-.7,1.42-1.06.73-.39,1.14-.8,1.55-1.55.25-.32.37-.44.7-.72,3.45-1.66,6.9-2.2,10.72-2.35,9.98.58,19.76.03,29.35,2.04,2.14.45,4.2,1.17,5.47,3.12,1.22,1.88,1.05,3.24-1.88,3.3-4.68-.57-9.06-.2-14.18.59,4.77.8,8.73-.55,12.98-.46,2.41-.24,4.51.31,6.9.57.42.15.58.24.94.51,1.11,2.07.05,3.17-1.57,4.29-1.85,1.21-3.59,2.13-5.25,3.63-.55.25-.88.31-1.5.33-4.56.84-8.7,2.3-12.96,3.32-4.31,1.03-8.78.87-13.31,2.13-.63.17-.99.24-1.64.31-2.55-.14-4.8.24-6.96.76-5.02,1.2-10.06-.56-15.09.34-1.29.23-2.66.27-4.23.62-1.33.35-2.41.36-3.75.39-2,.05-3.81-.42-5.66.7,1.1,1.15,2.59.74,3.92,1.39.3.25.4.39.41.75-1.43,1.19-2.91.76-4.26.43-3.47-.83-6.83-.13-10.51.53-.51-2.28,2.08-1.94,3.09-3.38-1.4-.85-2.92-1.24-4.26-.94-4.09.93-8.41-.37-12.37,1.45-.43.2-.9.3-1.3.04-4.08-2.68-9.01-1.57-13.62-3.04-.58-.06-.91-.11-1.48-.26-1.74-.69-3.2-1.41-5.04-1.79-.56-.1-.87-.18-1.42-.33-.86-.29-1.77-.45-1.96-.97-.97-2.68-3.54-3.47-5.67-5.15-.23-.35-.3-.5-.44-.89.21-2.01-.17-3.67-1.17-5.09-1.19-1.68-2.71-2.81-4.89-1.53-1.6.94-2.48,1.96-.71,3.65.85.81,2.09,1.88.99,3.17-.88,1.05-2.11.18-3.16-.16-9.16-2.94-18.35-4.51-28.1-2.84-4.01.68-8.05,2.52-12.34,1.36-.62-.17-1.37.16-1.93.54-6.65,4.53-14.69,5.94-21.71,9.63-1.72.9-3.77.76-5.62,1.28-1.64.46-3.37.78-4.11,2.95Z"/><path class="cls-4" d="m278.41,330.26c.9-1.34,1.15-3,3.31-3,3.54,1.15,2.54,3.37,1.51,5.79-.37,1.25-.94,2.05-1.63,2.84-2.43,2.76-3.22,8.86-1.6,12.05.15.29.54.39,1.09.54.93.17,1.39.86,2.35.86.48.01.74.07,1.16.3.83.27,1.48.42,2.39.62,1.67.4,3.04.86,4.44,1.79.62.46,1.1.7,1.9.63,1.35-.05,2.39.2,3.41,1.14.74.6,1.33,1.03,2.12,1.54,3.22,2.95,2.71,6.62,2.31,10.4-.33.22-.44.26-.7.36-2.12,1.51-2.85,4.15-5.41,5.2-.7.17-1.18.38-1.91.54-.91-.86-1.52-.38-2.33.11-.76.38-1.34.44-2.16.28-.82-.26-1.34-.9-2.26-.34-.95.5-1.73.84-2.79,1.04-.74.02-1.27.03-2.05.02-3.19-.1-6.16,0-8.91-1.92-.54-2.7.76-3.57,2.91-3.68.9-.05,1.81-.04,3.01-.05,1.27-.03,2.23-.04,3.47,0,1.98-.05,3.72.37,5.59-.52.53-.25.85-.32,1.42-.31,1.97.57,3.66.92,5.04-1.05.82-2.19.94-4.01-1.28-5.49-1.12-1.23-2.38-1.61-3.97-1.8-1.64-.29-2.88-1.03-4.47-1.48-1.74-.46-3.14-1.63-4.98-.56-.48.62-.72,1.13-1.05,1.83-.53.76-.94,1.34-.97,2.31-.11,1.01-.31,1.75-.94,2.58-2.94,1.97-3.57,5.47-6.1,7.73-.21.28-.28.39-.47.65-.32.3-.51.44-.81.87-.33.6-.57.89-.95,1.33-.85,1.86-2.6,3.21-2.01,5.64-.69,2.68-2.97,2.34-4.7,2.84-1.69.49-3.58.35-5.09,1.98-.15.2-.23.49-.29.62-.33.51-.63.85-1.16,1.3-.48.37-.79.59-1.25.91-2.33.7-4.27,1.73-6.25,3.22-.19.15-.15.21-.18.19-2.41.91-4.39,2.81-7.36,2.93-.94.44-1.65.82-2.59,1.23-1.56-.21-3.04.09-4.15-.84-2.87-2.4-2.35-4.98,1.2-6.21,1.5-.52,3.07-.86,4.6-1.96.73-.2,1.21-.3,1.95-.44.58.29.73.72.95,1.11.25-.42-.29-.81-.04-1.23.24-.4.62-.63,1.25-.9.45-.22.69-.35,1.13-.55,1.07-.55,1.93-1.06,2.97-1.69.57-.3.95-.49,1.52-.8.69-.97,1.42-1.56,2.49-2.13.16-.17.19-.11.17-.14,1.17-.67,2.04-1.6,2.67-3.02,1.51-.31,2.17-1.42,3.22-2.36.76-.44,1.05-1,1.57-1.66.53-.37.87-.59,1.36-.96.5-.55.86-.95,1.21-1.59,1.01-1.33,1.97-2.47,3.06-3.79.37-.58.63-.96,1.02-1.54.11-.2.25-.1.19-.16,4.63-2.21,5.94-6.33,6.36-11.24.07-1.18.09-2.12.17-3.34.47-1.31.43-2.36.15-3.64-.16-3.4-.25-6.59-.31-10.1-.85-5.4-2.67-10.21-4.2-15.11-.67-2.16-2.68-2.89-4.51-4.17-.18-.17-.35-.38-.39-.51-.55-.99-1.04-1.88-1.72-2.89-.13-.18-.28-.41-.32-.54-.27-.55-.59-.91-1-1.5-.14-.2-.31-.42-.35-.56-1.55-2.87-3.16-5.54-4.61-8.3-.36-.68-.82-1.5-.13-2.16.81-.78,1.64-.31,2.6.43.74.6,1.27,1.04,1.96,1.61.67.54.8,1.16,1.22,1.89,1.42,1.75,2.73,3.3,4.21,5.01,1.06.61,1.52,1.39,1.91,2.5.31.62.51,1.03.85,1.62.53.36.88.6,1.27,1.12.11.18.28.43.33.58,1.02,2.3,2.7,4.11,3.16,6.73-.03.41,0,.59.08,1.04.74.56,1.27,1.02,1.64,1.91.65.93,1.65,1.33,1.83,2.62,1.07,1.33.1,3.78,2.69,3.84Z"/><path class="cls-3" d="m351.84,347.96c-1.29-1.91-2.01-3.78-2.6-5.76-1.66-5.62-3.9-11.03-6.52-16.28-.29-.58-.24-1.32-.42-1.97-.4-1.52-.58-3.18-1.32-4.52-2.12-3.85-2.9-8.04-3.61-12.27-.15-.91-.46-1.73-.75-2.59-2.46-7.51-4.34-15.17-6.21-22.85-.84-3.47-1.41-7.02-2.4-10.41-.9-3.05-1.87-6.25-3.78-8.95-.25-.36-.4-.81-.5-1.24-1.23-5.28-2.84-10.51-3.5-15.86-.3-2.48-.62-5.09-.62-7.68,0-2.69,0-5.38.05-8.07.02-.97.31-1.78,1.06-2.41.85-.71,1.58-.88,2.12.36,1.26,2.9,2.47,5.8,2.72,9,.06.76-.29,1.58.47,2.41.64-.61.57-1.39.53-2.07-.33-4.73.09-9.27,2.67-13.44,1.71-2.76,1.13-6.18,2.51-9.08,1.92-4.03,1.92-8.42,2.4-12.77.43-3.94.2-7.92,1.05-11.83.36-1.64-.11-3.47.32-5.07,2.16-8.02.47-16.33,1.94-24.38.59-3.24,1.05-6.57,2.22-9.61,2.55-6.66,5.16-13.34,9.6-19.28,1.75,2,.12,3.56-.73,5.15-2.79,5.18-5.35,10.44-6.81,16.19-.79,3.13-.24,6.46-1.95,9.49-.95,1.69,1,2.43,2.47,3.31.58,1.49.67,2.77-.21,4.18-1.13.66-1.89-.41-2.92-.07.05,5.99-.67,11.95-.97,17.94-.06,1.15-.29,2.25-.7,3.32-.33.85-.9,1.92-.51,2.62,2.68,4.91-1.73,9.23-1.06,13.83.67,4.58-.9,8.4-2.89,12.24-3.7,7.11-4.44,14.65-3.24,22.48.64,4.18-1.03,8.35-.14,12.56.14.66-.02,1.41-.68,1.8-.92.54-1.43-.22-2.02-.73-.59-.51-.99-1.22-1.8-1.6,2.14,1.81,2.73,3.74,2.33,6.71-.38,2.83,1.7,5.67,2.36,8.63,1.04,4.62,2.26,9.21,3.64,13.76.37,1.21.87,2.06,2.35,2.47.75.29,1.17.6,1.56,1.32.17.54.25.82.31,1.34.43,3.02,1.51,5.69,1.76,8.79.1.68.16,1.12.19,1.77,2.96,9.2,6.28,18.04,9.98,26.77,2.16,5.11,3.8,10.56,4.05,16.26.08,1.85,2.37,2.72,2.39,4.94-.36.74-.8,1.06-1.54,1.42-1.01.31-1.74.31-2.65-.26Z"/><path class="cls-4" d="m388.27,51.38c.45.41.75.68,1.22,1.04.47.23.71.43.94.95.41,1.74.21,3.37,1.1,5.02.12.57.06.89-.22,1.41-1.94,1.11-3.53.12-5.43-.37-.74-.17-1.22-.32-1.9-.62-1.15-.89-1.56-1.94-1.51-3.1.07-1.67-.71-2.77-2.24-3.73-1.59-1.31-3.03-1.14-4.71-.17-.83.35-1.47.39-2.34.2-2.28-1.09-4.38-1.94-6.98-1.52-.7.12-1.15.04-1.73-.36-.67-.81-.94-1.71-2.11-1.98-.63-.21-1.01-.43-1.46-.92-.57-.82-.43-1.92-1.77-2.03-.5-.01-.78-.05-1.26-.2-.78-.51-1.4-.89-2.3-1.19-.46-.26-.69-.46-1.02-.88-1.16-2.38-2.19-4.56-5.19-5.03-.38-.08-.52-.12-.88-.25-.74-.38-1.17-.85-2.05-.92-2.5.05-4.41-.63-5.84-2.82-.57-.82-1.07-1.35-2.14-1.38-2.76-.61-5.02-1.9-7.66-2.87-1.5-1.1-2.74-.75-4.15.18-.49.23-.79.3-1.32.31-1.31-.35-2.27-.07-3.36.7-1.35.44-2.52.37-3.93.41-2.02,0-3.84-.17-5.39,1.49-1.87,1.34-3.67,2.23-6.01,2.35-2.55-.69-4.63-.55-6.3,1.79-.26.31-.37.42-.7.64-.37.16-.52.2-.91.27-.4.02-.55,0-.95-.05-1.58-.63-2.41-1.73-3.16-3.17-.02-.36,0-.51.07-.85.33-.7.4-1.18-.29-1.7-1.63-1.05-2.53-2.35-2.93-4.27,0-1.59-.78-2.95.26-4.43,2.59-.7,2.74,1.63,3.85,2.7.89.86,1.33,2.06,1.87,3.45.08.24.16.25.16.29.23.14.4.31.52.72.08.4.22.56.64.62.57-.02.96-.02,1.56.02,1.28.16,2.31-.15,3.59-.28,3.84-1.79,7.36-3.71,11.29-4.77,1.89-.51,3.72-.86,5.89-.74,1.24.02,2.2-.04,3.17-.95,2.93-1.69,5.7-.5,8.7-.23,1.37.76,2.48.82,3.77-.11,1.55,1.73,3.55,2.38,5.45,3.17,1,.42,2.18.46,3.08,1.61.16.18.21.15.2.17,1.98,1.41,4.34,2.21,6.27,4.03.07.22.26.28.33.36,4.93,2.93,9.02,6.88,14.05,9.86,2.53,2.17,5.48,1.54,8.53,1.66.44-.42.65-.58,1.13-.68.76-.04,1.27-.22,1.94-.59.65-.18,1.08-.13,1.62.28.78.63,1.54.48,2.52.62.73.08,1.14.22,1.62.71,1.7,1.28,2.76,2.82,3.91,4.58-.95,1.35.56.99.89,1.55Z"/><path class="cls-4" d="m336.67,286.12q-4.02.18-4.21-3.48c-.04-.67.1-1.63-.27-1.96-2.34-2.08-1.73-5.06-2.3-7.6-.58-2.59-2.35-4.93-1.76-7.8.16-.77-.68-1.07-1.16-1.53-1.16-1.12-1.57-2.22-.59-3.88,1.27-2.14.89-2.79-1.49-4.15-1.14-.66-1.73-2.26-1.15-3.39.47-.91,1.18-.55,1.63,0,1,1.2,1.89,2.48,2.82,3.72.31-.2.64-.34.63-.42-.5-3.13-.58-6.19.09-9.37.42-1.99.08-4.21-.23-6.29-.58-3.85-.59-7.74-.14-11.52.32-2.69,1.97-5.23,3.03-7.83.34-.83.93-1.6.88-2.55-.08-1.54.6-2.62,1.92-3.32,1.21-.65,1.78-1.4.69-2.64-.65-.75-.61-1.7-.54-2.6.2-2.47.96-4.88.76-7.4-.03-.4.19-.97.49-1.22,1.8-1.51,2.27-2.71.39-4.85-.95-1.08-.71-3.6.22-5.2.74-1.29.86-2.53.85-3.89-.05-4.53,1.05-8.99.83-13.54-.05-1.08.25-2.17,0-3.31-.2-.92-.4-2,.44-2.92,1.18.42,1.47,1.73,2.66,2.36.43.31.57.54.64,1.05-.03.63-.1,1.04-.01,1.66.07.48.1.75.12,1.23.05.78.3,1.28.64,1.99.35,2.7-1.16,4.89-1.13,7.58.08.55.13.86.11,1.4-1.14,1.09-1,2.17-.55,3.49.16.5.17.79.05,1.3-.48,1.4-.39,2.62-.15,4.05.19.51.24.82.16,1.36-.33.83-.37,1.46-.23,2.34-.02,1.88.43,3.53-.34,5.34-3.1,1.17-.58,2.59-.38,4.07.21,1.73.33,3.2-.42,4.87-.13.52-.16.79-.3,1.22.02,2.27-1.08,4.09-1.46,6.3-.3.85-.94,1.33-.78,2.34-.02,1.83-1.02,3.16-1.41,4.92-.11.51-.14.79-.3,1.26-.21.86-.18,1.58-.63,2.39-.15.87-.23,1.55-.38,2.48-1.24,1.52.48,4.29-2.39,4.67.12.9,1.29.55,1.66,1.53.68,4.14-1.34,7.89-.54,12.07.02,1.12-.42,1.94-.16,3.06.21,1.37.19,2.5.16,3.87,0,.83-.21,1.42.07,2.22.16.49.25.76.25,1.25-2.34,1.15-2.37,2.52-.03,5.04.55,1.13.37,2.11.38,3.32-.4,1.51-1.2,2.84.6,4.01.18.14.2.06.24.06,1.56,4.09,2.49,8.28,2.01,12.86Z"/><path class="cls-8" d="m282.76,333.6c.19-2.15,1.8-4.15-.65-6.11-.08-.78,0-1.35.17-2.1,1.07-.81,1.55.02,2.12.49.65.53,1.41.63,1.6-.24.77-3.62,4.34-5.59,5.17-9.23.5-2.21.94-4.3.09-6.64-.43-1.9,1.77-2.32,1.93-4.14,3.87,1.31,7.44,3.12,9.76,6.85,2.43,3.91,5.33,7.53,7.32,11.71.6,1.26,1.85,1.56,3.16,2.22,1.16,3.39,1.25,6.79,2.77,9.95,4.54,9.45,8.52,19.16,14.99,27.6,3.24,4.23,6.78,8.26,10.33,12.11,2.47,2.68,6.4,4.98,10.76,5.77.05,1.08-.91,1.32-1.37,2.2,1.71,1.06,3.46,1.62,5.38,1.09,1.24-.34,2.45-.27,3.97-.11.54.94.04,1.41-.64,1.57-4.21,1.02-8.38,1.42-12.31-1.51-.43-1.01.8-1.38.62-1.52-.5-.4-1.21-.44-1.54.63-.05,2.54,1.71,3.14,3.39,3.2,2.55.1,4.82.91,7.17,1.76,4.22,1.52,9.84-.6,12.39-4.39.25-.38-.17-.04.19-.27,5.2-3.37,3.93-7.74,1.76-12.1-1.6-3.22-1.21-6.34-.13-9.53.82-2.43,1.08-4.35-1.12-6.73-1.05-1.13-2.44-3.24-2.83-5.5,1.51-.51,2.63.47,3.91.8.58.15,1.33.8,1.45,1.34.78,3.67,2.53,7.34.45,11.09-.33.6-.49,1.24-.76,1.83-.93,2-.72,3.6.96,5.15,1.7,1.57,2.51,3.68,2.95,5.95.2,1.05.2,2-.32,2.96-1.91,3.55-3.99,7.06-7.44,9.25-3.36,2.14-7.34,2.53-11.24,2.85-.56.05-1.26.02-1.45-.61-.53-1.75-2.01-1.35-3.05-1.18-2.88.47-5.19-1.15-7.76-1.79-.94-.24-1.45-1.05-2.06-1.72-.74-.82-.61-1.51.12-2.35,1.48-1.72,1.56-2.78-.11-3.77-3.37-1.97-4.89-5.54-7.45-8.2-1.14-1.19-2.27-2.52-3.41-3.72-3.7-3.87-5.52-8.99-9.01-12.99-1.52-1.75-1.93-4.23-3.14-6.27-3.14-5.35-4.98-11.37-8.13-16.74-.22-.38-.41-.89-.34-1.29.28-1.66.83-3.33-1.88-3.39-.54-.01-.63-.89-.75-1.42-.99-4.31-4.12-7.39-6.38-10.96-1.08-1.7-2.11-3.5-3.69-4.86-1.86-1.59-2.75-1.52-3.25.88-1.4,6.82-5.82,12.05-9.09,17.89-.73,1.31-2.41,2.04-2.91,3.89-.29.29-.4.42-.66.33Z"/><path class="cls-8" d="m210.97,194.86c-.38,1.96-1.88,2.95-3.18,3.96-1.81,1.4-3.47,2.94-5.08,4.53-4.53,4.47-9.39,8.58-14.07,12.88-4.25,3.91-8.06,8.3-12.06,12.49-1.64,1.73-3.39,3.3-5.3,4.77-3.35,2.57-6.07,5.9-8.41,9.34-3.7,5.45-7.59,10.76-11.55,16-3.49,4.61-5.66,9.85-7.76,15.08-2.84,7.05-5.15,14.3-7.74,21.45-1.83,5.06-2.19,10.42-3.2,15.65-1.01,5.22-1.79,10.5-2.45,15.78-1.1,8.85-.93,17.67,1.11,26.4.21.88.38,1.77.48,2.67.1.84-.12,1.66-1.07,1.87-.92.21-1.66-.45-1.9-1.14-.98-2.82-2.21-5.59-2.47-8.62-.13-1.56-.21-3.12-.48-4.82-.23-.83-.29-1.52-.37-2.48.02-2.41-.66-4.58.36-6.91.76-2.28,2.96-4.15.65-6.7-.93-1.06-.81-2-.18-3.14,1.62-.11,2.12-1.08,2.37-2.26.79-3.77,1.25-7.59,1.74-11.41.18-1.41-.74-.95-1.48-1.36-.31-.48-.35-.8-.26-1.37.33-.94.6-1.64.94-2.56.17-.34.27-.46.56-.73,1.64-.69,1.55-2.09,1.85-3.23.88-3.36,1.54-6.78,3.25-9.96-1.11.76-1.41,2.39-3.19,2.27-.43-1.97.23-3.57,1.33-5.27.52-1.16,1.49-1.46,2.38-2.18,2.85-3.9,4.8-7.89,4.04-12.93-.14-.75.05-1.2.51-1.79,2.64-3.07,3.73-6.67,4.76-10.16,1.3-4.4,3.9-7.61,7.57-9.96,3.76-2.4,6.52-5.45,8.03-9.9.13-.56.27-.87.6-1.34.37-.44.61-.67,1.05-1.03,1.64-.93,2.33-2.37,3.28-3.6,1.41-1.84,2.81-3.81,5.29-4.19-.29-.02-2.18-.9-2.46-1.45.12-.21.04-.4.12-.47.98-.97,1.9-1.83,3.33-2.28.84.3,1.18,1.51,2.08.72.86-.76,1.24-1.76.63-3.14-.04-1.35.61-2,1.83-2.41,1.53.79,2.67.79,3.73-.47,1.4-1.67,3.42-2.85,4.22-5.31.25-.5.45-.75.91-1.07,3.65-1.36,5.82-4.25,8.4-6.57,4.62-4.16,9.05-8.53,13.89-12.46.94-.76,1.73-1.89,3.36-1.22Z"/><path class="cls-4" d="m263.87,44.58c.13.48.18.78.21,1.31.3.84,1.03.85,1.6,1.46.22.91.32,1.61.41,2.59.12.64.29.99.66,1.46.41.62.71,1.08,1.06,1.75.41,1.15,1.19,1.87,1.61,3.04.82,1.58,1.52,2.98,2.31,4.59.35.59.64.95.95,1.57.2.46.31.71.47,1.16.64.99,1.28,1.75,1.59,2.94.4.89.73,1.59,1.12,2.5.2,1.55,2.42,3.12-.66,4.07-.3-.06-.53-.16-.62-.25-1.15-2.22-3.67-3.25-4.33-5.73-.24-.89-1.2-.94-2.02-.89-1.1.07-1.23.95-1.21,1.73.05,1.82-.31,3.6-.17,5.44.25,3.24-.63,3.8-4.27,2.71-1-4.48-2.51-8.65-1.76-13.13.3-1.8-.24-3.56-.57-5.61-.06-.99-.14-1.68-.22-2.64-.18-.62-.42-.95-.52-1.55-.09-.67-.18-1.14-.23-1.86-.91-2-1.99-3.7-2.31-5.94.22-1.15,1.87-1.45.99-2.97-1.72-3.8-4.8-6.89-3.95-11.52.21-.51.77-.47.56-1.03-.37-.38-.49-.71-.53-1.27.01-.5,0-.82.05-1.36-.86-3.03,1.92-4.55,2.48-7.07,1.89-1.13,3.92.42,5.87-.87,1.83-.25,2.5,1.06,3.6,2.13,1.23,1.22,2.3,2.25,3.49,3.47.72.63,1.27,1.12,1.56,2.07.04.22.27.42.38.53,1.48.39,2.15,1.4,2.78,2.77.25.42.41.62.61,1.02.12.59.12.98-.1,1.63-1.22,1.29-2.45,1.72-4.2,1.15-.28-.1-.22-.22-.26-.16-.6-1.38-1.18-2.8-3.09-3.33-.39-.46-.61-.76-.92-1.21-.35-.63-.73-.99-1.23-1.51-.36-.2-.54-.31-.78-.62-.36-.5-.62-.87-.86-1.26-.51-.78-.5-2.17-1.99-1.87-1.34.27-1.25,1.42-1.44,2.65-.04.74-.03,1.25-.08,2-1.71,2.41-1.8,4.26,1.12,5.71.19.7.26,1.21.37,1.97,1.26,1.81.82,3.48.27,5.36-.35.41-.56.61-.79.8-.07.06-.12.15-.16.24-.06.12,0,.05.36-.32.61-.31,1.04-.3,1.65.04.18.14.14.18.16.16.54.47.63,1.16.98,1.96Z"/><path class="cls-9" d="m97.25,408.58c-.74-.97-2.55-1.83-.06-2.6,1.59-.5,3.1-1.16,4.79-1.51,4.62-.98,8.81-3.17,13.16-4.95,3.09-1.27,6.37-2.09,9.38-3.66.91-.47,1.79-.98,2.61-1.58,1.78-1.3,3.67-1.74,5.77-.99.65.23,1.33.5,1.98.2,2.55-1.21,5.36-1.1,8.01-1.67,6.1-1.33,12.2-1.15,18.11,0,3.77.74,7.71,1.64,11.29,3.38.5.25,1.09.62,1.56.14.67-.69-.04-1.21-.41-1.72-.2-.27-.49-.48-.68-.76-.65-.96-2.58-1.6-1.62-2.93.92-1.29,2.4-2.63,4.04-2.84,1.6-.2,3.2.99,3.95,2.29.96,1.68,2.17,3.58,1.03,6-2.33.65-1.58-1.14-1.68-2.14-.25-2.4-1.47-3.11-3.91-2.43.41,1.47,1.61,2.28,2.25,3.43.53.95.81,1.9.13,2.88-.69,1-1.68,1.08-2.73.71-1.29-.46-2.72-.52-3.94-1.07-2.2-1-3.94-.59-5.71,1.27-.92.29-1.6.31-2.45-.23-.77-.37-1.33-.57-2.12-.8-1.62.08-2.9-.39-4.2-.8-.73-.23-1.44-.85-2.25-.37-3,1.78-6.34.63-9.49.95-3.28.34-6.53.77-9.57,1.82-6.38,2.2-12.75,4.39-19.26,6.2-.31.09-.54.4-.98.81-.3.22-.42.25-.72.26-2.74-.21-4.82,1.35-7.4,1.9-1.78-.21-2.94,1.38-4.81.79-.56-.1-.85-.16-1.31-.42-.77.64-1.6.64-2.75.45Z"/><path class="cls-5" d="m12.55,421.41c3.02,3.37,6.66,5.68,9.92,8.44,1.83,1.55,3.61,1.75,5.91,1.44,3.67-.49,7.42-.05,11.07-1.17,1.19-.36,2.31-.86,3.75-1.23,4.4-2.04,5.45-4.04,3.88-7.35-.37-.38-.58-.61-.94-1.01-1.55-2.08-4.03-3.3-4.07-6.35-.27-2.09.76-2.89,2.74-3.04.68.12,1.07.28,1.59.66.67.44,1.17.77,1.84,1.24,1.33.55,2.53.81,3.81,1.52.56.69.75,1.3,1.1,2.11.73,1.91,1.86,3.46,1.4,5.64-1.06,1.36-.34,2.58-.19,4,.2.72.17,1.19-.23,1.83-.21.47-.27.75-.4,1.23-.24.64-.49,1.01-.99,1.49-.66.68-1.15,1.21-1.77,1.91-.24.63-.46,1.02-.95,1.51-.44.46-.71.76-1.09,1.24-.49,1.24-1.46,1.35-2.58,1.52-.76-.19-1.27-.15-1.87.4-.46.21-.74.25-1.25.18-1.48-1.61-3.47-1.04-5.18-1.87-.51-.6-.62-1.48-1.73-.91-.86.4-1.59.49-2.49.84-.78.32-1.35.53-2.16.79-1.15.24-2.07.44-3.05,1.17-.9.27-1.56.28-2.39-.23-1.34-.86-2.83-.61-4.12-1.62-.63,0-.99-.07-1.46-.41-.15-.12-.41-.27-.53-.37-.55-.27-.92-.53-1.33-1.09-.52-.56-.92-.94-1.47-1.45-.76-.42-1.4-.64-2.02-1.27-.9-.83-1.68-1.48-2.65-2.28-.87-.49-1.34-1.1-1.9-1.9-.35-.52-.61-.83-.98-1.31-1.66-1.75-2.48-3.52-1.44-5.99.62-1.16,1.11-2.14,2.64-1.64.37.61.57,1.03.8,1.68.2.67.5,1.03.79,1.67Z"/><path class="cls-5" d="m367.06,350.29c1.13.88,1.24,2.82,3.27,1.96.46-.2,1.14.64.79,1.48-.3.71-1.29.99-1.25,1.92,2.86.94,3.73,3.02,2.61,6.3-.36,1.06-.8,2.1-1.19,3.15-1.57,4.29,1.49,7.53,2.32,11.26.22.98,1.55,1.53.87,2.97-.77,1.64-1.28,3.57-2.95,4.36-1.12.53-1.45,1.23-1.79,2.19-.57,1.61-1.65,2.75-3.38,3-3.03.44-5.76,2.72-9.11,1.35-.82-.33-1.66-.49-2.41-1.06-.9-.68-2.03-1.08-3.18-.72-1.96.61-3.47-.67-5.17-1.1-1.43-.36-.9-1.61-1.02-2.81.31-1.04.92-.98,1.77-.57,1.85,2.65,4.67,2.26,6.89,2.46,1.92.17,4.21.04,6.29-1.11.42-.29.72-.37,1.26-.43,1-.32,1.93-.04,2.73-.82,2.39-1.14,4.11-2.48,4.68-5.15.26-1.2.15-1.94-.7-2.69-1.7-1.51-3.4-3.02-5.08-4.55-.57-.52-1.27-.91-1.52-1.77-.52-1.85.19-3.08,2.05-2.74,2.09.38,2.58-.66,3.04-2.22.51-1.73.76-3.51,1.47-5.23.72-1.74-.68-4.05-2.52-4.48-1.27-.3-2.31-.9-3.37-1.55-.84-.52-1.74-.6-2.5.16-.88.87.15,1.38.42,2.04.21.52.33,1.08.52,1.88-.18.35-.39.45-.96.47-1.71-.06-2.91-.31-3.42-2.09-.91-.78-.79-1.76-1.2-2.73-.99-.62-1.53-1.36-1.68-2.64-.04-.67.06-1.08.33-1.66.27-.42.47-.63.85-.95.67-.4,1.2-.64,1.76-1.1.19.17.16.31,0,.62.18.73.5,1.29.83,2.04,1.15,1.67,2.61,1.21,4.04.85,1.3-.33,2.55-.99,4.16-.46.54.09.87.07,1.43.16Z"/><path class="cls-9" d="m262.71,76.26c.54-.18.88-.14,1.22-.16,2.36-.16,3.04-.92,2.08-2.84-.53-1.05-.53-1.54,0-2.59.85-1.71-.1-3.77.54-5.71,2.61-.26,4.58.41,5.19,3.29.18.85.71,1.37,1.46,1.73.91.44,1.26,1.23,1.28,2.46-1.81-1.06-3.83-2.16-4.65-4.46-.28-.78-.85-1.03-1.61-.76-.81.29-.9,1.06-.74,1.69.58,2.22.71,4.45.62,6.74-.14,3.41-.23,6.76-1,10.15-.53,2.35-.77,4.91-.82,7.38-.05,2.31-.5,4.54-1.19,6.65-1.59,4.83-2.67,9.78-3.73,14.74-1.1,5.11-2.9,10-4.85,14.81-.81,2-1.54,4.02-2.33,6.03-1.57,4.03-3.41,7.92-5.77,11.56-1.49,2.29-2.83,4.66-3.7,7.27-.41,1.22-1.21,2.17-2.42,3.06-.93.28-1.31.87-1.97,1.55-.58.23-.94.2-1.48-.14-.87-1.46-.74-2.7.07-4.13,2.84-.45,3.87-2.27,5.18-4.43,4.55-7.48,7.76-15.51,11.02-23.57,1.29-3.18,1.37-6.64,2.79-9.74.34-.73-.37-1.23-.84-2.02.78-6.02,2.21-11.73,1.95-17.93.09-.58.09-.88.2-1.4,2.23-6.31,2.02-12.81,3.52-19.25Z"/><path class="cls-4" d="m238.69,158.48c.54.18.86.2,1.41.23.37-.08.51-.17.84-.13-.05,1.39-.99,2.23-1.85,3.37-3.61,4.16-6.51,8.58-9.64,12.82-1.81,2.46-3.83,4.69-5.95,7.16-.3.9-.74,1.4-1.48,1.91-3.86,3.47-7.43,6.96-10.81,10.95-.13.2-.12.23-.12.25-.74-.17-1.29.18-1.83.64-6.2,5.29-12.11,10.89-18.09,16.42-1.33,1.23-2.71,2.39-4.1,3.55-.37.31-.83.3-1.38-.21-1.22-1.95-.15-3.09,1.22-4.34,1.04-.71,2.33-.56,2.85-1.98.43-1.65,1.36-2.68,2.67-3.7.19-.14.37-.37.51-.4,4.27-4.92,9.61-8.55,13.84-13.34.69-.78,1.55-1.3,2.76-1.7.68-.51,1.12-.97,1.73-1.59,1.63-1.21,2.17-3.31,4.41-3.75.23-.02.44-.27.54-.39.16-.56.3-.96.79-1.4.69-.91,1.2-1.7,1.88-2.65.26-.96.74-1.5,1.53-2.07.35-.3.52-.49.83-.79.85-.96,1.3-2.03,2.52-2.71.27-.21.32-.33.5-.6.23-.59.42-.99.89-1.47.22-.26.28-.37.48-.6.24-.55.41-.94.9-1.4.54-.54.9-.94,1.44-1.44,1.72-2.37,3.19-4.7,5.39-6.76.18-.14.15-.2.19-.19.73-.71,1.1-1.65,1.85-2.58.21-.25.26-.36.45-.6.77-1.1,1.65-1,2.81-.51Z"/><path class="cls-4" d="m130.96,366.39c.16-.16.33-.32.43-.38,2.27-.92,3.31.5,3.97,2.12.71,1.72-.63,2.59-1.84,3.52-4.13,3.2-9.41,3.55-14.17,5.88-.42.15-.59.2-1.02.29-4.47.93-8.36,2.88-12.66,3.6-2.57.43-4.7,2.41-7.44,3.04-5.18,1.18-10.28,2.7-15.79,3.54-1.81-.62-1.67-1.58-.81-2.65.7-.88,1.52-1.67,2.42-2.72.77-.8,1.48-1.19,2.57-1.28.83.03,1.41.01,2.13-.42.47-.22.76-.29,1.28-.33,1.27-.01,2.29-.09,3.13-1.21,1.57-.91,3.17-.99,4.89-1.44.6.04.96.33,1.37-.1.08-.57.28-.88.78-1.18,1.43-.23,2.68-.4,4.17-.69.41-.37.63-.53,1.15-.53.62.23,1.02.3,1.56-.15.16-.14.06-.18.07-.24,2.32-1.83,5.42-.92,8.07-2.46,1.36-.76,2.89-.31,4.05-1.54.56-.39.91-.64,1.58-.74.52-.12.82-.23,1.33-.44.39-.4.66-.54,1.22-.48,1.66,2.33,3.07.68,4.68-.08,1.47-.58,1.82-1.92,2.87-2.91Z"/><path class="cls-4" d="m341.97,165.47c-1.31-.11-2.85.61-3.18-.86-.32-1.45-.82-3.26.58-4.46,1.14-.98.92-1.91.89-3.24-.08-3.86,1.11-7.55,2.74-11.03,1.78-3.78,3.13-7.76,5.55-11.23.57-.82,1.04-1.76.97-3.11.23-1.55,1.01-2.59,1.74-3.91.26-.63.43-1.04.87-1.56,1.78-2.81,3.69-5.23,6.1-7.54.58-.48.95-.86,1.36-1.45.54-.69,1-1.2,1.6-1.85.7-1.17,1.68-1.82,2.51-2.89.34-.48.56-.77.93-1.19.28-.21.42-.3.79-.3,1.4.93,1.99,2.05,1.91,3.74-.16,1.32-.86,2.25-.79,3.6-.41.71-.87,1.19-1.49,1.77-1.26.31-1.59,1.2-1.89,2.32-.18.56-.37.89-.67,1.37-1.68.89-2.55,2.19-3.3,3.87-.75.72-1.31,1.34-2.03,2.13-.08,1.01-.54,1.5-1.4,1.93-2.12,1.12-2.82,3.21-4.3,4.94-.38.83-.94,1.11-1.69,1.54-.88,1.6-2.3,2.7-2.45,4.7-.17,1.12-.41,1.98-.86,3-1.05,1.08-2.21,1.89-1.25,3.67-.1,3.19-.67,6.08-1.53,9.16-.1.71-.09,1.2-.16,1.91-.1.64-.23,1-.61,1.47-.14.45-.15.75-.18,1.28.11.95.02,1.62-.75,2.21Z"/><path class="cls-7" d="m297.81,31.24c-.18-.48-.24-.74-.25-1.21,3.05,1.12,5.89-.11,8.48-1.23,5.31-2.28,10.89-3.39,16.47-4.59,1.4-.3,2.36-.87,2.49-2.3.26-2.84,2.13-5.16,2.43-8.01.07-.65.92-1.22,1.69-1.68-.76,1.92-1.74,3.79-2.24,5.78-1.31,5.12-.75,5.6,4.59,5.47,3.42-.08,3.23-.34,4.51-3.97.76-2.15,2-4.21,3.64-5.9,2.43-2.51,4.93-4.96,8.25-6.3.3-.12.66-.2,1.19.4-1.83,2.56-3.42,5.46-5.97,7.6-2.41,2.02-3.61,4.83-5.14,7.41-.55.92-.28,2.02,1.11,2.71,2.1,1.05,4.4,1.69,6.34,3.35-2.47-.59-5.04-1.21-7.31-2.64-.63-.4-.91-.94-1.32-1.73-.91,0-1.62.4-2.65.31-2.03-.03-3.82.24-5.62-.42-1.21-.45-2.46.17-3.94.51-.86.92-1.96.6-2.9,1.22-2.71-.34-5.11.23-7.38,1.2-1.46.62-2.93,1.09-4.45,1.45-1.23.29-2.35.45-2.7,2.03-.31,1.4-1.58.86-2.8.76-1.37-.64-2.38.06-3.67.21-.74.01-1.25.02-2.01,0-.4-.1-.55-.16-.82-.43Z"/><path class="cls-3" d="m270.14,404.1c.54-.17.85-.22,1.4-.26,3.49-.66,6.74-.15,10.23.06.39.09.55.15.88.37.23.32.28.47.33.87-.23,1.35-.3,2.51-1.44,3.44-1.63.57-3.08.34-4.79.38-2.46,1.27-4.85.92-7.45.87-.57,0-.89.04-1.44.04-.77.01-1.3.03-2.03-.07-1.53.29-2.87.62-4.49.87-1.43-.23-2.41.77-3.85.31-.75-.11-1.22-.14-1.91-.27-.49-.43-.79-.67-1.42-.42-.69.27-1.3.66-1.74.52-2.23-.69-4.46.07-7-.17-1.55-.16-2.81.13-4.23-.5-.73-.18-1.23-.21-1.97-.3-.25-.04-.17-.36-.19-.52-.9-1.19-.6-2.12.44-3.17,1.38-.23,2.56-.29,4.03-.32,4.77.01,9.18-.54,13.74.07,4.16.55,8.41-1.33,12.92-1.82Z"/><path class="cls-3" d="m367.26,115.41c-.6-1.39-.56-2.93-2.01-4.05-.04-.37.03-.52.3-.76.43-.15.66-.13.88-.09.23.05.44.11.64.21.05-.34-.31-.14-.57-.45-.37-.61-.36-1.06,0-1.7.67-.89,1.16-1.6,1.85-2.41.97-.56,1.64-1.13,2.16-2.14,4.28-4.44,7.85-9.32,12.73-12.85,1.42-1.03.83-2.48,1.55-3.87.05-.42.01-.59.08-.97.73-.84,1.5-1.13,2.6-1.22,1.68.35,2.58,1.22,2.85,2.93.37,2.95-1.62,4.54-3,6.35-.65.85-1.54,1.57-2.39,2.61-3.13,2.26-4.88,5.61-8.14,7.68-1.07.24-1.85.48-1.8,1.82-.07.85-.17,1.46-.69,2.18-.15.18-.16.19-.16.19-.59.58-1.17,1.16-1.91,1.87-.15.14-.14.18-.16.17-.72.76-.97,1.82-1.78,2.76-.31.51-.55.8-.96,1.18-.29.33-.47.5-.91.65-.45.06-.71.04-1.15-.08Z"/><path class="cls-4" d="m282.88,405.25c-.16-.18-.26-.5-.3-.66-.64-2.15.99-2.07,2.08-2.31,4.45-.98,8.88-2,13.43-3.61.51-.15.75-.29,1.19-.49,1.68-.52,3.11-1.08,4.53-2.17.89-.42,1.93.19,2.4-1.1.97-1.27,1.3-2.46.77-4.02-.08-.2-.21-.34-.24-.43-3.09-1.7-4.89-4.68-7.46-7.13-.06-.58,0-.91.27-1.44,1.2-.91,2.45-.85,3.86-1.2,2.01-.05,3.03,1.13,4.27,2.45.17.19.2.2.2.21,1.01.87,1.4,2.22,2.6,3.19.15.15.21.28.15.32,2.02,1.45.87,3.87,1.8,5.9.24.76.6,1.6.3,1.81-3.13,2.12-4.16,6.78-8.91,7.23-1.49.03-2.45.58-3.25,1.81-.45.39-.75.63-1.22.97-.87.47-1.49.19-2.28-.22-.31-.09-.44-.1-.74-.05-.96,1.37-1.87,2.46-3.83,2.17-.59-.04-.97-.11-1.52.06-.27.14-.37.2-.65.32-.89.05-1.6.04-2.57-.06-1.04-2.93-3.32-.65-4.88-1.55Z"/><path class="cls-5" d="m164.48,397.75c1.96-3.07,2.27-3.22,5.22-2.01,1.67.69,3.6.42,5.16,1.51.52.36,1.09.17,1.51-.31.5-.58.62-1.31.13-1.86-.96-1.09-1.66-2.42-2.91-3.26-.48-.32-.82-.81-.52-1.44.26-.56.76-.8,1.35-.88,3.88-.52,5.13.76,4.74,4.91-.05.5.04.88.72,1.16.21.05.3.07.3.12.72.84,1.09,1.95,2.41,2.15.78.12,1.6.9,1.46,1.63-.64,3.28,1.78,2.08,3.45,2.38.54.06.84.07,1.37.16,1.63.74,3.03,1.43,4.78,1.9.54.07.85.09,1.37.2,1.72.68,3.5.62,4.76,2.22.19,1.48-.64,2-1.81,2.53-.81.31-1.42.45-2.23.72-.8.27-1.4.31-2.23.23-.54,0-.85.03-1.41.04-.63.01-.98-.09-1.42-.48-.13-.14-.15-.15-.15-.16-.75-.68-1.19-1.56-1.78-2.6-.43-.66-.62-1.26-1.45-1.53-2.7.67-5.17,1.26-7.45-1.14-1.04-.72-1.53-1.75-2.78-2.15-.68-.65-1.26-.62-2.1-.29-2.49-1.15-4.94-1.58-7.44-1.95-1.1-.16-2.47-.32-3.02-1.79Z"/><path class="cls-9" d="m26.06,400.77c-1.26.45-2.31.78-3.61,1.1-.92.24-1.58.53-2.44.88-.43.22-.67.32-1.11.42-.63.17-.99.47-1.6.77-.73.41-1.25.73-1.99,1.12-.5.32-.82.43-1.44.31-1.1-1.29-1.03-2.43.09-3.37,1.89-1.57,3.68-3.31,6.48-3.9.94-.44,1.63-.8,2.55-1.2,2.33-1.57,4.84-2.02,7.51-2.74.83-.15,1.42-.27,2.19-.51,1.66-1.1,3.29-1.52,5.3-1.51.96-.06,1.65-.11,2.62-.18,1.98-.66,3.84-.61,5.85-1.04,1.54.72,1.73,2.29,2.93,3.34.2.56.2.89-.06,1.42-1.33.55-2.53.43-4.02.37-1.26.32-2.31-.01-3.44.52-.63.22-1.07.33-1.75.45-1.2.62-2.3.56-3.65.63-2.88,1.16-5.61,1.87-8.72,2.19-.71.22-1.09.5-1.68.9Z"/><path class="cls-4" d="m160.98,240.66c.78.82.85,1.45.41,2.3-1.56,3.05-4.22,5.24-6.17,7.99-.22.32-.76.53-1.18.57-2.46.23-3.64,2.16-4.84,3.85-.58.81-1.01,1.67-1.87,2.25-.79.53-1.16,1.32-1.15,2.32.04,2.1-.51,4.01-2,5.56-.8.83-.5,1.93-.85,2.83-.44,1.12-.07,2.92-2.32,3-.8-.11-1.15-.45-1.51-1.14-.18-.73-.17-1.23-.14-1.97.11-.9.4-1.49.86-2.25,1.24-1.04,1.61-2.12,1.16-3.7.33-2.39.73-4.52,2.66-6.22,1.55-1.65,2.88-3.17,4.37-4.87.3-.59.51-.96,1.03-1.38.34-.32.49-.51.81-.8.87-1.75,1.49-3.47,3.3-4.65.44-.48.7-.83,1.1-1.34.48-1.34,1.35-1.89,2.7-2.15.96.14,1.65.05,2.48-.48.52-.1.81-.04,1.16.3Z"/><path class="cls-4" d="m390.52,88.2c-.87-.91-1.51-1.92-2.84-2.55-.4-1.73.27-3.21.84-4.94.35-.73.74-1.19.75-2.01-.04-.65,0-1.09.18-1.71.46-.8,1.22-1.08,1.56-1.94.36-.52-.11-.15.28-.38.33-.2.36-.16-.09.09-.35.44-.59.74-1.22.81-.44-.26-.61-.5-.82-.99-.24-1.19-.96-1.8-1.68-2.7-.48-.99-.5-1.83-.56-2.92-.02-.6-.02-.95-.02-1.56-.02-.62-.02-.97-.03-1.6-.33-5.16.33-5.72,5.05-4.28.26.1.46.21.51.31,1.42,1.27.8,2.76.65,4.43.03.55.12.84.3,1.34.12.36.17.51.35.85.14.31.16.43.09.71.05.54.17.92.4,1.48.11.29.16.4.28.66.37.43.5.77.37,1.45-.23,3.14-.24,6-.23,9.16.11,1.09.06,1.86-.53,2.8-1.36,1.19-1.48,3.19-3.59,3.52Z"/><path class="cls-9" d="m199.59,406.68c-1.27-1.36-3.24-.66-4.28-2.27.36-.25.82-.42,1.24-.34,3.21.59,6.39,1.31,9.7,1.29,1.53-.01,2.91.72,3.88,2.02,1.01-1.64,2.66-1.39,4.23-1.48,2.81-.16,5.65.15,8.43-.53,1.95-.48,3.7.92,5.65.75.21-.02.6.38.67.65.17.62-.17,1.1-.73,1.35-1.43.65-3.08.82-4.31,2.25-.54.65-1.08.93-1.94,1-2.49-.41-4.59.59-6.8.76-1.97.15-3.7-.1-5.68-.95-2.41-3.88-6.4-3.48-10.05-4.48Z"/><path class="cls-9" d="m299.58,383.09c2.59,2.26,4.88,4.49,7.05,7.09-2.29.96-4.53.11-7.06-.44-.4-.17-.53-.27-.46-.48,1.14-.49,2.27.08,3.19-.8-.65-2.21-1.95-3.68-4.32-4.21-3.72-.84-7.39-1.76-11.28-1.8-6.32-.06-12.64-.48-19.2-.92-.68-1.02-.54-1.88-.17-2.94.62-.73,1.23-1.1,2.14-1.4,1.18-.07,2.14-.11,3.39-.11,2.13,1.02,3.84-1.43,5.86-.01.46,2.61,1.67,3.8,4.21,3.06,1.8-.52,3.54.09,5.3.21,1.72.11,3.24-.06,2.96-2.66,0-.76.14-1.21.86-1.53.5-.03.76-.05,1.2,0,.65.22,1.05.48,1.42,1.12-.75,3.53,1.36,4.02,4.06,4.24.63.44.65.93.86,1.59Z"/><path class="cls-4" d="m257.16,114.96c2.44.53,2.68.75,1.83,2.14-1.03,1.7-1.49,3.48-1.62,5.44-.07,1.1-.39,2.28-.94,3.23-2.28,3.94-3.2,8.41-5.02,12.53-.96,2.18-1.88,4.35-3.26,6.31-1.83,2.59-3.33,5.35-4.42,8.34-.8,2.19-1.11,2.24-3.76,1.67-.54-.26-.67-.57-.46-1.16.3-.49.45-.77.74-1.24,1.09-2.87,2.58-5.25,4.1-7.61,5.18-8.06,7.89-17.15,10.96-26.08.43-1.25.46-2.67,1.85-3.56Z"/><path class="cls-4" d="m49.37,395.13c-1.04-1-2.78-1.28-2.23-3.37.24-.49.51-.65,1.07-.74,2.37.33,4.22-.65,6.27-1.49.14-.19.35-.42.5-.45.47-.11.8-.13,1.35-.02,1.04.69,1.95,1.41,2.95.83,3.23-1.88,6.85-1.57,10.34-2.05.97-.13,1.67-.57,2.2-1.66.53-.73,1.1-1.02,1.92-1.29,1.44.04,2.62-.03,3.95-.61.5-.32.81-.52,1.31-.72,3.28,1.39,1.52,3.16.4,5.07-.16.2-.42.29-.56.31-2.19-.8-3.61.02-4.87,1.85-.68.1-1.15.13-1.84.18-.64.15-.98.42-1.59.62-1.58.24-2.96.42-4.58.65-.61.25-.94.49-1.55.61-.89.05-1.58.09-2.52.14-2.63.59-5.02,1.09-7.62,1.76-.58-.04-.9-.02-1.46,0-1.26.1-2.16.86-3.44.4Z"/><path class="cls-6" d="m53.59,423.11c1.28-2.3-.1-3.92-1.07-5.85.13-1.27,1.1-1.71,1.71-2.68.5-.54.89-.81,1.56-1.12.86-.29,1.51-.43,2.4-.64,3.11,1.41,6.2,2.03,9.33,1.63,8.09-1.03,16.19-2.13,24.07-5.31.56-.24.9-.28,1.47-.09-.33,2.74-1.82,3.97-4.6,3.79-1.2-.08-2.55.18-3.65.68-4.62,2.11-9.58,2.43-14.48,2.57-4.76.14-9.36,1.35-14.09,1.51-1.3.04-1.46.85-1.26,1.87.26,1.3,1.12,2.56.04,4.06-.57.11-.93,0-1.45-.42Z"/><path class="cls-7" d="m257.41,114.73c-2.19,5.61-3.69,11.18-5.76,16.55-1.72,4.45-3.72,8.72-6.14,12.8-1.56,2.62-3.14,5.22-4.92,7.88.1-2.26,1.59-4.04,2.74-5.91,7.42-12.15,11.59-25.48,14.83-39.21.78-3.3.17-6.53.76-9.99.92,3.89.84,7.97-.26,12.04-.49,1.83-1.16,3.63-1.25,5.83Z"/><path class="cls-1" d="m356.56,347.59c-.08.28-.05.5-.16.55-.27-.11-.44-.27-.76-.73q-1.02-3.17-3.92-4.73c.42-1.17,1.54-1.84,1.11-3.69-2.56-11.09-7.56-21.28-11.28-31.93-.85-2.45-2.01-4.83-2.08-7.75,1.76,2.22,2.09,5.2,3.11,7.92,2.27,6.11,4.49,12.22,7.28,18.13,1.33,2.82,1.99,5.98,2.63,9.1.9,4.42,2.31,8.72,4.07,13.13Z"/><path class="cls-7" d="m262.91,75.77c.02,5.26-1.01,10.11-1.42,15.03-.14,1.64-1.35,2.81-1.99,4.41.32-3.32,1.15-6.69,1.63-10.13.44-3.16.46-6.3.47-9.45.01-2.34-1.22-4.47-1.28-6.84-.02-.9-.24-1.82-.01-2.68.76-2.94.51-5.82-.16-8.9,1.09.25,1.38,1.21,1.33,2.07-.32,5.48.94,10.8,1.44,16.5Z"/><path class="cls-6" d="m114.33,405.74c.04-2.58,2.91-1.51,4.02-2.97,3.7.05,6.94-1.78,10.37-2.76,3-.85,5.8-2.34,8.94-2.97,2.21-.44,4.43-.62,6.58-.96,3.17-.5,6.63,1.18,9.52-1.14.45-.36.79-.18,1.19.11,1.32.95,2.99.95,4.61,1.73-.69.66-1.59.43-2.46.19-2.08-.58-3.99-.7-6.22-.06-1.87.53-4.13.17-6.2.16-5.03-.02-9.51,1.78-14.16,3.19-4.85,1.47-9.45,3.74-14.45,4.71-.57.11-1.09.27-1.76.75Z"/><path class="cls-8" d="m13.05,404.59c.58.29.99.39,1.73.52.17.81.3,1.91-.17,2.3-3.27,2.76-2.76,6.64-3.37,10.53-1.18-.02-1.61.84-2.39,1.53-.35.13-.5.16-.88.13-.51-.2-.77-.36-1.17-.72-1.65-2.5.83-4.01,1.12-6.21-.09-2.12,1.27-3.38,2.19-5.1.12-.64.29-.97.84-1.23.42-.27.64-.51,1.02-.94-.08-.91.34-1.04,1.08-.82Z"/><path class="cls-7" d="m274.88,33.36c-.32-.69-.3-1.07-.14-1.71,2.54,1.01,2.61,1,2.54-1.2-.04-1.16.21-2.34.66-3.24.68-1.37.86-2.51.12-3.82-.29-.52-.34-1.14-.03-1.64,2.16-3.49,4.26-7.04,7.66-9.55.63-.47,1.22-.48,1.9-.19,1.07.45,2.05.98,2.47,2.5-1.48,1.24-2.47-1.42-4.11.04-.26.23-.37.32-.64.52-.64.37-1.03.7-1.26,1.43-.61,1.92-2.24,2.96-2.99,4.82-.69.73-1.53,1.19-.54,2.34.21.87.16,1.51-.04,2.39-1.42,2.13-.9,4.35-1.2,6.68-.1.4-.16.56-.35.92-.4.41-.69.55-1.25.66-1.04-.02-1.76-.31-2.8-.94Z"/><path class="cls-4" d="m291.19,376.86c1.77,3.24,1.21,4.43-1.96,4.39-2.77-.04-5.5-.47-8.33-.1-2.48.33-2.91-.61-2.29-3.52.18-.61.47-.8,1.13-.71.53.11.81.11,1.3.1.34-.07.48-.13.83-.14,1.51.85,2.72.37,4.05-.36.65-.23,1.18-.27,1.97-.26,1.2.31,2.2.06,3.3.6Z"/><path class="cls-6" d="m393.2,66.3c-1.56-.97-.31-2.55-.77-4.12,2.72-.75,5.51-.55,8.07-1.65.65-.28,1.3-.3,1.97-.27,1.06.05,2.29.36,2.32,1.47.03,1.14-1.16,1.47-2.24,1.49-2.13.05-4.15,1.01-6.34.68-1.6-.24-2.53.62-3,2.4Z"/><path class="cls-7" d="m253.86,28.39c.65.05.78.42.86,1.04.12.33.23.46.14.75-.82,2.58,1,4.67.76,7.04,2.47.43,1.8,3.04,3.11,4.55-.35.97-.31,1.96-1.17,2.75-.08,2.33,1.81,3.84,1.87,6.23-2.03-2.56-3.42-5.51-3.62-9.02-.09-1.48-.66-2.98-1.18-4.46-1-2.81-1.31-5.8-.75-8.88Z"/><path class="cls-4" d="m128.88,309.02c1.6.06,1.18-1.84,2.54-1.94.75,1.55-.23,3.04-.34,4.48-.28,3.57-.94,7.11-1.54,10.65-.15.86-.52,1.76-1.03,2.46-.54.72-1.16.47-1.51-.63-1.2-2.39-.66-4.48.36-6.81.17-.55.19-.83.29-1.31.72-.81,1.16-1.5,1-2.66-.07-.54-.12-.87-.2-1.45-.77-1.13-.53-1.93.44-2.78Z"/><path class="cls-4" d="m131.78,293.41c1.9-1.3,2.74-3.23,4.03-4.76.99.32.77,1.01.52,1.62-1.77,4.37-3.18,8.84-3.89,13.52-.13.84-.78,1-1.78.98-.95-.91-.98-1.89-.47-3.18.34-.94.54-1.6.86-2.5.25-1.12-.49-1.9-.08-2.98.33-.94.51-1.71.81-2.7Z"/><path class="cls-7" d="m209.54,189.88c-2.86,2.56-5.18,5.87-8.7,8.04-2.19,1.35-3.66,3.88-5.42,5.9-.52.6-.98,1.25-2.09,1.25,1.35-1.91,2.91-3.76,4.54-5.55,3.39-3.73,7.04-7.15,11.68-9.63Z"/><path class="cls-6" d="m26.07,437.46c.66-.24,1.37-.24,2.35-.27.93-.78,2.01-.49,2.97-1.12.69-.25,1.19-.39,1.88-.53,3.26-.25,5.72.74,7.24,3.73-5.08,1.5-9.68-.43-14.44-1.81Z"/><path class="cls-6" d="m391.31,59.83c-.18-.41-.18-.7-.21-1.21-.7-1.61-.2-3.26-1.12-4.83-.25-.43-.34-.66-.38-1.08,1.79.61,3.35.61,4.99-.66,1.03-.8,2.43-1.16,3.7-1.6.56-.2,1.1.1,1.35.73.27.68-.05,1.03-.63,1.32-1.22.6-2.35,1.48-3.64,1.82-2.71.72-3.49,2.46-3.35,5.19-.29.28-.41.37-.71.33Z"/><path class="cls-6" d="m303.04,401.22c3.24-.2,5.03-2.21,6.41-4.48.64-1.05,1.04-1.83,2.37-2.03.81-.12.25-.91.11-1.62-.46-1-.44-1.73.53-2.33,1.03,2.46.75,4.21-.6,5.53-.23.23-.61.41-.68.67-.92,3.4-3.33,4.87-6.64,5.12-1.29.1-.78,2.32-2.57,1.79-.68-1.29-.02-1.97,1.07-2.67Z"/><path class="cls-4" d="m199.35,406.74c1.48-.23,2.93-.33,4.37-.23,2.57.18,4.8.98,5.85,3.94.14.87-.26,1.11-1.06,1.15-1.21-.51-2.24-.07-3.46-.35-.81-.29-1.48-.32-2.06-1.01-1.67-.97-2.59.97-4.22.72-.5-.03-.79-.09-1.25-.28-.58-.57-.68-1.08-.36-1.88.54-1.12,1.94-.74,2.19-2.07Z"/><path class="cls-6" d="m282.52,333.58c.1-.21.42-.22.57-.19.1.86-.27,1.54-.85,2.1-3.34,3.23-2.89,7.2-2.24,11.23.15.91.6,1.3,1.5,1.49,1.08.24,2.1.7,3.2,1.3-.26.25-.56.26-1.11.24-.62.03-1-.01-1.54-.26-3.18-.5-3.26-.56-3.42-3.21-.05-.9.08-1.82-.08-2.69-.73-4.08.69-7.27,3.95-10.01Z"/><path class="cls-7" d="m366.22,43.27c-1.97.04-3.59-1.2-4.97-2.23-2.92-2.17-5.79-4.42-8.79-6.5-.16-.11-.2-.4-.31-.83.9-.57,1.54.08,2.06.57,3.64,3.43,8.49,5.2,12.01,8.98Z"/><path class="cls-4" d="m168.38,229.43c.93,1.6,2.71.39,4.03,1.38-3.31,1.42-5.65,3.69-7.22,6.8-.38.76-1.14,1.42-2.32,1.71-.39.09-.53.15-.91.13-.3-.21-.38-.35-.48-.72.13-1.31,1.03-2.12,1.11-3.47.76-1.93,2.62-2.44,3.9-3.89.69-.7,1.19-1.27,1.89-1.93Z"/><path class="cls-9" d="m72.28,385.99c.12,1.82-.54,2.91-2.3,2.7-1.79-.21-3.46.71-5.34.21-1.1-.29-2.46.38-3.43,1.16-1.05.85-2.37.63-3.5,1.14-.7.31-.92-.39-1.02-1.19-.08-.34-.17-.46-.11-.73.46-.16.77-.17,1.31-.23,1.98-1.04,3.94-1.29,6.08-1.71.69-.1,1.16-.17,1.86-.25,2.18-.76,4.08-1.73,6.46-1.09Z"/><path class="cls-1" d="m341.8,165.76c.12-.84.33-1.41.72-2.13,1.06,1.42.3,3.05.22,4.62-.1,2.23-.29,4.43.08,6.64.47,2.78-1.15,5.22-1.31,8.15-.85-.07-1.02-.61-.8-1.39.55-1.96,1.18-3.9,1.23-6.23-.23-.61-.46-.92-.54-1.51,0-.49,0-.79,0-1.32-.01-.53-.03-.83-.06-1.37-.01-.53-.01-.84,0-1.37.95-1.32.81-2.56.44-4.09Z"/><path class="cls-7" d="m375.99,104.32c1.19-.75,3.64-2.81,4.27-3.77,1.01-1.53,2.26-2.73,4.26-3.36-1.23,1.85-3.24,3.23-4.63,5.21-.38.53-.96.95-1.18,1.6-.71,2.16-2.32,3.52-4.34,4.8-.17-.68-.12-1.43-.09-2.46.53-.78,1.01-1.35,1.71-2.02Z"/><path class="cls-7" d="m297.45,29.49c-1.78-1.65-3.22-3.84-4.78-6.24-.52-.18-.77-.36-1.03-.87-.13-.38-.17-.54-.26-.93-.36-2.28-2.05-3.95-1.53-6.39.12-.21.28-.36.35-.44,1.08.86,1.35,2.18,1.87,3.37,1.21,2.8,2.05,5.77,4.14,8.17.68.78.81,2.03,1.25,3.33Z"/><path class="cls-4" d="m298.96,381.91c-1.38,0-2.52.12-3.62,0-1.95-.23-2.27-.98-1.44-2.86.18-.4.25-.85.39-1.52,1.5-1.73,2.89-.69,4.52.1.23.18.5.33.63.42.44.24.66.48.88,1.03.13.76.08,1.27-.19,1.99-.38.45-.64.66-1.17.86Z"/><path class="cls-1" d="m339.79,202.58c1-1.86-.37-3.52.18-5.43.32-.54.53-.93,1.15-.97.14,5.11-.15,10.11-1.35,15.19-.59-1.5-.45-3.16-.28-5.12.2-1.35-.57-2.42.29-3.67Z"/><path class="cls-8" d="m269.81,371.07c1.68-2.9,2.84-6.08,5.72-8.26,1.24,1.04.33,2.01-.06,2.99,1.41.69,3.4-.26,4.06,1.98-1.48.31-2.91.47-4.35.45-1.62-.03-2.19.76-2.1,2.54-.28.53-.6.62-1.19.47-.5-.12-.76-.13-1.22-.12-.36.05-.52.1-.85-.05Z"/><path class="cls-4" d="m184.82,215.69c.36,1.14.23,2.11-.58,2.91-1.61,1.59-3.19,3.21-4.79,4.82-1.35,1.35-1.91.3-2.52-1.02-.33-.46-.41-.76-.19-1.28.39-.46.62-.73,1.01-1.07,1.21-.44,2.03-1.08,2.69-2.28,1.29-1.24,2.59-1.97,4.39-2.06Z"/><path class="cls-7" d="m185.12,215.67c-1.36.68-2.36,1.8-3.97,2.29-.86.77-1.48,1.49-2.69,1.57.27-2.17,2.26-2.54,3.76-3.36.84-.45,1.75-.89,1.93-1.72.56-2.61,2.78-3.64,4.83-5,.26.87-.26,1.22-1.02,1.67-.87,1.33-2.5,1.95-2.34,3.91-.21.3-.34.4-.5.64Z"/><path class="cls-8" d="m40.62,439.58c-1.8-2.34-4.31-3.05-6.98-3.93.13-1.27,1.07-1.11,2.17-1.17.93-.48,1.47-.16,2.18.43.61.88,1.18.82,1.86.55,1.78-.72,2.62.29,3.25,2.06.29,1.26-.4,1.58-1.35,1.93-.46.11-.71.16-1.13.14Z"/><path class="cls-1" d="m332.67,251.64c-.85-4.51.48-8.8.63-13.46-.08-1.31.06-2.26.93-3.06.32,2.12-.09,4.22.27,6.31.07.42.07.99-.15,1.31-1.88,2.65-.82,5.59-1,8.66-.21.28-.35.32-.67.24Z"/><path class="cls-7" d="m256.96,19.97c-.09,1.34,1.03,2.63-1.19,3.32-1.26.39-.76,2.22-1.47,3.47-1.35-3.04.97-5.34,2.03-7.9.55-1.33,3.15-1.41,5.23-.45-.99,1.93-2.98.6-4.61,1.56Z"/><path class="cls-6" d="m164.33,397.54c2.21,1.06,4.14,2.06,6.51,1.41.99-.27,2-.05,2.46,1.15.28.72.96.86,1.9.96.36.14.46.24.42.52-.57.26-1.05.52-1.42.4-4.07-1.28-8.12-2.62-12.23-4.16.66-.24,1.38-.27,2.36-.29Z"/><path class="cls-6" d="m7.79,412.57c.46,1.02,2.12,2.26-.38,3.08-.86.28-.35,1.79-.33,2.95.43.3.7.44,1.1.8.16.16.32.23.39.2.06,1.86-.13,3.79,1.12,5.67-3.88-3.65-4.97-8.79-1.91-12.7Z"/><path class="cls-1" d="m336.78,219.54c.71-2.35,1.38-4.53,2.28-6.8.47,3.24-.7,6.34-1.67,9.41-.39,1.24-.67,2.61-1.55,3.93-.83-.78-.67-1.74-.1-2.62.44-.67.8-1.33.9-2.39,0-.62.02-.99.15-1.53Z"/><path class="cls-6" d="m301.17,365.98c-1.12-3.33.08-7-2.13-10.28,1.69-.42,1.64,1.05,2.05,1.98,1.18,2.72,2.01,5.5.08,8.3Z"/><path class="cls-6" d="m208.14,411.49c.52-.27.89-.39,1.39-.67,3.32,1.04,6.53.91,9.75-.06.76-.23,1.54-.12,2.44.39-2.69,1.14-5.69,1.01-8.63,1.29-1.47.14-3.02.7-4.64-.36-.27-.23-.36-.34-.31-.58Z"/><path class="cls-1" d="m336.55,286.44c-.02-3.41-.87-6.54-1.61-9.68-.23-.99-.48-1.93-.32-3.23,2.16,1.13,1.59,3.58,1.95,5.47.46,2.47.93,5.01.96,7.86-.34.1-.6-.1-.97-.43Z"/><path class="cls-8" d="m390.87,59.71c.38.02.5.03.8.02.31.45.43.92.53,1.64-.25.27-.47.29-.69.34-1.29.29-2.79-.76-3.81.06-1.22.98.6,2.47-.14,4-3.38-1.28-2.55-4.14-2.13-7.04,1.86.09,3.37,1.13,5.43.98Z"/><path class="cls-8" d="m365.7,350.06c-1.57.68-3.27,1.27-5.01,1.65-1.4.3-3.01.73-3.36-1.6,1.61.45,2.98.97,4.48-.41,1.12-1.03,2.53-.63,3.89.36Z"/><path class="cls-6" d="m127.29,317.07c.03,1.98-.16,4.07-.35,6.45-.54,1.05-.6,1.89-.35,2.96,1.79,1.42,1.63,2.62-.21,3.78-1.19-4.47-.57-8.8.91-13.19Z"/><path class="cls-1" d="m343.74,158.68c-.8-1.21-1.28-2.24.04-3.82.95-1.14.6-3.38.83-5.4-.32-1.17-.16-1.8,1.18-1.83-.64,3.67-.57,7.42-2.05,11.05Z"/><path class="cls-9" d="m79.51,388.85c-.27-.82-.32-1.64.28-2.22,1.25-1.2.19-1.88-.56-2.87.34-.69.89-.54,1.64-.65,1.22-.55,2.1-1.37,3.57-.73-.07,1.68-1.28,2.52-2.29,3.48-.42.4-.86.68-.35,1.48.27.49.2.8-.28,1.18-.73.2-1.24.29-2,.32Z"/><path class="cls-6" d="m291.4,406.04c.62-.03,1.05-.21,1.48-.19,1.48.08,2.32-.34,1.95-2.05-.11-.48.31-.75,1.08-.72.41.35.62.45,1.09.22.69.34.97,1.1,1.99,1.24-2.43,1.94-5.37,2.66-8.68,2.54-.16-.17-.32-.42-.24-.54.39-.37.72-.58,1.33-.51Z"/><path class="cls-6" d="m13.3,404.57c-.38.36-.67.5-1.07.65-.25-1.72.53-2.8,1.97-3.81,1.92-1.34,3.64-2.95,6.24-3.44-1.65,1.6-3.9,2.58-5.75,4.18-.74.64-1.16,1.29-1.39,2.42Z"/><path class="cls-3" d="m333.29,265.79c-1.7-.04-3.89.45-2.01-2.39.42-.64-1.23-1.78-1.25-3.22,1.13-.27,1.77,1.43,3.13.85.91,1.16.21,2.4.46,3.89-.04.45-.09.6-.34.87Z"/><path class="cls-6" d="m296.87,353.77c-1.29.59-2.25-.44-3.69-.64-.67.04-1.05-.04-1.49-.48-1.5-.76-2.89-1.34-4.38-2.13,3.35.2,6.7.84,9.55,3.25Z"/><path class="cls-6" d="m41.81,439.56c-.14-.91.84-.88,1.3-1.62.35-.27.63-.39,1.11-.59.46-.47.7-.86,1.38-1.02,1.17.26,2.02.06,2.99-.61-1.3,2.5-3.55,3.8-6.78,3.84Z"/><path class="cls-6" d="m271.74,371.35c.22-.23.53-.25,1.09-.28,2.76,1.02,5.55.66,8.27,1.68-3.19,1.16-6.23.04-9.36-1.4Z"/><path class="cls-6" d="m269.43,377.03c-.07.83-.71,1.1-1.59,1.4-.66.48-1.19.56-1.97.17-.84-.55-1.37-.99-.73-1.74.87-1.02,1.26-2.38,2.57-3.28.12.37.1.81-.07,1.19-.79,1.69,0,2.19,1.79,2.26Z"/><path class="cls-6" d="m84.88,382.43c-1.3-.02-2.23.61-3.5.71,1.9-1.87,4.56-2.29,7.17-2.86.77-.17,1.56-.26,2.74-.25.3.86-.33.8-.97,1.08-.45.16-.74.18-1.25.27-.56.23-.88.45-1.45.57-1-.05-1.78.04-2.74.48Z"/><path class="cls-6" d="m100.28,376.42c.3.58.05.88-.13,1.39-.21.4-.44.55-.92.64-1.97.1-3.58.84-5.43,1.43-.61.44-1.09.59-1.84.39-.23-.11-.36-.27-.42-.36,2.84-1.28,5.74-2.47,8.74-3.49Z"/><path class="cls-6" d="m287.91,371.5c.97.44,1.68.19,2.67.06.33.04.4.14.37.38-2.22,1.89-4.77,1.05-7.36,1.14.27-1.18,1.29-.93,2.36-1.2.61-.59,1.13-.68,1.97-.39Z"/><path class="cls-7" d="m351.8,33.05c-2.46-.46-4.53-1.78-6.36-3.77,2.27.78,5.05.94,6.36,3.77Z"/><path class="cls-6" d="m179.7,403.98c2.21.8,4.52,1.41,7.18.89-2.14,2.02-4.81,1.72-7.18-.89Z"/><path class="cls-6" d="m134.04,281.03c-.5-.42-.49-.77-.31-1.06.99-1.6,1.98-3.17,1.8-5.21-.07-.84.59-1.42,1.55-1.86.45.21.59.49.66,1.05-.53,2.51-.74,4.9-2.4,7.01-.49.27-.8.28-1.31.06Z"/><path class="cls-6" d="m72.64,386.09c-2.26-.12-4.09.96-6.33,1.11.69-.69,1.55-1.38,2.75-1.45,2.26-.14,4.26-1.25,6.55-1.8.47.95-.16,1.12-.95,1.34-.84.06-1.4.22-2.02.8Z"/><path class="cls-3" d="m282.66,405.17c.98.07,1.78-.15,2.52-.76.72-.6,1.64-.94,2.42-.3.73.61-.27,1.42-.09,2.38-.8.63-1.59,1.05-2.65,1.5-1.05-.57-1.98-1.04-2.32-2.32-.04-.21.07-.41.13-.5Z"/><path class="cls-3" d="m394.52,82.64c-.79-3.18-.71-6.37-.09-9.77.31-.29.42-.38.69-.34.2.64.23,1.15.25,1.92.35.75.49,1.28.17,2.12-.16,1.86-.18,3.47-.25,5.38-.19.49-.37.62-.77.69Z"/><path class="cls-3" d="m334.56,234.88c-1.2.74-.8,1.81-1.15,2.82-1.01-.25-2.31,1.64-2.89-.24-.21-.67-.38-1.62.62-1.98.64-.23,1.08.79,1.8.42.67-1.03-.3-2.51,1.16-3.44.72.63.54,1.4.45,2.42Z"/><path class="cls-6" d="m295.05,371.32c.55-1.14,2.46-1.52,1.75-3.55-.21-.58.48-.92,1.13-.89.71.04,1.35-.12,2.11-.68-.72,2.38-1.87,4.61-4.99,5.12Z"/><path class="cls-1" d="m339.57,297.08c-1.43-2.44-2.15-5.25-2.08-8.41.83,2.6,1.51,5.4,2.08,8.41Z"/><path class="cls-6" d="m279.87,376.82c-.17.3-.47.4-1.01.53-1.63-.28-2.86-.59-4,.93-.84,1.13-.97-.56-1.62-1.01,2.05-.96,4.18-2.14,6.62-.45Z"/><path class="cls-6" d="m48.68,391.16c-.53.09-.82.12-1.33.24-2.17-.18-3.95,1.18-6.21.67,2.2-1.46,5.08-1.17,7.84-1.97.25.46.16.74-.3,1.05Z"/><path class="cls-6" d="m115.17,372.47c-.41,1.57-1.82,1.8-3.27,1.88-1.44.09-2.86.2-4.47.71.38-1.41,1.72-1.41,2.89-1.57,1.56-.21,3.08-.55,4.85-1.03Z"/><path class="cls-7" d="m239.44,153.3c.24.25.27.54.29,1.06-1.11,1.23-.23,2.62-.76,4.01-.87.31-1.67.36-2.72.45.71-1.87,2.33-3.39,3.18-5.53Z"/><path class="cls-4" d="m125.96,330.46c1.8-1,.87-2.28.76-3.59.52-.21,1.17-.23,1.42.33.57,1.25.26,2.6.21,3.9-.04,1.02-.83,1.48-1.83,2.03-.24.31-.3.45-.55.46-.39-1.06-.5-1.98,0-3.13Z"/><path class="cls-6" d="m144.04,255.91c-.08,2.15-1.79,3.69-2.35,6-.03.62-.21.81-.79.68.27-2.6.93-4.96,3.14-6.68Z"/><path class="cls-6" d="m136.27,286.02c-.63,1.01-1.24,1.66-2.41,1.89.21-1.67-1.14-3.16-.53-4.99,1.12-.18,1.75.46,2.64,1.13.45.68.52,1.19.31,1.97Z"/><path class="cls-6" d="m123.74,370.03c-.49-.11-.75-.11-1.18-.2,1.92-1.59,4.43-2.25,6.91-3.55.24-.09.36.06.43.13.03,1.02-.58,1.6-1.43,2.31-1.56.82-2.83,1.78-4.73,1.32Z"/><path class="cls-7" d="m233.36,162.22c-.75,2.74-2.94,4.62-4.93,6.8.85-2.68,3.01-4.57,4.93-6.8Z"/><path class="cls-6" d="m269.27,409.94c.2-.73.81-1,1.52-.81,1.81.49,3.53-.09,5.48-.26-1.91,1.84-4.34,1.51-7,1.08Z"/><path class="cls-6" d="m30.57,394.04c-1.87,1.77-4.58,1.81-7.09,2.91,1.67-2.15,4.47-2.16,7.09-2.91Z"/><path class="cls-9" d="m257.01,20.12c.69-2.11,2.59-1.17,4.42-1.47.55-.11.81-.14,1.26-.06.25.23.33.35.28.66-1.72,2.54-3.79,1.07-5.96.86Z"/><path class="cls-6" d="m106.04,407.88c2.06-1.42,4.31-2.6,7.14-2.22-2.23.91-4.61,1.63-7.14,2.22Z"/><path class="cls-1" d="m359.2,127.69q.13-3.63,2.89-3.93c-1.35.89-1.29,2.97-2.89,3.93Z"/><path class="cls-6" d="m203.22,409.17c.29.77.52,1.25,1.35,1.79-1.83.12-3.7,1.83-5.84.62,1.39-1,2.89-1.73,4.49-2.4Z"/><path class="cls-9" d="m48.58,391.44c.1-.44.32-.67.57-1.05.51-.23,1.01-.31,1.75-.4.76-.34,1.31-.57,2.15-.63.53-.09.84-.15,1.37-.12-1.03,1.87-2.97,2.63-5.83,2.19Z"/><path class="cls-7" d="m161.21,240.73c-.43.11-.71.08-1.2.03-.68.01-1.14-.07-1.94-.54.43-1.14,1.21-1.98,2.19-2.91.92.25.95,1.03,1.38,1.81.1.18.15.2.16.17.1.08.19.19.16.47-.28.39-.44.62-.76.98Z"/><path class="cls-6" d="m125.62,333.62c.16-.16.41-.32.57-.31-.51,2.16.14,4.46-.64,6.87-.41-.69-.41-5.29.07-6.56Z"/><path class="cls-6" d="m64.02,387.15c-1.5,1.5-3.63,1.46-5.72,1.95,1.33-1.93,3.68-1.32,5.72-1.95Z"/><path class="cls-8" d="m135.93,284.35c-1.08-.05-1.91-.21-2.31-1.37-.07-.69,0-1.17.15-1.87.31-.15.52-.17.88-.26,2.69-.01,2.94.57,1.28,3.5Z"/><path class="cls-3" d="m312.79,390.6c-.76.53-.75,1.19-.87,2.06-.62.09-1.29-.18-.96-.83.8-1.59.05-2.98-.37-4.68.28-.22.57-.19,1.05-.06,1.13.39,1.55,1,1.32,2.2-.11.51-.12.8-.16,1.3Z"/><path class="cls-7" d="m166.46,231.26c.09,2.01-1.96,2.32-3.09,3.76-.45.44-.66.85-1.3.89.42-2.39,2.98-2.85,4.4-4.65Z"/><path class="cls-6" d="m38.06,392.02c-1.29,1.06-3.01,1.19-4.91,1.56,1.17-1.27,2.79-1.94,4.91-1.56Z"/><path class="cls-1" d="m333.13,266.19c.04-.47.13-.66.36-.9.85,1.53.34,3.4,1.17,5.16-.45.34-.76.26-1.1-.28-.18-1.4-.28-2.54-.43-3.98Z"/><path class="cls-7" d="m215.69,184.58c-1.53.78-1.85,3.13-4.03,3.64.92-1.45,1.67-3.32,4.03-3.64Z"/><path class="cls-3" d="m333.25,270.02c.48.1.74.31,1.16.57.21.77.27,1.49.26,2.48-3.05-.19-3.12-.33-1.42-3.05Z"/><path class="cls-9" d="m203.4,409.11c-.44.25-.93.15-1.16.66-.63,1.34-1.77,1.56-3.32,1.53-.25.06-.44-.09-.39-.2.93-1.5,3.04-1.26,3.76-3,.16-.38.95.15,1.12,1.01Z"/><path class="cls-7" d="m153.52,244.25c-.39,1.73-1.55,3.16-2.87,4.64.4-1.74,1.04-3.47,2.87-4.64Z"/><path class="cls-6" d="m282.32,405.59c.99.45,1.64,1.16,2.18,2.24-1.02.14-2,.49-3.04.98.13-1.11.41-2.1.86-3.22Z"/><path class="cls-7" d="m176.68,220.96c.23.24.25.52.21,1.01-.69.73-1.33,1.26-2.07,1.97-.18.93-.67,1.23-1.74,1.12.86-1.49,2.12-2.78,3.6-4.1Z"/><path class="cls-6" d="m307.86,383.1c-1.63.32-2.09-1.47-3.61-1.96-.56-.08-.85-.21-1.04-.92,2.04-.1,3.29,1.36,4.65,2.88Z"/><path class="cls-8" d="m161.68,235.93c.53-.25.87-.41,1.4-.64.36,1.39-.48,2.43-1.29,3.76-.68-.14-1.19-.61-1.29-1.62.3-.61.65-1.01,1.17-1.5Z"/><path class="cls-7" d="m172.24,226.85c-1.25.67-1.81,1.92-3.33,2.17.98-1.33,2.18-2.65,3.58-4.07.2-.1.38.08.46.16.3.77.03,1.27-.72,1.74Z"/><path class="cls-6" d="m298.99,377.57c-1.35.08-2.69-.52-4.41-.3-.54-.23-.81-.48-1.12-.9,1.89-.21,3.81-.23,5.53,1.19Z"/><path class="cls-6" d="m379.44,43.88c-.43.24-.88.27-1.56.35-.59.18-.93.38-1.5.48-.48.06-.76.1-1.26.08.94-1.92,2.49-2.07,4.31-.91Z"/><path class="cls-6" d="m139.83,269.82c.38.47.6.79.87,1.29-.18.51-.41.83-.72,1.34-.2.28-.31.39-.64.54-.37,0-.52-.05-.75-.31.34-.85,1.04-1.49-.16-2.08-.61-.29-.86-.7-.1-1.32.64-.05,1.04.07,1.52.55Z"/><path class="cls-6" d="m141.35,265.65c-.31.84-.69,1.36-1.21,2.09-.42.47-.6.85-1.2.94.1-1.44.2-2.89,1.34-4.17.58.09.85.41,1.06,1.14Z"/><path class="cls-7" d="m192.41,205.31c.38,1.62-1.47,2.05-1.96,3.57-.21.49-.41.64-.91.63-.2-.06-.33-.2-.39-.28.93-1.38,1.74-2.83,3.25-3.93Z"/><path class="cls-1" d="m332.74,258.46c-.19-1.5-.19-2.88-.19-4.56.12-.37.24-.44.56-.46.85,1.48.42,2.97.34,4.74-.24.34-.38.37-.71.29Z"/><path class="cls-1" d="m346.05,145.9c.36-1.06-.02-2.07.9-2.88.84,1.04.76,2.08-.14,3.21-.45.19-.67.09-.77-.33Z"/><path class="cls-6" d="m188.57,406.63c1.43-.05,1.91.88,2.01,2.33-1.27-.09-2.63-.29-2.01-2.33Z"/><path class="cls-3" d="m345.9,145.75c.3.15.38.33.62.56.05.44-.03.83-.28,1.32-.91.05-1.24.52-1.53,1.35-.77.01-1.3-.3-.91-1.14.41-.88.76-1.82,2.1-2.08Z"/><path class="cls-7" d="m263.05,19.55c-.2-.23-.2-.36-.19-.67,1.67-.17,2.32,1.24,3.3,2.43-1.4.29-1.83-1.2-3.11-1.76Z"/><path class="cls-8" d="m285.81,376.22c-.08,2.38-2.43,1.4-3.49,2.47-.12-.3-.23-.61-.37-1.14.25-.98.94-1.02,1.83-1.17.76-.12,1.28-.21,2.04-.16Z"/><path class="cls-6" d="m129.1,308.64c-.14,1.02-.31,1.76-.59,2.71-1.39-1.15-.88-2.49.08-3.94.26.25.37.6.51,1.24Z"/><path class="cls-7" d="m366.91,115.48c.35-.26.55-.35.92-.43.9.87.41,1.6-.33,2.53-.3.41-.43.61-.75.82-1.05.11-1.12-.5-.95-1.03.2-.62.61-1.18,1.1-1.9Z"/><path class="cls-8" d="m388.47,51.33c-.6.19-1.15.19-1.7.17-.72-.03-1.91.37-1.94-.56-.05-1.29,1.32-.63,2.33-.88.9.1,1.18.54,1.31,1.27Z"/><path class="cls-7" d="m363.39,122.47c-1.25,0-1.29-.58-.82-1.22.45-.61,1.04-1.14,2.07-1.24.13,1.01-.27,1.81-1.25,2.46Z"/><path class="cls-3" d="m340.99,193.63c-1.41-1.25-1.03-2.58-.4-4.07.32-.23.43-.31.71-.26.21,1.29.26,2.46.24,3.92-.17.36-.28.44-.56.42Z"/><path class="cls-6" d="m241.07,410.21c1.18-.7,2.43-.31,3.85.21-1.19,1.12-2.44.14-3.85-.21Z"/><path class="cls-8" d="m141.55,265.83c-.35-.21-.57-.56-.93-1.17-.13-.76-.11-1.25-.02-1.98.31-.19.52-.23.84-.45,1.32,1.07,1.14,2.26.1,3.6Z"/><path class="cls-3" d="m302.99,401.09c-.18.77-.61,1.52-1.13,2.47-.38.24-.69.28-1.23.26-.32-1.71.25-2.78,2.36-2.73Z"/><path class="cls-7" d="m274.31,30.17c-1.19-.26-1.81-1.38-2.7-2.45,1.54-.15,2.04,1.12,2.7,2.45Z"/><path class="cls-6" d="m310.61,386.47c-2.09.45-1.91-1.58-2.74-2.85,1.61.05,1.47,1.99,2.74,2.85Z"/><path class="cls-6" d="m291.48,376.88c-1.1,0-2.18.96-3.22-.33,1.04-.94,2.31-.54,3.78-.54.02.32-.22.53-.56.87Z"/><path class="cls-7" d="m157.86,241.08c-.97.67-1.8,1.21-2.84,1.75-.27-1.73,1.61-1.67,2.5-2.81.21-.1.34.04.41.11.15.32.16.57-.07.95Z"/><path class="cls-7" d="m235.38,159.48c.24,1.17.23,2.36-1.52,2.73-.08-1.11.71-1.85,1.52-2.73Z"/><path class="cls-8" d="m53.22,422.95c.53.08.88.21,1.43.54.18.9.16,1.61.09,2.58-.15.34-.25.42-.54.41-.28-.84-.56-1.52-1.1-2.09-.39-.41-.6-.9.12-1.44Z"/><path class="cls-6" d="m394.27,82.87c.24-.38.42-.51.79-.62.81,1.21-.37,1.8-.94,2.67-.4-.65-.07-1.22.15-2.05Z"/><path class="cls-7" d="m223.8,174.58c-.15,1.14-.74,2.14-2.16,2.65.24-1.09.8-2.1,2.16-2.65Z"/><path class="cls-6" d="m257.32,411.07c1.11-.21,2.04-1.46,3.55-.73-1.05.35-2.04,1.82-3.55.73Z"/><path class="cls-6" d="m193.42,409.92c.19-.83.81-.64,1.6-.58.94-.03,1.56.12,1.73,1.1-1.32.93-2.08-.58-3.34-.52Z"/><path class="cls-1" d="m341.59,189.23c-.23.19-.35.2-.63.19-.2-.31-.22-.61-.3-1.12-.5-1.01-.53-1.76.52-2.36.68,1.04.53,2.08.41,3.29Z"/><path class="cls-6" d="m130.12,301.38c.26.9.3,1.86.3,3.1-.04.29-.38.3-.55.29-.53-1.15-.75-2.27.25-3.39Z"/><path class="cls-9" d="m74.58,385.47c.25-.47.64-.78,1.12-1.25.62-.19,1.15-.21,1.94-.16-.27,1.73-1.69,1.46-3.06,1.41Z"/><path class="cls-3" d="m341.56,185.76c-.77.55-.86,1.18-.92,2.08-1.31-.79-1.24-1.38.58-3.16.29.27.35.57.34,1.08Z"/><path class="cls-3" d="m333.4,253.26c-.09.22-.35.18-.35.18,0,0-.25.1-.37.13-.84-.44-.95-1.04-.35-1.9.34-.1.51-.05.81,0,.41.41.43.88.26,1.58Z"/><path class="cls-9" d="m205.07,411.38c-.05-.26-.17-.5-.22-.62,1-.08,2.09-.31,3.26.4.17.2.14.49.15.64-.3.17-.61.18-1.15.2-.95.53-1.52.3-2.05-.62Z"/><path class="cls-7" d="m370.43,113.79c-.37-1.17.15-2.12,1.38-2.88-.12.97-.28,2.06-1.38,2.88Z"/><path class="cls-6" d="m313.02,389.44c-.48-.56-.78-1.19-1.13-2.03,1.65.06,1.86.4,1.13,2.03Z"/><path class="cls-8" d="m128.57,312.99c1.49,1.19,1.45,1.41-.63,2.7-.27-.29-.32-.6-.28-1.14.05-.63.17-.97.6-1.39.15-.12.26-.22.31-.17Z"/><path class="cls-6" d="m299.97,379.26c-.25-.41-.35-.61-.43-.97,1.24.05,2.4.41,3.56,1.31.14.18,0,.33-.06.41-1.16.54-2.07.14-3.07-.75Z"/><path class="cls-1" d="m367.54,117.69c0-.67.2-1.43.43-2.43.28-.3.54-.36.99-.38-.24.96-.26,2.09-1.42,2.81Z"/><path class="cls-6" d="m10.68,427.01c1.14-.36,1.37.59,1.78,1.54-1.25.47-1.46-.48-1.78-1.54Z"/><path class="cls-6" d="m283.86,376.2c-.18.85-.89.78-1.72,1.04-.35.07-.48.05-.75-.09.4-1.12,1.31-1.22,2.47-.94Z"/><path class="cls-8" d="m178.09,219.54c.9-.53,1.66-.97,2.65-1.42.02,1.46-.9,2.04-2.58,1.91-.26-.06-.21-.4-.07-.49Z"/><path class="cls-8" d="m291.06,372.1c-.21,0-.14-.3-.18-.44.51-1.62,1.18-1.69,1.98-.09-.46.67-1.04.49-1.8.53Z"/><path class="cls-6" d="m130.91,295.97c.59.85,1.1,1.71.44,2.81-.38-.86-1.34-1.69-.44-2.81Z"/><path class="cls-1" d="m355.76,131.7c-.45-1.01.29-1.38,1.03-1.87.78,1.13-.2,1.44-1.03,1.87Z"/><path class="cls-7" d="m372.29,110.83c-.18-1.03.46-1.62,1.62-1.97-.06.86-.85,1.29-1.62,1.97Z"/><path class="cls-7" d="m271.16,26.9c-.9-.05-1.21-.8-1.55-1.7,1-.05,1.39.64,1.55,1.7Z"/><path class="cls-7" d="m220.42,178.02c.34.94-.31,1.44-1.15,1.98-.43-.98.43-1.37,1.15-1.98Z"/><path class="cls-9" d="m196.82,410.69c-.32-.64-.87-.78-1.44-1.19.19-.83.8-.93,1.69-.93.26.5.28.99.28,1.73-.13.31-.24.36-.53.39Z"/><path class="cls-6" d="m204.94,411.19c.58.16,1.08.38,1.76.71-.63,1.33-1.29,1.03-1.93-.31-.07-.19.09-.33.17-.4Z"/><path class="cls-6" d="m53.15,389.19c-.22.85-.88.89-1.77.86.19-.78.81-1.12,1.77-.86Z"/><path class="cls-6" d="m128.24,313.11c.35.37.25.75-.28,1.15-.61.13-.94-.1-.92-.43.05-.56.68-.43,1.19-.72Z"/><path class="cls-8" d="m138.28,272.47c.35.07.49.16.86.31.73,1.36.01,1.65-1.3,1.52-.28-.42-.32-.71-.43-1.22.18-.34.42-.47.88-.61Z"/><path class="cls-9" d="m254.19,410.58c-.12-.75-.42-1.63.5-1.69.73-.04.59.75.67,1.49-.32.27-.65.31-1.17.2Z"/><path class="cls-3" d="m332.4,258.45c.34-.07.51-.02.82.04.21.29.28.59.22,1.1-.86.1-1.76.15-1.04-1.14Z"/><path class="cls-6" d="m395.57,76.75c-.24-.47-.31-1-.29-1.79,1.13.23,1.13.91.29,1.79Z"/><path class="cls-9" d="m107.01,375.07c.16.69.38,1.46-.45,1.73-.34.11-.56-.21-.69-.75-.12-.33-.21-.44-.17-.75.45-.23.77-.27,1.31-.24Z"/><path class="cls-6" d="m53.97,426.63c.06-.24.4-.31.57-.31.67.76.25,1.34-.38,1.96-.45-.43-.4-.91-.19-1.65Z"/><path class="cls-1" d="m334.95,229.78c-.48-.69-.72-1.46.14-2.25.28.68.67,1.46-.14,2.25Z"/><path class="cls-6" d="m265.76,409.9c.32-1.03.93-.91,1.73-.23-.41.64-1.02.36-1.73.23Z"/><path class="cls-1" d="m349.78,138.13c-.43-.98.31-1.25,1.3-1.46.47,1.17-.69.9-1.3,1.46Z"/><path class="cls-8" d="m138.65,268.76c.4-.32.71-.5,1.18-.75.16.44.15.94.15,1.7-.38.09-.77-.07-1.32-.36-.17-.13-.11-.46-.02-.59Z"/><path class="cls-6" d="m15.2,431.23c.84-.43,1.33.18,1.93.85-.74.22-1.39-.05-1.93-.85Z"/><path class="cls-3" d="m341.42,196.04c-.44.38-.77.54-1.27.76-.14-.56-.16-1.19.48-1.83.31-.19.42-.26.7-.21.18.43.19.75.09,1.28Z"/><path class="cls-9" d="m175.71,401.81c-.23-.05-.22-.38-.23-.55.55-.92,1.01-.83,1.37.22-.29.26-.6.32-1.13.33Z"/><path class="cls-6" d="m20.48,435.41c.43-.39.81-.28,1.28.12-.42.74-.87.47-1.28-.12Z"/><path class="cls-6" d="m18.67,433.91c.64-.32.96.15,1.31.77-.67.37-1-.07-1.31-.77Z"/><path class="cls-6" d="m50.07,434.42c-.4-.62.03-.99.58-1.43.47.62.14,1.05-.58,1.43Z"/><path class="cls-6" d="m52.78,430.99c-.4-.65.05-1,.67-1.4.44.65.02,1.04-.67,1.4Z"/><path class="cls-6" d="m10.96,406.27c.28.56-.07.8-.56,1.08-.46-.58-.2-.93.56-1.08Z"/><path class="cls-1" d="m93.44,409.09c-.39.1-.65.11-1.1.12-.38-.18-.49-.4-.49-.84.54-.37,1.04-.41,1.68.13.17.19.05.5-.09.6Z"/><path class="cls-6" d="m99.81,408.18c.43-.87.83-.54,1.23.04-.43.85-.82.29-1.23-.04Z"/><path class="cls-6" d="m190.47,409.41c.42-.08.79.02,1.27.27-.48.69-.93.45-1.27-.27Z"/><path class="cls-7" d="m259.33,52.97c.7.06.84.48.77,1.2-.77.02-.88-.53-.77-1.2Z"/><path class="cls-6" d="m394.31,70.59c-.89.12-1.06-.42-.76-1.23.39.29.59.65.76,1.23Z"/><path class="cls-6" d="m395.39,72.55c-.11.11-.44.13-.61.12-.23-.28-.3-.56-.3-1.04.72-.19,1,.18.91.91Z"/><path class="cls-7" d="m149.43,249.69c.35.59-.03.94-.65,1.29-.35-.6.06-.93.65-1.29Z"/><path class="cls-1" d="m341.6,194.77c-.11.11-.45.12-.61.1-.18-.31-.2-.61-.19-1.12.02-.22.35-.26.52-.25.59.32.43.75.29,1.27Z"/><path class="cls-7" d="m217,182.74c.42.56.07.92-.48,1.33-.49-.56-.15-.95.48-1.33Z"/><path class="cls-7" d="m225.16,172.46c.38.55.13.99-.53,1.39-.42-.58,0-.94.53-1.39Z"/><path class="cls-7" d="m226.55,170.42c.38.59.05.98-.54,1.38-.23-.52-.04-.98.54-1.38Z"/><path class="cls-1" d="m342.92,162.09c-.37-.43-.22-.82.31-1.26.75.53.16.84-.31,1.26Z"/><path class="cls-6" d="m269.53,370.96c.25-.05.4-.02.74.09-.18.47-.56.86-1.14,1.29-.3.12-.4.2-.66.19-.11-.46.04-.78.48-1.24.22-.16.47-.26.58-.33Z"/><path class="cls-6" d="m56.66,388.96c.1.26.13.37.1.65-.42.02-.78-.12-1.37-.42.16-.76.69-.56,1.27-.23Z"/><path class="cls-6" d="m105.72,375.02c.12.22.12.34.13.64-.27.23-.55.27-1.03.26-.28-.8.16-.99.9-.9Z"/><path class="cls-6" d="m383.56,45.22c-.56.47-.96.13-1.4-.44.57-.56.98-.22,1.4.44Z"/><path class="cls-6" d="m120.89,370.16c-.03.7-.52.86-1.23.86-.11-.84.41-1,1.23-.86Z"/><path class="cls-9" d="m204.7,411.37s.04.03.03,0-.05,0-.02-.01c.03,0-.01-.02-.01,0Z"/><path class="cls-6" d="m393.93,68.44c-.26.03-.43-.13-.55-.47.25-.03.44.13.55.47Z"/><path class="cls-1" d="m385.4,58.43c.43,2.54.43,5.07,1.88,7.48.3.34.32.56.27.96-.22.71-.48,1.25-.44,2.08-.01.99,0,1.76-.07,2.76-1.35,2.46-3.09,4.3-5.42,5.9-.71.51-1.2.91-1.75,1.61-.93.92-1.72,1.58-3.1,1.04-.61-.81-.68-1.51-.63-2.5.59-2.07,1.2-3.86,1.52-5.99,1.1-2.23,1.81-4.24.08-6.42-.34-.17-.47-.25-.77-.47-.34-.38-.47-.63-.57-1.11-.12-.44-.05-.97-.68-.32-1.92,2.62-4.2,4.58-6.78,6.59-7.71,3.44-15.11,7.05-23.69,7.59-1.44-.52-2.44-1.26-3.47-1.96-2.54-1.73-2.69-1.85-4.91.05-3.86,3.31-8.55,4.12-13.28,4.41-8.32.51-15.43-2.71-21.89-7.78-2.79-2.19-5.25-4.67-7.74-7.14-5.19-5.13-7.81-11.55-9.25-18.82-.54-1-.11-1.71.15-2.64.17-.34.25-.47.5-.77,1.16-.88,2.07-1.7,3.11-2.74.56-.45.98-.68,1.65-.94,2.6-.42,4.82-1.34,7.33-2.04.32-.17.44-.21.76-.26,1.01.64.36,2.02,1.68,2.57,5.24-.21,10.28.35,15.49-.75,1.31-.23,2.46.43,3.54-.35-.9-.79-1.94-.29-3.12-.44-4.22-.67-8.12.66-12.32.25-.7-.51-.85-1.02-.8-1.86.58-1.37,1.69-1.55,2.93-1.99,2.44.28,4.09-1.28,6.22-1.9,1.76-1.22,3.75-.95,5.64-1.85,1.54-.21,2.84-.33,4.43-.49.99-.5,1.8-.51,2.84-.59.53-.05.82-.07,1.32-.13,1.43-.48,2.66-.91,4.24-.83,2.77,1.07,5.28,2.06,8.03,3.09.76.56,1.48.66,2.27,1.07,1.55,1.85,3.17,3.16,5.81,3.13.79.2,1.12.63,1.69,1.06.16.12.4.23.53.28,2.81.91,3.93,3.59,6.18,5.3.23.39.36.56.68.77.68.54,1.36.67,2.2.96.47.15.75.23,1.24.34,1.21.19,1.58,1,2.13,1.92.44.39.72.63,1.18.93.93.47,1.44,1.14,2.2,1.86.47.35.8.55,1.33.75,2.38.02,4.43.95,6.86,1.07.97.13,1.68.16,2.81.29.48.25.54.39.63.76.04.53,0,.84-.13,1.35-.24.64-.46,1.04-.8,1.63-.73,3.3,1.41,3.5,3.53,3.57,1.59.05,3.06-.88,4.91-.69.68.14,1.14.22,1.82.36Z"/><path class="cls-4" d="m352.6,381.9c-3.31.43-5.86-.86-8.11-2.9-.25-.23-.44-.55-.71-.72q-4.04-2.57-6.59-6.45c-.12-.19-.18-.45-.35-.56-5.88-3.89-8.23-10.56-12.4-15.8-2.58-3.25-3.73-7.4-5.69-11.07-.42-.79-.63-1.69-.6-2.62.02-.55.15-1.19-.28-1.62-3.54-3.58-4.58-8.02-4.55-13.16,0-.55.1-.78.37-1.14.3-.33.49-.5.86-.76.29-.14.41-.18.73-.22.32.04.44.09.67.29.32.47.53.79.75,1.31-.15,1.57-1.54,3.34,1.33,3.67.68.08,1.21.94,1.62,1.88.21.46.35.7.57,1.15.55.97.57,1.92,1.15,2.88.14.18.31.34.35.45.58,1.97,1.95,3.48,2.39,5.64.56.95,1.01,1.68,1.56,2.61.89,2.03,2.06,3.66,3.04,5.65.11.2.31.44.38.58,1.64,2.85,2.75,5.83,5.15,8.3.44,1.02.94,1.71,1.68,2.51.66,1.24,1.64,1.92,2.55,2.95.39.44.63.71.92,1.17.27.67.65,1.03,1.14,1.57.49.55.85.95,1.35,1.51,1.67,1.81,2.4,4.24,4.98,5.22.42.15.57.28.72.61.42.9,1.22,1.3,1.7,2.23.12.17.26.45.29.61.48.7,1.24.8,1.87,1.44.92.82,1.95,1.36,1.17,2.83Z"/><path class="cls-5" d="m314.17,325.88c-.26.3-.41.48-.73.73-2.26.44-3.4-.49-4.25-2.41-1.51-3.38-3.88-6.27-5.8-9.4-2.09-3.42-4.56-6-8.18-7.6-.65-.29-1.06-1.12-1.78-1.76-1.87-.67-3.04-2.02-4.56-3.15-.84-.89-1.29-1.8-1.98-2.8-2.28-1.47-3.11-3.69-4.19-6.01-1.02-1.58-1.21-3.18-1.67-4.94-.11-.69-.13-1.17-.06-1.87.19-.66.26-1.09.08-1.54-.54-1.33-.34-2.58,1.05-3.07,1.71-.59,1.94,1.08,2.44,2.1.49.99.88,2.05,1.08,3.41.24.92.38,1.61.62,2.54-.04,1.31.92,1.56,1.6,2.28.9,2.12,3.18,2.72,4.21,4.74,1.24,1.94,3.43,2.37,4.91,4.01.52.31.84.52,1.24.9.48.43.85.73,1.37,1.21.17.16.16.17.17.17.37.41.78.76,1.45,1.09.2.02.44.07.54.14.4.51.8.86,1.36,1.32.38.18.55.3.75.61.32.54.63.89,1,1.49.62.68,1.13,1.17,1.74,1.83.65,1.22.99,2.41,2.46,2.96.64,1.1,1.11,2.05,1.63,3.22,2.59,2.59,3.16,6.1,4.86,9.03-.16.17-.47.16-.62.15-.31.15-.47.32-.74.61Z"/><path class="cls-7" d="m376.64,77.37c.23.82.23,1.57.24,2.59.4,1.81-1.49,2.8-.94,4.6-.67,2.42-2.38,1.88-3.78,1.46-1.32-.39-2.52-.68-3.98.11-.63.14-1.06.07-1.47-.49-1.5-3.63-2.29-3.68-5.04-.36-1.23.57-2.26.59-3.51.01-.78-2.43-3.05-2.43-4.58-3.4-.9-.57-2.24-.47-2.66-2.05.85-1.75,2.39-2.29,3.94-2.41,5.51-.44,9.89-3.38,14.56-6.33,3.1-1.55,4.48-4.62,7.26-6.51.33-.11.44-.11.72-.1,1.55,1.91.33,3.85.17,6.02-1.43,4.26-4.67,6.89-7.7,10.01,1.87,1.04,2.82.05,3.75-.86.88-.86,1.42-2.1,3.03-2.29Z"/><path class="cls-9" d="m370.19,71.1c-1.7,2.07-4.02,2.82-5.9,4.16-3.92,2.8-8.75,2.37-13.16,4.26-1.62.01-2.97-.09-4.04,1.06-.29.31-.78.54-1.2.59-3.44.38-5.29,2.89-7.33,5.24-1.77,2.04-3.71,3.93-4.79,6.48-.19.45-.59.75-1.06.67-.66-.11-.81-.69-.87-1.27-.1-.92-.02-1.8.47-2.61,2.24-3.67,4.72-7.13,7.98-9.98.75-.65,1.62-.75,2.52-.81.78-.05,1.62.03,2.1-1.15,2.42-1.12,4.73-1.74,7.3-1.72,2.07.02,3.91-1.52,5.86-2.3,3.39-1.36,6.96-2.37,10.38-4.3,1.08.14,1.97.28,1.73,1.68Z"/><path class="cls-5" d="m91.6,408.1c.34.31.39.54.5.94-.65,1.62-1.68,2.36-3.41,2.42-3.9.13-7.34,2.21-11.12,2.89-.33.06-.73.39-.95.29-1.87-.88-3.35-.77-5.29.43-1.41.88-3.81.01-5.67.39-1.6.33-3.25-1.22-4.77.31-.28.28-.81-.33-.89-.77-.15-.86-.48-1.5-1.64-1.74-.71-.53-.75-1.07-.2-1.61,3.14-1.18,6.27-1.14,9.24-1.48,4.1-.47,8.25-.73,12.67-1.1.75-.11,1.12-.43,1.74-.76,3.3-.6,6.41-.37,9.79-.21Z"/><path class="cls-8" d="m274.99,73.15c2.27-.68.65-2.34.89-3.72.14-.23.33-.22.35-.15,1.53,4.75,6.24,6.05,9.62,8.76,1.91,1.54,4.09,2.84,6.32,3.88,3.47,1.62,3.94,1.21,4.96-1.52.21-.56.47-1.05,1.04-1.27.76-.29,1.57-.07,1.4.8-.38,1.94-1.77,3.7-1.03,5.85-2.3.9-1.29,3.43-2.39,4.89-1.22,1.62-.95,3.69-1.81,5.4-.35.7-.63,1.66-1.63,1.43-1.15-.26-1.01-1.34-1.02-2.24,0-1.08.56-1.99,1.08-2.84,1.05-1.72,1.4-3.75,1.42-5.53.02-2.05-2.69-2.25-4.07-3.43-2.05-1.76-4.87-2.2-7.18-3.74-2.85-1.9-5.62-3.77-7.95-6.58Z"/><path class="cls-9" d="m311.75,125.99c1.9-.47,2.99,1.17,4.77,1.17.69.12,1.1.27,1.68.62,5.81.6,11.42,1.41,17.03,1.49,2.72.04,5.53-.01,8.29-.35,1.15-.14,3.23-.75,3.33,1.08.07,1.3-1.9,1.07-3.08,1.29-10.01,1.92-19.88,1.63-29.57-1.83-1.07-.38-2.1-.78-3.31-1.44-.96-1.15-.28-1.62.85-2.02Z"/><path class="cls-8" d="m292.96,111.31c-.46,1.51.31,2.43,1.15,3.42,2.31,2.72,5.32,4.46,8.35,6.19.69.39,1.43.69,2.11,1.1.78.47,1.7.98,1,2.1-.62,1-1.8,1.47-2.61.68-1.27-1.22-2.99-1.51-4.28-2.66-2.59-2.32-5.11-4.74-8.18-6.48-1.32-.75-2.23-2.59-1.96-3.7.94-3.82.48-7.9,2.16-11.57.32-.7.32-1.7,1.46-1.47,1.26.26.98,1.17.9,2.13-.28,3-1.66,5.92-.52,9.26.49.34.64.55.43.99Z"/><path class="cls-9" d="m285.19,43.24c.19.9.07,1.69-.41,2.64-1.29.26-2.37.13-3.23,1.57-.98,1.65-1.94,1.92-3.9,2.35-.17-1.58.57-2.81,1.3-4.07.91-1.58.64-3.68-.82-4.39-3.29-1.61-5.37-4.42-7.77-7.24,1.16-.48,2.4-.75,3.91-1.04.28-.01.24.01.23,0,1.07,1,.64,2.76,1.86,3.87.93-.84.09-1.92.66-2.92.46-.2.77-.22,1.33-.25.24,0,.44.22.44.22,0,0-.03,0-.13-.1-.13-1.52-.19-2.95-.19-4.38,0-1.1-.01-2.23,1.27-3.1,1.49-.22,1.46.75,1.26,1.41-.39,1.27.28,1.83,1.35,2.53,1.91,2.56.68,5.53,1.82,8.28.36,1.02.26,1.71-.4,2.3-.62.55-1.74,1-1.19,2.03.54,1.01,1.58.12,2.61.29Z"/><path class="cls-9" d="m257.43,299.73c-.71.09-1.47-.05-2.55-.24.69,3.73,3.7,6.23,4.5,9.94-2.29-1.59-3.03-4.42-4.54-6.76-.92-1.42-1.69-2.93-2.54-4.4-1.36-2.35-3.47-3.55-6.11-3.67-1.52-.07-2.47-.63-3.31-1.9-1.16-1.78-2.59-3.39-3.95-5.3-.43-1.34.04-2.08,1.27-2.57,2.63,1.75,5.13,3.18,7.02,5.56,1.33,1.67,3.57,2.5,5.21,4.05,1.72,1.63,3.49,3.19,5.01,5.28Z"/><path class="cls-5" d="m290.99,309.85c.62-.41,1.14-.66,1.68-.77.64-.14,1.08.22,1.29.81.19.55-.14.82-.6,1-1.52.6-1.17,1.7-.74,2.81.5,1.29.47,2.43-.84,3.25-.39.24-.82.52-.82,1.01,0,2.5-.94,4.36-3.39,5.3-.67.26-.59.87-.36,1.44.37.88-.18,1.55-.6,2.18-.9,1.36-1.78,1.3-2.66-.2-.29-.5-.57-.96-1.3-1.37,0-1.78,1.5-2.81,2.18-4.54,1.1-1.5,1.91-2.9,3.11-4.29.37-.69.63-1.2,1-1.88.35-.64.66-1.05.99-1.67.35-1.08.66-1.97,1.06-3.08Z"/><path class="cls-8" d="m118.67,377.31c1.3-1.78,3.98-.91,4.73-3.12.03-.1.44-.19.6-.12,3.02,1.22,5.13-.7,7.41-2.1.57-.35,1.21-.6,1.79-.95,2.28-1.39,2.36-2.15.6-4.18-.5-.58-1.11-.7-2.05-.85-.06-1.19.05-2.28-.95-3.19-.4-.36-.75-.87-.91-1.38-.27-.87.11-1.55.98-1.88.72-.27,1.3-.13,1.63.67.21.52.67.97.75,1.49.47,3.15,2.33,5.5,4.68,7.94-5.88,4.01-12,6.91-18.88,8.86-.51-.27-.6-.6-.38-1.21Z"/><path class="cls-8" d="m81.58,388.66c-.11-.3.06-.59.31-1.02,4.97-.83,9.74-2.12,14.52-3.33,5.31-1.34,9.99-4.58,15.54-5.18,1.41-1.98,3.81-1.13,5.85-2.01.57.21.71.53.55,1.2-4.02,1.65-7.77,3.58-12.07,3.55-.53,0-1.14.24-1.58.56-4.36,3.12-9.77,3-14.59,4.72-2.6.93-5.49,1.04-8.53,1.5Z"/><path class="cls-9" d="m41.88,414.23c1.2,1.87,2.86,3.58,4.57,5.51-.15,1.11-.62,2.01.23,2.92-.14-.62-.03-1.12.42-1.73,2.51,2.13,2.59,3.42.57,5.54-1.04,1.09-1.68,2.76-3.93,2.44,1.52-2.24,1.62-2.34-.19-4.05-1.36-1.29-1.6-2.73-1.84-4.5-.27-2.01-.82-3.91.17-6.13Z"/><path class="cls-8" d="m350.4,94.45c-2.69,3.56-5.45,6.92-8.22,10.26-.38.45-.95.71-1.52.39-.73-.42-.72-1.2-.39-1.78,1.25-2.21,1.84-4.75,3.98-6.53,1.86-1.54,3.29-3.6,5.12-5.4.85.87.49,1.97,1.03,3.05Z"/><path class="cls-9" d="m298.24,398.45c-1.42,1.45-3.18,2.23-5.08,2.66-3.04.69-6.09,1.33-9.15,1.96-.57.12-1.08.27-1.41,1.11-1.95.38-3.67,1.31-5.7-.11-1.01-.71-3.09.84-4.94-.03,1.51-1.23,3.47-1.31,5.33-1.38,4.1-.14,7.97-1.31,11.91-2.24,2.74-.64,5.45-1.28,8-2.49.21-.1.61.2,1.04.52Z"/><path class="cls-3" d="m350.66,94.53c-2.25-.19-1.74-1.42-1.12-2.88,2.67-2.3,5.29-4.38,8.15-6.49,1.36-.07,2.48-.12,4.02-.02.49.41.49.67.19,1.01-2.68,1.91-5.19,3.73-7.67,5.57-1.16.86-2.26,1.79-3.58,2.8Z"/><path class="cls-9" d="m270.08,403.91c.14.36.02.88-.19.91-3.08.52-6.13,1.13-9.17,1.91-1.73.44-4.1.61-6.22-.17-1.87-.69-3.88-.79-5.96-.18-1.34.39-2.93.34-4.57-.32,3.32-1.71,7.14-1.69,10.69-1.18,3.62.52,6.97-.29,10.41-.6,1.56-.14,3.12-.41,5-.37Z"/><path class="cls-8" d="m314.36,103.27c-.42,1.32-1.14,1.96-2.19,2.27-3.32.98-6.32,2.83-9.99,3.62-1.35-.09-1.56-.79-1.16-1.97,3.06-1.51,6.02-2.51,8.75-4.1,1.1-.64,2.39-1.32,4.1-1.14.5.34.6.68.5,1.32Z"/><path class="cls-1" d="m368.28,86.3c.5-1.77,1.85-2.16,3.46-1.31,1.28.68,2.44,1.12,3.71-.28.38-.84.95-.97,1.85-1.04,1.87.59,3.13-.52,4.56-.76,2.67-.46,3.57.34,3.47,3.41-.14.4-.19.51-.36.66-2.53.04-4.99-.02-7.44.03-3.01.07-6-.03-9.24-.72Z"/><path class="cls-8" d="m285.79,287.54c-1.57-.55-1.3-2.23-1.92-3.47-.33-.65-.46-1.74-1.47-1.5-1.05.26-1.2,1.21-.85,2.17.2.54.39,1.05-.32,1.6-1.92-3.08-1.22-6.49-1.08-9.83.04-1.04.79-1.99,1.9-2.06.98-.06,1.86.88,1.75,1.7-.51,3.96,1.52,7.39,1.99,11.38Z"/><path class="cls-7" d="m299.03,389c.26.26.25.38.27.58-1.34,1.46-2.69,2.66-4.62.88-.26-.24-1.01-.31-1.27-.11-2.41,1.87-4.94.99-7.47.44-.43-.09-.87-.09-1.56-.15,1.77-3.22,4.84-1.26,7.05-2.16,2.45-1,4.91-.26,7.61.52Z"/><path class="cls-3" d="m223.64,182.07c-.39-.65-.18-1.28.32-1.8,5.02-5.22,8.78-11.43,13.17-17.13.36-.46.74-.84,1.55-1.03-.36,2.38-2.26,3.97-3.6,5.89-2.72,3.9-5.61,7.68-8.51,11.44-.75.97-1.8,1.71-2.93,2.63Z"/><path class="cls-9" d="m238.84,385.07c-.47,1.49-1.47,2.4-3.16,2.34-1.57-.05-2.45,1.47-3.93,1.62q1.52,4.16,5.03,5.05c-.98,1.33-2.46-.2-3.66.69-.08.06-.71-.31-.74-.53-.33-2.37-2.3-3.78-3.59-5.86,3.11-2.01,6.86-1.63,10.05-3.32Z"/><path class="cls-9" d="m263.05,315.88c2.58.28,4.36,1.61,5.34,4.25,1.53,4.14,2.46,8.45,3.87,12.61.17.5,0,1.11-.18,1.84-.7-.13-.87-.65-.96-1.23-.69-4.27-2.6-8.2-3.55-12.4-.3-1.35-1.12-2.48-2.36-3.21-.78-.46-1.59-.87-2.17-1.87Z"/><path class="cls-8" d="m240.39,284.68c-.67.6-.88,1.42-1.41,2.29-1.71-.83-3.89-1.15-4.33-3.62-.15-.87-2.06-.36-2.11-2.06,3.04.11,5.61,1.09,7.85,3.39Z"/><path class="cls-3" d="m211.31,194.95c-.43-1.48.86-2.09,1.64-3.01.87-1.01,2.16-1.73,2.15-3.32,0-.47.22-1.04.69-1.04,2.65,0,3.47-2.8,5.81-3.63.24.58-.03,1.07-.42,1.49-3.12,3.26-6.12,6.63-9.87,9.51Z"/><path class="cls-7" d="m300.94,106.92c.15.72.04,1.39.78,2.13-.12.88-.71,1.07-1.42,1.21-2.31.45-4.57,1.14-7.24,1.21-.3-.24-.31-.43-.34-.76,2.49-1.69,4.96-3.32,8.22-3.78Z"/><path class="cls-7" d="m314.51,103.5c-.29-.31-.33-.65-.38-1.26.55-.42,1.71.11,1.48-.96-.39-1.85.72-2.46,2-3.01,1.32-.56,2.7-1.02,4.13-1.55-.76,3.29-3.44,5.82-7.23,6.77Z"/><path class="cls-9" d="m187.57,401.7c-.87.99-2.22.74-3.35,1.26-.5.22-1.17.18-1.56-.32-.41-.52-.09-.98.19-1.51,1.01-1.92,1.02-2.15-1.02-2.74-1.3-.38-1.61-1.02-1.63-2.4,1.06,0,1.68,1.03,2.84,1.29,1.28.29,2.48.97,2.49,2.66,0,1.17,1.15,1.16,2.04,1.77Z"/><path class="cls-8" d="m265.63,378.66c.54-.25,1.03-.25,1.77-.2.21.88.39,1.74-.08,2.72-2.94,1.14-6.06.78-8.87,1.97-.61.26-1.23.5-2.1.83-.4-1.04-.28-1.89,1.17-2.04,1.55-.16,3.12-.39,4.6-.84,1.3-.39,3.04-.3,3.51-2.43Z"/><path class="cls-9" d="m239.37,405.95c.07.94-.16,1.84-.38,2.98-1.67.22-3.34.22-4.91-.49-.4-.18-.89-.3-.94-.82-.06-.72.58-.77,1.05-1.04,1.55-.9,3.26-.49,5.18-.63Z"/><path class="cls-8" d="m315.54,325.3c-.26-1.32-.62-2.3-2.25-1.72-.78.28-1.38.05-1.63-.7-.24-.74.48-.82.94-1.13,1.19-.8.34-1.68-.19-2.22-.79-.8-1.85-1.35-1.71-2.96,3.58,1.44,4.16,5.02,5.38,8.46-.13.27-.24.27-.53.26Z"/><path class="cls-9" d="m361.86,84.96c.54-3.17,2.14-4.07,4.73-2.59,1.35.78.27,1.72.04,2.82-1.16.46-2.29.7-3.67.94-.78-.06-.73-.54-.99-1.04-.13-.15-.11-.14-.11-.14Z"/><path class="cls-9" d="m271.73,352.1c1.2,4.76-1.26,9.49-6.02,11.28-.03-.41.09-1,.42-1.16,3.52-1.69,4.56-4.82,4.97-8.34.06-.55.28-1.08.63-1.78Z"/><path class="cls-9" d="m56.14,413.74c-.53.39-.89.56-1.38.87-.77.64-1.46.77-2.43.32-1.5-.23-2.89.02-3.82-1.56,2.25-.62,4.44-1.81,7.21-1.42.72.47.79,1,.42,1.79Z"/><path class="cls-9" d="m261.2,34.3c-1.82.25-2.98-.13-3.44-2.33-.4-1.87.35-2.38,1.86-3.01.17,1.8,1.42,3.3,1.58,5.34Z"/><path class="cls-8" d="m319.81,332c-1.52-.34-2.21-2.62-4.35-1.52-.39.2-.84-.24-1.01-.68-.2-.48.01-.87.46-1.1.74-.39,1.13-1.05,1.64-1.91,1.87,1.17,2.54,3.13,3.28,5.21Z"/><path class="cls-3" d="m334.41,359.2c-2.39.34-2.66-2.07-3.6-3.29-.77-1-1.73-2.62-1.68-4.54.8-.18,1.13.4,1.48,1.01,1.26,2.2,2.54,4.39,3.79,6.83Z"/><path class="cls-8" d="m359.62,358.41c.22-.28.44-.32,1-.37,2.69,1.69,1.07,4.28,2.57,6.78-3.77-1.99-4.11-2.7-3.57-6.41Z"/><path class="cls-9" d="m260.12,26.74c-.82-.49-.71-1.3-.6-2.06.22-1.4,1.41-1.59,2.5-1.78.97-.17,1.39.45,1.6,1.31.18.75.41,1.49.6,2.51-.7.12-1.25-.26-1.64-.82-1.53-2.22-1.72-.19-2.46.85Z"/><path class="cls-8" d="m73.93,390.98c.15-.73.44-1.34.77-1.94q1.39-2.56,3.82-.24c-.95,1.71-2.92,1.51-4.59,2.18Z"/><path class="cls-8" d="m239.8,393.18c2.09-1.05,4.06-2.95,7.03-3.1-1.46,2.41-3.85,3.39-7.03,3.1Z"/><path class="cls-8" d="m54.15,394.87c2.13-1.12,4.27-2.5,7.2-1.93.18.25.08.59-.06.61-2.4.22-4.52,1.72-7.14,1.33Z"/><path class="cls-9" d="m272.32,321c-1.28-1.99-2.78-3.86-3.26-6.48,1.7,1.68,3.54,3.54,3.26,6.48Z"/><path class="cls-3" d="m346.95,374.07c-.79.38-1.84.5-2.32-.35-.8-1.43-2.46-2.31-2.62-4.37,2.07.87,2.81,3.34,4.94,4.71Z"/><path class="cls-9" d="m304.65,396.12c-1.47,1.15-2.54,2.75-4.9,2.05,1.04-1.43,2.55-2.51,4.71-3,.42.35.41.6.18.95Z"/><path class="cls-9" d="m262.87,42.31c-.48.31-1.01.33-1.78.34.4-1.78.52-3.62.37-5.78.78-.29,1.24.06,1.27.87.05,1.42.07,2.85.14,4.57Z"/><path class="cls-8" d="m247.37,390.04c1.06-2.14,2.96-3.25,5.75-3.29-1.39,1.58-3.59,2.18-5.75,3.29Z"/><path class="cls-9" d="m242.95,383.6c.43.79-1.76,1.08-.08,2.06.78.46,1.03,1.3.16,1.9-1.07.75-1.62-.04-1.93-.96-.14-.41-.07-.88-.09-1.57.29-1.07.88-1.47,1.94-1.43Z"/><path class="cls-3" d="m324.19,342.07c-1.19-1.28-2.68-2.7-2.49-5.2,1.98.94,2.42,2.84,2.49,5.2Z"/><path class="cls-3" d="m328.86,350.34c-2.05-.89-2.53-2.93-3.11-5.16,1.34,1.29,2.75,2.8,3.11,5.16Z"/><path class="cls-9" d="m267.05,30.55q3.16-.16,3.26,3.03c-1.11-.74-2.18-1.77-3.26-3.03Z"/><path class="cls-9" d="m306.79,390.94c1.62,1.06,1.47,2.39-.11,3.83-.61.54-1.09.62-1.85.37-.22-.14-.23-.15-.24-.15.08-.45.17-.99.65-1.1,1.54-.35,1.35-1.58,1.55-2.94Z"/><path class="cls-8" d="m280.84,288.59c1.6.83,1.71,2.47,1.79,4.4-1.97-.64-1.91-2.39-1.79-4.4Z"/><path class="cls-8" d="m297.09,301.02c-2.11-.15-3.68-1.41-4.85-3.49,1.56.95,3.78,1.27,4.85,3.49Z"/><path class="cls-9" d="m278.34,330.11c-.1,1.35-.93,1.89-1.65.51-.57-1.1-1.42-2.25-1.13-3.81,1,.26,1.41.95,1.51,1.88.06.64.17,1.3,1.27,1.42Z"/><path class="cls-9" d="m193.71,403.78c-1.89,1.22-3.06-.43-4.56-1.5,1.61-.26,3.02.51,4.56,1.5Z"/><path class="cls-9" d="m253.85,375.3q.03,2.94-2.37,3.19c.1-1.42,1.04-2.38,2.37-3.19Z"/><path class="cls-8" d="m287.84,316.36c.05,1.77-1.01,3.05-2.65,4.15.02-1.74,1.08-3,2.65-4.15Z"/><path class="cls-8" d="m128.21,368.39c.59-.68,1.05-1.14,1.63-1.75.38-.23.63-.3,1.08-.39-.4,1.22.04,3.13-2.29,3.36-.49-.3-.6-.62-.42-1.21Z"/><path class="cls-8" d="m311.84,125.79c-.14.8-1.03.93-1.15,1.93-.47.24-.84.08-1.25-.43-.59-.62-.65-1.16-.29-1.99.96-.05,1.74.13,2.69.49Z"/><path class="cls-1" d="m56.21,413.98c-.22-.52-.2-1.02-.18-1.77.5-.93,1.18-.91,2.16-.63.16.49.07.86-.04,1.42-.36.91-1.01.99-1.93.98Z"/><path class="cls-8" d="m287.99,292.34c-.99-.12-3.11.77-1.87-1.85,1.09.15,1.64.74,1.87,1.85Z"/><path class="cls-8" d="m363.58,112.22c.35,1.45-.73,2.1-2.02,2.81-.6-1.64.65-2.15,2.02-2.81Z"/><path class="cls-3" d="m338.59,364.65c-1.45.06-2.32-.76-2.59-2.45,1.37.06,1.93,1.18,2.59,2.45Z"/><path class="cls-8" d="m309.14,312.8c-1.55.21-2.64-.34-2.49-2.46,1.28.14,1.55,1.49,2.49,2.46Z"/><path class="cls-8" d="m41.94,396.74c.3-1.73,1.58-1.11,2.9-.83-.54,1.26-1.68.68-2.9.83Z"/><path class="cls-8" d="m36.39,397.83c.63-1.26,1.84-.77,3.2-.81-.49,1.48-1.75,1.21-3.2.81Z"/><path class="cls-9" d="m309.12,124.93c.19.65.19,1.16.19,1.92-1.21.37-2.24.09-2.09-1.38.1-.92.85-1.16,1.9-.55Z"/><path class="cls-1" d="m355.16,348.28c-.17.46-.3.67-.56,1.01-.59.33-1.05.42-1.73.11-.68-.31-1.05-.6-1.23-1.36.71-.28,1.45-.31,2.46-.4.63-.06.9.09,1.06.63Z"/><path class="cls-9" d="m272.02,345.26c1.61.69,1.22,1.88.3,3.2-.64-.88-.52-1.9-.3-3.2Z"/><path class="cls-8" d="m274.89,66.41c-1.19-.21-1.52-1.19-1.72-2.47,1.27.12,1.93.9,1.72,2.47Z"/><path class="cls-9" d="m266.75,310.77c-1.22-.02-1.37-1.09-1.87-2.11,1.49-.34,1.91.59,1.87,2.11Z"/><path class="cls-8" d="m269.58,56.12c-1.39-.08-1.66-1.15-1.79-2.53,1.06.32,1.92.97,1.79,2.53Z"/><path class="cls-8" d="m49.19,395.16c1.02-.33,2.04-.51,3.22-.56-.62,1.02-1.77,1.09-3.02,1.37-.22-.26-.21-.46-.2-.81Z"/><path class="cls-8" d="m286.75,299.58c1.42-.19,1.64.99,2.04,2.25-1.25.02-1.89-.76-2.04-2.25Z"/><path class="cls-3" d="m349.44,376.95c-1.08.08-1.73-.46-1.84-1.77.97,0,2.02.15,1.84,1.77Z"/><path class="cls-8" d="m366.03,110.82c-.27.13-.4.15-.71.24-.18.06-.37,0-.46-.02.36-.93.29-2.12,1.59-2.67.21.47.2.93.19,1.61-.08.47-.23.64-.61.83Z"/><path class="cls-9" d="m246.99,381.41c-.09,1.31-1.17,1.55-2.48,1.79.12-1.27,1.26-1.44,2.48-1.79Z"/><path class="cls-9" d="m250.98,378.48c-.09,1.02-.93,1.57-2.04,2.1-.34-1.43.7-1.78,2.04-2.1Z"/><path class="cls-8" d="m370.38,103.91c.38,1.1.46,2.23-1.55,2.17.06-.87.54-1.6,1.55-2.17Z"/><path class="cls-9" d="m260.94,312.48c1.37.03,1.59,1.14,1.85,2.46-1.2-.16-1.51-1.21-1.85-2.46Z"/><path class="cls-9" d="m265.88,47.33c-.8-.08-2.05.53-1.95-1.08.84.05,1.83-.29,1.95,1.08Z"/><path class="cls-8" d="m364.29,383.9c.18,1.63-.89,1.51-2.19,1.13.29-1,1.21-.86,2.19-1.13Z"/><path class="cls-9" d="m274.06,323.79c-.82-.08-1.34-.58-1.7-1.46,1.06-.34,1.82-.05,1.7,1.46Z"/><path class="cls-3" d="m321.51,335.97c-1.51.04-1.23-1.12-1.26-2.36.97.25,1.32,1.08,1.26,2.36Z"/><path class="cls-8" d="m355.3,353.45c.83.31,1.15,1.11,1.12,2.29-1.43,0-1.07-1.13-1.12-2.29Z"/><path class="cls-8" d="m20.06,402.91c-.04-1.13.75-1.2,1.9-1.07-.14.82-.8,1.15-1.9,1.07Z"/><path class="cls-8" d="m352.62,349.43c.5-.15.94-.11,1.61-.05.06.35-.1.66-.43,1.06-.71,0-1.15-.21-1.18-1.02Z"/><path class="cls-9" d="m264.03,44.53c-1,.02-1.16-.67-1.14-1.7,1.16-.2,1.23.6,1.14,1.7Z"/><path class="cls-9" d="m260.6,303.28c-.91.07-1.15-.55-1.2-1.53.86-.07,1.06.61,1.2,1.53Z"/><path class="cls-8" d="m351.55,378.99c-.81.28-1.44-.04-1.91-.99.66-.02,1.53-.13,1.91.99Z"/><path class="cls-9" d="m258.67,371.31c.12.75.07,1.52-1.13,1.69-.12-.75.27-1.3,1.13-1.69Z"/><path class="cls-7" d="m26.08,400.93c-.03-.62.2-1.17,1.17-1.11.05.67-.25,1.13-1.17,1.11Z"/><path class="cls-8" d="m17.29,404.1c-.02-.64.36-.95,1.2-.93-.04.53-.38.94-1.2.93Z"/><path class="cls-8" d="m12.7,421.41c-.66.02-.99-.37-.96-1.23.61,0,1,.36.96,1.23Z"/><path class="cls-9" d="m264.96,27.83c.65-.18,1.15.07,1.25,1.05-.63.12-1.01-.26-1.25-1.05Z"/><path class="cls-9" d="m81.82,408.14c.03.68-.35,1.04-1.24.98.05-.56.41-.97,1.24-.98Z"/><path class="cls-9" d="m46.56,411.71c-.44.23-.89.18-1.38-.36.54-.75.99-.47,1.38.36Z"/><path class="cls-8" d="m272.84,62.34c-.64.03-.99-.33-1.04-1.15.63-.06,1.08.24,1.04,1.15Z"/><path class="cls-9" d="m268.82,313.51c-.53.15-.95-.06-1.22-.74.6-.35,1.04-.13,1.22.74Z"/><path class="cls-9" d="m259.61,310.4c.66-.11,1.1.2,1.14,1.12-.63.07-1.02-.29-1.14-1.12Z"/><path class="cls-8" d="m304.98,308.06c-.65.09-1.05-.24-1.1-1.12.63-.08,1.05.25,1.1,1.12Z"/><path class="cls-8" d="m303.2,305.87c-.64.26-1.19.1-1.37-.91.62-.18,1.07.12,1.37.91Z"/><path class="cls-8" d="m301.27,304.36c-.58.38-1.17.33-1.5-.71.55-.17.99.14,1.5.71Z"/><path class="cls-8" d="m299.72,303.19c-.57.21-1.08.05-1.38-.77.6-.29,1.1-.09,1.38.77Z"/><path class="cls-8" d="m289.8,312.85c.35.51.3,1.06-.53,1.5-.39-.56-.1-1,.53-1.5Z"/><path class="cls-8" d="m359.47,116.96c.31.62.14,1.16-.82,1.42-.23-.61.08-1.05.82-1.42Z"/><path class="cls-3" d="m241.34,158.62c-.32.1-.46.1-.79.1-.12-.75.17-1.3,1.28-1.3.07.38-.12.75-.49,1.2Z"/><path class="cls-8" d="m318.31,127.7c-.4.23-.87.22-1.41-.31.49-.68.94-.42,1.41.31Z"/><path class="cls-8" d="m352.06,125.94c.3.51.16.99-.49,1.41-.53-.56-.29-1.01.49-1.41Z"/><path class="cls-8" d="m254.85,385.92c-.15-.58.1-1.02.86-1.28.3.64.06,1.11-.86,1.28Z"/><path class="cls-8" d="m70.47,391.75c.08-.6.44-.85,1.2-.83-.02.61-.31,1.11-1.2.83Z"/><path class="cls-8" d="m64.33,392.98c.12-.53.48-.73,1.16-.73.02.65-.28,1.11-1.16.73Z"/><path class="cls-9" d="m261.12,368.8c.35.58.27,1.16-.7,1.5-.26-.58.06-1.02.7-1.5Z"/><path class="cls-9" d="m266.88,51.33c-.64.12-1.26,0-.92-1,.58.02.83.34.92,1Z"/><path class="cls-9" d="m265.26,363.43c.32.55.22,1.07-.6,1.44-.34-.56-.07-1.01.6-1.44Z"/><path class="cls-3" d="m340.64,367.39c-.66.15-1.17-.1-1.23-1.09.59-.05,1,.32,1.23,1.09Z"/><path class="cls-7" d="m118.37,378.59c-.19-.34-.23-.67-.3-1.26.1-.25.23-.26.56-.25.2.33.2.66.18,1.23-.02.24-.3.29-.44.29Z"/><path class="cls-1" d="m361.79,85.16c.3.07.56.34.87.8-.11.22-.27.26-.69.28-.24-.3-.23-.59-.18-1.08Z"/><path class="cls-6" d="m279.73,368.03c-.63-.86-1.36-1.01-2.2-1.09-1.08-.1-2.22.3-3.33-.3.55-1.17,1.07-2.27,1.57-3.61.31-.91.64-1.57,1-2.45.15-.93.46-1.58.88-2.41.28-.75.44-1.33.75-2.07,1.85-1.51,3.48-.23,5.39.03,1.8-.11,2.99.96,4.65,1.28,1.54.56,2.8,1.17,4.31,1.76,3.55,2.3,3.61,2.46,2.08,5.88-1.05,2.46-3.3,1.64-5.17,2.23-.54-.15-.82-.24-1.32-.32-1.92.59-3.76.39-5.66,1.06-1.04.07-1.87.05-2.95.01Z"/><path class="cls-8" d="m282.79,368.15c1.07-1.97,3.19-1.33,5.2-1.39.02,1.2-.65,1.45-1.52,1.45-1.12-.01-2.24-.01-3.67-.06Z"/><path class="cls-8" d="m289.48,367.42c1.36-1.26,3.38-.73,5-2.05.45.76.29,1.7-.53,1.88-1.42.31-2.86,1.03-4.47.17Z"/><path class="cls-8" d="m283.91,355.96c-1.56,1.2-3.15-.5-5.1-.01-.11-1.29.82-1.32,1.76-1.25,1.14.09,2.19.54,3.34,1.26Z"/><path class="cls-8" d="m292.9,359.07c-1.53.43-2.8-.25-4.1-1.39,1.46-.33,2.9-.02,4.1,1.39Z"/><path class="cls-8" d="m277.53,358.06c.43.74.35,1.48-.53,2.18-.48-.72-.63-1.53.53-2.18Z"/><path class="cls-8" d="m288.11,371.43c-.46.26-.96.29-1.7.35.24-1.61.4-1.66,1.7-.35Z"/><path class="cls-8" d="m268.98,371.1c.03.35-.12.67-.48,1.16-.92-.6-.68-1.03.48-1.16Z"/><path class="cls-8" d="m281.94,349.6c.33-.16.73-.15,1.27,0-.28.86-.73.86-1.27,0Z"/><path class="cls-8" d="m291.61,352.68c.36-.12.73-.03,1.21.23-.47,1.19-.89.99-1.21-.23Z"/><path class="cls-4" d="m321.55,239.1c.06-1.54-.15-2.74-.52-3.94-.28-.91-.19-1.89,1.09-1.99,1.21-.09,1.67.57,1.29,1.7-.51,1.52.27,2.86.57,4.25.23,1.11.03,1.87-1.04,2.05-1.32.22-1.34-.85-1.38-2.06Z"/><path class="cls-4" d="m324.39,243.37c1.09.66,1.37,1.46,1.24,2.44-.08.6-.37,1.08-.92,1.33-.61.27-1.08-.05-1.46-.5-.37-.42-.7-.89-1.09-1.28-.64-.64-.29-1.21.03-1.82.54-1.03,1.25-.67,2.21-.16Z"/><path class="cls-8" d="m355.26,348.51c-.28-.21-.43-.43-.73-.79.11-.29.38-.44.8-.61.35.13.54.26.85.73-.19.44-.49.54-.93.66Z"/><path class="cls-6" d="m326.15,242.28c-.63.09-.92-.16-.87-.69,0-.08.15-.2.24-.21.56-.08.77.22.63.9Z"/><path class="cls-9" d="m289.77,14.75c.97,2.11,1.74,4.13,2.51,6.4-.23.41-.31.62-.1,1.03.2.31.24.48.28.79-.5.59-.97,1.08-.62,1.86.34.75.37,1.53.31,2.6-2.49.28-2.16-2.93-4.44-3.53-1.52-1.59-1.11-3.27-.79-4.89.33-1.68.09-3.08-1.54-4.31.35-1.81,1.15-2.49,2.66-1.24.5.41,1.02.79,1.73,1.29Z"/><path class="cls-9" d="m297.42,37.03c.14.54.07,1.08-.39,1.19-2.12.51-4.1,1.6-6.63,1.6-.8-1.09-1.48-1.99-2.9-2.44-.43-.85-.19-1.45.27-2.26.67-.69,1.29-.98,2.19-1.29,1.6-.24,2.92-.79,4.54-.37.61,1.57,1.8,2.42,2.92,3.56Z"/><path class="cls-1" d="m294.75,33.6c-1.36,0-2.44,1.13-4.09.82-2.01-1.34-1.81-3.52-2.59-5.55-.18-1.13-.13-2.02-.45-3.12-.12-.8-.06-1.32.37-2.01,1.1-.28,1.89-.27,2.21.88.29,1.04.73,2.05,1.73,2.96.64,1.63,1.49,2.86,2.93,3.94.5.64.58,1.15.17,1.89-.2.18-.25.19-.28.19Z"/><path class="cls-8" d="m383.74,57.9c-1.58,1.27-3.45,1.61-5.33,1.73-2.5.16-4.23-1.12-4.81-3.27-.16-.6.06-1.08.81-1.49.93.15,1.18.84,1.65,1.31.75.76,1.65,1.43,2.68.83.97-.56.52-1.6.27-2.71-.12-1.33-1.03-2.71,1.15-2.99,2.17.93,3.93,1.8,2.94,4.51-.18.48.37,1.23.64,2.08Z"/><path class="cls-9" d="m354.93,42.5c-1.61-.73-3.82-.95-4.25-3.4-.13-.73-1.46-.49-1.86-1.55,3.29-.33,4.77.84,6.11,4.96Z"/><path class="cls-9" d="m380.31,51.19c-1.83.48-.41,1.85-.72,2.87-1.36.92-2.43-.65-3.93-.38-.16-.42-.14-.7-.11-1.18.09-.34.16-.47.08-.76-.15-.16-.13-.34-.11-.43,1.53-1.46,2.52-1.52,4.79-.12Z"/><path class="cls-9" d="m305.68,34.2c-.23,1.19-1.03,1.56-2.31,1.54-.79.64-1.38,1.22-2.35,1.72-.59.12-.92.05-1.28-.37,1.01-2.62,2.43-3.31,5.94-2.89Z"/><path class="cls-9" d="m372.78,51.04c-2.2.83-4.32-.04-6.65-.75.77-1.1,1.66-1.76,2.91-.53.97.97,2.69-.2,3.75,1.28Z"/><path class="cls-9" d="m317.41,30.52c-.92,2.1-2.95,1.81-5.13,1.86.91-2.02,2.83-2.11,5.13-1.86Z"/><path class="cls-8" d="m389.82,53.84c2.07.65,1.22,2.5,1.33,4.29-.63.14-1.2-.09-1.05-.78.24-1.13-.42-2.16-.28-3.51Z"/><path class="cls-9" d="m333.9,24.91c.78-.64,1.42-1.52,2.6-.84-.86,2.14-1.5,2.36-2.6.84Z"/><path class="cls-9" d="m330.48,28.53c-1.17.47-2.43.75-3.94.96.8-1.61,2.24-1.72,3.94-.96Z"/><path class="cls-9" d="m300.56,31.85c.92-.79,1.92-1.79,3.39-.61-1.03.26-2.04,1.03-3.39.61Z"/><path class="cls-9" d="m324.82,29.41c-.4,1.07-1.3.86-2.39.8.19-1.44,1.17-1.32,2.39-.8Z"/><path class="cls-9" d="m321.73,26.18c-.1-1.57,1.14-1.14,2.31-1.31.12,1.51-.97,1.42-2.31,1.31Z"/><path class="cls-9" d="m361.19,46.46c-.89-.02-1.36-.76-1.98-1.61,1.86-1.31,1.66.37,1.98,1.61Z"/><path class="cls-7" d="m299.3,40.31c-.87.19-1.51.08-1.34-.88.12-.64.27-1.28.42-2.18.01-.27.31-.38.47-.35.26.18.37.34.62.74.38,1,.34,1.73-.16,2.68Z"/><path class="cls-9" d="m364.56,49.24c-1,.18-1.63-.39-2.08-1.5,1.08-.33,1.77.18,2.08,1.5Z"/><path class="cls-9" d="m295.06,33.63c-.19-.51-.14-.98-.08-1.69,1.58.53,1.61.75.08,1.69Z"/><path class="cls-9" d="m340.7,32.67c-.74.36-1.54.51-2.07-.66.71-.25,1.52-.39,2.07.66Z"/><path class="cls-9" d="m357.77,44.16c-.72.52-1.49.63-2.09-.52.68-.29,1.46-.42,2.09.52Z"/><path class="cls-9" d="m297.54,31.14c.35-.05.53.06.76.36-.13.51-.42.81-.86.54-.29-.19-.23-.51.11-.89Z"/><path class="cls-9" d="m348.2,36.88c-.58.29-1.1.12-1.47-.69.58-.32,1.14-.24,1.47.69Z"/><path class="cls-8" d="m376.3,44.87c.15-.51.52-.66,1.16-.64,0,.65-.26,1.16-1.16.64Z"/><path class="cls-1" d="m299.37,38.18c-.27-.32-.29-.51-.34-.97.08-.32.2-.35.49-.38.46.04.75.08,1.25.1.32.14.43.3.48.73-.51.67-1.05.76-1.87.52Z"/><path class="cls-3" d="m339.68,202.36c.25,1.05.5,2.11,0,3.37-.5-.2-.81-.65-1.2-1.02-.57-.55-1.94-.66-1.44-1.79.4-.91,1.57-.38,2.64-.56Z"/><path class="cls-3" d="m336.67,219.44c.43.28.46.68.14,1.24-.79-.23-.9-.66-.14-1.24Z"/><path class="cls-3" d="m341.25,173.82c.33.23.52.57.68,1.11-.62.02-1.29-.11-.68-1.11Z"/><path class="cls-3" d="m341.2,171.1c.62.16.72.55.35,1.14-.59-.16-.83-.5-.35-1.14Z"/><path class="cls-6" d="m347.69,384.12c-.72.05-1.22.04-1.97.08-.69-.48-1.02-1.08-.55-1.74.47-.67,1.16-.56,1.79-.24.78.39,1.64.66,2.29,1.54-.5.11-.92.2-1.55.36Z"/><path class="cls-4" d="m137.44,274.34c.8-.32,1.52-.35,1.88-1.29.05-.19.31-.33.44-.37,2.21.25,1.88,1.91,1.53,3.06-1.03,3.4-2.31,6.72-3.52,10.07-.18.49-.68.51-1.37.49-.36-.46-.48-.9-.67-1.55.14-.84.35-1.47.57-2.1.33-.93.02-1.5-1.22-1.74-.1-.56-.08-1.22.26-1.58.96-1.01,1.75-1.94,1.08-3.49-.22-.52.45-.95,1.01-1.49Z"/><path class="cls-4" d="m172.05,227.15c.25-.7.54-1.15.91-1.78.54-.46.99-.73,1.61-1.13,1.46.05,1.85.87,1.47,2.01-.16.49-.72.83-.98,1.3-.4.74-.42,1.97-1.55,1.86-.96-.1-1.12-1.21-1.46-2.26Z"/><path class="cls-5" d="m162,239.87c-.16.05-.18-.28-.18-.45.14-.16.27-.15.61-.1.09.23-.07.39-.43.55Z"/><path class="cls-9" d="m257.63,44.67c-.4-1.02-.3-1.94.95-2.59.69,1.07,1.59,2.38-.95,2.59Z"/><path class="cls-9" d="m254.83,30.33c-.17-.11-.18-.23-.14-.52.36-.13.73-.16.85.23,0,.03-.35.18-.71.29Z"/><path class="cls-9" d="m260.82,42.64c-.06.02-.11.05-.08.05.09-.03.08-.04.08-.05Z"/><path class="cls-7" d="m161.64,395.31c-.08-.49.13-.72.52-.71.07,0,.18.16.19.25.03.41-.18.6-.71.46Z"/><path class="cls-6" d="m47.15,420.67c.04,1.18.57,2.11.74,3.11.11.64-.22,1.19-.92,1.09-1.14-.17-1.15-1.26-1.43-2.08-.34-.98-1.43-2.08.69-2.78.44.15.61.34.92.67Z"/><path class="cls-2" d="m52.04,415.01c.74-.25,1.41-.26,2.33-.26.22,1.11-.54,1.63-1.63,2.15-.89-.33-1.08-.91-.7-1.9Z"/><path class="cls-8" d="m31.32,435.91c-.02,1.41-1.06,1.41-2.38,1.33-.06-1.58,1.06-1.41,2.38-1.33Z"/><path class="cls-1" d="m38.2,434.84c-.67.44-1.22.28-1.92-.26-.03-.77.31-1.42,1.02-1.4.79.02.95.72.9,1.66Z"/><path class="cls-8" d="m45.79,436.17c-.28.47-.61.73-1.14,1.05-.14-1.94-.09-1.98,1.14-1.05Z"/><path class="cls-8" d="m189.2,209.6c.36-.24.58-.33.97-.47.31,1.46-.55,2.01-2.14,2.12-.04-.67.56-1.03,1.18-1.65Z"/><path class="cls-9" d="m128.1,368.19c.26.3.27.61.28,1.16-.68,1.92-2.53,1.89-3.81,2.6-.98.54-.84-.89-1.04-1.78,1.43-.8,2.87-1.38,4.57-1.98Z"/><path class="cls-9" d="m91.57,380.26c.64-.13,1.12-.16,1.83-.18-.25,1.63-1.67.95-2.98,1.18.15-.31.57-.6,1.15-1Z"/><path class="cls-9" d="m99.04,378.65c.2-.36.43-.53.87-.68.59.55.6,1.14.05,1.48-.5.32-.77-.14-.92-.81Z"/><path class="cls-9" d="m87.54,382.13c.23-.33.57-.52,1.11-.7.03.63-.16,1.21-1.11.7Z"/><path class="cls-7" d="m385.39,86.5c-.65-3.11-1.68-3.75-4.5-2.35-1.03.51-1.91,1.16-3.21.22-.19-1.24.68-1.45,1.35-1.78,3.88-1.88,6.39-5.21,9.17-8.61.51-.26.84-.27,1.33,0,.22.46.28.73.38,1.2.08.52.09.83.05,1.38-.02.75-.02,1.26-.03,2.02-.07.65-.18,1.03-.41,1.58-.51,1.83-.95,3.48-1.92,5.21-.77.49-1.39.77-2.21,1.14Z"/><path class="cls-7" d="m366.13,110.94c-.1-.2.04-.38.34-.65.59.01,1.05.04,1.45.2.76.3.82.96.65,1.64-.04.17-.27.39-.42.41-.79.06-.65-.72-.97-1.1-.2-.23-.53-.34-1.04-.51Z"/><path class="cls-6" d="m375.89,104.13c.44,1.14.4,2.09-1.38,1.96-.8-1.4-.14-1.91,1.38-1.96Z"/><path class="cls-3" d="m299.81,379.31c.96-.1,1.9.09,2.95.7.51.3.79.53,1.18.91-.94.86-2.1,1.06-3.58,1.02-.46-.05-.67-.11-.75-.47.15-.83.17-1.36.21-2.16Z"/><path class="cls-3" d="m304.58,395.2c.5-.24.96-.28,1.65-.32.42.57,1.2,1.12.52,1.76-.6.56-1.24.06-2.04-.31-.2-.36-.18-.64-.14-1.12Z"/><path class="cls-3" d="m291.51,405.9c-.19.54-.56.64-1.17.58,0-.71.12-1.5,1.17-.58Z"/><path class="cls-3" d="m296.93,403.17c.14.55.18,1.24-.59,1.18-.4-.03-.29-.5-.19-1.01.21-.19.37-.19.78-.17Z"/><path class="cls-6" d="m299.52,381.22c.26.08.3.22.46.54.03.48-.04.78-.19,1.29-.52.05-.78-.3-1.02-.95.13-.42.33-.62.75-.88Z"/><path class="cls-7" d="m26.3,398.59c.07-.05.09.14.09.14,0,0-.15-.09-.09-.14Z"/><path class="cls-8" d="m157.84,241.39c-.08-.41-.04-.64.08-1.03.63-.4,1.18-.5,1.78.19-.14,1.28-.72,1.61-1.85.84Z"/><path class="cls-7" d="m386.57,72.15c-.13-1.11-.13-2.06-.12-3.31.26-.5.55-.58,1-.29.18,1.1.24,2,.17,3.31-.38.5-.64.51-1.04.3Z"/><path class="cls-8" d="m389.73,73.92c-.3.21-.57.17-1.05.13-1.4,0-1.31-.8-1.06-1.85.15-.25.17-.23.16-.23,1.09.06,1.83.53,1.95,1.95Z"/><path class="cls-9" d="m391.44,74.69c-.22-.18-.25-.4-.21-.62.09-.6-.26-1.41.66-1.65.14-.04.46.16.5.3.25.81.25,1.57-.95,1.98Z"/><path class="cls-8" d="m390.17,76.75c-.79-.24-.98-.63-.39-1.28.48-.26.79-.43,1.27-.66.17-.06.16-.08.15-.08.02.78.17,1.6-1.03,2.02Z"/><path class="cls-8" d="m389.63,80.27c-.35-.37-.37-.79.1-1.33.83.4.68.85-.1,1.33Z"/><path class="cls-8" d="m387.63,68.46c-.31.23-.56.19-.99.11-.16-.59-.02-1.09.72-1.46.24.3.29.68.28,1.35Z"/><path class="cls-5" d="m8.2,419.38c-.15.07-.43-.05-.85-.37.15-.08.43.05.85.37Z"/><path class="cls-4" d="m288.58,28.18c.71,1.99,1.48,3.77,1.76,5.96-.52.49-1.11.71-1.93.95-2.31-.83-2.88-2.66-3.15-4.61-.35-2.56-.98-5.1-.64-7.89-2.03,2.38-.03,5.61-2.3,7.81q-2.68-.42-1.91-2.56c.15-.43.13-.87-.27-1.43-.11-.86-.05-1.58-.02-2.56.34-.87.05-1.5.09-2.36.07-2.49,2.64-3.04,3.21-5.19.3-.62.62-.96,1.17-1.41.19-.15.43-.28.55-.35,3.02.37,3.48.91,2.95,3.77-.3,1.62-1.02,3.18-.11,5.04.18.69.17,1.2.18,1.96,0,1.08-.18,1.93.42,2.87Z"/><path class="cls-4" d="m276.97,33.71c.45.97.8,1.81.91,2.67.1.72.26,1.67-.71,1.99-1.07.36-1.57-.45-2.07-1.23-.7-1.11-.72-2.31-.61-3.82.76-.1,1.52.08,2.48.39Z"/><path class="cls-9" d="m280.08,21.35c.52.61,1.62,1.23.22,2.17-.88-.6-2.18-1.21-.22-2.17Z"/><path class="cls-9" d="m284.55,14.77c.1.54-.12,1.02-.92,1.25-.3-.67-.03-1.11.92-1.25Z"/><path class="cls-4" d="m292.31,22.09c-.25.04-.61-.09-.17-.6.15.07.16.22.17.6Z"/><path class="cls-5" d="m345.84,51.51c1.29.07,2.32.1,3.33.17.61.04,1.1.38,1.31.93.23.6-.07,1.2-.57,1.47-2.1,1.11-3.21,2.77-3.24,5.17-.01.8-.71,1.1-1.31,1.42-1.64.86-2.9,2.15-4.06,3.56-2.32,2.83-5.98,2.92-8.31.08-.91-1.11-1.58-2.36-1.97-3.87-.65-2.5-.43-4.98-.35-7.44.1-3.03,4.48-6.03,7.49-5.35,2.34.53,4.48,1.48,6.24,3.18.31.3.77.45,1.44.69Z"/><path class="cls-3" d="m387.54,71.96c.26.6.18,1.24.74,1.93-2.09,4.79-5.5,8.18-10.6,10.1-.66.24-1.17.3-1.93.43-2.05-1.87.17-2.6,1.01-3.98,1.12-.21,1.74-.93,2.63-1.62.57-.41.93-.73,1.46-1.2,1.88-1.86,3.57-3.57,5.42-5.45.45-.18.74-.19,1.26-.21Z"/><path class="cls-8" d="m299.11,38.29c.51-.29,1.01-.32,1.75-.37.68-.44,1.2-.59,2.05-.36,3.04-.09,5.89-.04,8.6-.63,1.48-.32,2.64.14,4.21.3.78.41.86.93.52,1.74-3.45,1.48-6.89,1.8-10.3,1.52-2.12-.17-4.17.06-6.53.04-.29-.67-.3-1.33-.3-2.25Z"/><path class="cls-3" d="m376.97,77.21c-1.17.74-1.77,1.66-2.39,2.62-.89,1.38-2.2,2.24-3.88,2.36-.85.06-1.57-.31-1.89-1.13-.3-.75.19-1.21.75-1.67.96-.77,1.79-1.71,2.76-2.45,1.91-1.45,2.92-3.53,4.31-5.58.49-.31.81-.41,1.38-.19.43,2.15.25,4.09-1.06,6.04Z"/><path class="cls-4" d="m287.12,36.96c.77.14,1.31.2,1.85.17,1.88-.09,1.95.83,1.2,2.43-.36.46-.68.67-1.17.96-1.38.67-2.42,1.47-3.44,2.64-.15.16-.16.15-.15.16-.28.17-.59.32-.84.53-1.03.84-2.15,1.49-3.09.06-.82-1.24.04-2.76,1.67-3.42.29-.12.53-.37.88-.8.26-1.9,1.24-2.72,3.1-2.74Z"/><path class="cls-8" d="m309.17,45.18c.13.73.02,1.44-.5,1.63-2.92,1.08-5.07,3.37-7.74,4.82-1.28.69-1.82.32-1.91-1.09-.08-1.31.6-2.23,1.54-2.82,1.87-1.17,3.71-2.54,6.39-2.42.8-.38,1.36-.5,2.21-.12Z"/><path class="cls-8" d="m370.3,71.3c-.22-.8-.74-1.24-1.47-1.78,2.13-2.06,4.26-4.09,6.46-6.34.48-.32.79-.41,1.37-.2.21.44.21.75.22,1.27-.05,1.07-.47,1.73-1.08,2.28-1.39,1.26-3.15,2.15-3.72,4.19-.14.51-.96.51-1.78.57Z"/><path class="cls-4" d="m375.33,53.66c.47-.2.9-.18,1.07-.38,1.18-1.38,1.72-.62,2.2.58.06.16.35.23.76.38,1.35,1.21,1.38,2.73.43,3.69-1.08,1.1-2.54.25-3.77-.35-.93-.46-1.22-1.28-1.32-2.51.12-.61.3-.95.63-1.41Z"/><path class="cls-8" d="m378.51,71.25c-.57.07-.87.07-1.4.07-.49-2.14.35-4.16.46-6.54.65-.22,1.64-.4,1.73.37.24,2.03.98,4.16-.79,6.11Z"/><path class="cls-7" d="m316.3,39.3c-.25-.59-.25-1.08-.29-1.81,1.2-.25,2.43-.28,3.65-.26.46,0,.87.19,1.02.7.19.66-.18,1.03-.68,1.35-1.13.72-2.28.83-3.71.02Z"/><path class="cls-7" d="m309.65,45.36c-.78,0-1.32-.01-2.14-.05.41-2.08,1.94-1.25,3.25-1.01.25.05.38.56.04.78-.25.17-.61.19-1.14.27Z"/><path class="cls-9" d="m285.63,43.32c.02-1.67,1.01-2.56,2.94-2.71-.48,1.18-1.36,2.2-2.94,2.71Z"/><path class="cls-8" d="m297.71,53.69c-.93.52-1.7.73-1.9-.39-.11-.63.4-.98,1-.99.8-.02,1.67-.02.9,1.38Z"/><path class="cls-7" d="m303.16,37.45c-.51.31-1.02.39-1.79.46-.27-.17-.29-.33-.35-.75.13-1.2.81-1.42,1.87-1.42.24.49.25.97.26,1.7Z"/><path class="cls-7" d="m377.04,62.99c-.47.14-.77.15-1.3.15-.09-.7-.57-1.82.69-1.77.71.03,1.16.65.61,1.62Z"/><path class="cls-7" d="m380.83,77.49c.16.62-.04,1.15-1.01,1.22-.14-.63.1-1.11,1.01-1.22Z"/><path class="cls-7" d="m375.5,51.75c.3-.12.55-.01.18.45-.13-.04-.15-.16-.18-.45Z"/><path class="cls-3" d="m322.5,345.75c.5-.64.82-.42.99.09.1.31.04.74-.34.73-.23,0-.45-.41-.65-.82Z"/><path class="cls-8" d="m314.21,325.93c-.03-.11.1-.31.38-.58.03.11-.1.31-.38.58Z"/><path class="cls-1" d="m287.45,36.89c-1.33.51-2.12,1.45-3.17,2.43-1.61-.18-1.65-1.28-1.6-2.44.08-1.99.21-3.99-.56-6.18,1.08-1.81.51-3.58.56-5.23.06-2.17.78-3.85,2.88-5.3-.06,5.24-.75,10.22,2.5,14.74-.08.74-.29,1.27-.6,1.99Z"/><path class="cls-1" d="m278.56,33.77c.21,0,.43-.01.65-.02.71-.02,1.34.15,1.4.98.03.43-.24.86-.73.94-1.12.18-1.19-.64-1.28-1.67,0-.26-.02-.25-.03-.24Z"/><path class="cls-4" d="m280.16,37.83c.23-.48.52-.55.77-.26.09.11.09.43,0,.53-.26.28-.54.21-.77-.28Z"/><path class="cls-6" d="m279.47,40.18c.09-.07.14.17.14.17,0,0-.23-.1-.14-.17Z"/><path class="cls-5" d="m281.37,277.19c.32-.61.78-1.02,1-.42.46,1.22.51,2.51-.16,3.97-1.37-.96-.77-2.23-.84-3.54Z"/><path class="cls-9" d="m288.73,28.11c-1.5-.17-1.41-1.14-.73-2.39.97.47.71,1.34.73,2.39Z"/><path class="cls-1" d="m385.72,82.65c-.51-.28-.51-.56-.15-.81.08-.05.25-.05.33,0,.36.26.34.54-.17.8Z"/><path class="cls-7" d="m338.1,55.31c.81-1.48,1.8-1.02,2.73-.59.93.43,1.91.97,2.3,1.93.4.98-.42,1.67-1.07,2.3-.81.78-1.54,1.77-2.9,1.25-.85-.33-1.19-1.02-1.18-1.88,0-.91.05-1.82.12-3Z"/></svg>