<?xml version="1.0" encoding="UTF-8"?><svg id="Layer_1" xmlns="http://www.w3.org/2000/svg" viewBox="0 0 413.3 450.3"><defs><style>.cls-1{fill:#6a5855;}.cls-2{fill:#fff;}.cls-3{fill:#241f1e;}.cls-4{fill:#070505;}.cls-5{fill:#0f0d0d;}.cls-6{fill:#947570;}.cls-7{fill:#64534f;}.cls-8{fill:#302c2c;}.cls-9{fill:#282424;}</style></defs><path class="cls-6" d="m309.51,405.2c-1.8-.5-3.9-.4-5.6-1.3-7-3.7-15-5.1-21.7-9.6-.5-.3-1.3-.7-1.9-.5-4.2,1.1-8.3-.7-12.3-1.4-9.7-1.7-18.9-.1-28.1,2.8-1.1.4-2.3,1.2-3.2.2-1.1-1.3.2-2.4,1-3.2,1.8-1.6.9-2.7-.7-3.6-2.2-1.3-3.7-.2-4.9,1.5-1,1.4-1.4,3.1-1.2,5.1-.1.4-.2.6-.4.9-2.2,1.6-4.7,2.4-5.7,5.1-.2.6-1.1.7-2,1-.5.1-.8.2-1.4.3-1.8.4-3.3,1.1-5,1.8-.6.2-.9.2-1.5.3-4.6,1.4-9.5.3-13.6,3-.4.3-.9.2-1.3,0-4-1.9-8.3-.6-12.4-1.5-1.4-.3-2.9.1-4.3.9,1,1.5,3.6,1.1,3.1,3.4-3.7-.6-7-1.3-10.5-.5-1.4.4-2.9.8-4.3-.4,0-.3.1-.4.4-.7,1.3-.7,2.8-.2,3.9-1.4-1.9-1.1-3.7-.6-5.7-.7-1.3,0-2.4-.1-3.7-.4-1.5-.3-2.9-.4-4.2-.6-5-.9-10.1.9-15.1-.3-2.2-.6-4.4-.9-7-.8-.6-.1-1-.1-1.6-.3-4.5-1.2-9-1.1-13.3-2.1s-8.4-2.5-13-3.3c-.6,0-1-.1-1.5-.3-1.6-1.5-3.3-2.4-5.2-3.6-1.7-1.1-2.7-2.2-1.6-4.3.3-.3.5-.3.9-.5,2.4-.3,4.5-.8,6.9-.6,4.3-.1,8.2,1.3,13,.5-5.1-.8-9.5-1.2-14.2-.6-3-.1-3.1-1.4-1.9-3.3,1.3-1.9,3.4-2.7,5.5-3.1,9.5-2,19.3-1.4,29.3-2,3.8.1,7.3.6,10.7,2.3.3.3.4.4.7.7.4.7.8,1.1,1.5,1.5.5.4.9.7,1.4,1.1,1.9,1,3.7,1.9,5.6,3,.4.2.5.3.8.5,2,1.9,4.3,2.5,7,2.7,1,.2,1.7.5,2.7.8,3.4,1.2,4.1-1.5,5.5-3.3,1.1-1.5.7-2.5-.9-2.6-2.5-.2-4.7-1.6-7.3-2.2-.7-.2-1.2-.2-1.8-.5-.8-.4-1.5-.8-2.4-1-.5-.2-.8-.3-1.2-.6-.9-.9-1.8-1.3-3-1.6-.6-.3-1-.5-1.4-1.1-.4-1.1-1.2-1.5-2.2-2-.3-.2-.4-.3-.6-.6-.8-1.1-1.3-2.2-2.8-2.4-1.5-.3-2.2-1.3-3-2.5-.4-.8-.9-1.3-1.7-1.7-.5-.3-.8-.6-1.2-1.1-.4-.7-.8-1-1.4-1.6-1-1.3-2.2-2.1-2.8-3.6-.2-.8-.6-1.2-1.2-1.8-.3-.3-.4-.4-.6-.7-4.5-2.6-4.7-7.2-5.8-11.6-.2-1.2-.2-2.1-.2-3.3s-.1-2.2-.1-3.4c.1-3.2-.2-6.1.3-9.3,1-3.5,1.8-6.7,2.8-9.8,1.2-3.7,2.1-7.5,5.9-9.9.2-.3.3-.4.6-.7.9-.8,1.4-1.6,1.8-2.8.1-.3.2-.4.4-.7.5-.6.7-1.1,1.1-1.8.2-.3.3-.4.5-.7,2.1-3.1,3.8-6.2,5.4-9.3,1.5-2.8,3.6-5,6.9-5.5,2.1-.4,3.5-1.4,4.6-3.1,1-1.4,2-2.7,3.3-4.2,2-1.2,3.5-2.6,4.6-4.4-2.1.6-4,1.4-5.7,3.2-3.5,2.3-6.2,5.3-9.4,7.6-2.7,2-5.4,4.1-7.4,7.2-.6.7-1.2,1.2-2,1.8-.8.5-1,1.3-1.4,2.1-1.3,1.7-2.2,3.6-4.3,4.7-1.2.4-1.4,1.3-1.6,2.4-.2.6-.4,1-.9,1.4-.6.4-.9.8-1.3,1.5-.2.3-.3.4-.5.7-1.2,2.1-3,3.6-3,6.3-.1.4-.1.5-.3.8-.9.8-1.3,1.5-1.7,2.5-.5,1-1,1.8-1.6,2.8-.9,1.3-.7,3.3-3.1,3.1-1.3-1-2.1-2.2-3.5-3.1-.5-.7-.7-1.3-1-2.1-.7-1.5-1.6-2.8-2.1-4.5-.6-1.8-1.6-3-3-4.2-.5-.6-.8-1.2-1.1-1.9-.4-.7-.8-1.1-1.3-1.8-.5-1-.8-1.9-1-3.1-.6-1.5-2.2-2.4-1.4-4.3,1-1.7,2.7-2.4,4.2-3.6,1.2-.7,1.4-1.8,2-2.9,1.8-1.9,2.5-4.2,4.2-6.2,1.5-1.3,1.3-2.9,1.3-4.7,0-.8,0-1.3.1-2,.8-3.1.6-6.1.4-9,0-.6-.3-1.2-1-1.2s-1.1.6-1,1.1c.4,3.8-1.8,7.2-2.2,11.1,0,.9-.1,1.6-.5,2.4-.7.9-1.4,1.5-1.7,2.7-1.1,2.1-3,3.2-4.6,4.8-1.6,1.2-3.5,1.8-4.7,3.6-.5.4-.8.7-1.4,1-.5.3-.8.6-1.2,1-.3.2-.4.3-.6.5-.5.4-.7.7-1.2,1.1-.3.2-.4.2-.7.4-.5.3-.8.6-1.2,1s-.5.6-.9.9c-.4.5-.6.8-.9,1.4-.5.9-1,1.4-1.7,2-1.1.8-1.6,1.8-2.3,3-.6,1.1-1,2.1-1.9,3.1-2.9,2.2-3.8,5.3-5,8.5-.2.6-.4,1-.8,1.6-1.1,1.9-2.3,3.4-2.9,5.5-.2.5-.3.8-.5,1.3-.7,1-.9,1.8-1.2,2.9-.2.4-.3.5-.5.8-1.7,1.4-2,3.2-2.1,5.3-.4,1.2-.9,2-1.8,2.8-1.4,1.7-2.7,3.2-3.2,5.4-.2.4-.3.5-.5.8-1.9,2.7-3.5,5.2-4.8,8.2-.4,1.2-1,1.9-1.9,2.7-1.2.7-2,1.4-2.6,2.6-.3.5-.5.9-.9,1.4-.6.5-.8,1-1.2,1.7-.5.7-.9,1.1-1.6,1.6-1.9,1.4-3,3.3-4.7,4.9-.3.3-.6.5-1,.8-.9.4-1.2,1-1.5,1.9-.2.3-.3.5-.5.7-.7.5-1.3.9-1.7,1.7-.7,1-.5,1.7.1,2.7,1.1,1.9.1,2.5-1.4,3.1-2.6,1-5.1-.3-7.9-.1-.7-.1-1-.1-1.6-.3-1.1-.3-2-.3-3.1-.7-5.6-2.9-6.1-6.3-2-10.5.7-.8,1.5-1.5,2.2-2.2q2.5-2.5-.7-4c-.4-.2-.9-.4-1.1-.8-1.5-2.9-2.4-5.9-2.3-9.1.1-3,2.9-3.4,5-4.4,1.6-.7,3.2-1.8,4.7-.2,1.5,1.5,0,2.9-.7,4.5-1,1.7-1.4,3.2-1.3,4.9,1.6-1.3.4-3.5,1.7-5.1,1.2-.5,2-1.3,2.9-2.2.9-.7,1-1.5,1.4-2.5.5-1,.8-1.8,1.5-2.7.6-.6.9-1,1.3-1.8.3-.6.5-1.1.8-1.8,2.7-5.9,4.3-11.9,6.8-17.7,3.2-7.6,5.5-15.5,7.5-23.6,2.8-11.1,6.6-21.9,8.5-33.2.1-1.1.7-2.1,1.1-3.2,2.1-5.1,4.2-10.2,5.3-15.7.9-4.5,1.7-8.9,2.1-13.4.3-3.2.6-6.5,0-9.8-.1-.7-.2-1.5-1-1.6-.8-.1-1.2.7-1.4,1.3-.8,2-1.5,4-1.8,6.2-.1,1.1.1,3.1-1.2,3.1-1.6,0-1.1-2-1.3-3.3v-1.4c.2-3.3-.6-6.2-1.9-9.2-2.3-5.5-3.9-11.3-5-17.2-1.3-6.6-1.2-13.4-1.8-20-.4-3.8-1.6-7.3-1.6-11.1,0-4.6-.1-9.2-.5-13.9-1-11.4-5.5-21.4-11.7-31.1-.9-1.3-1.4-2.5-1.9-4-.3-.8-.7-1.2-1.3-1.8-2.1-2.5-3.9-4.8-5.9-7.3-.5-.7-1-1.1-1.6-1.6-.7-.7-1.2-1.3-1.5-2.2-.4-1.3-1.4-1.7-2.4-2.4-.5-.5-.8-.9-1.1-1.5-.5-1.1-.8-1.9-1.8-2.5-.8-.7-1.3-1.5-2-2.4-.6-1-1.4-1.4-2.3-2.2-4.3-4.2-7.7-8.8-12.2-12.5-1.8-1.5-2.2-3.4.2-5.2,5-.7,9.9.3,14.9-.9.8-.1,1.3-.3,2.1-.4,1.5-.2,2.7.1,4.1.5.4.1.5.1.9.3,4.1,2.8,8.2,5,11.7,8.6,2.8,3.2,5,6.7,8.6,9.7-1.5-5.7-5.5-8.8-9.1-12.4-2.9-2.2-6-3.8-7.9-7.1.2-1.8,1.7-2.2,2.8-2.8,1.5-.8,3.1-1.4,4.5-2.7,5.3,0,9.2,2.4,12.4,6.1,1.8,2.1,3.8,4.1,5.3,6.5-.8-5-5.5-10.6-10.1-12.2-1.2-.4-2.2-.7-1.6-2.5,4.8-4,5.4-4.1,8.7-1.9,6.1,4.1,12.9,5.4,19.8,3.4,14.3-4.1,24.3-13.2,29.6-27.3.6-1.7.9-3.5,1.9-5.3,3.1-1.6,3.8,2.1,6.2,2.6q-2.2-5.4,2.2-8.9c2-1.7,3.8-3.6,5.5-5.9.3-.3.4-.4.7-.6,1.1-1,2.2-1.8,2.9-3.2.4-.5.6-.9,1.1-1.3.6-.5,1-1,1.5-1.6.3-.4.6-.6,1-.9q2.8-2.1,4.4,1.2c.2.7.2,1.2.2,2-.2,2-1,3.6-1.3,5.5-.2.8-.3,1.2-.6,1.9-1.3,1.7-.6,3.6-1.1,5.4-.1.4-.2.5-.4.8-.6.7-.7,1.4-.9,2.3-.1.5-.3.7-.6,1.1-.7.5-1.1.9-1.2,1.7s-.2,1.4-.4,2.2c-.2.6-.4,1.1-.6,1.7-.3.7-.6,1.3-1.1,1.9-1.1.8-1.3,1.8-1.5,3-.6,1.6-1.3,3-2.3,4.4-.6.6-.9,1.1-1.1,1.8-.2.4-.3.7-.6,1.1-1,.8-1.2,1.8-1.4,3-.2,1-.5,1.7-1.1,2.6-1,1.5-1.3,3.2-2.7,4.1-4,2.7-7.9,5.6-12.2,8-1.3.7-2.6,1.5-4.1,1.5-1.7.1-2.4-1.6-3.7-2.8,1.3,5.9,4.2,13.7,5.6,15.3.3-.3.3-.7.2-1-.1-.9-.6-1.7-.9-2.5-2.1-5.3-1.9-6.1,2.7-9.2,1.1-.7,2.1-1.3,3.3-1.8,4.7-2,8.9-4.9,12.4-9.1.3-.3.4-.4.8-.6,1.4-1.1,2.7-1.9,3.5-3.1.6-1,1.2-2.1,2.6-1.6,1.5.6,1.4,2,1.2,3.2-1.5,9.4.6,18.6,2.4,27.6,1.6,7.9,3.4,15.9,5.9,23.7,3.8,11.7,9.4,22.6,15.1,33.4.5.8,1.4,1.2,2.1,2.1.5.6.8,1,1.1,1.7.7,1.4,1.5,2.4,2.2,3.7,2.1,3.3,4.3,6.3,6.6,9.3,2.6,3.5,4.8,7.5,8.7,10.2.7.8,1.1,1.5,1.7,2.3,3.3,3.9,6.7,7.4,10.7,10.7.2.3.4.5.6.8,1.7,2.2,3.9,3.4,5.7,5.2,8.8,8.9,18.8,16.7,27.1,26.3,4.1,4.8,9.6,8.2,13.5,13.4,1.9,2.5,3.5,5.3,5.4,7.8,4,5.2,8.6,10.2,11.3,16.2,6.5,14.3,12.5,28.8,14.8,44.5.5,3.6.9,7.2,1.6,10.8,2.3,10.9,2.6,21.8.2,32.8-.3,1.1-.8,2.3.2,3.7,2.4-3.2,2.5-6.8,3.1-10.2.2-1-.5-2.6,1.5-2.7,0,2.6.3,4.9-.3,7.3-1.2,4.5-2.7,8.9-4.1,13.4-.3.8-.2,1.4-.2,2.4-.7.3-1.1.2-1.6,0-.3-.3-.4-.4-.6-.8-.5-1.8,1-3,.8-4.5-1.8,2.4-2.5,5.3-4.5,7.5-.7.8,0,1.5.7,1.9,5.2,3.1,10.6,6,16.9,7.3.4.1.6.2,1,.3,5.2,2.8,10.8,3.1,16,5.1,6.3,2.4,13,4.2,20.1,4.6.7,0,1.3,0,2,.2.4.1.5.2.9.4,1.7.9,3,1.8,5,1.7.6,0,1.1,0,1.7.3.7.4,1.3.4,2.1.3,1.5-.1,2.6.1,3.9.9.7.6,1.4.7,2.3.5.8-.1,1.4,0,2.2.4,2.5.8,4.8,1.8,7.5,1.7.5,0,.8.1,1.4.2,1.3.4,2.4.8,3.8.8,1.2.1,2.3.1,3.5.4,1.2.4,2.2.3,3.5.4.7.1,1.2.2,1.9.5,1.3,1.1,2.5.6,4,.5,2.7.9,5.3,1.3,8.1,2.1.7.4,1.3.8,2.1,1,1.3.4,2.3.6,3.5,1.1.8.6,1.5.8,2.4,1,.5.1.7.2,1.2.5.7.5,1.3.7,2.1,1,.8.4,1.4.8,1.8,1.7,2.9,3.7,3.8,7.8,3.6,12.5-.1.8-.2,1.3-.5,2-.6.8-.9,1.4-1.3,2.3-3.3,3.8-7.4,6.3-11.1,9.3-.5.4-1,.5-1.6.5-6.2-.4-12.5-.3-18.6-3-1.6-1.4-1.9-2.8-.6-4.3,2.6-3,2.6-6.6,2-10.5-.2-1.5-1-2.1-2.4-2.5-.8,0-1.1.5-1.7,1-.8.4-1.4.5-2.4.5-2.4-.3-4.6-.6-7-.9-1-.3-1.8-.4-2.8-.4-7.1-1.4-14.2-.8-21.4-2.4-.9-.5-1.5-.9-2.6-.9-3.1-.1-5.9-.1-8.9-.1-.8,0-1.3-.1-2.1-.1-1.1-.2-2.1.4-3.1-.4-.7-2.1-2.4-2.4-4.2-3Z"/><path class="cls-4" d="m135.11,326c.2-1.3,1.1-1.7,1.8-2.6.3-.9.9-1.3,1.6-1.9.1-.4.1-.6.1-1,.5-2.6,2.2-4.4,3.2-6.7,0-.2.2-.4.3-.6.4-.5.8-.7,1.3-1.1.4-.6.6-1,.9-1.6.4-1.1.8-1.9,1.9-2.5,1.5-1.7,2.8-3.2,4.2-5,.4-.7.5-1.4,1.2-1.9.7-.6,1.3-1,2-1.6,1-.7,1.8-1.2,2.6-.4.7.7.3,1.5-.1,2.2-1.4,2.8-3.1,5.4-4.6,8.3-.1.2-.3.4-.4.6-.4.6-.7.9-1,1.5,0,.1-.2.3-.3.5-.7,1-1.1,1.9-1.7,2.9-.1.1-.2.3-.4.5-1.8,1.3-3.8,2-4.5,4.2-1.5,4.9-3.4,9.7-4.2,15.1-.1,3.5-.1,6.7-.3,10.1-.2,1.2-.3,2.3.2,3.6.1,1.2.1,2.1.2,3.3.5,4.9,1.8,9,6.4,11.2,0,.1.1,0,.2.2.4.5.6.9,1,1.5,1.1,1.3,2.1,2.5,3.1,3.8.3.6.7,1,1.2,1.6.5.4.9.6,1.4,1,.6.7.8,1.3,1.6,1.7,1,1,1.7,2.1,3.2,2.4.7,1.4,1.5,2.3,2.7,3,0,0,0-.1.2.1,1.1.5,1.8,1.1,2.5,2.1.5.3.9.5,1.5.8,1.1.6,1.9,1.1,3,1.7.4.1.6.3,1.1.5.7.3,1.1.5,1.3.9.3.4-.3.8,0,1.2.3-.4.4-.8,1-1.1.7.1,1.2.2,1.9.4,1.5,1.1,3.1,1.5,4.6,2,3.6,1.2,4.1,3.8,1.2,6.2-1.1.9-2.5.6-4.1.8-1-.4-1.7-.8-2.6-1.2-3-.1-5-2-7.4-2.9l-.2-.2c-2-1.5-4-2.5-6.3-3.2-.5-.3-.8-.5-1.3-.9-.6-.4-.9-.8-1.2-1.3-.1-.1-.1-.4-.3-.6-1.5-1.6-3.4-1.5-5.1-2s-4-.1-4.7-2.8c.6-2.4-1.2-3.7-2-5.6-.3-.4-.6-.7-.9-1.3-.3-.5-.5-.6-.8-.9-.2-.3-.3-.4-.5-.7-2.5-2.2-3.2-5.7-6.1-7.7-.6-.9-.8-1.6-.9-2.6s-.5-1.5-1-2.3c-.4-.7-.6-1.2-1.1-1.8-1.9-1-3.3.1-5,.6-1.6.5-2.9,1.2-4.5,1.5-1.6.2-2.9.6-4,1.8-2.2,1.5-2.1,3.3-1.3,5.5,1.3,1.9,3,1.6,5,1,.6,0,.9,0,1.4.3,1.9.9,3.6.5,5.6.5h3.5c1.2.1,2.1.1,3,.1,2.1.1,3.4,1,2.9,3.7-2.7,1.9-5.7,1.8-8.9,1.9h-2.1c-1.1-.2-1.9-.5-2.8-1-1-.6-1.5,0-2.3.3-.9.1-1.4.1-2.2-.3-.8-.5-1.4-1-2.3-.1-.7-.1-1.2-.3-1.9-.5-2.6-1-3.3-3.7-5.4-5.2-.3-.1-.4-.2-.7-.4-.4-3.8-.9-7.5,2.3-10.4.8-.5,1.4-.9,2.1-1.5,1-.9,2.1-1.2,3.4-1.1.8.1,1.3-.1,1.9-.6,1.4-.9,2.7-1.4,4.4-1.8.9-.2,1.6-.3,2.4-.6.5-.2.7-.3,1.2-.3.9,0,1.4-.7,2.3-.9.6-.1,1-.2,1.1-.5,1.6-3.1.8-9.2-1.6-12-.7-.7-1.2-1.5-1.6-2.8-1-2.4-2-4.6,1.5-5.8,2.2,0,2.4,1.7,3.3,3,2.6-.1,1.6-2.6,2.7-4.3Z"/><path class="cls-3" d="m55.91,348c-.7-.3-1.1-.7-1.5-1.4,0-2.2,2.3-3,2.4-4.9.3-5.7,1.9-11.2,4.1-16.3,3.7-8.8,7-17.6,10-26.8,0-.7.1-1.1.2-1.8.3-3.1,1.4-5.8,1.8-8.8,0-.5.1-.8.3-1.3.4-.7.8-1,1.6-1.3,1.5-.4,2-1.3,2.4-2.5,1.3-4.6,2.6-9.2,3.6-13.8.7-2.9,2.8-5.8,2.4-8.6-.4-3,.2-4.9,2.3-6.7-.8.4-1.2,1.1-1.8,1.6s-1.1,1.2-2,.7c-.7-.4-.8-1.1-.7-1.8.9-4.2-.7-8.4-.1-12.6,1.2-7.8.5-15.4-3.2-22.5-2-3.8-3.6-7.6-2.9-12.2.6-4.6-3.8-8.9-1.1-13.8.4-.7-.2-1.7-.5-2.6-.4-1.1-.6-2.2-.7-3.3-.3-5.9-1.1-11.9-1-17.9-1-.3-1.8.8-2.9.1-.9-1.4-.8-2.7-.2-4.2,1.5-.9,3.5-1.6,2.5-3.3-1.7-3-1.1-6.4-1.9-9.5-1.5-5.8-4-11-6.8-16.2-.8-1.5-2.4-3.1-.7-5.1,4.4,6,7,12.6,9.6,19.3,1.1,3,1.6,6.4,2.2,9.6,1.4,8.1-.3,16.4,1.9,24.4.4,1.6-.1,3.5.3,5.1.8,3.9.6,7.9,1,11.8.5,4.4.5,8.8,2.4,12.8,1.4,2.9.8,6.3,2.5,9.1,2.6,4.1,3,8.7,2.7,13.4-.1.7-.1,1.5.5,2.1.8-.8.4-1.6.5-2.4.2-3.2,1.4-6.1,2.7-9,.5-1.3,1.3-1.1,2.1-.4.8.6,1.1,1.4,1.1,2.4.1,2.7.1,5.4.1,8.1s-.3,5.2-.6,7.7c-.7,5.4-2.3,10.6-3.5,15.9-.1.4-.2.8-.5,1.2-1.9,2.8-2.9,5.9-3.8,9-1,3.4-1.6,6.9-2.4,10.4-1.9,7.6-3.7,15.3-6.2,22.8-.2.9-.5,1.7-.7,2.6-.7,4.3-1.5,8.5-3.6,12.3-.7,1.3-.9,3-1.3,4.5-.2.7-.1,1.4-.4,2-2.6,5.3-4.8,10.7-6.5,16.3-.6,2-1.3,3.9-2.6,5.8-1,.5-1.7.5-3.1,0Z"/><path class="cls-4" d="m23.31,50c1.1-1.8,2.2-3.3,3.9-4.6.5-.5.9-.6,1.6-.7,1-.1,1.7,0,2.5-.6.5-.4,1-.5,1.6-.3.6.4,1.1.6,1.9.6.4.1.7.3,1.1.7,3-.2,6,.5,8.5-1.7,5-3,9.1-7,14-9.9,0-.1.2-.2.3-.4,2-1.8,4.3-2.6,6.3-4l.2-.2c.9-1.1,2.1-1.2,3.1-1.6,1.9-.8,3.8-1.5,5.4-3.2,1.3.9,2.4.9,3.8.1,3-.3,5.8-1.5,8.7.2,1,.9,2,.9,3.2.9,2.2-.2,4,.2,5.9.7,3.9,1.1,7.5,3,11.3,4.8,1.3.1,2.3.5,3.6.3h1.6c.4,0,.5-.2.6-.6.1-.4.3-.6.5-.7,0-.1.1-.1.2-.3.6-1.4,1-2.6,1.9-3.5,1.1-1.1,1.2-3.4,3.8-2.7,1.1,1.4.3,2.8.3,4.4-.4,2-1.3,3.3-2.9,4.3-.7.5-.6,1-.3,1.7.1.3.1.4.1.8-.8,1.5-1.6,2.6-3.2,3.2h-.9c-.4-.1-.5-.1-.9-.3-.3-.2-.4-.3-.7-.6-1.7-2.3-3.8-2.5-6.3-1.8-2.3-.1-4.1-1-6-2.3-1.6-1.7-3.4-1.5-5.4-1.5-1.4,0-2.5,0-3.9-.4-1.1-.8-2.1-1.1-3.4-.7-.5,0-.8-.1-1.3-.3-1.4-1-2.6-1.3-4.1-.2-2.7,1-4.9,2.3-7.7,2.9-1,.1-1.5.6-2.1,1.4-1.4,2.2-3.3,2.8-5.8,2.8-.8.1-1.3.5-2,.9-.4.2-.5.2-.9.3-3,.4-4,2.6-5.2,5-.3.4-.5.6-1,.9-.9.3-1.5.7-2.3,1.2-.5.2-.8.2-1.3.2-1.4.1-1.2,1.2-1.8,2-.5.5-.9.7-1.5.9-1.2.3-1.4,1.2-2.1,2-.6.4-1,.5-1.7.4-2.6-.4-4.7.4-7,1.5-.8.2-1.5.2-2.3-.2-1.7-.9-3.1-1.1-4.7.2-1.5.9-2.3,2-2.2,3.7.1,1.2-.3,2.2-1.5,3.1-.7.3-1.2.4-1.9.6-1.9.5-3.5,1.5-5.4.4-.3-.5-.3-.8-.2-1.4.9-1.6.7-3.3,1.1-5,.2-.6.4-.8.9-1,.5-.3.8-.6,1.2-1,.4-.6,1.9-.2.8-1.4Z"/><path class="cls-4" d="m76.11,273.4l.2-.1c1.8-1.2,1-2.5.6-4,0-1.2-.1-2.2.4-3.3,2.4-2.5,2.3-3.9,0-5,0-.4.1-.7.3-1.2.3-.8.1-1.4.1-2.2,0-1.4,0-2.5.2-3.9.2-1.2-.2-2-.2-3.1.8-4.2-1.2-8-.5-12.1.4-.9,1.6-.6,1.7-1.5-2.9-.4-1.2-3.2-2.4-4.7-.2-.9-.2-1.6-.4-2.5-.4-.8-.4-1.5-.6-2.4-.2-.5-.2-.8-.3-1.3-.4-1.7-1.4-3.1-1.4-4.9.1-1-.5-1.4-.8-2.3-.4-2.2-1.5-4-1.5-6.3-.1-.4-.2-.7-.3-1.2-.7-1.7-.6-3.2-.4-4.9.2-1.5,2.7-2.9-.4-4.1-.7-1.8-.3-3.4-.3-5.3.2-.8.1-1.5-.2-2.3,0-.6,0-.9.2-1.4.3-1.4.4-2.6-.1-4-.1-.5-.1-.8.1-1.3.4-1.3.5-2.4-.6-3.5,0-.5,0-.8.1-1.4.1-2.7-1.4-4.9-1.1-7.6.3-.7.5-1.2.6-2,0-.4,0-.7.1-1.2.1-.7,0-1.1,0-1.7,0-.5.2-.7.6-1,1.2-.7,1.5-2,2.7-2.4.8.9.6,2,.4,2.9-.3,1.1.1,2.2,0,3.3-.3,4.5.9,9,.8,13.5-.1,1.4.1,2.6.8,3.9.9,1.6,1.2,4.1.2,5.2-1.9,2.1-1.4,3.3.4,4.8.3.2.5.8.5,1.2-.2,2.5.6,4.9.8,7.4.1.9.2,1.8-.5,2.6-1.1,1.2-.5,2,.7,2.6,1.3.7,2,1.8,1.9,3.3,0,.9.6,1.7.9,2.5,1,2.6,2.7,5.1,3,7.8.5,3.8.5,7.7-.1,11.5-.3,2.1-.6,4.3-.2,6.3.7,3.2.6,6.3.1,9.4,0,.1.3.2.6.4.9-1.2,1.8-2.5,2.8-3.7.4-.5,1.1-.9,1.6,0,.5,1.1-.1,2.7-1.2,3.4-2.4,1.4-2.8,2.1-1.5,4.2,1,1.7.6,2.8-.6,3.9-.5.4-1.4.7-1.2,1.5.6,2.9-1.2,5.2-1.8,7.8-.6,2.5,0,5.5-2.3,7.6-.4.4-.3,1.3-.3,2q-.2,3.7-4.2,3.5c-.5-4.6.5-8.8,2-12.7Z"/><path class="cls-8" d="m126.91,333.4c-.5-1.9-2.2-2.6-2.9-3.9-3.3-5.8-7.7-11.1-9.1-17.9-.4-2.4-1.3-2.5-3.2-.9-1.6,1.4-2.6,3.2-3.7,4.9-2.3,3.6-5.4,6.7-6.4,11-.2.5-.3,1.4-.8,1.4-2.7.1-2.2,1.7-1.9,3.4.1.4-.1.9-.3,1.3-3.1,5.3-5,11.3-8.1,16.7-1.2,2.1-1.6,4.6-3.1,6.3-3.5,4-5.3,9.1-9,13-1.1,1.2-2.3,2.5-3.4,3.7-2.5,2.7-4,6.2-7.4,8.2-1.7,1-1.6,2.1-.1,3.8.7.8.8,1.5.1,2.3-.6.6-1.2,1.5-2.1,1.7-2.6.7-4.9,2.3-7.8,1.8-1.1-.2-2.6-.5-3.1,1.2-.1.6-.8.6-1.4.6-3.9-.4-7.8-.8-11.2-2.9-3.4-2.2-5.5-5.7-7.4-9.3-.5-1-.5-2-.3-3,.4-2.2,1.2-4.3,2.9-5.9,1.7-1.5,1.9-3.1,1-5.1-.3-.6-.5-1.2-.8-1.8-2.1-3.8-.4-7.4.4-11.1.1-.5.8-1.2,1.4-1.3,1.3-.3,2.4-1.3,3.9-.8-.4,2.3-1.8,4.4-2.8,5.5-2.2,2.3-1.9,4.3-1.1,6.7,1.1,3.2,1.5,6.3-.1,9.5-2.1,4.4-3.4,8.7,1.8,12.1.4.3-.1-.1.2.3,2.6,3.8,8.2,5.9,12.4,4.4,2.4-.9,4.6-1.7,7.2-1.8,1.7-.1,3.5-.7,3.4-3.2-.3-1-1-1-1.5-.6-.2.1,1,.5.6,1.5-3.9,2.9-8.1,2.5-12.3,1.5-.6-.2-1.1-.7-.6-1.6,1.5-.2,2.8-.2,4,.1,1.9.5,3.7,0,5.4-1.1-.5-.9-1.4-1.1-1.4-2.2,4.4-.8,8.3-3.1,10.8-5.8,3.5-3.8,7.1-7.9,10.3-12.1,6.5-8.4,10.5-18.1,15-27.6,1.5-3.1,1.6-6.5,2.8-9.9,1.4-.6,2.6-.9,3.2-2.2,2-4.2,4.9-7.8,7.3-11.7,2.4-3.7,5.9-5.5,9.8-6.8.1,1.8,2.3,2.2,1.9,4.1-.8,2.3-.4,4.4.1,6.6.9,3.6,4.4,5.6,5.2,9.2.2.8,1,.7,1.6.2s1-1.3,2.1-.5c.2.7.3,1.3.2,2.1-2.4,2-.8,4-.6,6.1-.2.1-.3,0-1.1-.2Z"/><path class="cls-8" d="m203.61,196.1c4.8,4,9.3,8.3,13.9,12.5,2.6,2.3,4.7,5.2,8.4,6.6.5.4.7.6.9,1.1.8,2.5,2.8,3.6,4.2,5.3,1,1.3,2.2,1.3,3.7.5,1.2.4,1.8,1.1,1.8,2.4-.6,1.3-.3,2.3.6,3.1.9.8,1.3-.4,2.1-.7,1.4.5,2.3,1.3,3.3,2.3.1.1,0,.3.1.5-.3.5-2.2,1.4-2.5,1.4,2.5.4,3.9,2.4,5.3,4.2,1,1.2,1.7,2.7,3.3,3.6.5.3.7.6,1.1,1,.3.4.5.7.6,1.3,1.5,4.4,4.2,7.5,8,9.9,3.7,2.4,6.3,5.6,7.6,10,1.1,3.5,2.2,7.1,4.8,10.2.5.6.6,1,.5,1.8-.8,5,1.1,9,4,12.9.9.7,1.9,1,2.4,2.2,1.1,1.7,1.7,3.3,1.3,5.3-1.8.1-2.1-1.5-3.2-2.3,1.7,3.2,2.3,6.6,3.2,10,.3,1.1.2,2.5,1.8,3.2.3.2.4.4.6.7.3,1,.6,1.7.9,2.6.1.6,0,.9-.3,1.4-.8.4-1.7,0-1.5,1.4.5,3.8.9,7.6,1.7,11.4.3,1.2.8,2.2,2.4,2.3.6,1.1.7,2-.2,3.1-2.3,2.5-.1,4.4.7,6.7,1.1,2.3.4,4.5.4,6.9-.1,1-.2,1.7-.4,2.5-.3,1.7-.4,3.2-.5,4.8-.3,3-1.5,5.8-2.5,8.6-.2.6-1,1.3-1.9,1.1-1-.2-1.2-1.1-1.1-1.9.1-.9.3-1.8.5-2.7,2-8.7,2.2-17.6,1.1-26.4-.6-5.3-1.4-10.6-2.4-15.8-1-5.2-1.4-10.5-3.2-15.6-2.5-7.2-4.9-14.5-7.7-21.5-2.1-5.3-4.3-10.5-7.8-15.1-4-5.2-7.9-10.6-11.6-16-2.3-3.4-5-6.7-8.4-9.3-1.9-1.5-3.7-3.1-5.3-4.8-4-4.2-7.8-8.6-12.1-12.5-4.7-4.3-9.6-8.4-14.1-12.9-1.6-1.6-3.3-3.1-5.1-4.5-1.3-1.1-2.8-2-3.2-4,1.7-.7,2.4.4,3.8,1.2Z"/><path class="cls-4" d="m147.61,42.5c.1,0,0-.1.2-.2.6-.3,1-.3,1.6,0,.4.4.5.4.4.3-.1,0-.1-.1-.2-.2-.2-.2-.5-.4-.8-.8-.5-1.9-1-3.6.3-5.4.1-.8.2-1.3.4-2,2.9-1.4,2.8-3.3,1.1-5.7-.1-.8-.1-1.3-.1-2-.1-1.2-.1-2.3-1.4-2.6-1.5-.3-1.5,1.1-2,1.9-.3.4-.5.8-.9,1.3-.3.3-.4.4-.8.6-.5.5-.9.9-1.2,1.5-.3.4-.5.7-.9,1.2-1.9.5-2.5,1.9-3.1,3.3-.1,0,0,.1-.3.2-1.7.6-3,.2-4.2-1.1-.2-.6-.2-1-.1-1.6.2-.4.3-.6.6-1,.6-1.4,1.3-2.4,2.8-2.8.1-.1.4-.3.4-.5.3-1,.9-1.5,1.6-2.1,1.2-1.2,2.3-2.3,3.5-3.5,1.1-1,1.8-2.4,3.6-2.1,2,1.3,4-.2,5.9.9.6,2.6,3.4,4.1,2.5,7.1v1.4c0,.6-.1.9-.5,1.3-.2.5.4.5.6,1,.9,4.6-2.2,7.7-3.9,11.5-.9,1.6.8,1.9,1,3-.3,2.2-1.4,3.9-2.3,5.9,0,.8-.1,1.2-.2,1.9-.1.6-.3,1-.5,1.6-.1.9-.1,1.6-.2,2.6-.4,2-.9,3.8-.6,5.6.7,4.5-.8,8.6-1.8,13.1-3.7,1.1-4.5.5-4.3-2.7.1-1.8-.2-3.6-.2-5.4,0-.8-.1-1.6-1.2-1.7-.8,0-1.8,0-2,.9-.6,2.4-3.1,3.5-4.3,5.7-.1.1-.3.2-.6.3-3.1-1-.9-2.5-.7-4.1.4-.9.7-1.6,1.1-2.5.3-1.2,1-1.9,1.6-2.9.2-.5.3-.7.5-1.2.4-.7.7-1,1-1.6.8-1.6,1.5-3,2.3-4.6.4-1.1,1.2-1.9,1.6-3,.4-.7.7-1.2,1.1-1.8.4-.5.6-.9.7-1.5.1-1,.2-1.7.4-2.6.6-.6,1.3-.7,1.6-1.5,0-.5.1-.8.2-1.3.4-.8.5-1.5.7-2.1Z"/><path class="cls-9" d="m310.61,408.2c-.4.2-.7.3-1.3.4-1.9.6-3-1-4.8-.8-2.6-.5-4.7-2.1-7.4-1.9-.3,0-.4-.1-.7-.3-.5-.4-.7-.7-1-.8-6.5-1.8-12.9-4-19.3-6.2-3.1-1-6.3-1.5-9.6-1.8-3.2-.4-6.5.8-9.5-1-.8-.4-1.5.2-2.2.4-1.3.4-2.6.9-4.2.8-.8.2-1.3.4-2.1.8-.8.5-1.5.5-2.4.2-1.8-1.9-3.5-2.3-5.7-1.3-1.2.6-2.6.6-3.9,1.1-1,.4-2,.3-2.7-.7s-.4-2,.1-2.9c.6-1.1,1.8-1.9,2.2-3.4-2.4-.7-3.6,0-3.9,2.4-.1,1,.6,2.7-1.7,2.1-1.2-2.4,0-4.3,1-6,.8-1.3,2.4-2.5,4-2.3,1.6.2,3.1,1.5,4,2.8,1,1.3-1,1.9-1.6,2.9-.2.3-.5.5-.7.8-.4.5-1.1,1-.4,1.7.5.5,1.1.1,1.6-.1,3.6-1.8,7.5-2.7,11.3-3.4,5.9-1.1,12-1.3,18.1,0,2.6.6,5.4.5,8,1.7.7.3,1.3,0,2-.2,2.1-.7,4-.3,5.8,1,.8.6,1.7,1.1,2.6,1.6,3,1.6,6.3,2.4,9.4,3.7,4.4,1.8,8.6,4,13.2,5,1.7.3,3.2,1,4.8,1.5,2.5.8.6,1.6-.1,2.6-1.1.2-1.9.2-2.9-.4Z"/><path class="cls-5" d="m399.21,419.5c.2-.7.4-1.1.8-1.7,1.5-.5,2,.4,2.6,1.6,1.1,2.5.3,4.2-1.4,6-.4.5-.7.8-1,1.3-.6.8-1,1.4-1.9,1.9-.9.8-1.7,1.5-2.6,2.3-.6.7-1.2.9-2,1.3-.6.6-1,.9-1.5,1.5-.4.6-.7.8-1.3,1.1-.1.1-.4.3-.5.4-.5.3-.9.4-1.5.4-1.3,1-2.8.7-4.1,1.6-.8.5-1.5.5-2.4.2-.9-.8-1.8-1-3-1.2-.8-.3-1.4-.5-2.2-.8-.9-.3-1.6-.4-2.5-.8-1.1-.6-1.2.3-1.7.9-1.7.9-3.7.3-5.2,1.9-.6,0-.8,0-1.3-.2-.6-.5-1.1-.6-1.9-.4-1.1-.2-2.1-.3-2.6-1.5-.4-.4-.7-.7-1.1-1.2-.5-.5-.8-.9-1-1.5-.6-.7-1.1-1.2-1.8-1.9-.5-.5-.8-.9-1-1.5-.1-.5-.2-.7-.4-1.2-.4-.6-.4-1.1-.2-1.8.1-1.4.9-2.6-.2-4-.5-2.1.7-3.7,1.4-5.6.3-.8.5-1.4,1.1-2.1,1.3-.7,2.5-1,3.8-1.5.6-.4,1.1-.8,1.8-1.2.5-.4.9-.6,1.6-.7,1.9.1,3,.9,2.7,3-.1,3-2.5,4.2-4.1,6.3-.3.4-.5.6-.9,1-1.6,3.4-.5,5.4,3.9,7.4,1.5.3,2.6.8,3.8,1.2,3.7,1.1,7.4.7,11.1,1.2,2.3.3,4.1.1,5.9-1.4,3.2-2.7,6.9-5,9.9-8.4.2-.6.5-1,.9-1.9Z"/><path class="cls-5" d="m45.11,350.5c1.7-.5,2.9.2,4.2.5,1.4.3,2.8.8,4-.9.3-.7.6-1.3.8-2-.2-.3-.2-.4,0-.6.6.5,1.1.7,1.8,1.1.3.3.5.5.8.9.2.6.3,1,.3,1.7-.2,1.2-.7,2-1.7,2.6-.4.9-.3,1.9-1.2,2.7-.5,1.8-1.7,2-3.4,2.1-.6-.1-.8-.2-1-.5.2-.8.3-1.4.5-1.9.2-.6,1.3-1.1.4-2-.8-.8-1.7-.7-2.5-.2-1.1.6-2.1,1.2-3.4,1.5-1.8.5-3.2,2.8-2.5,4.5s1,3.5,1.5,5.2c.4,1.5.9,2.6,3,2.2,1.9-.4,2.6.9,2.1,2.7-.2.9-.9,1.3-1.5,1.8-1.7,1.5-3.4,3-5.1,4.5-.8.8-1,1.5-.7,2.7.6,2.6,2.3,4,4.7,5.1.8.8,1.7.5,2.7.8.6,0,.9.1,1.3.4,2.1,1.1,4.4,1.3,6.3,1.1,2.2-.2,5.1.1,6.9-2.5.9-.4,1.5-.4,1.8.6-.1,1.2.4,2.4-1,2.8-1.7.4-3.2,1.7-5.2,1.1-1.2-.4-2.3,0-3.2.7-.7.6-1.6.8-2.4,1.1-3.3,1.4-6.1-.9-9.1-1.3-1.7-.3-2.8-1.4-3.4-3-.3-1-.7-1.7-1.8-2.2-1.6-.8-2.1-2.8-2.9-4.4-.6-1.5.7-2,.9-3,.8-3.8,3.9-7,2.3-11.3-.4-1-.8-2-1.2-3.1-1.1-3.3-.3-5.4,2.6-6.3.1-.9-.9-1.2-1.2-1.9-.3-.9.3-1.7.8-1.5,2.1.8,2.2-1.1,3.3-2,.6-.1.9-.1,1.4.2Z"/><path class="cls-9" d="m151.51,95.7c.1.5.1.8.2,1.4-.3,6.2,1.1,11.9,1.9,17.9-.4.8-1.1,1.3-.8,2,1.4,3.1,1.5,6.5,2.8,9.7,3.2,8.1,6.4,16.1,11,23.6,1.3,2.1,2.4,3.9,5.2,4.4.8,1.4,1,2.6.1,4.1-.6.3-.9.3-1.5.1-.7-.6-1.1-1.2-2-1.5-1.2-.9-2-1.9-2.4-3.1-.9-2.6-2.2-5-3.7-7.3-2.4-3.7-4.2-7.6-5.8-11.6-.8-2-1.5-4-2.3-6-2-4.8-3.8-9.7-4.9-14.8-1-4.9-2.1-9.9-3.7-14.7-.7-2.2-1.1-4.4-1.2-6.7,0-2.5-.3-5-.8-7.4-.8-3.4-.9-6.8-1-10.2-.1-2.3,0-4.5.6-6.7.2-.6.1-1.4-.7-1.7-.8-.2-1.3,0-1.6.8-.8,2.3-2.8,3.4-4.6,4.5,0-1.3.4-2.1,1.3-2.5.8-.3,1.3-.9,1.5-1.7.6-2.9,2.6-3.6,5.2-3.3.6,1.9-.4,4,.5,5.7.5,1.1.5,1.5,0,2.6-.9,1.9-.3,2.6,2.1,2.8.3.1.7,0,1.2.2,1.5,6.4,1.3,12.9,3.4,19.4Z"/><path class="cls-4" d="m175.11,158.9c.1.2.2.4.4.6.8,1,1.2,1.9,1.9,2.6,0,0,0,.1.2.2,2.2,2.1,3.7,4.4,5.4,6.8l1.4,1.4c.5.5.7.8.9,1.4.2.2.3.3.5.6.5.5.7.9.9,1.5.2.3.2.4.5.6,1.2.7,1.6,1.7,2.5,2.7.3.3.4.5.8.8.8.6,1.2,1.1,1.5,2.1.7.9,1.2,1.7,1.9,2.6.5.4.6.8.8,1.4.1.1.3.4.5.4,2.2.5,2.8,2.6,4.4,3.8.6.6,1,1.1,1.7,1.6,1.3.4,2.1.9,2.8,1.7,4.2,4.7,9.5,8.4,13.8,13.3.1,0,.3.3.5.4,1.3,1,2.3,2.1,2.7,3.7.5,1.4,1.8,1.3,2.8,2,1.3,1.2,2.4,2.4,1.2,4.3-.6.5-1,.5-1.4.2-1.4-1.1-2.8-2.3-4.1-3.5-6-5.5-11.9-11.1-18.1-16.4-.5-.4-1.1-.8-1.8-.6l-.1-.2c-3.4-4-6.9-7.5-10.8-11-.8-.5-1.2-1-1.5-1.9-2.1-2.5-4.1-4.7-5.9-7.2-3.1-4.2-6-8.6-9.6-12.8-.9-1.2-1.8-2-1.9-3.4.3-.1.4,0,.8.1.5,0,.9,0,1.4-.2,1.2-.5,2-.6,3,.4Z"/><path class="cls-4" d="m282.41,369.3c1.6.8,3,2.4,4.7.1.5,0,.8.1,1.2.5.5.2.8.3,1.3.4.7.1,1,.3,1.6.7,1.2,1.2,2.7.7,4.1,1.5,2.7,1.6,5.8.7,8.1,2.5,0,0-.1.1.1.2.6.5,1,.4,1.6.2.6,0,.8.1,1.2.5,1.5.3,2.8.5,4.2.7.5.3.7.6.8,1.2.4.4.8.1,1.4.1,1.7.4,3.3.5,4.9,1.4.8,1.1,1.8,1.2,3.1,1.2.5,0,.8.1,1.3.3.7.4,1.3.4,2.1.4,1.1.1,1.8.5,2.6,1.3.9,1,1.7,1.8,2.4,2.7.9,1.1,1,2.1-.8,2.7-5.5-.8-10.6-2.3-15.8-3.5-2.7-.6-4.8-2.6-7.4-3-4.3-.7-8.2-2.7-12.7-3.6-.4-.1-.6-.2-1-.3-4.8-2.3-10.1-2.7-14.2-5.9-1.2-.9-2.5-1.8-1.8-3.5.7-1.6,1.7-3,4-2.1.1.1.2.2.4.4,1.1,1,1.4,2.3,2.6,2.9Z"/><path class="cls-4" d="m68.11,163.2c0-.6-.1-.9-.2-1.3-.4-.5-.5-.9-.6-1.5-.1-.7-.1-1.2-.2-1.9-.8-3.1-1.4-6-1.5-9.2,1-1.8-.2-2.6-1.2-3.7-.5-1-.7-1.9-.9-3-.2-2-1.6-3.1-2.5-4.7-.8-.4-1.3-.7-1.7-1.5-1.5-1.7-2.2-3.8-4.3-4.9-.9-.4-1.3-.9-1.4-1.9-.7-.8-1.2-1.4-2-2.1-.8-1.7-1.6-3-3.3-3.9-.3-.5-.5-.8-.7-1.4-.3-1.1-.6-2-1.9-2.3-.6-.6-1.1-1.1-1.5-1.8.1-1.3-.6-2.3-.8-3.6-.1-1.6.5-2.8,1.9-3.7.4,0,.5.1.8.3.3.4.6.7.9,1.2.8,1.1,1.8,1.7,2.5,2.9.6.7,1.1,1.2,1.6,1.9.5.6.8,1,1.4,1.5,2.4,2.3,4.3,4.7,6.1,7.5.5.6.6,1,.9,1.6.7,1.3,1.5,2.4,1.7,3.9,0,1.3.4,2.3,1,3.1,2.5,3.4,3.8,7.4,5.6,11.2,1.6,3.4,2.8,7.1,2.7,11,0,1.3-.2,2.2.9,3.2,1.4,1.2.9,3,.6,4.5-.4,1.5-1.9.8-3.2.9-.7-.6-.8-1.3-.7-2.3Z"/><path class="cls-7" d="m112.11,31.6h-2c-1.3-.1-2.3-.8-3.7-.2-1.2.1-2.5.6-2.8-.8-.4-1.6-1.5-1.7-2.7-2-1.6-.3-3-.8-4.5-1.4-2.3-1-4.7-1.5-7.4-1.2-.9-.6-2-.3-2.9-1.2-1.4-.3-2.7-.9-3.9-.5-1.8.6-3.6.4-5.6.4-1,.1-1.7-.3-2.6-.3-.4.8-.7,1.3-1.3,1.7-2.3,1.4-4.8,2-7.3,2.6,1.9-1.6,4.2-2.3,6.3-3.3,1.4-.7,1.6-1.8,1.1-2.7-1.5-2.6-2.7-5.4-5.1-7.4-2.6-2.1-4.2-5-6-7.6.5-.6.9-.5,1.2-.4,3.4,1.3,5.9,3.8,8.3,6.3,1.6,1.7,2.8,3.7,3.6,5.9,1.3,3.7,1.1,3.9,4.5,4,5.4.1,5.9-.4,4.6-5.5-.5-2-1.4-3.9-2.2-5.8.8.5,1.6,1.1,1.7,1.7.3,2.8,2.1,5.2,2.4,8,.1,1.4,1.1,2,2.5,2.3,5.6,1.2,11.2,2.3,16.5,4.6,2.6,1.1,5.5,2.3,8.5,1.2-.1.5-.1.7-.3,1.2-.3.3-.4.4-.9.4Z"/><path class="cls-3" d="m153.61,405.9c4.5-.6,8.9-.1,13.7-.1,1.4,0,2.6.1,4,.3,1,1.1,1.3,2,.4,3.2,0,.1,0,.5-.2.5-.8.1-1.3.1-2,.3-1.4.6-2.7.3-4.2.5-2.5.3-4.8-.5-7,.2-.4.2-1-.2-1.7-.5-.6-.3-.9,0-1.4.4-.7.2-1.2.2-1.9.3-1.5.5-2.5-.5-3.9-.3-1.6-.3-3-.6-4.5-.9-.7.1-1.2.1-2,.1h-1.4c-2.6,0-4.9.4-7.4-.9-1.7-.1-3.2.2-4.8-.4-1.1-.9-1.2-2.1-1.4-3.4,0-.4.1-.6.3-.9.4-.3.5-.3.9-.4,3.5-.2,6.7-.8,10.2-.1.5.1.9.1,1.4.3,4.5.5,8.7,2.4,12.9,1.8Z"/><path class="cls-3" d="m42.41,115.4c-.4-.1-.6-.3-.9-.6-.5-.4-.7-.7-1-1.2-.8-1-1.1-2-1.8-2.8-.1,0,0-.1-.2-.2-.7-.7-1.3-1.3-1.9-1.9l-.2-.2c-.5-.7-.6-1.4-.7-2.2,0-1.3-.7-1.6-1.8-1.8-3.2-2.1-5-5.4-8.1-7.7-.9-1-1.7-1.7-2.4-2.6-1.4-1.8-3.4-3.4-3-6.3.2-1.7,1.1-2.5,2.8-2.9,1.1.1,1.9.4,2.6,1.2.1.4,0,.6.1,1,.8,1.4.2,2.9,1.6,3.9,4.8,3.6,8.4,8.5,12.7,12.9.6,1,1.2,1.5,2.2,2.1.7.8,1.2,1.5,1.9,2.4.4.6.4,1.1,0,1.7-.3.3-.6.1-.6.4.2-.1.4-.2.6-.2s.5,0,.9.1c.3.3.3.4.3.8-1.4,1.2-1.4,2.7-2,4.1-.4.1-.7.1-1.1,0Z"/><path class="cls-4" d="m123.01,406.9c-1,.1-1.7.1-2.6.1-.3-.1-.4-.2-.7-.3-.5-.2-.9-.1-1.5-.1-1.9.3-2.8-.8-3.8-2.2-.3-.1-.4-.1-.7,0-.8.4-1.4.7-2.3.2-.4-.4-.7-.6-1.2-1-.9-1.2-1.8-1.8-3.3-1.8-4.7-.4-5.8-5.1-8.9-7.2-.3-.2.1-1,.3-1.8.9-2-.2-4.4,1.8-5.9-.1,0-.1-.1.1-.3,1.2-1,1.6-2.3,2.6-3.2l.2-.2c1.3-1.4,2.3-2.6,4.3-2.5,1.4.4,2.7.3,3.9,1.2.3.5.4.8.3,1.4-2.6,2.4-4.4,5.4-7.5,7.1,0,.1-.1.2-.2.4-.5,1.5-.2,2.7.8,4,.5,1.3,1.5.7,2.4,1.1,1.4,1.1,2.8,1.7,4.5,2.2.4.2.7.4,1.2.5,4.5,1.6,8.9,2.6,13.4,3.6,1.1.2,2.7.1,2.1,2.3,0,.2-.1.5-.3.7-1.5,1-3.8-1.3-4.9,1.7Z"/><path class="cls-5" d="m243.01,399.5c-2.5.3-4.9.7-7.4,1.9-.8-.3-1.4-.3-2.1.3-1.3.4-1.8,1.4-2.8,2.1-2.2,2.4-4.7,1.8-7.4,1.1-.9.2-1.1.8-1.5,1.5-.6,1-1.1,1.9-1.8,2.6.1,0,0,.1-.1.2-.4.4-.8.5-1.4.5h-1.4c-.8.1-1.4.1-2.2-.2-.8-.3-1.4-.4-2.2-.7-1.2-.5-2-1-1.8-2.5,1.3-1.6,3.1-1.5,4.8-2.2.6-.1.9-.1,1.4-.2,1.8-.5,3.2-1.2,4.8-1.9.6-.1.9-.1,1.4-.2,1.6-.3,4,.9,3.4-2.4-.1-.7.7-1.5,1.5-1.6,1.3-.2,1.7-1.3,2.4-2.1,0,0,.1,0,.3-.1.7-.3.7-.7.7-1.2-.4-4.1.8-5.4,4.7-4.9.6.1,1.1.3,1.4.9s0,1.1-.5,1.4c-1.2.9-1.9,2.2-2.9,3.3-.5.6-.4,1.3.1,1.9.4.5,1,.7,1.5.3,1.6-1.1,3.5-.8,5.2-1.5,2.9-1.2,3.2-1.1,5.2,2-.5,1.4-1.9,1.6-3.3,1.7Z"/><path class="cls-9" d="m382.91,399.9c-3.1-.3-5.8-1-8.7-2.2-1.3,0-2.4,0-3.6-.6-.7-.2-1.2-.3-1.8-.5-1.1-.5-2.1-.2-3.4-.5-1.5,0-2.7.2-4-.4-.3-.5-.3-.8-.1-1.4,1.2-1,1.4-2.6,2.9-3.3,2,.4,3.8.3,5.8,1,.9.1,1.6.1,2.6.2,2,0,3.6.4,5.3,1.5.8.2,1.4.4,2.2.5,2.7.7,5.2,1.1,7.5,2.7,1,.4,1.7.8,2.6,1.2,2.8.6,4.6,2.3,6.5,3.9,1.1,1,1.2,2.1.1,3.4-.6.1-.9,0-1.4-.3-.7-.4-1.3-.7-2-1.1-.6-.3-1-.6-1.6-.8-.4-.1-.7-.2-1.1-.4-.8-.4-1.5-.7-2.4-.9-1.3-.3-2.3-.7-3.6-1.1-.5-.4-.9-.7-1.8-.9Z"/><path class="cls-4" d="m250.81,240.2c.8.6,1.5.6,2.5.5,1.4.3,2.2.9,2.7,2.2.4.5.7.8,1.1,1.3,1.8,1.2,2.4,2.9,3.3,4.7l.8.8c.5.4.7.8,1,1.4,1.5,1.7,2.9,3.3,4.4,4.9,2,1.7,2.4,3.8,2.7,6.2-.4,1.6,0,2.7,1.2,3.7.5.8.8,1.4.9,2.3.1.8.1,1.3-.1,2-.3.6-.7,1-1.5,1.1-2.2-.1-1.9-1.9-2.3-3-.4-.9-.1-2-.9-2.8-1.5-1.6-2-3.5-2-5.6.1-1-.3-1.8-1.1-2.3-.9-.5-1.3-1.4-1.9-2.2-1.2-1.6-2.3-3.6-4.8-3.8-.4-.1-1-.3-1.2-.6-2-2.8-4.6-5-6.2-8-.4-.8-.4-1.5.4-2.3.4-.4.7-.4,1-.5Z"/><path class="cls-4" d="m16.51,84.7c-.6-.9-.6-1.7-.5-2.8,0-3.2,0-6.1-.2-9.2-.1-.6,0-1,.4-1.4.1-.3.2-.4.3-.7.2-.6.4-1,.4-1.5-.1-.3,0-.4.1-.7.1-.4.2-.5.3-.9.2-.5.3-.8.3-1.3-.1-1.6-.7-3.1.7-4.4,0-.1.2-.2.5-.3,4.7-1.4,5.3-.9,5,4.3v1.6c0,.7,0,1,0,1.6-.1,1.1-.1,1.9-.6,2.9-.7.9-1.5,1.5-1.7,2.7-.2.5-.4.7-.8,1-.6-.1-.9-.4-1.2-.8-.5-.3-.4-.3-.1-.1.4.3-.1-.1.3.4.4.8,1.1,1.1,1.6,1.9.2.6.2,1,.2,1.7.1.8.4,1.3.8,2,.5,1.7,1.2,3.2.8,4.9-1.3.7-1.9,1.7-2.8,2.6-2.1-.3-2.3-2.3-3.8-3.5Z"/><path class="cls-9" d="m201.21,411.2c-2,.9-3.7,1.1-5.7,1-2.2-.2-4.3-1.2-6.8-.8-.8-.1-1.4-.3-1.9-1-1.2-1.5-2.9-1.6-4.3-2.3-.5-.3-.9-.8-.7-1.4.1-.2.5-.6.7-.6,1.9.2,3.6-1.2,5.6-.7,2.8.7,5.6.3,8.4.5,1.5.1,3.2-.1,4.2,1.5,1-1.3,2.4-2,3.9-2,3.3,0,6.5-.7,9.7-1.3.4-.1.8.1,1.2.3-1.1,1.6-3,.9-4.3,2.3-3.6,1-7.6.6-10,4.5Z"/><path class="cls-9" d="m112.01,381.6c2.7-.2,4.8-.7,4.1-4.2.4-.6.7-.9,1.4-1.1.4-.1.7,0,1.2,0,.8.3.9.7.9,1.5-.2,2.6,1.3,2.8,3,2.7,1.8-.1,3.5-.7,5.3-.2,2.5.7,3.7-.5,4.2-3.1,2.1-1.4,3.8,1,5.9,0,1.3,0,2.2,0,3.4.1.9.3,1.5.7,2.1,1.4.3,1,.5,1.9-.2,2.9-6.6.4-12.9.8-19.2.9-3.9,0-7.6,1-11.3,1.8-2.3.5-3.7,2-4.3,4.2.9.9,2.1.3,3.2.8,0,.2-.1.3-.5.5-2.6.5-4.8,1.4-7.1.4,2.2-2.6,4.5-4.8,7.1-7.1.2-.7.3-1.2.8-1.5Z"/><path class="cls-4" d="m155.51,118.4c3.1,9,5.8,18,11,26.1,1.5,2.3,3,4.7,4.1,7.6.2.4.4.7.7,1.2.2.6,0,.9-.5,1.2-2.7.5-3,.5-3.8-1.7-1.1-3-2.6-5.7-4.4-8.3-1.4-1.9-2.3-4.1-3.3-6.3-1.8-4.1-2.7-8.6-5-12.5-.5-.9-.8-2.1-.9-3.2-.1-1.9-.6-3.7-1.6-5.4-.9-1.4-.6-1.6,1.8-2.1,1.4.9,1.5,2.3,1.9,3.4Z"/><path class="cls-4" d="m358.01,394.8h-1.5c-2.6-.7-5-1.2-7.6-1.8-.9,0-1.6,0-2.5-.1-.6-.1-.9-.4-1.5-.6-1.6-.3-3-.5-4.6-.7-.6-.2-1-.5-1.6-.6-.7-.1-1.1-.1-1.8-.2-1.3-1.9-2.7-2.7-4.9-1.9-.2,0-.4-.1-.6-.3-1.1-1.9-2.9-3.7.4-5.1.5.2.8.4,1.3.7,1.3.6,2.5.6,3.9.6.8.3,1.4.6,1.9,1.3.5,1.1,1.2,1.6,2.2,1.7,3.4.4,7.1.1,10.3,2,1,.6,2-.1,3-.8.5-.1.8-.1,1.3,0,.1.1.4.3.5.5,2.1.8,3.9,1.8,6.3,1.5.6.1.9.2,1.1.7.6,2.1-1.2,2.4-2.2,3.4-1.3.5-2.2-.3-3.4-.3Z"/><path class="cls-6" d="m355.91,423.6c-1.1-1.5-.3-2.8,0-4.1.2-1.1,0-1.9-1.3-1.9-4.7-.1-9.3-1.4-14.1-1.5-4.9-.2-9.9-.5-14.5-2.6-1.1-.5-2.5-.8-3.7-.7-2.8.2-4.3-1.1-4.6-3.8.6-.2.9-.1,1.5.1,7.9,3.2,16,4.3,24.1,5.3,3.1.4,6.2-.2,9.3-1.6.9.2,1.5.3,2.4.6.7.3,1.1.6,1.6,1.1.6,1,1.6,1.4,1.7,2.7-1,2-2.4,3.6-1.1,5.9-.5.4-.9.6-1.3.5Z"/><path class="cls-7" d="m152.21,108.9c-1.1-4-1.2-8.1-.3-12,.6,3.5,0,6.7.8,10,3.2,13.7,7.4,27.1,14.8,39.2,1.1,1.9,2.6,3.6,2.7,5.9-1.8-2.7-3.3-5.3-4.9-7.9-2.4-4.1-4.4-8.3-6.1-12.8-2.1-5.4-3.6-11-5.8-16.6-.1-2.2-.8-4-1.2-5.8Z"/><path class="cls-1" d="m58.41,334.4c.6-3.1,1.3-6.3,2.6-9.1,2.8-5.9,5-12,7.3-18.1,1-2.7,1.3-5.7,3.1-7.9-.1,3-1.2,5.4-2.1,7.8-3.7,10.6-8.7,20.8-11.3,31.9-.4,1.9.7,2.5,1.1,3.7q-2.9,1.5-3.9,4.7c-.4.4-.5.6-.8.7-.1,0-.1-.2-.2-.5,1.8-4.4,3.2-8.7,4.2-13.2Z"/><path class="cls-7" d="m149.41,59.3c-.1-.9.2-1.9,1.3-2.1-.7,3.1-1,6-.2,8.9.2.9,0,1.8,0,2.7-.1,2.3-1.3,4.5-1.3,6.8,0,3.2.1,6.3.5,9.5.4,3.4,1.3,6.8,1.6,10.1-.6-1.6-1.9-2.8-2-4.4-.4-4.9-1.4-9.7-1.4-15,.5-5.7,1.8-11.1,1.5-16.5Z"/><path class="cls-6" d="m294.91,404.8c-5.1-1-9.6-3.2-14.5-4.7-4.7-1.4-9.2-3.2-14.2-3.2-2.1,0-4.3.3-6.2-.2-2.2-.6-4.1-.5-6.2.1-.9.2-1.8.5-2.5-.2,1.6-.8,3.3-.8,4.6-1.7.4-.3.8-.5,1.2-.1,2.9,2.3,6.3.6,9.5,1.1,2.2.4,4.4.6,6.6,1,3.1.7,5.9,2.1,8.9,3,3.5,1,6.7,2.8,10.4,2.8,1.1,1.5,4,.4,4,3-.7-.4-1.2-.6-1.6-.9Z"/><path class="cls-8" d="m399.11,405.4c.4.4.6.6,1,.9.5.2.7.6.8,1.2.9,1.7,2.3,3,2.2,5.1.3,2.2,2.8,3.7,1.1,6.2-.4.3-.7.5-1.2.7-.4.1-.5,0-.9-.1-.8-.7-1.2-1.5-2.4-1.5-.6-3.9-.1-7.7-3.4-10.5-.5-.4-.4-1.5-.2-2.3.7-.1,1.1-.2,1.7-.5.7-.2,1.1-.1,1.3.8Z"/><path class="cls-7" d="m132.91,34.3c-.5-.1-.8-.3-1.2-.7-.2-.3-.3-.5-.4-.9-.3-2.4.2-4.6-1.2-6.7-.2-.9-.2-1.5,0-2.4,1-1.1.2-1.6-.5-2.3-.8-1.8-2.4-2.9-3-4.8-.3-.7-.7-1-1.3-1.4-.2-.2-.3-.3-.6-.5-1.6-1.4-2.6,1.2-4.1,0,.5-1.5,1.4-2.1,2.5-2.5.7-.3,1.3-.3,1.9.2,3.4,2.6,5.5,6.1,7.7,9.6.3.5.3,1.1,0,1.6-.8,1.3-.6,2.4.1,3.8.5.9.7,2,.7,3.2-.1,2.2,0,2.2,2.5,1.2.2.6.2,1-.1,1.7-1,.6-1.7.9-3,.9Z"/><path class="cls-4" d="m122.91,376.3c.8,0,1.4.1,2,.3,1.4.8,2.6,1.3,4.1.4.3,0,.5,0,.8.1.5,0,.8,0,1.3-.1.6-.1.9.1,1.1.7.6,2.9.2,3.8-2.3,3.5-2.8-.4-5.5.1-8.3.1-3.2,0-3.8-1.2-2-4.4,1.1-.6,2.1-.3,3.3-.6Z"/><path class="cls-6" d="m14.51,63.9c-2.2.3-4.2-.6-6.3-.7-1,0-2.2-.4-2.2-1.5s1.2-1.4,2.3-1.5c.7,0,1.3,0,2,.3,2.6,1.1,5.4,1,8.1,1.7-.5,1.6.8,3.1-.8,4.1-.5-1.8-1.4-2.6-3.1-2.4Z"/><path class="cls-7" d="m156.11,37.1c-.5,1.5-1.1,3-1.2,4.5-.2,3.5-1.6,6.4-3.6,9,.1-2.4,2-3.9,1.9-6.2-.9-.8-.8-1.8-1.2-2.8,1.3-1.5.6-4.1,3.1-4.5-.2-2.3,1.6-4.4.8-7-.1-.2,0-.4.1-.7.1-.6.3-.9.9-1,.6,3.1.3,6.1-.8,8.7Z"/><path class="cls-4" d="m282.21,311.9c-.1.5-.1.9-.2,1.4-.2,1.2.3,1.9,1,2.7.1.5.1.8.3,1.3,1.1,2.3,1.6,4.4.4,6.8-.3,1.1-1,1.3-1.5.6s-.9-1.6-1-2.5c-.6-3.5-1.2-7-1.5-10.6-.1-1.5-1-3-.3-4.5,1.3.1.9,2,2.5,1.9,1,.9,1.2,1.7.3,2.9Z"/><path class="cls-4" d="m279.91,296c.4,1.1-.3,1.9-.1,3,.4.9.6,1.6.9,2.5.5,1.3.4,2.3-.5,3.2-1,0-1.7-.2-1.8-1-.7-4.7-2.1-9.1-3.9-13.5-.3-.6-.5-1.3.5-1.6,1.3,1.6,2.1,3.5,4,4.8.3,1,.5,1.8.9,2.6Z"/><path class="cls-7" d="m213.01,199.5c1.6,1.8,3.1,3.7,4.5,5.6-1.1-.1-1.6-.7-2.1-1.3-1.7-2-3.2-4.6-5.4-5.9-3.5-2.1-5.8-5.4-8.7-8,4.6,2.5,8.3,5.9,11.7,9.6Z"/><path class="cls-6" d="m370.31,439.3c1.5-3,3.9-4,7.2-3.7.7.1,1.2.2,1.9.5,1,.6,2.1.3,3,1.1.9.1,1.6.1,2.3.3-4.7,1.3-9.3,3.3-14.4,1.8Z"/><path class="cls-6" d="m18.71,59.4c.2-2.7-.6-4.5-3.3-5.2-1.2-.3-2.4-1.2-3.6-1.8-.6-.3-.9-.6-.6-1.3.2-.6.7-.9,1.3-.7,1.3.4,2.7.8,3.7,1.6,1.7,1.3,3.2,1.3,5,.7-.1.4-.2.7-.4,1.1-.9,1.5-.4,3.2-1.1,4.8,0,.5,0,.8-.2,1.2-.3.1-.4,0-.8-.4Z"/><path class="cls-6" d="m108.91,403.9c-1.8.5-1.3-1.7-2.6-1.8-3.3-.2-5.7-1.7-6.6-5.1-.1-.3-.5-.5-.7-.7-1.3-1.3-1.6-3-.6-5.5.9.6,1,1.3.5,2.3-.1.7-.7,1.5.1,1.6,1.4.2,1.8,1,2.4,2,1.4,2.3,3.2,4.3,6.4,4.5,1.1.7,1.7,1.4,1.1,2.7Z"/><path class="cls-4" d="m213.91,408.7c.3.8.2,1.3-.4,1.9-.5.2-.8.3-1.3.3-1.6.3-2.5-1.7-4.2-.7-.6.7-1.3.7-2.1,1-1.3.3-2.3-.1-3.5.4-.8-.1-1.2-.3-1.1-1.2,1-2.9,3.2-3.7,5.8-3.9,1.5-.1,2.9,0,4.4.2.2,1.4,1.6,1,2.4,2Z"/><path class="cls-6" d="m132.11,343.5c-.2.9,0,1.8-.1,2.7-.1,2.6-.2,2.7-3.4,3.2-.5.3-.9.3-1.5.3-.5.1-.8,0-1.1-.2,1.1-.6,2.1-1.1,3.2-1.3.9-.2,1.4-.6,1.5-1.5.7-4,1.1-8-2.2-11.2-.5-.6-.9-1.2-.8-2.1.2,0,.5,0,.6.2,3.2,2.7,4.7,5.9,3.8,9.9Z"/><path class="cls-7" d="m56.61,34.4c.6-.5,1.2-1.2,2.1-.6-.1.4-.1.7-.3.8-3,2.1-5.9,4.3-8.8,6.5-1.4,1-3,2.2-5,2.2,3.5-3.8,8.3-5.6,12-8.9Z"/><path class="cls-4" d="m244.31,231.3c1.3,1.5,3.1,2,3.9,3.9.1,1.4,1,2.2,1.1,3.5-.1.3-.2.5-.5.7-.4,0-.5,0-.9-.1-1.2-.3-1.9-.9-2.3-1.7-1.5-3.1-3.9-5.4-7.2-6.8,1.3-1,3.1.2,4-1.4.7.7,1.2,1.3,1.9,1.9Z"/><path class="cls-9" d="m344.81,387.2c.7,0,1.2.1,1.9.2,2.2.4,4.1.7,6.1,1.7.5,0,.8,0,1.3.2.1.2,0,.4-.1.7-.1.8-.3,1.5-1,1.2-1.1-.5-2.4-.3-3.5-1.1-.9-.8-2.3-1.5-3.4-1.2-1.8.5-3.5-.4-5.3-.2-1.8.2-2.4-.9-2.3-2.7,2.4-.6,4.3.3,6.3,1.2Z"/><path class="cls-1" d="m69.51,169.8v1.4c-.1.6-.1.9-.1,1.4v1.3c0,.6-.3.9-.5,1.5,0,2.3.6,4.2,1.2,6.2.2.8,0,1.3-.8,1.4-.2-2.9-1.8-5.3-1.3-8.1.4-2.2.2-4.4.1-6.6-.1-1.5-.9-3.2.2-4.6.4.7.6,1.3.7,2.1-.4,1.5-.5,2.7.5,4Z"/><path class="cls-7" d="m36.41,106.2c0,1.1.1,1.8-.1,2.5-2-1.3-3.6-2.6-4.3-4.8-.2-.6-.8-1.1-1.2-1.6-1.4-2-3.4-3.4-4.6-5.2,2,.7,3.3,1.9,4.3,3.4.7,1,3.1,3,4.3,3.8.7.7,1.2,1.3,1.6,1.9Z"/><path class="cls-7" d="m114.51,26.3c2.1-2.4,2.9-5.4,4.1-8.2.6-1.2.8-2.5,1.9-3.4.1,0,.3.2.4.4.6,2.4-1.1,4.1-1.5,6.4-.1.4-.2.5-.3.9-.2.5-.5.7-1,.9-1.6,2.4-3,4.6-4.8,6.2.5-1.3.6-2.6,1.2-3.2Z"/><path class="cls-4" d="m110.61,381c-.3-.7-.3-1.2-.2-2,.2-.5.5-.8.9-1,.1-.1.4-.2.6-.4,1.6-.8,3-1.8,4.5-.1.2.6.2,1.1.4,1.5.9,1.9.5,2.7-1.4,2.9-1.1.1-2.2,0-3.6,0-.5-.2-.7-.4-1.2-.9Z"/><path class="cls-1" d="m71.31,206.3c.1,1.9.3,3.6-.3,5.1-1.1-5.1-1.4-10.1-1.3-15.2.6.1.8.5,1.1,1,.6,1.9-.8,3.5.2,5.4.9,1.2.1,2.3.3,3.7Z"/><path class="cls-8" d="m140.21,371.1c-.4,0-.7,0-1.2.1-.6.1-.9,0-1.2-.5.1-1.7-.5-2.5-2.1-2.5-1.5.1-2.9-.1-4.4-.4.7-2.3,2.7-1.3,4.1-2-.4-1-1.3-2-.1-3,2.9,2.2,4,5.4,5.7,8.3-.3.1-.5.1-.8,0Z"/><path class="cls-4" d="m230.41,217.7c.7,1.2,1.5,1.9,2.7,2.3.4.4.6.6,1,1.1.2.5.1.8-.2,1.3-.6,1.3-1.2,2.4-2.5,1l-4.8-4.8c-.8-.8-1-1.8-.6-2.9,1.8.1,3.1.8,4.4,2Z"/><path class="cls-7" d="m225.21,215.1c.2-1.9-1.4-2.6-2.3-3.9-.7-.5-1.3-.8-1-1.7,2,1.4,4.2,2.4,4.8,5,.1.8,1.1,1.2,1.9,1.7,1.5.9,3.5,1.2,3.8,3.4-1.2-.1-1.8-.8-2.7-1.6-1.6-.5-2.6-1.6-4-2.3-.2-.3-.3-.4-.5-.6Z"/><path class="cls-8" d="m369.11,439.4c-1-.3-1.7-.6-1.4-1.9.6-1.8,1.4-2.8,3.2-2.1.7.3,1.3.4,1.9-.5.7-.6,1.3-.9,2.2-.4,1.1.1,2.1-.1,2.2,1.2-2.7.8-5.2,1.6-7,3.9-.4,0-.7,0-1.1-.2Z"/><path class="cls-1" d="m77.51,251.3c-.2-3.1.9-6.1-1-8.7-.3-.3-.3-.9-.2-1.3.4-2.1,0-4.2.3-6.3.8.8,1,1.8.9,3.1.1,4.7,1.4,9,.6,13.5-.3.1-.4.1-.6-.3Z"/><path class="cls-7" d="m149.31,18.4c2.1-.9,4.6-.8,5.2.5,1,2.6,3.4,4.9,2,7.9-.7-1.3-.2-3.1-1.5-3.5-2.2-.7-1.1-2-1.2-3.3-1.6-1-3.6.3-4.5-1.6Z"/><path class="cls-6" d="m248.81,397.8c-4.1,1.6-8.1,2.9-12.2,4.2-.3.1-.8-.1-1.4-.4-.1-.3,0-.4.4-.5.9-.1,1.6-.3,1.9-1,.5-1.2,1.5-1.5,2.5-1.2,2.4.7,4.3-.3,6.5-1.4,1,.1,1.7.1,2.3.3Z"/><path class="cls-6" d="m401.11,425.3c1.2-1.9,1-3.8,1.1-5.7.1,0,.2,0,.4-.2.4-.4.7-.5,1.1-.8.1-1.1.6-2.6-.3-2.9-2.5-.8-.9-2.1-.4-3.1,3.1,3.9,2,9-1.9,12.7Z"/><path class="cls-1" d="m74.21,221c.1,1.1.5,1.7.9,2.4.6.9.7,1.8-.1,2.6-.9-1.3-1.2-2.7-1.6-3.9-1-3.1-2.2-6.2-1.7-9.4.9,2.3,1.6,4.4,2.3,6.8.2.6.2,1,.2,1.5Z"/><path class="cls-6" d="m109.71,357.7c.4-1,.3-2.4,2-2-2.2,3.3-1,7-2.1,10.3-1.9-2.8-1.1-5.6.1-8.3Z"/><path class="cls-6" d="m202.31,412c-1.6,1.1-3.1.5-4.6.4-2.9-.3-5.9-.2-8.6-1.3.9-.5,1.6-.6,2.4-.4,3.3,1,6.5,1.1,9.8.1.5.3.9.4,1.4.7,0,.2-.1.3-.4.5Z"/><path class="cls-1" d="m73.21,286.9c.1-2.9.5-5.4,1-7.9.3-1.9-.3-4.4,1.9-5.5.2,1.3-.1,2.2-.3,3.2-.7,3.2-1.6,6.3-1.6,9.7-.3.4-.6.6-1,.5Z"/><path class="cls-8" d="m25.31,58.7c.4,2.9,1.3,5.7-2.1,7-.7-1.5,1.1-3-.1-4-1-.9-2.5.2-3.8-.1-.2,0-.5,0-.7-.3.1-.7.2-1.2.5-1.6h.8c2.1.2,3.6-.9,5.4-1Z"/><path class="cls-8" d="m49.01,349.7c1.5,1.4,2.9.9,4.5.4-.4,2.3-2,1.9-3.4,1.6-1.7-.3-3.4-.9-5-1.6,1.4-1,2.8-1.4,3.9-.4Z"/><path class="cls-6" d="m284.41,330.4c-1.8-1.2-2-2.4-.2-3.8.3-1.1.2-2-.3-3-.2-2.4-.4-4.5-.4-6.5,1.5,4.4,2.1,8.7.9,13.3Z"/><path class="cls-1" d="m65.11,147.7c1.4,0,1.5.6,1.2,1.8.2,2-.2,4.3.8,5.4,1.3,1.6.8,2.6,0,3.8-1.5-3.7-1.5-7.4-2-11Z"/><path class="cls-9" d="m329.41,388.7c-.5-.4-.6-.7-.3-1.2.5-.8,0-1.1-.4-1.5-1-1-2.2-1.8-2.3-3.5,1.5-.7,2.4.1,3.6.7.7.1,1.3-.1,1.6.6-.8,1-1.8,1.7-.6,2.9.6.6.6,1.4.3,2.2-.8-.1-1.3-.2-1.9-.2Z"/><path class="cls-6" d="m120.71,406.5c.1.1,0,.3-.2.5-3.3.2-6.3-.6-8.7-2.5,1-.1,1.3-.9,2-1.2.5.2.7.1,1.1-.2.8-.1,1.2.2,1.1.7-.4,1.7.4,2.1,1.9,2,.4,0,.9.2,1.5.2s.9.2,1.3.5Z"/><path class="cls-6" d="m396.21,402.2c-1.9-1.6-4.2-2.6-5.8-4.2,2.6.5,4.3,2.1,6.2,3.4,1.5,1,2.2,2.1,2,3.8-.4-.1-.7-.2-1.1-.6-.2-1.2-.7-1.8-1.3-2.4Z"/><path class="cls-3" d="m77.11,265c.3-1.5-.4-2.7.5-3.9,1.3.5,2-1.2,3.1-.9,0,1.4-1.6,2.6-1.2,3.2,1.9,2.8-.3,2.4-2,2.4-.2-.3-.3-.4-.4-.8Z"/><path class="cls-6" d="m123.51,350.6c-1.5.8-2.9,1.3-4.4,2.1-.4.5-.8.5-1.5.5-1.4.2-2.4,1.2-3.7.6,2.9-2.4,6.2-3.1,9.6-3.2Z"/><path class="cls-6" d="m362.21,435.8c1,.7,1.8.9,3,.6.7.1.9.5,1.4,1,.5.2.7.3,1.1.6.5.7,1.4.7,1.3,1.6-3.2-.1-5.5-1.4-6.8-3.8Z"/><path class="cls-6" d="m129.71,372.7c2.8-1,5.5-.7,8.3-1.7.6,0,.9.1,1.1.3-3.2,1.5-6.2,2.6-9.4,1.4Z"/><path class="cls-6" d="m143.21,374.8c-.2-.4-.2-.8-.1-1.2,1.3.9,1.7,2.3,2.6,3.3.7.7.1,1.1-.7,1.7-.8.4-1.3.3-2-.2-.9-.3-1.5-.6-1.6-1.4,1.8,0,2.6-.5,1.8-2.2Z"/><path class="cls-6" d="m323.11,382c-.5-.2-.8-.4-1.4-.6-.5-.1-.8-.1-1.2-.3-.7-.3-1.3-.2-1-1.1,1.1-.1,1.9,0,2.7.2,2.6.6,5.3,1,7.2,2.9-1.3-.1-2.2-.7-3.5-.7-.9-.4-1.7-.5-2.8-.4Z"/><path class="cls-6" d="m319.11,379.8c0,.1-.2.3-.4.4-.7.2-1.2,0-1.8-.4-1.8-.6-3.4-1.3-5.4-1.4-.5-.1-.7-.2-.9-.6-.2-.5-.4-.8-.1-1.4,3,1,5.9,2.2,8.6,3.4Z"/><path class="cls-6" d="m124.81,371.9c1.1.3,2.1,0,2.4,1.2-2.6,0-5.2.8-7.4-1.1,0-.3.1-.4.4-.4,1,.1,1.7.3,2.7-.1.8-.3,1.3-.2,1.9.4Z"/><path class="cls-7" d="m65.41,29.3c-1.9,2-3.9,3.3-6.4,3.8,1.3-2.9,4.1-3,6.4-3.8Z"/><path class="cls-6" d="m223.91,404.9c2.7.5,5-.1,7.2-.9-2.4,2.6-5,2.9-7.2.9Z"/><path class="cls-6" d="m275.41,280.9c-1.7-2.1-1.9-4.5-2.4-7,.1-.6.3-.9.7-1.1,1,.5,1.7,1.1,1.6,1.9-.2,2,.8,3.6,1.8,5.2.2.3.2.7-.3,1.1-.6.3-.9.2-1.4-.1Z"/><path class="cls-6" d="m336.21,385.2c-.8-.2-1.5-.3-1-1.3,2.3.6,4.3,1.7,6.6,1.8,1.2.1,2,.8,2.7,1.5-2.2-.1-4-1.2-6.3-1.1-.7-.6-1.2-.8-2-.9Z"/><path class="cls-3" d="m128.21,405.7c-.3,1.3-1.2,1.7-2.3,2.3-1-.5-1.8-.9-2.6-1.5.2-1-.8-1.8-.1-2.4.8-.6,1.7-.3,2.4.3.7.7,1.5.9,2.5.8.1.1.2.3.1.5Z"/><path class="cls-3" d="m394.5,82.6c-.8-3.2-.7-6.4-.1-9.8.3-.3.4-.4.7-.3.2.6.2,1.1.3,1.9.4.7.5,1.3.2,2.1-.2,1.9-.2,3.5-.2,5.4-.3.5-.5.7-.9.7Z"/><path class="cls-3" d="m76.61,232.5c1.5.9.5,2.4,1.2,3.4.7.4,1.2-.6,1.8-.4,1,.4.8,1.3.6,2-.6,1.8-1.9-.1-2.9.2-.3-1,.1-2.1-1.1-2.8-.1-1-.2-1.8.4-2.4Z"/><path class="cls-6" d="m110.81,366.2c.8.6,1.4.7,2.1.7.6,0,1.3.3,1.1.9-.8,2,1.2,2.4,1.7,3.5-3.1-.5-4.2-2.7-4.9-5.1Z"/><path class="cls-1" d="m73.31,288.7c.1,3.2-.7,6-2.1,8.4.6-3,1.3-5.8,2.1-8.4Z"/><path class="cls-6" d="m137.51,377.2c-.6.4-.8,2.1-1.6,1-1.1-1.5-2.4-1.2-4-.9-.5-.1-.8-.2-1-.5,2.5-1.7,4.6-.5,6.6.4Z"/><path class="cls-6" d="m361.81,390.1c2.7.8,5.6.5,7.8,2-2.3.5-4-.9-6.2-.7-.5-.1-.8-.1-1.3-.2-.4-.4-.5-.6-.3-1.1Z"/><path class="cls-6" d="m300.51,373.5c1.2.2,2.5.2,2.9,1.6-1.6-.5-3.1-.6-4.5-.7-1.5-.1-2.9-.3-3.3-1.9,1.8.4,3.3.8,4.9,1Z"/><path class="cls-7" d="m174.61,158.8c-1,0-1.8-.1-2.7-.4-.6-1.4.3-2.8-.8-4,0-.6.1-.9.3-1.1.8,2.1,2.4,3.7,3.2,5.5Z"/><path class="cls-4" d="m284.71,333.6c-.2,0-.3-.2-.5-.5-1-.5-1.8-1-1.8-2-.1-1.3-.4-2.6.2-3.9.2-.5.9-.5,1.4-.3-.1,1.3-1,2.6.8,3.6.5,1.1.4,2-.1,3.1Z"/><path class="cls-6" d="m269.91,262.6c-.6.1-.8-.1-.8-.7-.5-2.3-2.2-3.9-2.3-6,2.2,1.7,2.8,4.1,3.1,6.7Z"/><path class="cls-6" d="m274.81,284c.9-.6,1.5-1.3,2.6-1.1.6,1.8-.7,3.3-.5,5-1.2-.2-1.8-.9-2.4-1.9-.2-.8-.1-1.3.3-2Z"/><path class="cls-6" d="m282.41,368.7c-.8-.7-1.4-1.3-1.4-2.3,0,0,.2-.2.4-.1,2.5,1.2,5,1.9,6.9,3.5-.5.1-.7.1-1.2.2-1.9.5-3.2-.5-4.7-1.3Z"/><path class="cls-7" d="m182.31,169c-2-2.2-4.1-4.1-4.9-6.8,2,2.3,4.1,4.1,4.9,6.8Z"/><path class="cls-6" d="m134.51,408.8c2,.2,3.7.8,5.5.3.7-.2,1.3.1,1.5.8-2.6.5-5.1.8-7-1.1Z"/><path class="cls-6" d="m387.31,396.9c-2.5-1.1-5.2-1.1-7.1-2.9,2.7.8,5.4.8,7.1,2.9Z"/><path class="cls-9" d="m147.81,19.2c0-.3,0-.5.3-.7.5,0,.8,0,1.3.1,1.8.3,3.7-.6,4.4,1.5-2.2.2-4.2,1.7-6-.9Z"/><path class="cls-6" d="m297.71,405.7c2.8-.4,5,.8,7.1,2.2-2.6-.6-5-1.3-7.1-2.2Z"/><path class="cls-1" d="m48.71,123.8q2.8.3,2.9,3.9c-1.6-1-1.5-3.1-2.9-3.9Z"/><path class="cls-6" d="m212.11,411.6c-2.1,1.2-4-.5-5.8-.6.8-.5,1-1,1.3-1.8,1.6.6,3.1,1.4,4.5,2.4Z"/><path class="cls-9" d="m356.31,389.2c.6,0,.9,0,1.4.1.8,0,1.3.3,2.1.6.8.1,1.3.2,1.8.4.3.4.5.7.6,1.1-2.8.5-4.8-.3-5.9-2.2Z"/><path class="cls-7" d="m248.71,239.8c0-.3.1-.4.2-.5q.1,0,.2-.2c.4-.8.5-1.5,1.4-1.8,1,.9,1.8,1.8,2.2,2.9-.8.4-1.2.5-1.9.5-.5.1-.8.1-1.2,0-.3-.3-.5-.6-.9-.9Z"/><path class="cls-6" d="m285.21,340.2c-.7-2.4-.1-4.7-.6-6.9.2,0,.4.1.6.3.5,1.3.5,5.9,0,6.6Z"/><path class="cls-6" d="m352.51,389.2c-2.1-.5-4.2-.5-5.7-2,2,.6,4.4,0,5.7,2Z"/><path class="cls-8" d="m276.21,280.7c.4.1.6.1.9.3.1.7.2,1.2.1,1.9-.4,1.2-1.2,1.4-2.3,1.4-1.7-2.9-1.4-3.5,1.3-3.6Z"/><path class="cls-3" d="m97.91,389.3c-.3-1.2.2-1.8,1.3-2.2.5-.1.8-.1,1.1.1-.5,1.7-1.2,3.1-.4,4.7.3.6-.4.9-1,.8-.2-.9-.1-1.6-.9-2.1,0-.5,0-.8-.1-1.3Z"/><path class="cls-7" d="m248.71,236c-.6-.1-.9-.5-1.3-.9-1.1-1.5-3.2-1.8-3.1-3.8,1.5,1.8,4,2.2,4.4,4.7Z"/><path class="cls-6" d="m377.61,393.6c-1.9-.4-3.6-.5-4.9-1.6,2.2-.4,3.8.3,4.9,1.6Z"/><path class="cls-1" d="m77.21,270.2c-.3.6-.6.6-1.1.3.9-1.8.3-3.7,1.2-5.2.3.2.4.4.4.9-.2,1.4-.3,2.6-.5,4Z"/><path class="cls-7" d="m199.11,188.2c-2.2-.5-2.5-2.8-4-3.6,2.4.3,3.1,2.2,4,3.6Z"/><path class="cls-3" d="m76.01,273.1c0-1,.1-1.7.3-2.5.5-.3.7-.5,1.2-.6,1.8,2.7,1.7,2.9-1.5,3.1Z"/><path class="cls-9" d="m208.51,408.1c.8,1.7,2.9,1.5,3.8,3,0,.1-.1.3-.4.2-1.5.1-2.7-.2-3.3-1.5-.3-.5-.8-.4-1.2-.7.2-.8,1-1.4,1.1-1Z"/><path class="cls-7" d="m260.21,248.9c-1.4-1.4-2.5-2.9-2.9-4.6,1.8,1.1,2.4,2.9,2.9,4.6Z"/><path class="cls-6" d="m129.31,408.8c-1-.5-2-.9-3-1,.6-1,1.2-1.8,2.2-2.2.4,1.1.7,2.1.8,3.2Z"/><path class="cls-7" d="m237.71,225.1c-1,.1-1.5-.2-1.7-1.1-.8-.7-1.4-1.3-2.1-2,0-.5,0-.8.2-1,1.5,1.3,2.8,2.6,3.6,4.1Z"/><path class="cls-6" d="m107.51,380.2c-.2.7-.4.8-1,.9-1.5.5-2,2.3-3.6,2,1.4-1.5,2.7-3,4.6-2.9Z"/><path class="cls-8" d="m250.31,237.5c-.1,1-.6,1.5-1.3,1.6-.8-1.4-1.7-2.4-1.3-3.8.5.2.9.3,1.4.6.5.5.9.9,1.2,1.6Z"/><path class="cls-7" d="m237.81,225.1c.1-.1.3-.3.5-.2,1.4,1.4,2.6,2.8,3.6,4.1-1.5-.3-2-1.5-3.3-2.2-.8-.4-1-.9-.8-1.7Z"/><path class="cls-6" d="m117.31,376.4c-.3.4-.6.7-1.1.9-1.7-.2-3,.4-4.4.3,1.7-1.5,3.7-1.4,5.5-1.2Z"/><path class="cls-6" d="m35.81,44.8c-.5,0-.8,0-1.3-.1-.6-.1-.9-.3-1.5-.5-.7,0-1.2-.1-1.6-.3,1.8-1.2,3.3-1,4.4.9Z"/><path class="cls-6" d="m272.51,269.2c.8.6.5,1-.1,1.3-1.2.6-.5,1.2-.2,2.1-.3.2-.4.3-.8.3-.3-.1-.4-.2-.6-.5-.3-.5-.5-.8-.7-1.3.3-.5.5-.8.9-1.3.4-.5.8-.6,1.5-.6Z"/><path class="cls-6" d="m270.61,264.5c1.1,1.3,1.2,2.8,1.3,4.2-.6,0-.8-.4-1.2-.9-.5-.7-.9-1.3-1.2-2.1.2-.8.4-1.1,1.1-1.2Z"/><path class="cls-7" d="m221.71,209.2c-.1.1-.2.2-.4.3-.5,0-.7-.1-.9-.6-.5-1.6-2.4-2-2-3.6,1.5,1.1,2.3,2.6,3.3,3.9Z"/><path class="cls-1" d="m77.41,258.1c-.1-1.7-.5-3.2.3-4.7.4.1.5.1.6.5,0,1.7,0,3.1-.2,4.6-.4,0-.5,0-.7-.4Z"/><path class="cls-1" d="m63.91,146.2c-.9-1.1-.9-2.2-.1-3.2.9.8.5,1.8.9,2.9,0,.4-.3.5-.8.3Z"/><path class="cls-6" d="m220.21,408.9c.1-1.4.6-2.4,2-2.3.7,2.1-.7,2.3-2,2.3Z"/><path class="cls-3" d="m67.01,147.8c.4.8-.1,1.1-.9,1.1-.3-.8-.6-1.2-1.5-1.3-.3-.5-.4-.9-.3-1.3.2-.3.3-.4.6-.6,1.3.3,1.7,1.3,2.1,2.1Z"/><path class="cls-7" d="m144.71,21.3c1-1.2,1.6-2.6,3.3-2.4,0,.3,0,.5-.2.7-1.3.5-1.8,2-3.1,1.7Z"/><path class="cls-8" d="m127.11,376.4c.9.2,1.5.2,1.8,1.2-.2.5-.3.8-.4,1.1-1.1-1.1-3.4-.1-3.5-2.5.7,0,1.3.1,2.1.2Z"/><path class="cls-6" d="m282.21,307.4c1,1.4,1.5,2.8.1,3.9-.3-.9-.5-1.7-.6-2.7.1-.6.2-.9.5-1.2Z"/><path class="cls-7" d="m44.91,117.4c.2.5.2,1.1-.9,1-.3-.2-.4-.4-.7-.8-.7-.9-1.2-1.6-.3-2.5.4.1.6.1.9.4.5.7.9,1.3,1,1.9Z"/><path class="cls-8" d="m23.61,50c1,.3,2.3-.4,2.3.9,0,1-1.2.6-1.9.6-.5,0-1.1,0-1.7-.2.2-.7.4-1.1,1.3-1.3Z"/><path class="cls-7" d="m46.11,120.1c1.1.1,1.7.6,2.1,1.2.5.6.4,1.2-.8,1.2-1-.7-1.4-1.5-1.3-2.4Z"/><path class="cls-3" d="m69.31,193.1c-.1-1.4,0-2.6.2-3.9.3,0,.4.1.7.3.6,1.5,1,2.9-.4,4.1-.3.1-.4,0-.5-.5Z"/><path class="cls-6" d="m165.81,410.4c1.5-.5,2.7-.9,3.9-.2-1.4.4-2.6,1.3-3.9.2Z"/><path class="cls-8" d="m269.31,262.1c.3.3.5.3.8.5.1.7.1,1.2,0,2-.3.6-.5,1-.9,1.2-1-1.3-1.2-2.5.1-3.7Z"/><path class="cls-3" d="m110.11,403.9c-.5,0-.8-.1-1.2-.3-.5-1-.9-1.7-1.1-2.5,2.1-.1,2.7,1,2.3,2.8Z"/><path class="cls-7" d="m139.21,27.7c-.9,1.1-1.5,2.2-2.7,2.5.6-1.4,1.1-2.6,2.7-2.5Z"/><path class="cls-6" d="m102.91,383.6c-.8,1.3-.6,3.3-2.7,2.9,1.3-.9,1.1-2.8,2.7-2.9Z"/><path class="cls-6" d="m118.71,376.1c1.5,0,2.8-.4,3.8.5-1,1.3-2.1.3-3.2.3-.3-.4-.6-.6-.6-.8Z"/><path class="cls-7" d="m252.81,240.2c.1-.1.2-.2.4-.1.9,1.1,2.8,1.1,2.5,2.8-1-.6-1.8-1.1-2.8-1.8-.2-.4-.2-.7-.1-.9Z"/><path class="cls-7" d="m176.91,162.2c-1.7-.3-1.7-1.5-1.5-2.7.8.9,1.6,1.6,1.5,2.7Z"/><path class="cls-8" d="m357.71,424.3c-.5.6-.8,1.3-1.1,2.1-.2,0-.4-.1-.5-.4-.1-1-.1-1.7.1-2.6.5-.3.9-.4,1.4-.5.7.6.5,1.1.1,1.4Z"/><path class="cls-6" d="m394.3,82.9c.2-.4.4-.5.8-.6.8,1.2-.4,1.8-.9,2.7-.5-.7-.1-1.3.1-2.1Z"/><path class="cls-7" d="m189.21,177.2c-1.5-.5-2-1.5-2.2-2.6,1.4.5,1.9,1.5,2.2,2.6Z"/><path class="cls-6" d="m150.01,410.4c1.5-.8,2.4.5,3.5.7-1.5,1.1-2.5-.4-3.5-.7Z"/><path class="cls-6" d="m214.11,410.4c.1-1,.8-1.1,1.7-1.1.8,0,1.4-.2,1.6.6-1.3,0-2,1.5-3.3.5Z"/><path class="cls-1" d="m69.61,185.9c1,.6,1,1.4.5,2.4-.1.5-.1.8-.3,1.1-.3,0-.4,0-.6-.2-.1-1.2-.3-2.2.4-3.3Z"/><path class="cls-6" d="m281.01,304.8c-.2,0-.6,0-.6-.3,0-1.2,0-2.2.3-3.1,1,1.1.8,2.2.3,3.4Z"/><path class="cls-9" d="m333.21,384c.7,0,1.3,0,1.9.2.5.5.8.8,1.1,1.3-1.4,0-2.8.3-3-1.5Z"/><path class="cls-3" d="m69.51,184.7c1.8,1.8,1.9,2.4.6,3.2,0-.9-.1-1.6-.9-2.1,0-.6.1-.9.3-1.1Z"/><path class="cls-3" d="m77.61,251.7c.3,0,.5-.1.8,0,.7.9.5,1.5-.3,1.9-.2,0-.4-.1-.4-.1,0,0-.2,0-.3-.2-.2-.7-.2-1.2.2-1.6Z"/><path class="cls-9" d="m203.61,412c-.5,0-.8,0-1.1-.2,0-.1-.1-.4.1-.6,1.2-.7,2.3-.5,3.3-.4,0,.1-.1.3-.2.6-.5.9-1.1,1.1-2.1.6Z"/><path class="cls-7" d="m39.01,110.9c1.2.8,1.8,1.7,1.4,2.9-1.1-.8-1.3-1.9-1.4-2.9Z"/><path class="cls-6" d="m98.91,387.4c-.3.8-.6,1.4-1.1,2-.8-1.6-.5-1.9,1.1-2Z"/><path class="cls-8" d="m282.51,313.2c.4.4.6.8.6,1.4,0,.5,0,.8-.3,1.1-2-1.3-2.1-1.5-.6-2.7.1-.1.2,0,.3.2Z"/><path class="cls-6" d="m107.71,380c-.1-.1-.2-.2-.1-.4,1.2-.9,2.4-1.3,3.6-1.3-.1.4-.2.6-.4,1-1,.8-1.9,1.2-3.1.7Z"/><path class="cls-1" d="m41.91,114.9c.5,0,.7.1,1,.4.2,1,.4,1.7.4,2.4-1.2-.7-1.2-1.9-1.4-2.8Z"/><path class="cls-6" d="m398.31,428.5c.4-.9.7-1.9,1.8-1.5-.3,1.1-.5,2-1.8,1.5Z"/><path class="cls-6" d="m129.41,377.1c-.3.1-.4.2-.8.1-.8-.2-1.5-.1-1.7-1,1.2-.3,2.1-.2,2.5.9Z"/><path class="cls-8" d="m232.71,220c-1.7.1-2.6-.4-2.6-1.9.9.4,1.7.9,2.6,1.4.2.1.2.5,0,.5Z"/><path class="cls-8" d="m117.91,371.6c.8-1.6,1.5-1.5,2,.1-.1.1,0,.4-.2.4-.7,0-1.3.1-1.8-.5Z"/><path class="cls-6" d="m279.51,298.8c-.7-1.1-.2-1.9.4-2.8.9,1.1-.1,1.9-.4,2.8Z"/><path class="cls-1" d="m54.01,129.8c.7.5,1.5.9,1,1.9-.8-.4-1.8-.7-1-1.9Z"/><path class="cls-7" d="m36.91,108.8c1.1.4,1.8,1,1.6,2-.8-.6-1.6-1.1-1.6-2Z"/><path class="cls-7" d="m141.21,25.2c-.4.9-.7,1.7-1.6,1.7.2-1.1.6-1.7,1.6-1.7Z"/><path class="cls-7" d="m191.51,180c-.8-.6-1.4-1.1-1.1-2,.7.6,1.6,1,1.1,2Z"/><path class="cls-9" d="m213.41,410.3c0-.7,0-1.2.3-1.7.9,0,1.5.1,1.7.9-.5.4-1.1.6-1.4,1.2-.3,0-.4-.1-.6-.4Z"/><path class="cls-6" d="m206.01,411.6c-.6,1.3-1.3,1.6-1.9.3.7-.3,1.2-.5,1.8-.7,0,.1.2.2.1.4Z"/><path class="cls-6" d="m359.41,390.1c-.9,0-1.6,0-1.8-.9,1-.3,1.6.1,1.8.9Z"/><path class="cls-6" d="m283.81,313.8c0,.3-.3.5-.9.4-.6-.3-.7-.7-.3-1.1.5.3,1.1.2,1.2.7Z"/><path class="cls-8" d="m273.31,273.1c-.1.5-.1.8-.4,1.2-1.3.2-2-.1-1.3-1.5.4-.1.6-.2.9-.3.5.1.7.2.8.6Z"/><path class="cls-9" d="m155.41,410.4c.1-.8,0-1.5.7-1.5.9.1.6,1,.5,1.7-.5.1-.8.1-1.2-.2Z"/><path class="cls-3" d="m77.41,259.5c-.1-.5,0-.8.2-1.1.3,0,.5-.1.8,0,.7,1.3-.2,1.3-1,1.1Z"/><path class="cls-6" d="m395.6,76.8c-.2-.5-.3-1-.3-1.8,1.1.2,1.1.9.3,1.8Z"/><path class="cls-9" d="m305.11,375.4c0,.3-.1.4-.2.7-.1.5-.4.8-.7.7-.8-.2-.6-1-.4-1.7.5-.1.8,0,1.3.3Z"/><path class="cls-6" d="m356.61,428.3c-.7-.7-1.1-1.2-.4-2,.2,0,.5.1.6.3.2.8.3,1.3-.2,1.7Z"/><path class="cls-1" d="m75.81,227.5c.8.8.6,1.6.1,2.3-.9-.8-.5-1.6-.1-2.3Z"/><path class="cls-6" d="m143.31,409.7c.8-.7,1.4-.8,1.7.2-.7.1-1.3.4-1.7-.2Z"/><path class="cls-1" d="m59.71,136.6c1,.3,1.7.5,1.3,1.5-.6-.5-1.8-.3-1.3-1.5Z"/><path class="cls-8" d="m272.11,269.4c-.5.3-.9.5-1.3.4-.1-.8-.1-1.3.1-1.7.5.2.8.4,1.2.7.1.1.2.4,0,.6Z"/><path class="cls-6" d="m393.71,432.1c.6-.7,1.1-1.3,1.9-.9-.5.8-1.2,1.1-1.9.9Z"/><path class="cls-3" d="m69.51,194.8c.3-.1.4,0,.7.2.7.6.6,1.2.5,1.8-.5-.3-.9-.4-1.3-.8-.1-.5-.1-.8.1-1.2Z"/><path class="cls-9" d="m233.91,401.5c.4-1,.8-1.1,1.4-.2,0,.1,0,.4-.2.5-.5,0-.9-.1-1.2-.3Z"/><path class="cls-6" d="m389.01,435.5c.5-.4.9-.5,1.3-.1-.4.6-.8.9-1.3.1Z"/><path class="cls-6" d="m390.81,434.7c.3-.7.7-1.1,1.3-.8-.3.7-.6,1.1-1.3.8Z"/><path class="cls-6" d="m360.11,433c.6.4,1,.8.6,1.4-.7-.4-1-.8-.6-1.4Z"/><path class="cls-6" d="m357.31,429.6c.7.4,1.1.7.7,1.4-.7-.4-1.1-.8-.7-1.4Z"/><path class="cls-6" d="m400.41,407.4c-.5-.3-.9-.5-.6-1.1.8.1,1.1.5.6,1.1Z"/><path class="cls-1" d="m317.31,408.5c.7-.5,1.2-.5,1.7-.1,0,.4-.1.6-.5.8-.5,0-.7,0-1.1-.1-.2-.1-.3-.4-.1-.6Z"/><path class="cls-6" d="m309.81,408.2c.4-.5.8-.9,1.2,0-.4.3-.8.9-1.2,0Z"/><path class="cls-6" d="m219.01,409.7c.5-.3.9-.4,1.3-.3-.3.7-.8,1-1.3.3Z"/><path class="cls-7" d="m150.71,54.2c0-.7.1-1.1.8-1.2.1.6,0,1.2-.8,1.2Z"/><path class="cls-6" d="m17.31,69.4c.3.8.1,1.3-.8,1.2.2-.6.4-.9.8-1.2Z"/><path class="cls-6" d="m395.4,72.6c-.1.1-.4.1-.6.1-.2-.3-.3-.6-.3-1,.7-.2,1,.1.9.9Z"/><path class="cls-7" d="m262.11,251c-.7-.4-1-.7-.7-1.3.6.3,1,.7.7,1.3Z"/><path class="cls-1" d="m69.51,193.5c.1,0,.5.1.5.3,0,.5,0,.8-.2,1.1-.2,0-.5,0-.6-.1-.2-.5-.3-1,.3-1.3Z"/><path class="cls-7" d="m194.31,184c-.6-.4-.9-.7-.5-1.3.6.4,1,.8.5,1.3Z"/><path class="cls-7" d="m186.11,173.9c-.6-.4-.9-.9-.5-1.4.6.4,1,.8.5,1.4Z"/><path class="cls-7" d="m184.81,171.8c-.6-.4-.9-.8-.5-1.4.5.4.7.9.5,1.4Z"/><path class="cls-1" d="m67.61,160.8c.5.5.7.9.3,1.3-.5-.4-1.1-.7-.3-1.3Z"/><path class="cls-6" d="m141.91,371.4c.5.4.6.7.5,1.2-.3,0-.4-.1-.7-.2-.5-.4-.9-.8-1.1-1.3.3-.1.4-.1.7-.1.1,0,.3.1.6.4Z"/><path class="cls-6" d="m355.41,389.3c-.6.3-1,.4-1.4.4,0-.3,0-.4.1-.7.6-.4,1.2-.6,1.3.3Z"/><path class="cls-6" d="m306.01,375.9c-.4,0-.7-.1-1-.3,0-.3,0-.4.1-.6.7-.1,1.2.1.9.9Z"/><path class="cls-6" d="m28.61,44.8c-.4.5-.8.9-1.4.4.5-.6.9-1,1.4-.4Z"/><path class="cls-6" d="m291.11,371.1c-.7,0-1.2-.2-1.2-.9.8-.2,1.3,0,1.2.9Z"/><path class="cls-6" d="m17.41,67.9c-.1.4-.2.5-.5.5.1-.3.3-.4.5-.5Z"/><path class="cls-1" d="m27.61,58.5c1.8-.2,3.3.8,4.9.7,2.1-.1,4.2-.3,3.5-3.6-.3-.6-.6-1-.8-1.6-.1-.6-.1-.9-.1-1.4.1-.4.1-.6.6-.8,1.1-.1,1.8-.2,2.8-.3,2.5-.2,4.5-1.1,6.9-1.1.5-.1.8-.3,1.3-.7.8-.8,1.3-1.4,2.2-1.9.5-.3.8-.5,1.2-.9.5-.9.9-1.7,2.1-1.9.5-.1.7-.1,1.2-.3.8-.3,1.5-.5,2.2-1,.3-.2.5-.4.7-.8,2.3-1.7,3.4-4.4,6.2-5.3.1-.1.3-.2.5-.3.6-.5.9-.9,1.7-1.1,2.6.1,4.2-1.3,5.8-3.1.8-.4,1.5-.5,2.3-1.1,2.7-1,5.2-2,8-3.1,1.5-.1,2.8.3,4.2.8.5,0,.8.1,1.3.1,1,.1,1.8.1,2.8.6,1.6.2,2.9.3,4.4.5,1.9.9,3.8.6,5.6,1.8,2.1.6,3.8,2.2,6.2,1.9,1.2.4,2.3.6,2.9,2,.1.9-.1,1.4-.8,1.9-4.2.4-8.1-1-12.3-.3-1.2.1-2.2-.4-3.1.4,1,.8,2.2.2,3.5.4,5.2,1,10.3.5,15.5.7,1.3-.6.7-2,1.7-2.6.4.1.5.1.8.3,2.5.7,4.7,1.6,7.3,2,.7.2,1.1.4,1.7.9,1,1,1.9,1.8,3.1,2.7.2.3.3.5.5.8.2.9.6,1.6.1,2.6-1.5,7.3-4.1,13.7-9.3,18.8-2.5,2.4-4.9,4.9-7.7,7.1-6.5,5.1-13.6,8.3-21.9,7.8-4.7-.3-9.4-1.1-13.3-4.4-2.2-1.9-2.4-1.7-4.9,0-1.1.7-2.1,1.5-3.5,2-8.6-.5-16-4.2-23.7-7.6-2.6-2-4.9-4-6.8-6.6-.7-.7-.6-.1-.7.3-.1.5-.3.7-.6,1.1-.3.3-.5.3-.8.5-1.7,2.2-1,4.2.1,6.4.3,2.1.9,3.9,1.5,6,.1,1,0,1.7-.6,2.5-1.4.6-2.2-.1-3.1-1-.6-.7-1.1-1.1-1.8-1.6-2.3-1.6-4-3.4-5.4-5.9-.1-1-.1-1.8-.1-2.8.1-.9-.2-1.4-.4-2.1,0-.4,0-.7.3-1,1.5-2.4,1.5-5,1.9-7.5.7-.1,1.1-.2,2.2.1Z"/><path class="cls-4" d="m59.21,379c.7-.6,1.4-.7,1.9-1.4,0-.1.2-.4.3-.6.5-.9,1.3-1.3,1.7-2.2.1-.3.3-.4.7-.6,2.6-1,3.3-3.4,5-5.2.5-.5.9-.9,1.4-1.5.4-.6.8-.9,1.1-1.6.3-.5.5-.8.9-1.2,1-1,1.9-1.7,2.6-2.9.8-.8,1.3-1.5,1.7-2.5,2.3-2.5,3.5-5.5,5.1-8.3.1-.2.3-.4.4-.6.9-2,2.1-3.7,3-5.7.6-.9,1-1.7,1.6-2.6.4-2.1,1.8-3.6,2.4-5.6.1-.2.3-.3.4-.5.6-1,.6-1.9,1.2-2.9.2-.4.4-.6.6-1.1.4-1,.9-1.8,1.6-1.9,2.8-.4,1.4-2.1,1.3-3.7.3-.5.5-.8.8-1.3.3-.2.4-.3.7-.3s.4.1.7.2c.4.3.6.5.9.8.3.3.4.5.4,1.1,0,5.2-1.1,9.6-4.6,13.2-.5.4-.3,1-.3,1.6,0,.9-.2,1.8-.6,2.6-2,3.7-3.1,7.8-5.7,11.1-4.2,5.2-6.5,11.9-12.4,15.8-.2.1-.3.4-.4.6q-2.6,3.9-6.6,6.5c-.3.2-.4.5-.7.7-2.2,2-4.8,3.3-8.1,2.9-.8-1.5.3-2,1-2.9Z"/><path class="cls-5" d="m96.11,325.1c-.1,0-.4,0-.6-.2,1.7-2.9,2.3-6.4,4.9-9,.5-1.1,1-2.1,1.6-3.2,1.5-.6,1.9-1.8,2.5-3,.6-.6,1.1-1.1,1.7-1.8.4-.6.7-1,1-1.5.2-.3.3-.4.7-.6.6-.4,1-.8,1.4-1.3.1,0,.3-.1.5-.1.6-.3,1-.7,1.4-1.1l.2-.2c.6-.5.9-.8,1.4-1.2.4-.4.7-.6,1.2-.9,1.5-1.6,3.7-2.1,4.9-4,1-2,3.3-2.6,4.2-4.7.7-.7,1.6-1,1.6-2.3.2-.9.4-1.6.6-2.5.2-1.4.6-2.4,1.1-3.4s.7-2.7,2.4-2.1c1.4.5,1.6,1.8,1.1,3.1-.2.4-.1.8.1,1.5,0,.7,0,1.2-.1,1.9-.5,1.7-.7,3.3-1.7,4.9-1.1,2.3-1.9,4.5-4.2,6-.7,1-1.2,1.9-2,2.8-1.6,1.2-2.7,2.5-4.6,3.2-.7.7-1.2,1.5-1.8,1.8-3.6,1.6-6.1,4.2-8.2,7.6-1.9,3.1-4.3,6-5.8,9.4-.9,1.9-2,2.8-4.3,2.4-.3-.2-.4-.4-.7-.7-.2-.3-.4-.5-.5-.8Z"/><path class="cls-7" d="m37.31,79.6c.9,1,1.8,1.9,3.7.9-3-3.1-6.3-5.7-7.7-10-.1-2.2-1.4-4.1.2-6,.3,0,.4,0,.7.1,2.8,1.9,4.2,5,7.3,6.5,4.7,2.9,9.1,5.9,14.6,6.3,1.5.1,3,.6,3.9,2.4-.5,1.6-1.8,1.5-2.7,2.1-1.5,1-3.8,1-4.6,3.4-1.2.6-2.3.6-3.5,0-2.7-3.3-3.5-3.2-5,.4-.4.6-.9.6-1.5.5-1.5-.8-2.7-.5-4-.1-1.4.4-3.1.9-3.8-1.5.6-1.8-1.3-2.8-.9-4.6,0-1,0-1.8.2-2.6,1.6.2,2.1,1.4,3.1,2.2Z"/><path class="cls-9" d="m42.31,69.5c3.4,1.9,7,2.9,10.4,4.3,2,.8,3.8,2.3,5.9,2.3,2.6,0,4.9.6,7.3,1.7.5,1.2,1.3,1.1,2.1,1.2.9.1,1.8.1,2.5.8,3.3,2.9,5.8,6.3,8,10,.5.8.6,1.7.5,2.6-.1.6-.2,1.2-.9,1.3-.5,0-.9-.3-1.1-.7-1.1-2.6-3-4.5-4.8-6.5-2-2.3-3.9-4.8-7.3-5.2-.4-.1-.9-.3-1.2-.6-1-1.2-2.4-1.1-4-1.1-4.4-1.9-9.3-1.5-13.2-4.3-1.9-1.4-4.2-2.1-5.9-4.2-.2-1.4.7-1.5,1.7-1.6Z"/><path class="cls-5" d="m329.11,408.2c.6.4.9.7,1.7.8,4.4.4,8.6.6,12.7,1.1,2.9.4,6.1.3,9.2,1.5.5.5.5,1.1-.2,1.6-1.1.2-1.4.8-1.6,1.7-.1.5-.6,1.1-.9.8-1.6-1.5-3.2,0-4.8-.3-1.9-.4-4.3.5-5.7-.4-2-1.2-3.4-1.3-5.3-.4-.3.1-.7-.2-1-.3-3.8-.7-7.2-2.8-11.1-2.9-1.7,0-2.8-.8-3.4-2.4.1-.4.2-.6.5-.9,3.4-.2,6.5-.4,9.9.1Z"/><path class="cls-8" d="m127.91,79.9c-2.3,1.5-5.2,1.9-7.2,3.7-1.4,1.2-4.1,1.4-4.1,3.4,0,1.8.3,3.8,1.4,5.5.5.8,1.1,1.7,1.1,2.8,0,.9.1,1.9-1,2.2-1,.3-1.2-.7-1.6-1.4-.9-1.7-.6-3.8-1.8-5.4-1.1-1.5-.1-4-2.4-4.9.8-2.1-.6-3.9-1-5.8-.2-.9.6-1.1,1.4-.8.5.2.8.7,1,1.3,1.1,2.7,1.5,3.1,5,1.5,2.2-1.1,4.4-2.4,6.3-3.9,3.4-2.8,8.1-4,9.6-8.8,0,0,.2,0,.3.2.3,1.4-1.4,3,.9,3.7-2.3,2.8-5.1,4.6-7.9,6.7Z"/><path class="cls-9" d="m100.01,128.1c-1.2.6-2.2,1-3.3,1.4-9.7,3.4-19.6,3.7-29.6,1.8-1.2-.2-3.2,0-3.1-1.3.1-1.9,2.1-1.2,3.3-1.1,2.8.4,5.6.4,8.3.4,5.6-.1,11.2-.9,17-1.5.6-.3,1-.5,1.7-.6,1.8,0,2.9-1.7,4.8-1.2,1.1.4,1.8.9.9,2.1Z"/><path class="cls-8" d="m118.21,110.2c1.2-3.4-.2-6.3-.5-9.3-.1-.9-.4-1.8.9-2.1,1.2-.2,1.2.8,1.5,1.5,1.7,3.7,1.3,7.8,2.2,11.6.2,1.1-.7,3-2,3.7-3.1,1.8-5.6,4.2-8.2,6.5-1.3,1.2-3,1.5-4.3,2.7-.8.8-2,.3-2.6-.7-.7-1.1.2-1.6,1-2.1.7-.4,1.4-.7,2.1-1.1,3-1.7,6-3.5,8.3-6.2.9-1,1.7-1.9,1.2-3.4-.2-.4,0-.6.4-1.1Z"/><path class="cls-9" d="m128.11,42.9c.5-1-.6-1.4-1.2-2-.7-.6-.8-1.3-.4-2.3,1.1-2.8-.1-5.7,1.8-8.3,1.1-.7,1.8-1.2,1.4-2.5-.2-.7-.2-1.6,1.3-1.4,1.3.9,1.3,2,1.3,3.1,0,1.4-.1,2.9-.2,4.4l-.1.1s.2-.2.4-.2c.5,0,.8,0,1.3.2.6,1-.2,2.1.7,2.9,1.3-1.1.8-2.9,1.9-3.9,0,0-.1,0,.2,0,1.5.2,2.7.5,3.9,1-2.4,2.8-4.5,5.6-7.8,7.2-1.4.7-1.7,2.8-.8,4.4.7,1.3,1.5,2.5,1.3,4.1-2-.4-2.9-.6-3.9-2.3-.8-1.5-1.9-1.3-3.2-1.6-.5-.9-.6-1.7-.4-2.6,1-.1,2.1.8,2.5-.3Z"/><path class="cls-9" d="m158.31,294.4c1.6-1.6,3.9-2.4,5.2-4.1,1.9-2.4,4.4-3.8,7-5.6,1.3.5,1.7,1.3,1.3,2.6-1.4,1.9-2.8,3.5-4,5.3-.8,1.3-1.8,1.8-3.3,1.9-2.6.1-4.7,1.4-6.1,3.7-.8,1.5-1.6,3-2.5,4.4-1.5,2.4-2.2,5.2-4.5,6.8.8-3.7,3.8-6.2,4.5-9.9-1,.2-1.8.3-2.5.2,1.5-2.1,3.3-3.6,4.9-5.3Z"/><path class="cls-5" d="m120.81,312.7c.3.6.6,1.1,1,1.7.4.7.6,1.2,1,1.9,1.2,1.4,2,2.8,3.1,4.3.7,1.7,2.2,2.7,2.2,4.5-.7.4-1,.9-1.3,1.4-.9,1.5-1.8,1.6-2.7.2-.4-.6-1-1.3-.6-2.2.2-.5.3-1.1-.4-1.4-2.5-.9-3.4-2.8-3.4-5.3,0-.5-.4-.8-.8-1-1.3-.8-1.3-1.9-.8-3.2.5-1.1.8-2.2-.7-2.8-.5-.2-.8-.5-.6-1,.2-.6.7-.9,1.3-.8.6.1,1.1.4,1.7.8.4,1.2.7,2,1,2.9Z"/><path class="cls-8" d="m291.81,378.6c-6.9-2-13-4.9-18.9-8.9,2.4-2.4,4.2-4.8,4.7-7.9,0-.5.5-1,.7-1.5.3-.8.9-1,1.6-.7.9.3,1.3,1,1,1.9-.2.5-.5,1-.9,1.4-1,.9-.8,2-.9,3.2-1,.1-1.6.2-2.1.8-1.8,2-1.7,2.8.6,4.2.6.3,1.2.5,1.8.9,2.3,1.4,4.4,3.3,7.4,2.1.2-.1.6,0,.6.1.7,2.2,3.4,1.3,4.7,3.1.2.6.2.9-.3,1.3Z"/><path class="cls-8" d="m320.81,387.3c-4.8-1.7-10.2-1.6-14.6-4.7-.5-.4-1.1-.6-1.6-.6-4.3,0-8.1-2-12.1-3.6-.2-.7-.1-1,.5-1.2,2.1.9,4.5,0,5.9,2,5.5.6,10.2,3.9,15.5,5.2,4.8,1.2,9.5,2.5,14.5,3.3.2.4.4.7.3,1-3-.5-5.9-.6-8.4-1.4Z"/><path class="cls-9" d="m369.01,420.3c-.2,1.8-.4,3.2-1.8,4.5-1.8,1.7-1.7,1.8-.2,4-2.2.4-2.9-1.3-3.9-2.4-2-2.1-1.9-3.4.6-5.5.4.6.5,1.1.4,1.7.8-.9.4-1.8.2-2.9,1.7-1.9,3.4-3.6,4.6-5.5,1,2.3.5,4.2.1,6.1Z"/><path class="cls-8" d="m61.41,91.4c1.8,1.8,3.2,3.9,5.1,5.4,2.2,1.8,2.7,4.3,4,6.5.3.6.3,1.4-.4,1.8-.5.3-1.1.1-1.5-.4-2.8-3.4-5.5-6.7-8.2-10.3.5-1,.2-2.1,1-3Z"/><path class="cls-9" d="m113.61,398c2.6,1.2,5.3,1.9,8,2.5,3.9.9,7.8,2.1,11.9,2.2,1.8.1,3.8.2,5.3,1.4-1.8.8-3.9-.7-4.9,0-2,1.4-3.8.5-5.7.1-.3-.8-.8-1-1.4-1.1-3-.7-6.1-1.3-9.1-2-1.9-.5-3.7-1.3-5.1-2.7.4-.3.8-.6,1-.4Z"/><path class="cls-3" d="m56.51,91.7c-2.5-1.9-5-3.7-7.7-5.6-.3-.3-.3-.6.2-1,1.5-.1,2.6-.1,4,0,2.9,2.1,5.5,4.2,8.2,6.5.6,1.5,1.2,2.7-1.1,2.9-1.3-1-2.4-1.9-3.6-2.8Z"/><path class="cls-9" d="m145.81,404.2c3.4.3,6.8,1.1,10.4.6,3.6-.5,7.4-.5,10.7,1.2-1.7.6-3.3.7-4.6.3-2.1-.6-4.1-.5-6,.2-2.1.8-4.5.6-6.2.2-3.1-.8-6.1-1.4-9.2-1.9-.2,0-.3-.5-.2-.9,1.9,0,3.5.2,5.1.3Z"/><path class="cls-8" d="m97.01,102c1.7-.2,3,.5,4.1,1.1,2.7,1.6,5.6,2.6,8.7,4.1.4,1.2.2,1.9-1.2,2-3.7-.8-6.7-2.6-10-3.6-1.1-.3-1.8-1-2.2-2.3-.1-.7,0-1,.6-1.3Z"/><path class="cls-1" d="m33.21,87h-7.4c-.2-.2-.3-.3-.4-.7-.1-3.1.8-3.9,3.5-3.4,1.5.3,2.7,1.4,4.6.8.8,0,1.4.2,1.8,1,1.3,1.4,2.4,1,3.7.3,1.7-.9,3-.5,3.5,1.3-3.2.7-6.2.8-9.3.7Z"/><path class="cls-8" d="m126.91,276.1c-.1-.8.8-1.8,1.8-1.7,1.1.1,1.9,1.1,1.9,2.1.1,3.3.8,6.7-1.1,9.8-.7-.5-.5-1.1-.3-1.6.4-1,.3-1.9-.8-2.2-1-.2-1.2.9-1.5,1.5-.6,1.3-.3,2.9-1.9,3.5.5-3.9,2.5-7.4,1.9-11.4Z"/><path class="cls-7" d="m119.51,388.4c2.2.9,5.2-1,7,2.2-.7.1-1.2.1-1.6.2-2.6.6-5.1,1.5-7.5-.4-.3-.2-1-.1-1.3.1-1.9,1.8-3.3.6-4.6-.9.1-.2,0-.3.3-.6,2.7-.8,5.1-1.5,7.7-.6Z"/><path class="cls-3" d="m184.31,179.5c-2.9-3.7-5.8-7.5-8.5-11.4-1.3-1.9-3.2-3.5-3.6-5.9.8.2,1.1.5,1.5,1,4.4,5.7,8.2,11.9,13.2,17.1.5.5.7,1.2.3,1.8-1.2-.9-2.2-1.7-2.9-2.6Z"/><path class="cls-9" d="m182.11,388.3c-1.3,2.1-3.3,3.5-3.6,5.9,0,.2-.6.6-.7.5-1.2-.9-2.7.6-3.7-.7q3.5-.8,5-5c-1.4-.1-2.3-1.7-3.9-1.6-1.7.1-2.7-.8-3.2-2.3,3.1,1.7,6.9,1.3,10.1,3.2Z"/><path class="cls-9" d="m145.71,317.8c-1.3.7-2.1,1.8-2.4,3.2-.9,4.2-2.8,8.1-3.5,12.4-.1.6-.3,1.1-1,1.2-.2-.7-.4-1.3-.2-1.8,1.4-4.2,2.4-8.5,3.9-12.6.9-2.7,2.7-4,5.3-4.3-.6,1-1.4,1.4-2.1,1.9Z"/><path class="cls-8" d="m178.21,281.3c0,1.7-1.9,1.2-2.1,2.1-.4,2.4-2.6,2.8-4.3,3.6-.5-.9-.7-1.7-1.4-2.3,2.3-2.3,4.8-3.3,7.8-3.4Z"/><path class="cls-3" d="m189.61,185.5c-.4-.4-.6-.9-.4-1.5,2.3.8,3.1,3.6,5.8,3.6.5,0,.7.5.7,1,0,1.6,1.3,2.3,2.2,3.3.7.9,2,1.5,1.6,3-3.8-2.8-6.8-6.2-9.9-9.4Z"/><path class="cls-7" d="m118.01,110.6c0,.4,0,.6-.3.8-2.6-.1-4.9-.8-7.2-1.2-.7-.1-1.3-.3-1.4-1.2.8-.7.7-1.4.8-2.1,3.2.5,5.7,2.1,8.1,3.7Z"/><path class="cls-7" d="m89.11,96.6c1.4.6,2.8,1,4.1,1.6,1.3.5,2.4,1.1,2,3-.2,1.1,1,.6,1.5,1-.1.6-.1,1-.4,1.3-3.8-1-6.5-3.5-7.2-6.9Z"/><path class="cls-9" d="m225.31,400.1c0-1.7,1.2-2.4,2.5-2.7,1.1-.3,1.7-1.3,2.8-1.3,0,1.4-.3,2-1.6,2.4-2,.6-2,.8-1,2.7.3.5.6,1,.2,1.5-.4.5-1.1.5-1.6.3-1.2-.6-2.5-.3-3.4-1.3.9-.6,2.1-.6,2.1-1.6Z"/><path class="cls-8" d="m148.71,381.2c1.5.4,3.1.6,4.6.8,1.5.1,1.6,1,1.2,2-.9-.3-1.5-.5-2.1-.8-2.8-1.2-6-.9-8.9-2-.5-1-.3-1.8-.1-2.7.8,0,1.3-.1,1.8.2.4,2.1,2.2,2,3.5,2.5Z"/><path class="cls-9" d="m176.61,406.7c.4.2,1.1.3,1,1,0,.5-.5.6-.9.8-1.6.7-3.2.7-4.9.5-.2-1.2-.5-2.1-.4-3,2,.1,3.7-.3,5.2.7Z"/><path class="cls-8" d="m94.71,325.1c1.2-3.5,1.8-7.1,5.4-8.5.1,1.7-.9,2.2-1.7,3-.5.5-1.4,1.4-.2,2.2.4.3,1.1.4.9,1.1-.2.8-.8,1-1.6.7-1.6-.6-1.9.4-2.2,1.7-.3,0-.4,0-.6-.2Z"/><path class="cls-9" d="m48.91,85.1c-.3.5-.2.9-1,1-1.4-.2-2.5-.4-3.7-.9-.3-1.1-1.4-2,0-2.8,2.6-1.5,4.2-.6,4.7,2.6,0,0,.1-.1,0,.1Z"/><path class="cls-9" d="m139.71,353.9c.4,3.5,1.5,6.6,5,8.3.3.2.4.8.4,1.2-4.7-1.8-7.2-6.5-6-11.3.3.7.5,1.2.6,1.8Z"/><path class="cls-9" d="m355.11,411.9c2.8-.4,5,.8,7.2,1.4-.9,1.6-2.3,1.4-3.8,1.6-.9.5-1.6.3-2.4-.3-.5-.3-.9-.5-1.4-.9-.4-.8-.3-1.3.4-1.8Z"/><path class="cls-9" d="m151.11,29c1.6.6,2.3,1.1,1.9,3-.4,2.2-1.6,2.6-3.4,2.3.2-2,1.4-3.5,1.5-5.3Z"/><path class="cls-8" d="m94.31,326.8c.5.8.9,1.5,1.6,1.9.5.2.7.6.5,1.1s-.6.9-1,.7c-2.2-1.1-2.9,1.2-4.4,1.5.7-2.1,1.4-4,3.3-5.2Z"/><path class="cls-3" d="m80.21,352.4c.4-.6.7-1.2,1.5-1,0,1.9-.9,3.5-1.7,4.5-.9,1.2-1.2,3.6-3.6,3.3,1.2-2.4,2.5-4.6,3.8-6.8Z"/><path class="cls-8" d="m47.61,364.8c1.5-2.5-.1-5.1,2.6-6.8.6.1.8.1,1,.4.5,3.7.2,4.4-3.6,6.4Z"/><path class="cls-9" d="m148.21,25.8c-.3.5-.9.9-1.6.8.2-1,.4-1.7.6-2.5.2-.9.6-1.5,1.6-1.3,1.1.2,2.3.4,2.5,1.8.1.8.2,1.6-.6,2.1-.8-1-.9-3-2.5-.9Z"/><path class="cls-8" d="m332.31,388.9q2.4-2.4,3.8.2c.4.6.7,1.2.8,1.9-1.7-.7-3.7-.5-4.6-2.1Z"/><path class="cls-8" d="m164.01,390.1c2.9.2,4.9,2,7,3.1-3.2.3-5.6-.7-7-3.1Z"/><path class="cls-8" d="m349.51,393.6c-.2,0-.3-.4-.1-.6,2.9-.6,5.1.8,7.2,1.9-2.6.4-4.7-1.1-7.1-1.3Z"/><path class="cls-9" d="m141.81,314.5c-.5,2.6-2,4.5-3.3,6.5-.3-2.9,1.5-4.8,3.3-6.5Z"/><path class="cls-3" d="m68.71,369.4c-.1,2.1-1.8,3-2.6,4.4-.5.8-1.5.7-2.3.3,2.2-1.4,2.9-3.9,4.9-4.7Z"/><path class="cls-9" d="m106.31,395.2c2.2.5,3.7,1.6,4.7,3-2.4.7-3.4-.9-4.9-2.1-.2-.3-.2-.6.2-.9Z"/><path class="cls-9" d="m148.01,37.7c.1-.8.5-1.2,1.3-.9-.1,2.2,0,4,.4,5.8-.8,0-1.3,0-1.8-.3.1-1.7.1-3.1.1-4.6Z"/><path class="cls-8" d="m157.61,386.7c2.8,0,4.7,1.2,5.8,3.3-2.1-1.1-4.3-1.7-5.8-3.3Z"/><path class="cls-9" d="m169.71,385c0,.7,0,1.2-.1,1.6-.3,1-.8,1.7-1.9,1-.8-.6-.6-1.4.2-1.9,1.7-1-.5-1.3-.1-2.1,1.1,0,1.7.4,1.9,1.4Z"/><path class="cls-3" d="m89.11,336.9c.2,2.5-1.3,3.9-2.5,5.2.1-2.4.5-4.3,2.5-5.2Z"/><path class="cls-3" d="m85.01,345.1c-.6,2.3-1,4.3-3.1,5.2.4-2.3,1.8-3.8,3.1-5.2Z"/><path class="cls-9" d="m140.51,33.5q.1-3.2,3.3-3c-1.1,1.3-2.2,2.3-3.3,3Z"/><path class="cls-9" d="m105.51,393.9c.5.1.6.6.7,1.1l-.2.1c-.8.2-1.3.1-1.9-.4-1.6-1.4-1.7-2.7-.1-3.8.2,1.4,0,2.6,1.5,3Z"/><path class="cls-8" d="m128.21,293c.1-1.9.2-3.6,1.8-4.4.1,2,.1,3.7-1.8,4.4Z"/><path class="cls-8" d="m118.61,297.5c-1.2,2.1-2.8,3.4-4.9,3.5,1.1-2.2,3.3-2.5,4.9-3.5Z"/><path class="cls-9" d="m133.71,328.7c.1-1,.5-1.6,1.5-1.9.3,1.6-.5,2.7-1.1,3.8-.7,1.4-1.5.8-1.6-.5,1.1-.1,1.2-.8,1.2-1.4Z"/><path class="cls-9" d="m221.71,402.3c-1.5,1.1-2.7,2.7-4.6,1.5,1.5-1,2.9-1.8,4.6-1.5Z"/><path class="cls-9" d="m159.41,378.5q-2.4-.3-2.4-3.2c1.3.8,2.2,1.8,2.4,3.2Z"/><path class="cls-8" d="m125.71,320.5c-1.7-1.1-2.7-2.3-2.7-4.1,1.5,1.1,2.6,2.4,2.7,4.1Z"/><path class="cls-8" d="m282.21,369.6c-2.3-.3-1.9-2.2-2.3-3.4.5.1.7.2,1.1.4.6.7,1,1.1,1.6,1.8.2.6.1.9-.4,1.2Z"/><path class="cls-8" d="m101.71,125.3c.4.8.3,1.4-.3,2-.4.5-.7.6-1.2.4-.2-1-1.1-1.1-1.2-1.9.9-.4,1.7-.5,2.7-.5Z"/><path class="cls-1" d="m352.61,413c-.1-.5-.2-.9,0-1.4,1-.3,1.7-.3,2.2.6,0,.8,0,1.3-.2,1.8-.9,0-1.6-.1-2-1Z"/><path class="cls-8" d="m124.71,290.5c1.2,2.6-.9,1.7-1.9,1.8.2-1.1.8-1.7,1.9-1.8Z"/><path class="cls-8" d="m49.21,115c-1.3-.7-2.4-1.3-2-2.8,1.4.7,2.6,1.2,2,2.8Z"/><path class="cls-3" d="m74.81,362.2c-.3,1.6-1.1,2.5-2.6,2.4.7-1.2,1.2-2.3,2.6-2.4Z"/><path class="cls-8" d="m104.21,310.3c.1,2.2-1,2.7-2.5,2.5.9-1,1.2-2.3,2.5-2.5Z"/><path class="cls-8" d="m366.01,395.9c1.3-.3,2.6-.9,2.9.8-1.3-.1-2.4.5-2.9-.8Z"/><path class="cls-8" d="m371.21,397c1.4,0,2.6-.5,3.2.8-1.4.4-2.7.7-3.2-.8Z"/><path class="cls-9" d="m103.61,125.4c.1,1.5-.9,1.8-2.1,1.4,0-.7,0-1.2.2-1.9,1-.6,1.8-.3,1.9.5Z"/><path class="cls-1" d="m56.61,347.6c1.1.1,1.8.1,2.5.4-.2.8-.5,1.1-1.2,1.4s-1.1.2-1.7-.1c-.3-.3-.4-.5-.6-1,.2-.6.5-.7,1-.7Z"/><path class="cls-9" d="m138.51,348.5c-.9-1.3-1.3-2.5.3-3.2.2,1.3.3,2.3-.3,3.2Z"/><path class="cls-8" d="m137.61,63.9c-.2,1.3-.5,2.3-1.7,2.5-.2-1.6.5-2.3,1.7-2.5Z"/><path class="cls-9" d="m145.91,308.7c-.5,1-.7,2.1-1.9,2.1,0-1.5.4-2.5,1.9-2.1Z"/><path class="cls-8" d="m143.01,53.6c-.1,1.3-.4,2.4-1.8,2.5-.1-1.5.8-2.2,1.8-2.5Z"/><path class="cls-8" d="m361.41,396c-1.2-.3-2.4-.4-3-1.4,1.2.1,2.2.3,3.2.6,0,.3,0,.5-.2.8Z"/><path class="cls-8" d="m122.01,301.8c.4-1.2.6-2.4,2-2.2-.1,1.5-.7,2.2-2,2.2Z"/><path class="cls-3" d="m63.21,375.2c-.1,1.3-.7,1.9-1.8,1.8-.2-1.7.8-1.8,1.8-1.8Z"/><path class="cls-8" d="m44.21,109.9c0-.7,0-1.1.2-1.6,1.3.6,1.2,1.8,1.6,2.7-.1,0-.3.1-.5,0-.3,0-.4-.1-.7-.2-.4-.2-.6-.3-.6-.9Z"/><path class="cls-9" d="m166.31,383.2c-1.3-.3-2.4-.5-2.5-1.8,1.2.4,2.4.5,2.5,1.8Z"/><path class="cls-9" d="m161.81,380.6c-1.1-.5-1.9-1.1-2-2.1,1.4.3,2.4.7,2,2.1Z"/><path class="cls-8" d="m42.01,106.1c-2.1,0-2-1.1-1.6-2.2,1,.6,1.5,1.3,1.6,2.2Z"/><path class="cls-9" d="m148.11,315c.2-1.4.4-2.5,1.8-2.5-.4,1.2-.7,2.3-1.8,2.5Z"/><path class="cls-9" d="m146.81,46.2c.1,1.6-1.1,1-1.9,1.1.1-1.3,1.1-1,1.9-1.1Z"/><path class="cls-8" d="m48.71,385c-1.3.4-2.4.5-2.2-1.1,1,.3,1.9.1,2.2,1.1Z"/><path class="cls-9" d="m138.41,322.3c-.4.9-.9,1.4-1.7,1.5-.1-1.5.7-1.8,1.7-1.5Z"/><path class="cls-3" d="m90.61,333.6c-.1,1.3.2,2.4-1.3,2.4-.1-1.3.3-2.1,1.3-2.4Z"/><path class="cls-8" d="m54.41,355.7c0-1.2.3-2,1.1-2.3,0,1.2.3,2.3-1.1,2.3Z"/><path class="cls-8" d="m388.81,401.8c1.1-.1,1.9,0,1.9,1.1-1.1.1-1.7-.2-1.9-1.1Z"/><path class="cls-8" d="m57.01,350.5c-.3-.4-.5-.8-.4-1.1.7-.1,1.1-.1,1.6,0-.1.8-.5,1-1.2,1.1Z"/><path class="cls-9" d="m147.91,42.8c.1,1-.1,1.7-1.1,1.7-.1-1.1-.1-1.9,1.1-1.7Z"/><path class="cls-9" d="m151.41,301.8c-.1,1-.3,1.6-1.2,1.5.1-.9.3-1.6,1.2-1.5Z"/><path class="cls-8" d="m61.21,378c-.5,1-1.1,1.3-1.9,1,.3-1.1,1.2-1,1.9-1Z"/><path class="cls-9" d="m153.21,373c-1.2-.2-1.2-1-1.1-1.7.9.4,1.3.9,1.1,1.7Z"/><path class="cls-7" d="m383.51,399.8c1-.1,1.2.5,1.2,1.1-.9,0-1.2-.4-1.2-1.1Z"/><path class="cls-8" d="m392.31,403.2c.8-.1,1.2.3,1.2.9-.8,0-1.1-.4-1.2-.9Z"/><path class="cls-8" d="m399.11,420.2c0,.8-.3,1.2-1,1.2-.1-.9.3-1.2,1-1.2Z"/><path class="cls-9" d="m144.51,28.8c.2-.9.7-1.2,1.3-1-.2.8-.6,1.2-1.3,1Z"/><path class="cls-9" d="m330.21,409.1c-.8,0-1.2-.3-1.2-1,.8,0,1.2.5,1.2,1Z"/><path class="cls-9" d="m365.61,411.3c-.5.6-1,.6-1.4.4.4-.8.9-1.1,1.4-.4Z"/><path class="cls-8" d="m139.01,61.2c0,.8-.4,1.1-1,1.1-.1-.9.4-1.2,1-1.1Z"/><path class="cls-9" d="m143.21,312.8c-.3.6-.7.8-1.2.7.2-.9.6-1.1,1.2-.7Z"/><path class="cls-9" d="m150.11,311.5c0-.9.4-1.2,1.1-1.1-.1.8-.5,1.2-1.1,1.1Z"/><path class="cls-8" d="m106.91,307c-.1.9-.4,1.2-1.1,1.1.1-.9.5-1.2,1.1-1.1Z"/><path class="cls-8" d="m109.01,305c-.2,1-.8,1.2-1.4.9.3-.8.8-1.1,1.4-.9Z"/><path class="cls-8" d="m111.01,303.7c-.3,1-.9,1.1-1.5.7.5-.6,1-.9,1.5-.7Z"/><path class="cls-8" d="m112.51,302.4c-.3.8-.8,1-1.4.8.3-.9.8-1.1,1.4-.8Z"/><path class="cls-8" d="m121.51,314.3c-.8-.4-.8-1-.5-1.5.6.5.9,1,.5,1.5Z"/><path class="cls-8" d="m52.11,118.4c-.9-.2-1.1-.8-.8-1.4.8.3,1.1.8.8,1.4Z"/><path class="cls-3" d="m169.01,157.4c1.1,0,1.4.5,1.3,1.3-.3,0-.5,0-.8-.1-.4-.4-.6-.8-.5-1.2Z"/><path class="cls-8" d="m93.91,127.4c-.5.5-1,.5-1.4.3.5-.7.9-1,1.4-.3Z"/><path class="cls-8" d="m59.21,127.3c-.7-.4-.8-.9-.5-1.4.8.4,1.1.9.5,1.4Z"/><path class="cls-8" d="m155.01,384.6c.8.3,1.1.7.9,1.3-.9-.1-1.1-.6-.9-1.3Z"/><path class="cls-8" d="m339.11,391c.8,0,1.1.2,1.2.8-.9.2-1.2-.3-1.2-.8Z"/><path class="cls-8" d="m345.31,392.3c.7,0,1.1.2,1.2.7-.9.4-1.2-.1-1.2-.7Z"/><path class="cls-9" d="m150.41,370.3c-1-.3-1-.9-.7-1.5.6.5.9.9.7,1.5Z"/><path class="cls-9" d="m144.81,50.3c.4,1-.3,1.1-.9,1,.1-.6.4-1,.9-1Z"/><path class="cls-9" d="m146.11,364.8c-.8-.3-.9-.9-.6-1.4.7.5,1,.9.6,1.4Z"/><path class="cls-3" d="m71.41,366.3c0,1-.5,1.3-1.2,1.1.2-.8.6-1.1,1.2-1.1Z"/><path class="cls-7" d="m291.91,378.2c0-.5,0-.9.2-1.2.4,0,.5,0,.6.3-.1.6-.1,1-.3,1.3-.1,0-.4-.1-.5-.4Z"/><path class="cls-1" d="m48.81,86.3c-.4,0-.6-.1-.7-.3.3-.5.6-.7.9-.8.1.5.1.7-.2,1.1Z"/><path class="cls-6" d="m128.21,368.1c-1.9-.7-3.8-.5-5.7-1.1-.5.1-.8.1-1.3.3-1.9-.6-4.2.3-5.2-2.2-1.5-3.4-1.5-3.6,2.1-5.9,1.5-.6,2.8-1.2,4.3-1.8,1.6-.3,2.8-1.4,4.6-1.3,1.9-.2,3.6-1.5,5.4,0,.3.8.4,1.3.7,2.1.4.8.7,1.5.9,2.4.4.8.7,1.5,1,2.4.5,1.3,1.1,2.4,1.6,3.6-1.1.6-2.2.2-3.3.3-.8.1-1.6.2-2.2,1.1-1.1.1-1.9.1-2.9.1Z"/><path class="cls-8" d="m124.31,368.2c-.9.1-1.5-.2-1.5-1.4,2,.1,4.1-.6,5.2,1.4h-3.7Z"/><path class="cls-8" d="m116.81,367.3c-.8-.2-.9-1.1-.5-1.9,1.6,1.3,3.6.7,5,2-1.6.9-3,.2-4.5-.1Z"/><path class="cls-8" d="m130.21,354.8c1-.1,1.9-.1,1.8,1.2-2-.5-3.5,1.2-5.1,0,1.1-.8,2.2-1.2,3.3-1.2Z"/><path class="cls-8" d="m122.01,357.7c-1.3,1.1-2.6,1.8-4.1,1.4,1.2-1.4,2.6-1.7,4.1-1.4Z"/><path class="cls-8" d="m133.81,360.3c-.9-.7-.9-1.5-.5-2.2,1.1.6,1,1.4.5,2.2Z"/><path class="cls-8" d="m124.41,371.8c-.7-.1-1.2-.1-1.7-.4,1.3-1.3,1.5-1.2,1.7.4Z"/><path class="cls-8" d="m142.31,372.3c-.4-.5-.5-.9-.5-1.2,1.2.1,1.4.6.5,1.2Z"/><path class="cls-8" d="m127.61,349.6c.6-.1,1-.2,1.3,0-.6.9-1,.9-1.3,0Z"/><path class="cls-8" d="m118.01,352.9c.5-.2.8-.3,1.2-.2-.3,1.2-.8,1.4-1.2.2Z"/><path class="cls-4" d="m87.81,241.2c-1-.2-1.2-1-1-2.1.3-1.3,1.1-2.7.6-4.2-.4-1.1.1-1.8,1.3-1.7,1.3.1,1.4,1.1,1.1,2-.3,1.2-.6,2.4-.5,3.9-.1,1.2-.1,2.3-1.5,2.1Z"/><path class="cls-4" d="m88.71,243.5c.3.6.6,1.2,0,1.8-.4.4-.7.9-1.1,1.3s-.9.8-1.5.5c-.5-.2-.8-.7-.9-1.3-.2-.9.1-1.7,1.2-2.4,1-.5,1.7-.9,2.3.1Z"/><path class="cls-8" d="m54.51,347.8c.4-.4.5-.6.9-.7.4.2.7.3.8.6-.3.4-.4.6-.7.8-.4-.1-.7-.2-1-.7Z"/><path class="cls-6" d="m85.41,241.4c.1,0,.2.1.2.2,0,.5-.3.8-.9.7-.2-.7,0-1,.7-.9Z"/><path class="cls-9" d="m122.61,13.6c1.6-1.3,2.3-.6,2.7,1.2-1.6,1.2-1.8,2.6-1.5,4.3.3,1.6.7,3.3-.8,4.9-2.2.6-1.9,3.8-4.4,3.5-.1-1.1,0-1.9.3-2.6.4-.8-.1-1.3-.6-1.9.1-.3.1-.5.3-.8.2-.4.1-.6-.1-1,.8-2.3,1.5-4.3,2.5-6.4.7-.5,1.3-.9,1.6-1.2Z"/><path class="cls-9" d="m116.31,33.4c1.6-.4,2.9.2,4.5.4.9.3,1.5.6,2.2,1.3.5.8.7,1.5.3,2.3-1.4.4-2.1,1.3-2.9,2.4-2.5,0-4.5-1.1-6.6-1.6-.5-.1-.5-.7-.4-1.2,1.1-1.1,2.3-2,2.9-3.6Z"/><path class="cls-1" d="m115.81,33.4c-.4-.7-.3-1.3.2-1.9,1.4-1,2.3-2.3,2.9-3.9,1-1,1.4-2,1.7-3,.3-1.2,1.1-1.2,2.2-.9.5.7.5,1.2.4,2-.4,1.1-.3,2-.5,3.1-.8,2.1-.6,4.3-2.6,5.6-1.7.3-2.7-.8-4.1-.8l-.2-.2Z"/><path class="cls-8" d="m27.71,55.7c-1-2.7.7-3.6,2.9-4.5,2.1.3,1.2,1.7,1.1,3-.2,1.1-.7,2.1.3,2.7,1.1.6,2,0,2.7-.8.5-.5.8-1.2,1.7-1.3.7.4,1,.9.8,1.5-.6,2.2-2.3,3.5-4.8,3.3-1.8-.1-3.7-.4-5.3-1.7.2-.8.8-1.6.6-2.2Z"/><path class="cls-9" d="m62.11,37.5c-.4,1.1-1.8.9-1.9,1.6-.5,2.4-2.7,2.7-4.3,3.4,1.3-4.1,2.8-5.3,6.2-5Z"/><path class="cls-9" d="m35.21,51.3c0,.1,0,.2-.1.4-.1.3,0,.5.1.8,0,.5.1.8-.1,1.2-1.5-.2-2.5,1.3-3.9.4-.3-1.1,1.1-2.4-.7-2.9,2.3-1.4,3.2-1.4,4.7.1Z"/><path class="cls-9" d="m111.11,37c-.4.4-.7.5-1.3.4-1-.5-1.6-1.1-2.4-1.7-1.3.1-2.1-.3-2.3-1.5,3.5-.4,4.9.3,6,2.8Z"/><path class="cls-9" d="m41.81,49.7c1.2-1.3,2.1-.6,2.9.5-2.4.8-4.5,1.6-6.7.8,1.1-1.4,2.8-.3,3.8-1.3Z"/><path class="cls-9" d="m98.51,32.4c-2.2-.1-4.2.2-5.1-1.9,2.3-.2,4.2-.1,5.1,1.9Z"/><path class="cls-8" d="m20.81,57.3c.1.7-.5.9-1.1.8.1-1.8-.8-3.6,1.3-4.3.1,1.4-.5,2.4-.2,3.5Z"/><path class="cls-9" d="m74.31,24.1c1.2-.7,1.8.2,2.6.8-1.1,1.5-1.7,1.3-2.6-.8Z"/><path class="cls-9" d="m84.21,29.5c-1.5-.3-2.7-.5-3.9-1,1.7-.7,3.2-.6,3.9,1Z"/><path class="cls-9" d="m106.81,31.3c1.5-1.2,2.5-.2,3.4.6-1.3.4-2.3-.4-3.4-.6Z"/><path class="cls-9" d="m88.41,30.2c-1.1.1-2,.3-2.4-.8,1.2-.5,2.2-.6,2.4.8Z"/><path class="cls-9" d="m86.81,24.9c1.2.2,2.4-.3,2.3,1.3-1.4.1-2.5.2-2.3-1.3Z"/><path class="cls-9" d="m51.61,44.9c-.6.8-1.1,1.6-2,1.6.3-1.3.1-3,2-1.6Z"/><path class="cls-7" d="m111.31,37.6c.2-.4.3-.5.6-.7.2-.1.5,0,.5.3.1.9.3,1.6.4,2.2.2,1-.4,1.1-1.3.9-.5-.9-.5-1.7-.2-2.7Z"/><path class="cls-9" d="m48.31,47.7c-.5,1.1-1.1,1.7-2.1,1.5.4-1.3,1.1-1.8,2.1-1.5Z"/><path class="cls-9" d="m115.81,31.9c0,.7.1,1.2-.1,1.7-1.5-.9-1.5-1.1.1-1.7Z"/><path class="cls-9" d="m72.21,32c-.6,1.2-1.4,1.1-2.1.7.6-1.1,1.4-.9,2.1-.7Z"/><path class="cls-9" d="m55.11,43.7c-.6,1.1-1.4,1-2.1.5.7-1,1.4-.8,2.1-.5Z"/><path class="cls-9" d="m113.41,32c-.5.3-.8,0-.9-.5.3-.3.5-.4.8-.4.3.4.4.8.1.9Z"/><path class="cls-9" d="m64.11,36.2c-.4.8-.9,1-1.5.7.3-.9.9-1,1.5-.7Z"/><path class="cls-8" d="m33.31,44.3c.7-.1,1.1.1,1.2.6-.9.5-1.2,0-1.2-.6Z"/><path class="cls-1" d="m109.51,37.6c.1-.4.2-.6.5-.7.5,0,.7-.1,1.2-.1.3.1.4.1.5.4,0,.5,0,.7-.3,1-.8.2-1.3.1-1.9-.6Z"/><path class="cls-3" d="m73.71,203c.5,1.1-.8,1.2-1.4,1.8-.4.4-.7.8-1.2,1-.5-1.3-.2-2.4,0-3.4,1.1.1,2.3-.4,2.6.6Z"/><path class="cls-3" d="m74.01,220.6c-.4-.5-.3-.9.1-1.2.8.6.7,1.1-.1,1.2Z"/><path class="cls-3" d="m68.81,174.9c.2-.5.4-.9.7-1.1.7,1,0,1.1-.7,1.1Z"/><path class="cls-3" d="m69.31,172.2c-.4-.6-.3-.9.3-1.1.5.6.2,1-.3,1.1Z"/><path class="cls-6" d="m61.61,383.8c.7-.8,1.5-1.1,2.3-1.5.6-.4,1.3-.5,1.8.2.4.6.1,1.2-.6,1.7-.8-.1-1.3,0-2-.1-.6-.1-1-.2-1.5-.3Z"/><path class="cls-4" d="m274.41,275.9c-.7,1.6.1,2.5,1.1,3.5.4.4.4,1,.3,1.6-1.2.2-1.5.8-1.2,1.7.2.6.5,1.3.6,2.1-.2.6-.3,1-.7,1.5-.7,0-1.2,0-1.4-.5-1.2-3.4-2.5-6.7-3.5-10.1-.4-1.2-.7-2.8,1.5-3.1.1.1.3.2.4.4.4.9,1.1,1,1.9,1.3.5.6,1.2,1,1,1.6Z"/><path class="cls-4" d="m237.41,229.5c-1.2.1-1.2-1.2-1.6-1.9-.3-.5-.8-.8-1-1.3-.3-1.1,0-1.9,1.5-2,.6.4,1.1.6,1.6,1.1.4.7.6,1.1.9,1.8-.4,1-.5,2.1-1.4,2.3Z"/><path class="cls-5" d="m248.41,239.4c.3,0,.5-.1.6.1,0,.1,0,.5-.2.4-.4-.2-.5-.3-.4-.5Z"/><path class="cls-9" d="m152.21,42.1c1.3.7,1.4,1.6,1,2.6-2.6-.2-1.7-1.6-1-2.6Z"/><path class="cls-9" d="m155.21,30c.2-.4.5-.3.9-.2.1.3.1.4-.1.5-.4-.1-.8-.2-.8-.3Z"/><path class="cls-9" d="m150.01,42.6c.1.1,0,.1,0,0h0Z"/><path class="cls-7" d="m248.51,394.8s.1-.2.2-.2c.4,0,.6.2.5.7-.6.1-.8,0-.7-.5Z"/><path class="cls-6" d="m364.51,420c2.1.7,1,1.8.7,2.8-.3.8-.3,1.9-1.4,2.1-.7.1-1-.5-.9-1.1.1-1,.7-1.9.7-3.1.4-.4.5-.6.9-.7Z"/><path class="cls-2" d="m358.11,416.9c-1.1-.6-1.8-1.1-1.6-2.2.9,0,1.6.1,2.3.3.3,1,.2,1.6-.7,1.9Z"/><path class="cls-8" d="m381.91,437.2c-1.3.1-2.4.1-2.4-1.3,1.3-.1,2.4-.2,2.4,1.3Z"/><path class="cls-1" d="m373.51,433.1c.7,0,1,.6,1,1.4-.7.6-1.2.7-1.9.3-.1-.9.1-1.6.9-1.7Z"/><path class="cls-8" d="m366.11,437.2c-.5-.3-.8-.5-1.1-1,1.3-1,1.3-.9,1.1,1Z"/><path class="cls-8" d="m222.71,211.2c-1.5-.1-2.4-.6-2.1-2.1l1,.5c.6.6,1.2,1,1.1,1.6Z"/><path class="cls-9" d="m287.21,370.2c-.2.9,0,2.3-1,1.8-1.3-.7-3.1-.7-3.8-2.6,0-.6,0-.9.3-1.2,1.7.6,3.1,1.2,4.5,2Z"/><path class="cls-9" d="m320.41,381.3c-1.3-.2-2.8.4-3-1.2.7,0,1.2.1,1.8.2.6.4,1,.7,1.2,1Z"/><path class="cls-9" d="m310.81,379.4c-.5-.4-.5-.9.1-1.5.5.2.7.3.9.7-.2.7-.5,1.2-1,.8Z"/><path class="cls-9" d="m322.21,381.4c.5.2.9.4,1.1.7-1,.5-1.2,0-1.1-.7Z"/><path class="cls-7" d="m23.01,85.3c-.9-1.7-1.4-3.4-1.9-5.2-.2-.6-.3-.9-.4-1.6v-2c0-.6,0-.9.1-1.4s.2-.7.4-1.2c.5-.3.8-.3,1.3,0,2.8,3.4,5.3,6.7,9.2,8.6.7.3,1.6.6,1.4,1.8-1.3,1-2.2.3-3.2-.2-2.8-1.4-3.8-.7-4.5,2.4-.8-.4-1.4-.6-2.4-1.2Z"/><path class="cls-7" d="m43.81,111.4c-.4.4-.2,1.2-1,1.1-.1,0-.4-.2-.4-.4-.2-.6-.2-1.3.6-1.6.4-.2.8-.2,1.4-.2.3.2.4.4.3.6-.5.2-.9.3-.9.5Z"/><path class="cls-6" d="m36.31,106.1c-1.8.1-1.8-.9-1.4-2,1.5.1,2.2.6,1.4,2Z"/><path class="cls-3" d="m111.21,381.4c0,.4-.2.4-.7.5-1.5.1-2.7-.1-3.6-1,.4-.4.7-.6,1.2-.9,1-.6,1.9-.8,2.9-.7,0,.8,0,1.3.2,2.1Z"/><path class="cls-3" d="m106.01,396.4c-.8.4-1.4.9-2,.3-.7-.7.1-1.2.5-1.8.7,0,1.2.1,1.7.3.1.5.1.8-.2,1.2Z"/><path class="cls-3" d="m120.51,406.5c-.6,0-1-.1-1.2-.6,1-.9,1.2-.1,1.2.6Z"/><path class="cls-3" d="m114.71,403.4c.1.5.2,1-.2,1-.8,0-.7-.7-.6-1.2.4-.1.5,0,.8.2Z"/><path class="cls-6" d="m112.01,382.1c-.2.6-.5,1-1,.9-.2-.5-.2-.8-.2-1.3.2-.3.2-.4.5-.5.4.3.6.5.7.9Z"/><path class="cls-7" d="m384.41,398.7s0-.1.1-.1-.1.1-.1.1Z"/><path class="cls-8" d="m251.11,240.6c.6-.7,1.2-.6,1.8-.2.1.4.2.6.1,1-1.2.8-1.8.4-1.9-.8Z"/><path class="cls-7" d="m23.11,71.8c0-1.3,0-2.2.2-3.3.5-.3.7-.2,1,.3,0,1.2,0,2.2-.1,3.3-.4.3-.6.3-1.1-.3Z"/><path class="cls-8" d="m23.11,72s.1,0,.2.2c.2,1,.3,1.8-1.1,1.8-.5.1-.8.1-1.1-.1.1-1.4.8-1.9,2-1.9Z"/><path class="cls-9" d="m18.41,72.7c0-.1.4-.3.5-.3,1,.3.6,1.1.7,1.7,0,.2,0,.4-.2.6-1.2-.4-1.2-1.2-1-2Z"/><path class="cls-8" d="m19.51,74.6l.2.1c.5.3.8.4,1.3.7.6.7.4,1.1-.4,1.3-1.2-.4-1-1.2-1.1-2.1Z"/><path class="cls-8" d="m21.11,79c.5.5.5.9.1,1.3-.8-.5-1-1-.1-1.3Z"/><path class="cls-8" d="m23.51,67.1c.7.4.9.9.7,1.5-.4.1-.7.1-1-.1,0-.7,0-1.1.3-1.4Z"/><path class="cls-5" d="m403.51,419c-.5.4-.8.5-.9.4.4-.3.7-.5.9-.4Z"/><path class="cls-4" d="m122.41,25.4c0-.8,0-1.3.2-2,.9-1.8.2-3.4-.1-5-.5-2.9,0-3.4,3-3.8.1,0,.3.2.5.3.6.4.9.8,1.2,1.4.6,2.2,3.1,2.7,3.2,5.2,0,.9-.2,1.5.1,2.4.1,1,.1,1.7,0,2.6-.4.5-.5,1-.3,1.4q.8,2.2-1.9,2.6c-2.3-2.2-.3-5.4-2.3-7.8.4,2.8-.2,5.3-.6,7.9-.2,1.9-.8,3.8-3.1,4.6-.8-.3-1.4-.5-1.9-1,.3-2.2,1.1-4,1.8-6,.6-1,.4-1.8.2-2.8Z"/><path class="cls-4" d="m136.31,33.4c.1,1.5.1,2.7-.6,3.8-.5.8-1,1.6-2.1,1.2-1-.3-.8-1.3-.7-2,.1-.9.5-1.7.9-2.7,1-.3,1.8-.5,2.5-.3Z"/><path class="cls-9" d="m130.51,23.6c-1.4-1-.3-1.6.2-2.2,2,.9.7,1.5-.2,2.2Z"/><path class="cls-9" d="m127.21,16c-.8-.2-1-.7-.9-1.2.9.1,1.2.5.9,1.2Z"/><path class="cls-4" d="m118.71,21.5c.4.5,0,.6-.2.6,0-.4,0-.5.2-.6Z"/><path class="cls-5" d="m66.51,50.9c1.7-1.7,3.9-2.7,6.2-3.2,3-.6,7.4,2.4,7.5,5.4.1,2.4.4,4.9-.3,7.4-.4,1.5-1.1,2.8-2,3.9-2.3,2.8-6,2.7-8.3-.1-1.2-1.4-2.5-2.7-4.1-3.6-.6-.3-1.3-.6-1.3-1.4,0-2.4-1.1-4.1-3.2-5.2-.5-.3-.8-.9-.6-1.5.2-.5.7-.9,1.3-.9,1-.1,2-.1,3.3-.2.6-.2,1.1-.4,1.5-.6Z"/><path class="cls-3" d="m24.61,72.1c1.8,1.9,3.5,3.6,5.4,5.5.6.5.9.8,1.5,1.2.9.7,1.5,1.4,2.6,1.6.8,1.4,3,2.1,1,4-.7-.1-1.2-.2-1.9-.4-5.1-1.9-8.5-5.3-10.6-10.1.5-.7.4-1.3.7-1.9.5,0,.8,0,1.3.1Z"/><path class="cls-8" d="m111.41,40.4c-2.3.1-4.4-.2-6.5,0-3.4.3-6.9,0-10.3-1.5-.4-.8-.3-1.3.5-1.7,1.6-.2,2.7-.6,4.2-.3,2.7.6,5.6.5,8.6.6.9-.2,1.4,0,2.1.4.7.1,1.2.1,1.7.4,0,.9,0,1.6-.3,2.1Z"/><path class="cls-3" d="m32.71,71.2c.6-.2.9-.1,1.4.2,1.4,2.1,2.4,4.1,4.3,5.6,1,.7,1.8,1.6,2.8,2.4.6.5,1.1.9.8,1.7-.3.8-1,1.2-1.9,1.1-1.7-.2-3-1-3.9-2.4-.6-.9-1.2-1.9-2.4-2.6-1.3-1.9-1.5-3.9-1.1-6Z"/><path class="cls-4" d="m126.81,39.8c.4.4.6.7.9.8,1.7.6,2.5,2.2,1.7,3.4-.9,1.4-2.1.7-3.1-.1-.2-.2-.5-.3-.8-.5l-.2-.2c-1-1.1-2-1.9-3.4-2.6-.5-.3-.8-.5-1.2-1-.7-1.6-.7-2.5,1.2-2.4.5,0,1-.1,1.8-.2,1.8,0,2.8.8,3.1,2.8Z"/><path class="cls-8" d="m103.81,45.3c2.7-.1,4.5,1.2,6.4,2.4.9.6,1.6,1.5,1.5,2.8-.1,1.4-.6,1.8-1.9,1.1-2.6-1.4-4.8-3.7-7.7-4.8-.5-.2-.6-.9-.5-1.6.9-.4,1.4-.3,2.2.1Z"/><path class="cls-8" d="m38.71,70.8c-.5-2-2.3-2.9-3.7-4.2-.6-.6-1.1-1.2-1.1-2.3,0-.6,0-.9.2-1.3.6-.2.9-.1,1.4.2,2.2,2.2,4.4,4.2,6.5,6.3-.8.6-1.3,1-1.5,1.8-.8-.1-1.6-.1-1.8-.5Z"/><path class="cls-4" d="m36.11,55.1c-.1,1.2-.4,2-1.3,2.5-1.3.7-2.7,1.5-3.8.4-1-1-.9-2.5.4-3.7.4-.2.7-.2.8-.4.5-1.2,1-2,2.2-.6.2.2.6.2,1.1.4.3.4.5.8.6,1.4Z"/><path class="cls-8" d="m31.51,65.3c.1-.8,1.1-.6,1.7-.4.2,2.3,1,4.4.5,6.5-.5,0-.8,0-1.4-.1-1.8-2-1-4.1-.8-6Z"/><path class="cls-7" d="m90.81,39.3c-.5-.4-.9-.7-.7-1.4.1-.5.5-.7,1-.7,1.3,0,2.5,0,3.7.3,0,.7-.1,1.2-.3,1.8-1.4.8-2.6.7-3.7,0Z"/><path class="cls-7" d="m100.11,45.1c-.4-.2-.3-.8,0-.8,1.3-.2,2.8-1.1,3.2,1-.8.1-1.3.1-2.1.1-.6-.1-.9-.1-1.1-.3Z"/><path class="cls-9" d="m122.31,40.6c1.9.1,2.9,1,2.9,2.7-1.6-.5-2.5-1.5-2.9-2.7Z"/><path class="cls-8" d="m114.01,52.3c.6,0,1.1.4,1,1-.2,1.1-1,.9-1.9.4-.8-1.4.1-1.4.9-1.4Z"/><path class="cls-7" d="m107.81,35.8c1.1,0,1.8.2,1.9,1.4,0,.4,0,.5-.3.7-.8-.1-1.3-.2-1.8-.5.1-.7.1-1.2.2-1.6Z"/><path class="cls-7" d="m34.41,61.4c1.3,0,.8,1.1.7,1.8-.5-.1-.8-.1-1.3-.2-.6-1-.1-1.6.6-1.6Z"/><path class="cls-7" d="m31.01,78.7c-1-.1-1.2-.6-1-1.2.9.1,1.1.6,1,1.2Z"/><path class="cls-7" d="m35.11,52.3c-.3-.5-.1-.6.2-.5,0,.3,0,.4-.2.5Z"/><path class="cls-3" d="m87.61,346.6c-.3,0-.4-.4-.3-.7.2-.5.5-.7,1-.1-.2.4-.4.8-.7.8Z"/><path class="cls-8" d="m96.21,325.3c.3.3.4.5.4.6-.3-.2-.4-.4-.4-.6Z"/><path class="cls-1" d="m122.81,34.9c3.2-4.5,2.6-9.5,2.5-14.7,2.1,1.5,2.8,3.1,2.9,5.3.1,1.6-.5,3.4.6,5.2-.8,2.2-.7,4.2-.6,6.2.1,1.1,0,2.2-1.6,2.4-1.1-.9-1.9-1.9-3.2-2.4-.4-.7-.6-1.3-.6-2Z"/><path class="cls-1" d="m132.21,34c-.1,1.1-.2,1.9-1.3,1.7-.5,0-.7-.5-.7-.9.1-.9.7-1,1.4-1h.6v.2Z"/><path class="cls-4" d="m129.81,38c-.1-.1-.1-.4,0-.5.3-.2.6-.2.8.3-.2.5-.5.6-.8.2Z"/><path class="cls-6" d="m131.21,40.4s0-.3.1-.2-.1.2-.1.2Z"/><path class="cls-5" d="m128.61,280.8c-.7-1.5-.7-2.8-.2-4,.2-.6.7-.2,1,.4,0,1.3.6,2.6-.8,3.6Z"/><path class="cls-9" d="m122.81,25.7c.7,1.3.8,2.2-.7,2.4,0-1-.3-1.9.7-2.4Z"/><path class="cls-1" d="m25.01,81.9c0-.1.2-.1.3,0,.3.2.3.5-.2.8-.5-.3-.5-.6-.1-.8Z"/><path class="cls-7" d="m72.91,58.2c0,.9-.4,1.6-1.2,1.9-1.4.6-2.1-.4-2.9-1.2-.7-.6-1.5-1.3-1.1-2.3.4-.9,1.4-1.5,2.3-1.9.9-.4,1.9-.9,2.7.6.1,1.2.1,2.1.2,2.9Z"/></svg>