<?xml version="1.0" encoding="UTF-8"?><svg id="Layer_1" xmlns="http://www.w3.org/2000/svg" viewBox="0 0 508.2 326.2"><defs><style>.cls-1{fill:#6a5854;}.cls-2{fill:#92736f;}.cls-3{fill:#211d1d;}.cls-4{fill:#0c0909;}.cls-5{fill:#100c0c;}.cls-6{fill:#947570;}.cls-7{fill:#2d2828;}.cls-8{fill:#3b3635;}.cls-9{fill:#272120;}</style></defs><path class="cls-6" d="m437.99,113c-1.3-.9-2.5-1.6-4-1.9-1.8,1.8.2,2.2,1,2.8,4.8,3.6,10,6.5,15.4,9.6,1.7.6,3,1.6,4.7,2.2.3.2.4.3.7.6,1.2,2.9,2.9,4.9,5.7,5.7.7.3,1.6.5,2,1.2,2.1,3.5,5.8,4.9,9.2,6.9.9.7,1.7,1.2,2.4,2.1.5.7,1,1,1.7,1.4.9.6,1.5,1.1,2.1,2,6.9,6.5,12,13.8,15.8,22.2,2.6,5.7,2.8,11.6,2.1,17.6-.1.9-.4,1.7-.9,2.5-2,2.8-2.4,6.1-3.3,9.5-.4,2-.6,3.7-1.7,5.3-.8.7-1,1.4-1.1,2.4-.1.7-.2,1.1-.5,1.7-.7.7-.8,1.4-1,2.4-.1.5-.2.8-.5,1.3-.9,1.3-.6,2.7-.9,4.1-.4,1.4-.4,2.6-1.2,3.8-.5.3-.8.5-1.3.7-1.9.8-1.8,2.8-3,4.1-3.1,2.8-6.3,4.6-10.5,2.4-.8-1.3-1.8-1.6-3.2-2-3.4-2.1-4.6-5.3-5.4-9-.1-1.6-.4-2.9-1.1-4.4.2-2.7.1-5.2.5-7.9.4-1.1.5-2,.2-3.2,0-.6,0-.9.1-1.4.3-1.1.1-1.9-.1-3,0-.5,0-.8.1-1.3-.2-2,.5-3.6.5-5.6,0-.7,0-1.1.2-1.8.4-1.3.1-2.3-.6-3.4-.1-.6-.2-.9-.1-1.4-.3-2.3-.7-4.4.3-6.7.5-2.5,1-4.8,2.5-6.9,2-2.8,4.6-5,6-8.4-4,.8-6.3,2.6-7.9,6.2-.6,1.1-1,1.9-1.8,2.8-1.6,2.2-3.2,3.9-6,1.6-.3-.3-.4-.3-.7-.6-.5-.6-1.1-.8-1.8-1.1-1.3-.6-2.3-1.3-3.2-2.5-4.1-4.1-9-6.6-14.5-8.4-.3-.3-.4-.4-.7-.7-1.2-1-2.1-2.2-3.4-2.5-6.2-1.2-11.5-5.2-18.2-5.6-.8-.5-1.3-.8-2.2-.9-1.7-.4-3.1-.6-4.8-1-.9-.3-1.5-.5-2.4-.9-.7-.3-1.1-.6-1.6-1.3-.7-1.2-.9-2.3-1-3.7.7-6.3-2.2-11.7-2.7-17.7,0-1-.4-1.5-1-2.1-.4-.6-.7-1-1-1.6-.6-1.1-1.3-1.6-1.9-2.3-.4-.5-1-1.2-1.7-.8-.9.5-.6,1.4-.3,2.1.8,1.8,1.2,3.7,2.7,5.4.7,1.3.9,2.5,1,3.9.2.7.3,1.2.5,2,.1,3.5,1.2,6.5,2,9.9.1.9.1,1.5,0,2.3-1.3,3.5-.5,7-1.4,10.3-1.4,5-2.8,9.9-3.9,15-1.3,5.8-1.2,11.6-1.3,17.5-.2,10,.5,20,1.7,29.9.3,3.1-.7,5.9-4,7.6-1.9.8-3.2,1.9-4.4,3.5-.5.5-.9.7-1.5.9-1.2.2-1.5,1-2,1.9-.7.9-1.3,1.5-2.3,2.1-1.9,1.1-3,2.8-4.2,4.6-.6,1.4-1.3,2.4-2.8,2.9-.6.2-.9.5-1.2,1-.1.3-.2.4-.4.7-.5.7-.8,1.3-1.4,2-.5.5-.7,1-1.1,1.7-.7,1.2-1.4,2.1-2.3,3.2-1.4,1.8-2.7,3.5-3.6,5.6-.5,1.2-.9,2.2-1.8,3.2-2.3,1.4-2.2,3.8-3,5.9-.2.4-.4.7-.8,1-.6.5-.9,1-1.1,1.7-.3.8-.6,1.3-1.2,1.9-1,1.4-2.4,2.2-3,3.9-.2.4-.3.5-.5.8-.6.6-.9,1.2-1.4,1.8-.4.4-.7.6-1.2.8-1.9.9-3.6,1.6-5.1,2.6-5.6,3.7-11.8,4-18.1,3.3-1.4-.2-3-.4-3.3-2-.3-1.5.9-2.5,2-3.3.7-.5,1.6-.9,2.4-1.3,1.1-.6,2.4-.9,3.5-1.4,1-.5,2.2-.6,3.2-1.5-3.6-.1-5.1.5-9.7,3.1-1.6.9-3.2,2.2-4.9.2-1.4-1.7-1.2-3.9.6-5.8.9-.9,2-1.5,3.1-2.1.8-.5,1.8-.7,2.5-1.7-1.7-.5-2.7.5-3.9.7-1.2.2-2.9,1.2-3.4-.7-.4-1.5,1.1-2.3,2.5-2.7s2.7-.7,4-1.1c1.7-.5,3.1-1.4,4.1-3.2,1-1.2,1.9-2.2,3.2-3.1,3.4-1.3,5.2-4.1,6.9-6.7,2.3-3.6,5.3-7,6.2-11.7.1-.6.2-.9.5-1.4,3.4-4.3,4.4-9.1,4.6-14.1.1-1.8-.1-3.4-1.9-4.7-.3-.3-.4-.5-.6-.8-1.2-2.5-3.2-3.6-5.4-4.1-3.6-.7-6.6-2.1-9.3-4.9-1.4-1.5-3.3-2.4-4.4-4.3-1.4-3.1-3.6-5-6.4-6.7-.6-.9-1-1.7-1.5-2.7-.4-.8-.8-1.4-1.4-2.1-.2-.3-.3-.4-.5-.7-1.1-1.5-2.1-2.9-3.5-4.2-.4-.9-.6-1.6-1-2.5-.3-.7-.8-1.1-1.2-1.8-.2-.4-.3-.5-.4-.9-.6-1.4-1.2-2.4-1.6-3.6-1.3-3.5-1.7-7.4-3.9-10.9-.2-.5-.2-.8-.2-1.4-.3-2.7-.5-5.2-2.2-7.5-.5-.9-.7-1.7-.5-2.8,0-4.8-1.4-9.2-1.4-13.8,0-.5-.4-1-.7-1.5-1.1-1.7-1.9-1.1-2.7.5-.2.3-.3.5-.5.8-.7,1.2-.1,2.3-.3,3.6-.1.5-.2.8-.4,1.3-.2,2-1,4,.7,5.8.2.5.2.8.2,1.3-.1.9.1,1.5.2,2.3.2,1.2.2,2.2.2,3.4-.1,2.1.7,3.7,1.7,5.5.2.6.2.9.3,1.5,0,1.7.4,3,.8,4.3,1.6,5.1,4.5,9.7,5.9,15.1.2.3.3.4.5.7.5.7,1,1,1.5,1.6.5.7.7,1.3.8,2.1.3,2.1,1.8,2.8,3.3,3.9,1.2.8,2.1,1.6,2.5,3.1.9,1.8,2.1,3,3.1,4.4,1.5,2.1,1.2,3.3-1.2,3.6-5.5.7-10.9,2.1-16.7,2.2h-1.6c-5.3.1-10.1-1.7-15.1-1-5.3.8-10.4.9-15.5-1.2-.2-.1-.5.1-.9.3-1.3.5-2.3,1.1-3.6,1.6-1,.2-1.6.8-2.5,1.2-.8.2-1.4.3-2.2.3-1,0-1.6.4-2.3,1-1.2.7-2.3,1.3-3.7,1.4-.8.1-1.3.4-2,.7-.6.2-1.1.4-1.7.5-.8.3-1.2.7-2,1.1-1.8.8-3.4.8-5.3.9-1.5,0-2.2.9-3.2,1.8-1.4.9-2.8,1.2-4.4,1.7-4.6,1.1-9.2,1.3-13.4,3-2.2.9-4.5,1.1-7.2,1-1.2-.1-2.1.1-3.2.3-.6,0-1-.1-1.5-.4-.8-.8-1-1.6-.8-2.4,1-4.1,1.1-8.3,2.7-12.2,1.2-2.9,1.6-5.9.3-9-2.1,6.7-4.2,13.5-5.8,20.6,0,.6-.1.9-.3,1.4-.4.6-.7,1.1-1,1.9-.2.6-.5,1-1,1.4-.6.4-.8.7-1,1.3-.1.4-.2.7-.5,1.1-.5.5-.7,1-1,1.7-.3,1-.4,1.9-.9,2.8-.2.2-.3.3-.6.5-.6.3-1,.7-1.5,1.2-.3.3-.5.5-.8.8-.4.4-.7.7-1.1,1.1-.2.2-.3.3-.6.5-.6.4-.9.8-1.3,1.4-.2.2-.3.4-.5.6-.5.6-.9,1-1.5,1.6-5.4,2.9-10.7,5.6-16.3,8.2-.9.1-1.2.6-1.7,1.3-.9,1.5-2.2,2-3.9,2.1-1.3.1-1.5,1.1-2.2,1.9-.3.2-.4.2-.8.3-.8,0-1.4.2-2.2.5-6.3,2.6-12.9,4.2-17.1,10.1-.8,1-2.1,1.8-3.3,2.4-4,2-7.3,5-11,7.4-7.3,4.7-14.1,10-20.7,15.5-4.6,3.9-9.7,7.1-14.3,11-4.2,3.5-9,6.1-13.7,8.8-5.3,3.1-11,2.9-17.1,2-.6-.1-.9-.2-1.5-.5-1.7-1.3-4.8-.5-4.4-3.9,4.8-3.8,10.9-4.3,15.8-7.5-6.5.6-13.3.7-17,7.9-.5.3-.8.4-1.4.4-.4-.1-.6-.1-.9-.3-1-1.1-1.8-2-3-2.7-.4-.3-.6-.5-.9-1-.3-.7-.5-1.1-.6-1.8,0-.6.1-.9.5-1.3,2.4-2.2,5.3-3.4,7.7-5.5,1.5-.5,3-.3,4.3-1.6-2.3-.8-3.6.6-5.4,1.3-2.2.5-3.9,1.4-5.4,3.1-.5.2-.9.2-1.4,0-.5-.3-.7-.6-.9-1.1-.1-.7.1-1.1.6-1.7,1.1-.9,1.4-1.9,2.2-3,.3-.3.4-.4.7-.6,3-1.6,5.8-3.1,8.5-5.1.5-.3.8-.4,1.3-.5,3-1.4,5.9-2.5,8.5-4.7.3-.3.5-.3.8-.5.7-.3,1.1-.7,1.7-1.2.4-.2.5-.3.8-.5,1.2-1,2.1-1.8,3-2.9.4-.4.6-.7,1-1,1.2-1.1,2.8-1.6,3.8-3.1.6-.5,1.2-.8,1.9-1.2,1.3-.7,1.5-2,2.4-3,.9-.8,1.7-1.2,2.7-1.6s1.3-1.1,1.6-2c.5-1.1,1.3-1.4,2.3-1.9.7-.4,1-.8,1.6-1.3.3-.2.4-.3.7-.5,1-.7,1.3-1.7,1.9-2.7.7-.6,1.3-1,2-1.6s1-1.3,1.5-2c.7-.8,1.3-1.5,2.2-2.1,1-.5,1.4-1.3,2-2.2.3-.4.5-.7.9-1.1,1.9-1.7,3.3-3.5,4.5-5.4,1.9-2.9,4.2-4.4,7.7-4.9,5.3-.8,9.6-3.8,13.9-7.4-2.3-.7-4,.1-5.3.9-4.5,2.7-9.6,3.2-14.5,4.5-1.9.5-3.7.6-5.7.4-9.5-1-17.4-5.8-25.2-10.6-3.6-2.3-7.4-4.8-10.1-8-4.3-5-9-9.7-12.3-15.4-1.2-2-2.7-3.9-4.5-5.5-2.1-1.8-2.6-4.1-2.9-6.9-.5-4.8.2-9.8-1.7-14.7-.1-.6-.2-1-.2-1.6,0-3.8-.4-7.2-1.8-10.7-.2-1.2-.3-2.1-.3-3.3,0-.5.1-.8,0-1-1.5-6,.7-6.5,5.7-4.7,4.7,1.7,9.5,3,14.1,5,8.6,3.8,17.4,3.8,26.2.9,2.4-.7,4.7-1.8,5.4-4.9.5-1.9,1.8-2.8,3-3.8,4.3-3.3,9.4-4.9,14.3-7.5.6-.2.9-.2,1.5-.3,4.9.1,8-2.6,11.2-5.7.9-.5,1.4-.9,1.9-1.8.7-1.1,1.6-1.7,2.9-2.2,2.2-2,4.8-3.3,6.7-5.7.8-.3,1.5-.4,2.4-.4,8.4-2,16.4-4.3,22.4-10.7-5.9,3.2-12.1,5.6-18.5,7.4-1,.2-2,1.4-3.1.4s-.5-2.3-.1-3.7c2.5-4,5-7.7,7.5-11.3,1.6-2.4,2.3-4.2,0-6.6-2-2.1-2.5-5.1-2.9-7.9-.1-1.3-.1-2.7,1-3.5,3.6-2.4,7-5,11.1-6.5,7.9-2.9,16.5-4,24.3-8,.9-.2,1.5-.3,2.4-.4.9-.2,1.3-.7,2.2-.9.6-.1.9-.1,1.5,0,6.8-1.8,13.4-3.1,20.1-4.3,2-.3,4.1,0,6.2-1.3,1.5-.4,2.8-.3,4.3-.3,1.3.1,2.1-.4,3.2-1,1.1-.3,1.9-.4,2.9-.3,1.1.1,2,.2,3-.3.4-.1.5-.1.9-.1.3.1.5.1.8.3,1,.7,1.6.2,2.4-.3.4-.2.5-.2.9-.3,1-.2,1.8-.2,2.9-.2,3,.4,5.5-.6,8.3-1.2,1-.1,1.6-.2,2.6-.2,1.7,0,3-.1,4.6.2.9.2,1.5.2,2.3.1s1.4-.1,2.2,0,1.3-.3,2-.5c.5-.1.8,0,1.3.2,2.6.2,5,1,7.6.2,1-.1,1.8-.1,2.8.1,1.5.5,2.8.4,4.2-.5.5-.1.8-.1,1.3.1,1,.8,1.8.5,2.9.3.9-.1,1.6,0,2.5.2,3.9.5,7.7-.2,11.4.7.9.2,1.5-.4,2.5-.8,1.2-.3,2.2-.3,3.3.2,2.9,1.7,5.7.3,8.7.8,2,.1,3.7,0,5.7.3.8.2,1.5.2,2.3.2.5,0,.8.1,1.3.3,1.2.9,2.1.4,3.3.2,1-.1,1.8-.1,2.8.4.9.7,1.7.7,2.8.7,5.2.6,10.3.3,15.3,2.3,1.1.4,2,.4,3.1.4,2.7,0,4.9.9,7.2,2.3.6.6,1.2.8,2,.8.5.1.8.2,1.2.5,1.9,2,4.1,2.9,6.8,3.5,1,.3,1.8.6,2.7,1.2,6.1,3,11.4,7.2,18.2,9,.4.2.6.3.9.5,6,3.4,11.3,7.6,17.6,10,5.1,1.9,9.6,4.7,14.1,7.5,1.8,1.1,3.4,2.3,5.2,3.3q3.7,2.1,4.5-1.8c3.3,2.2,6.5,4.3,9.8,6.2,1,.6,1.8,1.4,2.2,2.5-1.2.4-2-.3-4-.5Z"/><path class="cls-4" d="m26.89,21.8c.5.1.9.1,1.4.2.3.1.5.1.7.4.7,1.2,1.6.7,2.7.6,1.2.2,2.3-.2,3.1,1,.3.2.4.3.7.4.3.3.4.6.4,1.1.8,1.3.8,0,1.4-.4.3-.2.4-.2.8-.1.4.3.6.5,1,.7.5.2.8.4,1.2.8.9.7,1.6.2,2.5.1.6.1.8.2,1.1.5,0,.1.1.2,0,.4.2.9.6.8,1.2.3.7.3,1.2.7,2,1,1.1.4,1.5,1.1,1.6,2.3-.9,1.7-2.1,1-3.5.9-1.2-.3-2.1-.5-3.1-1.2-.4-.3-.6-.6-.9-.6-.1,0-.1.3.3.5.2.2.3.3.6.5.7.5,1.5.6,2.3,1.1,3.6,2.7,7.6,4.8,10,8.9,1.2,1.6,1.8-.2,2.9-.2.4.3.5.3.7.2-.2-.1-.4-.1-.6-.5-.4-.7-.6-1.3-.6-2.1.2-.6.3-.8.8-1.1.8-.2,1.4.1,2.3,0,.8-.3,1.4-.3,2.3-.2.7-.1,1.2-.1,1.9-.3.5-.4.8-.5,1.5-.6,1.9-.2,3.6-.4,5.5-.7,1.8-.9,3.4-.5,5.4-.5,3.2,0,6.2-.3,9.4.2,2.3.9,4.7-.3,6.8,1.2,1.3.9,2.4,1.7,3.9.3.6-.4,1-.5,1.7-.5,1.7-.4,3.2-.4,4.8.1.6,0,.9.3,1.5.5.8,0,1.3.1,2,.1,1,0,1.8.1,2.7.7,1.3.4,2.2.6,3.4.8.6.1.9.3,1.5.5,1.2.8,2.4,1.1,3.7,1.4.6.1,1,.2,1.5.4.6.2.7-.2,1.1-.6,1.5-1.1,2.8-2.1,3.7-3.8.2-.2.3-.3.4-.6.2-.6.5-1,1-1.4.5-.5.9-.9,1.4-1.5,1.2-2.2,3-3.6,3.9-5.7.4-1,1.5-1.6,3-1.2,1.4,1,3,2.1,1.6,3.6-3.2,3.7-4.4,8.7-8.5,11.9-.3.2-.4.2-.8.4-1,.2-1.4.8-1.9,1.6-.2.2-.3.3-.6.6-1.3,2-1.8,3.9-1.1,6.3.1.6.1.9.2,1.4,0,1.3.7,2,1.2,3.1.1.4.1.6.1,1-.3,1.4-.7,2.3-2,2.2-1.1-.1-1.6-.9-2-1.7-.9-1.7-1.1-3.6-1.2-5.6-.1-5.4-1.3-6.6-6.9-6.5-2,0-3.6.2-5.5-.4-1-.6-1.7-1-2.8-1-.9-.1-1.6-.2-2.4-.6-1.3-1-2.4-.4-3.7-.2-4.7.5-8.9-1.9-13.6-1.5-1-.2-1.7,0-2.7.1-3.2.3-6.2.1-9.4.2-1,0-1.5.6-2.4.9-1.6.4-2.9.3-4.5.3-1.1-.1-2-.1-2.9.6-.3.2-.4.2-.7.4-.8.4-1.2,1-1.8,1.7-1.9,1.7-1.8,3.7-2.2,5.9-.3,1.6-.2,3-.3,4.6-.2,1.1-.5,2-1.5,2.6-1.6.1-2.4-.5-2.3-1.9.1-2.4-.7-4.6-.9-7.2,0-.6,0-.9.2-1.4.4-.7.4-1.2-.2-1.9-.4-.5-.6-.8-.9-1.4-.5-1.4-1.6-1.2-2.8-1.4-2.3-1.2-4.5-2.1-5.4-4.9-.1-.9-.6-1.1-1.4-1.2-1-.2-1.7-.4-2.4-1.1-.9-1.2-2.1-.9-3.2-1.3-.3-.2-.5-.3-.7-.6-.5-1.8-1.4-2.3-3.2-2-.6-.1-.8-.2-1.3-.4-.6-.5-1.1-.8-1.8-1-.4-.1-.7-.2-1.1-.5-.6-.5-1.1-.7-1.9-.8-1.7-.4-2.9-1.3-4.3-1.6-1.6-.3-3.3-1.6-5.1.2-.4.9-.2,1.6,0,2.5,0,.7,0,1.2-.2,1.9-.7,1.8-1.5,3.1-3.7,2.8-.4-.2-.5-.3-.7-.7-.1-.7-.2-1.2-.4-1.9-.5-1.7-.5-3.2-.2-4.9.1-.6.2-.9.2-1.4-.1-.5-.1-.8.1-1.3.6-.8.8-1.6,1.2-2.5,1.2-1.5,2.6-2.3,4.7-1.9h3.4c.6,0,.8.2,1.3.5,1,0,1.8.1,2.8.1.5,0,.8.2,1.5,1Z"/><path class="cls-5" d="m137.99,128.8c-1.1.7-1.8,1.6-2.6,2.6-.7.6-1.5.7-2,1.5-.8.9-1.3,1.7-2,2.2-2.8,2.1-5.7,4.2-9.7,3.4-.9-.7-1.7-.9-2.7-1.5-.9-.7-1.9-.9-2.3-2.2.2-1.4,1.1-1.9,2.5-2,1.4.3,2.5.5,3.9.4,2.7-.8,4.4-3.1,7.1-3.9.9-.3,1-1,1.4-1.8.8-1.4,2.2-1.7,3.1-2.7-.3-.3-.5-.3-1-.4-1-.3-1.8-.6-2.2-1.7-.1-.7,0-1.2.6-1.8,9.7-.4,12.4-8.1,16.3-14.6-1.1-.4-1.9.3-2.8.4-1.5.2-2.8-.1-3.1-1.8-.3-1.4.7-2.3,2-2.7,1.4-.4,2.9-.6,4.3-1.1,1.3-.4,1.9-1.3,1.2-2.6-3.2-6.2-4-13-4.8-19.7-.4-3.2-1.2-6.7,1.4-9.8,1.2-.5,1.7-1.2,2.1-2.3,1.5-3.2,3.4-5.8,5.1-8.8.9-1.3,1-2.7,1.9-3.8,1.2-1.6,2.1-1.3,2.9.7.1.8-.1,1.3-.4,2-.1,1.2.1,2.2-.5,3.2-.2.9-.4,1.6-1.2,2.1-.2.5-.3.8-.4,1.3-.2.7-.4,1.1-.8,1.6-.2.5-.3.7-.5,1.2-.4,1.2-.7,2-1.6,2.6,0,0-.1,0-.2.2-1.1,1.8-2.4,3.1-2.8,5.2-.3,1.1.1,2.1-.4,3.1-.1.4-.2.6-.2,1,.1.4.3.6.5,1,.5,1.5,1.4,1.9,2.6,1.3,1.1-.6,2.2-.9,3.6-1.2.6-.5,1-1.1,1.5-1.1,3-.3,5.6-1.9,8.7-2.6.4-.4.7-.4,1.3-.5,1.4-.6,2.6-1,4-1.6.5-.4.8-.5,1.5-.5,1.5-.1,2.7-.1,4-.3.7-.5,1.3-.4,2-.3.5-.3.8-.4,1.3-.6.7-.2,1.1-.4,1.8-.6,1.2-.7,2.3-1.2,3.8-1.4,1.2-.3,2-.3,2.9.5.5,1.2.3,2-.4,2.9-3.2,1.7-6.2,3.2-9.6,3.7-6.1.9-11.6,3.9-17.5,5.7-2.8.9-4.7,3.4-7.5,4.5-.8.4-1.1,1.1-1,2,.6,3.6.7,7.4,3.9,10,1.4,1.1,1.7,2.4.5,3.8-.4.4-.4,1.1-.8,1.5-3.2,3.8-5.1,8.4-8.5,12.4-1.3,1.7-1.9,3.1.7,3.6.7.1,1.4.4,1.3,1.2,0,.8-.7,1.1-1.4,1.2-.6.1-1.1.2-1.9.5-1,.1-1.7.2-2.6.4-1.8,2.2-4.7,3-6.3,5Z"/><path class="cls-3" d="m194.69,231.7c.1-.2.3-.4.4-.6.6-.5,1.2-.8,1.6-1.3l.1-.1c.6-.5.9-.8,1.3-1.4.2-.3.3-.4.7-.6.6-.4,1-.8,1.4-1.3.1-.1.4-.2.6-.1.3.2.4.3.6.7.2.7.4,1.2.5,1.9-.1.6-.2.9-.4,1.3-.1.1-.3.3-.4.5-.4.6-.7.9-1.2,1.4-1,1-1.8,1.8-2.8,2.8-.5.4-1,.6-1.6.8-1.4,1.4-2.7,2.6-4.6,3.3-1.3.7-2.4,1.3-3.6,2.2-.6.4-1.1.7-1.8,1.2-.7.6-1.4.7-1.9,1.2l-.2.2c-.7.7-1.3,1.3-2.3,1.6-5.8,3.5-11.3,7-18.1,8.4-2.5.8-4.7,1.5-6.4,3.5-1.6.8-2.4,2.3-4,3-.2.2-.3.3-.6.5l-1.3,1.3c-.3.5-.5.9-.8,1.4-.9.6-1.8.7-2.7,1.2-.4.3-.7.6-1.2.9-1,.7-2,1.1-2.8,2l-1.4,1.4c-.5.5-.9.7-1.6.9-.6.1-.9.2-1.4.4-.4.6-.7,1-1,1.3-.1,0,0,.1-.2.2-.9.6-1.7.7-2.7,1-.5.6-2.3-1.1-1.6,1.2-2.6,1.9-4,5.1-7.4,6.1-.7.6-1.3,1.1-2,1.8-1.3,1.3-2.3,2.5-4.2,2.8-.3.3-.4.3-.7.6-.7.7-1.2,1.2-2.1,1.6-.4.5-.8.7-1.3,1.2-1.1,1-1.7,2.2-3.4,2.3-.5.4-.8.6-1.2,1-.9,1.1-2,1.3-3.3,1.4-1.2,0-1.8.5-2,1.7-.3,1.2-.5,2.1-1.8,2.5-.9.7-1.4,1.3-2.5,1.4-.8,1.5-2.1,1.9-3.5,2.5-.9.8-1.7,1.5-2.7,2.3-3,2-5.3,4.9-9.4,4.2-2.2-1.7-1.2.8-2.1,1.2-1,.7-1.8.7-2.8.2-2.8-2-4.5-.5-6.4,1.4-.5,0-.9,0-1.3-.4-.7-1.3-1.7-1.8-2.8-2.2-1-.3-2.4-.6-1.5-2.3,1.9,0,3.6,0,5.3.5,1.6.5,3.3.2,5-.3,6.8-1.8,12.4-6,18.1-9.7,3.4-2.1,6.3-5,9.6-7.4,5.8-4.2,11.2-8.8,16.8-13.2,2.1-1.6,4.3-3.1,6.4-4.8,1.9-1.5,3.8-3,5.9-4,1.6-.7,3-1.6,4.2-2.8,1-1,2.3-1.7,3.6-2.4,3.1-1.6,6-3.6,7.9-6.7.6-1,1.2-2.1,2.3-2.4,4.3-1.2,8.2-3.2,12.5-4.6.5.2.9.3,1.4.3.2,0,.5-.1.7-.2.7-.9,1.1-1.9,2.2-2.5,1.8-.1,2.9-1.1,4-2.3.5-.4.9-.6,1.5-.9,2.3-.7,4.2-1.7,5.9-3.1.6-.5,1.2-.8,2-1.1,3-1,5.9-2.4,8.7-4.5.7-.3,1.1-.6,1.8-1.5Z"/><path class="cls-5" d="m297.99,137.8c.1-.1.2-.4.4-.6,2.8-2.3,4.1-.3,4.1,1.6,0,4.6,1.4,9,1.7,13.8,0,1.1.3,1.8.8,2.7.6,2.6,1.4,4.9,2,7.5.1.4.1.7.2,1.2,2,5.1,2.8,10.5,5.7,15.2,0,.1.2.4.3.6.5.5.7.9,1.1,1.5.4.8.7,1.5,1.1,2.4,1,2,2.4,3.4,3.7,4.9,0,0,0,.1.2.2.5.8.8,1.3,1.4,2,.8.8,1.3,1.5,1.6,2.6,2.6,2,4.7,4.3,6.5,7.1,1.5,1.4,3.2,2.2,4.4,3.9,1.6,1.3,1.7,3.8,4.1,4,4.3.2,8,1.8,10.7,5.4-.1.1,0,0,.2.2,1.4,1.6,1.8,3.3,1.8,5.2,0,5.4-2.1,10.1-4.7,14.8,0,.4,0,.7-.1,1.2-1.1,2.5-2.9,4.3-3.9,6.5-2.3,4.8-5.4,8.7-9.9,11.8-.7,1.2-1.5,2.1-2.7,2.9-4,3.3-5.7,3.1-7.9-.8.3-.8.6-1.2,1.4-1.4s1.5-.4,2.1-1c.6-.8,1.2-1.4,1.9-1.8,0,0,.1,0,.2-.2,1.3-1.6,2.8-2.5,4.1-4,1.6-1.2,2.2-2.8,3.5-4.2.5-.5.9-.7,1.6-.8.8-.1,1.2-.4,1.2-1.3-.1-.7-.1-1.1-.1-1.8,1.2-2.2,1.9-4.5,4-5.9.1,0,.3-.2.3-.4.3-2.2.6-4.1,2.4-5.6.2-.7.4-1.2.5-1.9.6-2.2.8-4.3,1.6-6.4.1-.5.9-.3.3-.9-.3-.1-.4-.2-.6-.4-.3-.3-.5-.4-.9-.6-.4-.2-.5-.4-.6-.8-.1-.1-.3-.3-.5-.3-2.6-.7-4.4-2.7-7.2-2.7-.7-.4-1.1-.6-1.7-.8-.6-.2-.8-.6-.9-1.1-.1-.1-.3-.3-.5-.3-4.1-1.2-6-4.4-8.6-7.1,0,0-.1-.1-.3-.2-.9-.7-1.9-.9-2.5-2-1.6-3.4-1.2-7.8-6.2-8.8-.5-1.2-2-1.2-2.3-2.6-1.3-1.3-2.5-2.4-2.9-4.3-.4-.8-.6-1.3-1.1-2-.6-.4-1-.8-1.3-1.1l-.2-.2c-.7-2-.6-4-1.6-5.7-2.7-4.5-4.5-9.4-5.4-14.9,0-.5,0-.8-.1-1.3-1-1.8-1.3-3.6-1.9-5.6-.1-1.4-.1-2.5-.2-3.9,0-.5-.1-.8-.1-1.3-.1-.5-.1-.8-.3-1.3-.4-2.2-1-4.1-.5-6.3.1-.4.2-.7.4-1.1,1.1-1.2-.7-2.4.2-3.5Z"/><path class="cls-9" d="m111.29,240.8c.8-.9,1.1-1.7.5-3-.9-2-2.5-1.9-4.1-2.1-4.4-.4-8.7-1.1-12.1-4.4-1.6-1.6-3.6-2.6-5.6-.3-.5.5-1.3.4-2.2.2-.4-.2-.5-.3-.8-.6-.4-.9-.4-1.5-.5-2.4,0-1.1-.6-1.5-1.5-2-11-3.8-16.7-12.7-23.1-21.1.5.9,1,2,.8,3.2-.8,4.2-.4,8.4-.6,12.6-.1,2.8-.7,5.4-2.2,8-1.7.2-2.8-.6-4.2-1.4-.6-1.2-1-2.1.2-3.1.4-.2.6-.2,1-.2,3-2.5,2.9-9.3,0-12-.2-.6-.2-1.1,0-1.7.8-.8.1-1.3-.1-2.1.1-.5.2-.8.2-1.3,0-.4.1-.6.3-1,.4-.3.7-.3,1.1-.3.4.2.5.2.6,0-.2,0-.3-.1-.5-.4-.1-.3-.1-.5,0-.8.4-1.2,1.2-2,.5-3.3-.3-.4-.5-.6-.8-.9-.5-.4-.8-.7-1-1.3-.1-1.2-.1-2.2-.1-3.3.1-.4.2-.5.4-.8.6-1.6,0-2.7-1.3-3.8-.2-.3-.3-.4-.5-.8-.4-1.7-2.7-3-1.9-4.3,1.9-3,.2-5.9.4-8.8.1-2.1-1.3-4.5,1-6.3.5.8,1,1.4,1,2-.4,4.5,1.1,8.8.9,13.2-.1,2.2.5,3.8,2.2,5.1,3.6,2.9,5.7,7.1,8.4,10.7,1,1.5,1.8,3.1,3.4,4.1.9.6,1.4,1.5,2,2.3,2,3,4.1,6,7.6,7.5.4.2.8.5,1.1.8,3.2,3.6,7.4,5.9,11.7,7.9,4.4,2,8.5,4.9,13.6,5.6,2.3.3,4.7,1.4,6.7.9,5.2-1.4,10.8-1.3,15.6-4.3,1.7-1.1,3.8-1.5,5.7-2.2,1.3-.5,2.3-.1,2.8,1.1.5,1.3-.9,1.3-1.6,1.7-1.2.7-2.5,1.2-3.5,2.1-3.3,2.8-7.3,4.1-11.4,4.7-2.4.3-3.8,1.5-5.1,3.3-1.7,2.4-3.3,5.1-6.1,6.6-.5-1.5.2-2.4,1.1-3.3Z"/><path class="cls-4" d="m71.89,310.4c-.8,0-1.3-.1-2-.2-3.1-.4-6.2-.2-8.8-2.4-.6-.2-.9-.4-1.4-.5-.6,0-.9-.3-1.3-.7-.3-.2-.4-.2-.7-.4-1.1-.5-1.9-.9-2.7-1.7-.3-.2-.5-.4-.8-.7-1-.6-1.2-1.3-1.7-2.2-.4-.2-.6-.3-1-.4-.9-.3-1.3-.8-1.5-1.7-.2-.5-.3-.8-.6-1.3-.8-1.5-.4-2.9-.8-4.2-1.3-4.4.9-8.9,5.2-11.2.4-.3.6-.5.9-.8.4-.6.7-.9,1.2-1.3.1-.1.4-.2.6-.3,1.1-.7,1.7-1.7,3.1-2,.6-.1.9-.2,1.3-.5,1.2-1.1,2.6-1.3,4.2-1.5.4-.3.6-.3.7-.6.2-.9.8-1.4,1.6-1.9.7-.4,1.1-.9,1.8-1.3,1.4-.6,2.5-1.5,4.2-1.4,1.7-.3,2.2-1.8,3.3-2.9.3-.2.4-.3.7-.5.7-.4.9-.8,1.3-1.5.8-1.3,1.8-2.2,3-3.3,1.2-2,4.4-2.8,2.9-6.1.1-.6.2-1,.5-1.5,1.2-3.4-.3-6.8,1.3-10.1,1.8-.2,2.2,1,2.8,2.4.8,3.2-.4,6-.8,8.9-.1,1.1-.2,1.9,1.5,1.1.4-.2.5-.2.9-.3,1.8-.1,1.7-1.4,2.2-2.6,1.5-1.9,3-3.5,5.4-4.4,1.2-.5,2.1-1,3.1-1.1,1.4-.1,2.8-.2,2.7,2-.7.6-1.2,1-1.9,1.5-1.1.8-1.2,2.2-2.2,3.1-.1.1-.3.2-.5.3-.6.4-1,.8-1.5,1.3-.9.6-1.8.8-2.3,2-.6.8-1.1,1.3-1.9,1.9-.9.6-1.7,1-2.6,1.6-1.1.8-1.2,2.2-2.3,3-.7.4-1.2.7-1.9,1.1-1.4,1.3-3.3,1.6-4,3.5-.1.4-.3.5-.7.7-1.6.7-2.3,2-3.5,3.1-.1.1-.4.2-.6.3-.6.4-1,.7-1.5,1-.1.2-.4.3-.6.4-2.9,2-6.1,3.1-9,5.1-.4.2-.7.2-1.2.4-3,1.7-6.9,1.7-8.8,5.1,0,.1-.1.1-.2.3-.8,1.1-1,2.3-1.9,3.3-.3.6-.5,1-.6,1.6.3,1,1,1.4,1.3,2.3.1.7-.1,1.1-.5,1.7-.1.6-.1.9-.1,1.4.3.6.6.9,1.1,1.1.3.1.4.3.6.7.8,1.2,1.5,2.1,2.8,2.7.1.1.3.3.5.4,2.2,1.8,4.8,2.4,7.5,3.2.5,0,.8,0,1.2.3.7,1.1,1.6,1.5,2.6,1.5,2.1-.1,2.2,1.2,1.9,2.9-.5.3-.8.4-1.5.3Z"/><path class="cls-4" d="m49.89,160.1c-.4-.1-.6-.2-.7-.3,0,0-.1,0-.2-.3-.5-1.2-.3-2,.1-2.9,0-.4,0-.7-.1-1.1-.5-.8-.4-1.5-.7-2.4-1.3-2.6-1.1-5.3-2.3-7.8-.7-1.5-1.4-2.9-1.9-4.5-.4-.5-.7-.8-1.1-1.2-.9-.4-1.4-.7-1.5-1.7-.1-.5-.4-.5-.9-.4-1-.2-1.7-.4-2.6-.5-1.3.1-2.3.2-3.4-.5-1.1.7-2.1.7-3.4.8-.5,0-.6-.1-.9-.5-.4-1-.2-1.7.3-2.4,0,0,0-.1.2-.2.5-.2.8-.2,1.3,0,1.4.1,2.5,0,3.1-1.4-.2-.8-.6-1.4-.7-2.3.8-1.8,0-2-1.5-1.8-1.6-.4-2.2-1.5-2.6-2.9-.2-.3-.3-.4-.6-.6-.6-.4-.8-.8-.9-1.4-.2-.3-.3-.4-.5-.6-.3-.4-.4-.7-.4-1.2,0-.7-.2-1-.8-1.3-.4-.3-.7-.4-1-.7-.1-.1-.4-.3-.6-.3-.6-.2-1-.5-1.3-1.1-.7-1.4-2.1-2.1-2.5-3.7-.1-.5-.1-.8,0-1.4.3-1,.5-1.8,1.4-2.4,2.9.9,4,4.3,7.4,4.6,1.2.9,2.5.7,3.9,1.1.6.2.8.4,1.2.8.3.5.3.8.3,1.4-.3,1.2-1,1.8-1.6,2.8-.2,1.4.6,2.3,1.4,3,2.6,2.4,5,5,8.1,7.2,2.2.4,4,.9,4.1,3.5,0,.7.6,1.2,1.2,1.9.3.3.4.4.6.7,1.5,2.3,3.6,3,6.1,3.5.4.3.6.4,1,.8.5.6,1,.7,1.8.8.8.1,1.4.2,2.1.6,2.9,2,5.7,3.5,9.3,3.7.8.1,1.2.2,1.9.6,5.6,2.9,10.7,7,17.5,5,.2-.1.5-.1.7-.1,1.1.1,2.4.4,2.6,1.7.3,1.5-1,1.9-2.1,2.2-.5.1-.9,0-1.4.1-6.6.7-12.7-1-18.7-3.2-4.5-1.6-8.9-3.3-13.4-4.8-5.9-2-6-1.6-4.9,4.4.1.5.1,1.1.4,1.9.1,1.3.1,2.2.1,3.4-.8,1.3-1.8,1.7-2.9,1.4Z"/><path class="cls-4" d="m455.49,168.6l.2.2c1.1,1,1.8,2.2,3.2,2.9,1.1-1.4,1.6-3.2,2.7-4.8.6-1,1.1-1.7,1.8-2.6,3.1-.9,3.5-.4,2.5,3.4-1.4,2.3-1.3,4.9-2.7,7.2-2,2.1,0,4.1-.1,6.2.1.5.1.8.2,1.3.6,1.2.5,2.2.4,3.5.1.8,0,1.3,0,2.1-1.7,1.6-.7,3.5-.8,5.4v1.5c.2.9.2,1.6,0,2.6v1.4c.2,1,.2,1.7-.1,2.7,0,3.1.4,5.9-.2,8.9,0,1-.2,1.8-.8,2.6-.4.2-.5.2-.9.1-.8-.5-1.5-.9-2.2-1.5-.2-.3-.3-.5-.4-.8-.1-.8-.3-1.3-.5-2.1-.1-.8-.1-1.4,0-2.2,0-.8-.1-1.4-.3-2.1-.7-1.6-.7-3,.2-4.5,1.4-1.1,1.8-2.1.6-3.3-.1,0-.2,0-.3-.2-.3-.7-.3-1.1-.2-1.8.3-.9.2-1.7.1-2.6.1-.5.2-.8.4-1.3,0-1,.1-1.7.1-2.7,0-1.6,0-3.1.1-4.7.3-.7.6-1.3.1-2-.1-.2-.1-.3-.3-.6-.9-1.2-1.3-2.3-1.8-3.5-.3-.3-.4-.5-.8-.8-1.7-3-5-4.2-6.7-7.1-.3-1.4-1-1.9-2.4-1.6-.5-.1-.7-.2-1.1-.6-.5-.4-.8-.7-1.4-.9-3.6-.9-6-3.8-9.4-5.3-.6-.3-.9-.5-1.5-.7-1-.4-1.6-.9-2.4-1.6-.5-.4-1-.3-1.6-.3-.9,0-1.5-.1-2-.8-.3-.2-.4-.3-.7-.4-2.4-1.6-5.1-1.7-7.6-3-.6-.6-1.1-.6-1.9-.6-.7,0-1.1-.2-1.7-.5-.5-.1-.8-.2-1.2-.4-.1-.3-.1-.5-.1-.8.1-.9.4-1.3,1-1.9,2.6-1.6,5.3-1.6,7.5,0,2.3,1.6,4.8,2.3,7.4,3,2.3.6,4.4,1.7,6.1,3.4l.2.2c5.5,2.4,10.6,4.9,15.2,8.7,1.1.8,2.1,1.5,3.2,2.4.6.4.9.7.9.9Z"/><path class="cls-4" d="m234.89,64.2c-.1,0-.4.1-.6.2-1.1.4-1.9.2-2.9,0-1.2.3-2.1.5-3.2.8-1.1.5-2.1.3-3.2.6-1.6.2-3,.3-4.6.4-3.7.7-7.3.9-10.8,1.2-3.2.2-3.2.5-2.9-3.1.6-.7,1.3-.8,2.1-1.2.7-.4,1-1,1.9-.7.8.5,1.4.2,2.1-.3,1.3-.1,2.3-.1,3.4-.9,2.9-.4,5.4-1.1,8.2-1.1.5-.1.8-.1,1.3-.3.8-.4,1.4-.4,2.2-.2,1.2,1.1.9-.7,1.7-.6,2.1-.8,3.9-.1,5.9-.1,1,.5,1.8,1.7,2.8,0,1.7-1.2,3.4-.2,5.3-.8,2,.1,3.6-.7,5.4-.7.4.2.7.2,1.2.2,1-.1,1.9-.4,2.9.2,1.3-.9,2.4-1,3.9-.6.6.2.9.5,1.3,1,.8.6,1-.2,1.6-.5h.9c1.1-.1,1.5,2.1,2.6.2.2-.5.4-.7.9-.8.4-.2.7-.2,1.2-.3,1-.3,1.9-.2,2.9-.2.5.2.8.4,1.1.7.8.8,1.4.7,2.1-.2,2.3-.1,4.3-.3,6.6.1.5.4.5.8.4,1.4,0,.5,0,.6,0,.4,0-.2,0-.4.1-.8.4-.7.9-.8,1.8-.9,2.4-.5,4.4,0,6.7-.2.4-.1.5,0,.9.1,1.8,1,3.7.8,5.3,2.2.2.3.2.5.2.9-.1.4-.2.6-.4.9-1.1,1.1-2.2,1.7-3.8,1.3-.8-.3-1.3-.2-2,0-.4,0-.7,0-1.2-.2-1.1-.3-2-.2-3.1.3-.8.1-1.2-.1-1.8-.4h-1.3c-1.3.2-2.3.2-3.6,0-1.4-.1-2.6-.3-4,.3-1.7.6-3.1,0-4.7-.4-.8-.2-1.3,0-2,.3-.4-.1-.5-.1-.8-.2-.4,0-.7,0-1.1.1-.5.3-.8.3-1.3.1-1.1-.4-1.9-.3-3,.1-.5.1-.8,0-1.3-.2-1.9,0-3.8-1.6-5.4.7-1,0-1.7-.1-2.7-.2-2.8,0-5.7-1.3-8.3,1.1-1.2.2-2.1.3-3.3.3-1.2-.4-2.2-.9-3.6,0Z"/><path class="cls-9" d="m294.29,58.4c.6-.5,1-.8,1.8-1.1,3,1.2,5.9.3,8.9.8h1.4c1,0,1.8.1,2.8.1,5-.1,9.6.2,14.4,1.8,2.1.1,4-.4,5.9.7,1.9.3,3.5-.1,5.2.6,1.7,1.2,3.5.4,5.3.9,1.1,0,1.9,0,2.7.8,1.1,1.2,2.4,1.1,3.6,1.2,1,0,2-.2,3.1.5,1.6.6,3.3-.2,4.8,1,1.2.2,2.2.4,3.4.6,2.6,1.5,5.6,1.7,8,3.6.6.3.9.4,1.4.5,1.1.5,2,.7,2.7,1.6.3.3.4.4.8.8.5.6.7,1,.9,1.8.5,1,1.1,1.9.3,2.6-1.1,1-1.9-.1-3.1-.5-1-.1-1.7-.5-2.5-1.1-2.5-1.1-4.7-2.3-7-3.7-.4,0-.7,0-1.1-.1-.7-.2-1-.5-1.6-.8-2.4-1.2-4.7-2.1-7.3-2.3-1-.6-1.8-.4-2.9-.5-2.1.2-3.6-1.3-5.4-1.2-3.6.2-7-1-10.8-1.2-.8-.3-1.5-.6-2.4-.8-1.1,0-2,0-3.1-.1-1.2,0-2-.2-3-.5-.4,0-.6,0-1.1-.1-.6-.1-.9-.1-1.5,0-2.3-.1-4.4-.2-6.7-.5-2.9-1-5.7.4-8.5-.8-1,.1-1.8.1-2.9.2-2.5.8-4.5-.4-6.6-.5-1-.1-1.5-.9-.9-2.1,0-.1,0-.2.1-.4.5-.6.7-1.2.9-1.8Z"/><path class="cls-7" d="m384.39,225.2c.5-.3.8-.5,1.3-.9,1.6-1,2.8-2.1,4.1-3.4,3.3-1.8,4.1-4.4,3.6-7.8-.4-2.7-.1-5.4-1.3-8-.2-.4.1-1,.1-1.6,0-1,.2-2,0-3-1.1-6.3-.2-12.8-.7-19.2-.2-3,.3-6,.2-9.1s2.6-5.8,1.4-9.1c-.1-.4.4-1,.6-1.5,1.3-4.1,2.7-8.3,3.6-12.6.2-.9.2-1.8.1-2.7-.2-2.1.1-4.1,1.6-5.9,1.3-.2,2.4-.6,3.4.4-.1,1.3.8,2.1.6,3.3-3.4-.2-2.9,2.4-3.3,4.5-.6,1.3,0,2.2.6,3.3.1,1,.1,1.8-.6,2.6-.6.6-.9,1-1.1,1.8-.8,1.2-.1,2.5-.9,3.7-.9.6-1.4,1.3-1.8,2.3-.9,1.9,1,3.9-.5,5.6-1.7,2-.9,3.6.7,5.4.1,1.4.3,2.6-.2,4-3,2.3-3,2.6,0,5.1.1.5.1.8-.2,1.3-2.1,2.4-2.1,2.6.4,3.1.5.1.6.6.7,1.3.1,6.1.3,12.1.1,18.2.1.5.1.8.3,1.4.5,4.4-.1,8.4-.4,12.6,0,.7-.1,1.2-.6,1.7-.4.8-.7,1.3-1.5,1.6-.2.1-.3.2-.6.4-1.8,1.3-3.6,2.4-5.5,3.6-.3.2-.4.3-.7.5-.6.7-1.3.9-1.9,1.4-.7,1.1-1.2,2-2.3,2.7-.8.6-1.4.6-2.3.2-.7-.8-1.2-1.5-1.6-2.4.1-.4.2-.5.4-.8.8-.7,1.4-1.3,2.2-2,.6-.7,1.2-1.2,2-2Z"/><path class="cls-5" d="m360.89,254.4c.6-1.1,1.1-2,1.8-3.1,1.7-1.7,2.9-3.4,3.8-5.6.4-1.4,1.5-2.1,2.3-3.2.4-.6.7-.9,1-1.6.3-.8.7-1.4,1.6-1.3,0,2,1.4,3.3,1.7,5.3-.2,1.1-.6,1.8-1.5,2.1,0,0-.1.1-.2.3-1.5,1.4-2,3.2-3,4.7l-.1.2c-.4.7-.7,1.3-1.4,1.5,0,.1-.1.2-.2.4-.4,1-.9,1.6-1.9,2-.5.2-.7.3-1,.6-.4.7-.2,1.2-.1,1.9,0,1.1.1,2.1-1,2.9-.3.6-.5.9-.8,1.5-1.8,2-1.7,4.9-4,6.4,0,.1-.1.2-.2.4-.5.9-1.1,1.4-1.7,2.1,0,.1-.2.4-.3.6-.4.6-.7.8-1.2,1,0,.1-.1.2-.2.4-.5.7-1,1-1.7,1.1,0,.1-.1.1-.2.3-.4.3-.7.4-1.2.5-1.1.1-1.1,1-1.5,1.8-.8,1.5-2,1.7-3.3,2.1,0,.1-.1.1-.2.3-2.2,1.2-4.2,2.6-6.9,2.7-.5.2-.8.4-1.3.7-4,.7-7.9,2-12.2.7-.7-.1-1.2-.1-2-.2-2-.6-4.2-.5-4.1-3.5.3-.7.6-1.1,1.3-1.5,1.8-.3,3.2-.6,4.7-.3,9.1,2,16.6-1.8,23.8-6.9.2-.3.4-.5.7-.8.5-.4.9-.7,1.4-.9,0,0,.1-.1.2-.3,1-1.8,2.1-3.2,3.1-4.9.4-.7.7-1.2,1.1-1.9.3-.6.5-1,1-1.4.3-.3.4-.4.7-.8,1.1-2.2,1.4-4.5,3.2-6.3Z"/><path class="cls-5" d="m17.29,113.4c-.2-.4-.3-.6-.4-1.1,0-1.3-.1-2.3.7-3.2.3-.4.4-.5.8-.8.6-.5,1.1-.9,1.3-1.4,1.7-5.4,4.4-10.4,5-16.4,0-.8.1-1.4,0-2.1-.2-.8,0-1.3.2-2.1.5-1,.4-1.8,0-2.8-.2-.5-.2-.8-.5-1.2-.4-.4-.5-.7-.5-1.3-1.2-1.9-.6-3.9-1.1-6-.5-1.7-1.2-3-1-4.8.4-.8.5-1.5,0-2.3,0-1.5-.6-2.7-1.1-4.1-1.6-1.8-2.3-3.7-2.5-6-.1-.3.1-.4.4-.6,1,0,1.8.1,2.8.6,1.5,2.1,3.3,3.8,4.8,5.9.4,1.5-.8,2.6-.1,4,.4.9.9,1.4,1.5,2.1.6.9.7,1.6.5,2.6-.1.3-.2.5-.4.8-.8,1.4-.3,2.4.4,3.7.1.5,0,.8-.2,1.3.5,2.4.5,4.8,2.3,6.9.7,1.9.7,3.7.1,5.7-.6.9-.9,1.7-.9,2.9-.1,6.4-4,11.2-5.5,16.9-.1.4-.6.6-.9,1.2.1.9-.3,1.5-.8,2.3-1.8.6-3.2.3-4.9-.7Z"/><path class="cls-4" d="m253.99,206.6c1.5-.5,2.6-.9,4-1.5.8-.5,1.4-.8,2.3-1.1.9-.1,1.6-.2,2.5-.3.8-.4,1.5-.5,2.3-1,.8-1.2,2-1.1,3.3-1.6,1.1-.4,1.8.1,2.5.3,3.8,1.3,7.5,2.8,11.8,1.8,2.1-.5,2.8,1.3,1.6,3.4-.5.1-.8.1-1.3.3-.6.1-.9,0-1.4-.3-1.3,0-2.2,0-3.4.2-1.3.7-2.5.8-3.9.4-.4-.2-.7-.3-1.1-.2-.5.2-.7.2-1.2.3-.7.2-1.3.2-2,.4-2.5,1.1-4.9,1.4-7.5,1.7-.8.3-1.3.5-2.1.9-3.7,1.4-7.1,2.5-10.9,3.2-.5.2-.8.2-1.3.4-1.9,1.1-3.8.9-5.5,1.6,0,0-.1,0-.2.2-.4.4-.7.5-1.3.5-.5.1-.9.1-1.3.3-.5.4-.9.5-1.5.4-1.3-.1-2,1.2-3.3.6-.4-.7-.4-1.2-.3-2,.3-1,.5-1.9,1.4-2.6,1.3-1,2.6-.9,4-1.5,1-.7,1.8-1.2,3-1.6,2.1.1,3.8-1,5.8-1.2.6-.3,1-.5,1.7-.7.6-.2,1.1-.4,1.7-.6.6-.3,1-.4,1.6-.7Z"/><path class="cls-8" d="m486.89,147.6c2.7,1.6,3.9,4.3,5.4,6.8.2.1.3.2.6.4,2.6,2.4,3.6,5.5,5.4,8.5.1.5.1.8.3,1.3,4.9,8.5,4.6,17.1,1,25.9-1.5.4-2.4.9-2.8,2.3-.6,1.7-1.2,3.6-3.6,3.6,1-3.4.7-7,3.3-9.6.3-.3.4-.8.5-1.2,1.3-4.8-.1-9.6-.4-14.4-.1-.8-.5-1.8-1-2.5-2-3.1-2.9-6.8-5.3-9.8-2-2.5-3.6-5.4-5.7-7.9-1.8-2.1-4.2-3.7-5.5-6.3,3.1-.4,4.6,2.7,7.8,2.9Z"/><path class="cls-8" d="m393.99,87.3c5.3,3.6,11.5,5.8,16.8,9.5-.8-1.9-4.4-1.5-3.1-4.8,4.9,1,8.5,4,12.2,7.2.5.2.8.3,1.3.5,3,1.2,5,3.4,7.8,4.8.5.2.7.3,1,.7.9,1.4,1.5,2.8.2,3.9-1,.8-2.2-.1-3.1-.7-3.9-2.4-7.7-4.8-11.5-7.2-1.8-1.1-3.5-2.3-5.4-2.9-4.3-1.4-8.4-3.2-12.1-5.9-.9-.7-2.1-1.2-3.2-1.8-2.4-1.3-4.7-2.6-6.5-4.6,2.2-.9,4,.2,5.6,1.3Z"/><path class="cls-4" d="m472.19,224.9c4.1,1.2,7.3-.3,10.2-3.1,2.1-.6,1.5-2.8,2.9-3.8.4-.2.6-.3,1.1-.4.4.1.5.2.8.5.9,1.3,1.6,2.4,1.1,4.1-.3.5-.5.7-1,1-2,.9-2.9,2.5-4.4,3.9-.5.3-.8.4-1.3.5-2.4.5-4.2,1.7-6.2,2.9-.5.1-.8.1-1.3-.1-1.2-.9-2.3-1.2-3.6-1.7-.3-.1-.4-.2-.7-.4-.5-.3-.9-.4-1.5-.4-.5-.1-.7-.3-1-.6-.2-.2-.3-.3-.6-.4-.6-.2-.9-.5-1.3-1.1-.5-.5-.8-.8-1.4-1.1-.4-.3-.5-.5-.7-1-.2-.9-.7-1.4-1.6-1.8-.4-.3-.6-.5-.7-1-.3-.4-.4-.6-.7-1.1-.3-.6-.4-1-.4-1.6.1-1.6-.4-3,1-4.1.6-.2,1-.2,1.6-.2.7.2.9.4,1.3.9,1.3,3.3,2.6,6.3,5.8,8.3,1.1.5,1.9.8,2.6,1.8Z"/><path class="cls-6" d="m470.09,228.1c0-.1,0,0,.2.1,1.4.6,2.7,1,4.2,1.5.4,0,.6,0,1.1-.1,2.5-.4,4.2-2,6.5-2.6.5-.1.7-.2,1.1-.4,1.4-1.4,2.6-2.7,4.1-4,.2-.3.4-.4.6-.8.7-1.4,1-2.7,1.6-4.2.7-1.4,1.3-2.6,1.9-4.1.2-.7.2-1.1.3-1.8.1-.8.2-1.4.6-2.2.6-.8.7-1.6.9-2.6.6-2.1.4-4.1,1.5-6.1.6-.9,1.1-1.5,1.5-2.4.4-.7.5-1.3.8-2.1.2-.6.3-1.1.5-1.8.5-1.5.2-2.9,1.5-4.1,1.1-1.8,1-3.7,1.5-5.4,1.6-5.3,1.1-10.5-.7-15.8-.6-1.6-1.7-3-1.4-4.6,3.8,5.2,4.3,11.2,3.7,17-.5,5.3-1.9,10.7-3.8,15.7-2,5.3-2.9,10.9-4.9,16.1-2.5,6.5-5.2,12.7-12.3,15.8-4.8,2.1-9.2,3.1-13.4-2,.5,0,.8,0,1.3.1.6.2.9.5,1.1.8Z"/><path class="cls-9" d="m233.59,217.8c-.8.5-1.4.8-2.2,1.3-.4.3-.7.4-1.3.4-2.6.8-5,1-7.6,1.6-1.3.8-2.5.6-3.9.5-.5.1-.8.1-1.4.3-.8.4-1.3.2-2.1-.1-1,0-1.7,0-2.5-.5-1.2-.2-2.2-.5-2.5-1.9,0-.8.2-1.2.8-1.6h1.4c1,0,1.8,0,2.8-.4,2.5,0,4.5-.5,6.6-1,2.4-.6,4.7-1.5,7.1-1.9,2.4-.5,4.9-.5,7.2-1.2-.1,1,.2,1.9-.8,2.6-.6.8-.7,1.5-1.6,1.9Z"/><path class="cls-4" d="m316.49,278.4c-.8-1-1.7-1.5-2.2-2.7-.7-.5-1.4-.6-1.7-1.5-.2-1.2-.2-2.1.3-2.9.5-.8.1-1.3-.5-2.1-.7-.9-.6-1.8-.6-2.7.1-.3.1-.5.1-1-.8-3.2.2-5.8,2.1-8.2.2-.2.3-.3.5-.6,1.5-1.8,3.3-1.5,5.2-1.3.7,1,1.1,2.1.3,2.7-4,2.6-4.5,5.9-2.2,9.8.2.3,0,.7,0,1-.1,2,.5,3.5,2,4.8,1.7,1.4,2.3,3.3.9,5.6-.1.7-.4,1.1-1,1.5-2.3.7-2.3-1.1-3.2-2.4Z"/><path class="cls-7" d="m62.19,270.1c-2.4-1.4-3.3-3.3-3.2-6.1-.1-.4-.2-.6-.2-1.1-1.2-1.3-.7-3.1-1.7-4.2l-.2-.2c-1.2-2-1.5-3.8-.6-6,1.2-.8,2.3-1,3.7-.9,1.4.8,1.6,2.1,2.1,3.2,2.1,4.7,2.7,10,6.2,14.1,1.1,1.3,1.2,2.8.4,4.6-.2.7-.6,1-1.4,1-1.9-1.3-3.1-3.3-5.1-4.4Z"/><path class="cls-4" d="m387.39,85.7c-3.1-2-6.6-2.3-9.3-4.5-.7-.6-2.1-1-1.7-2.3.4-1.4,1.7-1.2,3.1-1.1,1.9.5,3.6.7,4.9,2.3.8,1.4,1.9,1.5,3.3,1.3,3.6,1.5,7.1,2.8,10.2,5.4.5.2.8.4,1.3.5,1.5.2,2.5.8,3.4,2,.6,1.4,1.7,1.3,2.9,1.4,1,.3,1.9.3,1.9,1.7,1.5,2.3,4,3.1,5.9,4.6-.5.8-1,.6-1.7.5-2.3-.7-4.7-1.6-6.7-3.1-.9-.7-2-1.7-3.1-1.9-2.9-.5-5-2.5-7.4-3.9-1.9-1.2-3.8-2.3-6.3-2.5-.2-.1-.4-.2-.7-.4Z"/><path class="cls-4" d="m53.59,191.8c-.7-.6-.7-1.2-.8-2-1.2-1.6-1.3-3.1-1.1-4.9,0-.6,0-.9-.1-1.4-1-2.1-.5-4-.7-6.2-.1-1-.2-1.7.2-2.6.3-.5.1-.8-.1-1.4-.2-1.2,0-2.3-.9-3.3-.3-.7-.4-1.1-.2-1.8.5-1-.1-1.7-.2-2.6,0-1.4-.3-2.7.4-4.1,2.8-1.8,3.2-1.6,3.6,1,.4,2.3.7,4.7,1.1,7.2,0,.5,0,.8-.1,1.3.4,4,0,8,1,11.8.3,1.1.5,2.6-1.2,3.1-.5.1-.6.8-.1,1,2.1.9,1.4,2.9,1.9,4.5-.9.6-1.7.5-2.7.4Z"/><path class="cls-4" d="m158.99,20.6l.2.1c.4.4.5.7.5,1.4,0,1,0,1.7.2,2.7.4,1.4-.1,2.1-1.4,2.5-3.4.4-3.9-1.8-4.5-4.1-.4-1.6-.1-3.8-3.1-3.6-1.1-.1-2-.2-3.1.2-3.8,1.3-6.9,3.2-9,6.8-.7.7-1.2,1.1-2.2.6-1.2-1.4-1.1-2.9-.8-4.6.3-.7.8-1,1.4-1.4.2-.2.3-.3.4-.6.8-1.4,2-1.7,3.4-2.1.8-.1,1.4-.4,2-.8.3-.2.5-.2.8-.3.4-.1.7-.2,1.1-.4.3-.1.4-.1.9-.1.8.1,1.1-.2,1.7-.2,1-.1,1.2-1,2.1-1.4,1.2-.3,2.1-.2,3.3-.2h1.4c.8,0,1.3.1,1.8.8.3.3.5.5.8.8,1.2,1.2,1.2,2.7,2.1,3.9Z"/><path class="cls-7" d="m455.69,125.7c-1.7-.8-3.1-1.6-4.8-2.6-1.2-1.3-1.4-2.4-.5-3.9,3.3-.4,4.7,2.1,6.9,3.8.8.4,1.4.6,2.2.8.3.2.3.3.5.6.7.7,1.3,1.1,2.1,1.7.7.8,1,1.7,1.9,2.1,3.3,1.3,5.3,4,7.3,6.9.2.4.2.5.4.9.3,1.7,3.1,1.9,1.7,4-3.4-2.1-7.3-3-9-6.9-.2-.4-1-.6-1.5-.7-3.5-.9-5.5-3.3-6.9-6.6,0-.1,0,.1-.3-.1Z"/><path class="cls-6" d="m396.89,163.4c.5-1.3.4-2.5,1.1-3.6-.6-1.7-.5-2.9,1.1-3.9-.1-.7.2-1,.7-1.5.5-1,.5-1.8.2-2.9-.4-1.2.1-2,.6-3,1.4-.8,2.6-1.2,2.9.7-1.5.2-1.7,1.1-1.8,2-.3,1.9-.7,3.9-1.6,5.5-.7,1.2-1,2.4-1,3.8,0,1.8-.3,3.6-.9,5.3-1,2.7-1,5.6-1.1,8.3-.2,5.6.2,11.2.6,16.8.2,3.3,0,6.7.3,10.1.1,1.6.6,3.7-.9,5.1-.3-.6-.5-1.1-.5-1.5.3-5.9-.2-11.7-.5-17.7-.5-1.2-.9-2.2-.2-3.4-.1-.5-.2-.8-.5-1.4-.6-1.7-.7-3.1.2-4.7,0-1.8,0-3.2-.2-4.9-.9-3.3,1.3-6,1.5-9.1Z"/><path class="cls-8" d="m270.89,200.8c3.5,1.9,7.1,2.4,10.8,1.2,2.3-.8,4.6-.5,6.6-.3,4,.5,8,.8,12.1,1.5-.2,1.7-1.6,1.6-2.6,1.9-2.2.7-4.4,0-6.4-.6-2.3-.7-3.7-.1-4.2,2.5-.4,0-.6,0-1-.1-.8-.1-1.3-.2-1.8-.5-.7-2.7-.8-2.8-2.8-1.5-.9.6-1.5.1-2.2-.1-3.9-.9-7.7-1.9-11.3-3.6.9-1.5,1.9-.7,2.8-.4Z"/><path class="cls-4" d="m399.19,148.4v-2.7c.1-2.4.4-2.7,2.8-2.1.4.1.9.2,1.5.4.5.3.8.5,1.3.9.7.5,1.3.5,2.2.4,2-.1,3.5.6,5.2,1.5.5.4.6.7.7,1.2.1.7.1,1.2,0,1.9-.1.6-.3.9-.7,1.3-.4.2-.6.2-1,.3-2.5-.7-5.1-.3-7.1-2.3-.3-.2-.4-.3-.6-.6-1.2-.9-2.1-.5-3.2.4-.6.2-.9.1-1.1-.6Z"/><path class="cls-5" d="m301.69,203.3c1.3.4,2.4.5,3.5.2,1.8-.5,2.5.3,2.4,2.2-.2.6-.4.8-1,1.1-1,.1-1.7.1-2.7.1-.5-.1-.6-.1-1.1-.1-.7,0-1,.1-1.5.3-.4.3-.7.3-1.2.1-.8-.3-1.3,0-2.1.3-.9.1-1.4-.1-2.2-.5-.8.1-1.3.1-1.9.1-1-.7-.7.5-1.5.6-1.7,0-3.1.1-4.7-.3-.4-.2-.5-.5-.4-1-.1-.5-.1-.7-.2-.9-.7-2.6-.6-2.7,1.9-2.2,1.9.3,3.7.7,5.6,1.1,1.7.4,4.2-.2,5.9-1.4.4,0,.7,0,1.2.3Z"/><path class="cls-4" d="m60.39,232.7c-1.1,1.6-1.2,3,0,4.7.2,1,.2,1.8-.5,2.6-.8.5-1.3,1.1-1.7,1.9-.3.4-.4.7-.8,1s-.6.4-1.1.5c-.4,0-.5-.1-.8-.3-.4-.5-.6-.9-.6-1.6-.2-.7-.3-1.2-.6-2,.1-2.5-.1-4.7.7-6.9,0-.1.1-.3.3-.5.5-.8.1-1.4-.1-2.2,0-1-.1-1.9,1.1-2.4,1.7-.5,2.3,1.1,3.7,1.5.8,1.1.8,2.2.4,3.7Z"/><path class="cls-3" d="m473.09,135c.4.3.6.5,1.1.7,3.9,2.1,6.4,5.6,9.7,8.3.2.1.4.4.6.5,1.2,1,3,1.6,1.7,3.6-1.4.1-2.3-.3-3.3-1.1-1.2-1-2.3-2.2-4.2-2.3-.7-.5-1.2-1-1.9-1.6-.5-.5-.8-.8-1.3-1.3-.8-.5-1.6-.9-2-2-.2-1.1-.9-1.4-1.6-1.7-1-.4-1.1-1.2-.9-2.3.7-.6,1.4-.6,2.1-.8Z"/><path class="cls-4" d="m371.49,238c.3-.5.7-.8,1.3-1.1,1.3-.6,1.8-1.9,2.8-2.9,2.5-.5,2.2-3.6,4.7-4,1.4.4,1,1.4,1.3,2.3-.1,3.8-3.4,5.2-5.3,7.8-.8,1.1-1.5,1.9-2.1,3-.4.9-.6,2-1.8.9-1-1.6-2-3-1.1-5,.1-.3.1-.4.2-1Z"/><path class="cls-6" d="m375.19,77.6c-.3-.2-.4-.3-.7-.5-1.1-1.4-3.1-1.4-3.9-3.1-.1-.6-.2-1,0-1.3,2.7,1.2,5.1,2.5,7.6,3.6,5.8,2.7,11.6,5.3,17.1,8.4,1,.5,2.2.8,2.2,2.2-3.8-1.4-6.8-3.9-10.8-4.8-1.1-.4-1.9-.8-2.7-1.6-1.6-.8-3.1-1.4-4.7-2.1-1.3-.8-2.6-.3-4.1-.8Z"/><path class="cls-5" d="m201.79,223.2c.3-.6.6-.9,1-1.5.1-.5.2-.7.4-1.2.3-.6.6-.9,1.1-1.4.3-.4.6-.8.9-1.3.3-.6.6-1,.7-1.7,0-.4.1-.7.2-1.2,1.5-2.5,2.5-1.3,3.1.2.5,1.3.5,2.8.1,4.5-1.8,1.6-2.3,3.8-4.2,5.1-.3.6-.4,1-.6,1.6-.2.5-.4.7-.8.8-.1.1-.2.2-.3.4-.4.4-.7.5-1.3.6-.8-.1-1.2-.3-1.6-.9,0-.5-.1-.6-.1-1,.2-1.1.4-2.1,1.4-3Z"/><path class="cls-8" d="m443.59,119.7c-3-1.8-5.6-4.3-8.8-5.9-.5-.3-.9-.7-1.3-1.1-.6-.5-1.3-1.2-.7-2,.5-.8,1.3-1.7,2.6-.5,1,1.5,2,2.6,4.1,2.1,1,.6,1.5,1.5,2.8,1.2.3.1.4.2.7.3.7.4.8.8.2,1.4-.6.5-1.5.4-1.4.5,2.1,1,3.6,4,6.9,2.2,1.2.1,1.9.5,1.7,1.9-.2,1.5.5,2.5.5,3.7-2.2-1.9-4.9-2.6-7.3-3.8Z"/><path class="cls-6" d="m177.19,248.9c-4,3.7-9,4.6-14.1,4.7,1.7-1.1,3.8-1.1,5.4-2.2,3.6-2.4,7.9-3.3,11.2-6.1.4-.3,1-.3,1.4-.1-1.4,1.5-2.6,2.6-3.9,3.7Z"/><path class="cls-1" d="m75.09,309.8c2.1-.8,4-1.1,6.1-1.4,1.1.3,1.9.7,2.7-.3.6-.9,1.2-1.2,2.2-.8,1.2.1,2-.4,2.8-.6,2.5-.7,3.8-3.4,6.4-3.3-2,2.3-4.5,3.5-7.1,4.6-1,.4-2.2.6-3.1,1.2-2.6,1.6-5.6,1.6-8.4,2.1-1.3.3-3.1.5-4.3-1,.4-.2.8-.3,1.4-.3.5,0,.8,0,1.3-.2Z"/><path class="cls-2" d="m18.19,114.5c-.5,1.5-1.5,1.2-2.7.8.9,1.1,2.4,1.2,2,2.8-4.1-1.3-8.2-2.4-11.5-5.5,2.1-1.4,3.9-.6,5.7,0,1.9.6,3.8,1,6,0,.2,0,.2.3.2.5.1.5.2.8.3,1.4Z"/><path class="cls-6" d="m401.99,87.9c3.7,1.9,7.6,3.6,11.1,5.8,2.3,1.5,5.1,2.6,6.2,5.4-.9-.1-1.4-.5-1.9-1-3-2.5-6.2-4.8-10.2-6.1-.9-.5-1.6-.7-2.5-1-1.2-.3-2.2-.7-2.9-1.8-.9-.8-2.3-.6-2.6-1.9,1.2-.1,2,.3,2.8.6Z"/><path class="cls-6" d="m158.89,38.3c-.1-.7-.1-1.2.1-1.9.3-.8.5-1.4,1.3-1.9,1.1,3.1.4,6.3.5,9.4.2,4.6-.9,8.8-2.7,12.7-.2-.8-.2-1.3-.2-2.1.6-5.5,1.3-10.7,1-16.2Z"/><path class="cls-6" d="m17.09,57.1c-3.3-7.2-4.6-14.9-4.5-22.9.1-.1.4.1.6.3,2,2.8,1.2,5.9,1.7,8.8.8,5,2.7,9.7,4,14.7-.2.1-.5,0-.7,0-.6-.4-1-.6-1.1-.9Z"/><path class="cls-1" d="m55.19,230.6c0-2.3-.3-4.3-.2-6.4.2-3.8,1-7.5,1.1-11.4,0-1.7-.4-3.9,1-5.2.2.6.2,1,.4,1.6.2.5.1.8-.1,1.3-.1.8-.1,1.3,0,2.1,1,3.5-.7,6.7-.7,10.2-.2.9-.4,1.4-.9,2.1-.6,1.1,0,1.8.2,2.9,0,1.2,0,2.2-.2,3.2-.4,0-.5-.1-.6-.4Z"/><path class="cls-1" d="m19.59,106.7c-.3-2.4,1.2-4.2,2.1-6.2,1-2.3,2-4.7,2-7.3,0-1,.3-1.8,1.2-2.2.3,2-.1,3.7-.7,5.5-.5,1.8-2.5,3.4-1,5.6.1.3.1.7-.4.7-2.1.1-2,1.5-1.9,2.9,0,1.9-1,2.7-2.6,2.6.5-.6,1.3-1.1,1.3-1.6Z"/><path class="cls-4" d="m155.89,36.9c-.5-1.5-.6-3-1.1-4.8-.3-1.5-.9-2.8,0-4.3,2.9-1.2,3.4,1.8,5.3,2.7.5.7.6,1.2.3,2,0,.7,0,1.2-.1,1.6-.1-.1-.3,0-.4.2-.3.8-.3,1.4-.2,2.2,0,.8,0,1.3-.2,2-2,.8-3,0-3.6-1.6Z"/><path class="cls-4" d="m205.79,64.5c.5,1.6,1.5,3.4-.2,4.1-2.5,1.1-5.3,2-8.2.4-.1-.4-.1-.6,0-1,.4-.8.7-1.5,1-2.4,1.2-.7,2.2-1.2,3.7-1.3,1-.1,1.7-.2,2.7-.3.4,0,.6.1,1,.5Z"/><path class="cls-8" d="m22.69,115.6c.6,1.4,2.5,1.6,2.2,3.4-1.2.3-2.2-.4-3.5,0-1.5-.2-2.7-.6-4-1.2q-3-1.8-2.8-3.9c1.3-.3,1.6,2,3.2.9,1.9-1,3.3-.1,4.9.8Z"/><path class="cls-6" d="m234.99,58.7c.4.2.9.1,1.3-.1,2.4-1,4.8-.6,7.1-.1-1.1,1-2.1,2.4-3.5.6-.2-.3-.9.1-1.4.6-1.1.5-1.8.3-2.8-.2-2.4,0-4.5-.7-6.6.8-.3,0-.5,0-.9-.1-1-.1-1.8-.2-2.4-.5,3.1-.6,6-2.1,9.2-1Z"/><path class="cls-1" d="m48.29,293.7c-1-1.5-.6-2.7,0-4.1.4-1.1.9-2.1,1.3-3.1.8-1.9,2-3.3,4.2-3.4-.4.6-.8,1-1.2,1.4-2.7,2.9-4.5,6-3,10.2.4,1.1.1,2.5-.1,3.6-1.2-1.5-.4-3.3-1.2-4.6Z"/><path class="cls-2" d="m22.59,137.6c-.6-.2-1.1-.6-1-1.2.1-.9.8-1,1.7-.8.6.2.6-.1.6-.6,1.3-.8,2.6-.8,4.1-.3.9,1.1,1.7,1.9,2.9,2.5.3,0,.3.1.3.4-3,1.1-5.9.9-8.6,0Z"/><path class="cls-6" d="m467.69,130.5c1.5,1.3,3.5,2.1,4.4,4.2-.4.6-.8.8-1.6.8-.9-.3-1.1-.7-1.3-1.3-.9-2.6-3-4.2-5.3-4.9-2-.6-2.1-1.7-1.9-3.2,2.1,1.4,4.1,2.7,5.7,4.4Z"/><path class="cls-4" d="m54.99,250.4c-.1-.9-.1-1.6-.2-2.6,0-.7.3-1.2.8-1.7.7-.6,1.1-1.1,2.1-1.1,1.3.7,2.2,1.6,2.8,3,.3,1.6.4,2.9-.9,4.1-1.1.7-2.1.6-3.3.5-.8-.5-1.1-1.2-1.3-2.2Z"/><path class="cls-6" d="m196.69,67.5c-.4.2-.5.2-.9.3-2.6.5-4.9,1-7.3,2.4-1,.1-1.8.3-2.4-.3,1.2-.6,2.5-.6,3-1.8.7-1.5,2.3-2,3.3-1.8,2.5.4,4.3-1.1,6.4-1.4,1-.1,1.9-1.2,3-.3-1,1.1-2.5.6-3.5,1.9-.5.5-.9.7-1.6,1Z"/><path class="cls-6" d="m445.39,114.3c3.2,2,6.2,4.3,9.5,6.1.9.5,2.1,1.1,1.9,2.5-.9,0-1.4-.4-1.9-.9-1.2-1.3-2.7-2.3-4.6-2.8-.5-.7-1-1.1-2-1.2-2.1-.6-3.5-1.9-4.9-3.4-.2-.4-.4-.7-.3-1,1,.3,1.8.5,2.3.7Z"/><path class="cls-6" d="m149.39,14.8c1.1-.1,2.3-.5,3.1.6-1.1.4-2.2.5-3.4.8-1.3,1-2.8.3-3.9,1,0-.1-.1-.1-.3.1-.5.3-.8.3-1.3.3-.2.1-.3.2-.6.4-.6.6-1.4.7-2.1,1.3-1.3.6-2.3,1-3.4,1.3,3.3-3.6,7.4-5.3,11.9-5.8Z"/><path class="cls-1" d="m65.89,275.7c.5-1.2-.1-1.8-.6-2.4-1.2-1.2-2.3-2.5-3.7-3.4-2-1.3-3-3.1-2.2-5.5.7,2.4,1.7,4.4,3.8,5.5,2,1.1,3.2,2.8,4.3,4.8-.5.7-.9,1.2-1.6,1Z"/><path class="cls-6" d="m133.39,26.2c-1.3.5-2,1.3-2.5,2.4-.8,1.9-2.2,3.2-4,4,1.9-2.7,3-5.9,6-7.6.6-.4,1-.9,1.2-1.6.3-1.7,1.6-2,3-1.9-.3.4-.5.7-.9,1.2-.7,1.5-1,3-2.8,3.5Z"/><path class="cls-6" d="m58.39,36.4c-2.8.3-4.1-2.4-6.7-2.9-.4-.2-.5-.3-.8-.5-.9-1.2-1.9-1.9-2.5-3.2-.7-.4-1.3-.7-1.3-1.5,4.7,1.5,8.1,4.6,11.3,8.1Z"/><path class="cls-6" d="m323.19,60.1c-3.1-.4-5.8-.6-8.6-1-1.8-.3-3.9.5-5.3-1,5-.4,9.8-.3,13.9,2Z"/><path class="cls-6" d="m397.99,210.1c-.1,1.9-.7,3.9-.5,5.6s-.1,3.1-.8,4.2c-.3-4.3-.2-8.3.7-12.2.8.8.6,1.6.6,2.4Z"/><path class="cls-6" d="m95.39,35.4c1,0,2.1-.1,2.7,1.1-.4.3-.8.4-1.5.7-1.5.4-2.8.3-4.2-.3-1.4-.9-2.8-.6-4.1-.7-1-.1-2.1.2-2.2-1.1,3.3.2,6.3.3,9.3.3Z"/><path class="cls-6" d="m449.79,169.5c.9.8,1.7,1.5,2.5,2.1,1.6,1.3,3.2,2.8,3.4,5-1.8-1.9-3.5-3.6-5.5-5.1-1.6-1.2-3.7-2-4.3-4.3.5,0,.8,0,1.3.1,1.5.1,1.9,1.2,2.6,2.2Z"/><path class="cls-6" d="m383.79,232.2c-1.3,3.6-4.7,5.1-6.7,7.8,0,.1-.4,0-.6-.2,1.4-2,1.6-4.8,4.4-5.4.7-.1.5-1.3.8-2.2.9-.4,1.5-.4,2.1,0Z"/><path class="cls-6" d="m483.59,144.1c-3.8-2.2-6.6-5.3-9.3-8.3,4.2,1.7,6.9,5,9.3,8.3Z"/><path class="cls-2" d="m336.69,241.4c-.3.7-.6,1.2-1.3,1.6-.6.1-1.1.1-1.5-.1,1.5-3.4,3.8-6,5.5-9,.3-.5.6-.9,1.3-.4-1.2,2.2-2.3,4.2-3.5,6.4-.2.6-.2,1-.5,1.5Z"/><path class="cls-6" d="m491.69,154.3c-1.9-2-3-4.5-5.2-6.3-.3-1.6-2.2-2-2-3.5,3.6,2.6,6,5.9,7.2,9.8Z"/><path class="cls-2" d="m337.39,284.2c-3.1.8-6.3.6-9.4,1-.8.1-1.6-.1-1.7-1.1,4.1-.3,8-.6,11.9-.6-.3.4-.5.7-.8.7Z"/><path class="cls-1" d="m108.69,293.7c-.9,2-2.9,2.4-4.5,3.2.6-.9,1-1.6,1-2.7.7-1.1,1.8-1.3,2.8-2,1.2-.3,2.2-.5,3.2-.6-.3,1.6-2,1-2.5,2.1Z"/><path class="cls-2" d="m254.79,212.7c-1.7.4-3.3,1.5-5,.6,3.5-1.6,7.1-2.5,10.7-2.8-1.9.9-3.8,1.8-5.7,2.2Z"/><path class="cls-6" d="m419.29,153.4c1.4.5,2.5,1.1,3.7,1.3,1.7.3,2.8,1.1,3.5,2.5-2.5-1-4.8-1.9-7.2-2.4-1.3-.3-3-.3-3.6-1.9.8-.1,1.4-.1,2.1,0,.6.2.9.4,1.5.5Z"/><path class="cls-6" d="m414.49,152.3c0,.2-.3.4-.4.6-2.9-.2-5.3-1.7-8.1-2-.7-.1-1.8-.3-1.5-1.6,2.7.6,5.1,1.4,7.8,1.6.9.5,1.6.8,2.2,1.4Z"/><path class="cls-8" d="m59.99,37.1c0,.3,0,.4-.4.5-1.1,0-1.9,0-3,.2-3.8-.4-5-1.6-4.9-5.1,1.5,0,2.3.7,3.2,1.4,1.1.9,2.1,2,3.8,2.2.5.3.9.5,1.3.8Z"/><path class="cls-2" d="m324.59,204.1c3,2.3,5.8,4.7,8.3,7.1-3.9-1.3-6.5-3.9-8.3-7.1Z"/><path class="cls-6" d="m12.69,25c-.2.6-.3,1-1,.9-.5-3.4,1.8-6.2,4.9-6.6.5,0,.9.2.8,1-1.7.4-3,1-4.1,2.5-.4.7-.5,1.3-.6,2.2Z"/><path class="cls-2" d="m210.89,219.9c.5,1,1.9.4,1.8,1.6-.4.1-.5.1-.6.1-1.3.6-2.5.4-3.9.2-1.6-.3-1,2.7-3,2.4.9-1.8,1.5-3.7,3.7-4.6.9-.3,1.4-.2,2,.3Z"/><path class="cls-1" d="m308.19,204.9c3.1-3.1,4.8-3.4,8-1.4.1.7-.1,1-.6,1.4-1.7.6-3.1,1.4-5.1,1.1-1.1,0-1.9.1-2.3-1.1Z"/><path class="cls-6" d="m158.69,26.9c1-.7.4-1.6,1.1-2.2,2,2.4.5,5,.9,7.4,0,.1-.2.1-.4,0-.3-.6-.5-.9-.9-1.5-.8-1.2-2.6-2-.7-3.7Z"/><path class="cls-6" d="m497.89,163.2c-2.4-2.5-3.6-5.7-5.1-8.4,1.9,1.4,4.4,5.6,5.1,8.4Z"/><path class="cls-2" d="m322.39,282.8c.7.1,1.4.4,1.5,1.4-3.5-.6-6.5-1.7-7-5.6,1.2.6,1.5,2.2,3.1,2.3.6,1.1,1.4,1.6,2.4,1.9Z"/><path class="cls-6" d="m435.09,161c4,.5,6.3,3.5,9,5.3-3.8-.8-6.4-3.2-9-5.3Z"/><path class="cls-6" d="m22.19,73.8c-1.2-3.1-.1-6.6-1-9.7,1.6,1,1.7,2.5,1.7,4.3,0,.7-.1,1.1-.3,1.8,0,1.8.9,3.4.1,4.9-.4-.5-.5-.9-.5-1.3Z"/><path class="cls-1" d="m133.99,273.9c-2.6,2.3-4.7,5.1-8,6,2.6-1.9,4.4-4.5,7.1-6.2.4-.2.7-.2.9.2Z"/><path class="cls-2" d="m343.79,216.3c.3.1.5.2.8.5.6.5.9.8,1.3,1.1l.2.2c.1.3,0,.5-.1.9-.6,2.4-.3,4.8-2.2,6.3,1.1-3.2.5-6.1,0-9Z"/><path class="cls-6" d="m458.99,216.3c-1-1.5-.2-3.2-1-4.4-1.2-1.8-.6-3.4.3-4.9.3.7.3,1.3.4,2.1,0,.9.2,1.4.7,2,.1.2.3.4.4.7.5,1.9.4,3.4-.8,4.5Z"/><path class="cls-1" d="m65.49,309.8c-1.5-.3-3.2-.3-3.7-2,2.3.6,4.5,1.3,6.7,1.4.8,0,1.5.1,1.5,1.1-1.8-.1-3.2-.2-4.5-.5Z"/><path class="cls-2" d="m313.99,257.8c-1.4,2.6-1.6,5.4-2.2,8-1.8-3.5-.1-5.9,2.2-8Z"/><path class="cls-6" d="m364.79,258.9c-.3.9-.5,2.3-2,2.2.2-1.4.4-2.4.6-3.7.2-.6.4-.9.7-1.4.1-.3.2-.4.5-.6,1.1-.2,1.2-1.4,2.2-1.3-.5,1.8-1.5,3.1-2,4.8Z"/><path class="cls-6" d="m149.19,77.7c.3-.2.5-.3.9-.2,1.1,3.1,1,3,3.9,2.4.8-.1,1.6-.1,2.3,0-.9.8-2,.6-2.8,1.4-1.8,1.7-2.5,1.5-3.5-.8-.2-.4-.4-.8-.8-1.4-.3-.6-.3-1,0-1.4Z"/><path class="cls-1" d="m50.39,168.4c-.1.8-.1,1.3-.4,1.7-.7-3.4-.4-6.8-1-10.1.1-.1.4.1.6.1.7.6.6,1.2.4,2.1.2,1.7.3,3.1.5,4.7.2.5.1.8-.1,1.5Z"/><path class="cls-2" d="m337.19,214.5c-.5.1-.9-.5-.8-1.3.7-.4,1.2-1.6,1.7-1,1.4,1.7,3.9,1.9,5,3.8-2.1-.6-3.8-1.7-5.9-1.5Z"/><path class="cls-2" d="m321.99,254.4c-.3.4-.6.6-1,1-.7.5-1.3.4-2,.2-1.7.6-3.2,1-4.7,1.2,2.3-1.9,4.7-3.2,7.7-2.4Z"/><path class="cls-2" d="m322.39,201.7c.9.7,1.8,1,1.6,2.1-1.6-.9-2.9-.8-4.4-.3-1.3.4-2.2,1.7-3.7,1.2,0-.4,0-.6.1-1.1,2-1.6,3.9-2.6,6.4-1.9Z"/><path class="cls-1" d="m58.19,206.2c-.6,0-.9,0-1.4-.1-1.1-2.4-.8-4.6.4-6.7.6.2.9.4,1.4.8.2.4.1.5,0,.9-.6,1.4-.6,2.5.2,3.8.1.4.1.6.1.9-.1.3-.2.4-.7.4Z"/><path class="cls-6" d="m428.39,104.4c-2.8-1.3-5.6-2.5-7.3-4.9,3,1.1,5.4,2.8,7.3,4.9Z"/><path class="cls-2" d="m339.59,282.5c2.3-1.2,4.4-2.1,6.8-2.4-2.1,1.5-3.9,3.7-6.8,2.4Z"/><path class="cls-2" d="m351.79,275.3c.4-.1.6-.2.9,0-.6,3.8-3.4,4-6.1,4.2.8-1.1,2.2-1.1,3-2.3.7-.8,1.1-1.6,2.2-1.9Z"/><path class="cls-1" d="m54.99,241.8c.2.5.3.9.5,1.5.5,1.1.7,2.2.8,3.4-.6.6-1,1-1.6,1.2-1.5-2.2-1.1-4.2.3-6.1Z"/><path class="cls-1" d="m56.89,258.7c-1.8-2.5-1-5.5-1.6-8,.6.7.9,1.3,1.2,2.2-.2,2.2.6,4,.4,5.8Z"/><path class="cls-6" d="m118.99,41.2c-.7-.2-1.2-.4-1-1.1,1,.1,1.6-.1,2.2-.4,1.7-.7,2.5-2.4,4-3.1.2,2.8-2.4,3-3.7,4.6-.6.3-1,.3-1.5,0Z"/><path class="cls-6" d="m359.99,66.8c1.8,1.1,4.1,1.2,5.3,2.9-2.9-.9-5.8-1.3-7.6-3.6.9.2,1.7.4,2.3.7Z"/><path class="cls-6" d="m224.29,60.4c-2.8,1.1-5.4,1-8,.8,2.8-.4,5.4-1.3,8-.8Z"/><path class="cls-2" d="m262.79,209.2c2.5-.9,4.8-1.9,7.3-1.3-2.5,1-4.8,1.9-7.3,1.3Z"/><path class="cls-6" d="m359.49,268.2c-.3.6-.6,1.3-1.5.8.5-1.9,1.9-3.4,2.3-5.2.2-.8.9-1.2,1.8-.8-.8,1.9-1.7,3.6-2.6,5.2Z"/><path class="cls-6" d="m388.79,227.4c1.5-2,3.1-3.3,5.4-3.3-1.3,2.2-3.3,3.1-5.4,3.3Z"/><path class="cls-1" d="m55.09,233c0,2.4.4,4.6-.9,6.6-.4-2.1.1-5.4.9-6.6Z"/><path class="cls-8" d="m461.39,213.4c.2.5.1.7-.4,1.1-.7,1.5-.3,2.8-.6,4.2-.9-.2-.7-1-1.1-1.6,0-.2-.1-.5,0-.8,0-1.8-.1-3.3.6-4.7,1,.2,1.3.8,1.5,1.8Z"/><path class="cls-9" d="m291.59,57.2c.9,0,1.4,0,1.9.7.2.3.3.5.3.9-.1.6-.4.8-1,.7-1.4-.3-2.4-.9-3.7-.8-.7,0-1-.4-1.2-1.2,1.1-.9,2.3-.3,3.7-.3Z"/><path class="cls-6" d="m429.39,159.2c-1.1.1-1.9-.4-1.8-1.7,1,.1,1.6.2,2.5.3.6.1,1,.3,1.5.5.7.7,1.7.9,1.6,1.9-1.5-.3-2.5-1-3.8-1Z"/><path class="cls-1" d="m51.29,177.7c.3,2.1,1.3,4,.3,5.8-.5-2-1.2-3.9-.3-5.8Z"/><path class="cls-6" d="m458.59,198.8c.3.6.3,1-.1,1.5-.8,1.6.2,3.2-.8,4.4-.7-2.2-1.6-4.4.9-5.9Z"/><path class="cls-6" d="m150.19,73.8c.1-2.4.6-4.3,3.1-4.6-.6,2-2.2,3.1-3.1,4.6Z"/><path class="cls-6" d="m457.99,183.8c-.1-.5-.2-1.1.7-1.3.3.2.5.4.5.9-.3,1.8.9,3.7-.8,4.9.1-1.7-.2-3.1-.4-4.5Z"/><path class="cls-2" d="m33.79,131c-1.5-1.5-3.3-2.7-3.1-4.9,1.1.7,1.4,1.9,2.8,2.4,1,.8,1,1.6.3,2.5Z"/><path class="cls-6" d="m368.29,251.7c0-2.4.9-4,3.2-4.5-1.2,1.6-1.6,3.5-3.2,4.5Z"/><path class="cls-9" d="m261.59,57c.4,0,.7,0,1.1.1.7.3,1.1.7,1.5,1.3.6,2-.6,1.8-1.5,1.5-1-.3-1.2-1.5-2.2-2.1.2-.6.5-.8,1.1-.8Z"/><path class="cls-2" d="m272.09,207.2c.1-.4.3-.5.8-.6.7-.1,1.1,0,1.7.2,1.4.5,2.5-.5,3.6.3-2.1,1.1-4,1.2-6.1.1Z"/><path class="cls-2" d="m343.29,227.8c-.9,1.8-1.1,3.8-2.4,5,.1-2.3.2-4.3,2.4-5Z"/><path class="cls-6" d="m458.69,194.9c0,.9.1,1.4-.5,1.8-.5-1.9-2.3-3.9.4-5.3.2.5.2.9.1,1.4-.1.7-.1,1.3,0,2.1Z"/><path class="cls-6" d="m76.09,35.2c-1.8.8-3.5.5-5.1.2,1.8-1.1,3.5-.9,5.1-.2Z"/><path class="cls-1" d="m30.49,134.8c-.2,1-.1,1.7-.1,2.4q-2.5-.1-2.3-2.7c1-.1,1.7-.3,2.4.3Z"/><path class="cls-2" d="m330.39,247.7c-.6,2.2-2.1,3.3-4.1,3.5,1.2-1.6,2.5-2.9,4.1-3.5Z"/><path class="cls-6" d="m461.39,221c.3,0,.5.1.8.4.9.7,1.2,1.8,2,2.6.2.3.2.5-.1.8-1.8-.7-3.3-1.6-2.7-3.8Z"/><path class="cls-2" d="m242.79,215.3c1.8-1.1,3.6-1.6,5.5-1.2-1.7,1.3-3.7,1-5.5,1.2Z"/><path class="cls-6" d="m11.89,27.6c.9,1.7.4,3.2-.2,4.6-.5-1.7-.7-3.3.2-4.6Z"/><path class="cls-2" d="m44.09,141.2c.9.6.8,1.6,1.6,2.2,1,.7.4,1.5-.2,2.2-.9-1.4-1.3-2.9-1.4-4.4Z"/><path class="cls-6" d="m334.29,61.3c-1.8-.1-3.5.8-4.6-.6,1.8.2,3.4-.5,4.6.6Z"/><path class="cls-6" d="m152.49,260.1c.8-2,2.4-2.4,4-2.6-1.7.4-1.8,3.3-4,2.6Z"/><path class="cls-1" d="m51.99,185.3c.1,1.8,1.2,3.1.8,4.6-1.3-1.6-1.6-3.1-.8-4.6Z"/><path class="cls-1" d="m119.79,284.6c1.6-.7,2.4-2.6,4.1-2.4-1.1,1.4-2.2,2.7-4.1,2.4Z"/><path class="cls-6" d="m30.69,22c1.3.5,3-.2,3.4,1.5-1.4,0-2.5.2-3.7-.5-.1-.4-.1-.7.3-1Z"/><path class="cls-6" d="m158.49,20.6c-1-1.3-1.8-2.5-1.5-4,1.8.9,1.6,2.5,1.5,4Z"/><path class="cls-6" d="m287.19,57.2c1.5-1.8,2.8-.2,4,.1-1.2.2-2.2.3-3.5.4-.3-.2-.4-.3-.5-.5Z"/><path class="cls-6" d="m353.79,65.6c-1.7-.3-3.3.4-4.3-.9,1.7.5,3.5-.8,4.3.9Z"/><path class="cls-6" d="m371.69,246.6c.4-.9.9-1.5,1-2.4.6-.4.7-1.2,1.5-1-.4,1.7-.4,3.5-2.5,3.4Z"/><path class="cls-1" d="m134.19,273.8c0-.1-.2-.3-.1-.5.3-.4.6-.6,1-1,1-.4,1.8-.5,2.6-.2-.9,1.1-2.3,1.1-3.5,1.7Z"/><path class="cls-1" d="m56.69,192.6c.8,1.2,1.3,2.2.6,3.5-.1,0-.3,0-.5-.1-.6-1.4-1.6-2.3-2.2-3.5.7-.5,1.3-.5,2.1.1Z"/><path class="cls-6" d="m249.79,57c1.3-.1,2.4-.3,2.9,1-.7.2-1.2.1-1.7.5-.6.6-1.2.3-1.6-.6.1-.4.2-.6.4-.9Z"/><path class="cls-1" d="m57.39,258.9c1.2,1.4,1.9,2.7,1.4,4.2-1.1-1.4-1-3-1.4-4.2Z"/><path class="cls-6" d="m208.79,63.5c-.3.8-.9.9-1.7,1.1-.9.2-1.4.1-2.1-.3-.3-.1-.4-.2-.4-.5,1.5-.9,2.9-.8,4.2-.3Z"/><path class="cls-2" d="m219.09,221.6c1.3-.6,2.6-.4,3.7-.2-1.2,1.1-2.5.8-3.7.2Z"/><path class="cls-2" d="m187.39,241c1-1.3,2.2-1.9,3.5-1.8-1.1,1.1-2.1,2-3.5,1.8Z"/><path class="cls-6" d="m456.99,177.6c1.1,1,2,1.9,1.3,3.4-1.2-1-1.5-2.2-1.3-3.4Z"/><path class="cls-1" d="m112.49,290.2c1.3-.7,1.7-2.2,3.2-1.9-1,1.1-1.6,2.4-3.2,1.9Z"/><path class="cls-1" d="m64.79,276.7c-1.3,1.1-2.8.8-4,1.1,1.3-.8,2.5-1.6,4-1.1Z"/><path class="cls-2" d="m25.69,119.9c-1.5-.4-2.8-.7-3.9-1.2,1.3-1.3,2.2.3,3.4.3.4.3.7.5.5.9Z"/><path class="cls-6" d="m259.69,58.3c-.8.3-1.4.2-2-.2-.4-.2-.7-.4-.4-.9,1.5.4,2.8-.6,4,.1-.3.4-.5.6-.9.8-.2,0-.5,0-.7.2Z"/><path class="cls-1" d="m32.09,133.8c.6-.2,1-.2,1.7-.2,1-.4,1.6-.8,2.5-.2-1.1,1.1-2.2,1.3-4.5,1-.1-.4,0-.5.3-.6Z"/><path class="cls-1" d="m50.49,299.6c.5.5,1,1,1.2,1.7-1.8.4-2,.2-1.2-1.7Z"/><path class="cls-8" d="m458.79,196.7c1.5,1.8,1.4,2.3-.2,3.2,0-.6-.1-.9-.2-1.5-.1-.8-.2-1.3.4-1.7Z"/><path class="cls-6" d="m35.19,24.5c-.2-.3-.2-.4.2-.7,1.2.3,2.6-.6,3.1,1.1-.1.2-.2.3-.4.4-.2-.1-.5,0-.8,0-1,.1-1.6-.1-2.1-.8Z"/><path class="cls-1" d="m98.19,300.7c1.2-.9,2.3-1.6,3.4-2-.8,1.7-2.2,1.9-3.4,2Z"/><path class="cls-2" d="m306.89,206.5c0-.4.1-.7.3-1.1.4-.6.7-.8,1.4-.3.9.4,1.6.6,2.1,1-1.3.8-2.7-.2-3.8.4Z"/><path class="cls-2" d="m33.99,131.2c.1-.1.2-.3.4-.4.3-.1.4,0,.7.2.8.6,1.2,1.3.9,2.2-1,.5-1.7.6-2.2.1,1.1-.9.2-1.4.2-2.1Z"/><path class="cls-2" d="m201.29,230v-1.4c.3-.7.9-.8,1.4-1.3.3-.2.5-.2.8.1-.5,1.2-1.1,2.2-2.2,2.6Z"/><path class="cls-2" d="m34.89,136.6c1.3-.1,2.4-.7,3,.7-1.2-.1-2.6,1-3-.7Z"/><path class="cls-2" d="m26.79,120.1c.5-.1.8,0,1.3.2.5.7.4,1.3.5,2.1,0,.5,0,.8-.2,1-1.3-.8-1.6-2-1.6-3.3Z"/><path class="cls-8" d="m296.09,57.8c-.1.7-.5,1-1.3,1.1-.9-.2-1.3-.5-1.5-1.1,0,0,0-.2.2-.3,1.1-.6,1.8-.6,2.6.3Z"/><path class="cls-1" d="m17.59,109.6c.1,1.1.1,1.9.1,2.8,0,0-.3.2-.5,0-.7-1.2-.9-2.3.4-2.8Z"/><path class="cls-1" d="m59.29,278.7c-.9,1-1.5,2.3-2.9,1.6,1.2-.5,1.5-2.3,2.9-1.6Z"/><path class="cls-6" d="m369.39,71.8c-1-.3-2.1-.5-2.3-1.6,1.2.3,2.3.3,2.3,1.6Z"/><path class="cls-8" d="m28.59,22c.3-.2.5-.2.9-.1.5.1.8.2,1.1.4,0,.4,0,.7-.1,1.1-1.6.9-2,.2-1.9-1.4Z"/><path class="cls-2" d="m24.39,86.5c.1-1,.3-1.8.6-2.6,1.1.3,1.8.6,1,1.6-.3.4-.6.8-1.1,1.4-.2,0-.3,0-.5-.4Z"/><path class="cls-1" d="m23.89,135.3c.9.3,1.2.6,1,1.3-.2.5-.6.6-1.1.5-.9-.2-.7-1-.6-1.7.3-.1.4-.1.7-.1Z"/><path class="cls-1" d="m143.09,267.4c.7-1.4,1.6-1.8,2.8-1.5-.9.7-1.8,1.2-2.8,1.5Z"/><path class="cls-2" d="m298.69,207.7c-1,0-2.1.7-2.3-.8,1,0,1.7,0,2.6.2,0,.3-.1.4-.3.6Z"/><path class="cls-2" d="m311.99,266.9c.6,1,.8,1.7.4,2.6-1.1-.8-1.3-1.7-.4-2.6Z"/><path class="cls-1" d="m55.49,304.4c1,.5,2.2.5,2.3,1.8-1.1-.5-2.3-.5-2.3-1.8Z"/><path class="cls-1" d="m117.09,286.7c.3-1.2,1-1.5,2-1.2-.5.9-1.1,1.4-2,1.2Z"/><path class="cls-1" d="m48.89,157.3c0,1.1,0,1.9-.3,2.6-1.1-1.2-.7-2.1.3-2.6Z"/><path class="cls-6" d="m268.09,56.9c-1,.4-1.9.6-2.6-.1,1-.5,1.9-.4,2.6.1Z"/><path class="cls-1" d="m51.39,173.4c.7.1,1.4.1,1.3.8-.2.8-.9.7-1.7.5-.1-.5-.4-.9.4-1.3Z"/><path class="cls-6" d="m342.29,62.9c-1.1,0-1.9.2-2.3-.8,1-.1,2.1-.6,2.3.8Z"/><path class="cls-6" d="m108.79,37.6c-1,0-1.9.2-2.3-.8,1,.1,2.2-.7,2.3.8Z"/><path class="cls-9" d="m53.89,191.7c1-.3,1.8-.4,2.6-.5,0,0,.1,0,.2.3.2.7,0,1-.6,1.2-.8,0-1.2,0-1.9-.1-.3-.3-.4-.5-.3-.9Z"/><path class="cls-6" d="m153.29,68.6c.6-.9.5-2.1,1.7-2.3-.2,1.2-.4,2.3-1.7,2.3Z"/><path class="cls-2" d="m40.79,137.8c.6,0,.8,0,1.1.3.4.7,1.1,1,.8,1.8-1.1-.4-2.3-.6-1.9-2.1Z"/><path class="cls-6" d="m278.19,58.6c-.1-.6-.1-1,.1-1.6.9-.1,1.6-.3,2,.6-.5.5-1,.7-1.4,1.3-.3.1-.5.1-.7-.3Z"/><path class="cls-2" d="m326.29,251.7c-.3,1.1-.9,1.8-2,1.5.5-.9.9-1.7,2-1.5Z"/><path class="cls-2" d="m183.29,243.9c-.5.8-1,1.5-2,1.2,0-.1,0-.3.1-.4.7-.5,1.2-1,1.9-.8Z"/><path class="cls-6" d="m147.29,264.6c.8-.9,1.6-1.2,2.6-.8-.8.8-1.8.6-2.6.8Z"/><path class="cls-1" d="m52.99,301.7c.8.7,1.3,1.3,1.2,2.2-1.2-.5-1.6-1.2-1.2-2.2Z"/><path class="cls-6" d="m356.09,271.5c.1-1.2.7-1.9,1.8-1.8-.4,1-.8,1.8-1.8,1.8Z"/><path class="cls-2" d="m312.89,274.4c.9.2,1.7.4,1.4,1.4-.5-.6-2.3.4-1.4-1.4Z"/><path class="cls-6" d="m179.19,72.9c-.7.2-1.3.1-1.9-.1.8-.8,1.4-.8,1.9.1Z"/><path class="cls-9" d="m40.79,137.5c.6-.7,1.2-1.2,1.7-.4.3.5-.2.7-1,.8-.6,0-.8.1-1,0,0-.1.1-.2.3-.4Z"/><path class="cls-2" d="m183.39,243.4c.5-.9,1.2-1.1,2-.8-.6.7-1.3.9-2,.8Z"/><path class="cls-1" d="m24.49,88.7c-.5-.7-.5-1.3.1-1.9.1,0,.4,0,.4.2,0,.7.2,1.3-.5,1.7Z"/><path class="cls-9" d="m212.79,62.5c-1,1.5-1.6,1.3-1.8-.3.8-.1,1.3,0,1.8.3Z"/><path class="cls-9" d="m271.49,57.5c-.2.9-.5,1.3-1.2,1.1s-.7-.8-.5-1.5c.7-.1,1.2-.2,1.7.4Z"/><path class="cls-6" d="m61.89,37.3c-.7.5-1.3.3-1.9.1,0-.2-.1-.5.1-.6.7-.1,1.4-.3,1.8.5Z"/><path class="cls-6" d="m42.29,26c1.4-.3,1.6-.2,1.2.7-.7.1-1.1.1-1.6-.1,0-.3.1-.4.4-.6Z"/><path class="cls-6" d="m354.1,15c-.1.9-.8.9-1.6,1-.1-1.2.6-1.3,1.6-1Z"/><path class="cls-1" d="m235.09,217.8c-.5.1-.8.1-1.1-.2,0-1.1.3-1.8,1.3-1.6,0,.8.1,1.3-.2,1.8Z"/><path class="cls-1" d="m292.79,207.3c.3-.7.4-1.4,1.1-1.7,0,.5.1,1.1.1,1.8-.5.4-.9.5-1.2-.1Z"/><path class="cls-6" d="m460.29,219.9c-.5-.9-.7-1.8-.8-2.6.5.4.8.8,1.1,1.5,0,.5,0,.8-.3,1.1Z"/><path class="cls-1" d="m48.39,153.6c.8.8.7,1.5.2,2.2-.6-.8-.6-1.6-.2-2.2Z"/><path class="cls-2" d="m215.69,221.9c.8-.1,1.3,0,1.8.2-.8.8-1.5.8-1.8-.2Z"/><path class="cls-8" d="m40.39,25.8c.7.1,1.2.2,1.7.5-.1.3-.1.4-.3.6-1.2.4-1.7.2-1.4-1.1Z"/><path class="cls-2" d="m352.69,274.8c.5-.8,1-1.1,1.8-.9-.4.9-1.1,1-1.8.9Z"/><path class="cls-6" d="m394.99,223.4c.4-.7.6-1.3,1.4-1.2-.3.8-.5,1.6-1.4,1.2Z"/><path class="cls-6" d="m156.69,61.8c.3-.8.4-1.5,1.1-1.6-.1.9,0,1.8-1.1,1.6Z"/><path class="cls-8" d="m472.89,135.3c-.7.4-1.4.5-2,.6,0-.1-.1-.3.1-.5.6-.4.9-.7,1.5-.9.3.2.4.4.4.8Z"/><path class="cls-6" d="m366.89,253.4c.4-.7.8-1.3,1.6-1.2-.2,1-.6,1.6-1.6,1.2Z"/><path class="cls-6" d="m386.19,229.1c.5-.8,1-1.4,1.9-.9-.5.8-1.1,1.1-1.9.9Z"/><path class="cls-1" d="m137.69,271.6c.1-.8.4-1.2,1-1.1-.2.6-.2,1.3-1,1.1Z"/><path class="cls-8" d="m458.99,181.6c.8.4.9.9.1,1.3-.3-.3-.4-.5-.6-.8.1-.3.2-.4.5-.5Z"/><path class="cls-6" d="m150.59,261.8c.3-.8.7-1.2,1.4-.8-.4.7-.8,1-1.4.8Z"/><path class="cls-1" d="m140.39,269.7c.4-.6.9-.8,1.4-.5-.5.6-.8,1-1.4.5Z"/><path class="cls-6" d="m264.29,57.5c-.1.4-.1.6-.4.8-.8-.2-1.3-.5-1.1-1.2.7,0,1.1.1,1.5.4Z"/><path class="cls-6" d="m306.19,58.3c-.5.4-.9.4-1.1-.3.5-.2.9-.3,1.1.3Z"/><path class="cls-6" d="m125.59,34.5c-.2.8-.3,1.3-1.1,1.1.1-.8.3-1.2,1.1-1.1Z"/><path class="cls-1" d="m58.89,306.4c.6.1,1,.3,1,.9-.7.1-1.1-.2-1-.9Z"/><path class="cls-6" d="m22.09,20.7c-.6,0-1-.1-1-.7.7-.3,1.1,0,1,.7Z"/><path class="cls-6" d="m26.29,21.4c-.7,0-1.1-.1-1.1-.8.7-.2,1.2-.2,1.1.8Z"/><path class="cls-6" d="m159.29,21.8c-.4-.4-.6-.7-.3-1.2.6.3,1.2.7.3,1.2Z"/><path class="cls-6" d="m27.79,21.3c.8-.4,1.2-.1,1.2.7-.3.2-.4.2-.7.2-.3-.3-.4-.5-.5-.9Z"/><path class="cls-8" d="m44.89,27.5c-.2.6-.4,1.1-.9.7-.6-.4-.3-.9.1-1.4.4.2.6.3.8.7Z"/><path class="cls-1" d="m300.19,207c.1.3,0,.4-.3.6-.5.1-.8,0-1.1-.2,0-.3,0-.4.1-.6.6-.3,1-.2,1.3.2Z"/><path class="cls-2" d="m282.09,206.8c.5,0,.8.1,1.1.4-.8.8-1.1.5-1.1-.4Z"/><path class="cls-6" d="m104.09,36.9c-.7.1-1.1-.1-1.1-.8.7-.2,1.2,0,1.1.8Z"/><path class="cls-6" d="m65.29,36.5c-.5.5-.9.6-1.3.2.4-.5.8-1.2,1.3-.2Z"/><path class="cls-1" d="m55.89,281c-.2.7-.5,1.2-1.2.9.3-.6.5-1.2,1.2-.9Z"/><path class="cls-6" d="m113.79,38.9c-.7.1-1.1,0-1.2-.7.6-.2,1.2-.1,1.2.7Z"/><path class="cls-2" d="m302.99,206.4c.7-.1,1.1,0,1.5.2.1.1-.2.3-.2.5-.8,1.1-1.2.6-1.5-.4-.1-.1,0-.3.2-.3Z"/><path class="cls-2" d="m301.59,207.2c-.4.6-.8.9-1.4.3,0-.2,0-.5.2-.6.6,0,.9,0,1.2.3Z"/><path class="cls-2" d="m286.59,206.9c.4-.1.5-.1.8-.1.3.3.4.5.4.8-.7.3-1-.1-1.2-.7Z"/><path class="cls-6" d="m354.59,273.3c.3-.7.6-1.1,1.3-.8-.2.8-.7,1-1.3.8Z"/><path class="cls-2" d="m230.69,219.5c.4-.4.7-.5,1.1-.2-.4.6-.7,1.1-1.1.2Z"/><path class="cls-2" d="m195.59,235.5c.4-.6.9-.8,1.4-.4-.4.6-.8,1-1.4.4Z"/><path class="cls-7" d="m54.99,231.9c0-.5.1-.8.4-1.1.3.1.4.1.7.2.4,1.1-.3,1.1-1.1.9Z"/><path class="cls-6" d="m24.09,81.4c.4.3.6.7.2,1.1-.5-.3-1.2-.6-.2-1.1Z"/><path class="cls-6" d="m173.09,73.4c-.4.4-.8.6-1.2.2.4-.6.7-1,1.2-.2Z"/><path class="cls-6" d="m167.59,75.5c-.3.5-.7.7-1.1.3.4-.5.7-1.2,1.1-.3Z"/><path class="cls-2" d="m199.69,231.8c.2-.8.6-1.1,1.3-.9-.3.7-.7,1-1.3.9Z"/><path class="cls-6" d="m460.09,123.8c.1.3,0,.4-.4.5-.4-.1-.5-.2-.4-.6.4-.3.6-.2.8.1Z"/><path class="cls-2" d="m29.29,124.1c.5.4.9.8.5,1.4-.7-.4-1.1-.8-.5-1.4Z"/><path class="cls-2" d="m30.49,134.3c.5-.4.8-.9,1.4-.3,0,.3,0,.4-.2.6-.6,0-.9-.1-1.2-.3Z"/><path class="cls-2" d="m203.69,226.8c.2-.5.3-.8.9-.7.1.8-.2,1.1-.9.7Z"/><path class="cls-6" d="m465.79,225.9c.7.1,1.2.4,1,1.1-.8-.1-1.2-.4-1-1.1Z"/><path class="cls-2" d="m333.69,211.5c.4.3,1,.4.7,1.1-.9,0-1.2-.4-.7-1.1Z"/><path class="cls-6" d="m155.49,64.8c0-.7.2-1.2.9-1.2,0,.7-.3,1.2-.9,1.2Z"/><path class="cls-2" d="m241.49,216.1c.4-.4.7-.5,1.2-.2-.2.7-.6,1.3-1.2.2Z"/><path class="cls-6" d="m182.29,71.7c-.6.7-1.2.8-1.6.2.6-.3,1.1-.7,1.6-.2Z"/><path class="cls-2" d="m238.79,216.7c.5-.5.9-.6,1.3,0-.4.5-.8,1.2-1.3,0Z"/><path class="cls-8" d="m38.69,25.3c-.3.1-.4,0-.5-.2.2-.2.3-.3.5-.3.1.2.1.4,0,.5Z"/><path class="cls-8" d="m249.09,57.2c.3-.1.4-.1.5.2-.1.5-.1.6-.3.7-.3-.3-.3-.5-.2-.9Z"/><path class="cls-1" d="m48.89,138.1l-.2-.2c-1.3-3.4,1.3-3.6,3.1-4,5.6-1.4,11-3.1,16.1-6.5,2.8-.6,5.2-1.5,5.8-4.5-2.5,1.8-5.5,2.6-8.2,4.4-3.2,1.5-6.3,2.6-9.4,3.6-3.7,1.2-7.6,2.3-11.8,1.4-1.5-3.5-2.8-6.7-1.2-10.4,3.1-.8,6-.5,9.2-1.1,2.3-.1,4.3,0,6.5-.5,3.8.2,6.3-2.9,9.7-3.1-.1.5.2-.2-.3-.3-3,1.3-6.1,2.2-9.6,2.3-1.3,0-2.4,0-3.8.1-.9.1-1.4.6-2.1,1-.3.2-.5.2-.9.3-2.6-1.2-5.1-1.7-7.7-1.2-1.1.2-2.2.1-3.1-1.1-.5-1.7-.4-3.3-1.8-4.7-.1-1-.3-1.9.6-2.7,2.6-3.4,2.8-6.9.7-10.3-3-4.8-4.8-10-5.8-15.5-.8-4.2-.9-8.6.1-12.8,2.1-9,7.7-15.7,14.6-21.5.7-.7,1.6-1.3,2.9-.7.8,1.9.6,3.7.8,5.5.2,1.3.2,3.3,2.7,1.9.6-.9.7-1.7.9-2.7.5-1.7.2-3.2.3-5-.6-2.9.5-4.7,2.8-6.1.7-.6,1.4-.7,1.9-1.2.1,0,0-.1.2-.2.9-.6,1.9-.4,2.9-1.1,1.9-.2,3.4-.2,5.2-.4.6-.4,1-.7,1.7-.9,3.7,0,7.1-.1,10.7-.1.5-.1.8,0,1.4,0,5.3-.8,9.9,1.6,15,1.3,1.1-.1,1.9-.1,2.9.4.9.2,1.6.3,2.4.5.8.4,1.5.5,2.4.9,2,.1,3.8.2,5.8.4,5.8.9,6.7,1.8,6.7,7.7,0,1.8.5,3.3,1.1,4.9.5,1.3.9,3,2.7,2.2,1.5-.7,1.3-2.2.3-3.6,0-.1-.1-.4-.2-.7-.4-1.1-.4-1.8.3-2.7,1.7-.4,2.5.7,3.3,1.6,1.9,2.1,3.6,4.4,5.5,6.5,11,12.6,7.9,30.3.7,42.4-1.9,3.3-3.1,6.4-3.1,10.1,0,3.1,0,6.2-1.5,9.2-5.8.5-11.2-1.2-16.4-.7,2.9.6,6.2,1.8,9.7,2.2,1.9.2,3.9-.1,5.6,1.5-.1,4.2-1.9,7.5-4.1,10.8-1.4,0-2.6-.2-3.8-1.1-6.6-2-11.7-6.2-17.3-9.5,1.9,2,4,3.9,6.1,5.7,1.6,1.4,3.7,2.8,5.7,2.7,2.6-.1,3,1.3,3.8,3.2,1.2.2,1.7,1,2.6,1.7.6.7,1,1.2.4,2.1-.5.6-1,.9-1.5,1.1-3.4,1.4-6.7,2.8-9.7,4.7-2.1,1.3-4.6,2.4-5.7,5.3-1.8.7-3.7.2-5.2,1-3.6,2.1-8,.7-11.7,2.6-.6.3-1.4.2-2-.1-4.4-1.9-9.1-3.2-13.5-5.8-.8,0-1.3,0-2-.1-2.9-1.7-5.9-2.4-8.9-3.9-.8-.2-1.5-.3-2.3-.5-.6-.3-1-.7-1.6-1.1-.3-.3-.5-.4-.8-.8-2.7-.6-4.8-2-6.6-3.8Z"/><path class="cls-8" d="m326.99,256.9c.6-.4,1.1-.8,1.8-.4-1.1,2-2.7,3-4.6,3.5-1.3.4-2.7.7-4,.9-1.4.3-2.5.9-2.1,2.6,2.4.1,4.1-1.6,6.3-1.7.8,0,1.7-.3,2,.8.3,1.1-.4,1.5-1.4,1.8-2.3.7-4.3,1.8-5.9,3.7-1,1.2-.9,2.9.3,4.3,1.1,1.4,2,.2,2.9-.3.4-.2.8-.3,1.2-.6,3.1-2.1,6.6-3.1,10.3-3.3.9-.1,1.4.2,1.6.9.3.9-.3,1.3-1.1,1.3-2.4.1-4.5,1.4-6.7,2.2-1.6.6-3.3,1.4-4.4,3-.6.8-.6,1.5.5,1.8.8.3,1.5.7,2.3.7,3.3.2,6.6.3,9.9-.2,1.5-.2,2.9-.8,4.4-1.5,3.1-1.4,5.8-3.6,9.1-4.2-1,2.2-3.6,2.1-4.9,3.6-3.2,3.6-8.4,2.2-12.1,4.7-.2.1-.5-.1-.7-.1-3.3-.3-6.6-1.5-10-.7-.3.1-.6-.3-.9-.7,0-2,.2-3.8-1.6-4.8-2.2-1.2-2.4-3.2-2.1-5.2.1-1-.1-1.7-.6-2.5-2.1-3.4-1.9-4.3,1.1-7.1.3-.3.5-.9.9-1,2.2-.6.9-1.8.9-3,.8-.2,1.2-.2,1.8,0,2.7,3.2,2.9,3.2,5.8,1.5Z"/><path class="cls-9" d="m103.49,152.5c-1.5,1.2-2.9,2.4-4.8,3.1-3.8,1.4-7.9,2.2-11.9,2.2-2.8,0-5.8.5-8.6-.6-4.2-1.6-8.4-3-12.7-4.5-1.9-.7-4-.9-5.7-2-1.9-1.2-4-1.4-6.1-1.7-1.5-.3-1.7.5-1.6,1.7.1,1.5,1.2,2.8.2,4.2-.7-2.9-2.4-5.5-1.9-8.5,1.5-.2,2.2.9,3.4,1.1,4.4.7,8.5,2.9,12.7,4.3,2.2.8,4.4,2.3,6.7,2.1,1.7-.2,3,.2,4,1.2,1.2,1.2,2.7,1.5,4.1,1.2,1.7-.4,3.3,0,5,0,2,0,4.3.8,6-1.3-1-1.4-2.2-1.6-3.6-.8-1.5.9-3,1.2-4.6.6-3.2-1.2-6.5-2.5-9.7-3.9-1.2-.5-2.6-1-2.8-2.5.6,0,1,0,1.3.1,5.6,2.7,11,6.6,17.8,4,.2-.1.5,0,.7,0,1.7.2,3.4-.2,4.9-1,2.5-1.3,5-1.4,7.7-.7.2.8.3,1.4-.5,1.7Z"/><path class="cls-4" d="m492.99,210.2c-.3.9-.4,1.5-.7,2.3-.3.5-.4.9-.4,1.5-.6,1.5-1.2,2.8-2.1,4.2-1.4.6-2.4.4-3.4-.4-.1,0-.2-.1-.2-.4.2-1.4-.1-2.7,1.2-3.8.8-1.4.1-2.9,1.2-4.2.2-.5.3-.7.5-1.2.1-.9.3-1.6.7-2.4.2-.7.4-1.1.6-1.7.1-.9.2-1.5.8-2.3.7-1.8.8-3.6,2.1-5.1,1.2-1.7,2.7-3.1,2.8-5.3.1-1.8,1.5-1.7,2.7-.6-.3,1.7.1,3.2-.9,4.6-.3.5-.4.9-.4,1.5-.3.8-.5,1.3-.9,2-.5.7-.9,1.3-1,2.3-.6,2.3-1.2,4.3-1.8,6.5-.4.8-.7,1.5-.8,2.5Z"/><path class="cls-8" d="m208.59,215.8c-.3-1.8-1-2-2.9-.9-.2-.3-.2-.4-.2-.5,1.7-5.9,3.9-11.6,4.7-17.8.1-1.3,1-2.2,1.5-3.4.2-.5.9-.6,1.5-.4.4.1.7.5.7,1-.1,3.1.4,6.1-.7,9.1-.8,2-2.5,3.8-1.3,6.3.1.2-.1.7-.3.9-1.6,1.8-.6,4.2-1.6,6.1-.3.6.1,1.4.7,2,0,.7.1,1.1-.2,1.5-.8,0-1.4,0-1.9-.2.1-1.4.2-2.5,0-3.7Z"/><path class="cls-7" d="m148.09,119.2c0,.6.7,1.1,1.2.7,3-2.3,6.8-2.3,10-3.8,1.1-.5,2.3-.3,3.2-1.1,2.5-2.4,6-2.8,8.8-4.6.7,1.1,0,1.7-.5,2.2-3.8,3.7-8.3,6.2-13.2,8.1-2.4.9-5.1,1.3-7.4,2.5-1,.5-2,.4-2.9-.1.5-1.1,2.1-.4,2.4-1.5-1-1.4-3.5.3-3.6-1.8,0-1.2.2-3,2.3-2.8-.1.8-.4,1.5-.3,2.2Z"/><path class="cls-4" d="m398.59,138.5c-.3-3.3-1.6-6.2-1.7-9.5-.3-.8-.6-1.3-1-2.1,0-1.5-.8-2.5-1.2-3.9-.2-1.7-1.6-3.1-.1-4.3,1-.8,2.1-.5,3.2.4.4.4.6.7.9,1.2.3.6.6,1,.9,1.7.6,2.8.7,5.5,1.7,7.8,1.6,3.6,1.5,7.2.9,10.9-1.3.7-2.3.5-3.4-.3-.1-.8-.1-1.3-.2-1.9Z"/><path class="cls-9" d="m64.19,297.2c4.4-3.1,9.4-3.8,14.5-4.1.8-.1,1.5.1,1.6.9.1.7-.3,1.3-1.1,1.5-5.3,1.5-10.5,3.3-15.4,5.8-.6.3-1.3.3-2.2.3-.1-2.2,1.1-3.4,2.6-4.4Z"/><path class="cls-8" d="m305.49,203.8c-1.4.3-3,1-3.8-.9,6.3-.3,12.2-1.8,18.2-2.6-.3-1.4-1.3-1.9-1.9-2.7-1.1-1.4-2.5-2.5-2.4-4.5,3.7-.5,4.2-.2,4.5,3.4.1.5.3.9.6,1.2,1.3,1,1.2,2.5,1.2,4-2.4.2-4,1.9-6.2,1.9-.4-.5-.8-.6-1.3-.7-2.4-.3-4.1,1.2-6.3,2.1-.4.2-.8.4-1.1.3,0-1.2-.2-1.7-1.5-1.5Z"/><path class="cls-9" d="m207.39,65.8c.2,2.1.3,2.2,1.9.9.5-.4.8-.9,1.4-.5,2.3,1.4,4.5,0,6.8-.1,1.2-.1,2.4-.7,3.4.4-1,1.2-2.2.8-3.3,1-3.6.5-7.2.7-10.6,2-1.4.5-2.8.9-4.3.8-1.6-.1-3.1.3-4.5,1.1-1.2.6-2.4,1.4-4,.5.5-1.5,1.4-2.5,2.4-3.7.7-.2,1-.1,1.3.4.2.7.4,1,1,.9,2.3-.5,4.6-.9,6.9-1.4-.2-1.3-.3-2.5-.2-3.8.7,0,1.3.1,1.8.4,0,.5-.1.7,0,1.1Z"/><path class="cls-8" d="m375.69,77.1c1.5.2,3-.1,3.5,1.4-.9.1-1.8-.2-2.1.4-.5,1.1.7,1.3,1.2,1.7,1.3,1,2.8,1.7,4.4,2.3,1.8.7,3.9,1.1,4.7,3.1-3.3-1.3-6.8-1.7-9.5-3.9-2.1-1.7-4.4-3.1-7.1-3.7-1-.3-1.5-.9-1.7-1.8,1-.1,1.6.8,2.4.1.1-.9-1.4-1.4-.5-2.5,1.9.6,3.6,1,4.3,2.9,0,.1.2,0,.4,0Z"/><path class="cls-8" d="m413.29,149c-.1-.6,0-1,.7-1.5,3.3.5,6.3.1,8.9,1.7,2.6,1.6,5.4,2.5,8.4,3.2,2.1.5,4,1.6,4.7,3.9-2.7-1.8-5.6-2.3-8.3-3.5-.6-.2-1.1-.5-1.6,0-.8.8-1.3.8-1.6-.4-.2-.8-.9-1.2-1.6-1.6-3-1.8-5.8-1.6-8.9,0-.6-.6-.8-1-.7-1.8Z"/><path class="cls-7" d="m134.69,141.3c2.7.9,4.6,2.3,6.5,4.6-4.1,0-7.1-2-10.3-3.3-1.1-.5-3.3-.6-2.5-2.5.7-1.6,2.3-.9,3.6-.3.1.1.2.2.4.4.7.5,1.4.6,2.3,1.1Z"/><path class="cls-7" d="m469.59,158.1c.8-.5,1.8-.6,2.5.2.9.9.2,1.7-.3,2.4-1.8,2.3-3.7,4.5-5.6,6.5q-.2-3.2-2.7-2.8c1-3.3,3.7-4.7,6.1-6.3Z"/><path class="cls-4" d="m192.99,72c-.7.3-1.1.6-1.8,1-1,.1-1.7.2-2.4-.1,0-1.1,0-1.9.1-2.9.9-1.1,1.4-1.9,2.9-2.1s3-.4,4.7-.6c.2.5.1.8-.1,1.3.6,2.1-1.5,2.3-2.3,3.4-.3.1-.5,0-1.1,0Z"/><path class="cls-4" d="m109.39,245.1c-.5.9-1.2,1.3-1.7,2.3-.7.9-1.3,1.5-2.5,1.8-2.3.5-2.2-.9-2.1-2.6.3-.9.7-1.5,1.5-2,2.1-.7,3.1-2.1,3.9-4,.4-.7.8-1.1,1.5-1.5.6-.3.9-.5,1.4-.9.3-.1.5-.2.8-.1,1.5,1.3.7,2.2-.1,3-.9.9-1.8,1.7-1.8,3.3-.3.4-.6.5-.9.7Z"/><path class="cls-8" d="m339.89,245.7c-1.1,2.2-3.1,3.9-4.8,5.7-1,1-2.1,1.8-3.5,1.6,3.9-3.7,7.2-7.5,9.5-12.2,1-2.1,2.3-4.3,4.4-5.7-1.2,3.9-3.8,7.1-5.6,10.6Z"/><path class="cls-8" d="m306.59,182.2c-.5-4.2-2.8-7.6-4.2-11.4-1-2.7-2.7-5.3-1.6-8.3.4.5.6.9.7,1.3.8,4,2,8,4,11.4,1.5,2.6,2.4,5,2,7.8-.5-.3-.9-.5-.9-.8Z"/><path class="cls-8" d="m302.49,136.9c.6,1.2.9,2.5.9,3.9,0,2.7-.1,5.4,1.2,8,.5,1,.5,2.4-.6,3.3-.3-1.3-.2-2.6-.7-3.5-1.2-2.3-1.1-4.7-1.1-7.2,0-.7,0-1.3-.1-2-.5-2.8-1-3-3.8-2.3,2-3.1,2.9-3.1,4.2-.2Z"/><path class="cls-8" d="m350.59,217.2c.5,5.8-1,11.2-4.3,16-.2.3-.6.4-.9.3.6-1.9,1.3-3.6,2-5.2,1.4-3.1,2.3-6.3,2-9.8-.2-1.8-1.4-3.1-1.1-4.8,1.6.7,2.1,2.1,2.3,3.5Z"/><path class="cls-8" d="m341.89,208.6c2.9.6,5.2,2.1,6,5.1-3.5-3-7.1-5-11.7-4.8-.8,0-1.5-.4-1.6-1.1-.2-1.4-1.7-2.3-1.3-3.7,2.3,2.8,5.3,3.8,8.6,4.5Z"/><path class="cls-8" d="m440.69,157.5c.9,1.1,2.2,1.5,3.4,2.1,2.7,1.2,5.3,2.8,6.8,5.5-1.2.1-1.9-.7-2.6-1.2-2.9-2.1-5.8-4.2-9.5-5-.8-.2-2.7-.7-2.5-2.5,1.8.1,3.3-.2,4.4,1.1Z"/><path class="cls-7" d="m391.79,117.2c-.4-.9-.2-1.9.8-2.4.7-.4,1.4-.6,1.9,0,1.1,1.4,2.9,2.2,3,4.1q-2.7.1-2.5,2.3c0,.6-.1,1.3-.3,1.8-1.1-2-2.1-3.9-2.9-5.8Z"/><path class="cls-7" d="m56.59,292.2c1-2.7,3.1-3.2,5.6-3.3.6.5.8.9.5,1.7-2.4,2.1-5.1,3.5-7.6,4.8,0-.8,0-1.3.2-2.1.6-.5.9-.7,1.3-1.1Z"/><path class="cls-9" d="m53.09,158.6c1.4,3.6,2.2,7.1,1.4,10.7-1.7-2.8-1-5.9-1.9-8.8-1.1.6-1.9,1-2.8,1.2-.2-.6-.3-1.1-.2-1.7,1.3-.6,2.3-1,3.5-1.4Z"/><path class="cls-8" d="m298.39,64c-2.7-1-5.5-.5-8.3-.6-1.2,0-2.5.4-3.7-.6,0-.3.1-.4.4-.5.5,0,.8,0,1.3-.2s.9-.1,1.4.1c1.8.4,2.5-1.2,3.8-1.2.3.9.7,1.1,1.3,1.2,2.2.3,4.4.6,6.4,1.1-.8,1-1.8,1-2.6.7Z"/><path class="cls-8" d="m312.79,179c-1.1-.6-1.3-1.5-1.7-2.3-1.6-3.5-2.1-7.3-3.9-10.7-.3-.7-.1-1.6.3-2.2,2.4,5,3.5,10.3,5.3,15.2Z"/><path class="cls-9" d="m57.09,286.4c.9-1.4,1.4-2.7,1.7-4.2,2.7.9,4.9-.5,7.2-.6-2.9,2-5.6,4.1-8.9,4.8Z"/><path class="cls-9" d="m242.09,63.7c.3-1.6,1.1-2.1,2.4-2.1,1.9-.1,3.6.9,5.5.4,0,0,.2.6.2,1-2.7,1.3-5.4,1.4-8.1.7Z"/><path class="cls-8" d="m67.19,287.1c.7.2,1.2.6,1.2,1.4,0,.7-.5.9-1.1,1-1.5.3-3.1.6-4.7.7-.3-.6-.5-1-.5-1.6,1.7-1.1,3.3-2.1,5.1-1.5Z"/><path class="cls-7" d="m460.89,167.9c.3-.3.7-.5,1.1-.5-.2.8-.3,1.4-.6,1.8-1.1,1.1-.1,3.8-2,3.8-1.8,0-2.3-2.4-3.4-3.7-.2-.1-.1-.4.1-.6q2.9,1.8,4.8-.8Z"/><path class="cls-7" d="m396.79,128.3c.2-.1.3,0,.6.3.6,2.5,1.1,4.8,1.6,7.1.2,1,.5,2-.5,2.8-1.1-3.4-2.1-6.7-1.7-10.2Z"/><path class="cls-9" d="m104.09,250.9c-1-1.3-2.1-.8-3.2-.6-1,.3-1.8,1-3,.7,1.2-2.4,2.5-4.7,5.6-4.4,0,1.7.1,2.8,1.9,2.8-.1.9-.3,1.6-1.3,1.5Z"/><path class="cls-8" d="m328.49,200.1c-2.1-1.8-3.5-4.2-5.9-5.5-.5-.2-.5-.9-.1-1.4,3.1,1.6,5.3,3.7,6,6.9Z"/><path class="cls-3" d="m65.19,304c1,.1,1.8.4,2,1.5-3-.2-5.7-.8-7-3.6.7-.1,1.1-.1,1.5-.1,0,0,.1,0,.3.2.9,1.4,2,1.9,3.2,2Z"/><path class="cls-9" d="m67.39,280.9c2.6-2.6,5.8-3.7,8.9-4.7-2.7,2.3-5.7,3.8-8.9,4.7Z"/><path class="cls-7" d="m141.19,127c-1.6.2-1,2.7-2.8,2,1-3.1,3.5-4.2,6-5.2-.6,1.7-1.5,3.2-3.2,3.2Z"/><path class="cls-8" d="m306.69,64.1c-1-.1-2.1.1-2.3-1.1,2.2-.1,4.1-.1,6-.1.9,0,1.8,0,1.9,1.1-2.1-.4-3.8.3-5.6.1Z"/><path class="cls-8" d="m380.09,229.6c0,.3,0,.5-.1.8-.5.6-1,1-1.1,1.5-.4,1.9-1.7,2.4-3.4,2.2,1.6-1.7,2.2-4,4.6-4.5Z"/><path class="cls-9" d="m258.29,63c-2,0-3.6,0-5.1-.3.5-1.6.9-3.2,2.8-1.5.7.7,2,.1,2.7,1.3,0,.2-.1.3-.4.5Z"/><path class="cls-8" d="m366.39,246.1c0,3-1.9,4.2-3.9,5.1,1.4-1.9,1.8-4.3,3.9-5.1Z"/><path class="cls-8" d="m306.79,162.4c-1.1-2.4-2.1-4.8-1.6-7.3,1.3,2.4,2.1,4.8,1.6,7.3Z"/><path class="cls-8" d="m267.59,61.6c1.8.6,3.5.6,5.3.8.1.2,0,.3-.3.6-2.4.6-4.6-.5-6.9,0-.1,0-.3-.5-.3-.8.4,0,.5,0,.8-.2.5-.3.8-.4,1.4-.4Z"/><path class="cls-3" d="m439.39,112.4c-2.6,1.5-3.5.9-3.8-2.4,1.5.7,2.8,1.1,3.8,2.4Z"/><path class="cls-8" d="m359.59,71.9c2.5,1.1,5,2,6.6,3.8-2.8-.6-5.3-1.5-6.6-3.8Z"/><path class="cls-7" d="m463.69,192.6c0,.1-.4.4-.8.5q-1.3-3.1,1.2-5.1c-.2,1.6-1.2,2.9-.4,4.6Z"/><path class="cls-8" d="m296.49,147.7c.4-1.5.2-3,.1-4.5,0-.2.5-.4.8-.3.5,2.3,1,4.2.4,6.1-.7-.4-1.4-.8-1.3-1.3Z"/><path class="cls-7" d="m483.29,219.3c.3-.9.9-1.4,1.9-1q-.1,3.4-2.8,3.3c.4-.9.7-1.5.9-2.3Z"/><path class="cls-8" d="m360.89,254.8c-1.3,2.1-1.2,4.7-3.3,5.8.8-2.3.4-5.1,3.3-5.8Z"/><path class="cls-8" d="m298.79,155.7c1,1.7,1.9,3.4,1.5,5.3-1.6-1.6-2.4-3.3-1.5-5.3Z"/><path class="cls-8" d="m318.99,188.5c-2.1-1.1-3.6-2.6-3.3-4.9,1.3,1.7,3.2,2.8,3.3,4.9Z"/><path class="cls-7" d="m463.49,179.2c.4.5.5,1.2-.4,1.6-.5-1.1-.9-2-1.1-2.9-.2-1.4,0-2.7,1.7-3-.5,1.6-1.2,2.8-.2,4.3Z"/><path class="cls-8" d="m354.89,265.2c-.5,2.1-1.3,3.7-3.2,4.4-.3-2.6,2-3.2,3.2-4.4Z"/><path class="cls-8" d="m276.09,62.8c0-.7.3-1,1.1-1.1,1.3,0,2.4-.4,3.1.8-1.3,1.5-2.6,1-4.2.3Z"/><path class="cls-7" d="m462.09,212.7c0-1.1-.2-2,1-2.4,1.2,1.4.9,2.8.4,4.2-.4,0-.6,0-1-.2-.4-.5-.5-.8-.4-1.6Z"/><path class="cls-9" d="m83.19,270.2c.4-2.6,2.3-2.8,4-3-.9,2-2.9,2-4,3Z"/><path class="cls-8" d="m310.29,186.4c.9,1.6,2.7,2.3,2.6,4.1-1.6-1.1-3.6-1.8-2.6-4.1Z"/><path class="cls-8" d="m389.59,221.5c-.8,2.1-2.3,2.8-4,2.9,1.3-1.2,2.2-2.8,4-2.9Z"/><path class="cls-8" d="m297.19,139.4c-.3-.9,0-1.3.9-1.2.2.6.4,1.1.6,1.4,1.1,1.5.3,1.9-1.1,1.7-.1-.8-.2-1.4-.4-1.9Z"/><path class="cls-9" d="m78.99,274.1c.7-1.9,1.7-2.9,3.5-2.7-1.3,1-2,2.5-3.5,2.7Z"/><path class="cls-9" d="m100.19,255.6c0-1.7.3-3.1,2.2-2.6-.6,1.3-.9,2.6-2.2,2.6Z"/><path class="cls-7" d="m488.59,209.9c0,1.6.4,3.1-1.3,3.6.4-1.5-.6-3.2,1.3-3.6Z"/><path class="cls-9" d="m272.89,62.8c-.1-.2-.1-.5.1-.7,1.4-.8,2.7-.5,3.9-.2-.2.5-.4.8-.9,1.1-1.2,0-2.2,0-3.1-.2Z"/><path class="cls-3" d="m59.09,301.8c-2.2,0-2.5-1.4-2.3-2.8,1.1.8,2,1.6,2.3,2.8Z"/><path class="cls-7" d="m463.69,185.5c-.6-1.2-.5-2.2-.1-3.2,1.3,1.2,1.2,2.3.1,3.2Z"/><path class="cls-9" d="m238.59,64.4c-1.2.5-2,.3-2.9-.1-.1,0-.3-.2-.3-.4,1.8-1.5,2.4-1.4,3.4.3,0,0,0,.1-.2.2Z"/><path class="cls-8" d="m170.49,245.5c-.5,1.1-.7,2.3-2.1,2.1.1-1.6.7-2.3,2.1-2.1Z"/><path class="cls-9" d="m55.09,289.8c.2-1.5.5-2.7,1.9-2.9-.5,1.3-.6,2.6-1.9,2.9Z"/><path class="cls-9" d="m89.19,265.8c.4-1.4.5-2.9,2.2-2.6-.9,1-.7,2.6-2.2,2.6Z"/><path class="cls-7" d="m471.89,224.7c-1.2-.4-2.2-.6-2.3-1.8,1.3.2,2.4.4,2.3,1.8Z"/><path class="cls-8" d="m242.89,210.2c-.8,1-1.7,1.5-2.8,1.2.8-1,1.7-1.7,2.8-1.2Z"/><path class="cls-8" d="m214.79,217.7c-1,1-1.8,1-2.5,0,1-.5,1.8-.4,2.5,0Z"/><path class="cls-7" d="m463.09,197.1c-.4-.9-.6-1.7.2-2.3.7,1,.7,1.8-.2,2.3Z"/><path class="cls-9" d="m262.49,63.1c-1,0-1.8,0-2.6-.2-.1-.3,0-.4.2-.7,1-.8,1.9-.8,2.7.3,0,.2-.1.3-.3.6Z"/><path class="cls-7" d="m462.89,201.2c-.3-1-.4-1.7.4-2.3.6,1,.9,1.9-.4,2.3Z"/><path class="cls-9" d="m283.79,62.9c-.1-.3,0-.4.2-.7,1-.8,1.9-.8,2.6.3,0,.1,0,.5-.3.5-1,0-1.8,0-2.5-.1Z"/><path class="cls-8" d="m321.99,64.4c1.2-.1,2.1-.4,2.6.7-1.2.5-2.2.5-2.6-.7Z"/><path class="cls-8" d="m236.19,64.3c1.1,0,1.9,0,2.6.2-1.2,1.3-2.2,1.2-2.6-.2Z"/><path class="cls-8" d="m225.79,65.6c1-1,2-.6,2.8-.2-1,1.1-2,.7-2.8.2Z"/><path class="cls-8" d="m346.79,68.1c1.2-.5,2.2-.8,2.3.8-1,0-1.9.2-2.3-.8Z"/><path class="cls-9" d="m93.99,261.1c.4-1.1,1-1.6,1.9-1.5-.3,1.2-.9,1.8-1.9,1.5Z"/><path class="cls-9" d="m107.69,247.2c.1-1.4.8-1.9,1.8-1.9-.2,1.2-.7,1.8-1.8,1.9Z"/><path class="cls-7" d="m121.79,139.3c-.5.1-.8.1-1.2-.1-.3-.8-.5-1.4-.4-1.9,1.2.2,1.7.9,1.6,2Z"/><path class="cls-8" d="m384.19,225.7c-.3,1.1-1,1.6-1.9,1.5.2-1.3.8-1.7,1.9-1.5Z"/><path class="cls-8" d="m133.59,133c.3-1.4,1.2-1.2,2-1-.4,1.1-1.1,1.2-2,1Z"/><path class="cls-1" d="m134.19,141.2c-1.2.1-1.9-.1-1.7-1.2,1.1,0,1.7.3,1.7,1.2Z"/><path class="cls-8" d="m328.19,65.1c1.1-.2,1.9-.1,1.9,1-1.2.2-1.8-.2-1.9-1Z"/><path class="cls-8" d="m232.19,64.3c1,0,1.8,0,2.5.3-1.1,1.3-1.9.2-2.5-.3Z"/><path class="cls-8" d="m281.89,62.3c.8-.1,1.4,0,1.9.2,0,.2.1.5-.1.6-1.1.4-1.8.2-1.8-.8Z"/><path class="cls-7" d="m55.19,292.6c.2.5.1.8-.1,1h-.2c-1.3-.5-1.4-1.1-.5-1.9.4.3.5.5.8.9Z"/><path class="cls-7" d="m406.59,145.6c-1.2.8-1.8.5-1.8-.7.9-.1,1.5-.1,1.8.7Z"/><path class="cls-7" d="m489.89,206.3c.1,1,.1,1.7-.9,1.9-.3-1.1,0-1.8.9-1.9Z"/><path class="cls-8" d="m491.29,202.3c.2,1,.1,1.7-.9,1.8-.3-1.1-.1-1.8.9-1.8Z"/><path class="cls-8" d="m264.69,203.3c-.6,1-1.4.9-2.1.5.7-1,1.4-.9,2.1-.5Z"/><path class="cls-8" d="m320.29,190.6c-1-.4-1-1.2-.9-1.9,1,.4,1.2,1.1.9,1.9Z"/><path class="cls-8" d="m196.39,230.4c-.2,1.1-1,1.1-1.7,1,.4-.9,1-1.2,1.7-1Z"/><path class="cls-8" d="m259.89,204.6c-.7.7-1.3,1.1-2,.7.5-1.1,1.3-1.1,2-.7Z"/><path class="cls-8" d="m258.59,62.8c0-.2,0-.5.2-.5.5,0,.8,0,1.1.2,0,.2,0,.5-.1.6-.6.4-.9.2-1.2-.3Z"/><path class="cls-8" d="m351.49,270.3c-.4.7-.8.9-1.4.6.3-.9.8-1.1,1.4-.6Z"/><path class="cls-8" d="m356.89,261.7c-.1.8-.5,1.1-1.1,1.1-.1-.9.4-1.2,1.1-1.1Z"/><path class="cls-9" d="m98.19,257.2c.2-1,.8-1.1,1.4-.8-.4.7-.9.9-1.4.8Z"/><path class="cls-8" d="m250.49,208.2c-.5.6-1,.7-1.5.4.4-.7.9-.9,1.5-.4Z"/><path class="cls-8" d="m307.89,183c.8.1,1.1.6,1,1.2-.8-.1-1.2-.5-1-1.2Z"/><path class="cls-7" d="m55.79,298.4c-1-.2-1.5-.4-.7-1.2.4.4.6.8.7,1.2Z"/><path class="cls-4" d="m56.39,292.6c-.2.8-.7,1-1.3.8,0-.4,0-.7.2-1,.6,0,.9,0,1.1.2Z"/><path class="cls-8" d="m253.59,207.1c-.5.4-.9.4-1.3.1.5-.7.9-.9,1.3-.1Z"/><path class="cls-9" d="m76.99,275.4c.3-.7.9-.9,1.4-.6-.4.6-.9.9-1.4.6Z"/><path class="cls-8" d="m372.59,237.4c-.3.6-.6.9-1.2.8.1-1,.6-1.1,1.2-.8Z"/><path class="cls-8" d="m203.89,219.4c-.1.8-.5,1.1-1.1,1.1,0-1,.4-1.3,1.1-1.1Z"/><path class="cls-8" d="m194.29,232.4c-.3,1.1-.9,1.1-1.5.7.5-.6,1-.9,1.5-.7Z"/><path class="cls-7" d="m399.39,121.6c-.9-.4-.9-1-.6-1.5.7.5,1,.9.6,1.5Z"/><path class="cls-8" d="m298.29,150.3c.5.6.4,1-.2,1.2-.5-.5-.4-.9.2-1.2Z"/><path class="cls-8" d="m314.09,181c-.8-.4-1-.8-.7-1.4.8.3,1.1.8.7,1.4Z"/><path class="cls-8" d="m369.69,241.1c0,1-.4,1.3-1.1,1.2.1-.9.5-1.2,1.1-1.2Z"/><path class="cls-8" d="m455.89,125.6c.1-.6.1-1,.7-1,.1,0,.2.1.2.2.3.7-.4.8-.8,1.1l-.1-.3Z"/><path class="cls-8" d="m197.79,228.9c-.2,1-.7,1.2-1.3,1,.2-.8.7-1.1,1.3-1Z"/><path class="cls-9" d="m396.19,127c.8.3.9.9.8,1.4-.1,0-.4,0-.6-.1-.4-.5-.5-.9-.2-1.3Z"/><path class="cls-8" d="m199.79,226.9c-.2.9-.7,1.1-1.3.9.3-.7.7-1,1.3-.9Z"/><path class="cls-8" d="m413.59,147.4c-.1.1-.2.2-.4.3-.5.1-.8,0-1.1-.3-.1-.2-.1-.4,0-.7,1-.4,1.3.1,1.5.7Z"/><path class="cls-8" d="m202.59,222.1c-.2.9-.6,1.2-1.2,1.1.1-.9.5-1.2,1.2-1.1Z"/><path class="cls-8" d="m264.09,62.5c-.4.8-.8,1-1.4.3,0-.1,0-.5.2-.5.6-.1.9,0,1.2.2Z"/><path class="cls-8" d="m475.89,142c.8.2,1.1.7.9,1.3-.8-.2-1.1-.6-.9-1.3Z"/><path class="cls-7" d="m455.59,168.7c-.8-.2-1.1-.6-1-1.2.9.2,1.2.6,1,1.2Z"/><path class="cls-8" d="m319.39,64.2c.7-.6,1-.3,1.2.3-.6.3-1,.1-1.2-.3Z"/><path class="cls-8" d="m167.59,248.1c-.8.4-1.1,0-1.1-.7.7-.2,1,0,1.1.7Z"/><path class="cls-9" d="m191.69,72.8c.4-.9,1-1,1.5-.6-.5.6-.9,1-1.5.6Z"/><path class="cls-8" d="m175.99,242.3c-.4.7-.9.8-1.4.6.3-.9.8-1,1.4-.6Z"/><path class="cls-8" d="m356.89,71.1c.8.1,1.1.3,1.2.9-.9.3-1.2-.2-1.2-.9Z"/><path class="cls-8" d="m205.79,216.5c.2.9-.2,1.3-.9,1.3-.1-.9.3-1.3.9-1.3Z"/><path class="cls-2" d="m122.69,50.5c0-.4,0-.7-.1-1.2-.1-2.6,0-4.8,2.1-6.4l.1-.2c.6-.8,1.1-1.4,1.9-2,.1,0,.4-.2.6-.3,2.2-.9,3.3-2.4,4.1-4.4,1.4-3.3,3.6-6,6.2-8.7.6-.6,1-1,1.5-1.6,2.8-2.8,5.6-5.5,9.7-6.4.9-.5,1.6,0,2.6-.2,1.5-.1,2.5.4,2.7,1.7.4,2.4,1.6,4.7,1.3,7.4.1,1.4.2,2.5.4,4,.2,1.4.2,2.6.3,3.7.8,7.6,1.4,15.3-1.6,22.9-1.3,3.2-3,5.9-4.9,8.7-.7.8-1.3,1.4-2.1,2.1-.8.8-1.4,1.6-1,2.3.7,1.5.1,2.9,0,4.3-.1,1,0,2,.1,3,.3,3.6,1.1,7.1,2,10.6.8,2.8.9,5.8,2.9,8.2,1.8,2.2,1.3,3.4-1.5,4.1-1.7.4-3.3,1.1-5,1.1-.8,0-1.4.8-1.3,1.7.2,1,.9,1.3,1.8,1.1,1-.2,1.9-.7,2.9-.9.8-.2,1.5-1.2,2.5-.5.1,1.8-1.7,2.6-2.2,4-1.6,4.3-4.4,7.7-7.9,10.7-1.7,1.6-3.2,2.7-5.6,1.9-.8-.2-1.8.1-3,.2-1.6.3-2.9.3-3.9-.9.6-4.1.6-7.9.8-11.8.1-2.6.5-5.3,3-7.2,1.4-1.1,2-3,2.6-4.7,2.1-6.3,4.2-12.6,3.8-19.5-.4-5.7-2-10.8-5.4-15.5-2.4-3.4-5.4-6.3-7.9-9.7-.5-.6-1.1-.8-2-.7-.6.2-.8,0-.5-.9Z"/><path class="cls-2" d="m26.49,110.6c2.9,1.2,5.4,1.5,8,1.7,1.7.2,3.5-.4,5.2.9,1.2.1,1.8.5,1.8,1.5.1,1.2.1,2.3-.1,3.6-1.2.7-2.2.7-3.4.4-1.1-.4-1.8-1.1-2.9-1.3-.5-.1-.8-.2-1.3-.4-1.2-.8-2.5-.1-3.7-.8-2-.1-3.4-.8-4.4-2.3-.7-1-1.5-2-2.7-2.7,1.1-3.3,1.2-6.8,3.1-9.4,2-2.8,2.1-5.8,2.7-9,.4-.8.4-1.5.8-2.4,0-2.1.6-4-.5-6-.2-2.4-1.2-4.4-1.5-6.8,0-.5,0-.7-.2-1.3-.3-1.6-.4-2.8.3-4,0,0,0-.1.2-.2,3.4-4.8,8.2-8.3,10.8-14-1.9.2-2.4,1.5-3.3,2.2-3.3,2.7-4.1,7.6-8.4,9.6-1.2-.5-1.2-1.5-1.5-2.5,1-1.4,1.8-2.6.2-4.2-2.5-1.2-3.3-3.4-4.8-5.5-1.3-1.5-1.5-3.1-1.7-4.6-1.2-7.2-3.1-14.3-3-21.9v-2c0-.7,0-1.3,0-2.1.1-1.7.9-1.8,2.1-1.6,3.1.4,5.7,1.9,8.7,2.9.7.2,1.1.5,1.7,1,.4.1.7.2,1.1.3.6.2,1,.6,1.7.9.4.2.6.2,1.1.4,1.5.5,2.8,1,3.5,2.5.1.1.4.2.6.3,1.2.6,2.6-.1,3.5,1.3.9.4,1.7.6,2.6.8.6.3,1,.6,1.4,1.3,1,2.7,3.2,3.7,5.5,4.8,1.2.5,2.2.8,2.7,2.1.4.4.6.7,1,1.2.4.9.3,1.4-.2,2.1-.1.5-.1.8-.1,1.3,0,.6-.2,1-.8,1.2-3.9,2.3-6.3,5.8-9.4,8.6-1,.9-1.7,2.1-2.5,3.2-2.3,3.2-2.6,7.2-4.5,10.5-.6.9-.5,2-.5,3v5.1c.1,7,2.4,13.4,5.9,19.2,1.2,2,1.6,3.8,1.6,6,0,1.1-.6,2.2-.6,3.3,0,2.1-1,2.8-3.1,2.8-4.4,1.8-8.1-1.4-12.7-1Z"/><path class="cls-8" d="m18.69,57.6c-2-3.2-3.1-6.5-3.9-9.9-1.1-4.5-1.1-9.1-1.7-13.6,2.4.4,2.1-1.8,3.3-2.5,1,1.4,1,2.7,1.1,4.1.2,2,.1,4,.5,6,1.2,5.4,2.1,10.9,2.9,16.3-.7,0-1.3-.1-2.2-.4Z"/><path class="cls-1" d="m56.89,39.2c-.8,1.4-1.4,2.8-3.3,1.8-1.1-1.6-2.4-2.8-3.7-3.8-2.1-1.7-4.2-3.3-6.5-5.1-.8-.5-1.4-.8-2-1.2v-.3c.3-.7.6-.8,1.2-.7,1.1.4,2,.8,3.1,1.2,1.9,1.1,3.8,1.3,5.7,1.6,0,0,.1,0,.2.2,1,2.7,2.7,4.3,5.4,4.9-.1.6-.1.9-.1,1.4Z"/><path class="cls-8" d="m114.79,43.2c2.1-.3,3.3.5,4.2,2.5.7,1.6,1.1,3.2,1,4.9-.2,2.1.4,4,1.3,5.9.2.5.6.9,1.3.8.7-.2.9-.7.9-1.3,0-.4,0-.9.2-1.3,1.2.5,1.1,1.3,1,2.1-.2,1.1-.3,2.4-1.8,2.5-1.5.2-2.3-.7-2.8-2-.1-.2,0-.5-.1-.7-.9-2.4-1.6-4.9-1.3-7.6.1-1.5-.7-2.8-1.6-4-.7-1-1.9-.5-2.9-.6-.9,0-1.6-.2-1.5-1.2.9-.1,1.4,0,2.1,0Z"/><path class="cls-8" d="m129.59,37.5c1.4-3.1,3-6.2,5.5-8.7.6-.6.4-1.1-.3-1.6-.4-.3-.8-.7-1.1-1.3,1.2-1,1.2-2.7,2.6-3.1-.1,1.9,0,3.5.7,5.1-.3.6-.4,1-.7,1.4-2,2.9-4.4,5.6-5.6,9.1-.5,1.5-1.8,3-3.9,2.2.5-1.6,2.2-1.7,2.8-3.1Z"/><path class="cls-8" d="m54.09,56.3c-.3.7.9,1.1,1.7,1.4-1.4,1.7-2.1.7-2.7-.5-1-2.3-.5-4.9-.7-7.5.2-.5.4-.8.8-1,0,2.7,2,5,.9,7.6Z"/><path class="cls-8" d="m48.79,29.9c1.3.7,2.2,1.6,2.4,3-2.5.6-4.4.1-5.5-1.9,1.3.2,2.6.9,3.1-1.1Z"/><path class="cls-8" d="m57.59,41.1q-2.5,2.6-3.7,0c1.7-.1,1.7-1.9,3.2-2,.8.6.7,1.3.5,2Z"/><path class="cls-8" d="m122.49,44c.2-.7,1-.8,1.7-.4-1.6,2-1.2,4.3-2.2,6.2-1.2-2.2.1-4,.5-5.8Z"/><path class="cls-8" d="m35.89,33c.1.2,0,.4-.2.6-1.3-.9-2.8-1.1-3.1-2.6,3-.9,3.1-.8,3.3,2Z"/><path class="cls-8" d="m35.79,27.2c-1.1-.5-1.4-1.5-.3-2.5.9.2,1.5.4,2,.8-.3,1.1-.4,2.2-1.7,1.7Z"/><path class="cls-8" d="m57.39,50c.3,1.8,1.2,3.5-.7,4.5,0-1.7-.6-3.3.7-4.5Z"/><path class="cls-8" d="m95.79,38.7c-.9-1-2.8.1-2.9-1.7,1.5-.1,2.7-.2,3.9.3-.3.7-.9,1.5-1,1.4Z"/><path class="cls-8" d="m39.09,29.3c.3-1,1.5-.6,2.3-.4.4,0,.6.5.7,1-.4.4-.6.7-1,.9-1.1-.1-2.3-.3-2-1.5Z"/><path class="cls-8" d="m39.69,35c-1.3-.2-2.7.2-3-1.3,1.5,0,3.1-.8,3,1.3Z"/><path class="cls-8" d="m51.99,43.9c-1.1-.5-2.2-.8-2.3-2,1.7-.2,2.7.4,2.3,2Z"/><path class="cls-8" d="m126.09,41.3c0,1.5-.8,1.9-1.9,1.7-.1-1.8.8-2,1.9-1.7Z"/><path class="cls-8" d="m101.49,41.6c-1.1.1-2,.3-2.5-.6,1.2-.7,2.1-.8,2.5.6Z"/><path class="cls-8" d="m123.09,54c-1.3-.9-1-1.9-.6-2.9.4.1.7.2.9.5-.1,1-.1,1.8-.3,2.4Z"/><path class="cls-8" d="m64.69,41.3c-.7,1.4-1.8.9-2.7.8.7-1.4,1.8-1,2.7-.8Z"/><path class="cls-8" d="m52.99,46.9c0-.8.1-1.3.3-1.8,1.5,1.1,1.2,1.7-.3,1.8Z"/><path class="cls-8" d="m106.19,43c-1.1.1-1.7-.1-1.8-1.1,1.1-.2,1.8.1,1.8,1.1Z"/><path class="cls-8" d="m16.49,27.5c.4.8.5,1.4-.4,1.8-.6-.8-.6-1.4.4-1.8Z"/><path class="cls-8" d="m61.89,42.5c-.6.9-1.2,1.2-2,.9.4-1.1,1.3-1,2-.9Z"/><path class="cls-8" d="m41.69,30.9c1,.1,1.5.5,1.6,1.3-1.1-.1-1.7-.4-1.6-1.3Z"/><path class="cls-8" d="m12.59,24.6c-.3-1.1,0-1.7.9-1.8-.1.9-.2,1.5-.9,1.8Z"/><path class="cls-8" d="m28.29,29.4c-.7-.1-1.1-.4-1.2-1,1-.2,1.3.3,1.2,1Z"/><path class="cls-8" d="m31.09,30.6c-.8.1-1.2-.3-1.3-.9,1-.2,1.3.2,1.3.9Z"/><path class="cls-8" d="m43.99,37c-.8-.2-1.2-.5-1.2-1.1,1.1-.2,1.3.3,1.2,1.1Z"/><path class="cls-8" d="m83.59,39.9c-.5.4-.9.3-1.1-.3.7-.6,1-.3,1.1.3Z"/><path class="cls-8" d="m71.59,40c-.5.8-1,1-1.5.6.4-.7.9-.9,1.5-.6Z"/><path class="cls-8" d="m119.39,41.2c.6-.1.9-.1,1.2,0-.5,1.3-1,1-1.2,0Z"/><path class="cls-8" d="m57.89,41c-.1.4,0,0,0,0,0,0-.1,0,0,0Z"/><path class="cls-8" d="m156.39,36.1c.1,2.1,1.3,2.6,3.3,2.4.3,2.6-.6,5,.3,7.4.2.4-.2,1.1-.5,1.5-.4.6-.5,1.2-.4,1.9.3,1.9-.2,3.7-1.4,5.2-.3-.4-.7-.9-.8-.6-.5,1.2-1.8,2-1.6,3.5.1.8-.4,1.3-1.2,1.1.1-1,.2-1.6.3-2.3.4-5,1.6-10,.6-15.1-.5-2.9-.5-6,.5-8.8.5,1.4.9,2.5.9,3.8Z"/><path class="cls-7" d="m131.79,124.2c-1.9,1.2-3.5.9-5.3-.4-2.6-.4-5-.2-7.2-.7-2.2-.5-4.5-1.3-6.8-1.7-1-.1-2-.9-3-1.4-.5-.2-.5-.8-.3-1.2.3-.4.7-.6,1.2-.4.6.3,1.3.5,1.8.9,1,.8,1.9,1.1,3,.1.3-.3.9-.4,1.3-.3,3.8,1.2,7.8.8,11.9,1.9,1.5,0,2.8-.3,3.9.9-.1.9-.2,1.5-.5,2.3Z"/><path class="cls-2" d="m135.19,124.3c.6.3.9.5.9,1.2-1.1,1.5-3.2,1.2-4,3.1-.5.8-.7,1.5-1.5,1.9-1.9.8-3.5,1.7-4.7,3-.7.8-1.6,1.2-2.6.9.7-3.9,2.8-6.9,3.8-10.5,1.8.4,3.4.5,5.2.1,1.1.1,1.9.2,2.9.3Z"/><path class="cls-7" d="m117.39,135.7c-2.1-.1-.1-1.8-1.2-2.3-1.1-.4-2,.6-3,.3-.1,0-.2,0-.3-.1-2.2-1.9-5.4-2.3-7.2-4.8-.8-1.1-1.9-1.9-3.1-2.6-1.3-.8-2-2-2-3.5,1.3-.5,1.8.4,2.5.9,1.5,1.2,2.9,2.6,4.6,3.4,3.9,1.8,7.2,4.9,11.4,6.2.2,0,.2.3.1.6-1.2.3-1.9.7-1.8,1.9Z"/><path class="cls-8" d="m147.29,69.5c.4-1.2,1-1.8,2-1.7-.2,1.4-.9,1.8-2,1.7Z"/><path class="cls-7" d="m130.89,130.2c.3-.9.6-1.5,1.4-1.5-.1,1.1-.4,1.8-1.4,1.5Z"/><path class="cls-8" d="m149.09,78.1c.1.5.2.9,0,1.2-1.3-.6-1-1.1,0-1.2Z"/><path class="cls-7" d="m135.89,125.2c-.4-.4-.7-.7-.8-1.1,1.5-.4,1.1.5.8,1.1Z"/><path class="cls-4" d="m76.29,307.4c1.5,0,3-.7,4.5-.3.1,0,.1.8,0,1.4-1.8,1.9-3.9,1.6-5.9,1.2,0-1.3.4-2.2,1.4-2.3Z"/><path class="cls-4" d="m84.69,305.4c1.4-.2,1.1,1.1,1,2-.8.4-1.3.7-1.9.7-.7-1.5-.7-2.6.9-2.7Z"/><path class="cls-7" d="m107.69,292.5c-.5,1.6-1.7,1.6-2.7,1.7.3-1.9,1.5-2,2.7-1.7Z"/><path class="cls-7" d="m132.99,273.7c-.3-2.3,1.4-.7,1.9-1.1-.4.4-.6.7-1,1-.4.2-.6.2-.9.1Z"/><path class="cls-8" d="m200.79,227.4c.7,0,1.3,0,1.7.2-.4.5-.8.9-1.4,1.1-.3-.5-.4-.9-.3-1.3Z"/><path class="cls-8" d="m337.59,241.4c.1,1.8-.9,1.8-1.9,1.5,0-.8,0-1.5.8-2,.6-.2.9,0,1.1.5Z"/><path class="cls-9" d="m337.39,239.9c.2.5.2.9,0,1.2-.5-.1-.8-.1-1-.3.2-.6.4-.9,1-.9Z"/><path class="cls-1" d="m345.69,217.8c-.9-.1-1.1-.6-1-1.2.8.2,1.2.6,1,1.2Z"/><path class="cls-1" d="m346.79,218.3c-.1.2-.5.3-.8.2,0-.4,0-.5.2-.7.5,0,.8.1.6.5Z"/><path class="cls-2" d="m59.29,239.5c.5-.9.3-1.7.1-2.8-.3-1.5-.3-2.8.3-4.2.1-1.4.1-2.6.1-4,.5-3.9,1.6-7.5,1.5-11.3-.1-2.9-.7-5.9.5-8.7.3-.7,0-1.5-.3-2.3-.3-.7-.6-1.4.3-2.5.2.4.3.7.5,1,2.3,3.3,4.7,6.5,7.5,9.2,2.4,2.3,4.5,4.9,7.1,7.1,2.8,2.3,5.9,3.6,9.2,5.3.4.9.4,1.6.2,2.5-.3.7-.5,1.1-1,1.7-1,.8-1.4,1.7-1.5,3-.1.7-.2,1.1-.5,1.7-.5.6-.7,1.1-.8,1.9s-.2,1.4-.4,2.2c-.3,1.5-.6,2.8.7,4,.2.2.3.4.5.7.1.4.1.5.1.9-.1,1.7,1.5,2,2,3.4.4,2.8.5,5.4-.1,8.1-.2.4-.3.6-.5,1.1-.5,2.5-2.1,4.2-3,6.4-1.1,1.1-2.2,1.9-3,3.3-.5.4-.8.9-1.5,1.1-.1,0-.3.2-.5.3-1.3,1-2,2.3-3.6,2.9-1.7.4-2.7,2-4.5,1.7.1-1.6-.2-2.7-1.1-3.9-2.2-2.6-3.5-5.6-4.4-9-.7-2.5-1.9-4.8-2.5-7.3-.1-.4-.5-.7-.8-1.3-.1-1.7-.1-3.1-.3-4.7-2.2-2.5-1.5-4.9-.3-7.5Z"/><path class="cls-4" d="m59.69,213.5c-.2,3.4.7,6.9-.5,10.3-.6,1.7-.5,1.8-2.9.7.1-.8.1-1.4-.3-2.2.1-3.5,1.2-6.6,1.4-9.9,1.2,0,2.4-.2,2.3,1.1Z"/><path class="cls-4" d="m59.39,200.9c.9.7,1.5,1.2.6,2.2-.4.5-.8,1-1.4,1.5-1.9-1.7-1.9-2.5.1-4,.3,0,.4.1.7.3Z"/><path class="cls-4" d="m60.79,198.6c-.2-.5-.3-1.2.2-1.5.8-.4,1.2.2,1.6.8.2.4.5.7.7,1.1.9,1.5.7,1.8-1.7,2-.4-.9-.6-1.7-.8-2.4Z"/><path class="cls-4" d="m57.39,195.7c-.4-1.1-.7-2-1-3.2.1-.6.1-1,.4-1.3,2.3,1.9,2.3,3,.6,4.5Z"/><path class="cls-5" d="m87.19,228.3c0,1,0,1.7-.1,2.7-.5.7-1,.9-1.8.6-.6-.7-.6-1.2-.3-1.9.3-.5.5-.8.9-1.2.5-.4.8-.7,1.3-.2Z"/><path class="cls-8" d="m88.19,231.3c-.4.7-.8,1.2-1.3,1.8-.5.1-.8.1-1.2-.3-.1-.6,0-.9.4-1.2.5-.4.8-.6,1.4-.8.4.1.6.2.7.5Z"/><path class="cls-4" d="m60.29,207.1c-.7.8-.9-.4-1.4-.7-.1,0-.2-.1-.2-.3.1-.3.2-.4.5-.5,1.2.1,1.7.7,1.1,1.5Z"/><path class="cls-8" d="m86.19,226.1c1.2.4.9,1.3.8,2.1-.6.2-1,.3-1.3.2.1-1,.2-1.7.5-2.3Z"/><path class="cls-4" d="m58.89,209.7c-.1.9-1,.6-1.6.4,0-.5,0-.8.2-1.1.7.1,1.5-.1,1.4.7Z"/><path class="cls-7" d="m55.89,224.4c.1-.8.2-1.3.4-1.8,1.2.8.4,1.4,0,2.1-.2,0-.4,0-.4-.3Z"/><path class="cls-7" d="m58.59,200.2c.4.2.5.4.4.6-.3,0-.4,0-.5-.2,0-.2,0-.5.1-.4Z"/><path class="cls-9" d="m87.89,259.3c-.9-.5-.7-1.3-.5-2.1.7-3.1,1.6-6.2,1.5-9.4,1.9,1.7.6,3.8,1.2,5.6.5,1.5.3,2.7-1,3.9-1.1,1.1.6.6.8,1.2-.5,1.1-1.3,1.1-2,.8Z"/><path class="cls-9" d="m86.59,245.2c.1.1-.1.2-.1.5v8.3c0,.9.2,1.8-1,1.9-.6-3.1.5-6.1-1.3-8.9-.3-.8-.1-1.3.4-1.8.2-.1.4-.2.7-.3.6-.2,1-.1,1.3.3Z"/><path class="cls-9" d="m85.99,260.3c-2.2.5-2.3,2.8-4,3.1.9-2.2,1.4-4.4,3.1-5.9.6,1.1,2.2,2.6.9,2.8Z"/><path class="cls-7" d="m74.89,271.8c-.6.8-1.1.4-1.3-.5,1-1.3,1.8-2.7,3.4-2.6-.8,1.2-1.4,2.2-2.1,3.1Z"/><path class="cls-9" d="m90.49,257.9c.7-1.3,1.5-2.2,2.8-2.3q-.3,2.5-2.8,2.3Z"/><path class="cls-7" d="m77.59,268c.4-.7.8-1,1.4-.8-.3,1-.8,1.1-1.4.8Z"/><path class="cls-3" d="m54.79,301.5c.1-.1.4-.1.5,0,.3.2.3.5-.2.7-.4-.2-.5-.4-.3-.7Z"/><path class="cls-3" d="m67.99,127.9c-.2.4-.3.6-.5.7-4.8,2.9-9.9,4.8-15.4,5.8-2.5.5-3.4,1.3-3.4,3.5-1.3-.7-1.7-1.7-1.7-2.9-.1-1.4-.6-2.1-2.1-1.5-.9.3-1.2-.1-1.2-1.1.5-.3.8-.2,1.4-.1,7.4-1,14.1-3.6,21.1-6.2,1.5-.2,2.5,0,1.8,1.8Z"/><path class="cls-2" d="m33.39,123.5c-1-1-.8-1.8.8-2.4,3.2-.4,6.3-1.7,8.7,1.4.6,3.5,1.3,6.7,1.7,9.9-.5.1-.8.1-1.3.1-3.9-2.5-6.9-5.7-9.9-9Z"/><path class="cls-9" d="m35.59,118.5c.6-.4,1.2-.5,2-.5,1.5.1,2.7.1,4.1.3.6.2.9.5,1.2.4,3.1-.7,6.1-1.2,8.9,1,.1.1.4-.1.8,0,.3.7.3,1.2-.4,1.7-3.2,1.3-6.3.5-9.6.7-3-1.1-5.9-.2-8.6-1.1.7-.8,1.5-1.3,1.6-2.5Z"/><path class="cls-9" d="m64.79,147.2c-1.5-.6-3.3-1.2-4.1-2.8,2.6.2,4.4,2,6.9,2.1.9,0,1.5,1,1.7,2-1.7-.1-3-.9-4.5-1.3Z"/><path class="cls-3" d="m49.19,138c2.1,1.2,3.7,2.8,6,3,.4,0,.4.7.2,1.1-3.1-.1-5.4-1.2-6.2-4.1Z"/><path class="cls-6" d="m18.09,112.8c1.8-.4,2.9.9,4.3,1.3.1.6.1.9-.2,1.3-1.7.5-3-1-4.5-.7,0-.9.1-1.4.4-1.9Z"/><path class="cls-8" d="m33.39,128.2c1.1-.7,1.8-.4,2.3.5.5,1.1-.4,1.5-1.1,2.2-.1.1-.4,0-.5-.2-.3-.9-.6-1.6-.7-2.5Z"/><path class="cls-1" d="m30.59,116.2c1.4,0,2.8-.6,3.2,1-1.2-.5-2.8.7-3.2-1Z"/><path class="cls-1" d="m35.49,117.4c1.1-.7,1.5.1,1.8.9-.6.6-1.2.5-1.8.2-.1-.5-.2-.7,0-1.1Z"/><path class="cls-8" d="m28.29,122.1c-.2-.7-.3-1.3-.2-1.9,1.2.6,1.2,1.3.2,1.9Z"/><path class="cls-3" d="m56.69,142.9c.8.1,1.2.5,1.2,1.1-1,0-1.3-.5-1.2-1.1Z"/><path class="cls-8" d="m449.49,169.3c-1-.7-1.8-1.4-2.4-2.2,2.4-.8,2.5.7,2.4,2.2Z"/><path class="cls-8" d="m412.39,150.8c.7-.4,1.2-.4,1.7,0,.1.1.3.3.3.4.1.4.5.7-.2,1.1-1.3.1-1.8-.5-2.1-1.4l.3-.1Z"/><path class="cls-8" d="m458.49,194.5c-.4-.8-.4-1.5.4-1.8.4.8.3,1.5-.4,1.8Z"/><path class="cls-8" d="m459.09,210.9c-.8-.6-1.3-1.2-.3-1.8.3.8.4,1.3.3,1.8Z"/><path class="cls-8" d="m431.19,158.2c-.6-.1-.9-.2-1.2-.5.9-.7,1.2-.1,1.2.5Z"/><path class="cls-9" d="m461.19,214c0-.4,0-.6.2-.9.4,0,.5,0,.8.1.2.5.3.8.2,1.2-.6,0-.9-.1-1.2-.4Z"/><path class="cls-8" d="m418.89,153.5c-.7,0-1.1-.2-1.2-.7.9-.5,1.2,0,1.2.7Z"/><path class="cls-9" d="m238.09,61.1c-1,0-1.9-.5-1.8-1.7,1-.3,1.8-.1,2.5.3-.1.8-.1,1.5-.7,1.4Z"/><path class="cls-9" d="m258.89,60c-1.1-.1-.9-1.1-.8-1.8.8,0,1.3,0,1.8.2-.1.9-.2,1.6-1,1.6Z"/><path class="cls-6" d="m293.29,60.1c-.2-.3-.2-.5-.2-.9.1-.7.2-1.1.5-1.4.7.3,1.1.7,1.4,1.2-.5.9-1,1.2-1.7,1.1Z"/><path class="cls-9" d="m267.29,61.8c-.5.2-.9.3-1.2.2.4-1.1.8-1.2,1.2-.2Z"/><path class="cls-9" d="m288.49,61.2c.6,0,.6.5.5,1-.5,0-.8,0-1.1-.2.2-.5.3-.9.6-.8Z"/><path class="cls-9" d="m229.29,61.2c-.7.1-.8-.4-.7-1,.4,0,.5,0,.8.1.3.4.3.8-.1.9Z"/><path class="cls-8" d="m278.49,58.9c.3,0,.4,0,.5.1-.4.5-.6.3-.5-.1Z"/><path class="cls-1" d="m332.89,63.1c.3-.1.6.1.5.5,0,.4-.3.5-.8.3-.1-.5,0-.7.3-.8Z"/><path class="cls-4" d="m394.49,168.1c1.2-1.1,1.1-2,.6-3.2-.5-1.1-1-2.3.8-3.2.9.2,1.1.7,1.1,1.7-.4,3.3-.9,6.3-1.7,9.3-1.8-1.1-2.3-3.3-.8-4.6Z"/><path class="cls-4" d="m393.39,181.9c-.7-.9-.6-2.2-.6-3.2,0-1.6,1.6-1.1,2.7-.8.1,1.7.1,3-.2,4.4-.8.1-1.5.2-1.9-.4Z"/><path class="cls-4" d="m393.99,188.9c-1.1-.3-1-1.3-.6-2.2.1-.2.2-.4.1-.6-1-2.4.5-2.6,2.4-2.2.5,1.1.2,2.1,0,3.2-1,.4-.5,2.2-1.9,1.8Z"/><path class="cls-5" d="m397.49,160.2c-.1,1.2.3,2.2-.7,2.9-.5-.5-.8-.9-1.1-1.5,0-1.5.7-1.9,1.8-1.4Z"/><path class="cls-5" d="m399.59,151.6c-1.5-.9-1.2-1.8-.2-2.7.5,0,.8,0,1.1.2-.3,1-.5,1.7-.9,2.5Z"/><path class="cls-5" d="m399.19,154.6c-.2.6-.4,1-.7,1.2-1-1.3,0-1.3.7-1.2Z"/><path class="cls-8" d="m351.49,275.7c-.2,1.3-1.1,1.6-2.1,1.4q.2-2.5,2.1-1.4Z"/><path class="cls-7" d="m363.69,255.9c.4,0,.5.2.6.5-.2.7-.4,1.1-1.1,1.1-1-.9-.6-1.2.5-1.6Z"/><path class="cls-1" d="m365.49,252.4c.1.2-.1.6-.4.7-.6.2-1-.1-.9-.9.6-.3,1.1-.2,1.3.2Z"/><path class="cls-2" d="m364.29,255.7c-.1.3-.1.4-.3.5-.3-.1-.5-.1-.5-.3.4-.3.6-.4.8-.2Z"/><path class="cls-7" d="m27.09,70c.8-1.8,2.9-2.4,3.4-4,1.1-3.4,4-5.4,6.1-8,.2-.3.5-.5.8-.7.7-.4,1.4-.4,1.9.2.5.5.4,1,0,1.5-1,1.3-1.6,2.9-2.8,4.2-2.4,2.6-4.6,5.3-6.9,8-.5.6-1,1.2-1.9.9.2-.9-.1-1.5-.6-2.1Z"/><path class="cls-7" d="m27.89,83.8c.5-2.2-.1-3.9-2-5.1.5-.8,1.1-.8,1.8-.6,1.6,2.1,1.1,4.5,1.3,6.6-.7-.2-1.2-.5-1.1-.9Z"/><path class="cls-7" d="m24.89,66.1c.7-.8.9-1.8,1.2-2.7q2.3,2.2-.8,4.2c-.8-.4-.8-1-.4-1.5Z"/><path class="cls-7" d="m27.69,72.7c-.1,1.5-.1,2.7-.4,3.8-1-1.6-1.7-3.1.4-3.8Z"/><path class="cls-7" d="m29.49,91c.2,1.1-.1,1.7-.9,1.9-.2-1.1-.1-1.8.9-1.9Z"/><path class="cls-1" d="m22.49,69.6c.1-.7.2-1.1.5-1.4.6.9.3,1.4-.5,1.4Z"/><path class="cls-1" d="m274.09,206.9c-.6,0-1-.1-1.3-.3.8-1,1.3-.7,1.3.3Z"/><path class="cls-8" d="m481.89,227.2c-2.1,1.4-3.8,3.2-6.3,2.3,2.3-.9,4-2.8,6.3-2.3Z"/><path class="cls-8" d="m487.89,221.7c.4-1.7-1.3-2.5-1-3.8,1.3.1,2.3.1,3.3.4-.6,1.5-1,2.9-2.3,3.4Z"/><path class="cls-8" d="m487.29,222.9c-1,1.9-2.1,3.4-4.1,3.6,1-1.9,2.1-3.4,4.1-3.6Z"/><path class="cls-8" d="m474.19,229.8c-1.7-.2-3.2-.2-3.8-1.7,1.6.4,3.1.4,3.8,1.7Z"/><path class="cls-8" d="m463.89,223.8c-1-.7-1.8-1.4-1.7-2.5,1.6.4,1.8,1.4,1.7,2.5Z"/><path class="cls-8" d="m469.99,228c-.5-.3-.8-.5-1-.9,1-.3,1.1.4,1,.9Z"/><path class="cls-8" d="m493.09,209.7c-.3-1.2-.1-1.9.9-2,0,1.1-.1,1.8-.9,2Z"/><path class="cls-8" d="m495.69,200.7c-.2-1.2.1-1.9,1.1-1.8-.2,1-.5,1.6-1.1,1.8Z"/><path class="cls-8" d="m497.49,196.6c-.7-1,0-1.2.6-1.2-.2.6-.4.9-.6,1.2Z"/><path class="cls-8" d="m491.99,213.7c-.6-.9,0-1.2.6-1.2,0,.6-.1,1-.6,1.2Z"/><path class="cls-8" d="m384.39,80.6c1.2.1,2.1.5,2.3,1.7-1.7.6-2.3-.3-2.3-1.7Z"/><path class="cls-8" d="m402.19,89.5c1.2.4,2.2.7,2.5,1.7-1.8.4-2.6-.2-2.5-1.7Z"/><path class="cls-9" d="m51.29,167.3c0,.6-.5.6-1,.5,0-.5,0-.8.2-1.1.6.1.9.3.8.6Z"/><path class="cls-8" d="m154.29,20.4c.3.9.4,1.9.6,2.9.4,2.9.7,3.1,3.6,3.9-.5,1.6,1.3,2.2.9,3.5-.9-.2-1.5-.6-1.7-1.3-.4-1.6-1.5-1.4-2.8-1.5-.5-1.9-1.3-3.5-1.3-5.1-.1-2.2-1.3-2.9-2.8-3.7,1.9-1,2.9-.4,3.5,1.3Z"/><path class="cls-8" d="m146.89,19.5c.4-.1.9.1,1.2.4-2.8,1.3-5.2,3-7.3,5-.6.6-1.2,1.3-2.2,1.1,1.9-3.6,4.9-5.4,8.3-6.5Z"/><path class="cls-5" d="m146.29,17.3c-.3.1-.4,0-.6-.1-.2,0-.4,0-.3-.2,1.3-.9,2.6-1.2,3.9-.7-.4,2.5-1.8,1.1-3,1Z"/><path class="cls-8" d="m141.19,19c.6-.7,1.2-1.1,1.9-.9-.4,1.1-1.2,1.1-1.9.9Z"/><path class="cls-8" d="m143.99,17.4c.5-.2.9-.2,1.2-.1-.5,1.1-.9,1.1-1.2.1Z"/><path class="cls-8" d="m361.9,17.3c-.1-.1.3-.1.4-.1,0,.1-.1.2-.4.1Z"/><path class="cls-9" d="m413.39,149.4c-.5.4-.9.4-1.2-.1,0-.8,0-1.3.2-1.8.5,0,.8.1,1.1.3,0,.6,0,1.1-.1,1.6Z"/><path class="cls-6" d="m413.69,150.8c-.7.1-1.1.1-1.7-.1,0-.5.1-.8.4-1.1.5-.1.8-.2,1.2-.2.5.5.5.9.1,1.4Z"/><path class="cls-1" d="m304.19,206.6c-.6.1-1-.1-1.3-.3.7-.6,1.2-.5,1.3.3Z"/><path class="cls-7" d="m56.79,245.2c-1-.7-1-1.4-.4-2.3.3-.2.5-.4.8-.6.4-.2.6-.3.6-.8-.1-1.2.3-1.8,1.3-1.6-.3,2.7-.4,5.1.4,7.3-1.1-.4-1.2-1.8-2.7-2Z"/><path class="cls-9" d="m59.79,233.1c0,1.5.4,2.7-.4,3.8-1.1-1.5-1.5-3,.4-3.8Z"/><path class="cls-5" d="m56.29,246.3c-1.5-1-1.4-2.1-.6-3.3.4,0,.5,0,.7.3.1.9.2,1.5.8,2.1-.1.6-.3.9-.9.9Z"/><path class="cls-9" d="m57.99,241.9c.1.7-.5.4-.7.4.2-.4.4-.5.7-.4Z"/><path class="cls-5" d="m445.19,119c-1-.6-1.9-1.3-2.8-2-1-.7-3.1-.9-2.6-2.2.7-1.7,2.3.5,3.8.1,2.1.6,3.4,2,4.8,3.4-.9,1.8-2.1,1.3-3.2.7Z"/><path class="cls-8" d="m159.49,36.1c-.8-1-.5-1.6.5-1.8.1.9.2,1.5-.5,1.8Z"/><path class="cls-9" d="m197.69,67.7c-.5-.3-.7-.5-.7-1,.6-.2,1-.3,1.6-.3.7,1-.1,1.1-.9,1.3Z"/><path class="cls-8" d="m197.49,68.4c-.5,0-.8,0-1.1-.2-.1-.5-.1-.7,0-1.1.1-.1.4-.2.6-.1.4.3.6.5.8.9,0,.1,0,.4-.3.5Z"/><path class="cls-4" d="m112.79,87c5.1-4.3,7.8-2.9,12.6.5,1.2.8,2,2,0,3.1-.8.4-.8,1.3-1.1,2-.6,1.7-1.1,3.5-2.3,4.9-3.1,3.8-7.4,4.7-10.7,2.1-1-.8-2.2-1.2-3.4-1.5-2.3-.6-2.7-2.1-1.5-4.1.6-.9,1.2-1.8,2-3,1.2-2,3-2.8,4.4-4Z"/><path class="cls-5" d="m46.29,87.9c2.9-2.8,7.2-3.3,10.7-1.2.5.3.9.7,1.4,1,2.8,1.9,4.7,4.5,6.6,7.2,1.3,1.8,1.1,3.3-1,3.8-1.6.4-2.7,1.3-4,1.9-1.1.6-2.2,1.2-3.5,1.2-3.4.1-6.7-2.1-8.2-5.6-.9-2.1-1.5-4.4-3.7-5.8.4-1.1,1-1.8,1.7-2.5Z"/><path class="cls-3" d="m74.29,108.3c-.9-1-.5-2.2.7-2.2,2.4,0,5.2-1.3,7.3,1.2.5.7,1.1.3,1.8.2,3.1-.3,6.3-.7,9.2,1.1,2.1,1.3,2.5,2,1.1,3.9-1.9,2.6-4.9,4-7.2,6.1-.3.2-.9.1-1.3.2-4.5.6-7.6-1.4-9.4-5.8.1-2.2-.9-3.4-2.2-4.7Z"/><path class="cls-3" d="m85.29,124.8c1.1.2,1.3,1,1.8,1.9.7,2.7,2,4.8,3.5,6.8.7.9,1.2,1.8.1,2.6-1,.8-1.6-.2-2.3-.7-1.4-1.1-2.3-2.7-3.5-4.5-.9,3.7-3.6,5.3-5.9,7.2-.7.6-1.4.6-2.1-.1-.7-.7-.6-1.4,0-2.1.4-.4.9-.7,1.2-1.2,1.2-2.1,3.7-3.4,3.9-6.3,1.8-.8,1.4-3,3.3-3.6Z"/><path class="cls-3" d="m95.09,127.5c3,3.3,5.2,7.3,9.2,9.7,1.2.7.7,2.3-.6,2.6-1.4.3-2.5-.1-3.7-1-3-2.3-4.8-5.5-7-8.5-.4-.6-.7-1.3-.8-1.9-.2-1.1.6-1.3,1.7-1.3.6.1,1,.2,1.2.4Z"/><path class="cls-8" d="m81.49,128.5c-1.1,1-1.8,2.4-2.9,2.9-2,.9-3.6,2.5-5.2,3.8-1.8,1.4-3.8,1.8-5.8,2.6-.5.2-1.1.2-1.4-.5-.2-.7.3-1,.8-1.3,4.1-2.9,8.8-5.1,12.5-8.6,1.5-1.5,1.6-1.3,2.2,1,0,0,.1,0-.2.1Z"/><path class="cls-8" d="m38.99,113.3c-3.9.2-7.3-.2-10.8-.8-1.5-.3-2.8-1.1-3.6-2.6,1.2-.8,2.1-.3,3.1-.2,3.9.4,7.6,2.2,11.7,1.9.6.7.2,1.2-.4,1.7Z"/><path class="cls-7" d="m73.29,121.6c.5-.5,1.2-.7,1.8-.1.5.4.3.9.1,1.5-.9,2.7-3.6,4.5-7.1,4.4-.4-1.3-1.4-1-2.1-1.4,2.6-1.4,5.3-2.3,7.3-4.4Z"/><path class="cls-9" d="m59.39,118.3c1-.2,1.7-.2,2.3-.4,2.6-.7,5.2-1.4,7.8-2.1.4-.1.9-.2,1.1.3.3.6.1,1.1-.4,1.5-.6.5-1.2.5-1.9.2-.9-.4-1.5,0-2.1.6-1.9,1.9-4.4,2.5-7.2,2-.4-.8-.4-1.5.4-2.1Z"/><path class="cls-5" d="m52.29,121.2c0-.7,0-1.2.1-1.7.1-.1.4-.1.6-.2.6-.4,1-.6,1.7-.9,1.7-.1,3,0,4.4.2,0,.8,0,1.4-.2,2.2-2.2,1-4.3.7-6.6.4Z"/><path class="cls-8" d="m86.89,123.9c.6.7.3,1.7,0,2.5-.8-.6-1.3-1.1-1.8-1.8.2-1.5.8-1.9,1.8-.7Z"/><path class="cls-9" d="m54.49,118.6c-.4.9-1,.9-1.5.6.4-.8.9-1,1.5-.6Z"/><path class="cls-4" d="m375.49,77.2c-.1.5-.3.9-.5.8-.6-.5.1-.7.4-1,0,.1.1.1.1.2Z"/><path class="cls-4" d="m468.09,163c-.4.3-1.1.5-1.5,0-.5-.6-.1-1.2.4-1.4,1.1-.6,1.9-1.7,3.2-1.5-.4,1.4-1.3,2.1-2.1,2.9Z"/><path class="cls-4" d="m470.19,159.8c.1-.2.2-.2.3-.3-.1.1-.2.2-.3.3h0Z"/><path class="cls-9" d="m104.89,244.9c1.7-1.1,2-3.5,4.1-3.7-.8,2.1-1.7,3.9-4.1,3.7Z"/><path class="cls-9" d="m110.29,239.4c.2-1,.6-1.3,1.4-1-.1,1-.6,1.3-1.4,1Z"/><path class="cls-8" d="m130.89,107.3c2.8-2.1,5.9-1.9,8.8-2.6,1.2-.3,1.6.6,1.8,1.5.2,1.2-.9,1-1.6,1.1-.4.1-.9.1-1.6.1-2.5-.7-4.9,1.5-7.4-.1Z"/><path class="cls-1" d="m68.99,260c-.8-.1-1.2-.6-1.4-1.3-.9-2.8-.3-5.7,0-8.6.1-.7.5-1.4,1.3-1.3.9.1,1.4.9,1.2,1.7-.7,2.6.4,5.1.1,8-.1,1.1-.4,1.6-1.2,1.5Z"/><path class="cls-5" d="m85.59,237.1c-.8,1.4-.6,3.7-3.3,2.6-.2-.4-.2-.6-.3-1,0-.9,0-1.7.2-2.6.3-.6.6-1,.8-1.6.1-.7.2-1.2.5-1.8,1-.6,1.7-.5,2.6,0,.5.1.8.1,1.1.4-.1,1.6-.8,2.7-1.6,4Z"/><path class="cls-8" d="m83.09,244c-.3-.2-.5-.2-.8-.5-.4-1.4-1.4-2.8.4-3.8,1.2.1,1.7-.3,1.8-1.2,0-.8.3-1.5,1.3-1.3-.4,2.6-1.2,4.8-2.7,6.8Z"/><path class="cls-7" d="m85.09,230.1c.1.8.4,1.2.8,1.7,0,.4,0,.6-.2.9-1,.1-1.6.2-2.4,0-.2-1.6.6-2.3,1.8-2.6Z"/><path class="cls-1" d="m72.59,264.6c.3.6.3,1.3-.6,1.5-.7.2-1.1-.2-1.2-.8,0-.5,0-1.1.2-1.8,1.3-.4,1.4.5,1.6,1.1Z"/><path class="cls-7" d="m82.19,239.1c.2.2.3.3.2.7-.5,1.5.4,2.7-.2,3.8-1.2-1.6-1.8-3.1,0-4.5Z"/><path class="cls-6" d="m83.29,244.6c.4.4.8.5,1.2.9,0,.7-.1,1.2-.4,1.7-1.5-.7-2.3-1.5-.8-2.6Z"/><path class="cls-7" d="m83.09,235c0,.8-.4,1.2-1,1.2-.1-.9.3-1.2,1-1.2Z"/><path class="cls-6" d="m86.39,245.1c-.6,0-1-.1-1.3-.3.7-.8,1.3-1,1.3.3Z"/><path class="cls-2" d="m114.99,90.7c1.3-.3,1.9.6,2.1,1.6.2,1.2-.7,2-2.3,2.1-.2,0-.4-.2-.8-.5-.7-1.7-.3-2.9,1-3.2Z"/><path class="cls-1" d="m117.29,88.9c.1-.9.9-.9,1.6-.7,1.2.4.8,1.1,0,1.9-1.2.2-1.8-.2-1.6-1.2Z"/><path class="cls-2" d="m55.49,95.2c-.9-.3-2.2-3.3-1.9-4,.4-1,1.1-1,1.9-.5,1.1.7,2.1,1.6,2.9,3-.5,1.7-1.6,2-2.9,1.5Z"/></svg>