<?xml version="1.0" encoding="UTF-8"?><svg id="Layer_1" xmlns="http://www.w3.org/2000/svg" viewBox="0 0 210.37 448.86"><defs><style>.cls-1{fill:#fff;}.cls-2{fill:#dfa47b;}.cls-3{fill:#110b09;}.cls-4{fill:#3b2c23;}</style></defs><path class="cls-4" d="m135.5,83.49c.61-.02.98-.12,1.65-.26,1.43-.84,2.52-.2,3.83.11,1.08-.03,1.94-.1,3.06-.23,2.74-.81,5.18-.61,7.84.3.84.03,1.43,0,2.32-.02.95.1,1.38.53,1.97,1.1,2.92-1.5,5.65-3.2,8.45-4.79,2.53-1.43,4.97-3.1,8.02-3.35.54-.04,1.12-.27,1.57-.58,4.86-3.21,10.54-4.18,15.95-5.87,2.28-.71,3.01-.26,4.34,1.91,1.47,2.39,2.31,4.82,1.47,7.72-.37,1.26-.06,2.71-.09,4.07-.1,5.24-.71,10.33-2.84,15.24-1.43,3.3-2.37,6.82-3.35,10.29-.24.87-.43,1.76-.83,2.55-1.77,3.55-1.79,7.35-1.78,11.18,0,1.12.6,1.93,1.07,2.81,2.2,4.09,4.33,8.22,6.06,12.54.91,2.26.76,3.18-.83,4.83-2.15,2.23-3.64,4.94-5.36,7.48-1.53,2.26-3.18,4.43-5.53,6.15-.74-1.06-.1-1.81.5-2.45,3.29-3.52,5.36-7.9,8.33-11.63,1.49-1.87,1.47-3.57.58-5.66-1.5-3.57-3.76-6.76-5.19-10.34-1.83-4.59-1.87-9.16-.15-13.93,1.46-4.03,2.98-8.07,3.83-12.34.67-3.38,2-6.62,2.9-9.97,1.33-4.95.58-9.69.47-14.53-.02-1.04-.37-2.07-1.16-2.77-.79-.7-1.89-2.14-2.05.49-.03.56-.93.76-1.44.49-4.35-2.3-8.07.41-11.65,1.87-4.9,2-10.03,3.62-14.52,6.62-1.62,1.08-3.25,2.07-4.62,3.83-3.46,1.17-6.64,2.59-10.17,1.55-.21-.06-.47-.08-.68,0-7.14,2.86-14.56.55-21.83,1.1-4.75.36-9.54.06-14.32.07-2.46,0-4.93-.42-6.27,2.73-.7,1.65-2.73,1.38-4.29.78-2.13-.82-4.06-2.03-6.08-3.59-.46-.34-.73-.51-.92-.74-.17-.22-.22-.32-.18-.3.07.04.1.12.27.45,1.25.94,1.72,2.09,1.99,3.33.28,1.31.88,2.81-.79,3.59-1.52.71-2.85.19-3.91-1.11-5.21-6.41-11.77-10.89-19.52-13.68-3.39-1.22-4.4-.6-3.62,2.83,1.76,7.81,4.15,15.36,10.81,20.66,1.05.84,2.12,1.76,2.09,3.54-1.37,1.63-2.8-.44-4.27.42.69,1.79,3.26.94,3.93,2.97.35,1.85.4,3.46-.12,5.29-1.53,1.76-2.22.11-3.27-.54.59,5.58.14,11.04-.18,16.54-.16,2.74.08,5.28-1.83,7.63-.98,1.21-.42,2.83.69,4.05.8.88,1.67,1.81-.3,2.66-.54-.06-.8-.2-1.04-.4-.35-.29.21-.02-.19-.25-.09-.05-.02,0,.32.41,4.1,4.19,8.32,7.85,11.34,12.82,1.9,3.13,5.14,5.58,7.97,8.43.13.7.06,1.15-.28,1.75-.7.66-1.05,1.22-.77,2.25.66,3.68-.65,6.69-1.95,9.74-3.82,8.96-7.8,17.85-11.99,26.65-2.24,4.7-3.52,9.75-5.85,14.46-1.99,4.03-1.4,8.89-1.79,13.39-.22,2.59-.16,5.21-.68,7.78-1.16,5.7-.08,11.49-.76,17.21-.28,2.32.33,4.76-1.29,7-1.07,0-1.49-.54-1.57-1.24-.69-6.17.06-12.33,0-17.69-.86,3.72-.51,8.32-.46,12.9.02,1.64.47,3.19-.34,4.91-.89,1.92.97,3,2.38,4.35,1.2,5.95.5,11.69.32,17.69-1.5,1.79-2.23.81-2.71-.52-.58-1.62-.67-3.29-.39-5.02.37-2.32.17-4.66-.02-7.01.26,5.15-.65,10.09-2.35,14.92-.31.88-.31,1.86.19,2.64,1.44,2.24.95,4.56.4,7.15-1.4,4.98-2.14,9.74-.58,14.8,1.38,2.04.65,4.39,1.73,6.41.39-2.09.23-3.93-1.21-5.77-1.41-2.3-1.58-4.52-.7-7.02,2.07-.66,2.16.59,2.18,1.26.09-3.34.29-7.34,1.21-11.48,2.59-.67,2.33,1.23,2.47,2.57.31,2.94-.11,5.89-.25,8.83-.23,4.97-.07,9.93.28,14.89.12,1.68.2,3.4-.42,5.31-1.32,1.32-2.16.58-2.9-.35-.61-.78-.82-1.85-1.89-2.62-1.28-1.12-1.43-2.49-1.83-4.01.15,1.41-.02,2.57-.41,3.66-1.2,3.32-1.85,6.68-1.13,10.21.14.67-.05,1.34-.77,1.98-1.92.23-2.29,1-2.63,2.83-1.12,6.01,1.56,11.77.63,17.95-.64,1.44-.76,3.58-2.84,1.47.37-5.66.65-11.07.26-16.45-.23-3.13.72-6.31-.45-9.41-.24-.62-.19-1.52.33-1.94,1.7-1.38,1.09-3.23,1.28-4.95.59-5.36.75-10.76,2.12-16.05.68-2.64,1.16-5.47.87-8.33-.24-2.38.27-4.76.81-7.05,1.1-4.68.69-9.66,2.92-14.13.47-.95.32-2.23.37-3.36.31-6.86.57-13.72.89-20.58.21-4.66.37-9.33.77-13.97.22-2.58.78-5.14,1.12-7.72.66-5.02,1.78-9.99,2.7-14.98.63-3.46,1.98-6.71,2.97-10.06,2.15-7.26,5.72-13.94,8.4-20.97,1.01-2.63,2.95-4.98,4.05-7.68,1.95-4.8,4.35-9.46,4.94-14.7.32-2.79-.07-3.14-2.66-2.13-2.58,1-5.22,1.86-7.61,3.38-4.36,2.77-8.85,5.34-13.5,8.14-.87.59-1.48.52-2.1-.27.41-.65.86-1.05,1.5-1.6.46-.68.94-.96,1.68-1.21,1.23-.69,2.4-1.08,3.11-2.26.79-1.33,2.33-1.72,3.66-2.35,4.17-1.98,7.98-4.67,12.27-6.4.91-.37,1.81-.76,1.32-1.9-.47-1.09-1.37-1.36-2.51-.76-4.16,2.18-8.68,3.42-13.12,4.84,1.21-1.63,2.99-2.83,6.56-4.47,1.34-.61,2.7-1.17,3.99-1.87,1.81-.99,2.06-2.07.76-3.47-2.97-3.19-5.82-6.49-9.19-9.3-2.15-1.79-1.58-4.43-1.01-6.58.94-3.58,1.29-7.26,2.15-10.86.53-2.2-.44-4.74.15-7.07.92-3.64-.54-7.09-.62-10.65-.04-1.88-1.56-3.42-2.43-5.1-1.3-2.5-2.83-4.87-3.74-7.56-.21-.63-.47-1.34-.93-1.78-1.36-1.3-1.8-2.94-2.42-4.65-1.61-4.46-2.89-8.95-3.41-13.67-.07-.67-.17-1.25-.05-1.95.66-4.04,1.05-4.44,5.15-4.68.56-.03,1.17-.03,1.67-.25,5.39-2.31,10.11.05,14.73,2.29,5.63,2.73,11.11,5.75,16.03,9.7.6.48,1.22.9,1.73,1.51,1.86,2.2,2.49,2.4,5.28,1.27,2.31-.93,4.56-1.93,7.44-1.48,5.63-.94,11.07-.96,16.25-2.83,1.79-.64,3.83-.24,6-.05Z"/><path class="cls-4" d="m191.48,176.45c-.15,1.69,1.27,1.98,1.71,2.81.23.43.38.84.06,1.24-.33.42-.8.38-1.23.17-1.62-.82-3.39-1.41-4.71-2.7-2.77-2.72-6.19-4.54-9.29-6.8-1.9-1.39-3.35-3.33-5.78-4.11-1.41-.46-2.28-.36-3.35.55-3.11,2.64-3.93,5.21-1.73,8.98,3.5,5.99,5.75,12.56,9.17,18.58,6.16,10.84,8.88,22.7,9.78,35.04.48,6.57.83,13.15,1.05,19.74.11,3.14.81,6.24.89,9.42.03,1.33.16,2.63-.05,3.98-.53,3.36.25,6.73-.13,10.12-.5,4.36.27,8.78-.55,13.18-.46,2.45.69,4.89.75,7.41.11,4.58,1.42,9,2.21,13.48.62,3.51,1.2,7.09,1.39,10.72.28,5.5,1.29,10.97,1.78,16.45.34,3.82,1.09,7.57,1.37,11.39.3,3.92-.24,7.73-.66,11.59-.41,3.84-1.12,7.59-1.92,11.37-1.07,5.08-3.2,9.84-4.03,14.98-.56,3.47-2.73,6.37-4.39,9.43-1.27,2.35-2.63,4.65-3.88,7.01-.96,1.83-2.77,3.2-4.16,4.81-1.48,1.72-2.79,3.54-3.53,5.73-.68,2.03-2.07,3.62-4.05,4.23-2.55.79-5.08,1.82-7.91,1.54-1.9-.19-3.38-.59-4.43-2.42-1-1.75-1.78-1.72-3.23-.4-.67.61-1.25,1.33-1.96,1.88-.62.48-1.37.81-2.2.85-1.15.06-1.09-.93-1.44-1.59-.47-.9-1.14-.85-2-.53-2.2.84-4.5.51-6.75.28-1.26-.13-2.87-.34-2.43-2.43.12-.59-.21-1.19-.77-1.39-2.45-.86-2.83-3.05-3.34-5.12-.43-1.75-1.21-2.72-3.27-2.62-3.09.15-3.43.25-4.33,2.64-1.49,3.94-4.07,6.89-7.97,8.61-1.63.72-3.53.85-4.98.25-2.36-.98-4.57-.59-6.87-.3-.22.03-.5.22-.65.14-2.79-1.48-5.5-.47-8.23.18-1.23.29-2.18-.27-2.97-1.22-2.02-2.43-4.8-3.15-7.78-3.3-1.02-.05-1.76-.24-2.16-1.25-.12-.3-.32-.67-.58-.8-3.72-1.82-5.77-5.51-8.92-7.97-2.6-2.03-4.27-4.51-4.74-8.06-.38-2.89-2.66-5.27-4.87-7.16-1.53-1.31-3.84-.58-5.79-.59-.65,0-1.43.5-2.24.46-3.66-.15-7.2.72-10.71,1.5-2.47.55-4.47,1.95-6.53,3.68-4.37,3.69-9.58,6.14-15.59,5.8-4.03-.23-8.12.16-12.06-1.28-1.74-.63-2.83-1.84-3.86-3.18-.81-1.05-.3-2.08.16-3.18,1.02-2.45.86-4.87-1.33-6.62-.96-.77-.22-1.28-.02-1.66,1.05-1.92,2.72-3.29,4.39-4.66,3.61-2.97,7.99-3.93,12.38-5.05,2.91-.74,5.84-.57,8.71-1.02,5.33-.84,10.65-1.83,15.91-3.13,2.38-.59,4.66-1.64,7.43-1.78,2.34,1.4,1.91,2.71,0,3.84-1.37.81-2.9,1.3-4.45,1.62-6.5,1.31-12.88,3.43-19.9,2.8-1.15-.72-1.86-1.8-3.18-1.52-5.87,1.22-11.85,2.04-16.61,6.33-2.14,1.93-1.29,4.15-1.26,6.32.01,1.22.67,2.39.42,3.68-.37,1.91-1.3,4.45,2.39,2.34.88-.5,1.6.04,1.7,1,.32,3.13,2.88,3.32,5.03,3.52,3.74.34,7.45-.45,11.11-1.2,1.01-.21,2.23-.66,2.56-1.54,1.93-5.22,7.05-5.4,11.11-6.82,6.15-2.16,12.72-2.11,19.19-1.71,2.24.14,4.08,1.37,5.15,3.46,1.13,2.22,2.6,4.27,3.23,6.73.3,1.17.76,2.26,2.57,1.37,1.1-.35,1.85.02,2.29.67,2.05,2.96,4.98,5.11,7.3,8.13-.39,2.87,1,4.2,3.34,4.91,1.85.56,3.68,1.17,5.64,1.23.9.03,2.15.03,2.4.95.81,2.91,2.71,1.9,4.59,1.63,3.76-.55,7.53-1.53,11.26.36,1.56.79,3.28.79,5.02-.02-2.75.4-3.63-2.48-5.95-3.29.63-2.71,1.79-3.2,4.22-2.06,2.56,1.2,4.08.71,4.9-1.89.79-2.49.98-4.95.22-7.67-1.42-5.09-3.11-10.15-3.5-15.7.9-.99,1.94-1.28,3.13-1.83,1.99,0,1.97,1.46,2.38,2.58,1.56,4.19,1.52,8.69,2.61,12.98.88,3.47,2.89,4.39,6.04,2.8,1.35-.68,2.11-1.66,1.95-3.24-.83-8.39,1.15-16.44,3.11-24.48.48-1.97.75-4,1.65-6.1,2.82-.55,3.12,2.21,4.89,3.4.16,3.93,0,7.6-2.18,11.05-1.79.38-1.82-.74-1.86-1.78-.05-1.35-.18-2.72.28-4.04-1.36,3.59-1.63,7.39-2.37,11.44,1.62-.9.73-3.7,3.39-2.96,1.41,3.03-.11,5.42-1.33,8.08-.82,1.03-2.28-.78-2.63.9-.3,1.45.63,2.27,1.88,3.13.77,1.25.5,2.35.28,3.46-.79,4.03,0,5.61,3.85,7.77,2.92,1.64,5.29,1.36,7.99-.96.94-.8,1.79-1.75,3.4-1.7.72.26.97.6.68,1.32-.37.36-.62.52-.89.62.28-.09.53-.23.99-.45,1.4-.02,1.85.65,1.62,1.74-.25,1.18-.9,2.16-2.11,2.44-6.97,1.67-13.63,1.96-18.59-4.57,1.29,2.61,2.9,5.02,4.35,7.48,1.54,2.61,3.13,3.02,5.5,2.22,1.83-.62,3.48-.82,5.17.33.7.48,1.56.46,2.23-.11,2.16-1.85,5.34-2.78,5.25-6.61-.03-1.25.23-3.03,2.26-3.58,1.76.74,1.65,1.9,1.05,3.16-.54,1.13-1.21,2.23-.39,3.75.19,4.02,2.08,5,5.49,2.99.58-.34,1.09-.79,1.73-1.05q4.73-1.93,7.12-6.93c-1.54-.93-2.72-.07-4.14.78-1.51-.21-2.62-.84-3.85-1.74-.93-1.55-1.42-3.99-3.53-.87-.6.56-1.09.64-1.84.28-.94-1.89-1.1-3.52.57-5.09,4.04.41,8.13-.11,11.25,3.07,1.76-2.92,4.46-5.39,6-8.7.34-.74.87-1.33,2.04-.96.96,1.91.26,3.59-.09,5.51-.8,1.3-2.02,1.71-3.13,2.65,1.08-.33,1.58-1.06,2.41-1.73,1.77-2.05,2.89-3.99.79-6.51-.48-2.99.85-5.07,3.04-6.95,2.86.67.86,2.5,1.15,3.77.88-2.55,1.88-5.08,2.73-7.91-.72.33-1.43.91-2.35.14-.74-5.2,1.13-9.64,3.13-14.25,2.64.14,2.07,1.83,1.55,3.14-.56,1.4-1.23,2.68-.57,4.17.22-.84-.57-1.87.03-2.6,2.28-2.8,1.64-6.47,3.01-9.58,1.06-2.42,1.56-5.21.34-7.94-.54-1.21-.31-2.54.24-3.64,1.21-2.41,1.13-4.87.42-7.28-1.5-5.06-1.25-10.31-1.92-15.45-.22-1.66-.45-3.16-2.6-3.74-1.15-.74-1.98-1.52-3.3-1.98-1.04-1.68-1.22-3.13.49-4.46,1.29.72,1.71.15,2.07-1.03,1.13-.51,2.14-.8,1.76-2.23-.29-1.09-.36-2.23-.48-3.35-.14-1.39-.4-2.7-2.06-3.13-1.83-.47-2.33.76-2.9,2.07-.43.98-1.1,1.75-2.55,1.06-.27-.4-.45-.64-.4-.82,2.09-7.14-.91-14.42.67-21.58.61-2.79.3-5.64.41-8.46.05-1.43-.22-2.99,1.42-4.12,1.95.58,1.84,2.11,1.78,3.4-.23,5.54.85,11.1-.41,16.64-.52,2.29.45,4.36,1.94,6.29-2.66-18.4,2.15-37.06-2.36-54.84-.32,5.2,1.12,10.81.91,16.52-.06,1.61.38,3.12.98,4.62,1.07,2.66.61,3.17-2.73,2.99-1.22-1.64-1.51-3.32-1.55-5.02-.18-7.22-.75-14.41-.89-21.64-.12-6.28.71-12.57-.09-19.11,2.52-2.22,2.96,0,3.16,1.5.38,2.86,1.38,5.72.29,8.7-.41,1.12,0,2.47.17,3.7.73-11.43-1.21-22.49-4.55-33.12,0-.71-.59-.03-.18-.22.11-.05.19.04.16.28-.17,1.6.6,2.96.96,4.41,1.02,4.1,2.73,8.29.86,12.75-2.61-.74-2.64-3.03-3.23-4.87-1.56-4.84-2.71-9.81-4.35-14.89-.03-.79.72-1.28-.1-1.99-3.18-5.07-4.81-10.55-6.62-16.17,2-1.28,1.21-2.65.57-4.01.35,1.06.67,2.13-.18,3.39-4.05-1.87-3.93-5.48-3.73-9.33.42-.79,1.01-1.11,1.07-1.9.47-6.31,1.74-7.71,8.21-9.01,1.46-.16,2.38.5,3.35,1.08,5.21,3.09,10.15,6.56,15.22,10.69Z"/><path class="cls-3" d="m173.69,165.05c-1.92,1.04-4.03.64-5.73,2.06-2.09,1.74-3.37,3.53-2.43,6.32.31.92.56,1.8-1.1,1.97-.55.06-.8-.06-1.05-.54-.25-.53-.34-.94-1.03-.84-.87.43-1.58.69-2.58.87-1.27.12-2.3.11-3.59-.02-.43-.1-.6-.16-.99-.35-.88-.84-.94-1.7-.84-2.84.1-.4.15-.56.34-.92.71-.71,1.46-1,2.11-1.79,2.55-2.62,6.5-2.68,8.71-5.82.76-.62,1.45-.94,2.18-1.59,1.11-1.11.2-1.53-.42-1.93-1.51-1-2.97-2.07-4.48-3.07-.66-.44-1.47-.93-1.11-1.86.41-1.07,1.42-.95,2.33-.78,1.58.3,2.95,1.1,4.34,1.87,4.18,2.33,4.88,2.21,8.64-.88,3.07-2.52,5.99-5.15,8.19-8.53,1.02-1.56,1.71-3.17,1.94-5.24.63-2.29-.7-3.32-2.3-4.48-.77-1.17-1.04-2.28-1.26-3.66.03-2.25-.19-4.25-.35-6.25-.06-.75-.16-1.33-1.31-1.3-.67-.15-1.02-.4-1.31-1.03-.1-.93-.22-1.61-.73-2.42-.18-.67-.16-1.12.09-1.78,3.43-2.54,4.11-6.44,5.41-9.83.93-2.42,3.03-5.02.97-7.95-.19-.27-.12-.77.12-.96,3.15-2.53,1.36-6.37,2.54-9.65.07-.55.14-.87.32-1.39.37-.78.86-1.23.92-2.15-.03-2.51.42-4.73.65-6.98.33-3.29-.61-4.09-3.84-3.69-4.3.54-7.86,2.71-11.33,5.06-1.31.89-2.58,1.83-3.99,2.55-1.12.57-2.29,1.16-3.4-.41-.17-.99.21-1.69.38-2.49-1.93.28-3.47.78-4.51,2.63-1.83,1.47-3.37,3.16-5.98,1.72.07-2.03.96-3.18,2.74-4,2.65-1.22,5.12-2.84,7.66-4.3.2-.11.38-.28.59-.33,5.69-1.3,10.63-4.61,16.3-6.02,1.65-.41,2.23.56,3.21,1.18.85.54.93.52,1.07-.88.11-1.11,1.05-1.29,1.73-1.65.7-.36.77.55,1.15.86,1.62,1.35,2.09,3.06,2.05,5.07-.07,3.66.83,7.31.11,10.99-.42,2.13-1.82,4.08-1.09,6.45.16.53-.18,1.44-.59,1.9-2.2,2.44-1.65,5.79-2.91,8.46-1.45,3.07-1.95,6.41-3.26,9.52-1.51,3.6-1.16,7.47.01,11.19,1.06,3.34,3.1,6.24,4.72,9.3,1.92,3.63,2.6,6.49-.47,9.95-3.26,3.67-5.36,8.3-8.94,12.03-1.56,1.75-3.09,3.29-4.71,5.08-.27.86-.66,1.32-1.28,1.9-.92.63-1.81.87-2.64,1.64Z"/><path class="cls-2" d="m29.17,372.49c2.53-.23,4.87.24,7.07-1.24.91-.61,1.86.45,2.87.15,4.81-1.45,9.88-1.84,14.6-3.71,1.8-.71,2.15-1.45.9-3.15,0-.93.08-1.64.33-2.66q1.34.89,2.27-1.32c.76.34.86.99.95,1.88,0,.54-.05.84-.19,1.34-.13.47-.57.45-.54.64.02.16.31.09.68-.17.53.06.79.23,1.12.7.87,3.64,1.46,7.06,2.84,10.35,1.5,3.57.21,5.47-3.54,5.86-5.84.62-11.68,1.17-17.46,2.23-2.5.46-4.23-.44-5.26-2.65-1.3-2.79-3.45-4.71-6.2-6.49-.44-.5-.58-.85-.45-1.75Z"/><path class="cls-4" d="m176.09,163.34c-.02-.98.37-1.38,1.23-1.59,5.29,3.11,10.4,6.19,14.27,10.9,1.05,1.28,1.99,2.44.46,4.1-.21.05-.17.08-.14.09-2.25-1.12-3.86-3.06-5.53-4.85-3.09-3.31-7.32-5.15-10.29-8.66Z"/><path class="cls-2" d="m135.57,83.36c-.86,1.29-1.93.19-2.99.25-1.68.1-3.47-.27-4.47,1.65-.43.83-.96.84-1.51.1-.8-1.07-1.66-.07-2.47-.03-1.07.06-.4,1.99-1.56,1.8-.79-.13-1.24-1.43-2.24-1.28-2.11.32-4.18.87-6.55.51,4.33-1.32,8.97-2,13.6-2.79,2.69-.46,5.31-1.07,8.2-.21Z"/><path class="cls-2" d="m63.25,178.36c.62.54,1.16.65,1.96.61-2.73,3.1-3.25,3.38-6.77,3.58,1.24-1.92,2.35-3.63,4.81-4.2Z"/><path class="cls-2" d="m151.96,83.29c-2.31.47-4.72-.5-7.43-.19.25-1.4,1.42-.92,2.35-.98,1.72-.11,3.34.37,5.08,1.17Z"/><path class="cls-2" d="m141.09,83.18c-1.03,1.42-2.1-.52-3.44.06.87-2.03,2.1-1.07,3.44-.06Z"/><path class="cls-2" d="m156.31,84.39c-.88.54-1.13-.38-1.76-.83.97-.93,1.25.06,1.76.83Z"/><path class="cls-2" d="m66.72,175.74c-.04.67-.66.85-1.33,1.16-.31-1.03.42-1.1,1.33-1.16Z"/><path class="cls-2" d="m168.5,83.79c.39,1.87,1.54,1.61,2.45,1.13,1.29-.69,2.59-1.48,3.64-2.49,3.87-3.73,8.81-4.89,13.8-5.82,2.63-.49,3.23.2,3.34,2.88.06,1.47.09,2.93-.51,4.35-.54,1.28-.32,2.69-.29,4.33.05.87-.43,1.21-.75,1.86-.2.42-.31.65-.44,1.09-.51,2.21-1.94,4.04-1.11,6.31.26.7-.25,1.3-.72,1.79-1.12,1.18-2.12,2.34-1.39,4.17.37.92-.48,1.35-.99,1.94-1.84,2.14-2.96,4.77-4.67,7.01-.51.67-.64,1.45-.21,2.22.96,1.73.61,3.49.08,5.48-.38.68-.4,1.17-.11,1.89.21.58.34.92.54,1.44.1.56.12.95.26,1.51,2.49,2.07,1.97,4.98,2.66,7.73-.1,1.47.86,2.33,1.11,3.68,1.52,3.68-.62,5.91-2.82,7.86-3.14,2.77-6.51,5.27-10.26,7.19,4.47-2.32,9.27-4.16,12.32-8.58.75-1.09,1.23-2.54,3.19-2.22.93,4.04-1.71,6.49-3.79,9.11-2.48,3.12-5.98,5.24-8.48,8.36-.75.94-1.83.81-2.83.52-1.85-.53-3.61-1.26-5.24-2.33-1.93-1.27-3.36-1.61-5.77-1.58,2.27,1.54,4.17,2.83,6.09,4.1.57.38,1.21.64,1.76,1.03.53.38,1.24.81.75,1.61-.31.51-.93.58-1.8.47-3.66-.68-6.06-3.46-9.67-4.34,2.99,1.66,5.67,3.26,8.08,5.57-1.18,2.2-3.19,3.19-5.19,4.1-1.42.65-2.78,1.33-4.17,2.47-.75.35-1.4.37-2.08.93-.16.17-.21.14-.2.17-1.31.8-2.48,1.59-.11,2.89.3.18.39.28.68.41,1.29,1.24,2.54.81,3.92.19.94-.47,1.76-.76,2.8-1.2.7.05.95.47,1.33,1.08.16.49.21.77.4,1.2.21,3.52,1.16,6.63,3.06,9.63,2.75,5.33,4.42,10.9,6.9,16.36.4.39.53.67.58,1.21,2.06,6.95,3.62,13.83,6.3,20.59.41.41.53.7.46,1.28-.26,2.42.74,4.41.95,6.53.08.78.61,1.65.02,2.27-1.71,1.81-1,3.77-.61,5.76.18.88.25,1.81.22,2.71-.31,9.66.5,19.28,1.11,29.19,1.09,1.63,1.03,3.07.26,4.81-1.07,1.92-1.01,3.82-.94,5.54.15,3.62-.67,7.21-.22,10.79.2,1.61-.74,2.89-.71,4.51.02,1.4.07,2.63.78,3.71.97,1.49,1.07,2.88.27,4.44-.89,1.73-1.22,3.62-1.3,5.81.76,1.34.67,2.51.5,3.97-2.57,10.86-4.96,21.47-6.6,32.5-.04.82-.1,1.36-.25,2.14-1.21,3.75-3.57,6.73-4.5,10.59-.04.58-.05.92-.07,1.51.02,5.83-2.73,10.54-4.97,15.33-3.79,8.13-7.5,16.29-11.43,24.64-.34.73-.67,1.13-1.41,1.45-1.81.34-2.86,1.28-3.75,2.53-1.31,1.83-3.06,2.26-5.34,2.05-3.87-.36-6.22-2.94-8.77-5.3-.66-.61-.49-1.39-.23-2.21.53-1.72.92-3.48,1.32-5.49-.78-1.42-.76-2.63-.14-4.12.81-2.8,2.73-5.02,2.07-8.16-.44-1.02-.47-1.77-.05-2.79,1.38-.9,1.13-2.09,1.32-3.17.45-2.49.64-5.03,1.52-7.7-.26-.67-.33-1.11-.28-1.79.15-.82.2-1.42.04-2.26-.04-.58-.02-.92.08-1.52,1.89-11.56,3.17-22.97,3.26-34.38.08-11.18,1.13-22.43-.79-33.58-.48-2.79.08-5.68-.96-8.64-.92,2.67-.14,5.13-.12,7.58.21,22.02-.67,43.98-3.53,65.84-.13,1.01-.54,1.97-.6,3.3-.09.68-.22,1.06-.6,1.63-.12,2.45-.84,4.49-1.47,6.6-1.76,5.91-2.4,12.06-3.35,18.14-.27,1.74-.12,3.57.31,5.38.73,3.08-.41,4.66-3.46,5.41-5.11,1.25-5.57.86-6.84-4.28-1.25-5.09-1.49-10.39-3.5-15.49-1.42-.94-.6-2.22-.96-3.43,0-.77-.14-1.28-.55-1.94-.46-.63-.38-1.52-1.24-1.44-.33.03-.34.45-.34.98.12,1.18.12,2.15.52,3.32.26,1.31.36,2.37-.05,3.67-.05.92-.19,1.68.08,2.24.81,1.66.69,3.65,1.37,5.13,1.18,2.6.75,5.52,1.94,7.87,1.43,2.82.97,5.48.56,8.23-.37,2.47-2.31,3.79-4.25,4.98-.71.44-1.36.33-1.99-.53-1.45-1.95-1.53-1.89-4.41-.53-.19.33-.3.45-.64.68-4.04-.09-6.41-2.63-8.92-5.35-1.54-2.29-3.62-3.78-5.18-6.03-.41-.73-.73-1.25-1.41-1.78-1.69-1.55-2.37-3.3-2.45-5.56-.03-.85-.28-1.39-.78-2.05-.54-1-.78-1.87-1.09-2.96-.22-1.24-.62-2.15-1.52-3.06-.28-.44-.4-.71-.56-1.2-.23-1.27-.75-2.13-1.66-3.04-1.12-2.19-2.29-4.11-3.14-6.44-.45-2.26-1.25-4.15-2.33-6.16-.44-.9-.71-1.62-1.03-2.57-.23-.79-.5-1.31-1.01-1.95-.59-1.14-.87-2.15-1.11-3.4-.14-.79-.34-1.32-.86-1.94-.25-.45-.36-.72-.51-1.22-.29-1.38-.64-2.49-1.58-3.6-.62-1.15-.89-2.17-1.16-3.44-.14-.8-.31-1.35-.81-2-.21-.47-.26-.77-.26-1.29.44-1.57.09-2.8-.63-4.2-.22-.64-.29-1.09-.39-1.76-.07-.99-.32-1.68-.98-2.45-.87-1.46-1.9-2.64-1.39-4.51.1-3.38.63-6.55-.32-9.66-.38-1.23,0-2.58.27-3.64.32-1.22-1.45-2.19-.1-3.24-.41-5.26,1.07-10.53-.3-15.95-.52-.26-.72-.46-.73-1.02.45-1,.89-1.77.06-2.8-.19-.48-.22-.77-.15-1.28.39-.83.89-1.38.89-2.35.03-.66.08-1.09.3-1.73.2-6.18.32-12.15.35-18.44-.69-1.24-.71-2.22-.19-3.49,1.11-3.17,1.3-6.12.6-9.12-.16-.69.02-1.36.29-1.99.41-.97.56-2,.4-3-.73-4.43.03-8.75.81-13.08.14-.77.11-1.58.11-2.38,0-5.18,1.33-10.27,1.09-15.47-.03-.61.09-1.23.58-1.51,2-1.18,2.31-3.29,2.88-5.2,1.39-4.68,3.28-9.22,5.42-13.54,3.97-8.01,7.17-16.33,10.95-24.41,1-2.13.65-4.44,1.48-6.83-.31-.71-.24-1.14.09-1.78.33-.68.53-1.17.73-1.92,1.31-.45,2.02.42,2.68,1.32.79,1.06,1.81,1.58,3.36,1.55,3.18-.47,5.74,1.2,8.55,1.46.23.02.53.07.62.24,1.21,2.38,3.34,3.61,5.7,4.54,2.36.93,4.98.37,7.78,1.8-1.54-3.38.1-3.82,2.39-3.7,1.7.09,3.39,0,5.13-.77-9.52-1.79-19.13-3.21-28.55-6.46-1.98-1.17-4.16-1.68-5.03-4.13.71-2.15,2.59-1.72,4.01-2.19,1.58-.51,3.18-.96,4.67-1.72-3.14.69-6.29,1.29-9.5,2.65-2.15.2-3.79-.4-3.92-2.49-.13-2.11,1.67-2.39,3.31-2.6,1.93-.24,3.61-1.37,5.52-1.7-2.81.46-5.54,1.23-8.13,2.4-1,.46-2.04.92-2.88.33-3.23-2.26-6.65-4.45-6.71-9.23.97-.76,1.89-.85,2.73-.39,2.55,1.38,5.45,1.55,8.15,2.39-4.5-1.34-9.16-2.14-13.68-4.25-.94-.88-1.06-1.79-.98-3.05.65-2.44.34-4.65.37-7.14.1-6.57-.64-12.84.62-19.35.23-2.17.28-4.06.32-6.27.19-.49.42-.61.87-.64.4.04.6.11.91.24.12.04.3-.09.2-.19-.28-.26-.47-.4-.82-.69-.44-.51-.62-.9-.48-1.52.09-1.33-.81-2.04-1.6-2.54-2.66-1.69-4-4.43-5.9-6.76-2.22-2.72-3.3-5.78-4.13-9.08-.57-2.26-2.01-4.29-1.87-6.76.01-.22-.1-.44-.11-.67-.31-3.72.28-4.08,3.93-2.92,5.79,1.85,10.89,4.81,15.29,9.01,1.93,1.84,4.59,2.95,5.54,5.79.32.96,1.44,1.05,2.32,1.18,1.12.16,1.75-.46,1.6-1.59-.24-1.81-.68-3.56-2.27-5.05-.04-.37.02-.5.29-.73,2.73.31,4.41,2.32,6.63,3.3.82.36,1.52,1.03,2.51.89,1.24-.18,2.13-.4,1.58-2.15-.64-2.05.28-2.79,2.34-2.55,3.77.45,7.51.87,11.39.4,1.96-.24,4.15-.43,6.29.09,1.6.4,3.37.18,5.06.17,4.51-.04,9.02-.2,13.51.43.6.08,1.28.11,1.47-.49.62-2,2.18-1.85,3.59-1.47,2.98.79,5.78.97,8.4-1.05.6-.46.93.33,1.47.88,1.02,1.13,1.98.84,2.87.34.96-.53,1.85-1.19,2.93-1.97,1.48-1.25,2.89-1.89,4.81-.92Z"/><path class="cls-2" d="m82.86,403.35c-3.51-2.3-6.41-5.14-8.75-8.81-2.52-1.44-3.63-3.62-4.32-6.07-.4-1.42-.59-2.94-1.4-4.17-4.08-6.18-5.58-13.35-7.23-20.32-1.31-5.53-2.54-11.25-1.98-17.35.05-1.57-.05-2.84-.43-4.37-.13-1.05-.06-1.8.53-2.71.71-.61.8-1.16.59-1.72-1.05-2.9-.65-5.77.39-8.53,1.05-2.82,1.16-5.77,1.45-9.29,2.1,2.26,1.03,4.8,2.29,6.86.74.7.9,1.4,1.06,2.38.04.62.05.97.06,1.57-.11,2.01.95,3.45,1.32,5.33.32,1.74.65,3.22,1.24,4.89,1.17,2.78,1.77,5.43,2.15,8.4.06,1.02.08,1.79.77,2.61.51.87.72,1.62,1.01,2.58.25,1.09.29,2.01,1.05,2.92.47.9.58,1.67.9,2.63.27.83.43,1.45.8,2.25,3.97,8.94,7.11,17.97,11.35,26.54.67,1.36,1.52,2.51,2.57,3.57,1.12,1.13,2.29,2.22,3.18,3.56,1.78,2.67,1.43,3.48-1.7,3.79-2.67.26-5.23.66-6.91,3.46Z"/><path class="cls-3" d="m59.62,346.02c.66,2.2.17,4.26.44,6.28.78,5.9,2.05,11.68,3.48,17.46.86,3.49,1.53,7.02,3.46,10.02,1.24,1.93,2.49,3.94,2.89,6.03.59,3.16,2.15,5.66,3.95,8.39-.09,1.04-.46,1.68-1.29,2.03-1.16.49-1.97.44-2.16-1.06-.4-3-2.19-5.41-3.39-8.07-1.01-2.23-2.88-3.39-5.06-3.44-5.86-.14-11.76.05-17.44,1.53-2.14.56-4.6.84-6.28,2.81-.95,1.12-2.32.19-3.8-.17.88,3.34-1.44,5.17-3.5,5.73-5.18,1.4-10.55,2.61-15.96.71q-2.71-.95-2.32-3.94c-.99-.43-1,.62-1.45.98-.59.47-1.06,1.51-1.93.82-.72-.58-2.18-1.3-1.52-2.35,1.87-2.98-.04-5.89-.02-8.79.01-2.01.44-3.3,1.86-4.3,3.22-2.27,6.39-4.62,10.56-5.04,2-.2,3.93-1.11,5.94-1.36,1.09-.14,2.85-1.1,3.25,1.42.03.26.03.33,0,.32-.29.34-.42.71-.05,1.27,3.48,1.62,6.01,3.9,7.49,7.29.69,1.58,1.61,2.24,3.66,1.98,5.54-.7,11.03-1.7,16.56-2.4.22-.03.45-.02.68-.04,4.62-.43,5.51-1.65,3.25-5.62-1.65-2.89-1.55-6.04-2.45-9.28.06-.86-.39-1.24-.71-1.89-.18-.89-.27-1.61-.36-2.6-.19-1.69-.51-3.03-.42-4.55.1-1.54.09-3.2-.61-4.93-.78-1.93-.28-4.45-.06-6.69.11-1.12.26-2.15.02-3.31-.54-2.57-.2-2.78,2.87-1.97.26.76.26,1.49.21,2.48-.92,1.57-.17,2.79.2,4.25Z"/><path class="cls-3" d="m64.6,329.88c-.19-.89-.29-1.6-.4-2.57,1.27-.27,1.7.67,1.97,1.63.25.88.44,1.72,1.58,2.19-.04,1.83,1.84,2.47,2.23,4.15.04.99.43,1.64.69,2.54.17.7.24,1.2.3,1.95.2,1.48.93,2.58.83,4.12.13.43.19.65.21,1.04-.05.75.39,1.12.66,1.79.46,1.28.83,2.39,1.23,3.74.6,1.3.93,2.47,1.56,3.75.21.46.3.72.41,1.18.26.57.52.92.69,1.55.49,1.3.93,2.39,1.42,3.72.16.7.46,1.07.65,1.73.51.91.97,1.59,1.1,2.67.72,2.21,1.71,4.06,2.57,6.21,1.12,2.21,2.13,4.23,3.18,6.49.42,1.17,1.02,1.99,1.58,3.08.22.43.32.67.45,1.1.47,1.09,1.03,1.91,1.57,3,.47,1.05.83,1.92,1.23,3.01.1.77.5,1.14.79,1.78.04,2.34.98,4.1,2.42,5.92.38.65.73,1.03,1.17,1.57,1.79,1.95,3.47,3.74,5.18,5.75-.64,4.82.09,5.64,5.4,6.06.99.08,1.89.92,3.16.24.2-.11.44-.3.59-.34,1.61,0,3.18-.23,3.72,1.75.28,1.04,1.09,1,1.92.66.53-.22,1.07-.41,1.64-.22.45.15.81.47.92.93.11.49-.17.84-.61,1.08-1.55.84-3.56,1.38-4.87.82-1.76-.76-3.89-.37-5.36-1.87-.4-.41-1.14-.64-1.59-.31-2.6,1.9-5.87.41-8.61,1.78-1.03.52-2.59.15-2.3-1.46.33-1.9-.7-1.82-1.9-1.85-3.08-.09-6.03-.61-8.58-2.5q-2.07-1.53-.76-4c-.12-2.29,1.16-3.64,2.82-4.02,2.01-.46,4.04-1.65,6.87-.13-1.07-1.97-1.48-3.38-2.72-4.38-3.14-2.56-5-6.11-6.6-9.64-3.24-7.19-6.04-14.58-9.02-21.88-.08-.21-.1-.44-.17-.92-.07-.85-.05-1.46-.61-2.12-1.1-.74-.88-1.6-.68-2.7-.38-1.01-.78-1.77-1.1-2.81-.8-.59-1.21-1.21-1.43-2.21.06-.98-.44-1.62-.49-2.56-.82-2.96-1.59-5.71-2.29-8.7.05-1.89-.51-3.36-1.46-4.93-.47-1.82-1.36-3.33-1.32-5.3.24-.61.35-.98.13-1.56Z"/><path class="cls-3" d="m99.78,170.65c-2.48,1.16-3.65.9-4.39-1.01-.34-.86-.56-1.7-1.76-2.21-.9-1.16-2.03-1.51-3.01-2.04-.59-.32-1.38-.5-1.54-1.23-.42-1.87-1.71-2.86-3.33-3.59-.42-.19-.75-.48-.9-.95-1.21-3.97-4.35-6.43-7.18-9.1-1.24-1.17-2.41-2.36-3.19-4.16.58-.31,1.23-.05,1.61-.61.35-.51-.14-.7-.49-.99-2.3-1.92-2.69-4.66-.61-6.65,1.5-1.43,2-2.63.69-4.33-.29-.38-.47-.82-.19-1.24,1.7-2.49.82-5.29.92-7.94.11-2.99.86-6.06-.59-8.97-.18-.35-.01-.89.04-1.34.06-.51.41-.82.89-.87.47-.05.88.14,1.07.64.36.95.58,1.97,1.71,2.68.24,6.43.26,12.79.23,19.46-.94,2.4-.37,4.58-.44,6.96-.28,1.09-.43,1.91.44,2.84.92.86,1.66,1.54,2.31,2.59,1.16,3.27,3.37,5.52,5.54,7.82,1.38,1.46,2.79,1.73,4.51.66,2.64-1.64,5.68-2.1,8.64-2.78.75-.17,1.71-.49,1.91.62.15.83-.78,1.17-1.38,1.15-2.96-.13-5.2,2.69-8.37,1.92-.89-.22-1.48,1.88-.67,2.63.65.59,1.52.95,2.5,1.54.52.24.77.42,1.07.89,1.49,1.63,3.1,2.72,5,3.84,1.52,1.82-.31,2.56-1.02,3.77Z"/><path class="cls-3" d="m67.63,289.43c.27.59.33,1.07.31,1.79-.31.89-.3,1.62-.75,2.43.02.37.05.55-.01.87.35,1,.49,1.9.11,3.16-.02.49,0,.66-.06.96-.32,4.29-.6,8.45-.89,12.62-.07,1.06.29,2.21-.66,3.36-1-.75-.75-1.69-.86-2.5-.13-.94.44-2.11-1.09-2.75-1.44-1.77-.63-3.71-.87-5.77.02-.65.05-1.07.43-1.54.14-.1.2-.44.06-.53.43-1.6-.1-3.26.55-4.78.31-.72-.25-1.29-.73-1.77-1.32-1.33-1.29-2.83-.55-4.39,1.17-2.45,1.23-5.19,2.04-7.73.38-1.2.43-2.53.02-3.7-.58-1.66.34-3.1.37-4.66,0-.56.49-1.11,1.11-1.09.72.02.81.67.81,1.25-.02,2.84.27,5.73-.19,8.49-.38,2.24.07,4.17.86,6.3Z"/><path class="cls-3" d="m67.93,267.34c.18,1.17.2,2.13.16,3.37-2.87-.62-4.32-3.1-2.8-5.22.72-1.01.36-1.47.38-2.33.14-4.83-.77-9.73.86-14.46.19-.54.43-1.05.29-1.63-.14-.57-.29-1.2.58-1.15.59.04.41.58.43,1.04.21,6.5-.21,13-.19,19.5,0,.22.08.44.29.88Z"/><path class="cls-2" d="m63.54,301.57c-.43,2.46-.41,4.79-.14,7.42-.25,2.44.08,4.53.55,6.81.07.31.02.42-.21.49-1.82-2.1-2.37-4.51-1.88-6.99.42-2.13.94-4.18.49-6.36-.1-.47.22-.85.72-1.32.12-.19.12-.23.13-.23.19.01.36.03.32.19Z"/><path class="cls-3" d="m63.57,316.54c0-.29.24-.44.37-.49,1.96.47,2.63,1.66,2.41,3.53-.13,1.12-.02,2.26-.05,3.39-.02.6-.29,1.13-.94,1.21-.67.08-1.04-.37-1.11-.99-.24-2.12-1.08-4.17-.67-6.65Z"/><path class="cls-3" d="m81.45,110.36c-.48.25-.8.24-1.34.18-1.68-.2-3.12-.28-4.32-1.36-.61-.55-.72-1.1-.57-1.78.18-.85.91-.84,1.58-.94,1.41-.22,2.19,1.06,3.64,1.38.49.27.72.52,1.02.92.21.55.23.94-.01,1.6Z"/><path class="cls-3" d="m61.52,300.14c-.63-.45-.72-.94-.26-1.39.09-.09.44-.08.54.02.47.46.36.94-.29,1.37Z"/><path class="cls-3" d="m92.53,169.38c.47.37.46.81.15,1.44-.68-.27-1.63-.67-.15-1.44Z"/><path class="cls-3" d="m74.42,146.16c-.11-.11-.18-.24-.26-.38.08.03.16.05.29.18.06.1,0,.16-.03.19Z"/><path class="cls-2" d="m93.4,88.26c-.41-.06-.67-.3-.44-.63.08-.11.38-.07.74.04.06.24-.04.34-.29.59Z"/><path class="cls-2" d="m183.17,384.88c-2.12,1.76-2.22,4.41-3.75,6.46.11.37.2.49.1.49-.48.03-.96.14-1.01.36-1.1,4.23-4.47,6.96-6.75,10.67-2.36-3.15-5.89-2.61-8.96-3.36-.53-.13-1.12-.04-1.81-.62-.33-.52-.39-.83-.35-1.39.23-.99.37-1.76.43-2.78.18-1.32.51-2.36.85-3.63.55-1.15,1.45-1.79,1.99-2.96.19-.32.28-.44.49-.74.95-1.09,1.24-2.23,1.53-3.6.1-.36.15-.5.29-.83.72-1.15,1.44-2.06,1.68-3.45.19-.94.47-1.62.84-2.51.32-.76.54-1.33.79-2.13.25-.68.45-1.11.74-1.79,3.71-9.29,7.85-18.17,9.99-27.76.25-1.1.48-2.2.61-3.59.19-.97.46-1.64.76-2.59,1.16-5.3,3.08-10.21,2.58-15.8.12-.66.27-1.01.68-1.54,1.68-1.37,1.97.05,2.7,1.05.28.62.4,1.08.48,1.78.18.86.33,1.49.49,2.38.09.76.11,1.28.13,2.05.04,5.11,1.33,9.81,1.75,14.89.26,1.19.31,2.13.34,3.36,0,1.43-.03,2.58,0,4.01.04,1.82.05,3.34-.2,5.14-.83,2.88-2.25,5.32-1.97,8.46-.11.64-.25.99-.64,1.51-1.86,4.67-3.22,9.21-3.62,14.26,1.11,1.91.19,3.01-1.18,4.2Z"/><path class="cls-3" d="m170.91,373.37c-.17.61-.26.97-.44,1.5-.36.2-.61.27-1.05.37-.52-.12-.67-.56-1.09-.49,0,0,.1,0,.44.16.48.56.56,1.06.63,1.77.14,1.05-.6,1.64-.79,2.65-.81,1.17-1.31,2.25-1.78,3.58-.07.21-.18.12-.12.16-1.49,1.11-.67,3.19-1.93,4.62-.13.18-.18.1-.14.14-.91.67-1.25,1.72-1.8,2.86.05,1.42-.65,2.37-1.07,3.67-.67.91-.58,1.76-.67,2.77-.06.51-.1.81-.22,1.33-1.95,1.18-.64,2.95-1.1,4.53-.14.66-.41.84-1.06.66-.86-.12-1.35.13-1.47.78-.44,2.48-2.05,4.78-.61,7.98-2.63-1.05-4.02-.22-5.29,1.54-.9,1.24-2.4,1.79-3.75.21-.98-1.14-2.1-1.16-3.34-.43-1.35.78-2.85.68-4.32.58-1.45-.1-2.71-.53-2.7-2.36,0-.57-.01-1.36-.5-1.55-3.8-1.44-2.74-5.93-5.2-8.19-.18-.16-.09-.61-.13-.9,1.09-.69,1.15.4,1.52.8,3.21,3.57,6.84,6.29,11.94,6.19.9-.02,1.87.1,2.62-.51.97-.79,1.88-.88,3.13-.52,1.48.43,2.8-.9,2.7-2.51-.03-.44-.7-.47-1.46-.56-.1-.44.11-.8.34-1.37.23-.5.45-.79.79-1.21,3.2-5.3,5.5-10.85,7.99-16.29,2.26-4.93,4.85-9.71,6.91-14.74.56-1.37,1.14-2.71,1.46-4.15.31-1.44.81-2.83,2.64-2.27,2.02.61,1.68,2.3,1,3.64-.88,1.72-1.83,3.36-2.04,5.58Z"/><path class="cls-3" d="m184.9,321.41c.23.48.26.78.22,1.3-1.74,2.49-.55,5.17-1.07,7.66-.58,2.8-2.14,5.45-1.69,8.7-.12.83-.26,1.4-.54,2.14-2.47,2.13-1.43,5.05-2.09,7.48-1.26,4.59-3.12,8.95-4.67,13.42-.82,2.37-2.91,2.06-5.32-.79-.14-.49-.16-.77-.12-1.24,1.55-3.48,3.22-6.67,4.55-10.26.08-.74.14-1.24.26-1.99,1.59-4.47,1.26-9.22,3.94-13.15.83-1.22-.03-2.87.06-4.34.32-5.12,2.1-9.96,2.61-15.3.06-1.43.08-2.59.16-4.05,2.02-1.14,1.42-3.18,1.98-4.6.86-.72,1.57,0,2.31.09,2.87.31,3.5.8,3.62,3.61.08,1.72.66,3.31.75,4.99.04.72.35,1.73-.64,2.05-.71.23-.99-.81-2.07-1.13-.68-.66-.66-1.19-.73-1.7-.28.46-.24.97-.2,1.7,0,.55-.06.85-.34,1.31-2.23.97-1.39,2.54-.98,4.11Z"/><path class="cls-3" d="m183.29,276.08c-.2-1.61-.22-3-.19-4.69,2.97-.8,3-.82,1.4-3.17-.46-.68-.88-1.33-.83-2.17.37-6.36-1.18-12.65-.72-19.01.03-.45.02-.91.05-1.36.08-1.04.78-1.41,1.65-1.22,1.25.28.1,1,.19,1.47.33,1.75-1.31,4.04,1.33,5.2.13.06.2.41.19.63-.15,3.7.74,7.38.27,11.09-.11.9-.22,1.83-.12,2.72.71,6.42-.36,12.83-.09,19.25.23,5.53.64,11.05,1.25,16.54.11,1.02-.06,1.77-.79,2.43-.97.89-2.04.73-2.38-.49-.98-3.53-2.51-7.06-.82-10.79.82-1.81-.14-3.55-.1-5.34.07-3.62.28-7.26-.28-11.1Z"/><path class="cls-3" d="m187.97,366.79c-.2-.47-.21-.77-.17-1.29,1.23-2.68,1.43-5.39,1.98-8.23.01-1.83.07-3.43.18-5.33.79-1.53.69-2.81.15-4.29-.2-1.12-.27-2.05-.34-3.26.6-5.28-.84-10.08-1.61-15.16-.12-.7-.13-1.18-.02-1.88.67-1.18.31-1.77-.83-2.24-.04-.63.08-1.13.33-1.86,2.52.01,3.49.66,3.51,2.95.03,3.4,1.08,6.69.82,10.11-.23,3.09,1.43,5.88,1.68,8.94.12,1.49.29,2.67-.59,4.12-.85,1.4-1.72,3.24-.18,5,.73.83.55,2.02.3,2.95-.61,2.25-.38,4.7-1.78,6.79-.43.65-.52,1.61-.52,2.57,0,1.53.4,3.45-1.71,4.28-.58.23-.81,1.01-.29,1.39,1.45,1.09.31,2.27.25,3.39-.02.43-.2.91-.81.88-.51-.02-.88-.35-1.01-.77-.48-1.56-.28-3.09.14-4.66.37-1.38,1.38-2.67.53-4.4Z"/><path class="cls-3" d="m181.5,224.66c-.29-.38-.36-.68-.42-1.21.83-1.63.42-2.95.01-4.41-.51-1.82-1.81-3.6-.49-5.72.78-1.25-.37-2.15-1.35-2.71-1.46-.82-2.1-1.66-.82-3.17.79-.93.15-2.23.73-3.57,1.13,2.1,1.98,4.13,2.39,6.23,1.16,5.96,3.03,11.73,3.13,17.97.06,3.79.27,7.67.46,11.5.02.45,0,.91-.03,1.36-.05.75-.33,1.35-1.21,1.28-.72-.05-.99-.66-.89-1.21.44-2.49-.72-4.85.3-7.58,1-2.67.09-5.98-1.81-8.76Z"/><path class="cls-3" d="m168.48,405.7c.59-.81.92-1.91,1.45-2.01,1.38-.27,2.85-.17,4.27-.07.44.03.59.65.31,1.11-1.32,2.25-2.65,4.5-4,6.72-.45.75-1.21.98-2.06.98-.91,0-2.03-.25-2.61.48-1.41,1.76-3.2,1.85-5.25,1.97-1.28.08-2.15.04-2.98-.92-1.09-1.27.67-1.69.73-2.6.01-.23.04-.45.05-.93.51-.74,1.14-.81,2.04-.74.53.12.81.24,1.27.49.55.31.92.5,1.56.47,1.35-.92,3.09-.83,3.95-2.51.39-.92.62-1.66,1.27-2.45Z"/><path class="cls-2" d="m163.3,411.48c-.49.07-.85-.04-1.31-.33-.28-.3-.45-.45-.71-.76-.85-.19-1.59-.25-2.62-.25-2.05-.56-1.56-1.7-1-2.9.49-1.05,1.75-1.9.88-3.53.22-.23.52-.25,1.02-.37.61.05,1-.03,1.48-.41.34-.38.61-.51,1.13-.57.67.08,1.1.21,1.76.36.51.15.77.29,1.16.64.98,1.06,2.58.6,3.37,2.03.15.9.11,1.66-.47,2.5-.87,2.27-4.01,1.03-4.69,3.58Z"/><path class="cls-1" d="m175.95,163.15c1.51,1.65,3.6,2.17,5.18,3.4,3.84,2.98,7.23,6.45,10.74,10.09-1.56.95-2.47-.22-3.32-1.19-2.65-3.01-6.37-4.58-9.43-7.04-1.55-1.24-3.39-2.12-5.34-3.18-.23-1.45.59-2.02,2.17-2.08Z"/><path class="cls-3" d="m137.58,378.67c.13.91.12,1.65.03,2.66-1.53.9-.88,2.22-1.05,3.26-.17,1.02-.64,1.8-1.74,1.7-1.08-.1-1.09-1.1-.97-1.86.71-4.23,1.1-8.53,2.66-12.58.28-.73.66-1.23,1.48-.95.46.16.75.74.5,1.11-1.37,2.02-.4,4.38-.92,6.66Z"/><path class="cls-3" d="m183.13,385.18c-.37-1.56.71-2.54,1.18-3.99,1.34-.25,1.27-1.4,1.71-2.12.24-.39.6-.71,1.11-.59.74.18.68.81.65,1.36-.05,1.37-1.08,2.37-1.4,3.73-.62,2.61-1.56,5.23-3.44,7.67-1.55-2.33.84-4.03.19-6.07Z"/><path class="cls-3" d="m118.1,375.96c.22,1.34.89,2.42.33,3.84-.29,1.3-.93,1.87-2.33,1.73-.8-1.08-.51-2.29-.61-3.73-.19-1.3.11-2.37-.46-3.54-.58-.76-1.46-1.61-.63-2.05.91-.48,2.34-.76,3.14.55.2.33.1.85.09,1.56.11.67.36,1.01.46,1.63Z"/><path class="cls-3" d="m136.9,364.72c-.18-.41-.16-.71-.09-1.23,1.03-1.93,2.03-3.45,3.72-.57,0,.58,0,.9-.01,1.46.04.52.07.81.02,1.31-.03.72-.02,1.24-.08,1.99-.87.27-1.67.33-1.85-.74-.16-.95-.88-1.5-1.7-2.23Z"/><path class="cls-3" d="m135.56,389.62c.17,1.33.18,2.5.13,3.96-1.36.43-2.36.07-2.47-1.4-.11-1.45-.35-3.13,1.1-3.99.87-.52.73.81,1.24,1.43Z"/><path class="cls-3" d="m179.42,391.62c3.11,1.63,3.14,3.51-.26,6.34-.26-1.97-.51-3.89.2-5.98-.04-.28.05-.31.06-.35Z"/><path class="cls-3" d="m167.31,185.02c.02-1.02-.11-1.99-.49-2.96-.35-.88-.5-1.85-.77-2.93,1.8-.07,1.94,1.23,2.44,2.1.43.75.12,1.78.94,2.43.57.45.85,1.18.23,1.72-.6.53-1.23-.19-2.09-.35-.24-.03-.27,0-.26-.02Z"/><path class="cls-3" d="m179,398.1c.13,2.06-2.21,2.3-2.74,3.88-.03.09-.67.1-.92-.05-.56-.33-.67-.95-.36-1.46.76-1.25,1.65-2.42,3.55-2.57.24-.04.39.12.47.19Z"/><path class="cls-3" d="m172.73,190.62c.03.7.14,1.19-.27,1.51-.27.21-.73.27-.84-.1-.43-1.53-1.89-2.82-1.28-4.84,1.62.61,1.71,2.1,2.39,3.44Z"/><path class="cls-3" d="m162.72,402.78c-.49,0-.8.03-1.34.02-.24-1.11-.12-2.03,1.31-2.05,1.58-.03,2.61.45,2.55,2.51-.29.21-.58.14-1.08-.03-.55-.24-.89-.39-1.45-.45Z"/><path class="cls-2" d="m185.81,317.71c-.02-.53.04-.81.1-1.32.22-.46.49-.58,1-.42.18.15.19.14.19.14-.24,1.24.13,2.62-.66,3.85-.82-.68-.38-1.41-.63-2.26Z"/><path class="cls-3" d="m174.77,202.73c-.31-.3-.41-.58-.53-1.1.57-.15,1.37-.49,1.65.26.29.76-.37.81-1.13.83Z"/><path class="cls-3" d="m175.18,199.06c.17.53.02.81-.39.77-.15-.01-.38-.26-.39-.41-.02-.41.25-.56.78-.36Z"/><path class="cls-3" d="m189.17,320.41c.51.24.57.55.27.81-.11.1-.45.1-.56,0-.3-.27-.22-.57.29-.81Z"/><path class="cls-3" d="m151.64,404.22c-.09.13-.26.62-.22-.06.1-.06.18.01.22.06Z"/><path class="cls-4" d="m180.84,120.22c-.51-1.09-.3-2.21-.16-3.34.09-.69.19-1.33-.49-1.83-1.62-1.2-.79-2.26.19-3.39,1.48-1.72,3.03-3.55,3.43-5.78.3-1.68,2.46-.91,2.39-2.19-.06-1.1-.57-2.19-.06-3.3.33-.73.82-1.36,1.6-1.69.44-.19.88-.52.63-1.01-1.2-2.29.53-4.1,1.14-6.25.44.89.45,1.88-.03,2.85-.39.8-.4,1.44-.04,2.44.87,2.38-.84,3.91-2.95,5.27,2.06,1.43,1.67,2.79,1.08,4.9-1.04,3.72-3.21,6.93-4.05,10.66-.3,1.34-1.28,2.07-2.67,2.66Z"/><path class="cls-4" d="m187.99,140.54c-1.29-.09-1.92.43-2.35,1.36-1.39,3.01-3.66,5.04-6.68,6.47-2.34,1.11-4.45,2.7-6.69,4.03-.69.41-1.55.76-2-.3-.35-.82.35-1.39.93-1.57,2.3-.72,4.22-2.06,6.14-3.43,2.7-1.93,5.54-3.67,7.2-6.73.59-1.09.55-2.17.62-3.57,2.38.38,3.05,1.27,2.83,3.76Z"/><path class="cls-4" d="m166.91,163.27c-2.2-.99-4.37-1.78-5.7-3.79-.34-.52-.87-.67-1.48-.65-1.28.04-1.97-.93-2.99-1.59,2.18-.73,6.82,1.04,11.17,4.33.12.92-.11,1.45-1,1.7Z"/><path class="cls-4" d="m184.15,132.56c-.35-.03-.84-.39-.83-.73.09-2.31-.98-4.25-1.83-6.53.56-.38,1.03-.6,1.47-.99,1.02-.91,1.57-.1,1.34.72-.7,2.43.52,4.82-.15,7.53Z"/><path class="cls-4" d="m168.9,83.85c-1.67-.07-3.12.09-4.78.68.45-3.18,3.26-2.43,5.31-3.29.3,1.06-.09,1.76-.52,2.6Z"/><path class="cls-4" d="m155.14,173.47c-.22.22-.51.28-.64.16-.74-.68-2.42-.04-2.48-1.2-.07-1.44,1.6-1.19,2.78-1.66.28.82.31,1.64.33,2.7Z"/><path class="cls-4" d="m159.37,174.03c-.83,1.34-2.05,1.77-3.53.25,1.05-.23,2.15-.24,3.53-.25Z"/><path class="cls-4" d="m155.29,170.76c-.2-1.25.7-.93,1.64-.94-.02.86-.71.93-1.64.94Z"/><path class="cls-4" d="m163.84,174.09c-.41-.12-.74-.46-1.18-1.01.03-.72.38-.97.85-.7.58.33.44.95.34,1.72Z"/><path class="cls-4" d="m181.34,123.43c-.57-.08-.73-.44-.68-1.09.7-.04,1.07.28.68,1.09Z"/><path class="cls-4" d="m190.3,90.13c-.4-.56.01-.98.5-1.56.39.51.34,1.08-.5,1.56Z"/><path class="cls-4" d="m57.52,363.37c.88-.07,1.17.4,1.04,1.35-.31.12-.55.01-.96-.11-.19-.35-.2-.69-.08-1.24Z"/><path class="cls-4" d="m29.42,373.2c-.97.1-1.92-.05-.34-1.16.25.3.29.61.34,1.16Z"/><path class="cls-4" d="m57.4,364.57c-.06,0-.12.02-.07.04.1,0,.08-.02.07-.04Z"/><path class="cls-4" d="m114.08,320.07c.65,1.05.55,2.08.5,3.1-.23,4.86.5,9.75.28,14.51-.21,4.51.99,8.89.39,13.43-.35,2.65.37,5.64.89,8.39.5,2.7.18,5.44.88,8.08.2.77.17,1.67-.83,1.95-1.09.3-2.33.08-2.45-1.13-.21-2.09-1.98-3.95-.9-6.21.28-.58-.01-1.1-.22-1.63-1.22-3.03-1-6.23-1.27-9.39-.36-4.39-.53-8.78-.79-13.16-.27-4.53.32-9.05-.08-13.57-.55-6.25.86-12.38,1.02-18.6.09-3.49.58-6.99,1.23-10.43.62-3.28,1.65-6.49,2.53-9.73.37-1.37,1.08-2.57.7-4.19-.28-1.23.49-2.57,1.76-4.27-.7,4.8.07,8.97-.78,13.08-.14.66-.31,1.35-.29,2.02.23,6.13-1.42,12.14-1.15,18.29.09,2.1-.63,4.24-1.06,6.64-.71.9-2.27.48-2.05,2.07.15,1.05.8.84,1.68.74Z"/><path class="cls-4" d="m140.7,362.98q-1.71-1.55-3.63.22c-.26-.49-.57-1.19-.34-1.58,1.49-2.61.86-5.54,1.31-8.3,1.05-6.43,1.19-12.97,1.98-19.45.26-2.11.56-4.37.4-6.58-.1-1.46-.21-2.96.48-4.36.14-.3.32-.71.22-.97-1.46-3.73.42-7.63-.59-11.38-.17-.62.01-1.35.1-2.02.74-5.63.37-11.29.03-16.91-.15-2.34.76-4.66-.09-6.99-.17-.46.24-1.13.97-1.13.73,0,.89.58.99,1.15.66,3.46.77,6.96.98,10.46.33,5.36,1.43,10.73.76,16.06-.49,3.94.52,7.83-.3,11.71-.27,1.27.78,2.34.51,3.66-1.05,5.25-.19,10.64-.98,15.86-.73,4.82-.64,9.68-1.45,14.46-.33,1.97-.78,3.93-1.36,6.09Z"/><path class="cls-4" d="m137.18,149.4c-1.55.63-1.4,1.64-.95,2.63,1.37,3.07,4.2,4.8,7.07,5.33,2.2.4,4.8-.95,6.85-2.44.44-.32.73-.89,1.3-1.03.77-.18,1.61-.41,2.23.29.72.81.11,1.46-.38,2.09-3.64,4.72-9.37,6.64-14.21,2.82-3.07-2.42-5.42-1.57-8.28.03-3.83,2.14-7.71,3.98-12.44,3.6-2.75-.22-4.3-1.8-6.09-3.26-.77-.63-.17-1.9.86-1.97.44-.03.97.02,1.33.24,3.62,2.22,7.04.81,10.72-.07,3.19-.76,5.08-2.75,7.09-4.82,1.41-1.46,1.16-2.76-.39-4.26-1.14-1.1-2.3-2.17-3.67-2.98-.1-.06-.19-.12-.29-.18-1.28-.79-2.12-2.07-1.71-3.41.43-1.41,2.11-2.3,3.38-2.22,1.59.1,2.85-.5,4.24-.85.43-.11,1.05-.53,1.27-.19,1.34,2.08,2.54.44,3.78-.06,1.42-.58,2.92-.33,4.38-.34.97,0,1.72.94,1.11,1.56-2.13,2.17-2.06,5.44-4.12,7.6-.81.85-1.67,1.52-3.06,1.88Z"/><path class="cls-3" d="m152.42,124.4c1.12-.79,2.03-1.44,2.88-2.21,3.27-2.97,6.5-2.99,9.96-.1.77.64,1.57,1.32,1.81,2.63-1.65.47-2.19,1.76-2.66,3.38-.62,2.17-1.93,3.97-4.01,5.23-2.06,1.25-3.95,1.48-6.05.28-1.45-.83-2.75-1.88-4.57-2.13-1.35-.19-1.75-1.64-.78-2.57,1.34-1.29,1.94-3.07,3.42-4.5Z"/><path class="cls-3" d="m110.87,135.29c-4.45-.16-7.57-2.34-8.66-6.39-.46-1.71-1.21-2.75-2.71-3.28,1.27-3.33,4.3-3.8,6.89-4.64,1.48-.48,3.04.71,4.33,1.58,2.82,1.91,4.98,4.52,6.96,7.26.79,1.09.5,2.45-.78,2.67-2.23.38-3.81,1.93-6.03,2.79Z"/><path class="cls-4" d="m99.86,170.87c-.77-1.63,1.15-2.09,1.12-3.6,5.43,1.59,11.05,2.58,16.61,3.9,4.07.97,8.31.67,12.31,1.92.78.24,1.69.4,1.49,1.44-.16.79-1.05.82-1.7.77-2.03-.14-4.03.59-6.07.08-.71-.18-1.56-.28-2.34.59.27,1.11,1.56,1.46,2.14,2.44-.51.19-1.09.63-1.53.52-4.18-1.02-8.62-1.16-12.34-3.78-1.1-.78-.25-1.96-1.08-2.87-1.06.1-2.19,1.25-3.47-.23-1.15-1.32-3.19-.75-5.11-1.19Z"/><path class="cls-4" d="m169.53,361.39c.44-.02.79.27,1.16.51,2.8,1.81,3.63,1.63,4.52-1.46,1.49-5.2,4.07-10.05,4.8-15.82-.16-.52-.79.08-1.25.05-.69-.03-1.06-.36-1-1.05.05-.55.56-.91.94-.72,1.68.85,1.56-1.23,2.76-1.5-.23,4.61-1.3,9.07-3.1,13.39-1.55,3.72-2.72,7.58-4.14,11.35-.91,2.42-1.98,4.79-3.18,7.32-.37-1.93-.41-3.92,1.34-5.5.61-.55.5-1.48.41-2.27-.07-.63-.45-1.04-1.08-1.11-.73-.08-1.5.07-1.55.91-.3,4.45-3.43,7.79-4.62,11.89-.18.61-.88,1.07-.16,1.75.28.26.19.8-.1.83-2.79.34-2.32,2.97-3.27,4.59-2.11,3.61-3.33,7.67-5.54,11.24-1.1,1.77-.95,4.23-3.14,5.62,1.12-4.02,3.2-7.76,4.96-11.65,2.98-6.58,6.17-13.06,9.13-19.64,1.2-2.66,2.14-5.46,2.13-8.75Z"/><path class="cls-4" d="m180.91,314.96c1.06.83.69,1.94.38,3.02-1.28,4.46-1.55,9.09-2.34,13.63-.24,1.38,1.69,1.78,1.04,2.97-.53.96-2.12,1.26-2.26,2.42-.27,2.27-1.33,4.32-1.59,6.56-.16,1.37-.51,2.64-1.42,3.92-.49-2.98.66-5.88.96-8.9.8-7.98,3.73-15.53,5.23-23.61Z"/><path class="cls-4" d="m108.38,409.14c.17.49-.05,1.04-.51,1.02-3.7-.18-7.63.19-9.89-3.79-.14-.25-.55-.36-.72-.46.35-1.6,2.47-.61,2.57-2.46,2.11,2.71,4.73,4.83,8.55,5.69Z"/><path class="cls-4" d="m96.14,163.08c-.69.16-1.02-.06-1.19-.64.11-.87.45-1.5,1.15-1.68,3.13-.8,6.17-2,9.45-2.11.62-.02,1.51-.09,1.48.87-.02.66-.72.76-1.29.83-3.24.43-6.1,2.26-9.61,2.73Z"/><path class="cls-4" d="m82.43,148.87c-1.5-.31-2.09-1.19-2.53-2.43,5.65,1.25,11.17,3.22,16.99,4.34-1.39,1.4-3.16,1.35-4.58.9-2.42-.76-5.1-.75-7.29-2.34-.56-.41-1.51-.29-2.59-.48Z"/><path class="cls-4" d="m174.01,349.71c1.1.61.39,1.38.08,1.98-1.23,2.4-2.27,4.87-3.23,7.38-.1.28-.49.44-.96.73-.05-2.32,1.28-4.27,2.23-6.35.55-1.2,1.12-2.4,1.87-3.73Z"/><path class="cls-3" d="m114.39,319.9c-1.12.36-.71,1.65-1.64,2.03-.99-1.25-1.92-2.44-.89-4.19.64-1.09,1.4-.18,2.3-.22.25.72.28,1.42.23,2.38Z"/><path class="cls-4" d="m79.54,143.22c-1.36-2.01-1.28-4.25-.08-6.6.54,2.06.38,4.23.08,6.6Z"/><path class="cls-4" d="m82.45,371.21c-1.88-1.26-2.26-3.51-2.84-5.75,1.58,1.47,1.99,3.6,2.84,5.75Z"/><path class="cls-4" d="m71.93,343.93c-1.21-.84-1.08-2.27-1.13-3.74.98.94,1.44,2.15,1.13,3.74Z"/><path class="cls-4" d="m114.94,374.34c1.83.31,1.04,1.68.76,3.01-.79-.72-.75-1.74-.76-3.01Z"/><path class="cls-4" d="m75.6,354.16c-1.6-.29-1.19-1.88-1.71-3.21,1.35.43,1.17,1.9,1.71,3.21Z"/><path class="cls-4" d="m89.22,384.9c-1.3-.13-1.44-1.26-1.7-2.53,1.08.28,1.26,1.39,1.7,2.53Z"/><path class="cls-4" d="m67.35,297.87c-.47-.75-.45-1.65-.28-2.89,1.37.55.93,1.65.28,2.89Z"/><path class="cls-4" d="m87.2,380.79c-1.32-.13-1.48-1.26-1.71-2.56,1.11.29,1.23,1.43,1.71,2.56Z"/><path class="cls-4" d="m70.83,337.79c-1.13-.08-1.17-.89-.95-2.02.67.31.95,1.01.95,2.02Z"/><path class="cls-4" d="m81.38,110.79c-.05-.56-.02-.94.09-1.6.87.01,1.24.65,1.43,1.65,0,.23-.06.52-.2.55-.5-.12-.86-.27-1.31-.6Z"/><path class="cls-4" d="m67.31,293.71c-.42-.64-.52-1.4.34-2.16.58.69.28,1.37-.34,2.16Z"/><path class="cls-4" d="m91.26,389.7c-.71.01-1.01-.42-.95-1.31.62.04.92.5.95,1.31Z"/><path class="cls-4" d="m94.81,397.17c-.65.15-1.08-.18-1.18-1.09.62-.09.9.39,1.18,1.09Z"/><path class="cls-4" d="m76.7,356.97c-.59-.05-.84-.45-.84-1.19.58.02.89.41.84,1.19Z"/><path class="cls-4" d="m118.22,376.05c-.54-.12-.73-.5-.68-1.21.7,0,.85.48.68,1.21Z"/><path class="cls-4" d="m72.81,346.69c-.74,0-1.03-.46-.88-1.38.61.09.88.57.88,1.38Z"/><path class="cls-4" d="m78.78,362.41c-.6-.08-.84-.53-.78-1.31.64.04.82.53.78,1.31Z"/><path class="cls-4" d="m140.63,365.8c-.61-.18-.66-.55-.26-1.09.71.16.6.56.26,1.09Z"/><path class="cls-4" d="m82.8,111.16c.33.06.53.27.35.56-.04.07-.3.02-.53-.14-.07-.16.1-.34.18-.42Z"/><path class="cls-4" d="m59.8,345.97q-2.36-2.11-.64-3.9c.92,1.11.9,2.37.64,3.9Z"/><path class="cls-4" d="m65.65,336.83c1.55.9,2.14,2.23,1.87,4.53-1.69-1.03-1.01-2.94-1.87-4.53Z"/><path class="cls-4" d="m71.3,355.21c1.21.18,1.55,1.11,1.42,2.36-1.71.06-1.69-.97-1.42-2.36Z"/><path class="cls-4" d="m73.09,360.72c1.18-.16,1.52.44.91,1.66-.77-.21-.72-.88-.91-1.66Z"/><path class="cls-4" d="m69.41,350.38c1.1.19.97,1.02.71,2.09-.89-.28-.93-1.04-.71-2.09Z"/><path class="cls-4" d="m64.44,329.94c.98.03,1.3.45.26,1.21-.23-.29-.28-.63-.26-1.21Z"/><path class="cls-2" d="m34.12,386.96c-2.63,4.37-6.86,5-11.09,5.43-1.8.18-3.33-1.04-4.42-2.28-2.13-2.4-4.59-4.33-7.21-6.1-.92-.62-1.46-1.3-1.79-2.33-.32-.97-.16-1.46.59-2.29,3.13-3.48,7.45-3.5,11.49-4.15,8.07-1.3,11.11,4.28,13.15,9.96.21.58-.32,1.04-.72,1.74Z"/><path class="cls-2" d="m88.37,403.31c2.47.27,3.82,1.45,4.2,3.93-2.01.25-3.45-1.42-5.29-1.14-.51.08-.77-.46-.77-.92.01-1.05.6-1.65,1.86-1.86Z"/><path class="cls-4" d="m63.49,301.69c-.16.02-.28-.14-.26-.23.27-.14.72-.47.26.23Z"/><path class="cls-4" d="m187.97,329.29c1.74,1.09,1.34,3.14,1.73,4.89.55,2.48.78,5.03,1.19,7.55.14.87-.36,1.48-.93,2.27-1.34-4.66-1.92-9.52-1.99-14.7Z"/><path class="cls-4" d="m182.6,339.18c-1.24-.75-.97-1.88-.67-2.94,1.11-4.07,2.48-8.09,1.45-12.42-.17-.71.65-.74,1.42-.87.52,4.27.03,8.46-1.48,12.47-.45,1.2.07,2.47-.71,3.76Z"/><path class="cls-4" d="m189.54,357.21c.73.07,1.49.64,1.26.95-1.54,2.04-.66,4.82-2.2,6.82-.06.08-.18.13-.52.24-.42-2.71.22-5.32,1.46-8.01Z"/><path class="cls-4" d="m164.88,387.82c-.42-.93.54-1.75.08-2.81-.55-1.27.71-1.34,1.58-1.85.08,1.64-.2,3.29-1.66,4.66Z"/><path class="cls-4" d="m189.93,347.77c2.03.83,1.32,2.27.31,3.8-.62-1.11-.28-2.32-.31-3.8Z"/><path class="cls-4" d="m187.15,325.22c.44-.22.88-.2,1.32-.17.59.04,1.11.2,1.18.88.08.69-.42.95-1.18,1.17-.59-.52-.95-1.07-1.32-1.88Z"/><path class="cls-4" d="m166.95,383.02c-.4-1.29,0-2.45,1.35-3.39.37,1.3-.56,2.22-1.35,3.39Z"/><path class="cls-4" d="m163.01,390.78c-.5-1.22-.1-2.25,1.39-2.93.07,1.08-.46,2-1.39,2.93Z"/><path class="cls-4" d="m161.26,397.17c-.95-.79-1-1.68.18-2.55.42.79.49,1.62-.18,2.55Z"/><path class="cls-4" d="m169.57,376.73c-.77-.21-.87-.81-.89-1.68.37-.2.75-.16,1.41-.07.06.57-.16,1.08-.53,1.75Z"/><path class="cls-4" d="m168.67,374.82s-.29-.17-.29-.17c0,0,.2.02.24.09.04.08.05.07.05.07Z"/><path class="cls-4" d="m187.11,315.85c-.28.29-.55.32-1.01.33-1.53-.86-.19-1.82-.3-2.73-.08-.7.19-1.43,1.12-1.21.8.18.46.82.37,1.36-.11.65-.12,1.33-.18,2.26Z"/><path class="cls-4" d="m163.42,411.65c-1.2-1.34-.4-2.13.77-2.51,1.05-.34,2.2-.41,3.46-1,.35,1.18-.25,2.03-1.42,2.04-1.22.01-1.66,1.07-2.81,1.47Z"/><path class="cls-4" d="m161.23,410.43c.19-.07.43.03.67.34-.21.08-.41-.04-.67-.34Z"/><path class="cls-4" d="m162.66,402.93c.33-.9.77-.7,1.26.03-.35.37-.74.32-1.26-.03Z"/><path class="cls-3" d="m111.69,324.63c.74-.3,1.37-.39,1.44.42.05.64-.4,1.1-1.04,1.05-.82-.07-.67-.73-.4-1.46Z"/><path class="cls-3" d="m112.71,314.98c.46.23.51.51.24.75-.1.09-.41.09-.51,0-.27-.25-.2-.53.27-.75Z"/><path class="cls-2" d="m138.34,144.25c-3.39,2.45-4.12,2.35-8.35-1.03,2.47-1.13,8.96-1.01,11.02.21-.58,1-1.63.45-2.68.83Z"/><path class="cls-4" d="m156.54,126.95c.08-1.56.92-2.48,1.79-3.32.43-.42,1.13-.93,1.79-.39.65.54.38,1.25-.04,1.8-.48.62-1.07,1.14-1.79,1.84-.61.36-1.07.44-1.75.08Z"/><path class="cls-2" d="m156.21,126.86c.54-.14.93-.07,1.61.08-.79,1.36-1,1.37-1.61-.08Z"/><path class="cls-2" d="m110.7,127.36c.45,1.19-.52,2.14-.84,1.65-.92-1.42-3.27-1.87-2.95-4.42,1.86.08,2.58,1.65,3.79,2.77Z"/><path class="cls-2" d="m110.76,172.69c.16-.29.3-.25.31,0,0,.25-.14.29-.31,0Z"/><path class="cls-2" d="m120.7,175.03c-.01.41-.17.46-.33.3-.16-.16-.1-.31.33-.3Z"/></svg>